<svg width="16" height="20" viewBox="0 0 16 20" fill="none" xmlns="http://www.w3.org/2000/svg">
<g id="Group 64047">
<path id="XMLID_581_" d="M14.1132 7.76216H6.90087C7.23438 7.37765 7.43702 6.87607 7.43702 6.32759C7.43702 5.1206 6.45804 4.13867 5.25468 4.13867C4.05132 4.13867 3.07234 5.1206 3.07234 6.32759C3.07234 6.87607 3.27498 7.37765 3.60845 7.76216H1.88679C0.846415 7.76216 0 8.61113 0 9.65464V11.8877C0 12.0968 0.168943 12.2662 0.377358 12.2662C0.585774 12.2662 0.754717 12.0968 0.754717 11.8877V9.65464C0.754717 9.02853 1.26257 8.51915 1.88679 8.51915H12.4528C13.0771 8.51915 13.5849 9.02853 13.5849 9.65464V11.6985H9.66038C8.62 11.6985 7.77358 12.5475 7.77358 13.591C7.77358 14.6345 8.62 15.4835 9.66038 15.4835H13.5849V17.5273C13.5849 18.1535 13.0771 18.6628 12.4528 18.6628H1.88679C1.26257 18.6628 0.754717 18.1535 0.754717 17.5273V15.2913C0.754717 15.0822 0.585774 14.9128 0.377358 14.9128C0.168943 14.9128 0 15.0822 0 15.2913V17.5273C0 18.5709 0.846415 19.4198 1.88679 19.4198H14.1132C15.1536 19.4198 16 18.5709 16 17.5273V9.65464C16 8.61113 15.1536 7.76216 14.1132 7.76216ZM5.25468 4.8957C6.04189 4.8957 6.6823 5.53805 6.6823 6.32763C6.6823 7.1172 6.04189 7.75955 5.25468 7.75955C4.46751 7.75955 3.82706 7.1172 3.82706 6.32763C3.82706 5.53805 4.46747 4.8957 5.25468 4.8957ZM13.9612 8.51915H14.1132C14.7374 8.51915 15.2453 9.02853 15.2453 9.65464V11.6985H14.3396V9.65464C14.3396 9.22895 14.1987 8.83569 13.9612 8.51915ZM8.5283 13.591C8.5283 12.9649 9.03615 12.4555 9.66038 12.4555H15.2453V14.7265H9.66038C9.03615 14.7265 8.5283 14.2171 8.5283 13.591ZM14.1132 18.6628H13.9612C14.1987 18.3463 14.3396 17.9531 14.3396 17.5273V15.4835H15.2453V17.5273C15.2453 18.1535 14.7374 18.6628 14.1132 18.6628Z" fill="white"/>
<path id="XMLID_1260_" d="M9.56486 13.2109C9.46524 13.2109 9.36788 13.2514 9.29769 13.3218C9.2275 13.3922 9.1875 13.4899 9.1875 13.5894C9.1875 13.689 9.2275 13.7866 9.29769 13.857C9.36826 13.9274 9.46524 13.9679 9.56486 13.9679C9.6641 13.9679 9.76109 13.9274 9.83165 13.857C9.90184 13.7866 9.94222 13.689 9.94222 13.5894C9.94222 13.4899 9.90184 13.3922 9.83165 13.3218C9.76146 13.2514 9.6641 13.2109 9.56486 13.2109Z" fill="white"/>
<path id="XMLID_1711_" d="M10.7448 5.20986C11.9482 5.20986 12.9272 4.22793 12.9272 3.02095C12.9272 1.814 11.9482 0.832031 10.7448 0.832031C9.54148 0.832031 8.5625 1.81396 8.5625 3.02095C8.5625 4.22793 9.54148 5.20986 10.7448 5.20986ZM10.7448 1.58906C11.532 1.58906 12.1725 2.23141 12.1725 3.02098C12.1725 3.81056 11.532 4.45291 10.7448 4.45291C9.95763 4.45291 9.31722 3.81056 9.31722 3.02098C9.31722 2.23141 9.95763 1.58906 10.7448 1.58906Z" fill="white"/>
<path id="XMLID_1712_" d="M7.05705 3.73125C7.26546 3.73125 7.4344 3.56179 7.4344 3.35275V0.378496C7.4344 0.169452 7.26546 0 7.05705 0C6.84863 0 6.67969 0.169452 6.67969 0.378496V3.35275C6.67969 3.56179 6.84863 3.73125 7.05705 3.73125Z" fill="white"/>
<path id="XMLID_1757_" d="M5.24845 2.42237C5.45687 2.42237 5.62581 2.25292 5.62581 2.04388V0.378496C5.62581 0.169452 5.45687 0 5.24845 0C5.04004 0 4.87109 0.169452 4.87109 0.378496V2.04388C4.87109 2.25292 5.04004 2.42237 5.24845 2.42237Z" fill="white"/>
<path id="XMLID_1760_" d="M0.377358 13.9679C0.476604 13.9679 0.573962 13.9274 0.644151 13.857C0.71434 13.7866 0.754717 13.689 0.754717 13.5894C0.754717 13.4899 0.71434 13.3922 0.644151 13.3218C0.573962 13.2514 0.476981 13.2109 0.377358 13.2109C0.278113 13.2109 0.180755 13.2514 0.110566 13.3218C0.0403774 13.3922 0 13.4899 0 13.5894C0 13.689 0.0403774 13.7866 0.110566 13.857C0.180755 13.9274 0.278075 13.9679 0.377358 13.9679Z" fill="white"/>
</g>
</svg>
