<svg width="20" height="20" viewBox="0 0 20 20" fill="none" xmlns="http://www.w3.org/2000/svg">
<g id="quality-service 1">
<path id="Vector" fill-rule="evenodd" clip-rule="evenodd" d="M7.39576 5.84498C7.45728 5.96666 7.47748 6.08131 7.46131 6.21674L7.37514 6.93779C7.30728 7.50568 7.6149 8.0385 8.14064 8.26361L8.5692 8.44713L7.5067 10.7293C7.44381 10.8644 7.46103 11.0217 7.55158 11.1399C7.64217 11.2581 7.78967 11.3156 7.93646 11.2899L9.02424 11.0999L9.57908 12.0547C9.65084 12.1781 9.78154 12.2529 9.9233 12.2529C9.92939 12.2529 9.93549 12.2528 9.94162 12.2525C10.0904 12.2457 10.2219 12.1577 10.2848 12.0226L11.3158 9.80799L11.6287 9.71346C11.7592 9.674 11.8756 9.674 12.0062 9.71346L12.319 9.80799L13.3501 12.0226C13.4129 12.1576 13.5444 12.2457 13.6931 12.2525C13.6993 12.2528 13.7054 12.2529 13.7115 12.2529C13.8532 12.2529 13.9839 12.1781 14.0557 12.0546L14.6105 11.0999L15.6983 11.2899C15.8452 11.3156 15.9926 11.2581 16.0832 11.1399C16.1738 11.0217 16.191 10.8644 16.1281 10.7293L15.0656 8.44713L15.4941 8.26365C16.0198 8.03846 16.3275 7.50568 16.2596 6.93779L16.1734 6.21674C16.1572 6.08131 16.1775 5.9667 16.239 5.84494L16.5665 5.19689C16.8246 4.68647 16.7177 4.08057 16.3007 3.68916L15.7712 3.19213C15.6718 3.09885 15.6135 2.99803 15.5824 2.86529L15.4168 2.15822C15.2864 1.60135 14.8151 1.20588 14.244 1.17416L13.519 1.13381C13.3828 1.12623 13.2734 1.08639 13.1642 1.00471L12.5829 0.569551C12.125 0.226816 11.5097 0.226816 11.0519 0.569551L10.4706 1.00467C10.3613 1.08639 10.2519 1.12619 10.1158 1.13381L9.39076 1.17416C8.81967 1.20592 8.34834 1.60139 8.21787 2.15826L8.05224 2.86529C8.02115 2.99807 7.96291 3.09889 7.86346 3.19221L7.334 3.6892C6.91697 4.08061 6.81014 4.68647 7.06814 5.19693L7.39576 5.84498ZM9.90131 11.3653L9.45517 10.5976C9.38943 10.4844 9.26025 10.4243 9.13119 10.4467L8.2565 10.5996L9.09771 8.79279L9.49478 9.3999C9.73431 9.76623 10.1292 9.97514 10.5467 9.979L9.90131 11.3653ZM14.5034 10.4467C14.3745 10.4242 14.2452 10.4844 14.1794 10.5975L13.7333 11.3653L13.0877 9.97854C13.5053 9.97471 13.9003 9.76619 14.1398 9.3999L14.5369 8.79272L15.3781 10.5996L14.5034 10.4467ZM7.76174 4.1449L8.29115 3.64795C8.4806 3.47022 8.60146 3.26088 8.66076 3.00783L8.82639 2.3008C8.89404 2.01193 9.1292 1.81467 9.42541 1.79818L10.1504 1.75783C10.4097 1.74342 10.6369 1.66076 10.8449 1.50506L11.4263 1.0699C11.6638 0.892129 11.9708 0.892129 12.2082 1.0699L12.7896 1.5051C12.9976 1.66072 13.2248 1.74342 13.4841 1.75783L14.2091 1.79818C14.5053 1.81467 14.7405 2.01197 14.8081 2.30076L14.9737 3.00787C15.033 3.26084 15.1539 3.47022 15.3433 3.64791L15.8728 4.1449C16.0891 4.34791 16.1424 4.65022 16.0085 4.91494L15.681 5.56303C15.5638 5.79486 15.5218 6.03295 15.5526 6.29092L15.6388 7.01197C15.674 7.30654 15.5205 7.57236 15.2478 7.68916L14.5803 7.97502C14.3415 8.07729 14.1563 8.23272 14.0141 8.4501L13.6166 9.05783C13.4542 9.30611 13.1658 9.41111 12.8818 9.32529L12.1867 9.11522C12.0624 9.07764 11.9397 9.05889 11.8172 9.05889C11.6945 9.05889 11.5719 9.07764 11.4476 9.11522L10.7525 9.32529C10.4685 9.41115 10.1801 9.30615 10.0177 9.05783L9.62041 8.4501C9.47822 8.23272 9.29303 8.07729 9.0542 7.97502L8.38666 7.68916C8.11396 7.57236 7.96049 7.30654 7.99568 7.01197L8.08185 6.29092C8.11271 6.03295 8.07072 5.7949 7.95353 5.56303L7.62592 4.91494C7.49213 4.65018 7.54541 4.34791 7.76174 4.1449ZM11.8173 8.23924C13.5231 8.23924 14.9108 6.8515 14.9108 5.14576C14.9108 3.44002 13.5231 2.05232 11.8173 2.05232C10.1116 2.05232 8.72385 3.44002 8.72385 5.14576C8.72385 6.8515 10.1116 8.23924 11.8173 8.23924ZM11.8173 2.67729C13.1784 2.67729 14.2858 3.78463 14.2858 5.14572C14.2858 6.50682 13.1784 7.6142 11.8173 7.6142C10.4562 7.6142 9.34885 6.50682 9.34885 5.14572C9.34885 3.78463 10.4562 2.67729 11.8173 2.67729ZM11.453 6.69994C11.6386 6.69994 11.8243 6.62924 11.9656 6.48795C12.3125 6.14107 12.6622 5.78627 13.0005 5.44318C13.2037 5.23717 13.4068 5.03104 13.6104 4.82553C13.8912 4.54221 13.8897 4.08303 13.607 3.80193C13.4703 3.666 13.289 3.59119 13.0963 3.59119C13.0953 3.59119 13.0944 3.59119 13.0934 3.59119C12.8998 3.59197 12.7183 3.66803 12.5822 3.80545L11.451 4.94803L11.0516 4.54865C10.769 4.26611 10.309 4.266 10.0263 4.54869C9.88943 4.68561 9.814 4.86768 9.814 5.06131C9.814 5.25502 9.88939 5.43705 10.0263 5.57397L10.9403 6.48791C11.0817 6.62928 11.2673 6.69994 11.453 6.69994ZM10.439 5.06135C10.439 5.04588 10.4428 5.01611 10.4683 4.99064C10.4878 4.97115 10.5134 4.96139 10.539 4.96139C10.5646 4.96139 10.5902 4.97115 10.6097 4.99061L11.2311 5.61201C11.2897 5.67064 11.3692 5.70358 11.4521 5.70358H11.4528C11.536 5.70338 11.6156 5.67006 11.6742 5.61096L13.0264 4.24522C13.05 4.22135 13.0772 4.21627 13.0958 4.21619C13.111 4.21588 13.141 4.21982 13.1663 4.24506C13.2051 4.28357 13.2051 4.34662 13.1665 4.38561C12.9625 4.59154 12.7589 4.79799 12.5554 5.00443C12.2179 5.34678 11.869 5.70072 11.5237 6.046C11.4847 6.08498 11.4212 6.08502 11.3822 6.046L10.4683 5.13205C10.4428 5.10658 10.439 5.07682 10.439 5.06135ZM18.4888 12.7479C18.32 12.4661 17.6285 11.6287 15.816 12.6842L12.6662 14.5187C12.535 14.5951 12.4019 14.6526 12.2642 14.6914C12.3095 14.6071 12.346 14.5146 12.3728 14.4145C12.5384 13.7966 12.1717 13.1516 11.5379 12.9462C11.5246 12.9419 11.5109 12.9384 11.4971 12.9359C10.5946 12.7731 9.70256 12.4506 8.9858 12.1915C8.73611 12.1012 8.50029 12.016 8.29947 11.9508C7.48021 11.685 6.74338 12.0122 6.13057 12.3672L3.8165 13.708L3.66349 13.4376C3.45271 13.0652 2.97818 12.9337 2.6056 13.1444L1.72185 13.6446C1.34939 13.8554 1.21787 14.33 1.42865 14.7025L4.02681 19.2933C4.12869 19.4732 4.29502 19.603 4.49521 19.6584C4.56443 19.6776 4.63471 19.6871 4.70455 19.6871C4.83662 19.6871 4.96697 19.6531 5.08471 19.5865L5.96846 19.0863C6.14846 18.9844 6.27814 18.8181 6.33365 18.618C6.38916 18.4178 6.36357 18.2085 6.2617 18.0284L5.95799 17.4918L6.45197 17.2066L10.4729 18.284C10.6984 18.3445 10.9227 18.3745 11.1434 18.3745C11.5897 18.3745 12.0208 18.2516 12.415 18.009L18.131 14.4893C18.6666 14.1596 18.8372 13.3296 18.4888 12.7479ZM5.73135 18.451C5.72502 18.4738 5.70748 18.5159 5.6606 18.5424L4.77685 19.0426C4.73002 19.0691 4.68486 19.0625 4.66209 19.0562C4.63932 19.0499 4.59721 19.0323 4.57072 18.9855L1.9726 14.3946C1.93221 14.3233 1.95842 14.2289 2.02974 14.1885L2.91346 13.6884C2.93951 13.6736 2.96506 13.6691 2.9865 13.6691C3.00361 13.6691 3.01814 13.672 3.02822 13.6748C3.05099 13.6811 3.0931 13.6987 3.11959 13.7455L5.71775 18.3363C5.74424 18.3831 5.73764 18.4283 5.73135 18.451ZM17.8033 13.9571L12.0873 17.4768C11.642 17.7509 11.1533 17.8194 10.6347 17.6804L6.48865 16.5695C6.40861 16.548 6.3233 16.5592 6.25154 16.6007L5.65014 16.948L4.12432 14.2519L6.44381 12.9081C6.96224 12.6077 7.52252 12.3558 8.10658 12.5454C8.29756 12.6073 8.51799 12.687 8.77326 12.7793C9.50619 13.0442 10.417 13.3735 11.3632 13.5468C11.6744 13.6567 11.8483 13.957 11.7691 14.2528C11.6663 14.6362 11.3383 14.6834 11.0764 14.6538C10.5879 14.5553 10.1437 14.4294 9.679 14.2976C9.46971 14.2382 9.2533 14.1768 9.02557 14.1158C8.85896 14.0712 8.68752 14.1701 8.64283 14.3368C8.59814 14.5035 8.69709 14.6748 8.86381 14.7195C9.08713 14.7793 9.30131 14.8401 9.50842 14.8988C9.98889 15.0351 10.4481 15.1654 10.9616 15.2683C10.9636 15.2687 10.9656 15.2691 10.9676 15.2695C11.0978 15.2955 11.2315 15.3198 11.37 15.3419C11.9637 15.437 12.4906 15.3443 12.9808 15.0588L16.1305 13.2243C17.0196 12.7065 17.7007 12.6485 17.9526 13.069C18.1252 13.3572 18.0498 13.8053 17.8033 13.9571ZM3.1017 14.4546C3.12689 14.627 3.00756 14.7872 2.83514 14.8124C2.66271 14.8376 2.50248 14.7183 2.47728 14.5458C2.45205 14.3734 2.57142 14.2132 2.74385 14.188C2.91627 14.1628 3.0765 14.2821 3.1017 14.4546Z" fill="white"/>
</g>
</svg>
