<svg width="15" height="14" viewBox="0 0 15 14" fill="none" xmlns="http://www.w3.org/2000/svg">
<g id="XMLID_484_">
<g id="XMLID_484__2">
<g id="Group 64046">
<path id="Vector" d="M12.5003 13.1252H10.6253C10.2809 13.1252 10.0003 12.8445 10.0003 12.5002V9.37516H8.43778C8.31153 9.37516 8.19715 9.29891 8.14903 9.18203C8.10028 9.06516 8.12715 8.93078 8.21653 8.84141L11.3415 5.71641C11.4634 5.59453 11.6615 5.59453 11.7834 5.71641L14.9084 8.84141C14.9978 8.93078 15.0247 9.06516 14.9759 9.18203C14.9284 9.29891 14.814 9.37516 14.6878 9.37516H13.1253V12.5002C13.1253 12.8445 12.8447 13.1252 12.5003 13.1252ZM9.19215 8.75016H10.3128C10.4853 8.75016 10.6253 8.89016 10.6253 9.06266V12.5002H12.5003V9.06266C12.5003 8.89016 12.6403 8.75016 12.8128 8.75016H13.9334L11.5628 6.37953L9.19215 8.75016Z" fill="white"/>
<path id="Vector_2" d="M8.4375 11.25H1.5625C0.70125 11.25 0 10.5487 0 9.6875V1.5625C0 0.70125 0.70125 0 1.5625 0H13.4375C14.2987 0 15 0.70125 15 1.5625V7.1875C15 7.36 14.86 7.5 14.6875 7.5C14.515 7.5 14.375 7.36 14.375 7.1875V1.5625C14.375 1.04562 13.9544 0.625 13.4375 0.625H1.5625C1.04562 0.625 0.625 1.04562 0.625 1.5625V9.6875C0.625 10.2044 1.04562 10.625 1.5625 10.625H8.4375C8.61 10.625 8.75 10.765 8.75 10.9375C8.75 11.11 8.61 11.25 8.4375 11.25Z" fill="white"/>
<path id="Vector_3" d="M4.6875 8.125H0.3125C0.14 8.125 0 7.985 0 7.8125V3.4375C0 3.265 0.14 3.125 0.3125 3.125H4.6875C5.54875 3.125 6.25 3.82625 6.25 4.6875V6.5625C6.25 7.42375 5.54875 8.125 4.6875 8.125ZM0.625 7.5H4.6875C5.20437 7.5 5.625 7.07938 5.625 6.5625V4.6875C5.625 4.17063 5.20437 3.75 4.6875 3.75H0.625V7.5Z" fill="white"/>
<path id="Vector_4" d="M3.125 6.875C2.43563 6.875 1.875 6.31438 1.875 5.625C1.875 4.93563 2.43563 4.375 3.125 4.375C3.81438 4.375 4.375 4.93563 4.375 5.625C4.375 6.31438 3.81438 6.875 3.125 6.875ZM3.125 5C2.78063 5 2.5 5.28063 2.5 5.625C2.5 5.96938 2.78063 6.25 3.125 6.25C3.46938 6.25 3.75 5.96938 3.75 5.625C3.75 5.28063 3.46938 5 3.125 5Z" fill="white"/>
</g>
</g>
</g>
</svg>
