<svg width="15" height="13" viewBox="0 0 15 13" fill="none" xmlns="http://www.w3.org/2000/svg">
<g id="XMLID_484_">
<g id="Group 64048">
<path id="Vector" d="M11.4519 13.0008C11.3727 13.0008 11.2934 12.9705 11.2328 12.9104L8.13753 9.81521C8.04901 9.72668 8.02239 9.59359 8.07067 9.47783C8.11896 9.36206 8.23163 9.28654 8.35667 9.28654H9.90429V6.19131C9.90429 5.85022 10.1816 5.57227 10.5233 5.57227H12.3805C12.7222 5.57227 12.9995 5.85022 12.9995 6.19131V9.28654H14.5471C14.6722 9.28654 14.7855 9.36206 14.8331 9.47783C14.8808 9.59359 14.8542 9.72668 14.7663 9.81521L11.671 12.9104C11.6104 12.9705 11.5311 13.0008 11.4519 13.0008ZM9.10386 9.90559L11.4519 12.2536L13.7999 9.90559H12.69C12.5191 9.90559 12.3805 9.76692 12.3805 9.59606V6.19131H10.5233V9.59606C10.5233 9.76692 10.3847 9.90559 10.2138 9.90559H9.10386Z" fill="white"/>
<path id="Vector_2" d="M7.11903 11.1428H1.54761C0.693951 11.1428 0 10.4483 0 9.59521V1.54761C0 0.69457 0.693951 0 1.54761 0H13.3095C14.1632 0 14.8571 0.69457 14.8571 1.54761V7.73807C14.8571 7.90893 14.7184 8.0476 14.5476 8.0476C14.3767 8.0476 14.2381 7.90893 14.2381 7.73807V1.54761C14.2381 1.03566 13.8214 0.619046 13.3095 0.619046H1.54761C1.03566 0.619046 0.619046 1.03566 0.619046 1.54761V9.59521C0.619046 10.1072 1.03566 10.5238 1.54761 10.5238H7.11903C7.28988 10.5238 7.42855 10.6624 7.42855 10.8333C7.42855 11.0042 7.28988 11.1428 7.11903 11.1428Z" fill="white"/>
<path id="Vector_3" d="M4.64284 8.04807H0.309523C0.138666 8.04807 0 7.9094 0 7.73855V3.40523C0 3.23437 0.138666 3.0957 0.309523 3.0957H4.64284C5.49651 3.0957 6.19046 3.79027 6.19046 4.64332V6.50046C6.19046 7.3535 5.49651 8.04807 4.64284 8.04807ZM0.619046 7.42902H4.64284C5.1548 7.42902 5.57141 7.01241 5.57141 6.50046V4.64332C5.57141 4.13137 5.1548 3.71475 4.64284 3.71475H0.619046V7.42902Z" fill="white"/>
<path id="Vector_4" d="M3.09747 6.81017C2.41466 6.81017 1.85938 6.25488 1.85938 5.57208C1.85938 4.88927 2.41466 4.33398 3.09747 4.33398C3.78027 4.33398 4.33556 4.88927 4.33556 5.57208C4.33556 6.25488 3.78027 6.81017 3.09747 6.81017ZM3.09747 4.95303C2.75575 4.95303 2.47842 5.23098 2.47842 5.57208C2.47842 5.91317 2.75575 6.19112 3.09747 6.19112C3.43918 6.19112 3.71651 5.91317 3.71651 5.57208C3.71651 5.23098 3.43918 4.95303 3.09747 4.95303Z" fill="white"/>
</g>
</g>
</svg>
