<svg width="17" height="17" viewBox="0 0 17 17" fill="none" xmlns="http://www.w3.org/2000/svg">
<g id="XMLID_484_">
<g id="Recieved">
<g id="Group">
<path id="Vector" d="M6.90996 6.79704L6.9088 6.79705C6.82314 6.79755 6.73926 6.77252 6.66788 6.72517C6.59649 6.67781 6.54082 6.61027 6.50797 6.53115C6.47512 6.45203 6.46658 6.36492 6.48343 6.28093C6.50028 6.19694 6.54176 6.11986 6.60258 6.05954L6.60288 6.05925L9.79063 2.87149C9.87192 2.7902 9.98218 2.74453 10.0971 2.74453C10.2121 2.74453 10.3224 2.7902 10.4036 2.87149C10.4849 2.95278 10.5306 3.06304 10.5306 3.178C10.5306 3.29296 10.4849 3.40321 10.4036 3.48451L7.21618 6.67197C7.21614 6.67202 7.2161 6.67206 7.21605 6.6721C7.17578 6.71201 7.12803 6.74359 7.07554 6.76504C7.02299 6.7865 6.96672 6.79738 6.90996 6.79704Z" fill="white" stroke="#292D32" stroke-width="0.2"/>
<path id="Vector_2" d="M6.90629 3.61102C6.82099 3.61102 6.73761 3.58573 6.66668 3.53834C6.59575 3.49095 6.54047 3.42359 6.50783 3.34478C6.47519 3.26597 6.46665 3.17925 6.48329 3.09559C6.49993 3.01193 6.54101 2.93508 6.60132 2.87476C6.66164 2.81444 6.73849 2.77337 6.82215 2.75672C6.90581 2.74008 6.99253 2.74862 7.07134 2.78127C7.15015 2.81391 7.21751 2.86919 7.2649 2.94012C7.31229 3.01104 7.33759 3.09443 7.33759 3.17973C7.33759 3.29412 7.29215 3.40382 7.21126 3.4847C7.13038 3.56558 7.02068 3.61102 6.90629 3.61102Z" fill="white" stroke="#292D32" stroke-width="0.2"/>
<path id="Vector_3" d="M10.0938 6.79852C10.0085 6.79852 9.92511 6.77323 9.85418 6.72584C9.78325 6.67845 9.72797 6.61109 9.69533 6.53228C9.66269 6.45347 9.65415 6.36675 9.67079 6.28309C9.68743 6.19943 9.72851 6.12258 9.78882 6.06226C9.84914 6.00194 9.92599 5.96087 10.0097 5.94422C10.0933 5.92758 10.18 5.93612 10.2588 5.96877C10.3377 6.00141 10.405 6.05669 10.4524 6.12762C10.4998 6.19854 10.5251 6.28193 10.5251 6.36723C10.5251 6.48162 10.4796 6.59132 10.3988 6.6722C10.3179 6.75308 10.2082 6.79852 10.0938 6.79852Z" fill="white" stroke="#292D32" stroke-width="0.2"/>
<path id="Vector_4" d="M8.24453 8.59146C9.18295 8.6561 10.1122 8.37214 10.8542 7.79399C11.5964 7.21577 12.0989 6.38397 12.2656 5.45807C12.4323 4.53217 12.2514 3.57733 11.7575 2.7766C11.2636 1.97587 10.4916 1.38561 9.58935 1.11898C8.68714 0.852345 7.71826 0.928107 6.86847 1.33174C6.01867 1.73537 5.34775 2.43846 4.98435 3.30622C4.62095 4.17399 4.59063 5.14535 4.89921 6.03409C5.20772 6.92265 5.8333 7.66611 6.65604 8.12197C6.75674 8.17935 6.83058 8.27433 6.86135 8.38609C6.89217 8.49801 6.87726 8.6176 6.81991 8.71854C6.76256 8.81948 6.66746 8.8935 6.55553 8.92432C6.4436 8.95514 6.32401 8.94024 6.22308 8.88288L6.22192 8.88224C5.21269 8.32628 4.44393 7.41766 4.06278 6.33028C3.68163 5.24291 3.71486 4.05317 4.15612 2.98877C4.59738 1.92437 5.41567 1.06008 6.45437 0.561324C7.49307 0.0625675 8.67922 -0.035623 9.78579 0.285546C10.8924 0.606715 11.8416 1.32468 12.4519 2.30204C13.0622 3.27939 13.2906 4.44747 13.0934 5.58272C12.8963 6.71796 12.2874 7.74063 11.3833 8.45498C10.4792 9.16933 9.34348 9.52519 8.19341 9.45444L8.19308 9.45442C8.13641 9.45113 8.08095 9.43667 8.02987 9.41189L7.98622 9.50186L8.02987 9.41189C7.9788 9.38711 7.93312 9.35249 7.89545 9.31002C7.85779 9.26754 7.82888 9.21805 7.81038 9.16438C7.79188 9.11071 7.78417 9.05392 7.78767 8.99725L7.78769 8.99689C7.79099 8.94022 7.80544 8.88476 7.83022 8.83368C7.855 8.78261 7.88962 8.73693 7.9321 8.69926C7.97457 8.6616 8.02406 8.63269 8.07773 8.61419C8.1313 8.59573 8.18798 8.58801 8.24453 8.59146ZM8.24453 8.59146C8.2444 8.59145 8.24427 8.59144 8.24415 8.59143L8.25103 8.49167L8.24486 8.59148C8.24475 8.59147 8.24464 8.59147 8.24453 8.59146Z" fill="white" stroke="#292D32" stroke-width="0.2"/>
</g>
<path id="Vector_5" d="M16.707 8.66594L16.7067 8.66572L15.8407 8.08661L15.8406 8.08656C15.5533 7.8941 15.2082 7.80726 14.864 7.84086C14.52 7.87445 14.1982 8.02632 13.9536 8.27058C13.9535 8.27066 13.9534 8.27073 13.9534 8.27081L11.7595 10.4859L11.6152 10.6316L11.5892 10.4282C11.543 10.0657 11.3654 9.73263 11.0901 9.49221C10.8162 9.25308 10.4647 9.12204 10.1013 9.12353C9.62561 9.18435 9.14318 9.08404 8.73109 8.83852L8.72673 8.83592L8.7268 8.83581C7.90576 8.2885 6.93083 8.0189 5.94523 8.06664C4.95963 8.11437 4.01532 8.47692 3.25101 9.10102L3.08776 9.23432V9.02357V7.96098C3.08776 7.84659 3.04232 7.73689 2.96143 7.65601C2.88055 7.57513 2.77085 7.52969 2.65646 7.52969H0.531293C0.416907 7.52969 0.307206 7.57513 0.226323 7.65601C0.14544 7.73689 0.1 7.84659 0.1 7.96098V16.4617C0.1 16.5761 0.14544 16.6858 0.226323 16.7666C0.307206 16.8475 0.416907 16.893 0.531293 16.893H2.65646C2.77085 16.893 2.88055 16.8475 2.96143 16.7666C3.04232 16.6858 3.08776 16.5761 3.08776 16.4617V10.3518V10.3019L3.12759 10.2719L3.92453 9.67157L3.92576 9.67064L3.92577 9.67064C4.5501 9.21528 5.29788 8.96002 6.07034 8.93859C6.84265 8.91716 7.60328 9.13048 8.25182 9.55037C8.79694 9.89638 9.4422 10.05 10.0848 9.98663L10.0946 9.98567V9.98615C10.262 9.98615 10.4226 10.0527 10.541 10.1711C10.6593 10.2894 10.7259 10.45 10.7259 10.6174V11.1487V11.2487H10.6259H6.90681C6.79242 11.2487 6.68272 11.2942 6.60184 11.3751C6.52095 11.4559 6.47551 11.5656 6.47551 11.68C6.47551 11.7944 6.52095 11.9041 6.60184 11.985C6.68272 12.0659 6.79242 12.1113 6.90681 12.1113H11.1564C11.2712 12.1096 11.3812 12.0647 11.4645 11.9857L14.5662 8.88402C14.5662 8.88395 14.5663 8.88388 14.5664 8.8838L14.5664 8.88379L14.6371 8.9545C14.7236 8.86747 14.8375 8.81305 14.9595 8.80046C15.0815 8.78787 15.2041 8.81789 15.3065 8.88543L16.707 8.66594ZM16.707 8.66594C16.7559 8.69831 16.7976 8.7403 16.8297 8.78933C16.8617 8.83836 16.8835 8.89342 16.8936 8.95113C16.9036 9.00884 16.9019 9.06801 16.8883 9.12501C16.8748 9.18196 16.8499 9.23556 16.815 9.28255L16.707 8.66594ZM2.12517 16.0304H2.22517V15.9304V8.49227V8.39227H2.12517H1.06259H0.962586V8.49227V15.9304V16.0304H1.06259H2.12517Z" fill="white" stroke="#292D32" stroke-width="0.2"/>
</g>
</g>
</svg>
