<svg width="140" height="28" viewBox="0 0 140 28" fill="none" xmlns="http://www.w3.org/2000/svg">
<g id="Group 64603">
<g id="Group 64265">
<path id="Path 20" d="M15.3924 0.654338C20.762 4.11206 24.3107 6.50985 26.0384 7.84771C27.5235 8.99773 26.9295 20.3484 26.9178 22.614C26.9003 25.88 25.8462 27.5245 22.4626 27.5245C16.0913 27.5207 9.72 27.5226 3.34871 27.5303C1.20554 27.5303 0.0116477 25.581 0.00582385 23.4937C-0.00194128 18.7978 -0.00194128 14.1038 0.00582385 9.41174C0.00582385 8.80989 0.446495 8.19847 1.32784 7.57746C6.53047 3.91273 10.1238 1.50919 12.1078 0.366833C13.1134 -0.204343 14.2082 -0.108508 15.3924 0.654338ZM24.268 9.57849L14.3383 3.00038C14.1093 2.84908 13.8414 2.76546 13.5659 2.75935C13.2905 2.75324 13.019 2.82489 12.7833 2.96588C10.05 4.58741 7.29145 6.35844 4.50766 8.27897C3.11576 9.23923 2.32954 9.56124 2.31789 11.1368C2.30236 15.342 2.31595 19.5472 2.35866 23.7525C2.37031 24.8335 3.05752 25.3683 4.1524 25.3683C10.5392 25.3721 16.7921 25.3702 22.911 25.3625C23.1133 25.3629 23.3137 25.3239 23.5007 25.2478C23.6878 25.1718 23.8578 25.06 24.0011 24.9191C24.1444 24.7781 24.2582 24.6107 24.336 24.4263C24.4137 24.2419 24.4539 24.0442 24.4543 23.8445C24.4621 19.2444 24.464 14.6386 24.4602 10.027C24.4696 9.94226 24.4569 9.85654 24.4232 9.77803C24.3896 9.69952 24.3361 9.63082 24.268 9.57849Z" fill="#486191"/>
<path id="Path 30" d="M16.6274 12.676L15.7539 11.9802C15.7016 11.939 15.659 11.8872 15.6288 11.8282C15.5987 11.7693 15.5817 11.7046 15.5792 11.6387C15.5768 11.5732 15.5891 11.508 15.6151 11.4478C15.6412 11.3876 15.6804 11.3338 15.73 11.2902L16.7899 10.3529C16.8252 10.3132 16.8686 10.2814 16.9173 10.2596C16.966 10.2378 17.0189 10.2266 17.0724 10.2266C17.1259 10.2266 17.1787 10.2378 17.2274 10.2596C17.2761 10.2814 17.3196 10.3132 17.3548 10.3529L20.5813 13.2625C20.7578 13.4224 20.8814 13.631 20.936 13.8613C20.9907 14.0916 20.9738 14.3327 20.8876 14.5534C20.8015 14.7737 20.6495 14.963 20.4519 15.096C20.2542 15.229 20.0203 15.2995 19.7811 15.298L6.43571 15.2923C6.34602 15.2924 6.25819 15.267 6.18278 15.2191C6.10737 15.1711 6.04757 15.1027 6.01057 15.022C5.88653 14.7805 5.81899 14.5146 5.81295 14.2439C5.8069 13.9732 5.86249 13.7047 5.97563 13.458C6.0152 13.3619 6.08415 13.2803 6.17288 13.2246C6.2616 13.169 6.36569 13.142 6.47066 13.1475H16.4586C16.5143 13.1479 16.5688 13.1312 16.6145 13.0996C16.6601 13.068 16.6947 13.0231 16.7133 12.9712C16.7318 12.9193 16.7336 12.863 16.7182 12.81C16.7028 12.7571 16.6711 12.7103 16.6274 12.676Z" fill="#486191"/>
<path id="Path 33" d="M10.164 18.9391L10.6765 19.4508C10.718 19.4802 10.7517 19.5191 10.7745 19.5643C10.7973 19.6094 10.8087 19.6593 10.8075 19.7097C10.8064 19.7602 10.7928 19.8096 10.7679 19.8536C10.7431 19.8977 10.7077 19.9351 10.6649 19.9626L9.7447 20.7906C9.64968 20.8747 9.52686 20.9217 9.39928 20.9227C9.27169 20.9238 9.14809 20.8788 9.05166 20.7964C8.03443 19.93 7.0502 19.0311 6.09897 18.0996C5.96486 17.9687 5.8753 17.7999 5.84272 17.6165C5.59812 16.294 6.5707 16.0123 7.68888 16.0238C11.8432 16.0621 15.9393 16.1234 19.9772 16.2078C20.0779 16.21 20.1771 16.2319 20.2692 16.2722C20.3613 16.3125 20.4444 16.3704 20.5137 16.4426C20.583 16.5147 20.6372 16.5997 20.673 16.6927C20.7089 16.7856 20.7257 16.8846 20.7226 16.984C20.6993 17.8772 20.3907 18.3315 19.7967 18.3468C16.7877 18.4273 13.6408 18.4714 10.3562 18.4791C9.91359 18.4791 9.84952 18.6324 10.164 18.9391Z" fill="#486191"/>
</g>
<g id="Group 166">
<path id="Path 22" d="M90.6942 19.7642C90.4671 20.8107 88.4288 20.5749 87.6309 20.4714C87.5437 20.4596 87.4637 20.417 87.4059 20.3514C87.3481 20.2859 87.3163 20.2019 87.3164 20.1149L87.3746 4.41716C87.3646 4.34734 87.3716 4.27616 87.3952 4.20959C87.4188 4.14302 87.4582 4.08299 87.5101 4.03456C87.562 3.98612 87.6249 3.95068 87.6936 3.93121C87.7622 3.91174 87.8346 3.9088 87.9046 3.92265L90.537 4.03765C90.6215 4.04063 90.7014 4.07587 90.7601 4.13594C90.8188 4.19601 90.8515 4.27621 90.8515 4.35966V9.14374C90.8515 9.40825 90.966 9.46958 91.1951 9.32775C97.3043 5.53843 103.064 12.8928 99.1155 18.3094C97.481 20.5481 95.0369 21.1557 91.7833 20.1322C91.7007 20.109 91.6255 20.065 91.5653 20.0045C91.505 19.9441 91.4618 19.8692 91.4397 19.7872C91.434 19.738 91.418 19.6905 91.3928 19.6478C91.3675 19.605 91.3336 19.5679 91.2931 19.5387C91.2526 19.5095 91.2064 19.4889 91.1575 19.4783C91.1086 19.4676 91.0579 19.4671 91.0087 19.4767C90.9314 19.4833 90.8585 19.5152 90.8016 19.5672C90.7447 19.6193 90.7069 19.6886 90.6942 19.7642ZM93.7751 17.6941C94.6015 17.6535 95.378 17.2912 95.9347 16.6867C96.4913 16.0821 96.7827 15.2845 96.7452 14.4683C96.7846 14.0598 96.737 13.6477 96.6056 13.2584C96.4743 12.8691 96.262 12.5111 95.9823 12.2076C95.7027 11.904 95.3619 11.6614 94.9818 11.4954C94.6017 11.3295 94.1907 11.2437 93.7751 11.2437C93.3594 11.2437 92.9484 11.3295 92.5683 11.4954C92.1882 11.6614 91.8474 11.904 91.5678 12.2076C91.2881 12.5111 91.0758 12.8691 90.9445 13.2584C90.8131 13.6477 90.7656 14.0598 90.8049 14.4683C90.7674 15.2845 91.0588 16.0821 91.6154 16.6867C92.1721 17.2912 92.9486 17.6535 93.7751 17.6941Z" fill="#486191"/>
<path id="Path 23" d="M35.793 19.0883L35.8687 23.4641C35.8766 23.5091 35.8736 23.5554 35.8598 23.599C35.8461 23.6427 35.822 23.6825 35.7895 23.7151C35.757 23.7477 35.7172 23.7722 35.6732 23.7865C35.6292 23.8009 35.5824 23.8047 35.5367 23.7976H32.9917C32.9398 23.8045 32.887 23.7994 32.8375 23.7827C32.788 23.766 32.7431 23.7381 32.7063 23.7013C32.6696 23.6644 32.6421 23.6197 32.6259 23.5705C32.6097 23.5214 32.6053 23.4692 32.6131 23.4181V8.74958C32.6131 8.49274 32.7432 8.37582 33.0033 8.39882L35.3445 8.58858C35.4129 8.59173 35.4786 8.61626 35.532 8.65864C35.5853 8.70101 35.6237 8.75903 35.6415 8.82433L35.7347 9.10609C35.824 9.38976 35.989 9.44342 36.2297 9.26709C41.7857 5.23052 47.761 12.7919 43.6551 17.9842C41.8692 20.2421 39.3203 20.5641 36.0084 18.9503C35.8609 18.8774 35.7891 18.9234 35.793 19.0883ZM38.7375 17.1965C39.5242 17.1517 40.261 16.8009 40.7864 16.221C41.3119 15.6411 41.5832 14.8793 41.5411 14.1023C41.573 13.7128 41.5224 13.321 41.3923 12.9519C41.2623 12.5828 41.0558 12.2445 40.786 11.9586C40.5161 11.6727 40.1889 11.4455 39.8251 11.2914C39.4613 11.1374 39.0691 11.0599 38.6733 11.0639C38.2775 11.0679 37.8869 11.1533 37.5264 11.3147C37.1659 11.4761 36.8435 11.7099 36.5796 12.0012C36.3158 12.2925 36.1163 12.6349 35.994 13.0066C35.8717 13.3783 35.8292 13.7711 35.8692 14.1598C35.8436 14.9376 36.1311 15.6936 36.6688 16.2625C37.2064 16.8314 37.9505 17.1668 38.7381 17.1953L38.7375 17.1965Z" fill="#486191"/>
<path id="Path 24" d="M51.4223 9.69949C52.4164 8.80213 53.7152 8.30559 55.0622 8.30797C55.0974 8.30193 55.1336 8.30425 55.1678 8.31473C55.202 8.32522 55.2332 8.34356 55.2588 8.36827C55.2844 8.39298 55.3036 8.42333 55.315 8.45683C55.3264 8.49034 55.3296 8.52603 55.3242 8.56097V11.298C55.3246 11.3463 55.3143 11.3942 55.2942 11.4382C55.2741 11.4823 55.2446 11.5216 55.2078 11.5533C55.1706 11.5855 55.1269 11.6096 55.0797 11.6241C55.0324 11.6386 54.9826 11.643 54.9335 11.6373C50.0007 11.0163 51.4333 17.4104 51.3751 20.1934C51.3798 20.2336 51.3752 20.2742 51.3615 20.3123C51.3479 20.3504 51.3256 20.385 51.2964 20.4133C51.2672 20.4416 51.2318 20.4629 51.1929 20.4756C51.1541 20.4883 51.1128 20.4921 51.0723 20.4867H48.1201C48.0703 20.4937 48.0195 20.4892 47.9718 20.4734C47.924 20.4577 47.8806 20.4312 47.845 20.3961C47.8094 20.3609 47.7826 20.3181 47.7667 20.2709C47.7507 20.2238 47.7461 20.1736 47.7532 20.1244V8.84273C47.7476 8.80368 47.7512 8.76386 47.7639 8.72644C47.7765 8.68902 47.7978 8.65501 47.8261 8.62712C47.8543 8.59922 47.8888 8.5782 47.9267 8.56573C47.9646 8.55325 48.0049 8.54965 48.0444 8.55522H50.7059C50.8043 8.55518 50.8989 8.59297 50.9696 8.6606C51.0402 8.72822 51.0815 8.82036 51.0845 8.91748L51.1078 9.57299C51.1194 9.83366 51.2243 9.87583 51.4223 9.69949Z" fill="#486191"/>
<path id="Path 25" d="M69.5941 14.4918C69.5941 17.9091 66.5984 20.6789 62.9025 20.6789C59.2067 20.6789 56.2109 17.9091 56.2109 14.4918C56.2109 11.0745 59.2067 8.30469 62.9025 8.30469C66.5984 8.30469 69.5941 11.0745 69.5941 14.4918ZM62.9777 17.7343C63.8086 17.6782 64.5831 17.2995 65.1321 16.6811C65.681 16.0628 65.9596 15.2549 65.9071 14.4343C65.9421 14.0225 65.8894 13.608 65.7523 13.2175C65.6152 12.8271 65.3968 12.4693 65.1111 12.1673C64.8254 11.8652 64.4788 11.6257 64.0936 11.464C63.7084 11.3023 63.2932 11.2221 62.8747 11.2285C62.4562 11.2349 62.0437 11.3278 61.6638 11.5012C61.2838 11.6747 60.9449 11.9248 60.6689 12.2354C60.3928 12.546 60.1858 12.9103 60.061 13.3048C59.9363 13.6993 59.8966 14.1152 59.9446 14.5257C59.918 15.3478 60.2222 16.1469 60.7907 16.7482C61.3592 17.3494 62.1451 17.704 62.9777 17.7343Z" fill="#486191"/>
<path id="Path 26" d="M75.4159 19.7938V24.4341C75.423 24.4833 75.4184 24.5335 75.4025 24.5807C75.3866 24.6278 75.3597 24.6707 75.3242 24.7058C75.2886 24.7409 75.2452 24.7674 75.1974 24.7831C75.1497 24.7989 75.0989 24.8034 75.049 24.7964H72.1429C72.0947 24.7964 72.047 24.787 72.0025 24.7688C71.958 24.7506 71.9176 24.7239 71.8835 24.6903C71.8494 24.6567 71.8224 24.6167 71.8039 24.5728C71.7855 24.5288 71.776 24.4817 71.776 24.4341V8.83988C71.7704 8.80083 71.774 8.76101 71.7867 8.72359C71.7993 8.68617 71.8206 8.65216 71.8488 8.62427C71.8771 8.59637 71.9115 8.57535 71.9494 8.56287C71.9873 8.5504 72.0277 8.5468 72.0672 8.55237H74.8335C74.9821 8.55123 75.1258 8.60426 75.2371 8.7013C75.3297 8.791 75.3309 8.89105 75.2412 8.94913C75.1917 8.98305 75.1532 9.03047 75.1304 9.08559C75.1077 9.14072 75.1017 9.20119 75.1131 9.25964C75.148 9.50881 75.2723 9.56439 75.4858 9.42639C81.6241 5.36682 88.0129 13.0605 83.4587 18.5863C81.5368 20.9208 78.9161 21.285 75.5965 19.6788C75.4761 19.6213 75.4159 19.6596 75.4159 19.7938ZM78.3395 17.741C79.1684 17.6921 79.944 17.3215 80.4971 16.71C81.0503 16.0986 81.3361 15.296 81.2922 14.4773C81.3328 14.0666 81.2857 13.6521 81.1539 13.2606C81.0221 12.8691 80.8085 12.5092 80.527 12.2043C80.2455 11.8994 79.9022 11.6562 79.5195 11.4905C79.1368 11.3248 78.7231 11.2403 78.3052 11.2424C77.8873 11.2445 77.4746 11.3332 77.0936 11.5027C76.7126 11.6723 76.3719 11.9189 76.0935 12.2266C75.8151 12.5343 75.6053 12.8963 75.4775 13.2892C75.3498 13.682 75.307 14.097 75.3519 14.5072C75.3164 15.3266 75.6107 16.1266 76.1706 16.7325C76.7305 17.3383 77.5098 17.7009 78.3395 17.741Z" fill="#486191"/>
<path id="Path 27" d="M109.502 19.5331C103.911 23.4662 98.0175 16.1003 104.389 13.7025C105.119 13.4303 106.745 13.2962 109.269 13.3C109.522 13.3 109.611 13.1793 109.537 12.9377C108.728 10.241 105.425 11.0575 103.614 12.1155C103.58 12.1352 103.542 12.1478 103.503 12.1524C103.464 12.157 103.424 12.1535 103.386 12.1422C103.349 12.1308 103.314 12.1119 103.284 12.0865C103.254 12.0611 103.229 12.0299 103.212 11.9947L102.246 10.0052C102.225 9.97359 102.212 9.93787 102.207 9.90063C102.202 9.86338 102.206 9.82552 102.217 9.78978C102.229 9.75404 102.249 9.7213 102.275 9.69392C102.301 9.66654 102.332 9.6452 102.368 9.63144C106.398 7.4349 112.985 7.48665 113.113 13.5013C113.156 15.6748 113.222 17.8522 113.311 20.0334C113.321 20.0893 113.318 20.1468 113.302 20.2013C113.286 20.2558 113.256 20.3056 113.216 20.3467C113.176 20.3877 113.127 20.4188 113.073 20.4373C113.018 20.4558 112.96 20.4612 112.903 20.4531L110.463 20.4819C110.367 20.4821 110.274 20.4521 110.196 20.3962C110.119 20.3404 110.061 20.2616 110.032 20.1714L109.863 19.6539C109.801 19.4469 109.681 19.4066 109.502 19.5331ZM109.141 15.4448L105.326 15.8473C105.267 15.8545 105.213 15.8845 105.176 15.9308C105.139 15.9771 105.122 16.0359 105.128 16.0946L105.187 16.6753C105.214 16.9063 105.29 17.1292 105.409 17.3294C105.529 17.5297 105.69 17.7029 105.882 17.838C106.291 18.1275 106.795 18.2562 107.295 18.1991L107.72 18.1531C108.221 18.1036 108.685 17.872 109.022 17.5033C109.18 17.331 109.3 17.1279 109.373 16.907C109.447 16.6862 109.473 16.4525 109.45 16.2211L109.391 15.646C109.389 15.6165 109.38 15.5879 109.366 15.5618C109.351 15.5356 109.332 15.5125 109.309 15.4938C109.285 15.4751 109.259 15.4611 109.23 15.4527C109.201 15.4443 109.171 15.4416 109.141 15.4448Z" fill="#486191"/>
<path id="Path 28" d="M124.358 14.1648C124.798 14.3787 125.181 14.693 125.473 15.0818C125.766 15.4706 125.96 15.9226 126.04 16.4003C126.121 16.8781 126.084 17.3679 125.935 17.8291C125.785 18.2903 125.526 18.7096 125.18 19.0524C122.914 21.3869 118.121 20.8406 115.448 19.5756C115.399 19.5602 115.355 19.5342 115.318 19.4998C115.281 19.4653 115.253 19.4231 115.234 19.3763C115.216 19.3295 115.208 19.2793 115.212 19.2292C115.216 19.1791 115.231 19.1305 115.256 19.0869L116.059 17.1663C116.079 17.12 116.108 17.0782 116.144 17.0435C116.181 17.0088 116.224 16.9819 116.272 16.9646C116.319 16.9473 116.37 16.94 116.421 16.943C116.471 16.9461 116.521 16.9595 116.566 16.9823C118.205 17.8269 120.083 18.1043 121.901 17.7701C122.08 17.736 122.243 17.6419 122.36 17.5038C122.478 17.3657 122.544 17.1918 122.548 17.0112C122.551 16.8307 122.491 16.6545 122.379 16.5121C122.267 16.3697 122.108 16.2698 121.93 16.2291C119.519 15.7058 113.91 15.263 115.588 11.0942C116.991 7.59816 122.53 7.92592 125.313 9.25994C125.394 9.29922 125.457 9.36724 125.49 9.45039C125.522 9.53355 125.522 9.62571 125.488 9.70845L124.714 11.5772C124.696 11.6196 124.67 11.658 124.637 11.69C124.604 11.7221 124.564 11.7471 124.521 11.7635C124.477 11.7802 124.43 11.7881 124.383 11.7867C124.337 11.7853 124.29 11.7747 124.248 11.7555C122.755 11.061 121.071 10.8769 119.46 11.2322C119.299 11.2667 119.152 11.3492 119.039 11.4685C118.927 11.5879 118.854 11.7385 118.83 11.9C118.807 12.0615 118.834 12.2263 118.908 12.3721C118.982 12.5179 119.1 12.6378 119.245 12.7158C120.753 13.5265 122.64 13.285 124.358 14.1648Z" fill="#486191"/>
<path id="Path 29" d="M130.975 15.5811C130.943 15.5808 130.911 15.5892 130.884 15.6053C130.856 15.6215 130.834 15.6447 130.819 15.6726C130.804 15.7005 130.797 15.7319 130.799 15.7634C130.8 15.7949 130.811 15.8254 130.829 15.8514C132.483 18.1131 134.55 18.4274 137.031 16.7944C137.062 16.7701 137.097 16.7521 137.134 16.7415C137.171 16.7309 137.211 16.7279 137.249 16.7327C137.288 16.7376 137.325 16.7501 137.359 16.7696C137.393 16.7891 137.422 16.8152 137.445 16.8461L138.784 18.3182C139.111 18.6747 139.066 18.9756 138.65 19.2209C134.149 21.9062 127.9 20.6182 127.207 15.0004C126.217 7.00198 140.159 5.2942 140.002 15.0406C139.998 15.1873 139.936 15.3267 139.829 15.4288C139.722 15.5309 139.579 15.5877 139.431 15.5869L130.975 15.5811ZM130.893 13.2753L136.449 13.3041C136.464 13.3042 136.478 13.2989 136.488 13.2893C136.499 13.2798 136.506 13.2666 136.507 13.2523V13.2006C136.499 12.9125 136.422 12.6303 136.282 12.3771C136.143 12.1238 135.945 11.9066 135.705 11.7429C135.135 11.3382 134.449 11.1236 133.747 11.1305H133.619C132.089 11.1225 130.843 12.0333 130.835 13.1661V13.2178C130.835 13.2331 130.841 13.2477 130.852 13.2585C130.863 13.2693 130.878 13.2753 130.893 13.2753Z" fill="#486191"/>
</g>
</g>
</svg>
