<svg width="17" height="17" viewBox="0 0 17 17" fill="none" xmlns="http://www.w3.org/2000/svg">
<g id="Group 168">
<path id="Path 20" d="M9.09761 0.52875L9.09759 0.528736C8.75929 0.303182 8.44309 0.182518 8.14775 0.155763C7.85454 0.1292 7.57256 0.194263 7.29806 0.355547C6.12147 1.05676 3.98373 2.53639 0.880353 4.79887C0.365097 5.17464 0.153474 5.51305 0.153474 5.80999V5.81023C0.148842 8.70656 0.148842 11.6041 0.153473 14.5028L0.00347363 14.503M9.09761 0.52875L1.99715 16.8448C1.4114 16.8448 0.956739 16.5714 0.643367 16.1435C0.327312 15.7119 0.155142 15.1215 0.153473 14.5026L0.00347363 14.503M9.09761 0.52875C12.3011 2.66378 14.4122 4.14044 15.4368 4.96155C15.5077 5.01836 15.589 5.16365 15.6635 5.42392C15.7354 5.67501 15.793 6.00336 15.8382 6.38907C15.9285 7.15967 15.967 8.13951 15.9776 9.14555C15.9923 10.533 15.9542 11.951 15.9278 12.9333C15.9158 13.3799 15.9062 13.7364 15.9051 13.9591C15.8999 14.9587 15.7402 15.6725 15.3629 16.1371C14.9921 16.5938 14.3837 16.8413 13.3979 16.8413L9.09761 0.52875ZM0.00347363 14.503C0.00694725 15.7915 0.719041 16.9948 1.99734 16.9948L0.791987 4.67767C0.266311 5.06102 0.00347363 5.43847 0.00347363 5.80999C-0.00115788 8.70648 -0.00115788 11.6041 0.00347363 14.503ZM14.5682 5.7952L14.5679 5.79549C14.6287 5.84381 14.6761 5.90697 14.7058 5.97873C14.7344 6.04773 14.7458 6.12267 14.7392 6.19699C14.7415 9.04146 14.7404 11.8824 14.7358 14.7198V14.7198C14.7355 14.8623 14.7078 15.0035 14.6541 15.1353C14.6004 15.2671 14.5217 15.3869 14.4224 15.488C14.3232 15.5891 14.2052 15.6693 14.0752 15.7241C13.9452 15.7788 13.8059 15.8069 13.6652 15.8066M14.5682 5.7952L13.6652 15.8066M14.5682 5.7952L14.5594 5.78922L8.63689 1.72846L8.63674 1.72836C8.47637 1.61868 8.28836 1.55787 8.09482 1.55342C7.90147 1.54898 7.71112 1.601 7.54613 1.70305C5.91269 2.70597 4.26446 3.80119 2.60142 4.98864C2.5099 5.05399 2.41904 5.11709 2.33218 5.17741C2.2297 5.24857 2.13278 5.31588 2.04691 5.37845C1.88337 5.49762 1.73689 5.6156 1.61557 5.74976C1.36448 6.02744 1.23619 6.35806 1.23251 6.87381L1.2325 6.87434C1.22324 9.47096 1.23135 12.0676 1.25683 14.6642L1.25683 14.6643C1.26063 15.0293 1.37585 15.3229 1.5993 15.5233C1.82036 15.7217 2.12658 15.8102 2.4766 15.8102L14.5682 5.7952ZM13.6652 15.8066C13.6651 15.8066 13.665 15.8066 13.665 15.8066L13.6653 15.6566M13.6652 15.8066C13.6653 15.8066 13.6654 15.8066 13.6654 15.8066L13.6653 15.6566M13.6653 15.6566C13.7859 15.6569 13.9054 15.6328 14.017 15.5858C14.1285 15.5389 14.23 15.4699 14.3154 15.3829C14.4009 15.2959 14.4688 15.1925 14.5152 15.0787C14.5615 14.9649 14.5855 14.8428 14.5858 14.7195M13.6653 15.6566L14.5858 14.7195M14.5858 14.7195C14.5904 11.8798 14.5916 9.03659 14.5892 6.1898C14.5949 6.13749 14.5873 6.08458 14.5672 6.03611L14.5858 14.7195Z" fill="white" stroke="#292D32" stroke-width="0.3"/>
<path id="Path 30" d="M9.49119 7.27985L9.49173 7.28029L10.012 7.70914C10.0121 7.70926 10.0123 7.70939 10.0124 7.70952C10.0625 7.75041 10.0985 7.80581 10.1159 7.86773C10.1333 7.92982 10.1314 7.99587 10.1103 8.05683C10.0892 8.11782 10.0498 8.17114 9.99698 8.20896L9.90962 8.08703L9.99698 8.20897C9.94433 8.24669 9.88111 8.26699 9.8161 8.26661M9.49119 7.27985L3.85935 8.11661C3.79675 8.11322 3.73466 8.12986 3.68174 8.16422C3.62882 8.19857 3.5877 8.24893 3.5641 8.30829C3.49662 8.46055 3.46346 8.62635 3.46706 8.79346C3.47067 8.96056 3.51095 9.12471 3.58494 9.27378C3.607 9.32358 3.64267 9.36581 3.68765 9.39541C3.73263 9.425 3.78502 9.4407 3.83851 9.44061L11.7983 9.44416C11.941 9.44507 12.0806 9.40157 12.1984 9.31946C12.3163 9.23735 12.407 9.12051 12.4583 8.98449C12.5097 8.84828 12.5198 8.6994 12.4872 8.55725C12.4546 8.41511 12.3809 8.2863 12.2756 8.1876M9.49119 7.27985C9.47678 7.26808 9.46479 7.25309 9.45621 7.23575C9.44764 7.2184 9.44275 7.19921 9.442 7.1795L9.29211 7.18519L9.44202 7.17992C9.44135 7.16107 9.44478 7.14239 9.45195 7.12524C9.45912 7.1081 9.46979 7.09306 9.48298 7.08107L9.48334 7.08074L10.1155 6.50215L10.1222 6.49604L10.1281 6.48917C10.1353 6.48082 10.1439 6.47435 10.1533 6.47C10.1627 6.46566 10.1727 6.46348 10.1827 6.46348C10.1928 6.46348 10.2028 6.46566 10.2122 6.47C10.2216 6.47435 10.2302 6.48082 10.2374 6.48917L10.2428 6.49548L10.2489 6.50115L12.173 8.29703M9.49119 7.27985L12.173 8.29703M9.8161 8.26661C9.81587 8.26661 9.81564 8.2666 9.8154 8.2666L9.81662 8.11661V8.26661H9.8161ZM9.8161 8.26661H3.85935H3.85124L3.85126 8.26639C3.82057 8.26473 3.78989 8.27285 3.76342 8.29003C3.7369 8.30725 3.71575 8.33285 3.70348 8.36372L3.70133 8.36911L3.70123 8.36906C3.64271 8.50111 3.61389 8.64505 3.61703 8.79022C3.62016 8.93539 3.65516 9.07786 3.7193 9.2071L3.72221 9.21295L3.72208 9.21301C3.73263 9.23682 3.74946 9.25652 3.77009 9.2701L3.68842 9.39424L3.7701 9.2701C3.7907 9.28365 3.81436 9.29065 3.83828 9.29061L3.83858 9.29061L11.7984 9.29416L11.7993 9.29416C11.9107 9.29487 12.0201 9.26091 12.1127 9.19637C12.2054 9.1318 12.2772 9.03956 12.318 8.93152C12.359 8.82298 12.367 8.70419 12.341 8.59078C12.315 8.47748 12.2564 8.37527 12.1732 8.29723L12.1733 8.29726L12.2756 8.1876M12.2756 8.1876L12.173 8.29703M12.2756 8.1876L10.3512 6.39149C10.3302 6.36698 10.3043 6.34735 10.2752 6.33389C10.2462 6.32044 10.2146 6.31348 10.1827 6.31348C10.1508 6.31348 10.1193 6.32044 10.0903 6.33389C10.0612 6.34735 10.0353 6.36698 10.0143 6.39149L12.173 8.29703" fill="white" stroke="#292D32" stroke-width="0.3"/>
<path id="Path 33" d="M6.17568 11.4075V11.2575C6.10318 11.2575 6.03393 11.2637 5.97519 11.2821C5.91833 11.2999 5.84381 11.3384 5.80993 11.4223C5.77636 11.5055 5.80244 11.5847 5.82995 11.6371C5.85848 11.6913 5.90271 11.7447 5.95386 11.7964L6.25893 12.1117L6.26782 12.1209L6.27813 12.1284C6.28307 12.132 6.28739 12.1371 6.29043 12.1433C6.29348 12.1495 6.29508 12.1566 6.29492 12.1639C6.29476 12.1712 6.29285 12.1782 6.28956 12.1842C6.28627 12.1903 6.28179 12.195 6.27675 12.1984L6.26653 12.2052L6.25755 12.2135L5.70925 12.7242C5.67967 12.7511 5.64211 12.7657 5.60364 12.766C5.565 12.7663 5.52707 12.7523 5.49702 12.7257L5.49678 12.7255C4.89266 12.193 4.30815 11.6404 3.74324 11.0679L3.74304 11.0677C3.68494 11.009 3.64574 10.9329 3.63146 10.8497L3.63146 10.8497L3.63128 10.8487C3.59786 10.6616 3.60846 10.5246 3.64244 10.424C3.67563 10.3259 3.73408 10.2535 3.81443 10.1982C3.98389 10.0815 4.25469 10.0383 4.58317 10.0418L4.58333 10.0418C7.0606 10.0655 9.50311 10.1033 11.9109 10.1554L11.9141 10.0054M6.17568 11.4075L6.17532 11.2575C8.1333 11.2528 10.0089 11.2256 11.8023 11.1759L11.8024 11.1759C11.9338 11.1724 12.0215 11.1226 12.0849 11.0261C12.1546 10.9199 12.2021 10.7447 12.2088 10.4808L12.2088 10.4801C12.2101 10.4381 12.2032 10.3963 12.1886 10.3571C12.174 10.318 12.1521 10.2824 12.1242 10.2524C12.0963 10.2223 12.063 10.1984 12.0264 10.1818C11.9898 10.1652 11.9505 10.1563 11.9107 10.1554L11.9141 10.0054M6.17568 11.4075C8.13481 11.4028 10.0117 11.3755 11.8064 11.3259C12.1607 11.3164 12.3448 11.036 12.3587 10.4846C12.3606 10.4232 12.3505 10.3621 12.3291 10.3047C12.3078 10.2474 12.2755 10.1949 12.2341 10.1503C12.1928 10.1058 12.1432 10.07 12.0883 10.0452C12.0334 10.0203 11.9742 10.0068 11.9141 10.0054M6.17568 11.4075L11.9141 10.0054" fill="white" stroke="#292D32" stroke-width="0.3"/>
</g>
</svg>
