<svg width="18" height="18" viewBox="0 0 18 18" fill="none" xmlns="http://www.w3.org/2000/svg">
<path d="M7.90125 0.0848364C8.49831 -0.0881422 9.21812 0.00299707 9.75659 0.361974C11.841 1.74952 13.9316 3.14327 16.0285 4.54322C16.7911 5.05286 17.0645 5.76895 17.0598 6.67383C17.0474 9.55185 17.0471 12.3818 17.0589 15.1637C17.0626 16.0296 16.7538 16.7298 16.0405 17.2153C15.6803 17.4602 15.2696 17.5823 14.8083 17.5817C10.831 17.5774 6.72016 17.5789 2.47567 17.5864C2.0795 17.587 1.76609 17.5464 1.53545 17.4645C0.826796 17.2128 0.354669 16.7348 0.119071 16.0305C0.0459118 15.8129 0.00964229 15.5339 0.0102623 15.1935C0.0152222 12.1289 0.0118122 9.29765 3.23067e-05 6.69987C-0.00368766 5.66386 0.31344 5.0045 1.16159 4.44557C3.07552 3.1845 4.97394 1.91878 6.85687 0.648412C7.30885 0.343375 7.65697 0.155516 7.90125 0.0848364ZM2.10833 16.2918C2.27324 16.3706 2.45025 16.4099 2.63935 16.4099C6.49696 16.4105 10.3884 16.4115 14.3135 16.4127C15.1115 16.4127 15.6899 15.9003 15.6871 15.0754C15.6803 12.1844 15.6794 9.41793 15.6844 6.77613C15.6853 6.28603 15.4305 5.92612 15.025 5.65642C13.054 4.34823 11.1609 3.08623 9.34553 1.87042C8.88425 1.56073 8.33091 1.46216 7.8408 1.78858C5.8655 3.10421 3.89329 4.41922 1.92419 5.73361C1.56986 5.97076 1.36712 6.37438 1.36805 6.80961C1.37177 9.28773 1.37022 12.0142 1.3634 14.9889C1.36247 15.5674 1.56242 16.0314 2.10833 16.2918Z" fill="white"/>
<path d="M10.8995 8.29357C10.6912 8.10324 10.4817 7.90825 10.2709 7.70861C9.88863 7.34684 10.1639 7.04831 10.4271 6.77397C10.6243 6.56937 10.907 6.49032 11.1311 6.69864C11.7288 7.25601 12.3302 7.81711 12.9353 8.38192C13.1603 8.59303 13.1101 8.99665 13.098 9.27658C13.0897 9.49512 12.9055 9.70158 12.6767 9.70158C9.89545 9.70158 7.07602 9.7022 4.21846 9.70344C4.13476 9.70344 4.05974 9.68174 3.9934 9.63834C3.71162 9.45235 3.79253 9.18637 3.773 8.90737C3.75254 8.60791 3.94132 8.35309 4.25101 8.35309C5.55114 8.35309 7.75956 8.35309 10.8763 8.35309C10.9346 8.35309 10.9423 8.33325 10.8995 8.29357Z" fill="white"/>
<path d="M6.09064 11.6818C6.03856 11.6818 6.03205 11.6991 6.07111 11.7339C6.27075 11.9099 6.44962 12.0792 6.60772 12.2416C6.80488 12.4434 6.74629 12.7131 6.56773 12.9066C6.2971 13.1995 6.02275 13.5139 5.62007 13.1288C5.05959 12.5938 4.48268 12.0575 3.88935 11.52C3.8551 11.489 3.82772 11.4512 3.80898 11.409C3.79024 11.3669 3.78055 11.3214 3.78054 11.2754C3.78054 11.152 3.77775 11.024 3.77217 10.8913C3.75915 10.5909 3.93213 10.3342 4.24182 10.3342C7.01381 10.3336 9.81092 10.3342 12.6331 10.3361C13.1828 10.3361 13.1084 10.9164 13.0935 11.2707C13.0823 11.5153 12.8833 11.6818 12.6462 11.6808C10.1972 11.679 8.01201 11.6793 6.09064 11.6818Z" fill="white"/>
</svg>
