<svg width="36" height="37" viewBox="0 0 36 37" fill="none" xmlns="http://www.w3.org/2000/svg">
<circle cx="18" cy="18.2036" r="18" fill="#141925"/>
<path d="M16.7168 10.9412C16.6192 11.0388 16.6104 11.0654 16.6104 11.4914C16.6104 11.9173 16.6104 11.9528 16.7168 12.0415L16.8144 12.148H22.5113H28.2082L28.3058 12.0415C28.4034 11.9439 28.4123 11.9173 28.4123 11.4914C28.4123 11.0654 28.4123 11.0299 28.3058 10.9412L28.2082 10.8347H22.5113H16.8144L16.7168 10.9412Z" fill="#2966FF"/>
<path d="M12.7237 13.4792C11.3128 13.6566 10.1592 14.2157 9.18309 15.1918C8.31348 16.0525 7.78106 17.0641 7.54147 18.2709C7.44386 18.7679 7.44386 19.9214 7.54147 20.4272C7.78106 21.6252 8.33122 22.6545 9.18309 23.5064C10.035 24.3583 10.9667 24.8641 12.1824 25.1303C12.7148 25.2456 13.8684 25.2545 14.4097 25.148C16.5482 24.7221 18.2697 23.2047 18.9441 21.1549C19.1571 20.5071 19.2103 20.1433 19.2103 19.3269C19.2103 18.7235 19.1926 18.5194 19.1216 18.1911C18.8554 16.9754 18.3496 16.0348 17.4977 15.1918C16.6458 14.3399 15.6076 13.7809 14.4363 13.5502C14.108 13.488 13.0165 13.4437 12.7237 13.4792ZM13.8329 15.4935C13.9216 15.5645 13.9305 15.6088 13.9394 15.9194L13.9571 16.2655L14.2766 16.3187C14.6493 16.372 15.0752 16.5051 15.1373 16.5938C15.1728 16.6471 15.1639 16.7447 15.0663 17.0907C14.9953 17.3481 14.9155 17.5433 14.88 17.5699C14.8267 17.6054 14.7202 17.5788 14.4718 17.4989C14.0547 17.357 13.4336 17.3126 13.1496 17.3924C12.8745 17.4723 12.7237 17.6409 12.7237 17.8628C12.7237 18.1911 12.9278 18.3419 13.8861 18.7235C14.4185 18.9365 14.5605 19.0075 14.8622 19.2293C15.5721 19.7617 15.6609 20.9242 15.0486 21.6252C14.8533 21.847 14.4807 22.0777 14.1435 22.1842L13.8595 22.273V22.6811C13.8595 23.045 13.8506 23.0982 13.7708 23.1869C13.6909 23.2757 13.6465 23.2845 13.2827 23.2845C12.91 23.2845 12.8657 23.2757 12.7769 23.1781C12.6793 23.0893 12.6704 23.045 12.6704 22.7166V22.3528L12.3155 22.2996C11.8718 22.2375 11.3571 22.0689 11.2595 21.9624C11.1885 21.8825 11.1885 21.8648 11.2773 21.4832C11.3305 21.2702 11.4015 21.0395 11.437 20.9951C11.508 20.8798 11.5169 20.8887 12.0404 21.075C12.3421 21.1815 12.4841 21.2081 12.8657 21.2259C13.5844 21.2614 13.9305 21.0928 13.9749 20.6934C14.0104 20.3296 13.7619 20.1167 12.9721 19.8238C12.6882 19.7173 12.3332 19.5665 12.1824 19.4866C11.8452 19.3003 11.508 18.9808 11.366 18.7235C11.2684 18.5371 11.2595 18.475 11.2595 18.0668C11.2595 17.6587 11.2684 17.5877 11.3749 17.3747C11.5701 16.9576 11.9517 16.6293 12.4575 16.4518L12.7059 16.3631L12.7237 15.9727C12.7414 15.458 12.7769 15.4314 13.3271 15.4314C13.6643 15.4225 13.753 15.4314 13.8329 15.4935Z" fill="#2966FF"/>
<path d="M17.5154 13.4702C17.5154 13.4791 17.6485 13.5856 17.8171 13.7098C17.9768 13.834 18.2963 14.1269 18.5181 14.3487L18.9174 14.7569H23.5672H28.217L28.3146 14.6504C28.4122 14.5528 28.4211 14.5262 28.4211 14.1003C28.4211 13.6743 28.4211 13.6388 28.3146 13.5501L28.217 13.4436H22.8662C19.9201 13.4525 17.5154 13.4614 17.5154 13.4702Z" fill="#2966FF"/>
<path d="M19.7783 16.1235C19.7872 16.1501 19.876 16.3364 19.9647 16.5494C20.0534 16.7535 20.1599 17.0286 20.2043 17.1528L20.2753 17.3924H24.2329H28.1994L28.297 17.2859C28.3947 17.1883 28.4035 17.1617 28.4035 16.7358C28.4035 16.3098 28.4035 16.2743 28.297 16.1856L28.1994 16.0791H23.9756C20.6125 16.0791 19.7606 16.088 19.7783 16.1235Z" fill="#2966FF"/>
<path d="M20.5237 19.3534V20.0101H24.366H28.2083L28.3059 19.9036C28.4035 19.806 28.4123 19.7794 28.4123 19.3534C28.4123 18.9275 28.4123 18.892 28.3059 18.8033L28.2083 18.6968H24.366H20.5237V19.3534Z" fill="#2966FF"/>
<path d="M20.1952 21.5453C20.1509 21.6784 20.0444 21.9446 19.9557 22.1487C19.8669 22.3528 19.7871 22.5391 19.7693 22.5657C19.7516 22.6101 20.6123 22.619 23.9665 22.619H28.1904L28.288 22.5125C28.3856 22.4149 28.3945 22.3882 28.3945 21.9623C28.3945 21.5364 28.3945 21.5009 28.288 21.4121L28.1904 21.3057H24.2328H20.2662L20.1952 21.5453Z" fill="#2966FF"/>
<path d="M18.5979 24.2519C18.3317 24.5447 17.9767 24.8642 17.6395 25.1304L17.4976 25.2369H22.8484H28.1992L28.2968 25.1304C28.3944 25.0328 28.4033 25.0062 28.4033 24.5802C28.4033 24.1543 28.4033 24.1188 28.2968 24.0301L28.1992 23.9236H23.5405H18.8818L18.5979 24.2519Z" fill="#2966FF"/>
</svg>
