<svg width="36" height="37" viewBox="0 0 36 37" fill="none" xmlns="http://www.w3.org/2000/svg">
<circle cx="18" cy="18.2036" r="18" fill="#EFF6FF"/>
<path d="M26.4749 23.1737L23.6173 18.224C23.5404 18.0908 23.348 18.0955 23.2755 18.2312C22.4469 19.7822 20.9971 20.8633 19.329 21.2405C19.2012 21.2694 19.1385 21.4145 19.204 21.528L21.7345 25.911C21.9844 26.3437 22.6248 26.2836 22.7925 25.816L23.5774 23.6292L25.8637 24.0426C26.3532 24.131 26.7238 23.6048 26.4749 23.1737Z" fill="#2966FF"/>
<path d="M16.6709 21.2405C15.0022 20.8632 13.5526 19.7815 12.7243 18.2312C12.6519 18.0955 12.4595 18.0908 12.3825 18.224L9.5249 23.1737C9.27625 23.6044 9.64627 24.131 10.1361 24.0426L12.4223 23.6292L13.2072 25.816C13.375 26.2834 14.0154 26.3438 14.2652 25.911L16.7958 21.528C16.8613 21.4144 16.7987 21.2694 16.6709 21.2405Z" fill="#2966FF"/>
<path d="M22.8393 17.3201C23.4734 15.7185 23.2725 13.9097 22.302 12.4817C20.2376 9.44389 15.7618 9.44472 13.698 12.4814C12.7273 13.9097 12.5263 15.7185 13.1604 17.3201C14.897 21.7054 21.1109 21.6849 22.8393 17.3201ZM20.86 15.2741L19.8546 16.254L20.0919 17.6378C20.1745 18.1191 19.6675 18.4785 19.2425 18.2549L17.9998 17.6016L16.7571 18.255C16.3286 18.4803 15.8258 18.1154 15.9077 17.6378L16.145 16.2541L15.1396 15.2741C14.7929 14.9361 14.9846 14.3452 15.4641 14.2756L16.8534 14.0737L17.4748 12.8147C17.6891 12.3804 18.3103 12.3802 18.5247 12.8147L19.1461 14.0737L20.5354 14.2756C21.0147 14.3451 21.2069 14.9359 20.86 15.2741Z" fill="#2966FF"/>
</svg>
