<svg width="36" height="37" viewBox="0 0 36 37" fill="none" xmlns="http://www.w3.org/2000/svg">
<circle cx="18" cy="18.2036" r="18" fill="#141925"/>
<path d="M20.2402 9.19793C18.8574 9.2944 17.4988 9.88931 16.4617 10.854C14.267 12.8719 13.7766 16.1358 15.2799 18.6843C15.9794 19.8821 17.1129 20.8549 18.3831 21.3614C21.4782 22.5914 24.9753 21.2408 26.4224 18.2421C28.0785 14.8254 26.342 10.7174 22.7404 9.51146C22.2178 9.3346 21.7596 9.24616 21.1647 9.19793C20.8914 9.18185 20.6582 9.16577 20.6421 9.16577C20.6341 9.16577 20.4492 9.18185 20.2402 9.19793ZM21.6872 10.8299C23.4559 11.1917 24.8869 12.5423 25.3371 14.2868C25.4577 14.7611 25.522 15.3399 25.4898 15.7499C25.4014 16.98 24.9271 18.0251 24.083 18.8772C22.1937 20.7584 19.1629 20.7182 17.2978 18.7968C16.4698 17.9447 16.0276 16.9076 15.9713 15.7178C15.9231 14.5601 16.2607 13.4989 16.9843 12.5664C17.7721 11.5454 18.9057 10.9264 20.3045 10.7495C20.5698 10.7093 21.3255 10.7576 21.6872 10.8299Z" fill="#2966FF"/>
<path d="M19.9428 11.9554V12.3814L19.7901 12.4297C19.4846 12.5181 19.1871 12.695 18.962 12.9281C18.0616 13.8446 18.2385 15.3077 19.3318 15.9911C19.6775 16.2081 19.9267 16.2644 20.6503 16.2885L21.3014 16.3046L21.422 16.4252C21.5587 16.5619 21.5828 16.7146 21.4863 16.8915C21.3818 17.1005 21.3175 17.1085 19.782 17.1085H18.3912V17.8884V18.6682H19.171H19.9508V19.0541V19.448H20.7306H21.5105L21.5185 19.038L21.5265 18.628L21.7677 18.5395C22.5636 18.2582 23.1022 17.5025 23.1022 16.6583C23.1022 16.4011 22.9656 15.9268 22.8289 15.6936C22.6681 15.4203 22.3385 15.0987 22.0732 14.954C21.7275 14.7691 21.4863 14.7209 20.8673 14.7209C20.1116 14.7209 19.9428 14.6405 19.9428 14.2787C19.9428 14.1501 19.9669 14.0938 20.0473 14.0054L20.1518 13.9009H21.623H23.0942V13.1211V12.3412H22.2983H21.5024V11.9312V11.5212H20.7226H19.9428V11.9554Z" fill="#2966FF"/>
<path d="M12.3617 15.8623C9.62832 16.811 7.87576 19.4398 8.09282 22.2857C8.23752 24.2714 9.24243 25.9918 10.9066 27.1013C12.4742 28.1544 14.4921 28.4358 16.317 27.8489C17.9811 27.3183 19.38 26.0883 20.1196 24.4965C20.2321 24.2554 20.4974 23.5238 20.4974 23.4514C20.4974 23.4434 20.3366 23.4193 20.1357 23.4032C19.9347 23.3871 19.589 23.3469 19.3639 23.3067C19.1388 23.2665 18.9539 23.2424 18.9539 23.2424C18.6002 24.1669 18.3107 24.6493 17.7319 25.2201C16.8315 26.1124 15.6819 26.5868 14.4037 26.5868C13.1013 26.5868 11.9517 26.1205 11.0352 25.212C10.3599 24.5367 9.91773 23.7328 9.71675 22.7761C9.6042 22.2375 9.6042 21.4014 9.71675 20.8708C10.0222 19.4881 10.8181 18.3947 12.016 17.6953C12.217 17.5747 12.5546 17.422 12.9727 17.2612C12.9727 17.2612 12.9485 17.0763 12.9083 16.8512C12.8682 16.6261 12.828 16.2804 12.8119 16.0794C12.7958 15.8543 12.7717 15.7176 12.7476 15.7257C12.7315 15.7418 12.5546 15.798 12.3617 15.8623Z" fill="#2966FF"/>
<path d="M13.27 18.837C12.7153 19.0621 12.3214 19.4721 12.1285 20.0348C12.0159 20.3725 12.0159 20.9594 12.1285 21.2809C12.2892 21.7231 12.6269 22.1251 13.0369 22.3582C13.3906 22.5511 13.6398 22.5994 14.283 22.5994C14.8859 22.5994 15.0065 22.6235 15.1191 22.7923C15.1512 22.8405 15.1753 22.9451 15.1753 23.0335C15.1753 23.1621 15.1512 23.2184 15.0708 23.3068L14.9663 23.4113H13.4951H12.032V24.1911V24.971H12.8279H13.6238V25.381V25.791H14.4036H15.1834V25.3729V24.9549L15.3763 24.8906C15.8667 24.7378 16.3008 24.368 16.534 23.9017C16.7028 23.5641 16.751 23.2988 16.7269 22.8968C16.7028 22.3823 16.6707 22.326 16.2285 22.0205C15.8185 21.7392 15.5773 21.5382 15.2638 21.2488L15.0708 21.0719L14.4357 21.0558L13.8006 21.0317L13.6961 20.9111C13.5755 20.7745 13.5594 20.6217 13.6479 20.4529C13.7202 20.3082 13.8971 20.2358 14.1544 20.2358H14.3553L14.1061 19.8499C13.9614 19.6409 13.7685 19.3113 13.664 19.1103L13.4791 18.7566L13.27 18.837Z" fill="#2966FF"/>
</svg>
