<svg width="23" height="23" viewBox="0 0 23 23" fill="none" xmlns="http://www.w3.org/2000/svg">
<g id="Group 64118">
<circle id="Ellipse 868" cx="11.5" cy="11.5" r="11.5" fill="#4D6090"/>
<g id="Group 64117">
<path id="Vector" d="M16.8006 10.3761L16.0558 10.2365C15.9627 9.95713 15.8695 9.6778 15.6833 9.39848L16.1489 8.79327C16.2885 8.60705 16.242 8.37428 16.1023 8.18806L15.0316 7.11731C14.8919 6.97764 14.6126 6.93109 14.4264 7.07075L13.8212 7.48974C13.5418 7.35008 13.2159 7.21042 12.8901 7.11731L12.7504 6.37244C12.7038 6.13966 12.5176 6 12.2849 6H10.7486C10.5158 6 10.3296 6.18622 10.283 6.37244L10.1899 7.11731C9.91058 7.16386 9.58469 7.30353 9.30537 7.48974L8.74671 7.07075C8.5605 6.93109 8.32772 6.93109 8.14151 7.11731L7.07075 8.18806C6.93109 8.32772 6.88454 8.60705 7.0242 8.79327L7.44319 9.35192C7.25697 9.63125 7.16386 9.95713 7.07075 10.283L6.37244 10.3761C6.13966 10.4227 6 10.6089 6 10.8417V12.378C6 12.6107 6.18622 12.797 6.37244 12.8435L7.07075 12.9366C7.16386 13.2625 7.30353 13.5418 7.44319 13.8677L7.07075 14.4264C6.93109 14.6126 6.93109 14.8453 7.11731 15.0316L8.18806 16.1023C8.32772 16.242 8.60705 16.2885 8.79327 16.1489L9.35192 15.7299C9.63125 15.8695 9.91058 16.0092 10.1899 16.1023L10.283 16.8006C10.3296 17.0334 10.5158 17.1731 10.7486 17.1731H12.2849C12.5176 17.1731 12.7038 16.9869 12.7504 16.8006L12.8435 16.1023C13.1694 16.0092 13.4487 15.8695 13.728 15.7299L14.3333 16.1489C14.5195 16.2885 14.7988 16.242 14.9385 16.1023L16.0092 15.0316C16.1489 14.8919 16.1954 14.6126 16.0558 14.4264L15.6368 13.8212C15.7764 13.5418 15.9161 13.2625 16.0092 12.9832L16.7541 12.8435C16.9869 12.797 17.1265 12.6107 17.1265 12.378V10.8417C17.1731 10.6089 16.9869 10.4227 16.8006 10.3761ZM14.2867 13.7746C13.8677 13.2625 13.3556 12.8901 12.7038 12.6573C12.6107 12.6107 12.5176 12.6573 12.4711 12.6573C12.1917 12.7504 11.9124 12.8435 11.6331 12.8435C11.3538 12.8435 11.0279 12.797 10.7951 12.6573C10.702 12.6107 10.6089 12.6107 10.5623 12.6573C9.91058 12.8901 9.35192 13.2625 8.97949 13.7746C8.51394 13.1694 8.23461 12.4245 8.23461 11.6331C8.23461 9.72436 9.77091 8.14151 11.7262 8.14151C13.6349 8.14151 15.1712 9.6778 15.1712 11.6331C15.0316 12.4245 14.7522 13.1694 14.2867 13.7746Z" fill="white"/>
<path id="Vector_2" d="M11.5861 9.30469C10.7947 9.30469 10.1895 9.95645 10.1895 10.7013C10.1895 11.4927 10.7947 12.098 11.5861 12.098C12.331 12.098 12.9827 11.4927 12.9827 10.7013C12.9827 9.9099 12.3775 9.30469 11.5861 9.30469Z" fill="white"/>
</g>
</g>
</svg>
