<svg xmlns="http://www.w3.org/2000/svg" xmlns:xlink="http://www.w3.org/1999/xlink" width="23" height="23" viewBox="0 0 23 23">
  <defs>
    <clipPath id="clip-Artboard_1">
      <rect width="23" height="23"/>
    </clipPath>
  </defs>
  <g id="Artboard_1" data-name="Artboard – 1" clip-path="url(#clip-Artboard_1)">
    <g id="Line" transform="translate(3.293 3.742)">
      <path id="Path_49284" data-name="Path 49284" d="M12.956,7.7l-.648-.361a3.483,3.483,0,0,0,.034-.488,2.014,2.014,0,0,0-.046-.47L12.939,6a.838.838,0,0,0,.39-.993,5.669,5.669,0,0,0-1.061-1.836.815.815,0,0,0-1.033-.161l-.574.339H10.6a3.127,3.127,0,0,0-.843-.425V2.257a.861.861,0,0,0-.671-.9,5.652,5.652,0,0,0-2.106,0,.832.832,0,0,0-.666.815V2.9a3.569,3.569,0,0,0-.815.5l-.574-.333a.855.855,0,0,0-1.119.12A5.669,5.669,0,0,0,2.749,5.011.838.838,0,0,0,3.128,6l.631.379v.47a1.836,1.836,0,0,0,.052.465l-.671.379a.843.843,0,0,0-.367.987A5.675,5.675,0,0,0,3.73,10.4a3.873,3.873,0,0,0-.711,2.186,1.01,1.01,0,0,0,1,1h8.033a1.01,1.01,0,0,0,1-1,3.89,3.89,0,0,0-.689-2.2,5.577,5.577,0,0,0,.958-1.721.843.843,0,0,0-.373-.964Zm-.9,5.032H4.023a.143.143,0,0,1-.143-.143A3.018,3.018,0,0,1,6.892,9.573h2.3A3.018,3.018,0,0,1,12.2,12.585a.143.143,0,0,1-.143.143ZM8.039,8.712A1.865,1.865,0,1,1,9.9,6.848,1.865,1.865,0,0,1,8.039,8.712Zm3.752,1a3.861,3.861,0,0,0-1.853-.941,2.68,2.68,0,0,0,.826-1.928,2.725,2.725,0,1,0-5.451,0A2.68,2.68,0,0,0,6.14,8.787a3.861,3.861,0,0,0-1.853.93,5.3,5.3,0,0,1-.734-1.3l.677-.379a.838.838,0,0,0,.367-.8V6.469a.838.838,0,0,0-.4-.838L3.564,5.3a5.342,5.342,0,0,1,.843-1.532.172.172,0,0,1,.08.034l.574.339a.826.826,0,0,0,.918-.063,3.494,3.494,0,0,1,.683-.384.826.826,0,0,0,.516-.763L7.138,2.2a4.883,4.883,0,0,1,1.756,0,.2.2,0,0,1,0,.063v.666a.82.82,0,0,0,.5.757,3.666,3.666,0,0,1,.677.39.872.872,0,0,0,.987,0l.574-.356a5.1,5.1,0,0,1,.878,1.532l-.648.379a.826.826,0,0,0-.384.826v.39a3.047,3.047,0,0,1-.029.39.843.843,0,0,0,.407.82l.654.339a4.533,4.533,0,0,1-.723,1.32Z" transform="translate(0)" fill="#4d6090"/>
    </g>
  </g>
</svg>
