<svg width="17" height="20" viewBox="0 0 17 20" fill="none" xmlns="http://www.w3.org/2000/svg">
<path d="M17 10.2068V6.79316L14.9364 6.30186C14.8433 6.02948 14.7326 5.76258 14.6053 5.50358L15.7173 3.69652L13.3034 1.28267L11.4964 2.39473C11.2374 2.26738 10.9705 2.15666 10.6981 2.06357L10.2068 0H6.7932L6.30186 2.06357C6.02948 2.15666 5.76258 2.26738 5.50362 2.39473L3.69656 1.28267L1.28267 3.69652L2.3947 5.50358C2.26735 5.76258 2.15662 6.02948 2.06354 6.30186L0 6.79312V10.2068L2.06357 10.6981C2.15666 10.9705 2.26738 11.2374 2.39473 11.4964L1.27746 13.312L2.95116 14.9151C2.77383 15.4466 2.68222 16.0055 2.68222 16.5728V19.0778H14.3933V16.5728C14.3933 16.0248 14.3074 15.4848 14.1418 14.9697L15.7091 13.2901L14.6053 11.4965C14.7327 11.2375 14.8434 10.9706 14.9365 10.6982L17 10.2068ZM13.26 17.9444H3.81556V16.5728C3.81556 15.7868 4.0395 15.0215 4.46322 14.3594C5.22172 13.1742 6.51463 12.4667 7.92174 12.4667H9.15382C10.5609 12.4667 11.8538 13.1742 12.6123 14.3594C13.0361 15.0214 13.26 15.7868 13.26 16.5728V17.9444ZM8.53778 11.2861C7.09266 11.2861 5.91694 10.1104 5.91694 8.66528C5.91694 7.22016 7.09266 6.04444 8.53778 6.04444C9.98289 6.04444 11.1586 7.22016 11.1586 8.66528C11.1586 10.1104 9.98289 11.2861 8.53778 11.2861ZM14.2912 13.1484L13.6322 13.8546C13.6107 13.8191 13.5893 13.7835 13.5669 13.7485C12.9169 12.7329 11.9592 11.9928 10.8566 11.6157C11.7301 10.9278 12.2919 9.86091 12.2919 8.66528C12.2919 6.59524 10.6078 4.91111 8.53774 4.91111C6.46771 4.91111 4.78357 6.59524 4.78357 8.66528C4.78357 9.86091 5.3454 10.9278 6.2189 11.6157C5.11628 11.9927 4.15854 12.7329 3.50857 13.7485C3.49112 13.7757 3.47469 13.8035 3.45776 13.8311L2.72223 13.1266L3.70215 11.5342L2.96095 9.74686L1.13333 9.31166V7.68831L2.96098 7.25314L3.70218 5.4658L2.71702 3.86493L3.86489 2.71705L5.4658 3.70222L7.25314 2.96102L7.68834 1.13333H9.31169L9.74686 2.96098L11.5342 3.70222L13.1351 2.71705L14.2829 3.86493L13.2978 5.4658L14.039 7.25314L15.8666 7.68831V9.31166L14.039 9.74682L13.2978 11.5342L14.2912 13.1484Z" fill="#4D6090"/>
</svg>
