<svg width="43" height="43" viewBox="0 0 43 43" fill="none" xmlns="http://www.w3.org/2000/svg">
<path d="M21.5 43C33.4147 43 43 33.4147 43 21.5C43 9.58535 33.4147 0 21.5 0C9.58535 0 0 9.58535 0 21.5C0 33.4147 9.58535 43 21.5 43Z" fill="white"/>
<path d="M23.0686 11.0723C27.3659 13.913 30.2059 15.8828 31.5886 16.9819C32.7772 17.9267 32.3017 27.2516 32.2924 29.1128C32.2784 31.796 31.4348 33.147 28.7269 33.147C23.6279 33.1439 18.5289 33.1455 13.43 33.1518C11.7148 33.1518 10.7593 31.5504 10.7547 29.8356C10.7484 25.9778 10.7484 22.1215 10.7547 18.2668C10.7547 17.7724 11.1073 17.2701 11.8127 16.7599C15.9764 13.7492 18.8521 11.7746 20.4399 10.8362C21.2447 10.3669 22.1209 10.4456 23.0686 11.0723ZM30.1717 18.4038L22.225 12.9997C22.0417 12.8754 21.8273 12.8067 21.6069 12.8017C21.3864 12.7967 21.1691 12.8555 20.9806 12.9713C18.7931 14.3035 16.5854 15.7584 14.3575 17.3362C13.2436 18.1251 12.6143 18.3896 12.605 19.684C12.5926 23.1387 12.6035 26.5934 12.6376 30.0482C12.647 30.9363 13.1969 31.3756 14.0732 31.3756C19.1846 31.3787 24.1888 31.3771 29.0858 31.3708C29.2477 31.3712 29.408 31.3391 29.5577 31.2766C29.7074 31.2141 29.8435 31.1224 29.9582 31.0066C30.0729 30.8908 30.1639 30.7532 30.2262 30.6017C30.2884 30.4502 30.3206 30.2878 30.3209 30.1237C30.3271 26.3446 30.3287 22.5608 30.3255 18.7723C30.3331 18.7027 30.3229 18.6322 30.296 18.5677C30.2691 18.5032 30.2263 18.4468 30.1717 18.4038Z" fill="black"/>
<path d="M24.0568 20.9481L23.3577 20.3765C23.3159 20.3426 23.2818 20.3 23.2577 20.2516C23.2335 20.2032 23.22 20.1501 23.2179 20.0959C23.216 20.0421 23.2258 19.9886 23.2467 19.9391C23.2676 19.8896 23.2989 19.8454 23.3386 19.8096L24.1869 19.0396C24.2151 19.007 24.2499 18.9809 24.2888 18.963C24.3278 18.9451 24.3701 18.9358 24.4129 18.9358C24.4557 18.9358 24.498 18.9451 24.537 18.963C24.576 18.9809 24.6108 19.007 24.639 19.0396L27.2211 21.4299C27.3624 21.5612 27.4613 21.7327 27.505 21.9218C27.5487 22.111 27.5352 22.3091 27.4663 22.4904C27.3974 22.6714 27.2758 22.8269 27.1176 22.9362C26.9594 23.0455 26.7721 23.1034 26.5807 23.1022L15.9004 23.0974C15.8286 23.0975 15.7583 23.0767 15.6979 23.0373C15.6376 22.9979 15.5897 22.9417 15.5601 22.8754C15.4609 22.677 15.4068 22.4586 15.402 22.2362C15.3971 22.0138 15.4416 21.7931 15.5322 21.5905C15.5638 21.5115 15.619 21.4445 15.69 21.3988C15.761 21.3531 15.8443 21.3309 15.9283 21.3354H23.9217C23.9663 21.3358 24.0099 21.322 24.0465 21.2961C24.083 21.2701 24.1106 21.2332 24.1255 21.1906C24.1404 21.1479 24.1418 21.1017 24.1295 21.0582C24.1172 21.0147 24.0918 20.9762 24.0568 20.9481Z" fill="black"/>
<path d="M18.8833 26.0936L19.2935 26.5141C19.3267 26.5382 19.3536 26.5702 19.3719 26.6073C19.3902 26.6443 19.3992 26.6854 19.3983 26.7268C19.3974 26.7682 19.3865 26.8088 19.3666 26.845C19.3467 26.8812 19.3184 26.9119 19.2841 26.9345L18.5477 27.6147C18.4717 27.6838 18.3734 27.7224 18.2713 27.7233C18.1692 27.7241 18.0703 27.6872 17.9931 27.6195C17.179 26.9077 16.3913 26.1692 15.63 25.404C15.5227 25.2965 15.451 25.1578 15.425 25.0072C15.2292 23.9207 16.0076 23.6892 16.9025 23.6986C20.2272 23.7301 23.5053 23.7805 26.7368 23.8498C26.8174 23.8516 26.8969 23.8696 26.9706 23.9027C27.0443 23.9358 27.1108 23.9834 27.1662 24.0427C27.2217 24.102 27.265 24.1718 27.2937 24.2482C27.3224 24.3245 27.3359 24.4059 27.3334 24.4875C27.3148 25.2213 27.0678 25.5945 26.5924 25.6071C24.1842 25.6732 21.6658 25.7094 19.0371 25.7157C18.6829 25.7157 18.6316 25.8417 18.8833 26.0936Z" fill="black"/>
</svg>
