<?xml version="1.0" encoding="UTF-8"?>
<svg xmlns="http://www.w3.org/2000/svg" xmlns:xlink="http://www.w3.org/1999/xlink" width="20px" height="20px" viewBox="0 0 20 20" version="1.1">
<g id="surface1">
<path style=" stroke:none;fill-rule:nonzero;fill:rgb(0%,0%,0%);fill-opacity:1;" d="M 15.484375 6.886719 L 13.785156 6.886719 C 13.589844 6.886719 13.402344 6.800781 13.269531 6.652344 L 12.582031 5.875 C 12.480469 5.757812 12.332031 5.695312 12.179688 5.695312 C 12.023438 5.695312 11.875 5.761719 11.773438 5.875 L 11.183594 6.542969 C 10.992188 6.761719 10.714844 6.886719 10.421875 6.886719 L 1.136719 6.886719 C 0.875 7.640625 0.703125 8.433594 0.632812 9.261719 L 9.398438 9.261719 C 9.550781 9.261719 9.699219 9.199219 9.804688 9.085938 L 10.621094 8.234375 C 10.722656 8.128906 10.863281 8.070312 11.011719 8.070312 L 11.042969 8.070312 C 11.199219 8.070312 11.347656 8.136719 11.449219 8.25 L 12.136719 9.027344 C 12.265625 9.175781 12.457031 9.261719 12.652344 9.261719 L 19.804688 9.261719 C 19.738281 8.433594 19.566406 7.640625 19.300781 6.886719 L 15.480469 6.886719 Z M 15.484375 6.886719 "/>
<path style=" stroke:none;fill-rule:nonzero;fill:rgb(0%,0%,0%);fill-opacity:1;" d="M 5.9375 14.253906 C 6.089844 14.253906 6.238281 14.191406 6.34375 14.082031 L 7.160156 13.230469 C 7.261719 13.125 7.402344 13.0625 7.550781 13.0625 L 7.582031 13.0625 C 7.738281 13.0625 7.886719 13.128906 7.988281 13.246094 L 8.675781 14.023438 C 8.804688 14.171875 8.996094 14.253906 9.191406 14.253906 L 18.886719 14.253906 C 19.25 13.503906 19.515625 12.699219 19.675781 11.855469 L 10.367188 11.855469 C 10.171875 11.855469 9.984375 11.769531 9.851562 11.625 L 9.164062 10.847656 C 9.0625 10.730469 8.914062 10.664062 8.761719 10.664062 C 8.605469 10.664062 8.457031 10.730469 8.355469 10.847656 L 7.765625 11.511719 C 7.574219 11.730469 7.296875 11.855469 7.003906 11.855469 L 0.765625 11.855469 C 0.921875 12.699219 1.191406 13.503906 1.550781 14.253906 Z M 5.9375 14.253906 "/>
<path style=" stroke:none;fill-rule:nonzero;fill:rgb(0%,0%,0%);fill-opacity:1;" d="M 12.8125 4.289062 C 12.96875 4.289062 13.113281 4.226562 13.222656 4.117188 L 14.039062 3.265625 C 14.140625 3.15625 14.28125 3.097656 14.425781 3.097656 L 14.460938 3.097656 C 14.617188 3.097656 14.761719 3.164062 14.867188 3.28125 L 15.554688 4.058594 C 15.683594 4.207031 15.871094 4.289062 16.070312 4.289062 L 17.914062 4.289062 C 16.15625 1.957031 13.363281 0.445312 10.21875 0.445312 C 7.074219 0.445312 4.28125 1.957031 2.527344 4.289062 Z M 12.8125 4.289062 "/>
<path style=" stroke:none;fill-rule:nonzero;fill:rgb(0%,0%,0%);fill-opacity:1;" d="M 9.109375 16.632812 L 6.589844 16.632812 C 6.390625 16.632812 6.203125 16.546875 6.074219 16.402344 L 5.386719 15.625 C 5.28125 15.507812 5.136719 15.441406 4.980469 15.441406 C 4.828125 15.441406 4.679688 15.507812 4.578125 15.625 L 3.988281 16.289062 C 3.792969 16.507812 3.515625 16.632812 3.226562 16.632812 L 3.1875 16.632812 C 4.941406 18.515625 7.441406 19.695312 10.21875 19.695312 C 12.996094 19.695312 15.5 18.515625 17.253906 16.632812 Z M 9.109375 16.632812 "/>
</g>
</svg>
