<svg width="115" height="27" viewBox="0 0 115 27" fill="none" xmlns="http://www.w3.org/2000/svg">
<path d="M87.5314 9.00832H85.1688C84.8992 9.00832 84.6295 8.89407 84.4376 8.68386L83.4779 7.60993C83.19 7.30375 82.7285 7.26262 82.404 7.55053C82.3857 7.5688 82.3675 7.58708 82.3446 7.60993L81.5175 8.53305C81.2478 8.83923 80.864 9.01289 80.4618 9.01289H67.5062C67.1406 10.0868 66.8939 11.2019 66.7979 12.3352H79.0223C79.2325 12.3352 79.4427 12.2392 79.5981 12.0838L80.7314 10.8957C80.864 10.7403 81.0742 10.6672 81.2661 10.6672H81.3027C81.5129 10.6672 81.7231 10.7631 81.8785 10.9185L82.8382 11.9924C83.0118 12.2027 83.2814 12.3169 83.5693 12.3169H93.5499C93.454 11.1836 93.2255 10.0731 92.8416 8.99461H87.5269V9.00832H87.5314ZM74.2148 19.2951C74.425 19.2951 74.6352 19.1991 74.7906 19.0438L75.9239 17.8556C76.0565 17.7002 76.2712 17.6271 76.4632 17.6271H76.5226C76.7328 17.6271 76.943 17.7231 77.0984 17.8784L78.0581 18.9524C78.25 19.1626 78.5013 19.2768 78.7892 19.2768H92.3115C92.8279 18.2212 93.1935 17.0879 93.4266 15.9362H80.4344C80.1648 15.9362 79.8952 15.822 79.7261 15.6118L78.7664 14.5379C78.6339 14.3825 78.4191 14.2865 78.1906 14.2865C77.9804 14.2865 77.7702 14.3825 77.6331 14.5379L76.8059 15.461C76.5363 15.7672 76.1524 15.9408 75.732 15.9408H67.0172C67.2275 17.0924 67.6113 18.2258 68.1094 19.2997H74.2148V19.2951ZM83.807 5.37983C84.0172 5.37983 84.2274 5.28387 84.3828 5.12849L85.5161 3.94032C85.6486 3.78495 85.8634 3.71183 86.0554 3.71183H86.1148C86.325 3.71183 86.5352 3.8078 86.6723 3.96317L87.632 5.03709C87.8239 5.24731 88.0752 5.36155 88.3586 5.36155H90.9314C86.4804 -0.570146 78.0718 -1.75831 72.1446 2.69275C71.1301 3.46048 70.2253 4.34247 69.4758 5.36155H83.8115L83.807 5.37983ZM78.6293 22.6128H75.1151C74.8454 22.6128 74.5758 22.4986 74.4067 22.2884L73.4471 21.2145C73.1592 20.9083 72.6793 20.8671 72.3731 21.155C72.3549 21.1733 72.3366 21.1916 72.3137 21.2145L71.4866 22.1559C71.217 22.462 70.8331 22.6357 70.4309 22.6357H70.3715C75.4167 28.0464 83.9212 28.3526 89.332 23.3075C89.5604 23.0972 89.7935 22.8642 90.0037 22.6357L78.6293 22.6128ZM20.8204 26.0128L18.0967 19.3728H5.89057L3.16692 26.0128H0L11.9731 0.910494L23.9873 26.0128H20.8204ZM6.92793 16.8548H17.0411L11.9548 6.14757L6.92793 16.8548ZM28.3469 26.0128V0.910494H35.3343C40.8044 0.910494 43.6652 3.40565 43.6652 8.12633C43.6652 12.6734 40.6125 15.2828 35.2977 15.2828H31.2854V25.99H28.3469V26.0128ZM31.3037 12.6734H34.6397C38.8622 12.6734 40.7222 11.2933 40.7222 8.12633C40.7222 4.86344 38.8394 3.51989 34.6579 3.51989H31.3174L31.3037 12.6734ZM54.3678 3.57473H45.7125V0.887645H65.9799V3.57473H57.3245V26.0083H54.3861V3.57473H54.3678ZM97.704 21.4247L100.236 19.6973L100.428 20.0994C101.981 22.9419 103.691 24.0706 106.282 24.0706C109.161 24.0706 111.176 22.0736 111.176 19.6744C111.176 17.4078 110.043 15.8768 105.496 13.9941C100.277 11.8234 98.5083 9.59783 98.5083 6.39435C98.5083 2.92124 101.232 0.197593 105.953 0.197593C109.426 0.197593 111.807 1.67366 113.15 4.09113L111.098 5.51236L110.504 5.35698C109.43 3.69355 108.123 2.73387 105.898 2.73387C103.174 2.73387 101.579 4.26935 101.579 6.32123C101.579 8.24058 102.598 9.33278 107.049 11.3664C112.826 13.9941 114.247 16.1465 114.247 19.6378C114.247 23.44 110.984 26.6617 106.341 26.6617C102.425 26.7029 99.7376 25.204 97.704 21.4247Z" fill="#2E4276"/>
</svg>
