<svg width="18" height="19" viewBox="0 0 18 19" fill="none" xmlns="http://www.w3.org/2000/svg">
<g id="Group 64284">
<path id="Vector" d="M1.81404 3.54305C5.48778 -1.14542 12.5114 -1.23074 16.1917 3.55464C16.1957 3.55975 16.1982 3.56587 16.1988 3.57231C16.1994 3.57875 16.1982 3.58526 16.1953 3.5911C16.1924 3.59695 16.1878 3.60191 16.1822 3.60542C16.1766 3.60893 16.1702 3.61085 16.1636 3.61097C15.5915 3.61428 15.0149 3.61318 14.434 3.60766C13.9204 3.60269 13.6081 2.71635 13.155 2.52086C12.8485 2.38915 12.6414 2.5805 12.4244 2.81161C12.079 3.18023 11.7907 3.60766 11.3732 3.60849C8.19676 3.6129 5.02142 3.61401 1.84717 3.6118C1.83918 3.61184 1.83134 3.60962 1.82456 3.60539C1.81779 3.60116 1.81235 3.59509 1.80888 3.58789C1.80541 3.5807 1.80405 3.57266 1.80496 3.56472C1.80588 3.55678 1.80902 3.54927 1.81404 3.54305Z" fill="#292D32"/>
<path id="Vector_2" d="M11.2816 5.16566C11.5683 5.48789 11.9095 6.04454 12.4049 6.04454C14.1025 6.04675 15.8017 6.04758 17.5026 6.04702C17.5123 6.04703 17.5217 6.05007 17.5296 6.05571C17.5375 6.06136 17.5434 6.06933 17.5465 6.0785C17.779 6.77487 17.93 7.48863 17.9996 8.21979C18.0029 8.25568 17.9866 8.27363 17.9507 8.27363C15.7661 8.27529 13.5734 8.27584 11.3728 8.27529C11.0895 8.27529 10.9586 8.22807 10.7598 8.01104C10.5055 7.7352 10.064 7.05016 9.64731 7.17027C9.08983 7.33097 8.80156 8.26866 8.20929 8.27032C5.48733 8.27695 2.76564 8.27722 0.0442313 8.27115C0.0122017 8.27115 -0.00243246 8.25513 0.000328711 8.2231C0.0654924 7.49471 0.216252 6.78453 0.452609 6.09258C0.462549 6.06221 0.483534 6.04702 0.515563 6.04702C3.36178 6.04647 6.20634 6.04619 9.04924 6.04619C9.72435 6.04702 9.94966 5.66681 10.3464 5.2195C10.6637 4.86248 10.9503 4.79538 11.2816 5.16566Z" fill="#292D32"/>
<path id="Vector_3" d="M6.2869 11.8925C6.22626 11.9182 6.17154 11.9563 6.1262 12.0043C5.87218 12.2711 5.60462 12.5502 5.32353 12.8418C5.26168 12.9064 5.16449 12.9395 5.03195 12.9412C3.65854 12.9583 2.28486 12.9666 0.910902 12.9661C0.876111 12.9661 0.85126 12.95 0.83635 12.918C0.509979 12.2261 0.273347 11.5043 0.126453 10.7527C0.120378 10.7212 0.133355 10.7055 0.165385 10.7055C2.07225 10.7033 3.97718 10.703 5.88018 10.7047C6.52878 10.7055 6.74167 10.3377 7.11857 9.90612C8.02893 8.86157 8.30808 10.7071 9.153 10.7071C12.0511 10.7049 14.9451 10.7041 17.835 10.7047C17.8642 10.7047 17.8761 10.7187 17.8706 10.7469C17.7275 11.4963 17.4928 12.2156 17.1665 12.9048C17.1483 12.9434 17.1176 12.9627 17.0745 12.9627C14.0566 12.9638 11.0295 12.9641 7.99331 12.9636C7.30495 12.9636 7.04816 11.5653 6.2869 11.8925Z" fill="#292D32"/>
<path id="Vector_4" d="M15.5598 15.2521C11.9971 19.0244 5.98736 19.0045 2.43125 15.2405C2.42755 15.2364 2.42511 15.2314 2.42421 15.226C2.42331 15.2206 2.424 15.2151 2.4262 15.2101C2.4284 15.2051 2.432 15.2008 2.43657 15.1978C2.44115 15.1948 2.44649 15.1932 2.45196 15.1932C2.98459 15.1874 3.28031 14.7294 3.59923 14.3674C3.92311 13.9996 4.21718 13.9698 4.54106 14.3376C4.84755 14.6838 5.17144 15.214 5.67508 15.2115C8.96418 15.1971 12.2508 15.1916 15.5349 15.1949C15.5416 15.1949 15.5481 15.1968 15.5536 15.2004C15.5591 15.2041 15.5635 15.2092 15.5661 15.2153C15.5688 15.2214 15.5696 15.2281 15.5685 15.2346C15.5673 15.2412 15.5643 15.2472 15.5598 15.2521Z" fill="#292D32"/>
</g>
</svg>
