<svg width="15" height="15" viewBox="0 0 15 15" fill="none" xmlns="http://www.w3.org/2000/svg">
<g id="Group 64284">
<path id="Vector" d="M1.50605 2.94389C4.55518 -0.947435 10.3846 -1.01825 13.4392 2.95352C13.4425 2.95776 13.4446 2.96283 13.4451 2.96818C13.4456 2.97352 13.4446 2.97893 13.4422 2.98378C13.4397 2.98863 13.436 2.99275 13.4313 2.99566C13.4267 2.99857 13.4213 3.00017 13.4159 3.00027C12.941 3.00302 12.4625 3.0021 11.9803 2.99752C11.5541 2.99339 11.2949 2.25775 10.9188 2.0955C10.6644 1.98619 10.4925 2.145 10.3124 2.33682C10.0257 2.64276 9.78647 2.99752 9.43996 2.99821C6.80357 3.00187 4.16811 3.00279 1.53355 3.00096C1.52692 3.00099 1.52041 2.99915 1.51479 2.99564C1.50916 2.99213 1.50465 2.98709 1.50177 2.98112C1.49889 2.97514 1.49776 2.96847 1.49852 2.96188C1.49928 2.95529 1.50189 2.94906 1.50605 2.94389Z" fill="#3072F3"/>
<path id="Vector_2" d="M9.36377 4.29066C9.60165 4.5581 9.8849 5.02011 10.296 5.02011C11.705 5.02194 13.1153 5.02263 14.527 5.02217C14.535 5.02218 14.5429 5.0247 14.5494 5.02938C14.5559 5.03407 14.5608 5.04068 14.5634 5.0483C14.7564 5.62627 14.8818 6.21868 14.9395 6.82552C14.9423 6.85531 14.9287 6.87021 14.8989 6.87021C13.0857 6.87158 11.2659 6.87204 9.43939 6.87158C9.20426 6.87158 9.09564 6.8324 8.93063 6.65227C8.71957 6.42333 8.35312 5.85475 8.0073 5.95444C7.54461 6.08782 7.30535 6.86608 6.81378 6.86746C4.55461 6.87296 2.29567 6.87319 0.0369552 6.86815C0.0103713 6.86815 -0.00177475 6.85486 0.000516964 6.82827C0.0546014 6.22372 0.179729 5.63429 0.375899 5.05999C0.38415 5.03478 0.401567 5.02217 0.42815 5.02217C2.79045 5.02171 5.15137 5.02149 7.51092 5.02149C8.07124 5.02217 8.25824 4.7066 8.58756 4.33535C8.85088 4.03903 9.08876 3.98334 9.36377 4.29066Z" fill="#3072F3"/>
<path id="Vector_3" d="M5.21874 9.87437C5.16841 9.89567 5.12299 9.92728 5.08536 9.96718C4.87452 10.1886 4.65245 10.4203 4.41916 10.6623C4.36782 10.7159 4.28716 10.7434 4.17715 10.7448C3.03726 10.759 1.89713 10.7658 0.756773 10.7654C0.727898 10.7654 0.707272 10.7521 0.694897 10.7255C0.424017 10.1512 0.227617 9.55215 0.105698 8.92835C0.100656 8.90222 0.111427 8.88916 0.138011 8.88916C1.72067 8.88733 3.30172 8.8871 4.88117 8.88847C5.41949 8.88916 5.59618 8.5839 5.909 8.22571C6.66458 7.35875 6.89627 8.89053 7.59753 8.89053C10.0029 8.8887 12.4049 8.88801 14.8034 8.88847C14.8277 8.88847 14.8375 8.90016 14.8329 8.92354C14.7142 9.54551 14.5194 10.1425 14.2485 10.7145C14.2334 10.7466 14.208 10.7626 14.1722 10.7626C11.6674 10.7636 9.15498 10.7638 6.63502 10.7633C6.06369 10.7633 5.85056 9.6028 5.21874 9.87437Z" fill="#3072F3"/>
<path id="Vector_4" d="M12.914 12.6592C9.95704 15.7901 4.96913 15.7736 2.01763 12.6496C2.01457 12.6462 2.01254 12.6421 2.01179 12.6376C2.01105 12.6331 2.01162 12.6285 2.01344 12.6244C2.01527 12.6202 2.01826 12.6167 2.02205 12.6142C2.02585 12.6117 2.03029 12.6104 2.03482 12.6104C2.47689 12.6056 2.72234 12.2254 2.98703 11.9249C3.25585 11.6197 3.49991 11.5949 3.76873 11.9002C4.02311 12.1876 4.29193 12.6276 4.70994 12.6255C7.43983 12.6136 10.1677 12.609 12.8934 12.6117C12.8989 12.6117 12.9043 12.6133 12.9089 12.6164C12.9135 12.6194 12.9171 12.6237 12.9193 12.6287C12.9215 12.6337 12.9222 12.6393 12.9212 12.6447C12.9203 12.6501 12.9178 12.6552 12.914 12.6592Z" fill="#3072F3"/>
</g>
</svg>
