<svg width="15" height="15" viewBox="0 0 15 15" fill="none" xmlns="http://www.w3.org/2000/svg">
<g id="Group 64309">
<g id="Group">
<g id="Group_2">
<path id="Vector" d="M14.4511 4.67822C14.0856 3.77365 13.5362 2.92557 12.8047 2.19425C12.0734 1.46284 11.2253 0.913415 10.3208 0.547903C9.41609 0.182273 8.45498 0 7.49428 0C6.53493 0 5.57555 0.183064 4.67274 0.549104C3.77005 0.914997 2.92398 1.46434 2.19419 2.19425C1.46431 2.92401 0.914939 3.77008 0.549045 4.6728C0.183064 5.57555 0 6.5349 0 7.49425C0 8.45495 0.182273 9.41606 0.547844 10.3208C0.913357 11.2253 1.46275 12.0735 2.19419 12.8048C2.92551 13.5362 3.77359 14.0856 4.67816 14.4511C5.58285 14.8167 6.54396 14.999 7.50465 14.999C8.464 14.999 9.42338 14.8159 10.3262 14.4499C11.2289 14.084 12.075 13.5347 12.8047 12.8047C13.5347 12.075 14.084 11.2289 14.4499 10.3262C14.8159 9.42341 14.999 8.46406 14.999 7.50465C14.999 6.54401 14.8167 5.58288 14.4511 4.67822ZM13.5229 9.95034C13.2058 10.732 12.7313 11.4634 12.0974 12.0974C11.4634 12.7314 10.732 13.2059 9.95034 13.5229C9.16878 13.8398 8.33683 13.9987 7.50468 13.9987C6.67045 13.9987 5.83643 13.8403 5.05305 13.5237C4.26959 13.2069 3.53675 12.7325 2.9016 12.0975C2.26652 11.4623 1.79209 10.7295 1.47538 9.94597C1.15876 9.1626 1.00039 8.32854 1.00042 7.49431C1.00042 6.66216 1.15932 5.83024 1.4762 5.04869C1.7932 4.26701 2.26769 3.53566 2.90166 2.90163C3.53569 2.26769 4.26704 1.7932 5.04874 1.47617C5.8303 1.15926 6.66225 1.00039 7.4944 1.00039C8.32863 1.00039 9.16266 1.15873 9.94603 1.47538C10.7295 1.79215 11.4623 2.26655 12.0975 2.9016C12.7326 3.53677 13.207 4.26959 13.5237 5.05305C13.8403 5.83643 13.9987 6.67045 13.9987 7.50468C13.9987 8.3368 13.8398 9.16872 13.5229 9.95034Z" fill="#697F9B"/>
</g>
</g>
<g id="Group_3">
<g id="Group_4">
<path id="Vector_2" d="M10.6148 4.38748C10.4237 4.19636 10.1138 4.19636 9.92265 4.38748L4.38553 9.9246C4.19441 10.1157 4.19441 10.4256 4.38553 10.6168C4.57668 10.8079 4.88653 10.8079 5.07768 10.6168L10.6148 5.0796C10.8059 4.88848 10.8059 4.57857 10.6148 4.38748Z" fill="#697F9B"/>
</g>
</g>
<g id="Group_5">
<g id="Group_6">
<path id="Vector_3" d="M7.22943 4.00977C7.15772 3.83271 7.04938 3.66617 6.90692 3.5238C6.76458 3.38134 6.59804 3.27303 6.42095 3.20129C6.24377 3.12949 6.05614 3.09375 5.86868 3.09375C5.68122 3.09375 5.49359 3.12949 5.31641 3.20129C5.13935 3.27301 4.97281 3.38134 4.83044 3.5238C4.68798 3.66611 4.57968 3.83268 4.50793 4.00977C4.43613 4.18695 4.40039 4.37458 4.40039 4.56204C4.40039 4.7495 4.43613 4.93713 4.50793 5.11431C4.57965 5.29137 4.68801 5.45791 4.83044 5.60028C4.97278 5.74274 5.13933 5.85105 5.31641 5.92279C5.49359 5.99459 5.68122 6.03033 5.86868 6.03033C6.05614 6.03033 6.24377 5.99459 6.42095 5.92279C6.59801 5.85107 6.76455 5.74274 6.90692 5.60028C7.04938 5.45794 7.15769 5.2914 7.22943 5.11431C7.30123 4.93713 7.33697 4.7495 7.33697 4.56204C7.33697 4.37458 7.30126 4.18695 7.22943 4.00977ZM6.32231 4.74645C6.29847 4.80504 6.26346 4.85932 6.21477 4.90813C6.16599 4.95682 6.11171 4.99183 6.05312 5.01567C5.99462 5.03943 5.93175 5.05147 5.86871 5.05147C5.80564 5.05147 5.7428 5.0394 5.6843 5.01567C5.62571 4.99183 5.57143 4.95682 5.52265 4.90813C5.47396 4.85935 5.43895 4.80507 5.41511 4.74648C5.39135 4.68798 5.37931 4.62511 5.37931 4.56207C5.37928 4.499 5.39135 4.43613 5.41508 4.37763C5.43892 4.31904 5.47393 4.26476 5.52262 4.21598C5.57143 4.16729 5.62568 4.13225 5.6843 4.10844C5.7428 4.08468 5.80567 4.07264 5.86871 4.07264C5.93178 4.07264 5.99462 4.08471 6.05312 4.10844C6.11171 4.13228 6.16599 4.16729 6.21477 4.21598C6.26346 4.26476 6.29847 4.31904 6.32231 4.37763C6.34607 4.43613 6.35811 4.499 6.35811 4.56204C6.35811 4.62508 6.34604 4.68795 6.32231 4.74645Z" fill="#697F9B"/>
</g>
</g>
<g id="Group_7">
<g id="Group_8">
<path id="Vector_4" d="M10.8173 9.56446C10.7456 9.3874 10.6372 9.22086 10.4948 9.07849C10.3525 8.93603 10.1859 8.82772 10.0088 8.75598C9.83166 8.68418 9.64403 8.64844 9.45657 8.64844C9.26911 8.64844 9.08148 8.68418 8.9043 8.75598C8.72724 8.82769 8.5607 8.93603 8.41833 9.07849C8.27587 9.2208 8.16757 9.38737 8.09582 9.56446C8.02402 9.74164 7.98828 9.92927 7.98828 10.1167C7.98828 10.3042 8.02402 10.4918 8.09582 10.669C8.16754 10.8461 8.27587 11.0126 8.41833 11.155C8.56067 11.2974 8.72722 11.4057 8.9043 11.4775C9.08148 11.5493 9.26911 11.585 9.45657 11.585C9.64403 11.585 9.83166 11.5493 10.0088 11.4775C10.1859 11.4058 10.3524 11.2974 10.4948 11.155C10.6373 11.0126 10.7456 10.8461 10.8173 10.669C10.8891 10.4918 10.9249 10.3042 10.9249 10.1167C10.9249 9.92927 10.8892 9.74164 10.8173 9.56446ZM9.91023 10.3011C9.88639 10.3597 9.85138 10.414 9.80269 10.4627C9.75392 10.5114 9.69963 10.5464 9.64104 10.5703C9.58254 10.594 9.51967 10.6061 9.45663 10.6061C9.39356 10.6061 9.33072 10.594 9.27222 10.5703C9.21363 10.5464 9.15935 10.5114 9.11057 10.4627C9.06188 10.414 9.02687 10.3597 9.00303 10.3011C8.97927 10.2426 8.9672 10.1797 8.96723 10.1167C8.96723 10.0536 8.9793 9.99076 9.00303 9.93226C9.02687 9.87367 9.06188 9.81938 9.11057 9.77061C9.15935 9.72192 9.21363 9.68691 9.27225 9.66307C9.33075 9.63931 9.39362 9.62727 9.45666 9.62727C9.51973 9.62727 9.58257 9.63934 9.64107 9.66307C9.6996 9.68691 9.75386 9.72192 9.80269 9.77061C9.85138 9.81938 9.88639 9.87367 9.91023 9.93226C9.93399 9.99076 9.94603 10.0536 9.94603 10.1167C9.94603 10.1797 9.93396 10.2426 9.91023 10.3011Z" fill="#697F9B"/>
</g>
</g>
</g>
</svg>
