<svg width="25" height="25" viewBox="0 0 25 25" fill="none" xmlns="http://www.w3.org/2000/svg">
<g id="Group 64050">
<path id="Vector" d="M12.5 24C18.8513 24 24 18.8513 24 12.5C24 6.14873 18.8513 1 12.5 1C6.14873 1 1 6.14873 1 12.5C1 18.8513 6.14873 24 12.5 24Z" stroke="#7F97B5"/>
<path id="Icon ionic-ios-arrow-down" d="M12.3756 11.5061L15.6826 14.8161C15.7404 14.8744 15.8092 14.9206 15.885 14.9522C15.9607 14.9838 16.042 15 16.1241 15C16.2062 15 16.2874 14.9838 16.3632 14.9522C16.439 14.9206 16.5078 14.8744 16.5656 14.8161C16.6819 14.6982 16.7471 14.5393 16.7471 14.3736C16.7471 14.208 16.6819 14.049 16.5656 13.9311L12.8136 10.1811C12.6998 10.0678 12.5467 10.0027 12.3862 9.99932C12.2256 9.99597 12.07 10.0546 11.9516 10.1631L8.18358 13.9281C8.12547 13.9861 8.07935 14.055 8.04785 14.1308C8.01635 14.2066 8.00009 14.2878 8 14.3699C7.99991 14.452 8.01598 14.5333 8.04731 14.6092C8.07864 14.6851 8.1246 14.754 8.18258 14.8121C8.24056 14.8702 8.30942 14.9164 8.38522 14.9479C8.46102 14.9794 8.54229 14.9956 8.62438 14.9957C8.70646 14.9958 8.78776 14.9797 8.86364 14.9484C8.93951 14.9171 9.00847 14.8711 9.06658 14.8131L12.3756 11.5061Z" fill="#697F9B"/>
</g>
</svg>
