<svg width="6" height="11" viewBox="0 0 6 11" fill="none" xmlns="http://www.w3.org/2000/svg">
<path d="M5.29429 10.9998C5.43186 11.0034 5.56695 10.9563 5.68078 10.8649C5.79462 10.7735 5.88154 10.6425 5.92946 10.4901C5.97739 10.3376 5.98393 10.1713 5.94819 10.0143C5.91245 9.85728 5.83619 9.71737 5.73002 9.61392L1.67913 5.51265L5.73002 1.41282C5.80346 1.34903 5.86497 1.26805 5.91069 1.17486C5.9564 1.08168 5.98535 0.978314 5.99571 0.871299C6.00607 0.764282 5.99762 0.655914 5.97089 0.552936C5.94416 0.449957 5.89973 0.354579 5.84038 0.272834C5.78103 0.191089 5.70803 0.12478 5.62597 0.0779181C5.5439 0.0310564 5.45453 0.00473599 5.36346 0.000582751C5.27238 -0.00356954 5.18156 0.0144845 5.09668 0.0537339C5.0118 0.0929833 4.9347 0.152519 4.87019 0.228617L0.232291 4.91825C0.159459 4.9917 0.100974 5.08287 0.0608701 5.18562C0.0207667 5.28838 -4.89549e-07 5.40022 -4.79656e-07 5.51337C-4.69764e-07 5.62653 0.0207668 5.73837 0.0608702 5.84112C0.100974 5.94387 0.159459 6.03513 0.232291 6.10859L4.87019 10.8027C4.98735 10.9257 5.13763 10.9955 5.29429 10.9998Z" fill="#B6C3E5"/>
</svg>
