<svg width="6" height="11" viewBox="0 0 6 11" fill="none" xmlns="http://www.w3.org/2000/svg">
<path d="M0.705711 0.000189413C0.568144 -0.00338637 0.433053 0.0437426 0.319218 0.135097C0.205383 0.226451 0.11846 0.357515 0.070536 0.509949C0.0226117 0.662384 0.0160665 0.828655 0.0518101 0.985689C0.0875538 1.14272 0.16381 1.28263 0.269978 1.38608L4.32087 5.48735L0.269978 9.58718C0.196536 9.65097 0.135031 9.73195 0.0893133 9.82514C0.0435956 9.91832 0.0146507 10.0217 0.00429086 10.1287C-0.00606902 10.2357 0.00237956 10.3441 0.0291074 10.4471C0.0558353 10.55 0.100266 10.6454 0.159619 10.7272C0.218971 10.8089 0.291966 10.8752 0.374032 10.9221C0.456098 10.9689 0.545468 10.9953 0.636544 10.9994C0.72762 11.0036 0.81844 10.9855 0.903317 10.9463C0.988195 10.907 1.0653 10.8475 1.12981 10.7714L5.76771 6.08175C5.84054 6.0083 5.89903 5.91713 5.93913 5.81438C5.97923 5.71162 6 5.59978 6 5.48663C6 5.37347 5.97923 5.26163 5.93913 5.15888C5.89903 5.05613 5.84054 4.96487 5.76771 4.89141L1.12981 0.197271C1.01265 0.0742862 0.862371 0.00454659 0.705711 0.000189413Z" fill="#B6C3E5"/>
</svg>
