<svg width="25" height="25" viewBox="0 0 25 25" fill="none" xmlns="http://www.w3.org/2000/svg">
<g id="Group 64050">
<path id="Vector" d="M12.5 24C18.8513 24 24 18.8513 24 12.5C24 6.14873 18.8513 1 12.5 1C6.14873 1 1 6.14873 1 12.5C1 18.8513 6.14873 24 12.5 24Z" stroke="#7F97B5"/>
<path id="Icon ionic-ios-arrow-down" d="M12.3744 13.4939L9.06742 10.1839C9.0096 10.1256 8.94082 10.0794 8.86505 10.0478C8.78927 10.0162 8.708 10 8.62592 10C8.54383 10 8.46256 10.0162 8.38679 10.0478C8.31102 10.0794 8.24224 10.1256 8.18442 10.1839C8.06808 10.3018 8.00285 10.4607 8.00285 10.6264C8.00285 10.792 8.06808 10.951 8.18442 11.0689L11.9364 14.8189C12.0502 14.9322 12.2033 14.9973 12.3638 15.0007C12.5244 15.004 12.68 14.9454 12.7984 14.8369L16.5664 11.0719C16.6245 11.0139 16.6706 10.945 16.7021 10.8692C16.7336 10.7934 16.7499 10.7122 16.75 10.6301C16.7501 10.548 16.734 10.4667 16.7027 10.3908C16.6714 10.3149 16.6254 10.246 16.5674 10.1879C16.5094 10.1298 16.4406 10.0836 16.3648 10.0521C16.289 10.0206 16.2077 10.0044 16.1256 10.0043C16.0435 10.0042 15.9622 10.0203 15.8864 10.0516C15.8105 10.0829 15.7415 10.1289 15.6834 10.1869L12.3744 13.4939Z" fill="#697F9B"/>
</g>
</svg>
