<svg width="61" height="61" viewBox="0 0 61 61" fill="none" xmlns="http://www.w3.org/2000/svg">
<circle cx="30.5" cy="30.5" r="30" stroke=""/>
<path d="M24.408 25.7578H19.7552C19.3553 25.7578 19.0312 26.0821 19.0312 26.4818V41.9914C19.0312 42.3913 19.3553 42.7154 19.7552 42.7154H24.408C24.8079 42.7154 25.132 42.3913 25.132 41.9914V26.4818C25.132 26.0821 24.8079 25.7578 24.408 25.7578ZM23.684 41.2675H20.4792V27.2058H23.684V41.2675Z" fill="#2966FF"/>
<path d="M22.0818 18C20.3997 18 19.0312 19.3684 19.0312 21.0502C19.0312 22.7323 20.3997 24.1006 22.0818 24.1006C23.7638 24.1006 25.132 22.7322 25.132 21.0502C25.132 19.3684 23.7638 18 22.0818 18ZM22.0818 22.6526C21.1981 22.6526 20.4792 21.9339 20.4792 21.0502C20.4792 20.1667 21.1981 19.448 22.0818 19.448C22.9653 19.448 23.684 20.1667 23.684 21.0502C23.684 21.9339 22.9653 22.6526 22.0818 22.6526Z" fill="#2966FF"/>
<path d="M36.04 25.6484C34.9395 25.6484 33.8548 25.9137 32.8835 26.4099C32.8505 26.0406 32.5403 25.7508 32.1623 25.7508H27.5091C27.1094 25.7508 26.7852 26.0751 26.7852 26.4748V41.9844C26.7852 42.3843 27.1094 42.7084 27.5091 42.7084H32.1623C32.5622 42.7084 32.8863 42.3843 32.8863 41.9844V33.4542C32.8863 32.3569 33.7792 31.4641 34.8765 31.4641C35.9738 31.4641 36.8664 32.3569 36.8664 33.4542V41.9844C36.8664 42.3843 37.1907 42.7084 37.5904 42.7084H42.2433C42.6432 42.7084 42.9673 42.3843 42.9673 41.9844V32.5758C42.9673 28.7559 39.8598 25.6484 36.04 25.6484ZM41.5193 41.2605H38.3145V33.4542C38.3145 31.5584 36.7723 30.0161 34.8767 30.0161C32.9808 30.0161 31.4383 31.5584 31.4383 33.4542V41.2605H28.2333V27.1988H31.4383V27.7337C31.4383 28.0122 31.598 28.2659 31.8491 28.3864C32.1001 28.5069 32.398 28.4726 32.6154 28.2985C33.5958 27.5122 34.7802 27.0964 36.04 27.0964C39.0613 27.0964 41.5193 29.5544 41.5193 32.5758V41.2605Z" fill="#2966FF"/>
</svg>
