<svg width="17" height="17" viewBox="0 0 17 17" fill="none" xmlns="http://www.w3.org/2000/svg">
<g id="Group 58746">
<g id="_x33_9_Token">
<g id="Group">
<path id="Vector" d="M15.514 11.4272L15.5141 11.4271C15.6087 11.1998 15.5013 10.9385 15.2741 10.8437L15.2739 10.8436C15.0457 10.7491 14.7854 10.8563 14.6904 11.0835L14.6904 11.0836C13.6449 13.589 11.2151 15.2077 8.50002 15.2077C4.80141 15.2077 1.79231 12.1985 1.79231 8.50002C1.79231 4.8015 4.80141 1.79231 8.50002 1.79231C12.1986 1.79231 15.2077 4.80153 15.2077 8.50002C15.2077 8.84465 15.1815 9.18721 15.1298 9.5182L15.1298 9.51829C15.092 9.76159 15.2584 9.98978 15.5019 10.0277L15.502 10.0277C15.7445 10.0653 15.9733 9.89933 16.0116 9.65578L16.0116 9.65565C16.0703 9.27915 16.1 8.89029 16.1 8.50002C16.1 4.3093 12.6908 0.9 8.50002 0.9C4.30921 0.9 0.9 4.3093 0.9 8.50002C0.9 12.6907 4.30921 16.1 8.50002 16.1C11.576 16.1 14.3293 14.2657 15.514 11.4272Z" fill="#8393BA" stroke="#8393BA" stroke-width="0.2"/>
<path id="Vector_2" d="M8.49956 3.15C5.54977 3.15 3.15 5.55048 3.15 8.50112C3.15 11.451 5.5498 13.8507 8.49956 13.8507C11.4502 13.8507 13.8505 11.451 13.8505 8.50112C13.8505 5.55049 11.4502 3.15 8.49956 3.15ZM8.49956 12.9584C6.04203 12.9584 4.04231 10.9588 4.04231 8.50112C4.04231 6.04254 6.04203 4.04231 8.49956 4.04231C10.958 4.04231 12.9582 6.04256 12.9582 8.50112C12.9582 10.9588 10.9581 12.9584 8.49956 12.9584Z" fill="#8393BA" stroke="#8393BA" stroke-width="0.2"/>
<path id="Vector_3" d="M8.86319 5.87367L8.86322 5.87371L10.5662 8.23514C10.5662 8.23515 10.5663 8.23515 10.5663 8.23516C10.6787 8.39099 10.6787 8.60118 10.5662 8.75702L8.86234 11.1213L8.86231 11.1214C8.68377 11.3688 8.31613 11.3676 8.13853 11.1215L8.13852 11.1215L6.43548 8.76005L6.43548 8.76004L6.51659 8.70154C6.42937 8.58064 6.42937 8.41758 6.51659 8.29668L8.86319 5.87367ZM8.86319 5.87367C8.77592 5.75279 8.63514 5.69677 8.50107 5.69688C8.36703 5.69698 8.22642 5.7532 8.13942 5.87382L8.1394 5.87385L6.43548 8.23818L8.86319 5.87367ZM8.50037 10.0976L7.34745 8.49892L8.50133 6.89759L9.65425 8.49627L8.50037 10.0976Z" fill="#8393BA" stroke="#8393BA" stroke-width="0.2"/>
</g>
</g>
</g>
</svg>
