<svg width="34" height="34" viewBox="0 0 34 34" fill="none" xmlns="http://www.w3.org/2000/svg">
<circle cx="17" cy="17" r="17" fill="#2966FF" fill-opacity="0.1"/>
<circle cx="17" cy="17" r="16.5" stroke="#2966FF" stroke-opacity="0.5"/>
<path d="M12.8812 25.4668C12.5116 25.4668 11.9721 25.2858 10.7737 23.9446C10.1647 23.263 9.66549 22.5924 9.64455 22.5642C9.63044 22.5452 9.61765 22.5253 9.60616 22.5046C9.37827 22.0944 9.25781 21.6295 9.25781 21.1602V17.7494C9.25781 17.452 9.49888 17.2109 9.7963 17.2109H14.1521C14.7759 17.2109 15.3643 17.4519 15.809 17.8895L18.0393 20.0842C18.3539 20.3987 18.5254 20.8129 18.5254 21.2534C18.5254 21.694 18.3539 22.1081 18.0424 22.4196C17.3956 23.0662 16.3494 23.0662 15.7063 22.4232L13.4784 20.1952C13.2571 20.1936 12.8975 20.1919 12.6103 20.1906L12.2042 20.1887C11.9069 20.1871 11.667 19.9448 11.6686 19.6474C11.6701 19.351 11.9109 19.1117 12.207 19.1117C12.208 19.1117 12.2089 19.1117 12.2098 19.1117L12.6152 19.1137C12.87 19.1148 13.1426 19.1161 13.3519 19.1174C13.4575 19.1181 13.5471 19.1187 13.6105 19.1195C13.7672 19.1213 13.9293 19.1231 14.0855 19.2793L16.4679 21.6617C16.691 21.8849 17.0542 21.8849 17.2772 21.6617C17.3889 21.55 17.4485 21.4063 17.4485 21.2534C17.4485 21.1005 17.389 20.9568 17.2809 20.8487L15.0536 18.6571C14.8117 18.419 14.4915 18.2879 14.152 18.2879H10.3348V21.1602C10.3348 21.4355 10.4026 21.7084 10.5312 21.9515C10.6294 22.0817 11.041 22.6217 11.5245 23.1682C12.4805 24.2489 12.8458 24.3769 12.8943 24.3898L18.7164 24.3887C19.1133 24.3887 19.5758 24.1809 20.0156 23.9681C20.3868 23.7885 23.1427 21.9191 24.7927 20.783C24.8017 20.7768 24.8109 20.7709 24.8203 20.7652C25.1279 20.5799 25.2275 20.1786 25.0422 19.8709C24.9525 19.7218 24.81 19.6167 24.6411 19.5747C24.4753 19.5336 24.3037 19.5581 24.1565 19.6438L20.1344 22.3112C19.8866 22.4755 19.5524 22.4079 19.388 22.1601C19.2237 21.9122 19.2914 21.5781 19.5392 21.4137L23.5725 18.7389C23.5791 18.7345 23.5856 18.7303 23.5924 18.7264C24.4089 18.2346 25.4731 18.4989 25.9648 19.3153C26.4534 20.1267 26.1955 21.1828 25.3912 21.6785C24.8923 22.0219 21.0469 24.6654 20.4847 24.9375C19.9325 25.2047 19.3411 25.4657 18.7165 25.4657L12.8815 25.4668C12.8814 25.4668 12.8812 25.4668 12.8812 25.4668Z" fill="#2966FF"/>
<path d="M10.6967 17.0879H7.53906V24.2022H10.6967V17.0879Z" fill="#000"/>
<path d="M10.6961 24.741H7.53874C7.24135 24.741 7.00024 24.5 7.00024 24.2026V17.0884C7.00024 16.791 7.24131 16.5499 7.53874 16.5499H10.6961C10.9935 16.5499 11.2346 16.791 11.2346 17.0884V24.2026C11.2346 24.4999 10.9935 24.741 10.6961 24.741ZM8.07719 23.6641H10.1576V17.6269H8.07719V23.6641Z" fill="#2966FF"/>
<path d="M17.2457 16.0382C15.0296 16.0382 13.2266 14.2353 13.2266 12.0191C13.2266 9.80292 15.0295 8 17.2457 8C19.4618 8 21.2648 9.80295 21.2648 12.0191C21.2648 14.2352 19.4618 16.0382 17.2457 16.0382ZM17.2457 9.07702C15.6234 9.07702 14.3035 10.3968 14.3035 12.0191C14.3035 13.6414 15.6234 14.9613 17.2457 14.9613C18.868 14.9613 20.1878 13.6414 20.1878 12.0191C20.1878 10.3968 18.8679 9.07702 17.2457 9.07702Z" fill="#2966FF"/>
<path d="M20.094 18.1831C22.0163 18.1831 23.5747 16.6247 23.5747 14.7024C23.5747 12.7801 22.0163 11.2217 20.094 11.2217C18.1717 11.2217 16.6133 12.7801 16.6133 14.7024C16.6133 16.6247 18.1717 18.1831 20.094 18.1831Z" fill="#000"/>
<path d="M20.0933 18.7218C17.8772 18.7218 16.0742 16.9188 16.0742 14.7027C16.0742 12.4865 17.8772 10.6836 20.0933 10.6836C22.3095 10.6836 24.1124 12.4865 24.1124 14.7027C24.1124 16.9189 22.3094 18.7218 20.0933 18.7218ZM20.0933 11.7605C18.4711 11.7605 17.1512 13.0804 17.1512 14.7027C17.1512 16.325 18.471 17.6448 20.0933 17.6448C21.7156 17.6448 23.0354 16.325 23.0354 14.7027C23.0354 13.0804 21.7156 11.7605 20.0933 11.7605Z" fill="#2966FF"/>
<path d="M19.9601 16.4392C19.378 16.4198 18.9026 16.1191 18.9026 15.8086C18.9026 15.6437 19.0481 15.4012 19.2325 15.4012C19.4362 15.4012 19.6012 15.6874 19.9601 15.7504V14.9645C19.5138 14.7948 18.9899 14.5862 18.9899 13.9652C18.9899 13.3492 19.4459 13.0532 19.9601 12.9805V12.8446C19.9601 12.7768 20.0377 12.7137 20.1445 12.7137C20.2366 12.7137 20.3288 12.7767 20.3288 12.8446V12.9659C20.6295 12.9756 21.1971 13.0533 21.1971 13.3879C21.1971 13.5189 21.1098 13.7858 20.8963 13.7858C20.7362 13.7858 20.644 13.6305 20.3287 13.6063V14.3146C20.7702 14.4795 21.2844 14.7075 21.2844 15.3624C21.2844 15.9639 20.8963 16.3278 20.3287 16.4199V16.5606C20.3287 16.6285 20.2365 16.6916 20.1444 16.6916C20.0377 16.6916 19.9601 16.6285 19.9601 16.5606V16.4392ZM20.0086 14.198V13.6207C19.7903 13.6644 19.6981 13.776 19.6981 13.8924C19.6982 14.0331 19.8243 14.1204 20.0086 14.198ZM20.2803 15.0954V15.7455C20.4452 15.7066 20.5762 15.6145 20.5762 15.4398C20.5762 15.2798 20.4549 15.1779 20.2803 15.0954Z" fill="#2966FF"/>
</svg>
