<svg width="12" height="12" viewBox="0 0 12 12" fill="none" xmlns="http://www.w3.org/2000/svg">
<g id="Group">
<path id="Vector" d="M6.41729 5.44204C6.41729 5.21086 6.22986 5.02344 5.99868 5.02344C5.7675 5.02344 5.58008 5.21086 5.58008 5.44204V8.79088C5.58008 9.02206 5.7675 9.20948 5.99868 9.20948C6.22986 9.20948 6.41729 9.02206 6.41729 8.79088V5.44204Z" fill="#8393BA"/>
<path id="Vector_2" fill-rule="evenodd" clip-rule="evenodd" d="M6 0C2.68629 0 0 2.68629 0 6C0 9.31373 2.68629 12 6 12C9.31373 12 12 9.31373 12 6C12 2.68629 9.31373 0 6 0ZM0.837209 6C0.837209 3.14867 3.14867 0.837209 6 0.837209C8.85131 0.837209 11.1628 3.14867 11.1628 6C11.1628 8.85131 8.85131 11.1628 6 11.1628C3.14867 11.1628 0.837209 8.85131 0.837209 6Z" fill="#8393BA"/>
<path id="Vector_3" d="M6.55866 3.76712C6.55866 4.07537 6.30878 4.32526 6.00052 4.32526C5.69226 4.32526 5.44238 4.07537 5.44238 3.76712C5.44238 3.45887 5.69226 3.20898 6.00052 3.20898C6.30878 3.20898 6.55866 3.45887 6.55866 3.76712Z" fill="#8393BA"/>
</g>
</svg>
