<svg width="41" height="41" viewBox="0 0 41 41" fill="none" xmlns="http://www.w3.org/2000/svg">
<g id="Group">
<path id="Vector" d="M36.3591 0H30.7241C28.2899 0 26.8333 1.45667 26.8333 3.89083V9.52583C26.8333 11.96 28.2899 13.4167 30.7241 13.4167H36.3591C38.7933 13.4167 40.2499 11.96 40.2499 9.52583V3.89083C40.2499 1.45667 38.7933 0 36.3591 0ZM36.7808 6.34417C36.5508 6.57417 36.2441 6.68917 35.9374 6.68917C35.6308 6.68917 35.3241 6.57417 35.0941 6.34417L34.7491 5.99917V10.2925C34.7491 10.9633 34.2124 11.5 33.5416 11.5C32.8708 11.5 32.3341 10.9633 32.3341 10.2925V5.99917L31.9891 6.34417C31.5291 6.80417 30.7624 6.80417 30.3024 6.34417C29.8424 5.88417 29.8424 5.1175 30.3024 4.6575L32.6983 2.26167C32.7941 2.16583 32.9283 2.08917 33.0624 2.03167C33.1008 2.0125 33.1391 2.0125 33.1774 1.99333C33.2733 1.955 33.3691 1.93583 33.4841 1.93583H33.5991C33.7333 1.93583 33.8483 1.955 33.9824 2.0125H34.0208C34.1549 2.07 34.2699 2.14667 34.3658 2.2425C34.3849 2.26167 34.3849 2.26167 34.4041 2.26167L36.7999 4.6575C37.2599 5.1175 37.2599 5.88417 36.7808 6.34417Z" fill="#424453"/>
<path id="Vector_2" d="M13.4169 17.9783C15.9363 17.9783 17.9785 15.936 17.9785 13.4166C17.9785 10.8973 15.9363 8.85498 13.4169 8.85498C10.8975 8.85498 8.85522 10.8973 8.85522 13.4166C8.85522 15.936 10.8975 17.9783 13.4169 17.9783Z" fill="#424453"/>
<path id="Vector_3" d="M36.3592 13.4167H35.4583V22.2526L35.2092 22.0417C33.7142 20.7576 31.2992 20.7576 29.8042 22.0417L21.8308 28.8842C20.3358 30.1684 17.9208 30.1684 16.4258 28.8842L15.7742 28.3476C14.4133 27.1592 12.2475 27.0442 10.7142 28.0792L3.54583 32.8901C3.12417 31.8167 2.875 30.5709 2.875 29.1143V13.0526C2.875 7.64758 5.73083 4.79175 11.1358 4.79175H26.8333V3.89091C26.8333 3.12425 26.9675 2.47258 27.2742 1.91675H11.1358C4.15917 1.91675 0 6.07591 0 13.0526V29.1143C0 31.2034 0.364167 33.0243 1.07333 34.5576C2.72167 38.1992 6.24833 40.2501 11.1358 40.2501H27.1975C34.1742 40.2501 38.3333 36.0909 38.3333 29.1143V12.9759C37.7775 13.2826 37.1258 13.4167 36.3592 13.4167Z" fill="#424453"/>
</g>
</svg>
