<svg width="23" height="22" viewBox="0 0 23 22" fill="none" xmlns="http://www.w3.org/2000/svg">
<g id="Group 64664">
<circle id="Ellipse 925" cx="11.0898" cy="10.9922" r="10.9922" fill="white"/>
<g id="Group 64663">
<path id="Vector" d="M8.62647 4.68067C8.79113 4.51602 9.01066 4.40625 9.2302 4.40625H10.8218C11.0414 4.40625 11.1512 4.62579 10.9865 4.79044L7.85809 8.19327H9.61439L11.3707 10.0593H7.85809L11.3707 13.8463H9.2302C9.01066 13.8463 8.73624 13.7366 8.57159 13.5719L5.00411 9.73002C4.72969 9.40072 4.72969 8.85188 5.059 8.52257L8.62647 4.68067Z" fill="black"/>
<path id="Vector_2" d="M13.5113 17.3063C13.3467 17.471 13.1271 17.5807 12.8527 17.5807H11.261C11.0415 17.5807 10.9317 17.3612 11.0964 17.1965L14.2797 13.7937H12.5234L10.7671 11.9276H14.2797L10.7671 8.14062H12.9076C13.1271 8.14062 13.4015 8.25039 13.5662 8.41505L17.1337 12.2569C17.463 12.5863 17.463 13.1351 17.1337 13.4644L13.5113 17.3063Z" fill="black"/>
</g>
</g>
</svg>
