<svg width="23" height="22" viewBox="0 0 23 22" fill="none" xmlns="http://www.w3.org/2000/svg">
<circle cx="11.0898" cy="10.9922" r="10.9922" fill="#00E4FF"/>
<path d="M8.62647 4.68067C8.79113 4.51602 9.01066 4.40625 9.2302 4.40625H10.8218C11.0414 4.40625 11.1512 4.62579 10.9865 4.79044L7.85809 8.19327H9.61439L11.3707 10.0593H7.85809L11.3707 13.8463H9.2302C9.01066 13.8463 8.73624 13.7366 8.57159 13.5719L5.00411 9.73002C4.72969 9.40072 4.72969 8.85188 5.059 8.52257L8.62647 4.68067Z" fill="black"/>
<path d="M13.5098 17.3043C13.3452 17.469 13.1256 17.5788 12.8512 17.5788H11.2596C11.04 17.5788 10.9303 17.3592 11.0949 17.1946L14.2782 13.7918H12.5219L10.7656 11.9257H14.2782L10.7656 8.13867H12.9061C13.1256 8.13867 13.4001 8.24844 13.5647 8.41309L17.1322 12.255C17.4615 12.5843 17.4615 13.1331 17.1322 13.4624L13.5098 17.3043Z" fill="black"/>
</svg>
