<svg xmlns="http://www.w3.org/2000/svg" width="254.206" height="37.563" viewBox="0 0 254.206 37.563">
  <g id="Group_1049" data-name="Group 1049" transform="translate(-7412.879 -1658.997)">
    <g id="Group_1048" data-name="Group 1048" transform="translate(7480.895 1668.021)">
      <path id="Path_92" data-name="Path 92" d="M21.279,764.5v7.086H5.32V764.5H0v19.513H5.32v-7.086H21.279v7.086H26.6V764.5Z" transform="translate(0 -764.5)" fill="#3a408f"/>
      <path id="Path_93" data-name="Path 93" d="M542.12,821.5H536.8v7.086h5.32Z" transform="translate(-419.766 -809.073)" fill="#3a408f"/>
      <path id="Path_94" data-name="Path 94" d="M465.8,764.5h-5.32v7.086H444.52V764.5H439.2v19.513h5.32v-7.086h15.959l5.32-5.32Z" transform="translate(-343.445 -764.5)" fill="#3a408f"/>
      <path id="Path_95" data-name="Path 95" d="M169.445,764.5H146.4v19.513h5.32v-7.086h15.959v7.086H173V764.5Zm-17.725,7.108v-1.766h15.959v1.766Z" transform="translate(-114.482 -764.5)" fill="#3a408f"/>
      <path id="Path_96" data-name="Path 96" d="M319.4,769.82V764.5H292.8v19.513h26.6v-5.32H298.12V769.82Z" transform="translate(-228.963 -764.5)" fill="#3a408f"/>
      <path id="Path_97" data-name="Path 97" d="M612.2,769.82V764.5H585.6v19.513h26.6v-5.32H590.92v-1.766H612.2v-5.32H590.92v-1.766H612.2Z" transform="translate(-457.926 -764.5)" fill="#3a408f"/>
      <path id="Path_98" data-name="Path 98" d="M753.279,764.5v12.406L737.32,764.5H732v19.513h5.32V771.607l15.959,12.405h5.32V764.5Z" transform="translate(-572.407 -764.5)" fill="#3a408f"/>
    </g>
    <path id="Path_91" data-name="Path 91" d="M47.8,0V10.242H44.387V0H40.975V10.242H37.563V0H34.151V10.242H17.072V0H13.66V13.654H47.8v3.412H10.242V0H6.83V17.072H3.412V0H0V37.557H3.412V27.314H6.824V37.557h3.412V27.314h3.412V37.557H17.06V27.314H34.133V37.557h3.412V23.9H3.412V20.49H40.963V37.563h3.412V20.484h3.412V37.557h3.424V0Z" transform="translate(7412.879 1658.997)" fill="#3a408f"/>
  </g>
</svg>
