<svg width="190" height="21" viewBox="0 0 190 21" fill="none" xmlns="http://www.w3.org/2000/svg">
<path d="M22.4206 0.805054V8.0054H6.20316V0.805054H0.797363V20.6337H6.20316V13.4334H22.4206V20.6337H27.8264V0.805054H22.4206Z" fill="#3A408F"/>
<path d="M125.131 13.4337H119.725V20.634H125.131V13.4337Z" fill="#3A408F"/>
<path d="M125.131 0.805054H119.725V8.0054H103.508V0.805054H98.1017V20.6337H103.508V13.4334H119.725L125.131 8.02755V0.805054Z" fill="#3A408F"/>
<path d="M56.6499 0.805054H33.2321V20.6337H38.6379V13.4334H54.8553V20.6337H60.2611V0.805054H56.6499ZM38.6379 8.02755V6.23301H54.8553V8.02755H38.6379Z" fill="#3A408F"/>
<path d="M92.6959 6.21086V0.805054H71.0727H69.2782H65.6669V20.6337H69.2782H71.0727H92.6959V15.2279H71.0727V6.21086H92.6959Z" fill="#3A408F"/>
<path d="M157.565 6.21086V0.805054H135.942H134.148H130.536V20.6337H134.148H135.942H157.565V15.2279H135.942V13.4334H157.565V8.02755H135.942V6.23301H157.565V6.21086Z" fill="#3A408F"/>
<path d="M184.594 0.805054V13.4112L168.377 0.805054H162.971V20.6337H168.377V8.02755L184.594 20.6337H190V0.805054H184.594Z" fill="#3A408F"/>
</svg>
