<svg width="15" height="18" viewBox="0 0 15 18" fill="none" xmlns="http://www.w3.org/2000/svg">
<path d="M0 15.1413L1.98466 13.0996V4.14457L0 2.08543L2.14238 0L4.47754 2.40525C4.63563 2.54628 4.76222 2.71907 4.84903 2.91232C4.93584 3.10558 4.98094 3.31497 4.98137 3.52683V13.6999C4.97904 14.0917 4.8215 14.4667 4.54325 14.7426L2.13362 17.2267L0 15.1413ZM12.1139 17.2267L9.69987 14.7426C9.42282 14.4658 9.2655 14.0914 9.26175 13.6999V3.54435C9.26107 3.33231 9.30566 3.12257 9.39255 2.92915C9.47944 2.73573 9.60662 2.56309 9.76558 2.42278L12.1007 0.0175233L14.2563 2.08543L12.2716 4.14457V13.0996L14.2563 15.1413L12.1139 17.2267Z" fill="#4D6090"/>
</svg>
