<svg width="14" height="17" viewBox="0 0 14 17" fill="none" xmlns="http://www.w3.org/2000/svg">
<path d="M0.379395 14.7701L2.22273 12.8739V4.55647L0.379395 2.64396L2.36922 0.707031L4.53809 2.94101C4.68493 3.072 4.8025 3.23248 4.88313 3.41197C4.96377 3.59147 5.00565 3.78594 5.00605 3.98272V13.4313C5.00389 13.7953 4.85757 14.1435 4.59913 14.3998L2.36108 16.707L0.379395 14.7701ZM11.6307 16.707L9.38855 14.3998C9.13124 14.1428 8.98511 13.795 8.98163 13.4313V3.999C8.981 3.80206 9.02242 3.60725 9.10312 3.42761C9.18382 3.24796 9.30194 3.08761 9.44959 2.95729L11.6185 0.723307L13.6205 2.64396L11.7772 4.55647V12.8739L13.6205 14.7701L11.6307 16.707Z" fill="white"/>
</svg>
