<svg width="15" height="19" viewBox="0 0 15 19" fill="none" xmlns="http://www.w3.org/2000/svg">
<path d="M0.104309 16.0397L2.08897 13.9981V5.04301L0.104309 2.98386L2.24669 0.898438L4.58185 3.30369C4.73994 3.44472 4.86652 3.6175 4.95334 3.81076C5.04015 4.00402 5.08525 4.2134 5.08568 4.42526V14.5983C5.08335 14.9901 4.92581 15.3651 4.64756 15.641L2.23793 18.1251L0.104309 16.0397ZM12.2182 18.1251L9.80418 15.641C9.52713 15.3643 9.36981 14.9899 9.36606 14.5983V4.44279C9.36538 4.23075 9.40997 4.02101 9.49686 3.82759C9.58375 3.63417 9.71093 3.46153 9.86989 3.32121L12.205 0.915961L14.3606 2.98386L12.3759 5.04301V13.9981L14.3606 16.0397L12.2182 18.1251Z" fill="white"/>
</svg>
