<svg width="16" height="20" viewBox="0 0 16 20" fill="none" xmlns="http://www.w3.org/2000/svg">
<path d="M7.64824 17.1384C7.2845 16.9148 6.84243 16.838 6.41926 16.9249C5.99609 17.0118 5.6265 17.2553 5.39179 17.6019C5.15709 17.9484 5.07649 18.3696 5.16773 18.7727C5.25897 19.1759 5.51457 19.528 5.87831 19.7516C6.24205 19.9752 6.68413 20.052 7.10729 19.9651C7.53046 19.8781 7.90005 19.6346 8.13476 19.2881C8.36947 18.9416 8.45007 18.5204 8.35883 18.1172C8.26759 17.7141 8.01198 17.362 7.64824 17.1384ZM7.46194 18.4548C7.51326 19.2915 5.99657 19.2905 6.05944 18.44C6.00723 17.5923 7.53763 17.6073 7.46194 18.4548ZM13.7964 17.2222C13.456 17.0144 13.043 16.9437 12.648 17.0258C12.2529 17.1078 11.9082 17.3358 11.6895 17.6598C11.4709 17.9838 11.396 18.3772 11.4815 18.7537C11.567 19.1301 11.8058 19.4589 12.1455 19.6677C12.3141 19.771 12.5023 19.8417 12.6995 19.8756C12.8967 19.9096 13.099 19.9062 13.2949 19.8657C13.4907 19.8252 13.6762 19.7483 13.8409 19.6395C14.0055 19.5306 14.1461 19.392 14.2545 19.2314C14.3629 19.0708 14.437 18.8914 14.4727 18.7036C14.5083 18.5157 14.5048 18.323 14.4622 18.1364C14.4197 17.9498 14.339 17.7731 14.2248 17.6162C14.1105 17.4593 13.965 17.3255 13.7964 17.2222ZM13.6257 18.4548C13.6751 19.2369 12.2571 19.237 12.3163 18.44C12.267 17.6486 13.6985 17.6635 13.6257 18.4548ZM15.9183 6.7893C15.8721 6.71939 15.8079 6.66187 15.7318 6.62219C15.6557 6.5825 15.5703 6.56196 15.4836 6.5625H11.8609V5.13266L9.04556 3.44643L6.2354 5.13266V6.5625H4.1402V3.62917C4.13992 3.36772 4.03079 3.11706 3.83674 2.93218C3.64269 2.74731 3.37958 2.64334 3.10515 2.64307H0.517525C0.380269 2.64307 0.248634 2.69502 0.15158 2.78748C0.0545249 2.87995 0 3.00536 0 3.13612C0 3.26689 0.0545249 3.3923 0.15158 3.48476C0.248634 3.57722 0.380269 3.62917 0.517525 3.62917H3.10515C3.10523 5.75986 3.10391 11.2906 3.10439 13.4898C3.10426 13.4928 3.10607 14.4726 3.10515 14.4762C3.10578 14.9991 3.32408 15.5004 3.71216 15.8701C4.10024 16.2399 4.62642 16.4478 5.17525 16.4484H13.4018C13.5373 16.4459 13.6663 16.3928 13.7611 16.3006C13.856 16.2084 13.9091 16.0845 13.9091 15.9554C13.9091 15.8263 13.8559 15.7024 13.7611 15.6102C13.6662 15.518 13.5372 15.4649 13.4018 15.4623H5.17525C4.90082 15.4621 4.63771 15.3581 4.44366 15.1732C4.24961 14.9884 4.14047 14.7377 4.1402 14.4762V13.9828L12.3939 13.9631C12.4927 13.9624 12.5892 13.9352 12.6725 13.8846C12.7558 13.834 12.8225 13.7621 12.8649 13.6772L15.9545 7.25767C15.9898 7.18287 16.0049 7.10088 15.9986 7.01911C15.9923 6.93733 15.9647 6.85837 15.9183 6.7893ZM7.29115 5.6898L9.04556 4.63961L10.8051 5.6898V6.5625H7.29115V5.6898ZM12.0627 12.9771L4.14019 12.9968V7.54857H14.6762L12.0627 12.9771ZM15.4836 3.49574V1.19318L13.5014 0L11.5245 1.19318V3.49571L13.5014 4.68889L15.4836 3.49574ZM12.5803 1.75035L13.5014 1.1932L14.4278 1.75035V2.94352L13.5014 3.50067L12.5803 2.94352V1.75035Z" fill="#4D6090"/>
</svg>
