<svg width="17" height="17" viewBox="0 0 17 17" fill="none" xmlns="http://www.w3.org/2000/svg">
<path d="M9.0923 7.7093C9.0923 7.38179 8.82678 7.11627 8.49927 7.11627C8.17177 7.11627 7.90625 7.38179 7.90625 7.7093V12.4535C7.90625 12.781 8.17177 13.0465 8.49927 13.0465C8.82678 13.0465 9.0923 12.781 9.0923 12.4535V7.7093Z" fill="#6D6D6D"/>
<path fill-rule="evenodd" clip-rule="evenodd" d="M8.5 0C3.80558 0 0 3.80558 0 8.5C0 13.1945 3.80558 17 8.5 17C13.1945 17 17 13.1945 17 8.5C17 3.80558 13.1945 0 8.5 0ZM1.18605 8.5C1.18605 4.46062 4.46062 1.18605 8.5 1.18605C12.5394 1.18605 15.814 4.46062 15.814 8.5C15.814 12.5394 12.5394 15.814 8.5 15.814C4.46062 15.814 1.18605 12.5394 1.18605 8.5Z" fill="#6D6D6D"/>
<path d="M9.28843 5.33721C9.28843 5.77389 8.93443 6.1279 8.49773 6.1279C8.06103 6.1279 7.70703 5.77389 7.70703 5.33721C7.70703 4.90052 8.06103 4.54651 8.49773 4.54651C8.93443 4.54651 9.28843 4.90052 9.28843 5.33721Z" fill="#6D6D6D"/>
</svg>
