<svg width="39" height="39" viewBox="0 0 39 39" fill="none" xmlns="http://www.w3.org/2000/svg">
<circle cx="19.5" cy="19.5" r="18" fill="#30333A" stroke="#0E0E10" stroke-width="3"/>
<path d="M18.5635 13C18.4665 13 18.3756 13.0468 18.3192 13.1257L15.0641 17.6828C15.0225 17.7412 15 17.8112 15 17.8828C15 18.073 15.1541 18.2271 15.3443 18.2271H17.0454V25.2724H18.8635V13.3C18.8635 13.1343 18.7292 13 18.5635 13Z" fill="white"/>
<path d="M21.4367 25.2724C21.5338 25.2724 21.6247 25.2256 21.681 25.1467L24.9362 20.5896C24.9777 20.5311 25.0002 20.4611 25.0002 20.3896C25.0002 20.1993 24.8462 20.0453 24.6559 20.0453H22.9548V13H21.1367V24.9724C21.1367 25.1381 21.271 25.2724 21.4367 25.2724Z" fill="white"/>
</svg>
