<svg width="32" height="32" viewBox="0 0 32 32" fill="none" xmlns="http://www.w3.org/2000/svg">
<g id="Group 64074">
<rect id="Rectangle 3" width="32" height="32" rx="16" fill="#292D32"/>
<g id="crypto">
<path id="Vector" d="M18.3867 24.3946C18.1383 24.2507 17.964 24.0251 17.9019 23.7671C17.8398 23.5091 17.8951 23.2397 18.0555 23.0178C18.2159 22.796 18.4685 22.6398 18.758 22.5834C19.0474 22.527 19.3501 22.5751 19.5999 22.717C19.8483 22.8609 20.0226 23.0865 20.0847 23.3445C20.1468 23.6025 20.0916 23.8719 19.9311 24.0938C19.7707 24.3156 19.5181 24.4718 19.2287 24.5282C18.9392 24.5846 18.6365 24.5365 18.3867 24.3946ZM14.6603 22.717C14.4105 22.5744 14.1074 22.5259 13.8175 22.5821C13.5276 22.6382 13.2745 22.7946 13.1139 23.0167C12.9532 23.2389 12.8981 23.5087 12.9605 23.767C13.023 24.0253 13.198 24.251 13.4471 24.3946C13.6968 24.5372 13.9999 24.5857 14.2898 24.5296C14.5798 24.4734 14.8328 24.3171 14.9935 24.0949C15.1541 23.8728 15.2093 23.6029 15.1468 23.3446C15.0843 23.0863 14.9094 22.8606 14.6603 22.717ZM19.6203 20.0582C19.7129 20.0575 19.8034 20.0337 19.8815 19.9894C19.9596 19.945 20.0221 19.882 20.0619 19.8076L22.9586 14.181C22.9912 14.1152 23.0049 14.0432 22.9985 13.9716C22.9921 13.8999 22.9659 13.8308 22.9221 13.7704C22.8783 13.71 22.8184 13.6602 22.7477 13.6255C22.677 13.5908 22.5978 13.5723 22.5171 13.5716C19.5632 13.5717 14.8388 13.5716 11.8818 13.5716V11.0006C11.8815 10.7714 11.7792 10.5517 11.5972 10.3897C11.4153 10.2277 11.1686 10.1365 10.9113 10.1363H8.48522C8.35653 10.1363 8.23311 10.1818 8.14212 10.2629C8.05112 10.3439 8 10.4538 8 10.5685C8 10.6831 8.05112 10.793 8.14212 10.874C8.23311 10.9551 8.35653 11.0006 8.48522 11.0006H10.9113C10.9114 12.8681 10.9102 17.7158 10.9106 19.6433C10.9105 19.646 10.9122 20.5047 10.9113 20.5079C10.9119 20.9662 11.1166 21.4056 11.4804 21.7296C11.8443 22.0537 12.3376 22.236 12.8522 22.2365H20.5653C20.6923 22.2342 20.8132 22.1877 20.9021 22.1069C20.9911 22.0261 21.0409 21.9175 21.0409 21.8043C21.0409 21.6912 20.991 21.5826 20.9021 21.5018C20.8132 21.421 20.6922 21.3745 20.5652 21.3722H12.8522C12.5949 21.372 12.3482 21.2808 12.1663 21.1188C11.9844 20.9568 11.882 20.7371 11.8818 20.5079V20.0744L19.6203 20.0582ZM14.0293 13.1395H18.9374C18.9615 13.1395 18.9853 13.1353 19.0075 13.1271C19.0297 13.1189 19.0499 13.1069 19.0669 13.0917C19.0839 13.0766 19.0974 13.0586 19.1066 13.0388C19.1158 13.019 19.1206 12.9978 19.1206 12.9764V11.9763C19.1206 11.9487 19.1127 11.9216 19.0977 11.8975C19.0827 11.8733 19.0611 11.853 19.0349 11.8383L16.5785 10.4629C16.5493 10.4465 16.5155 10.4379 16.481 10.4379C16.4465 10.4379 16.4126 10.4466 16.3834 10.463L13.9317 11.8383C13.9055 11.8529 13.884 11.8733 13.869 11.8974C13.854 11.9216 13.8462 11.9487 13.8462 11.9763V12.9764C13.8462 13.0196 13.8655 13.0611 13.8998 13.0917C13.9342 13.1223 13.9808 13.1395 14.0293 13.1395ZM18.9006 10.9329L20.5673 11.7572C20.5955 11.7712 20.6273 11.7785 20.6596 11.7785C20.6919 11.7785 20.7237 11.7712 20.7519 11.7572L22.4185 10.9329C22.4482 10.9183 22.4729 10.8968 22.4901 10.8708C22.5073 10.8448 22.5164 10.8151 22.5164 10.7849V8.96685C22.5164 8.93625 22.507 8.90622 22.4894 8.87995C22.4718 8.85369 22.4465 8.83217 22.4162 8.81768L20.7496 8.02018C20.7219 8.00693 20.691 8 20.6596 8C20.6282 8 20.5973 8.00693 20.5696 8.02018L18.9029 8.81769C18.8727 8.83218 18.8474 8.8537 18.8298 8.87996C18.8121 8.90622 18.8028 8.93625 18.8028 8.96685V10.7849C18.8028 10.8151 18.8119 10.8448 18.8291 10.8708C18.8463 10.8968 18.871 10.9183 18.9006 10.9329Z" fill="white"/>
</g>
</g>
</svg>
