<svg width="140" height="35" viewBox="0 0 140 35" fill="none" xmlns="http://www.w3.org/2000/svg">
<g clip-path="url(#clip0_310_1038)">
<path fill-rule="evenodd" clip-rule="evenodd" d="M28.8099 5.32146L28.9869 6.42783C29.1236 7.44711 29.1828 8.4753 29.1639 9.50354C29.165 11.7767 28.8977 14.042 28.3673 16.2524C27.6557 19.2486 26.4196 22.0952 24.7163 24.6608C22.747 27.5816 19.8925 30.436 15.7547 32.7816L15.2458 33.0692L14.7368 32.7816C10.599 30.4803 7.74459 27.6037 5.77525 24.6608C4.05928 22.1021 2.8222 19.2531 2.12423 16.2524C1.59389 14.042 1.32651 11.7767 1.32765 9.50354C1.32044 8.47557 1.37957 7.44819 1.50467 6.42783L1.65956 5.32146C1.68166 5.23433 1.68166 5.14306 1.65956 5.05593C1.64589 4.96613 1.60759 4.88188 1.54892 4.81253C1.50167 4.74283 1.4416 4.68276 1.3719 4.63552C1.30227 4.59659 1.22789 4.56684 1.15063 4.547C1.0635 4.5249 0.972228 4.5249 0.885098 4.547C0.79845 4.5703 0.71622 4.60767 0.641697 4.65764C0.571998 4.70489 0.511923 4.76496 0.464678 4.83466C0.425311 4.91957 0.395621 5.00864 0.376168 5.10019L0.19915 6.20656C0.0660209 7.3005 -0.000484245 8.40153 2.6541e-06 9.50354C0.00267812 11.8885 0.284884 14.265 0.840844 16.5843C1.21599 18.1597 1.72682 19.6996 2.36763 21.1868C4.73058 26.647 8.87173 31.1469 14.1173 33.9543L14.936 34.419C15.0412 34.4628 15.154 34.4854 15.2679 34.4854C15.3818 34.4854 15.4946 34.4628 15.5998 34.419L16.4185 33.9543C20.7334 31.5424 23.7648 28.511 25.8448 25.4353C27.6544 22.7429 28.959 19.7437 29.695 16.5843C30.2437 14.2642 30.5184 11.8877 30.5137 9.50354C30.5135 8.39419 30.447 7.28585 30.3145 6.18443L30.1375 5.07806C30.1181 4.98652 30.0884 4.89744 30.049 4.81253C30.0018 4.74283 29.9417 4.68276 29.872 4.63552C29.7975 4.58555 29.7152 4.54817 29.6286 4.52488C29.5415 4.50277 29.4502 4.50277 29.3631 4.52488C29.2715 4.54433 29.1824 4.57402 29.0975 4.61339C29.0278 4.66063 28.9677 4.72071 28.9205 4.79041C28.8705 4.86493 28.8332 4.94716 28.8099 5.03381V5.32146Z" fill="#2E4276"/>
<path fill-rule="evenodd" clip-rule="evenodd" d="M5.37689 4.56924L15.29 1.44928L25.4022 4.63563C25.4894 4.65396 25.5786 4.66139 25.6677 4.65775C25.7602 4.6568 25.8512 4.63405 25.9332 4.59137C26.0209 4.55223 26.0971 4.49129 26.1545 4.41435C26.2216 4.35066 26.2613 4.26337 26.2651 4.17095C26.2835 4.0837 26.2909 3.99451 26.2873 3.90542C26.2863 3.81293 26.2636 3.72196 26.2209 3.63989C26.1823 3.55783 26.1299 3.48299 26.066 3.41862C26.0023 3.35154 25.915 3.31186 25.8226 3.30798L15.4891 0.033128C15.36 -0.0110427 15.2199 -0.0110427 15.0908 0.033128L5.00073 3.21947C4.91568 3.24706 4.83403 3.28417 4.75733 3.33011C4.68663 3.38849 4.6331 3.46497 4.60244 3.55138C4.55975 3.63345 4.53701 3.72441 4.53605 3.81691C4.53242 3.90599 4.53985 3.99519 4.55818 4.08244C4.58147 4.16909 4.61885 4.25132 4.66882 4.32584C4.72744 4.40162 4.8033 4.46231 4.89009 4.50286C4.97009 4.55077 5.06249 4.57387 5.15562 4.56924C5.22765 4.59184 5.30487 4.59184 5.37689 4.56924Z" fill="#2E4276"/>
<path fill-rule="evenodd" clip-rule="evenodd" d="M0.486448 5.52079L14.6701 34.1094C14.7186 34.2162 14.795 34.308 14.8914 34.3749C14.998 34.44 15.1205 34.4745 15.2454 34.4745C15.3703 34.4745 15.4928 34.44 15.5995 34.3749C15.7087 34.3099 15.8 34.2186 15.865 34.1094L24.5168 17.4032L24.5389 17.3811L30.0708 5.49866C30.1134 5.4166 30.1362 5.32563 30.1371 5.23313C30.1441 5.14234 30.1289 5.05122 30.0929 4.9676C30.0712 4.87607 30.0253 4.79202 29.9601 4.7242C29.9046 4.65398 29.8372 4.59406 29.761 4.54718C29.681 4.49928 29.5886 4.47617 29.4955 4.4808C29.4064 4.47716 29.3172 4.48459 29.2299 4.50293C29.1384 4.52465 29.0543 4.57049 28.9865 4.63569C28.9158 4.69408 28.8623 4.77055 28.8316 4.85697L23.2998 16.7394L15.2454 32.2949L1.6592 4.85697C1.61495 4.79058 1.54856 4.70207 1.50431 4.63569C1.43649 4.57049 1.35244 4.52465 1.26091 4.50293C1.17823 4.46279 1.08356 4.4549 0.995378 4.4808C0.902882 4.48175 0.811914 4.5045 0.72985 4.54718C0.653604 4.59406 0.586195 4.65398 0.530703 4.7242C0.480736 4.79872 0.443359 4.88096 0.420067 4.9676C0.390808 5.05291 0.383204 5.14416 0.39794 5.23313C0.414202 5.3326 0.44398 5.42938 0.486448 5.52079Z" fill="#2E4276"/>
<path fill-rule="evenodd" clip-rule="evenodd" d="M7.28008 18.266H23.079C23.169 18.2622 23.2582 18.2473 23.3446 18.2218C23.4277 18.1964 23.4986 18.1412 23.5437 18.0669C23.6083 18.0074 23.6543 17.9306 23.6765 17.8456C23.7245 17.7199 23.7375 17.5836 23.7141 17.4511C23.6907 17.3186 23.6318 17.1949 23.5437 17.0933C23.4829 17.0349 23.4161 16.983 23.3446 16.9384C23.2582 16.9129 23.169 16.898 23.079 16.8941H7.28008C7.1901 16.898 7.10093 16.9129 7.01455 16.9384C6.9314 16.9638 6.86051 17.019 6.81541 17.0933C6.75086 17.1528 6.70477 17.2296 6.68264 17.3146C6.6162 17.4853 6.6162 17.6748 6.68264 17.8456C6.70477 17.9306 6.75086 18.0074 6.81541 18.0669C6.87624 18.1253 6.94298 18.1772 7.01455 18.2218C7.10306 18.2439 7.19157 18.2439 7.28008 18.266ZM51.3136 12.3138H41.0465C40.9565 12.3177 40.8673 12.3325 40.7809 12.358C40.6978 12.3835 40.6269 12.4386 40.5818 12.5129C40.5173 12.5724 40.4712 12.6492 40.449 12.7342C40.4235 12.8206 40.4087 12.9097 40.4048 12.9997V21.5188C40.4087 21.6087 40.4235 21.6979 40.449 21.7843C40.4712 21.8693 40.5173 21.9461 40.5818 22.0056C40.6426 22.064 40.7094 22.1159 40.7809 22.1605C40.8673 22.186 40.9565 22.2008 41.0465 22.2047H51.3136V23.643H41.0465C40.9127 23.6392 40.7795 23.6244 40.6482 23.5987C40.5128 23.5722 40.3796 23.5352 40.2499 23.4881C40.1256 23.4425 40.0069 23.3831 39.8959 23.3111C39.7852 23.2226 39.6967 23.1341 39.5861 23.0456C39.399 22.8534 39.2489 22.6283 39.1435 22.3817C39.0964 22.252 39.0594 22.1189 39.0329 21.9834C39.0072 21.8521 38.9924 21.7189 38.9886 21.5852V13.0218C38.9924 12.8881 39.0072 12.7549 39.0329 12.6236C39.0594 12.4881 39.0964 12.355 39.1435 12.2253C39.189 12.094 39.2484 11.9679 39.3205 11.8491C39.3901 11.731 39.48 11.6261 39.5861 11.5393C39.6846 11.4454 39.788 11.3568 39.8959 11.2738C40.0069 11.2017 40.1256 11.1423 40.2499 11.0968C40.3796 11.0497 40.5128 11.0127 40.6482 10.9861C40.7795 10.9605 40.9127 10.9457 41.0465 10.9419H51.3136V12.3138ZM70.5865 10.8755V12.3138H60.6956V16.5401H68.6393V18.0005H60.6956V22.2268H70.5865V23.6651H59.3237V10.8755H70.5865Z" fill="#2E4276"/>
<path d="M90.9662 13.0443V16.7838C90.9625 16.9176 90.9476 17.0508 90.922 17.1821C90.8954 17.3175 90.8584 17.4507 90.8113 17.5804C90.7658 17.7117 90.7065 17.8378 90.6343 17.9566C90.558 18.0697 90.4689 18.1736 90.3688 18.2664C90.2703 18.3603 90.1669 18.4489 90.059 18.5319C89.948 18.604 89.8292 18.6633 89.705 18.7089L89.3067 18.8417C89.1754 18.8674 89.0421 18.8822 88.9084 18.8859H87.0275L90.8998 23.6433H89.0411L85.191 18.8859H80.677C80.4541 18.8858 80.2317 18.8635 80.0132 18.8196V23.6433H78.6191V10.8979H88.9305C89.0643 10.9017 89.1975 10.9165 89.3288 10.9422C89.4642 10.9688 89.5974 11.0057 89.7271 11.0528C89.8562 11.0971 89.9762 11.1646 90.0811 11.252C90.2979 11.4097 90.4852 11.6045 90.6343 11.8273C90.7065 11.9461 90.7658 12.0722 90.8113 12.2035C90.8584 12.3332 90.8954 12.4663 90.922 12.6018C90.9466 12.7481 90.9614 12.896 90.9662 13.0443ZM80.6549 17.4698H88.9084C88.9984 17.4659 89.0875 17.451 89.1739 17.4255C89.2169 17.417 89.2573 17.3986 89.2918 17.3717C89.3264 17.3448 89.3542 17.3102 89.3731 17.2706C89.4376 17.2111 89.4837 17.1343 89.5058 17.0494C89.5313 16.963 89.5462 16.8738 89.5501 16.7838V13.0443C89.5489 12.8665 89.4863 12.6946 89.3731 12.5575C89.3159 12.4896 89.2448 12.4347 89.1647 12.3965C89.0845 12.3584 88.9971 12.3378 88.9084 12.3362H80.6549C80.5649 12.3401 80.4757 12.355 80.3893 12.3805C80.3062 12.4059 80.2353 12.461 80.1902 12.5354C80.1256 12.5949 80.0796 12.6717 80.0574 12.7566C80.0319 12.843 80.0171 12.9322 80.0132 13.0222V16.7617C80.012 16.8541 80.0312 16.9457 80.0694 17.0298C80.1077 17.114 80.164 17.1886 80.2344 17.2485C80.2828 17.3153 80.3458 17.3699 80.4188 17.4083C80.4917 17.4467 80.5725 17.4677 80.6549 17.4698Z" fill="#2E4276"/>
<path fill-rule="evenodd" clip-rule="evenodd" d="M98.3555 10.8755H110.703V12.3138H105.237V23.643H103.843V12.3138H98.3555V10.8755ZM118.226 23.6651V10.8976H119.62V23.6651H118.226ZM138.185 10.8755H139.977L134.821 17.2703L139.999 23.6651H138.185L133.582 18.0005H129.599V23.6651H128.205V10.8976H129.621V16.5622H133.604L138.185 10.8755Z" fill="#2E4276"/>
</g>
<defs>
<clipPath id="clip0_310_1038">
<rect width="140" height="34.4855" fill="white"/>
</clipPath>
</defs>
</svg>
