<svg width="23" height="23" viewBox="0 0 23 23" fill="none" xmlns="http://www.w3.org/2000/svg">
<g id="Group 64271">
<g id="Group">
<path id="Vector" d="M23 11.5C23 12.4813 21.7944 13.2902 21.5529 14.1948C21.3037 15.1302 21.9343 16.4335 21.4609 17.2519C20.9798 18.0837 19.5327 18.1834 18.8581 18.8581C18.1834 19.5327 18.0837 20.9798 17.2519 21.4609C16.4335 21.9343 15.1302 21.3037 14.1948 21.5529C13.2902 21.7944 12.4813 23 11.5 23C10.5187 23 9.70983 21.7944 8.80517 21.5529C7.86983 21.3037 6.5665 21.9343 5.74808 21.4609C4.91625 20.9798 4.81658 19.5327 4.14192 18.8581C3.46725 18.1834 2.02017 18.0837 1.53908 17.2519C1.06567 16.4335 1.69625 15.1302 1.44708 14.1948C1.20558 13.2902 0 12.4813 0 11.5C0 10.5187 1.20558 9.70983 1.44708 8.80517C1.69625 7.86983 1.06567 6.5665 1.53908 5.74808C2.02017 4.91625 3.46725 4.81658 4.14192 4.14192C4.81658 3.46725 4.91625 2.02017 5.74808 1.53908C6.5665 1.06567 7.86983 1.69625 8.80517 1.44708C9.70983 1.20558 10.5187 0 11.5 0C12.4813 0 13.2902 1.20558 14.1948 1.44708C15.1302 1.69625 16.4335 1.06567 17.2519 1.53908C18.0837 2.02017 18.1834 3.46725 18.8581 4.14192C19.5327 4.81658 20.9798 4.91625 21.4609 5.74808C21.9343 6.5665 21.3037 7.86983 21.5529 8.80517C21.7944 9.70983 23 10.5187 23 11.5Z" fill="#2568EF"/>
</g>
<g id="Union">
<path d="M8.16221 7.7667C9.27261 7.42567 10.3831 7.0851 11.4938 6.74497C11.4977 6.74376 11.5016 6.74376 11.5056 6.74497C12.6495 7.09535 13.7934 7.44612 14.9371 7.79728C15.0217 7.82333 15.0996 7.82787 15.1675 7.77788C15.296 7.68317 15.3017 7.49374 15.1692 7.3995C15.1492 7.38534 15.1156 7.371 15.0685 7.35651C13.9013 6.99845 12.734 6.64069 11.5666 6.28322C11.522 6.26953 11.4773 6.26953 11.4327 6.28322C10.3026 6.6294 9.1726 6.9757 8.04265 7.32211C7.968 7.34505 7.91761 7.36691 7.89154 7.38772C7.72638 7.51942 7.82454 7.79445 8.03458 7.79433C8.05951 7.79433 8.10205 7.78513 8.16221 7.7667Z" fill="white"/>
<path fill-rule="evenodd" clip-rule="evenodd" d="M14.2641 11.8579C14.2578 11.871 14.2511 11.8839 14.2441 11.8967C14.2419 11.9006 14.2387 11.902 14.2345 11.901C14.2083 11.8955 14.1893 11.8927 14.1773 11.8927H8.88311C8.88094 11.8927 8.87882 11.8921 8.87697 11.8909C8.87511 11.8898 8.87361 11.8882 8.87262 11.8863L6.88878 7.99648C6.88128 7.9818 6.87434 7.96741 6.8676 7.95342C6.82933 7.87411 6.79734 7.80778 6.70587 7.77632C6.60319 7.74095 6.49035 7.7821 6.43386 7.87523C6.42009 7.898 6.4088 7.93484 6.39999 7.98579C6.35622 8.23934 6.32941 8.41465 6.31956 8.51169C6.28433 8.85592 6.26897 9.20093 6.27347 9.54679C6.29265 11.0116 6.63107 12.4897 7.30101 13.7842C8.15081 15.4265 9.485 16.7172 11.1099 17.5919C11.1637 17.6209 11.2174 17.6501 11.271 17.6794C11.3019 17.6964 11.3328 17.7134 11.3636 17.7304C11.4249 17.7645 11.4698 17.7801 11.5351 17.7699C11.5622 17.7657 11.6018 17.7493 11.6542 17.7206C11.774 17.6548 11.8938 17.5888 12.0133 17.5226C13.6478 16.6175 14.9675 15.2846 15.792 13.5967C16.4442 12.2615 16.7478 10.7507 16.7262 9.26731C16.7221 8.98739 16.7031 8.70861 16.6693 8.43097C16.6528 8.29597 16.6236 8.13984 16.6012 7.99415C16.5966 7.96396 16.5911 7.93851 16.5846 7.91777C16.5797 7.90212 16.5743 7.88917 16.5685 7.8789C16.5131 7.78297 16.3994 7.74119 16.294 7.77768C16.1978 7.81098 16.1716 7.87302 16.131 7.95791C15.5094 9.25818 14.8871 10.5582 14.2641 11.8579ZM6.75722 8.74977C6.75732 8.74845 6.75764 8.74838 6.75821 8.74952L10.9484 16.965C10.9511 16.9702 10.9499 16.9713 10.9448 16.9683C9.53731 16.1313 8.39556 14.944 7.6613 13.4811C6.93914 12.0425 6.63265 10.356 6.75722 8.74977ZM14.7274 11.9535C15.2304 10.903 15.7347 9.8499 16.2403 8.79425C16.244 8.7867 16.2461 8.7871 16.2467 8.79546C16.3424 10.205 16.123 11.6457 15.5781 12.952C14.8701 14.6492 13.6461 16.0185 12.0764 16.9543C12.0724 16.9567 12.0715 16.9558 12.0737 16.9516C12.5042 16.1424 12.9347 15.3332 13.3653 14.524C13.7824 13.7402 14.1995 12.9563 14.6166 12.1725C14.6551 12.1003 14.692 12.0273 14.7274 11.9535ZM13.9993 12.3561L13.9988 12.358L11.5076 17.0393L11.5062 17.0408L11.5042 17.0413L11.5022 17.0407L11.5009 17.0392L9.1132 12.3579L9.11281 12.356L9.11337 12.3542L9.11476 12.3528L9.11663 12.3523H13.9954L13.9973 12.3528L13.9987 12.3542L13.9993 12.3561Z" fill="white"/>
<path d="M8.16221 7.7667C9.27261 7.42567 10.3831 7.0851 11.4938 6.74497C11.4977 6.74376 11.5016 6.74376 11.5056 6.74497C12.6495 7.09535 13.7934 7.44612 14.9371 7.79728C15.0217 7.82333 15.0996 7.82787 15.1675 7.77788C15.296 7.68317 15.3017 7.49374 15.1692 7.3995C15.1492 7.38534 15.1156 7.371 15.0685 7.35651C13.9013 6.99845 12.734 6.64069 11.5666 6.28322C11.522 6.26953 11.4773 6.26953 11.4327 6.28322C10.3026 6.6294 9.1726 6.9757 8.04265 7.32211C7.968 7.34505 7.91761 7.36691 7.89154 7.38772C7.72638 7.51942 7.82454 7.79445 8.03458 7.79433C8.05951 7.79433 8.10205 7.78513 8.16221 7.7667Z" stroke="white" stroke-width="0.5"/>
<path fill-rule="evenodd" clip-rule="evenodd" d="M14.2641 11.8579C14.2578 11.871 14.2511 11.8839 14.2441 11.8967C14.2419 11.9006 14.2387 11.902 14.2345 11.901C14.2083 11.8955 14.1893 11.8927 14.1773 11.8927H8.88311C8.88094 11.8927 8.87882 11.8921 8.87697 11.8909C8.87511 11.8898 8.87361 11.8882 8.87262 11.8863L6.88878 7.99648C6.88128 7.9818 6.87434 7.96741 6.8676 7.95342C6.82933 7.87411 6.79734 7.80778 6.70587 7.77632C6.60319 7.74095 6.49035 7.7821 6.43386 7.87523C6.42009 7.898 6.4088 7.93484 6.39999 7.98579C6.35622 8.23934 6.32941 8.41465 6.31956 8.51169C6.28433 8.85592 6.26897 9.20093 6.27347 9.54679C6.29265 11.0116 6.63107 12.4897 7.30101 13.7842C8.15081 15.4265 9.485 16.7172 11.1099 17.5919C11.1637 17.6209 11.2174 17.6501 11.271 17.6794C11.3019 17.6964 11.3328 17.7134 11.3636 17.7304C11.4249 17.7645 11.4698 17.7801 11.5351 17.7699C11.5622 17.7657 11.6018 17.7493 11.6542 17.7206C11.774 17.6548 11.8938 17.5888 12.0133 17.5226C13.6478 16.6175 14.9675 15.2846 15.792 13.5967C16.4442 12.2615 16.7478 10.7507 16.7262 9.26731C16.7221 8.98739 16.7031 8.70861 16.6693 8.43097C16.6528 8.29597 16.6236 8.13984 16.6012 7.99415C16.5966 7.96396 16.5911 7.93851 16.5846 7.91777C16.5797 7.90212 16.5743 7.88917 16.5685 7.8789C16.5131 7.78297 16.3994 7.74119 16.294 7.77768C16.1978 7.81098 16.1716 7.87302 16.131 7.95791C15.5094 9.25818 14.8871 10.5582 14.2641 11.8579ZM6.75722 8.74977C6.75732 8.74845 6.75764 8.74838 6.75821 8.74952L10.9484 16.965C10.9511 16.9702 10.9499 16.9713 10.9448 16.9683C9.53731 16.1313 8.39556 14.944 7.6613 13.4811C6.93914 12.0425 6.63265 10.356 6.75722 8.74977ZM14.7274 11.9535C15.2304 10.903 15.7347 9.8499 16.2403 8.79425C16.244 8.7867 16.2461 8.7871 16.2467 8.79546C16.3424 10.205 16.123 11.6457 15.5781 12.952C14.8701 14.6492 13.6461 16.0185 12.0764 16.9543C12.0724 16.9567 12.0715 16.9558 12.0737 16.9516C12.5042 16.1424 12.9347 15.3332 13.3653 14.524C13.7824 13.7402 14.1995 12.9563 14.6166 12.1725C14.6551 12.1003 14.692 12.0273 14.7274 11.9535ZM13.9993 12.3561L13.9988 12.358L11.5076 17.0393L11.5062 17.0408L11.5042 17.0413L11.5022 17.0407L11.5009 17.0392L9.1132 12.3579L9.11281 12.356L9.11337 12.3542L9.11476 12.3528L9.11663 12.3523H13.9954L13.9973 12.3528L13.9987 12.3542L13.9993 12.3561Z" stroke="white" stroke-width="0.5"/>
</g>
</g>
</svg>
