<svg width="22" height="25" viewBox="0 0 22 25" fill="none" xmlns="http://www.w3.org/2000/svg">
<path d="M10.9878 0.988551C8.65059 1.70084 6.31365 2.41407 3.97698 3.12825C3.8504 3.16684 3.76087 3.18613 3.70839 3.18613C3.2664 3.18639 3.05982 2.61037 3.40739 2.33458C3.46227 2.29101 3.56826 2.24522 3.72537 2.1972C6.10321 1.4717 8.48113 0.746462 10.8591 0.0214819C10.9531 -0.00716062 11.0471 -0.00716062 11.1411 0.0214819C13.5977 0.770131 16.0541 1.51938 18.5103 2.26923C18.6094 2.29959 18.68 2.3296 18.722 2.35927C19.0009 2.5566 18.9891 2.9533 18.7187 3.15166C18.5756 3.25637 18.4118 3.24685 18.2337 3.19231C15.8269 2.45686 13.4199 1.72228 11.0127 0.988551C11.0043 0.985978 10.996 0.985978 10.9878 0.988551Z" fill="#A2BBF3"/>
<path d="M16.7747 11.7765C16.7894 11.7497 16.8034 11.7226 16.8166 11.6952C18.1277 8.97328 19.4372 6.25079 20.7454 3.5277C20.8308 3.34993 20.8858 3.22001 21.0883 3.15029C21.3101 3.07388 21.5493 3.16135 21.6659 3.36227C21.6947 3.41218 21.7177 3.49262 21.7348 3.60359C21.7819 3.90871 21.8434 4.2357 21.8781 4.51844C21.9493 5.09986 21.9892 5.68369 21.9977 6.26991C22.0433 9.37642 21.4045 12.5403 20.0319 15.3365C18.2969 18.8714 15.5197 21.6628 12.0803 23.5583C11.8287 23.6971 11.5768 23.8353 11.3245 23.973C11.2144 24.033 11.1308 24.0674 11.0739 24.0762C10.9365 24.0975 10.8421 24.0649 10.7129 23.9936C10.5356 23.8958 10.3577 23.7991 10.1791 23.7034C6.75976 21.8717 3.9522 19.1685 2.16393 15.7294C0.754106 13.0183 0.041989 9.92286 0.00159801 6.8552C-0.00783513 6.1309 0.0244949 5.40832 0.0985881 4.68746C0.119341 4.48422 0.175768 4.1171 0.26787 3.5861C0.286394 3.47942 0.310148 3.40224 0.339133 3.35456C0.457991 3.15955 0.695449 3.07336 0.911554 3.14746C1.13795 3.22489 1.1912 3.40344 1.29643 3.60848C2.68859 6.32488 4.08015 9.04026 5.47111 11.7546C5.47319 11.7586 5.47636 11.762 5.48026 11.7644C5.48416 11.7667 5.48865 11.768 5.49323 11.768C9.20509 11.768 12.9187 11.768 16.634 11.768C16.6592 11.768 16.6993 11.7738 16.7544 11.7855C16.7633 11.7875 16.7701 11.7845 16.7747 11.7765ZM1.02166 5.18553C1.02046 5.18313 1.01978 5.1833 1.01961 5.18605C0.757451 8.54982 1.40242 12.0818 2.9221 15.0945C4.46725 18.1583 6.86987 20.6447 9.8318 22.3975C9.84243 22.4039 9.84492 22.4015 9.83926 22.3906L1.02166 5.18553ZM20.9753 5.27918C19.9113 7.48996 18.8501 9.69535 17.7917 11.8953C17.7172 12.0499 17.6395 12.2028 17.5586 12.354C15.7745 15.6899 13.9908 19.0261 12.2074 22.3625C12.2028 22.3713 12.2047 22.3732 12.2131 22.3682C15.5161 20.4083 18.0919 17.5408 19.5817 13.9864C20.7284 11.2509 21.1902 8.23364 20.9887 5.28175C20.9875 5.26425 20.9831 5.2634 20.9753 5.27918ZM16.2583 12.7425C16.259 12.7413 16.2594 12.7399 16.2593 12.7385C16.2593 12.7371 16.2589 12.7357 16.2582 12.7345C16.2574 12.7333 16.2564 12.7323 16.2552 12.7316C16.2539 12.731 16.2525 12.7306 16.2511 12.7307H5.98462C5.98325 12.7307 5.98189 12.731 5.98069 12.7317C5.97949 12.7323 5.97848 12.7333 5.97776 12.7344C5.97703 12.7356 5.97662 12.7369 5.97656 12.7383C5.9765 12.7397 5.97679 12.741 5.97741 12.7423L11.0019 22.546C11.0025 22.5473 11.0035 22.5484 11.0047 22.5491C11.006 22.5499 11.0074 22.5504 11.0088 22.5504C11.0103 22.5504 11.0117 22.55 11.013 22.5493C11.0143 22.5486 11.0153 22.5475 11.016 22.5462L16.2583 12.7425Z" fill="#A2BBF3"/>
</svg>
