<svg width="127" height="130" viewBox="0 0 127 130" fill="none" xmlns="http://www.w3.org/2000/svg">
<path d="M38.6992 21.7058L38.6962 21.7089C35.5676 25.0081 34.0058 29.5886 34.0058 35.4384V51.2861H17.6706V31.5983C17.6706 27.278 18.5343 23.2359 20.2574 19.5204C21.9856 15.7939 24.362 12.4984 27.3355 9.63265C30.3568 6.77359 33.9212 4.55783 38.0357 2.93369C42.1408 1.31326 46.631 0.5 51.5118 0.5C55.8354 0.5 59.9961 1.31019 64.052 2.93237C68.0555 4.55556 71.6268 6.82797 74.767 9.64331C77.8987 12.451 80.384 15.7998 82.2223 19.5304C84.0553 23.3047 85.0238 27.2892 85.0238 31.5983V51.2861H69.4018V35.4384C69.4018 29.5873 67.7839 24.9425 64.4232 21.6948C61.0722 18.4015 56.6014 16.8352 51.0181 16.8352C45.964 16.8352 41.8229 18.4684 38.6992 21.7058ZM93.2525 60.5148V60.5697H93.7525C96.087 60.5697 98.0998 61.3936 99.8174 63.1113C101.535 64.8289 102.359 66.8416 102.359 69.1761V111.801C102.359 114.209 101.931 116.448 101.08 118.523C100.226 120.605 99.0514 122.421 97.6078 124.026C96.1767 125.562 94.4239 126.785 92.3963 127.692C90.3838 128.593 88.2054 129.02 85.7981 129.02H16.3477C13.9393 129.02 11.7632 128.592 9.80892 127.694C7.83338 126.787 6.18477 125.615 4.80367 124.181C3.43003 122.755 2.36682 121.004 1.61967 119.03C0.874082 117.059 0.5 114.98 0.5 112.733V69.1212C0.5 66.7857 1.32497 64.7702 2.99214 63.0509C4.65411 61.337 6.6095 60.5148 8.94187 60.5148H17.1706H34.4509H68.7921H85.4141H93.2525Z" stroke="#D0D6E4"/>
<rect x="65" y="84" width="62" height="22" fill="#3072F3"/>
<circle cx="79.5" cy="95.5" r="3.5" fill="white"/>
<circle cx="90.5" cy="95.5" r="3.5" fill="white"/>
<circle cx="101.5" cy="95.5" r="3.5" fill="white"/>
<circle cx="112.5" cy="95.5" r="3.5" fill="white"/>
<rect y="84" width="62" height="22" fill="#0050B3" fill-opacity="0.12"/>
<circle cx="14.5" cy="95.5" r="3.5" fill="white"/>
<circle cx="25.5" cy="95.5" r="3.5" fill="white"/>
<circle cx="36.5" cy="95.5" r="3.5" fill="white"/>
<circle cx="47.5" cy="95.5" r="3.5" fill="white"/>
</svg>
