<svg width="10" height="11" viewBox="0 0 10 11" fill="none" xmlns="http://www.w3.org/2000/svg">
<path d="M5.97918 5.84118C7.36262 5.84118 8.48795 4.71565 8.48795 3.33221C8.48795 1.94877 7.36262 0.823242 5.97918 0.823242C4.59574 0.823242 3.47021 1.94877 3.47021 3.33221C3.47021 4.71565 4.59574 5.84118 5.97918 5.84118ZM5.68205 1.85745V1.78931C5.68205 1.6251 5.81497 1.49218 5.97918 1.49218C6.1432 1.49218 6.27631 1.6251 6.27631 1.78931V1.85785C6.6299 1.93372 6.89593 2.24868 6.89593 2.62464C6.89593 2.78866 6.76281 2.92177 6.5988 2.92177C6.43458 2.92177 6.30167 2.78866 6.30167 2.62464C6.30167 2.51986 6.21629 2.43448 6.1115 2.43448H5.84508C5.74029 2.43448 5.65491 2.51986 5.65491 2.62464C5.65491 2.68466 5.68364 2.74171 5.73197 2.77737L5.97918 2.9604L6.57978 3.40491C6.77708 3.5509 6.89593 3.78444 6.89751 4.03007V4.03284C6.8989 4.24242 6.81868 4.44011 6.6713 4.58927C6.56195 4.7 6.42527 4.77428 6.27631 4.80558V4.87511C6.27631 5.03932 6.1432 5.17224 5.97918 5.17224C5.81497 5.17224 5.68205 5.03932 5.68205 4.87511V4.80657C5.53705 4.77567 5.40374 4.70436 5.29598 4.59779C5.14682 4.45061 5.06402 4.25411 5.06283 4.04453C5.06184 3.88051 5.19397 3.74661 5.35798 3.74562H5.35996C5.52319 3.74562 5.6561 3.87754 5.65709 4.04096C5.65749 4.14351 5.73999 4.22994 5.84825 4.22994C6.01242 4.22895 5.95127 4.22931 6.11428 4.22835C6.21974 4.22752 6.30407 4.14193 6.30325 4.0368V4.03403C6.30286 3.97461 6.27413 3.91795 6.2262 3.8825L5.97918 3.69966L5.37839 3.25515C5.17951 3.10778 5.06065 2.87205 5.06065 2.62464C5.06065 2.24788 5.32748 1.93273 5.68205 1.85745Z" fill="white"/>
<path d="M1.91431 7.26958C1.83814 7.13754 1.66896 7.0916 1.5361 7.16824L0.138439 7.97505C0.00609737 8.05165 -0.0393041 8.22092 0.037098 8.35344L1.46558 10.8276C1.54204 10.9599 1.71121 11.0053 1.84379 10.9289L3.24145 10.1219C3.37399 10.0455 3.41921 9.87623 3.34279 9.74371L1.91431 7.26958Z" fill="white"/>
<path d="M9.92266 6.77495C9.78816 6.58815 9.52787 6.54596 9.34128 6.68046C8.77514 7.08832 7.68804 7.87156 7.60168 7.93396C7.56186 7.96783 7.52007 7.99853 7.47649 8.02567C7.30554 8.13323 7.10725 8.19068 6.90025 8.19068H5.477C5.31298 8.19068 5.17987 8.05776 5.17987 7.89355C5.17987 7.72913 5.31318 7.59642 5.477 7.59642H6.9991C7.22274 7.59642 7.40181 7.41021 7.3925 7.18618C7.38378 6.97363 7.20233 6.80882 6.98959 6.80882H5.83098C5.75254 6.72583 5.66657 6.64976 5.57446 6.58182C5.25772 6.34827 4.8663 6.21021 4.44259 6.21021C3.68927 6.21021 2.9397 6.68482 2.62891 7.3183L3.84437 9.42337H6.12435C6.57202 9.42337 7.01296 9.30888 7.40102 9.08563C7.53552 9.00838 7.67953 8.91548 7.83562 8.80336C8.4897 8.3335 9.82698 7.35733 9.82798 7.35673C10.015 7.22243 10.0574 6.96175 9.92266 6.77495Z" fill="white"/>
</svg>
