<svg width="29" height="29" viewBox="0 0 29 29" fill="none" xmlns="http://www.w3.org/2000/svg">
<g id="Group">
<path id="Vector" d="M1 25.0071L6.64822 19.3323C7.38535 18.5917 8.38508 18.1757 9.42749 18.1757H16.802C17.0724 18.1757 17.2916 18.3959 17.2916 18.6676C17.2916 20.5568 15.7673 21.5963 13.887 21.5963H12.2495H18.6742C19.77 21.5963 20.7974 21.0613 21.4291 20.1618L23.4748 17.2489C24.4713 15.8299 26.4665 15.5791 27.7803 16.7078L28 16.8965L23.2447 23.9054C22.3108 25.282 20.7598 26.1057 19.1016 26.1057H11.3919C10.5794 26.1057 9.80023 26.4299 9.22555 27.007L8.23893 28.001H1V25.0071Z" stroke="#8393BA" stroke-width="1.5" stroke-miterlimit="10" stroke-linecap="round" stroke-linejoin="round"/>
<g id="Group_2">
<path id="Vector_2" d="M14.4979 10.7273C17.1761 10.7273 19.3473 8.54977 19.3473 5.86365C19.3473 3.17753 17.1761 1 14.4979 1C11.8196 1 9.64844 3.17753 9.64844 5.86365C9.64844 8.54977 11.8196 10.7273 14.4979 10.7273Z" stroke="#8393BA" stroke-width="1.5" stroke-miterlimit="10" stroke-linecap="round" stroke-linejoin="round"/>
</g>
<g id="Group_3">
<path id="Vector_3" d="M10.5017 8.625L8.71094 13.8213L11.0762 13.8072L12.8493 15.2482L14.4078 10.7259" stroke="#8393BA" stroke-width="1.5" stroke-miterlimit="10" stroke-linecap="round" stroke-linejoin="round"/>
<path id="Vector_4" d="M18.4844 8.625L20.2752 13.8213L17.9099 13.8072L16.1369 15.2482L14.5781 10.7251" stroke="#8393BA" stroke-width="1.5" stroke-miterlimit="10" stroke-linecap="round" stroke-linejoin="round"/>
</g>
<path id="Vector_5" d="M12.9453 5.68129L14.0817 6.81798L16.047 4.9082" stroke="#5DEBB2" stroke-width="1.5" stroke-miterlimit="10" stroke-linecap="round" stroke-linejoin="round"/>
</g>
</svg>
