<svg width="42" height="42" viewBox="0 0 42 42" fill="none" xmlns="http://www.w3.org/2000/svg">
<g id="Group 59905">
<g id="Group 59901">
<path id="Vector" d="M41.041 20.5205C41.041 25.9629 38.879 31.1824 35.0307 35.0307C31.1824 38.879 25.9629 41.041 20.5205 41.041C15.0781 41.041 9.85866 38.879 6.01032 35.0307C2.16198 31.1824 0 25.9629 0 20.5205C0 15.0781 2.16198 9.85867 6.01032 6.01032C9.85866 2.16198 15.0781 0 20.5205 0C25.9629 0 31.1824 2.16198 35.0307 6.01032C38.879 9.85867 41.041 15.0781 41.041 20.5205ZM32.7749 8.58098C29.9544 5.70014 26.4969 4.00036 22.4025 3.48161C22.3765 3.47853 22.3501 3.48102 22.3251 3.4889C22.3002 3.49679 22.2772 3.50989 22.2577 3.52735C22.2382 3.54481 22.2226 3.56621 22.212 3.59015C22.2014 3.61409 22.196 3.64001 22.1962 3.66619V6.47826C22.1962 6.5989 22.1359 6.66042 22.0152 6.66283L20.3251 6.67369L19.0222 6.65922C18.9064 6.6568 18.8485 6.59769 18.8485 6.48188V3.66619C18.8461 3.52384 18.7749 3.46231 18.6349 3.48161C10.5715 4.6325 4.39363 10.5208 3.50333 18.7073C3.49126 18.8207 3.54193 18.8774 3.65533 18.8774H6.45292C6.57356 18.8774 6.63388 18.9377 6.63388 19.0584V22.0442C6.63388 22.1672 6.57356 22.2287 6.45292 22.2287L3.65533 22.2215C3.53952 22.2215 3.48885 22.2782 3.50333 22.3916C4.39363 30.4768 10.6005 36.4701 18.6205 37.5522C18.7725 37.5739 18.8485 37.5087 18.8485 37.3567V34.5302C18.8485 34.4096 18.9088 34.3492 19.0294 34.3492H22.0152C22.1359 34.3492 22.1962 34.4096 22.1962 34.5302V37.3423C22.1964 37.3766 22.2039 37.4105 22.2181 37.4417C22.2324 37.4729 22.2531 37.5006 22.2789 37.5229C22.3047 37.5453 22.3349 37.5617 22.3674 37.5711C22.4 37.5805 22.4342 37.5827 22.4676 37.5775C30.3899 36.3615 36.6655 30.6143 37.5341 22.388C37.5461 22.2794 37.4979 22.2251 37.3893 22.2251H34.5917C34.4711 22.2251 34.4108 22.1648 34.4108 22.0442V19.0584C34.4108 18.9377 34.4711 18.8774 34.5917 18.8774H37.3893C37.51 18.8774 37.563 18.8171 37.5486 18.6965C37.1094 14.8023 35.5182 11.4304 32.7749 8.58098Z" fill="#8EA1D3"/>
<path id="Vector_2" d="M29.699 11.5753L30.3251 12.2231C30.4192 12.3196 30.418 12.4161 30.3215 12.5126L23.123 19.7111C23.082 19.7511 23.0499 19.7991 23.0287 19.8521C23.0075 19.9051 22.9977 19.9619 23 20.0187C23.123 24.3146 17.6038 23.7356 18.0526 20.0694C18.0695 19.9343 18.0297 19.8185 17.9332 19.722L13.1957 14.9881C13.104 14.8964 13.104 14.806 13.1957 14.7167L14.7085 13.1967C14.8099 13.0953 14.9112 13.0953 15.0125 13.1967C16.6146 14.777 18.2034 16.3634 19.7789 17.9558C19.8417 18.0186 19.9056 18.056 19.9707 18.068C20.0624 18.0825 20.1396 18.0704 20.2024 18.0318L20.9805 18.0463C21.1035 18.0487 21.2085 18.0077 21.2953 17.9232L28.5047 10.7139C28.6012 10.6174 28.6989 10.6162 28.7978 10.7103L29.699 11.5753Z" fill="#8EA1D3"/>
</g>
</g>
</svg>
