<svg width="26" height="26" viewBox="0 0 26 26" fill="none" xmlns="http://www.w3.org/2000/svg">
<g id="Group 59913">
<g id="Group 59902">
<path id="Vector" d="M26 13C26 16.4478 24.6304 19.7544 22.1924 22.1924C19.7544 24.6304 16.4478 26 13 26C9.55219 26 6.24559 24.6304 3.80761 22.1924C1.36964 19.7544 0 16.4478 0 13C0 9.55218 1.36964 6.24558 3.80761 3.80761C6.24559 1.36964 9.55219 0 13 0C16.4478 0 19.7544 1.36964 22.1924 3.80761C24.6304 6.24558 26 9.55218 26 13ZM5.39355 5.26513C3.585 7.05533 2.5225 9.23843 2.20604 11.8144C2.2041 11.8327 2.20597 11.8512 2.21155 11.8688C2.21713 11.8863 2.22628 11.9023 2.23841 11.916C2.25053 11.9296 2.26535 11.9405 2.28191 11.9479C2.29846 11.9553 2.31637 11.959 2.33446 11.9589H4.11167C4.1881 11.9589 4.22632 11.9979 4.22632 12.0758L4.22173 13.9654C4.22173 14.0419 4.18428 14.0801 4.10937 14.0801H2.33216C2.25266 14.0801 2.21597 14.1206 2.22209 14.2016C2.64403 19.0333 6.90704 23.411 11.7869 23.7687C11.8664 23.7749 11.9062 23.7374 11.9062 23.6564V21.8769C11.9062 21.8004 11.9444 21.7622 12.0208 21.7622H13.97C14.0465 21.7622 14.0847 21.8004 14.0847 21.8769V23.5463C14.0846 23.5884 14.0938 23.63 14.1117 23.668C14.1296 23.7061 14.1557 23.7397 14.1882 23.7665C14.2206 23.7933 14.2586 23.8125 14.2994 23.8228C14.3402 23.8331 14.3828 23.8342 14.4241 23.8261C18.9798 22.9241 21.9862 20.3267 23.4431 16.0339C23.5929 15.5921 23.7015 14.9813 23.7687 14.2016C23.7749 14.1206 23.7374 14.0801 23.6564 14.0801H21.8815C21.805 14.0801 21.7668 14.0419 21.7668 13.9654V12.0736C21.7668 11.9971 21.805 11.9589 21.8815 11.9589H23.7114C23.7242 11.9591 23.7368 11.9564 23.7485 11.9511C23.7602 11.9458 23.7706 11.938 23.7791 11.9282C23.7876 11.9185 23.7939 11.9069 23.7976 11.8944C23.8014 11.8819 23.8025 11.8687 23.8008 11.8557C23.2115 6.73734 19.3131 2.87564 14.2246 2.20603C14.1313 2.1938 14.0847 2.23432 14.0847 2.32757V4.10249C14.0847 4.17587 14.048 4.21332 13.9746 4.21485L13.0573 4.22632L12.0185 4.21485C11.9436 4.21485 11.9062 4.1774 11.9062 4.10249V2.32757C11.9062 2.24043 11.8626 2.20221 11.7754 2.21291C9.32175 2.50797 7.19445 3.52537 5.39355 5.26513Z" fill="#5F728A"/>
<path id="Vector_2" d="M8.94463 8.75563L9.35052 8.35433C9.41168 8.2947 9.47283 8.29547 9.53398 8.35662L12.5541 11.3744C12.6045 11.4264 12.6665 11.4509 12.7398 11.4478L13.109 11.4318C13.2543 11.5036 13.3842 11.4822 13.4989 11.3676C15.0108 9.85712 16.5304 8.33828 18.0577 6.81102C18.1219 6.74528 18.1861 6.74528 18.2503 6.81102L19.2295 7.79021C19.2769 7.8376 19.2769 7.88499 19.2295 7.93238L14.6478 12.5141C14.5973 12.5646 14.5736 12.625 14.5767 12.6953C14.6867 15.3187 11.208 15.1238 11.4304 12.7389C11.4381 12.6548 11.4121 12.5829 11.3525 12.5233L8.36676 9.5376C8.30561 9.47798 8.30484 9.41759 8.36446 9.35644L8.94463 8.75563Z" fill="#5F728A"/>
</g>
</g>
</svg>
