<svg width="44" height="44" viewBox="0 0 44 44" fill="none" xmlns="http://www.w3.org/2000/svg">
<g id="Group 59897">
<g id="Vector">
<path d="M44 22C44 34.1503 34.1503 44 22 44C9.84974 44 0 34.1503 0 22C0 9.84974 9.84974 0 22 0C34.1503 0 44 9.84974 44 22Z" fill=""/>
<path d="M23.6382 9.03476C28.3422 12.0639 31.4509 14.1644 32.9645 15.3364C34.2655 16.3439 33.7451 26.2875 33.7349 28.2722C33.7196 31.1334 32.7961 32.5741 29.8319 32.5741C24.2504 32.5707 18.6689 32.5724 13.0874 32.5791C11.2099 32.5791 10.1641 30.8715 10.1589 29.043C10.1521 24.9292 10.1521 20.817 10.1589 16.7066C10.1589 16.1793 10.545 15.6437 11.3171 15.0997C15.8748 11.8892 19.0227 9.78364 20.7607 8.7829C21.6417 8.28253 22.6008 8.36648 23.6382 9.03476ZM31.4135 16.8527L22.7148 11.09C22.5142 10.9574 22.2794 10.8842 22.0381 10.8788C21.7968 10.8735 21.559 10.9363 21.3525 11.0598C18.958 12.4803 16.5414 14.0318 14.1027 15.7142C12.8834 16.5555 12.1946 16.8376 12.1844 18.2178C12.1708 21.9017 12.1827 25.5857 12.2201 29.2696C12.2303 30.2166 12.8323 30.6851 13.7915 30.6851C19.3866 30.6885 24.8644 30.6868 30.2248 30.6801C30.402 30.6804 30.5775 30.6463 30.7414 30.5796C30.9052 30.513 31.0542 30.4151 31.1797 30.2916C31.3053 30.1681 31.405 30.0214 31.4731 29.8599C31.5412 29.6984 31.5764 29.5252 31.5768 29.3502C31.5836 25.3204 31.5853 21.2855 31.5819 17.2456C31.5901 17.1713 31.579 17.0963 31.5495 17.0275C31.5201 16.9587 31.4732 16.8985 31.4135 16.8527Z" fill="white"/>
<path d="M24.7199 19.5652L23.9546 18.9557C23.9088 18.9196 23.8715 18.8741 23.845 18.8225C23.8186 18.7709 23.8038 18.7142 23.8015 18.6564C23.7994 18.5991 23.8102 18.542 23.833 18.4892C23.8559 18.4365 23.8902 18.3893 23.9337 18.3512L24.8622 17.5301C24.8931 17.4953 24.9311 17.4675 24.9738 17.4484C25.0165 17.4293 25.0628 17.4194 25.1097 17.4194C25.1565 17.4194 25.2028 17.4293 25.2455 17.4484C25.2882 17.4675 25.3262 17.4953 25.3571 17.5301L28.1836 20.079C28.3382 20.219 28.4465 20.4018 28.4944 20.6036C28.5422 20.8053 28.5274 21.0166 28.4519 21.2099C28.3765 21.4029 28.2434 21.5687 28.0702 21.6852C27.8971 21.8017 27.6921 21.8635 27.4826 21.8622L15.7915 21.8572C15.7129 21.8573 15.636 21.835 15.5699 21.793C15.5039 21.751 15.4515 21.6911 15.4191 21.6204C15.3104 21.4089 15.2512 21.1759 15.2459 20.9388C15.2407 20.7016 15.2894 20.4663 15.3885 20.2503C15.4231 20.166 15.4835 20.0946 15.5613 20.0458C15.639 19.9971 15.7302 19.9734 15.8221 19.9782H24.5719C24.6208 19.9786 24.6685 19.9639 24.7085 19.9363C24.7485 19.9086 24.7788 19.8693 24.795 19.8238C24.8113 19.7783 24.8128 19.729 24.7994 19.6826C24.7859 19.6363 24.7581 19.5952 24.7199 19.5652Z" fill="white"/>
<path d="M19.0571 25.0542L19.506 25.5025C19.5424 25.5282 19.5719 25.5623 19.5919 25.6019C19.6119 25.6414 19.6218 25.6851 19.6208 25.7293C19.6198 25.7735 19.6079 25.8167 19.5861 25.8553C19.5643 25.8939 19.5333 25.9267 19.4958 25.9508L18.6897 26.6762C18.6065 26.7498 18.4989 26.791 18.3871 26.7919C18.2754 26.7928 18.1671 26.7535 18.0826 26.6812C17.1915 25.9223 16.3292 25.1348 15.4959 24.3187C15.3784 24.2041 15.3 24.0562 15.2715 23.8956C15.0572 22.737 15.9092 22.4902 16.8888 22.5003C20.5281 22.5338 24.1165 22.5876 27.6538 22.6614C27.742 22.6634 27.829 22.6826 27.9096 22.7179C27.9903 22.7532 28.0631 22.8039 28.1238 22.8671C28.1845 22.9304 28.2319 23.0048 28.2634 23.0862C28.2948 23.1677 28.3096 23.2544 28.3068 23.3415C28.2864 24.1239 28.016 24.5219 27.4956 24.5353C24.8596 24.6058 22.1029 24.6445 19.2254 24.6512C18.8377 24.6512 18.7816 24.7855 19.0571 25.0542Z" fill="white"/>
</g>
</g>
</svg>
