<svg width="44" height="45" viewBox="0 0 44 45" fill="none" xmlns="http://www.w3.org/2000/svg">
<g id="Group 59897">
<path id="Vector" d="M12.1622 12.3019L12.1647 41.3793C12.1647 41.6077 12.0599 41.6759 11.8503 41.5838C11.7105 41.5225 11.5384 41.4322 11.3339 41.3129C5.13696 37.6963 1.42239 32.4086 0.19017 25.4499C-0.0552521 24.0719 0.0418944 22.4818 0.023999 20.9786C-0.0169047 17.3049 1.38916 13.2248 3.29885 10.2541C7.02876 4.45604 13.627 0.127919 20.7111 0.0231035C22.7307 -0.00501778 24.7759 -0.0996075 26.7367 0.485827C26.8219 0.511392 26.8645 0.567634 26.8645 0.654555V12.0309C26.8645 12.1178 26.8219 12.1613 26.7367 12.1613L12.3105 12.1536C12.2116 12.1536 12.1622 12.203 12.1622 12.3019Z" fill="#292D32"/>
<path id="Vector_2" d="M31.8581 31.7125L31.8504 2.57374C31.8506 2.53778 31.8601 2.50245 31.8778 2.47121C31.8956 2.43997 31.9211 2.4139 31.9518 2.39558C31.9825 2.37726 32.0174 2.36731 32.053 2.36673C32.0885 2.36614 32.1236 2.37493 32.1546 2.39223C38.5782 5.88097 42.4547 11.1857 43.7841 18.3063C43.934 19.1142 44.0039 20.0891 43.9937 21.2309C43.9835 22.5424 44.0602 23.905 43.871 25.1449C43.058 30.4863 40.7265 34.8851 36.8765 38.3415C31.3902 43.2653 24.8499 44.9977 17.2555 43.5388C17.1856 43.5252 17.1506 43.4826 17.1506 43.411V31.9707C17.1506 31.8855 17.1932 31.8429 17.2785 31.8429L31.7251 31.8455C31.8138 31.8455 31.8581 31.8012 31.8581 31.7125Z" fill="#292D32"/>
<path id="Vector_3" d="M26.8035 17.1467H17.2167C17.1786 17.1467 17.1477 17.1776 17.1477 17.2158V26.7923C17.1477 26.8305 17.1786 26.8614 17.2167 26.8614H26.8035C26.8417 26.8614 26.8726 26.8305 26.8726 26.7923V17.2158C26.8726 17.1776 26.8417 17.1467 26.8035 17.1467Z" fill="#292D32"/>
</g>
</svg>
