<svg width="26" height="26" viewBox="0 0 26 26" fill="none" xmlns="http://www.w3.org/2000/svg">
<path d="M26 13C26 20.1797 20.1797 26 13 26C5.8203 26 0 20.1797 0 13C0 5.8203 5.8203 0 13 0C20.1797 0 26 5.8203 26 13Z" fill="#292D32"/>
<path d="M13.968 5.33872C16.7476 7.12865 18.5846 8.36989 19.479 9.06244C20.2478 9.65776 19.9403 15.5335 19.9343 16.7063C19.9252 18.397 19.3795 19.2483 17.628 19.2483C14.3298 19.2464 11.0316 19.2473 7.73349 19.2513C6.62406 19.2513 6.00603 18.2422 6.00301 17.1617C5.99899 14.7309 5.99899 12.301 6.00301 9.87207C6.00301 9.56052 6.23113 9.24401 6.68737 8.92254C9.38056 7.02546 11.2407 5.78124 12.2677 5.18989C12.7883 4.89422 13.355 4.94383 13.968 5.33872ZM18.5625 9.95839L13.4224 6.55317C13.3038 6.47485 13.1651 6.43157 13.0225 6.4284C12.8799 6.42524 12.7394 6.46233 12.6174 6.53531C11.2025 7.37471 9.77449 8.2915 8.33343 9.28568C7.6129 9.78278 7.20591 9.94946 7.19988 10.765C7.19184 12.9419 7.19887 15.1188 7.22098 17.2957C7.22701 17.8553 7.58275 18.1321 8.14953 18.1321C11.4557 18.1341 14.6926 18.1331 17.8601 18.1291C17.9648 18.1293 18.0685 18.1092 18.1654 18.0698C18.2622 18.0304 18.3502 17.9726 18.4244 17.8996C18.4986 17.8266 18.5575 17.7399 18.5977 17.6445C18.638 17.549 18.6588 17.4467 18.659 17.3433C18.663 14.962 18.664 12.5778 18.662 10.1906C18.6669 10.1467 18.6603 10.1023 18.6429 10.0617C18.6255 10.021 18.5978 9.98548 18.5625 9.95839Z" fill="white"/>
<path d="M14.6072 11.5612L14.155 11.2011C14.1279 11.1797 14.1059 11.1529 14.0903 11.1224C14.0746 11.0919 14.0659 11.0584 14.0645 11.0243C14.0633 10.9904 14.0697 10.9566 14.0832 10.9255C14.0967 10.8943 14.117 10.8664 14.1426 10.8439L14.6913 10.3587C14.7096 10.3381 14.732 10.3217 14.7573 10.3104C14.7825 10.2991 14.8098 10.2933 14.8375 10.2933C14.8652 10.2933 14.8926 10.2991 14.9178 10.3104C14.943 10.3217 14.9655 10.3381 14.9837 10.3587L16.6539 11.8649C16.7453 11.9476 16.8093 12.0556 16.8376 12.1748C16.8659 12.294 16.8571 12.4189 16.8125 12.5331C16.7679 12.6472 16.6893 12.7451 16.587 12.814C16.4846 12.8829 16.3635 12.9193 16.2397 12.9186L9.33135 12.9156C9.28492 12.9157 9.23946 12.9025 9.20042 12.8777C9.16138 12.8529 9.13043 12.8175 9.11127 12.7757C9.04706 12.6507 9.0121 12.513 9.00897 12.3729C9.00584 12.2328 9.03462 12.0937 9.09319 11.9661C9.11367 11.9163 9.14936 11.8741 9.19529 11.8452C9.24122 11.8164 9.2951 11.8025 9.34944 11.8053H14.5198C14.5486 11.8055 14.5768 11.7969 14.6005 11.7805C14.6241 11.7642 14.642 11.7409 14.6516 11.7141C14.6612 11.6872 14.6621 11.658 14.6542 11.6306C14.6462 11.6032 14.6298 11.579 14.6072 11.5612Z" fill="white"/>
<path d="M11.261 14.8047L11.5263 15.0697C11.5478 15.0849 11.5652 15.105 11.577 15.1284C11.5888 15.1517 11.5947 15.1776 11.5941 15.2037C11.5935 15.2298 11.5865 15.2554 11.5736 15.2782C11.5607 15.301 11.5424 15.3203 11.5203 15.3346L11.0439 15.7632C10.9947 15.8067 10.9312 15.831 10.8651 15.8316C10.7991 15.8321 10.7351 15.8089 10.6852 15.7662C10.1586 15.3177 9.6491 14.8524 9.15669 14.3702C9.08727 14.3024 9.04091 14.215 9.02404 14.1201C8.89742 13.4355 9.40088 13.2897 9.97972 13.2956C12.1303 13.3154 14.2506 13.3472 16.3409 13.3909C16.393 13.392 16.4444 13.4033 16.4921 13.4242C16.5397 13.4451 16.5827 13.475 16.6186 13.5124C16.6545 13.5498 16.6825 13.5938 16.7011 13.6419C16.7196 13.69 16.7284 13.7412 16.7268 13.7927C16.7147 14.2551 16.5549 14.4902 16.2474 14.4981C14.6898 14.5398 13.0608 14.5626 11.3605 14.5666C11.1314 14.5666 11.0982 14.646 11.261 14.8047Z" fill="white"/>
</svg>
