<?xml version="1.0" encoding="UTF-8" standalone="no"?>
<!DOCTYPE svg PUBLIC "-//W3C//DTD SVG 1.1//EN" "http://www.w3.org/Graphics/SVG/1.1/DTD/svg11.dtd">
<svg xmlns="http://www.w3.org/2000/svg" version="1.1" viewBox="0.00 0.00 155.00 156.00">
<g stroke-width="2.00" fill="none" stroke-linecap="butt">
<path stroke="#797a80" vector-effect="non-scaling-stroke" d="
  M 62.54 97.80
  C 55.24 99.85 48.22 95.66 45.77 88.68
  Q 43.58 82.43 46.63 76.18
  Q 47.78 73.81 54.19 67.20
  Q 61.88 59.28 68.98 51.50
  A 0.29 0.29 0.0 0 0 68.76 51.01
  L 53.30 51.00
  A 1.36 1.34 20.9 0 0 52.30 51.44
  C 47.11 57.25 40.32 63.05 36.68 69.44
  C 31.04 79.34 32.08 91.96 39.16 101.11
  C 44.27 107.70 53.50 112.12 62.11 110.68
  C 72.38 108.97 77.02 102.87 83.71 95.87
  A 0.47 0.46 -45.0 0 0 83.72 95.22
  L 75.94 87.04
  Q 75.63 86.72 75.33 87.04
  C 71.68 90.85 67.73 96.34 62.54 97.80"
/>
<path stroke="#797a80" vector-effect="non-scaling-stroke" d="
  M 81.44 68.18
  C 88.43 61.13 99.92 63.18 103.85 72.45
  Q 106.47 78.66 104.05 84.67
  Q 102.75 87.89 98.24 92.56
  Q 90.00 101.08 82.03 109.78
  A 0.27 0.26 21.1 0 0 82.23 110.22
  L 97.55 110.23
  A 1.50 1.47 -67.4 0 0 98.61 109.78
  Q 104.66 103.59 109.61 97.98
  C 119.87 86.33 119.35 68.83 108.10 58.08
  C 98.87 49.26 84.87 49.31 75.19 57.37
  Q 71.98 60.03 66.52 66.30
  Q 66.12 66.76 66.54 67.20
  L 74.07 75.15
  Q 74.49 75.59 74.89 75.14
  Q 78.07 71.57 81.44 68.18"
/>
<path stroke="#797a80" vector-effect="non-scaling-stroke" d="
  M 69.39 79.86
  L 62.17 72.40
  A 0.99 0.99 0.0 0 0 60.77 72.38
  L 57.27 75.77
  A 6.78 6.02 -44.1 0 0 56.59 84.81
  L 56.81 85.04
  A 6.78 6.02 -44.1 0 0 65.87 84.65
  L 69.37 81.26
  A 0.99 0.99 0.0 0 0 69.39 79.86"
/>
<path stroke="#797a80" vector-effect="non-scaling-stroke" d="
  M 80.30 82.04
  L 88.29 90.17
  A 0.46 0.46 0.0 0 0 88.94 90.18
  L 92.87 86.32
  A 6.69 6.09 -44.5 0 0 93.37 77.28
  L 93.28 77.18
  A 6.69 6.09 -44.5 0 0 84.24 77.53
  L 80.31 81.39
  A 0.46 0.46 0.0 0 0 80.30 82.04"
/>
</g>
<path fill="#cdcdcd" d="
  M 0.00 0.00
  L 155.00 0.00
  L 155.00 156.00
  L 0.00 156.00
  L 0.00 0.00
  Z
  M 62.54 97.80
  C 55.24 99.85 48.22 95.66 45.77 88.68
  Q 43.58 82.43 46.63 76.18
  Q 47.78 73.81 54.19 67.20
  Q 61.88 59.28 68.98 51.50
  A 0.29 0.29 0.0 0 0 68.76 51.01
  L 53.30 51.00
  A 1.36 1.34 20.9 0 0 52.30 51.44
  C 47.11 57.25 40.32 63.05 36.68 69.44
  C 31.04 79.34 32.08 91.96 39.16 101.11
  C 44.27 107.70 53.50 112.12 62.11 110.68
  C 72.38 108.97 77.02 102.87 83.71 95.87
  A 0.47 0.46 -45.0 0 0 83.72 95.22
  L 75.94 87.04
  Q 75.63 86.72 75.33 87.04
  C 71.68 90.85 67.73 96.34 62.54 97.80
  Z
  M 81.44 68.18
  C 88.43 61.13 99.92 63.18 103.85 72.45
  Q 106.47 78.66 104.05 84.67
  Q 102.75 87.89 98.24 92.56
  Q 90.00 101.08 82.03 109.78
  A 0.27 0.26 21.1 0 0 82.23 110.22
  L 97.55 110.23
  A 1.50 1.47 -67.4 0 0 98.61 109.78
  Q 104.66 103.59 109.61 97.98
  C 119.87 86.33 119.35 68.83 108.10 58.08
  C 98.87 49.26 84.87 49.31 75.19 57.37
  Q 71.98 60.03 66.52 66.30
  Q 66.12 66.76 66.54 67.20
  L 74.07 75.15
  Q 74.49 75.59 74.89 75.14
  Q 78.07 71.57 81.44 68.18
  Z
  M 69.39 79.86
  L 62.17 72.40
  A 0.99 0.99 0.0 0 0 60.77 72.38
  L 57.27 75.77
  A 6.78 6.02 -44.1 0 0 56.59 84.81
  L 56.81 85.04
  A 6.78 6.02 -44.1 0 0 65.87 84.65
  L 69.37 81.26
  A 0.99 0.99 0.0 0 0 69.39 79.86
  Z
  M 80.30 82.04
  L 88.29 90.17
  A 0.46 0.46 0.0 0 0 88.94 90.18
  L 92.87 86.32
  A 6.69 6.09 -44.5 0 0 93.37 77.28
  L 93.28 77.18
  A 6.69 6.09 -44.5 0 0 84.24 77.53
  L 80.31 81.39
  A 0.46 0.46 0.0 0 0 80.30 82.04
  Z"
/>
<path fill="#242732" d="
  M 45.77 88.68
  C 48.22 95.66 55.24 99.85 62.54 97.80
  C 67.73 96.34 71.68 90.85 75.33 87.04
  Q 75.63 86.72 75.94 87.04
  L 83.72 95.22
  A 0.47 0.46 -45.0 0 1 83.71 95.87
  C 77.02 102.87 72.38 108.97 62.11 110.68
  C 53.50 112.12 44.27 107.70 39.16 101.11
  C 32.08 91.96 31.04 79.34 36.68 69.44
  C 40.32 63.05 47.11 57.25 52.30 51.44
  A 1.36 1.34 20.9 0 1 53.30 51.00
  L 68.76 51.01
  A 0.29 0.29 0.0 0 1 68.98 51.50
  Q 61.88 59.28 54.19 67.20
  Q 47.78 73.81 46.63 76.18
  Q 43.58 82.43 45.77 88.68
  Z"
/>
<path fill="#242732" d="
  M 103.85 72.45
  C 99.92 63.18 88.43 61.13 81.44 68.18
  Q 78.07 71.57 74.89 75.14
  Q 74.49 75.59 74.07 75.15
  L 66.54 67.20
  Q 66.12 66.76 66.52 66.30
  Q 71.98 60.03 75.19 57.37
  C 84.87 49.31 98.87 49.26 108.10 58.08
  C 119.35 68.83 119.87 86.33 109.61 97.98
  Q 104.66 103.59 98.61 109.78
  A 1.50 1.47 -67.4 0 1 97.55 110.23
  L 82.23 110.22
  A 0.27 0.26 21.1 0 1 82.03 109.78
  Q 90.00 101.08 98.24 92.56
  Q 102.75 87.89 104.05 84.67
  Q 106.47 78.66 103.85 72.45
  Z"
/>
<path fill="#242732" d="
  M 69.39 79.86
  A 0.99 0.99 0.0 0 1 69.37 81.26
  L 65.87 84.65
  A 6.78 6.02 -44.1 0 1 56.81 85.04
  L 56.59 84.81
  A 6.78 6.02 -44.1 0 1 57.27 75.77
  L 60.77 72.38
  A 0.99 0.99 0.0 0 1 62.17 72.40
  L 69.39 79.86
  Z"
/>
<path fill="#242732" d="
  M 80.30 82.04
  A 0.46 0.46 0.0 0 1 80.31 81.39
  L 84.24 77.53
  A 6.69 6.09 -44.5 0 1 93.28 77.18
  L 93.37 77.28
  A 6.69 6.09 -44.5 0 1 92.87 86.32
  L 88.94 90.18
  A 0.46 0.46 0.0 0 1 88.29 90.17
  L 80.30 82.04
  Z"
/>
</svg>
