<svg width="18" height="18" viewBox="0 0 18 18" fill="none" xmlns="http://www.w3.org/2000/svg">
<circle cx="8.9375" cy="8.9375" r="8.9375" fill="#242429"/>
<path d="M9.90116 4.06723C11.8126 5.33073 13.0758 6.20692 13.6908 6.69579C14.2195 7.11602 14.008 11.2637 14.0039 12.0916C13.9977 13.2851 13.6224 13.886 12.4179 13.886C10.1499 13.8846 7.88193 13.8853 5.61393 13.8881C4.85101 13.8881 4.42602 13.1758 4.42395 12.4131C4.42118 10.6971 4.42118 8.98186 4.42395 7.26731C4.42395 7.04739 4.58082 6.82396 4.89455 6.59704C6.74655 5.25789 8.02567 4.3796 8.73192 3.96217C9.08988 3.75346 9.47963 3.78847 9.90116 4.06723ZM13.0606 7.32824L9.52593 4.92451C9.44442 4.86922 9.34903 4.83867 9.25098 4.83643C9.15292 4.8342 9.05628 4.86038 8.9724 4.9119C7.99941 5.50443 7.01744 6.15159 6.02648 6.85338C5.531 7.20427 5.25113 7.32194 5.24698 7.89766C5.24145 9.43431 5.24629 10.971 5.26149 12.5076C5.26564 12.9026 5.51027 13.0981 5.90002 13.0981C8.17355 13.0995 10.3994 13.0988 12.5776 13.096C12.6496 13.0961 12.7209 13.0819 12.7875 13.054C12.8541 13.0262 12.9146 12.9854 12.9656 12.9339C13.0166 12.8824 13.0571 12.8212 13.0848 12.7538C13.1125 12.6865 13.1268 12.6142 13.127 12.5412C13.1297 10.8603 13.1304 9.17727 13.129 7.49213C13.1324 7.46117 13.1279 7.42985 13.1159 7.40116C13.1039 7.37247 13.0849 7.34737 13.0606 7.32824Z" fill="white"/>
<path d="M10.3342 8.45755L10.0232 8.20331C10.0046 8.18825 9.98946 8.16931 9.97872 8.14777C9.96799 8.12624 9.96196 8.10261 9.96104 8.0785C9.96019 8.05458 9.96457 8.03077 9.97385 8.00876C9.98313 7.98675 9.99709 7.96708 10.0147 7.95117L10.392 7.60868C10.4046 7.59417 10.4201 7.58255 10.4374 7.57458C10.4547 7.56662 10.4736 7.5625 10.4926 7.5625C10.5116 7.5625 10.5304 7.56662 10.5478 7.57458C10.5651 7.58255 10.5806 7.59417 10.5931 7.60868L11.7417 8.67187C11.8045 8.7303 11.8485 8.80655 11.8679 8.89069C11.8874 8.97483 11.8814 9.06296 11.8507 9.14359C11.8201 9.22411 11.766 9.29327 11.6956 9.34187C11.6252 9.39047 11.542 9.41622 11.4568 9.41569L6.70622 9.41359C6.67429 9.41364 6.64303 9.40434 6.61619 9.38683C6.58934 9.36931 6.56805 9.34431 6.55488 9.31483C6.51073 9.22659 6.48669 9.12942 6.48453 9.03051C6.48238 8.93159 6.50217 8.83344 6.54245 8.74331C6.55653 8.70818 6.58108 8.67837 6.61266 8.65803C6.64424 8.6377 6.6813 8.62785 6.71866 8.62985H10.2741C10.2939 8.63001 10.3133 8.62389 10.3296 8.61234C10.3458 8.60079 10.3581 8.58439 10.3647 8.56543C10.3714 8.54646 10.372 8.52587 10.3665 8.50654C10.361 8.4872 10.3497 8.47008 10.3342 8.45755Z" fill="white"/>
<path d="M8.03618 10.7451L8.21861 10.9321C8.2334 10.9428 8.24537 10.9571 8.2535 10.9736C8.26163 10.99 8.26566 11.0083 8.26525 11.0267C8.26484 11.0451 8.26 11.0632 8.25115 11.0793C8.2423 11.0954 8.22971 11.1091 8.21447 11.1191L7.88691 11.4217C7.85309 11.4524 7.80937 11.4696 7.76395 11.47C7.71853 11.4703 7.67454 11.4539 7.64021 11.4238C7.2781 11.1072 6.92774 10.7787 6.58913 10.4383C6.54139 10.3905 6.50951 10.3288 6.49791 10.2618C6.41084 9.77856 6.75705 9.67561 7.1551 9.67981C8.63393 9.69382 10.092 9.71623 11.5294 9.74705C11.5653 9.74786 11.6006 9.75586 11.6334 9.77059C11.6661 9.78531 11.6957 9.80647 11.7204 9.83284C11.7451 9.85922 11.7643 9.89028 11.7771 9.92424C11.7899 9.9582 11.7959 9.99438 11.7948 10.0307C11.7865 10.3571 11.6766 10.5231 11.4651 10.5287C10.394 10.5581 9.27384 10.5742 8.10459 10.577C7.94703 10.577 7.92423 10.633 8.03618 10.7451Z" fill="white"/>
</svg>
