<svg width="46" height="46" viewBox="0 0 46 46" fill="none" xmlns="http://www.w3.org/2000/svg">
<g id="Group 64839">
<circle id="Ellipse 953" cx="23" cy="23" r="23" fill="url(#paint0_linear_950_534)"/>
<path id="Vector" d="M23.0035 8.35645C14.9206 8.35645 8.36719 14.9099 8.36719 22.9928C8.36719 31.0757 14.9206 37.6292 23.0035 37.6292C31.0865 37.6292 37.6399 31.0757 37.6399 22.9928C37.6399 14.9099 31.0865 8.35645 23.0035 8.35645ZM23.0035 10.7958C29.7399 10.7958 35.2005 16.2564 35.2005 22.9928C35.2005 29.7292 29.7399 35.1898 23.0035 35.1898C16.2672 35.1898 10.8066 29.7292 10.8066 22.9928C10.8066 16.2564 16.2672 10.7958 23.0035 10.7958ZM21.7076 13.0828L21.174 23.069L21.2884 24.1363L28.7971 30.7684L29.9787 29.5487L23.7659 22.9547L23.2322 13.0828H21.7076Z" fill="white"/>
</g>
<defs>
<linearGradient id="paint0_linear_950_534" x1="23" y1="0" x2="23" y2="46" gradientUnits="userSpaceOnUse">
<stop stop-color="#1867FF"/>
<stop offset="1" stop-color="#0C15F9"/>
</linearGradient>
</defs>
</svg>
