<svg width="20" height="19" viewBox="0 0 20 19" fill="none" xmlns="http://www.w3.org/2000/svg">
<path d="M11.2518 0.951369C14.8597 3.27461 17.244 4.88569 18.4049 5.7846C19.4027 6.55729 19.0036 14.1838 18.9957 15.706C18.984 17.9005 18.2757 19.0055 16.0023 19.0055C11.7214 19.0029 7.44053 19.0042 3.15967 19.0093C1.71967 19.0093 0.917494 17.6996 0.913581 16.2972C0.908364 13.142 0.908364 9.98807 0.913581 6.83547C0.913581 6.43109 1.20967 6.02027 1.80184 5.60301C5.29749 3.14068 7.71184 1.52574 9.04488 0.758194C9.72053 0.37442 10.4562 0.438812 11.2518 0.951369ZM17.2153 6.94751L10.5436 2.52767C10.3897 2.42602 10.2097 2.36983 10.0246 2.36573C9.83953 2.36162 9.65711 2.40976 9.4988 2.50449C7.66227 3.594 5.8088 4.78395 3.93836 6.07436C3.00315 6.71956 2.47488 6.93592 2.46706 7.99451C2.45662 10.82 2.46575 13.6455 2.49445 16.471C2.50228 17.1973 2.96401 17.5567 3.69967 17.5567C7.99097 17.5592 12.1923 17.5579 16.3036 17.5528C16.4395 17.553 16.5741 17.5269 16.6998 17.4757C16.8255 17.4246 16.9397 17.3496 17.036 17.2549C17.1323 17.1601 17.2087 17.0476 17.261 16.9237C17.3132 16.7999 17.3403 16.667 17.3405 16.5328C17.3457 13.442 17.3471 10.3474 17.3444 7.24886C17.3508 7.19192 17.3422 7.13433 17.3196 7.08158C17.297 7.02882 17.2611 6.98267 17.2153 6.94751Z" fill="white"/>
<path d="M12.0825 9.02467L11.4955 8.55719C11.4604 8.5295 11.4318 8.49467 11.4115 8.45507C11.3913 8.41547 11.3799 8.37203 11.3781 8.3277C11.3765 8.28372 11.3848 8.23993 11.4023 8.19945C11.4198 8.15898 11.4462 8.12283 11.4795 8.09357L12.1917 7.46382C12.2153 7.43715 12.2445 7.41577 12.2773 7.40113C12.31 7.38648 12.3455 7.37891 12.3814 7.37891C12.4174 7.37891 12.4529 7.38648 12.4856 7.40113C12.5183 7.41577 12.5475 7.43715 12.5712 7.46382L14.739 9.41875C14.8576 9.52618 14.9407 9.66638 14.9774 9.82109C15.0141 9.9758 15.0028 10.1378 14.9449 10.2861C14.887 10.4342 14.7849 10.5613 14.6521 10.6507C14.5193 10.7401 14.3621 10.7874 14.2014 10.7864L5.23466 10.7826C5.17439 10.7827 5.11538 10.7656 5.06471 10.7334C5.01404 10.7011 4.97386 10.6552 4.949 10.601C4.86566 10.4387 4.82028 10.2601 4.81622 10.0782C4.81215 9.8963 4.84951 9.71583 4.92553 9.55011C4.95212 9.48551 4.99844 9.4307 5.05805 9.3933C5.11767 9.35591 5.18761 9.3378 5.25813 9.34148H11.969C12.0065 9.34177 12.0431 9.33052 12.0738 9.30929C12.1044 9.28805 12.1276 9.25789 12.1401 9.22302C12.1526 9.18815 12.1538 9.15029 12.1434 9.11474C12.1331 9.07918 12.1118 9.0477 12.0825 9.02467Z" fill="white"/>
<path d="M7.73714 13.2442L8.08148 13.588C8.10939 13.6078 8.13199 13.6339 8.14733 13.6642C8.16267 13.6946 8.17029 13.7281 8.16952 13.762C8.16875 13.7959 8.15961 13.8291 8.14291 13.8587C8.1262 13.8883 8.10243 13.9134 8.07366 13.9319L7.4554 14.4882C7.39156 14.5447 7.30904 14.5763 7.22331 14.577C7.13758 14.5777 7.05454 14.5475 6.98975 14.4921C6.30627 13.91 5.64496 13.306 5.00583 12.6801C4.91572 12.5922 4.85555 12.4788 4.83366 12.3556C4.66931 11.467 5.32279 11.2777 6.07409 11.2854C8.8654 11.3111 11.6176 11.3523 14.3306 11.409C14.3983 11.4105 14.465 11.4252 14.5268 11.4523C14.5887 11.4794 14.6445 11.5183 14.6911 11.5668C14.7377 11.6153 14.774 11.6724 14.7981 11.7348C14.8222 11.7973 14.8336 11.8638 14.8315 11.9306C14.8158 12.5307 14.6084 12.8359 14.2093 12.8462C12.1876 12.9003 10.0732 12.9299 7.86627 12.9351C7.56888 12.9351 7.52583 13.0381 7.73714 13.2442Z" fill="white"/>
</svg>
