<svg width="18" height="22" viewBox="0 0 18 22" fill="none" xmlns="http://www.w3.org/2000/svg">
<path id="Vector" d="M17.4351 2.8334L15.3506 0.604098C14.9889 0.217303 14.4984 2.86033e-06 13.9869 0L7.07143 0C6.00629 0 5.14286 0.923398 5.14286 2.0625V4.125H1.92857C0.863437 4.125 0 5.0484 0 6.1875V19.9375C0 21.0766 0.863437 22 1.92857 22H10.9286C11.9937 22 12.8571 21.0766 12.8571 19.9375V17.875H16.0714C17.1366 17.875 18 16.9516 18 15.8125V4.2918C18 3.7448 17.7968 3.22019 17.4351 2.8334ZM10.6875 19.9375H2.16964C2.10571 19.9375 2.04439 19.9103 1.99918 19.862C1.95397 19.8136 1.92857 19.7481 1.92857 19.6797V6.44531C1.92857 6.37694 1.95397 6.31136 1.99918 6.26301C2.04439 6.21466 2.10571 6.1875 2.16964 6.1875H5.14286V15.8125C5.14286 16.9516 6.00629 17.875 7.07143 17.875H10.9286V19.6797C10.9286 19.7481 10.9032 19.8136 10.858 19.862C10.8128 19.9103 10.7514 19.9375 10.6875 19.9375ZM15.8304 15.8125H7.3125C7.24856 15.8125 7.18725 15.7853 7.14204 15.737C7.09683 15.6886 7.07143 15.6231 7.07143 15.5547V2.32031C7.07143 2.25194 7.09683 2.18636 7.14204 2.13801C7.18725 2.08966 7.24856 2.0625 7.3125 2.0625H11.5714V5.84375C11.5714 6.4133 12.0031 6.875 12.5357 6.875H16.0714V15.5547C16.0714 15.6231 16.046 15.6886 16.0008 15.737C15.9556 15.7853 15.8943 15.8125 15.8304 15.8125ZM16.0714 4.8125H13.5V2.0625H13.887C13.9509 2.0625 14.0122 2.08966 14.0575 2.138L16.0008 4.21631C16.0232 4.24025 16.041 4.26868 16.0531 4.29996C16.0652 4.33124 16.0714 4.36477 16.0714 4.39862V4.8125Z" fill="#2966FF"/>
</svg>
