<svg width="11" height="11" viewBox="0 0 11 11" fill="none" xmlns="http://www.w3.org/2000/svg">
<path d="M1.89865 11H6.90129C7.86297 11 8.6515 10.2785 8.77481 9.35H9.10129C10.1482 9.35 11 8.49816 11 7.45135V1.89865C11 0.85184 10.1482 0 9.10135 0H4.09865C3.05184 0 2.2 0.85184 2.2 1.89865V2.2H1.89865C0.85184 2.2 0 3.05184 0 4.09865V9.10129C0 10.1482 0.85184 11 1.89865 11ZM3.3 1.89865C3.3 1.45827 3.65827 1.1 4.09865 1.1H9.10129C9.54173 1.1 9.9 1.45827 9.9 1.89865V7.45129C9.9 7.89173 9.54173 8.25 9.10135 8.25H8.8V4.09865C8.8 3.05184 7.94816 2.2 6.90135 2.2H3.3V1.89865ZM1.1 4.09865C1.1 3.65827 1.45827 3.3 1.89865 3.3H6.90129C7.34173 3.3 7.7 3.65827 7.7 4.09865V9.10129C7.7 9.54173 7.34173 9.9 6.90135 9.9H1.89865C1.45827 9.9 1.1 9.54173 1.1 9.10135V4.09865Z" fill="white"/>
</svg>
