<svg width="8" height="8" viewBox="0 0 8 8" fill="none" xmlns="http://www.w3.org/2000/svg">
<path d="M2.91663 6.50002C2.13564 6.50002 1.49997 5.86435 1.49997 5.08336V1.6668H0.91667C0.411003 1.6668 0 2.07774 0 2.5834V7.08332C0 7.58899 0.411003 8 0.91667 8H5.08322C5.58889 8 5.99989 7.58899 5.99989 7.08332V6.50002H2.91663Z" fill="#4D6090"/>
<path d="M7.33301 0.916671C7.33301 0.410332 6.92268 0 6.4164 0H2.91647C2.41013 0 1.9998 0.410332 1.9998 0.916671V5.08322C1.9998 5.58956 2.41013 5.99989 2.91647 5.99989H6.4164C6.92268 5.99989 7.33301 5.58956 7.33301 5.08322V0.916671Z" fill="#4D6090"/>
</svg>
