<svg width="40" height="40" viewBox="0 0 40 40" fill="none" xmlns="http://www.w3.org/2000/svg">
<g id="Group 64128">
<rect id="Rectangle 6" x="0.5" y="-0.5" width="39" height="39" rx="19.5" transform="matrix(1 0 0 -1 0 39)" fill="" stroke=""/>
<g id="Group 64215">
<g id="Group 64128_2">
<rect id="Rectangle 6_2" x="0.5" y="-0.5" width="39" height="39" rx="19.5" transform="matrix(1 0 0 -1 0 39)" fill="" stroke=""/>
</g>
<path id="Vector" d="M26.8409 18.9546H21.0454V13.1591C21.0454 12.5193 20.5262 12 19.8863 12H19.1137C18.4738 12 17.9546 12.5193 17.9546 13.1591V18.9546H12.1591C11.5193 18.9546 11 19.4738 11 20.1137V20.8863C11 21.5262 11.5193 22.0454 12.1591 22.0454H17.9546V27.8409C17.9546 28.4807 18.4738 29 19.1137 29H19.8863C20.5262 29 21.0454 28.4807 21.0454 27.8409V22.0454H26.8409C27.4807 22.0454 28 21.5262 28 20.8863V20.1137C28 19.4738 27.4807 18.9546 26.8409 18.9546Z" fill="white"/>
</g>
</g>
</svg>
