<svg width="14" height="13" viewBox="0 0 14 13" fill="none" xmlns="http://www.w3.org/2000/svg">
<g id="Layer 2">
<path id="Vector" d="M11.6788 0.663131H10.1226V0.442088C10.1226 0.324839 10.0761 0.212392 9.99315 0.129484C9.91024 0.0465769 9.7978 0 9.68055 0C9.5633 0 9.45085 0.0465769 9.36794 0.129484C9.28504 0.212392 9.23846 0.324839 9.23846 0.442088V0.663131H4.57886V0.442088C4.57886 0.324839 4.53228 0.212392 4.44937 0.129484C4.36646 0.0465769 4.25402 0 4.13677 0C4.01952 0 3.90707 0.0465769 3.82417 0.129484C3.74126 0.212392 3.69468 0.324839 3.69468 0.442088V0.663131H2.13853C1.64527 0.664299 1.17255 0.860763 0.823763 1.20955C0.474975 1.55834 0.278511 2.03106 0.277344 2.52432V10.2785C0.278511 10.7718 0.474975 11.2445 0.823763 11.5933C1.17255 11.9421 1.64527 12.1386 2.13853 12.1397H11.6788C12.172 12.1386 12.6448 11.9421 12.9936 11.5933C13.3423 11.2445 13.5388 10.7718 13.54 10.2785V2.52432C13.5388 2.03106 13.3423 1.55834 12.9936 1.20955C12.6448 0.860763 12.172 0.664299 11.6788 0.663131ZM2.13853 1.54731H3.69468V1.76835C3.69468 1.8856 3.74126 1.99805 3.82417 2.08095C3.90707 2.16386 4.01952 2.21044 4.13677 2.21044C4.25402 2.21044 4.36646 2.16386 4.44937 2.08095C4.53228 1.99805 4.57886 1.8856 4.57886 1.76835V1.54731H9.23846V1.76835C9.23846 1.8856 9.28504 1.99805 9.36794 2.08095C9.45085 2.16386 9.5633 2.21044 9.68055 2.21044C9.7978 2.21044 9.91024 2.16386 9.99315 2.08095C10.0761 1.99805 10.1226 1.8856 10.1226 1.76835V1.54731H11.6788C11.9379 1.54731 12.1864 1.65024 12.3696 1.83347C12.5529 2.01669 12.6558 2.2652 12.6558 2.52432V3.57207H1.16152V2.52432C1.16152 2.2652 1.26445 2.01669 1.44768 1.83347C1.63091 1.65024 1.87941 1.54731 2.13853 1.54731ZM11.6788 11.2732H2.13853C2.00873 11.2733 1.88022 11.2474 1.76052 11.1972C1.64081 11.147 1.53231 11.0735 1.44135 10.9808C1.35039 10.8882 1.2788 10.7784 1.23075 10.6579C1.18271 10.5373 1.15917 10.4083 1.16152 10.2785V4.45624H12.6558V10.2785C12.6581 10.4083 12.6346 10.5373 12.5866 10.6579C12.5385 10.7784 12.4669 10.8882 12.376 10.9808C12.285 11.0735 12.1765 11.147 12.0568 11.1972C11.9371 11.2474 11.8086 11.2733 11.6788 11.2732Z" fill="#697F9B"/>
</g>
</svg>
