<svg width="640" height="393" viewBox="0 0 640 393" fill="none" xmlns="http://www.w3.org/2000/svg">
<path d="M16.9904 348.31C16.9904 347.163 17.177 346.27 17.5504 345.63C17.9237 344.983 18.577 344.66 19.5104 344.66C20.437 344.66 21.087 344.983 21.4604 345.63C21.8337 346.27 22.0204 347.163 22.0204 348.31C22.0204 349.477 21.8337 350.383 21.4604 351.03C21.087 351.677 20.437 352 19.5104 352C18.577 352 17.9237 351.677 17.5504 351.03C17.177 350.383 16.9904 349.477 16.9904 348.31ZM21.1204 348.31C21.1204 347.73 21.0804 347.24 21.0004 346.84C20.927 346.433 20.7704 346.107 20.5304 345.86C20.297 345.613 19.957 345.49 19.5104 345.49C19.057 345.49 18.7104 345.613 18.4704 345.86C18.237 346.107 18.0804 346.433 18.0004 346.84C17.927 347.24 17.8904 347.73 17.8904 348.31C17.8904 348.91 17.927 349.413 18.0004 349.82C18.0804 350.227 18.237 350.553 18.4704 350.8C18.7104 351.047 19.057 351.17 19.5104 351.17C19.957 351.17 20.297 351.047 20.5304 350.8C20.7704 350.553 20.927 350.227 21.0004 349.82C21.0804 349.413 21.1204 348.91 21.1204 348.31Z" fill="#0C15F9"/>
<path d="M16.9904 348.31C16.9904 347.163 17.177 346.27 17.5504 345.63C17.9237 344.983 18.577 344.66 19.5104 344.66C20.437 344.66 21.087 344.983 21.4604 345.63C21.8337 346.27 22.0204 347.163 22.0204 348.31C22.0204 349.477 21.8337 350.383 21.4604 351.03C21.087 351.677 20.437 352 19.5104 352C18.577 352 17.9237 351.677 17.5504 351.03C17.177 350.383 16.9904 349.477 16.9904 348.31ZM21.1204 348.31C21.1204 347.73 21.0804 347.24 21.0004 346.84C20.927 346.433 20.7704 346.107 20.5304 345.86C20.297 345.613 19.957 345.49 19.5104 345.49C19.057 345.49 18.7104 345.613 18.4704 345.86C18.237 346.107 18.0804 346.433 18.0004 346.84C17.927 347.24 17.8904 347.73 17.8904 348.31C17.8904 348.91 17.927 349.413 18.0004 349.82C18.0804 350.227 18.237 350.553 18.4704 350.8C18.7104 351.047 19.057 351.17 19.5104 351.17C19.957 351.17 20.297 351.047 20.5304 350.8C20.7704 350.553 20.927 350.227 21.0004 349.82C21.0804 349.413 21.1204 348.91 21.1204 348.31Z" fill="#737373"/>
<path d="M13.1545 297.6V296.77H15.0345V304H14.1145V297.6H13.1545ZM16.5977 300.31C16.5977 299.163 16.7843 298.27 17.1577 297.63C17.531 296.983 18.1843 296.66 19.1177 296.66C20.0443 296.66 20.6943 296.983 21.0677 297.63C21.441 298.27 21.6277 299.163 21.6277 300.31C21.6277 301.477 21.441 302.383 21.0677 303.03C20.6943 303.677 20.0443 304 19.1177 304C18.1843 304 17.531 303.677 17.1577 303.03C16.7843 302.383 16.5977 301.477 16.5977 300.31ZM20.7277 300.31C20.7277 299.73 20.6877 299.24 20.6077 298.84C20.5343 298.433 20.3777 298.107 20.1377 297.86C19.9043 297.613 19.5643 297.49 19.1177 297.49C18.6643 297.49 18.3177 297.613 18.0777 297.86C17.8443 298.107 17.6877 298.433 17.6077 298.84C17.5343 299.24 17.4977 299.73 17.4977 300.31C17.4977 300.91 17.5343 301.413 17.6077 301.82C17.6877 302.227 17.8443 302.553 18.0777 302.8C18.3177 303.047 18.6643 303.17 19.1177 303.17C19.5643 303.17 19.9043 303.047 20.1377 302.8C20.3777 302.553 20.5343 302.227 20.6077 301.82C20.6877 301.413 20.7277 300.91 20.7277 300.31Z" fill="#0C15F9"/>
<path d="M13.1545 297.6V296.77H15.0345V304H14.1145V297.6H13.1545ZM16.5977 300.31C16.5977 299.163 16.7843 298.27 17.1577 297.63C17.531 296.983 18.1843 296.66 19.1177 296.66C20.0443 296.66 20.6943 296.983 21.0677 297.63C21.441 298.27 21.6277 299.163 21.6277 300.31C21.6277 301.477 21.441 302.383 21.0677 303.03C20.6943 303.677 20.0443 304 19.1177 304C18.1843 304 17.531 303.677 17.1577 303.03C16.7843 302.383 16.5977 301.477 16.5977 300.31ZM20.7277 300.31C20.7277 299.73 20.6877 299.24 20.6077 298.84C20.5343 298.433 20.3777 298.107 20.1377 297.86C19.9043 297.613 19.5643 297.49 19.1177 297.49C18.6643 297.49 18.3177 297.613 18.0777 297.86C17.8443 298.107 17.6877 298.433 17.6077 298.84C17.5343 299.24 17.4977 299.73 17.4977 300.31C17.4977 300.91 17.5343 301.413 17.6077 301.82C17.6877 302.227 17.8443 302.553 18.0777 302.8C18.3177 303.047 18.6643 303.17 19.1177 303.17C19.5643 303.17 19.9043 303.047 20.1377 302.8C20.3777 302.553 20.5343 302.227 20.6077 301.82C20.6877 301.413 20.7277 300.91 20.7277 300.31Z" fill="#737373"/>
<path d="M10.5361 249.59C10.5827 248.977 10.8194 248.497 11.2461 248.15C11.6727 247.803 12.2261 247.63 12.9061 247.63C13.3594 247.63 13.7494 247.713 14.0761 247.88C14.4094 248.04 14.6594 248.26 14.8261 248.54C14.9994 248.82 15.0861 249.137 15.0861 249.49C15.0861 249.903 14.9661 250.26 14.7261 250.56C14.4927 250.86 14.1861 251.053 13.8061 251.14V251.19C14.2394 251.297 14.5827 251.507 14.8361 251.82C15.0894 252.133 15.2161 252.543 15.2161 253.05C15.2161 253.43 15.1294 253.773 14.9561 254.08C14.7827 254.38 14.5227 254.617 14.1761 254.79C13.8294 254.963 13.4127 255.05 12.9261 255.05C12.2194 255.05 11.6394 254.867 11.1861 254.5C10.7327 254.127 10.4794 253.6 10.4261 252.92H11.3061C11.3527 253.32 11.5161 253.647 11.7961 253.9C12.0761 254.153 12.4494 254.28 12.9161 254.28C13.3827 254.28 13.7361 254.16 13.9761 253.92C14.2227 253.673 14.3461 253.357 14.3461 252.97C14.3461 252.47 14.1794 252.11 13.8461 251.89C13.5127 251.67 13.0094 251.56 12.3361 251.56H12.1061V250.8H12.3461C12.9594 250.793 13.4227 250.693 13.7361 250.5C14.0494 250.3 14.2061 249.993 14.2061 249.58C14.2061 249.227 14.0894 248.943 13.8561 248.73C13.6294 248.517 13.3027 248.41 12.8761 248.41C12.4627 248.41 12.1294 248.517 11.8761 248.73C11.6227 248.943 11.4727 249.23 11.4261 249.59H10.5361ZM16.4447 251.31C16.4447 250.163 16.6314 249.27 17.0047 248.63C17.3781 247.983 18.0314 247.66 18.9647 247.66C19.8914 247.66 20.5414 247.983 20.9147 248.63C21.2881 249.27 21.4747 250.163 21.4747 251.31C21.4747 252.477 21.2881 253.383 20.9147 254.03C20.5414 254.677 19.8914 255 18.9647 255C18.0314 255 17.3781 254.677 17.0047 254.03C16.6314 253.383 16.4447 252.477 16.4447 251.31ZM20.5747 251.31C20.5747 250.73 20.5347 250.24 20.4547 249.84C20.3814 249.433 20.2247 249.107 19.9847 248.86C19.7514 248.613 19.4114 248.49 18.9647 248.49C18.5114 248.49 18.1647 248.613 17.9247 248.86C17.6914 249.107 17.5347 249.433 17.4547 249.84C17.3814 250.24 17.3447 250.73 17.3447 251.31C17.3447 251.91 17.3814 252.413 17.4547 252.82C17.5347 253.227 17.6914 253.553 17.9247 253.8C18.1647 254.047 18.5114 254.17 18.9647 254.17C19.4114 254.17 19.7514 254.047 19.9847 253.8C20.2247 253.553 20.3814 253.227 20.4547 252.82C20.5347 252.413 20.5747 251.91 20.5747 251.31Z" fill="#0C15F9"/>
<path d="M10.5361 249.59C10.5827 248.977 10.8194 248.497 11.2461 248.15C11.6727 247.803 12.2261 247.63 12.9061 247.63C13.3594 247.63 13.7494 247.713 14.0761 247.88C14.4094 248.04 14.6594 248.26 14.8261 248.54C14.9994 248.82 15.0861 249.137 15.0861 249.49C15.0861 249.903 14.9661 250.26 14.7261 250.56C14.4927 250.86 14.1861 251.053 13.8061 251.14V251.19C14.2394 251.297 14.5827 251.507 14.8361 251.82C15.0894 252.133 15.2161 252.543 15.2161 253.05C15.2161 253.43 15.1294 253.773 14.9561 254.08C14.7827 254.38 14.5227 254.617 14.1761 254.79C13.8294 254.963 13.4127 255.05 12.9261 255.05C12.2194 255.05 11.6394 254.867 11.1861 254.5C10.7327 254.127 10.4794 253.6 10.4261 252.92H11.3061C11.3527 253.32 11.5161 253.647 11.7961 253.9C12.0761 254.153 12.4494 254.28 12.9161 254.28C13.3827 254.28 13.7361 254.16 13.9761 253.92C14.2227 253.673 14.3461 253.357 14.3461 252.97C14.3461 252.47 14.1794 252.11 13.8461 251.89C13.5127 251.67 13.0094 251.56 12.3361 251.56H12.1061V250.8H12.3461C12.9594 250.793 13.4227 250.693 13.7361 250.5C14.0494 250.3 14.2061 249.993 14.2061 249.58C14.2061 249.227 14.0894 248.943 13.8561 248.73C13.6294 248.517 13.3027 248.41 12.8761 248.41C12.4627 248.41 12.1294 248.517 11.8761 248.73C11.6227 248.943 11.4727 249.23 11.4261 249.59H10.5361ZM16.4447 251.31C16.4447 250.163 16.6314 249.27 17.0047 248.63C17.3781 247.983 18.0314 247.66 18.9647 247.66C19.8914 247.66 20.5414 247.983 20.9147 248.63C21.2881 249.27 21.4747 250.163 21.4747 251.31C21.4747 252.477 21.2881 253.383 20.9147 254.03C20.5414 254.677 19.8914 255 18.9647 255C18.0314 255 17.3781 254.677 17.0047 254.03C16.6314 253.383 16.4447 252.477 16.4447 251.31ZM20.5747 251.31C20.5747 250.73 20.5347 250.24 20.4547 249.84C20.3814 249.433 20.2247 249.107 19.9847 248.86C19.7514 248.613 19.4114 248.49 18.9647 248.49C18.5114 248.49 18.1647 248.613 17.9247 248.86C17.6914 249.107 17.5347 249.433 17.4547 249.84C17.3814 250.24 17.3447 250.73 17.3447 251.31C17.3447 251.91 17.3814 252.413 17.4547 252.82C17.5347 253.227 17.6914 253.553 17.9247 253.8C18.1647 254.047 18.5114 254.17 18.9647 254.17C19.4114 254.17 19.7514 254.047 19.9847 253.8C20.2247 253.553 20.3814 253.227 20.4547 252.82C20.5347 252.413 20.5747 251.91 20.5747 251.31Z" fill="#737373"/>
<path d="M14.3566 200.49C14.2099 199.75 13.7532 199.38 12.9866 199.38C12.3932 199.38 11.9499 199.61 11.6566 200.07C11.3632 200.523 11.2199 201.273 11.2266 202.32C11.3799 201.973 11.6332 201.703 11.9866 201.51C12.3466 201.31 12.7466 201.21 13.1866 201.21C13.8732 201.21 14.4199 201.423 14.8266 201.85C15.2399 202.277 15.4466 202.867 15.4466 203.62C15.4466 204.073 15.3566 204.48 15.1766 204.84C15.0032 205.2 14.7366 205.487 14.3766 205.7C14.0232 205.913 13.5932 206.02 13.0866 206.02C12.3999 206.02 11.8632 205.867 11.4766 205.56C11.0899 205.253 10.8199 204.83 10.6666 204.29C10.5132 203.75 10.4366 203.083 10.4366 202.29C10.4366 199.843 11.2899 198.62 12.9966 198.62C13.6499 198.62 14.1632 198.797 14.5366 199.15C14.9099 199.503 15.1299 199.95 15.1966 200.49H14.3566ZM12.9966 201.98C12.7099 201.98 12.4399 202.04 12.1866 202.16C11.9332 202.273 11.7266 202.45 11.5666 202.69C11.4132 202.923 11.3366 203.21 11.3366 203.55C11.3366 204.057 11.4832 204.47 11.7766 204.79C12.0699 205.103 12.4899 205.26 13.0366 205.26C13.5032 205.26 13.8732 205.117 14.1466 204.83C14.4266 204.537 14.5666 204.143 14.5666 203.65C14.5666 203.13 14.4332 202.723 14.1666 202.43C13.8999 202.13 13.5099 201.98 12.9966 201.98ZM16.6742 202.31C16.6742 201.163 16.8609 200.27 17.2342 199.63C17.6076 198.983 18.2609 198.66 19.1942 198.66C20.1209 198.66 20.7709 198.983 21.1442 199.63C21.5176 200.27 21.7042 201.163 21.7042 202.31C21.7042 203.477 21.5176 204.383 21.1442 205.03C20.7709 205.677 20.1209 206 19.1942 206C18.2609 206 17.6076 205.677 17.2342 205.03C16.8609 204.383 16.6742 203.477 16.6742 202.31ZM20.8042 202.31C20.8042 201.73 20.7642 201.24 20.6842 200.84C20.6109 200.433 20.4542 200.107 20.2142 199.86C19.9809 199.613 19.6409 199.49 19.1942 199.49C18.7409 199.49 18.3942 199.613 18.1542 199.86C17.9209 200.107 17.7642 200.433 17.6842 200.84C17.6109 201.24 17.5742 201.73 17.5742 202.31C17.5742 202.91 17.6109 203.413 17.6842 203.82C17.7642 204.227 17.9209 204.553 18.1542 204.8C18.3942 205.047 18.7409 205.17 19.1942 205.17C19.6409 205.17 19.9809 205.047 20.2142 204.8C20.4542 204.553 20.6109 204.227 20.6842 203.82C20.7642 203.413 20.8042 202.91 20.8042 202.31Z" fill="#0C15F9"/>
<path d="M14.3566 200.49C14.2099 199.75 13.7532 199.38 12.9866 199.38C12.3932 199.38 11.9499 199.61 11.6566 200.07C11.3632 200.523 11.2199 201.273 11.2266 202.32C11.3799 201.973 11.6332 201.703 11.9866 201.51C12.3466 201.31 12.7466 201.21 13.1866 201.21C13.8732 201.21 14.4199 201.423 14.8266 201.85C15.2399 202.277 15.4466 202.867 15.4466 203.62C15.4466 204.073 15.3566 204.48 15.1766 204.84C15.0032 205.2 14.7366 205.487 14.3766 205.7C14.0232 205.913 13.5932 206.02 13.0866 206.02C12.3999 206.02 11.8632 205.867 11.4766 205.56C11.0899 205.253 10.8199 204.83 10.6666 204.29C10.5132 203.75 10.4366 203.083 10.4366 202.29C10.4366 199.843 11.2899 198.62 12.9966 198.62C13.6499 198.62 14.1632 198.797 14.5366 199.15C14.9099 199.503 15.1299 199.95 15.1966 200.49H14.3566ZM12.9966 201.98C12.7099 201.98 12.4399 202.04 12.1866 202.16C11.9332 202.273 11.7266 202.45 11.5666 202.69C11.4132 202.923 11.3366 203.21 11.3366 203.55C11.3366 204.057 11.4832 204.47 11.7766 204.79C12.0699 205.103 12.4899 205.26 13.0366 205.26C13.5032 205.26 13.8732 205.117 14.1466 204.83C14.4266 204.537 14.5666 204.143 14.5666 203.65C14.5666 203.13 14.4332 202.723 14.1666 202.43C13.8999 202.13 13.5099 201.98 12.9966 201.98ZM16.6742 202.31C16.6742 201.163 16.8609 200.27 17.2342 199.63C17.6076 198.983 18.2609 198.66 19.1942 198.66C20.1209 198.66 20.7709 198.983 21.1442 199.63C21.5176 200.27 21.7042 201.163 21.7042 202.31C21.7042 203.477 21.5176 204.383 21.1442 205.03C20.7709 205.677 20.1209 206 19.1942 206C18.2609 206 17.6076 205.677 17.2342 205.03C16.8609 204.383 16.6742 203.477 16.6742 202.31ZM20.8042 202.31C20.8042 201.73 20.7642 201.24 20.6842 200.84C20.6109 200.433 20.4542 200.107 20.2142 199.86C19.9809 199.613 19.6409 199.49 19.1942 199.49C18.7409 199.49 18.3942 199.613 18.1542 199.86C17.9209 200.107 17.7642 200.433 17.6842 200.84C17.6109 201.24 17.5742 201.73 17.5742 202.31C17.5742 202.91 17.6109 203.413 17.6842 203.82C17.7642 204.227 17.9209 204.553 18.1542 204.8C18.3942 205.047 18.7409 205.17 19.1942 205.17C19.6409 205.17 19.9809 205.047 20.2142 204.8C20.4542 204.553 20.6109 204.227 20.6842 203.82C20.7642 203.413 20.8042 202.91 20.8042 202.31Z" fill="#737373"/>
<path d="M11.6661 153.24C11.2928 153.093 11.0061 152.88 10.8061 152.6C10.6061 152.32 10.5061 151.98 10.5061 151.58C10.5061 151.22 10.5961 150.897 10.7761 150.61C10.9561 150.317 11.2228 150.087 11.5761 149.92C11.9361 149.747 12.3694 149.66 12.8761 149.66C13.3828 149.66 13.8128 149.747 14.1661 149.92C14.5261 150.087 14.7961 150.317 14.9761 150.61C15.1628 150.897 15.2561 151.22 15.2561 151.58C15.2561 151.967 15.1528 152.307 14.9461 152.6C14.7394 152.887 14.4561 153.1 14.0961 153.24C14.5094 153.367 14.8361 153.59 15.0761 153.91C15.3228 154.223 15.4461 154.603 15.4461 155.05C15.4461 155.483 15.3394 155.863 15.1261 156.19C14.9128 156.51 14.6094 156.76 14.2161 156.94C13.8294 157.113 13.3828 157.2 12.8761 157.2C12.3694 157.2 11.9228 157.113 11.5361 156.94C11.1561 156.76 10.8594 156.51 10.6461 156.19C10.4328 155.863 10.3261 155.483 10.3261 155.05C10.3261 154.603 10.4461 154.22 10.6861 153.9C10.9261 153.58 11.2528 153.36 11.6661 153.24ZM14.3761 151.69C14.3761 151.283 14.2428 150.97 13.9761 150.75C13.7094 150.53 13.3428 150.42 12.8761 150.42C12.4161 150.42 12.0528 150.53 11.7861 150.75C11.5194 150.97 11.3861 151.287 11.3861 151.7C11.3861 152.073 11.5228 152.373 11.7961 152.6C12.0761 152.827 12.4361 152.94 12.8761 152.94C13.3228 152.94 13.6828 152.827 13.9561 152.6C14.2361 152.367 14.3761 152.063 14.3761 151.69ZM12.8761 153.64C12.3828 153.64 11.9794 153.757 11.6661 153.99C11.3528 154.217 11.1961 154.56 11.1961 155.02C11.1961 155.447 11.3461 155.79 11.6461 156.05C11.9528 156.31 12.3628 156.44 12.8761 156.44C13.3894 156.44 13.7961 156.31 14.0961 156.05C14.3961 155.79 14.5461 155.447 14.5461 155.02C14.5461 154.573 14.3928 154.233 14.0861 154C13.7794 153.76 13.3761 153.64 12.8761 153.64ZM16.6547 153.31C16.6547 152.163 16.8414 151.27 17.2147 150.63C17.588 149.983 18.2414 149.66 19.1747 149.66C20.1014 149.66 20.7514 149.983 21.1247 150.63C21.498 151.27 21.6847 152.163 21.6847 153.31C21.6847 154.477 21.498 155.383 21.1247 156.03C20.7514 156.677 20.1014 157 19.1747 157C18.2414 157 17.588 156.677 17.2147 156.03C16.8414 155.383 16.6547 154.477 16.6547 153.31ZM20.7847 153.31C20.7847 152.73 20.7447 152.24 20.6647 151.84C20.5914 151.433 20.4347 151.107 20.1947 150.86C19.9614 150.613 19.6214 150.49 19.1747 150.49C18.7214 150.49 18.3747 150.613 18.1347 150.86C17.9014 151.107 17.7447 151.433 17.6647 151.84C17.5914 152.24 17.5547 152.73 17.5547 153.31C17.5547 153.91 17.5914 154.413 17.6647 154.82C17.7447 155.227 17.9014 155.553 18.1347 155.8C18.3747 156.047 18.7214 156.17 19.1747 156.17C19.6214 156.17 19.9614 156.047 20.1947 155.8C20.4347 155.553 20.5914 155.227 20.6647 154.82C20.7447 154.413 20.7847 153.91 20.7847 153.31Z" fill="#0C15F9"/>
<path d="M11.6661 153.24C11.2928 153.093 11.0061 152.88 10.8061 152.6C10.6061 152.32 10.5061 151.98 10.5061 151.58C10.5061 151.22 10.5961 150.897 10.7761 150.61C10.9561 150.317 11.2228 150.087 11.5761 149.92C11.9361 149.747 12.3694 149.66 12.8761 149.66C13.3828 149.66 13.8128 149.747 14.1661 149.92C14.5261 150.087 14.7961 150.317 14.9761 150.61C15.1628 150.897 15.2561 151.22 15.2561 151.58C15.2561 151.967 15.1528 152.307 14.9461 152.6C14.7394 152.887 14.4561 153.1 14.0961 153.24C14.5094 153.367 14.8361 153.59 15.0761 153.91C15.3228 154.223 15.4461 154.603 15.4461 155.05C15.4461 155.483 15.3394 155.863 15.1261 156.19C14.9128 156.51 14.6094 156.76 14.2161 156.94C13.8294 157.113 13.3828 157.2 12.8761 157.2C12.3694 157.2 11.9228 157.113 11.5361 156.94C11.1561 156.76 10.8594 156.51 10.6461 156.19C10.4328 155.863 10.3261 155.483 10.3261 155.05C10.3261 154.603 10.4461 154.22 10.6861 153.9C10.9261 153.58 11.2528 153.36 11.6661 153.24ZM14.3761 151.69C14.3761 151.283 14.2428 150.97 13.9761 150.75C13.7094 150.53 13.3428 150.42 12.8761 150.42C12.4161 150.42 12.0528 150.53 11.7861 150.75C11.5194 150.97 11.3861 151.287 11.3861 151.7C11.3861 152.073 11.5228 152.373 11.7961 152.6C12.0761 152.827 12.4361 152.94 12.8761 152.94C13.3228 152.94 13.6828 152.827 13.9561 152.6C14.2361 152.367 14.3761 152.063 14.3761 151.69ZM12.8761 153.64C12.3828 153.64 11.9794 153.757 11.6661 153.99C11.3528 154.217 11.1961 154.56 11.1961 155.02C11.1961 155.447 11.3461 155.79 11.6461 156.05C11.9528 156.31 12.3628 156.44 12.8761 156.44C13.3894 156.44 13.7961 156.31 14.0961 156.05C14.3961 155.79 14.5461 155.447 14.5461 155.02C14.5461 154.573 14.3928 154.233 14.0861 154C13.7794 153.76 13.3761 153.64 12.8761 153.64ZM16.6547 153.31C16.6547 152.163 16.8414 151.27 17.2147 150.63C17.588 149.983 18.2414 149.66 19.1747 149.66C20.1014 149.66 20.7514 149.983 21.1247 150.63C21.498 151.27 21.6847 152.163 21.6847 153.31C21.6847 154.477 21.498 155.383 21.1247 156.03C20.7514 156.677 20.1014 157 19.1747 157C18.2414 157 17.588 156.677 17.2147 156.03C16.8414 155.383 16.6547 154.477 16.6547 153.31ZM20.7847 153.31C20.7847 152.73 20.7447 152.24 20.6647 151.84C20.5914 151.433 20.4347 151.107 20.1947 150.86C19.9614 150.613 19.6214 150.49 19.1747 150.49C18.7214 150.49 18.3747 150.613 18.1347 150.86C17.9014 151.107 17.7447 151.433 17.6647 151.84C17.5914 152.24 17.5547 152.73 17.5547 153.31C17.5547 153.91 17.5914 154.413 17.6647 154.82C17.7447 155.227 17.9014 155.553 18.1347 155.8C18.3747 156.047 18.7214 156.17 19.1747 156.17C19.6214 156.17 19.9614 156.047 20.1947 155.8C20.4347 155.553 20.5914 155.227 20.6647 154.82C20.7447 154.413 20.7847 153.91 20.7847 153.31Z" fill="#737373"/>
<path d="M6.52491 101.6V100.77H8.40491V108H7.48491V101.6H6.52491ZM9.96803 104.31C9.96803 103.163 10.1547 102.27 10.528 101.63C10.9014 100.983 11.5547 100.66 12.488 100.66C13.4147 100.66 14.0647 100.983 14.438 101.63C14.8114 102.27 14.998 103.163 14.998 104.31C14.998 105.477 14.8114 106.383 14.438 107.03C14.0647 107.677 13.4147 108 12.488 108C11.5547 108 10.9014 107.677 10.528 107.03C10.1547 106.383 9.96803 105.477 9.96803 104.31ZM14.098 104.31C14.098 103.73 14.058 103.24 13.978 102.84C13.9047 102.433 13.748 102.107 13.508 101.86C13.2747 101.613 12.9347 101.49 12.488 101.49C12.0347 101.49 11.688 101.613 11.448 101.86C11.2147 102.107 11.058 102.433 10.978 102.84C10.9047 103.24 10.868 103.73 10.868 104.31C10.868 104.91 10.9047 105.413 10.978 105.82C11.058 106.227 11.2147 106.553 11.448 106.8C11.688 107.047 12.0347 107.17 12.488 107.17C12.9347 107.17 13.2747 107.047 13.508 106.8C13.748 106.553 13.9047 106.227 13.978 105.82C14.058 105.413 14.098 104.91 14.098 104.31ZM16.2473 104.31C16.2473 103.163 16.434 102.27 16.8073 101.63C17.1807 100.983 17.834 100.66 18.7673 100.66C19.694 100.66 20.344 100.983 20.7173 101.63C21.0907 102.27 21.2773 103.163 21.2773 104.31C21.2773 105.477 21.0907 106.383 20.7173 107.03C20.344 107.677 19.694 108 18.7673 108C17.834 108 17.1807 107.677 16.8073 107.03C16.434 106.383 16.2473 105.477 16.2473 104.31ZM20.3773 104.31C20.3773 103.73 20.3373 103.24 20.2573 102.84C20.184 102.433 20.0273 102.107 19.7873 101.86C19.554 101.613 19.214 101.49 18.7673 101.49C18.314 101.49 17.9673 101.613 17.7273 101.86C17.494 102.107 17.3373 102.433 17.2573 102.84C17.184 103.24 17.1473 103.73 17.1473 104.31C17.1473 104.91 17.184 105.413 17.2573 105.82C17.3373 106.227 17.494 106.553 17.7273 106.8C17.9673 107.047 18.314 107.17 18.7673 107.17C19.214 107.17 19.554 107.047 19.7873 106.8C20.0273 106.553 20.184 106.227 20.2573 105.82C20.3373 105.413 20.3773 104.91 20.3773 104.31Z" fill="#0C15F9"/>
<path d="M6.52491 101.6V100.77H8.40491V108H7.48491V101.6H6.52491ZM9.96803 104.31C9.96803 103.163 10.1547 102.27 10.528 101.63C10.9014 100.983 11.5547 100.66 12.488 100.66C13.4147 100.66 14.0647 100.983 14.438 101.63C14.8114 102.27 14.998 103.163 14.998 104.31C14.998 105.477 14.8114 106.383 14.438 107.03C14.0647 107.677 13.4147 108 12.488 108C11.5547 108 10.9014 107.677 10.528 107.03C10.1547 106.383 9.96803 105.477 9.96803 104.31ZM14.098 104.31C14.098 103.73 14.058 103.24 13.978 102.84C13.9047 102.433 13.748 102.107 13.508 101.86C13.2747 101.613 12.9347 101.49 12.488 101.49C12.0347 101.49 11.688 101.613 11.448 101.86C11.2147 102.107 11.058 102.433 10.978 102.84C10.9047 103.24 10.868 103.73 10.868 104.31C10.868 104.91 10.9047 105.413 10.978 105.82C11.058 106.227 11.2147 106.553 11.448 106.8C11.688 107.047 12.0347 107.17 12.488 107.17C12.9347 107.17 13.2747 107.047 13.508 106.8C13.748 106.553 13.9047 106.227 13.978 105.82C14.058 105.413 14.098 104.91 14.098 104.31ZM16.2473 104.31C16.2473 103.163 16.434 102.27 16.8073 101.63C17.1807 100.983 17.834 100.66 18.7673 100.66C19.694 100.66 20.344 100.983 20.7173 101.63C21.0907 102.27 21.2773 103.163 21.2773 104.31C21.2773 105.477 21.0907 106.383 20.7173 107.03C20.344 107.677 19.694 108 18.7673 108C17.834 108 17.1807 107.677 16.8073 107.03C16.434 106.383 16.2473 105.477 16.2473 104.31ZM20.3773 104.31C20.3773 103.73 20.3373 103.24 20.2573 102.84C20.184 102.433 20.0273 102.107 19.7873 101.86C19.554 101.613 19.214 101.49 18.7673 101.49C18.314 101.49 17.9673 101.613 17.7273 101.86C17.494 102.107 17.3373 102.433 17.2573 102.84C17.184 103.24 17.1473 103.73 17.1473 104.31C17.1473 104.91 17.184 105.413 17.2573 105.82C17.3373 106.227 17.494 106.553 17.7273 106.8C17.9673 107.047 18.314 107.17 18.7673 107.17C19.214 107.17 19.554 107.047 19.7873 106.8C20.0273 106.553 20.184 106.227 20.2573 105.82C20.3373 105.413 20.3773 104.91 20.3773 104.31Z" fill="#737373"/>
<path d="M0.859492 4.6V3.77H2.73949V11H1.81949V4.6H0.859492ZM4.30262 7.31C4.30262 6.16333 4.48928 5.27 4.86262 4.63C5.23595 3.98333 5.88928 3.66 6.82262 3.66C7.74928 3.66 8.39928 3.98333 8.77262 4.63C9.14595 5.27 9.33262 6.16333 9.33262 7.31C9.33262 8.47667 9.14595 9.38333 8.77262 10.03C8.39928 10.6767 7.74928 11 6.82262 11C5.88928 11 5.23595 10.6767 4.86262 10.03C4.48928 9.38333 4.30262 8.47667 4.30262 7.31ZM8.43262 7.31C8.43262 6.73 8.39262 6.24 8.31262 5.84C8.23928 5.43333 8.08262 5.10667 7.84262 4.86C7.60928 4.61333 7.26928 4.49 6.82262 4.49C6.36928 4.49 6.02262 4.61333 5.78262 4.86C5.54928 5.10667 5.39262 5.43333 5.31262 5.84C5.23928 6.24 5.20262 6.73 5.20262 7.31C5.20262 7.91 5.23928 8.41333 5.31262 8.82C5.39262 9.22667 5.54928 9.55333 5.78262 9.8C6.02262 10.0467 6.36928 10.17 6.82262 10.17C7.26928 10.17 7.60928 10.0467 7.84262 9.8C8.08262 9.55333 8.23928 9.22667 8.31262 8.82C8.39262 8.41333 8.43262 7.91 8.43262 7.31ZM10.5819 7.31C10.5819 6.16333 10.7686 5.27 11.1419 4.63C11.5152 3.98333 12.1686 3.66 13.1019 3.66C14.0286 3.66 14.6786 3.98333 15.0519 4.63C15.4252 5.27 15.6119 6.16333 15.6119 7.31C15.6119 8.47667 15.4252 9.38333 15.0519 10.03C14.6786 10.6767 14.0286 11 13.1019 11C12.1686 11 11.5152 10.6767 11.1419 10.03C10.7686 9.38333 10.5819 8.47667 10.5819 7.31ZM14.7119 7.31C14.7119 6.73 14.6719 6.24 14.5919 5.84C14.5186 5.43333 14.3619 5.10667 14.1219 4.86C13.8886 4.61333 13.5486 4.49 13.1019 4.49C12.6486 4.49 12.3019 4.61333 12.0619 4.86C11.8286 5.10667 11.6719 5.43333 11.5919 5.84C11.5186 6.24 11.4819 6.73 11.4819 7.31C11.4819 7.91 11.5186 8.41333 11.5919 8.82C11.6719 9.22667 11.8286 9.55333 12.0619 9.8C12.3019 10.0467 12.6486 10.17 13.1019 10.17C13.5486 10.17 13.8886 10.0467 14.1219 9.8C14.3619 9.55333 14.5186 9.22667 14.5919 8.82C14.6719 8.41333 14.7119 7.91 14.7119 7.31ZM16.8612 7.31C16.8612 6.16333 17.0479 5.27 17.4212 4.63C17.7945 3.98333 18.4479 3.66 19.3812 3.66C20.3079 3.66 20.9579 3.98333 21.3312 4.63C21.7045 5.27 21.8912 6.16333 21.8912 7.31C21.8912 8.47667 21.7045 9.38333 21.3312 10.03C20.9579 10.6767 20.3079 11 19.3812 11C18.4479 11 17.7945 10.6767 17.4212 10.03C17.0479 9.38333 16.8612 8.47667 16.8612 7.31ZM20.9912 7.31C20.9912 6.73 20.9512 6.24 20.8712 5.84C20.7979 5.43333 20.6412 5.10667 20.4012 4.86C20.1679 4.61333 19.8279 4.49 19.3812 4.49C18.9279 4.49 18.5812 4.61333 18.3412 4.86C18.1079 5.10667 17.9512 5.43333 17.8712 5.84C17.7979 6.24 17.7612 6.73 17.7612 7.31C17.7612 7.91 17.7979 8.41333 17.8712 8.82C17.9512 9.22667 18.1079 9.55333 18.3412 9.8C18.5812 10.0467 18.9279 10.17 19.3812 10.17C19.8279 10.17 20.1679 10.0467 20.4012 9.8C20.6412 9.55333 20.7979 9.22667 20.8712 8.82C20.9512 8.41333 20.9912 7.91 20.9912 7.31Z" fill="#0C15F9"/>
<path d="M0.859492 4.6V3.77H2.73949V11H1.81949V4.6H0.859492ZM4.30262 7.31C4.30262 6.16333 4.48928 5.27 4.86262 4.63C5.23595 3.98333 5.88928 3.66 6.82262 3.66C7.74928 3.66 8.39928 3.98333 8.77262 4.63C9.14595 5.27 9.33262 6.16333 9.33262 7.31C9.33262 8.47667 9.14595 9.38333 8.77262 10.03C8.39928 10.6767 7.74928 11 6.82262 11C5.88928 11 5.23595 10.6767 4.86262 10.03C4.48928 9.38333 4.30262 8.47667 4.30262 7.31ZM8.43262 7.31C8.43262 6.73 8.39262 6.24 8.31262 5.84C8.23928 5.43333 8.08262 5.10667 7.84262 4.86C7.60928 4.61333 7.26928 4.49 6.82262 4.49C6.36928 4.49 6.02262 4.61333 5.78262 4.86C5.54928 5.10667 5.39262 5.43333 5.31262 5.84C5.23928 6.24 5.20262 6.73 5.20262 7.31C5.20262 7.91 5.23928 8.41333 5.31262 8.82C5.39262 9.22667 5.54928 9.55333 5.78262 9.8C6.02262 10.0467 6.36928 10.17 6.82262 10.17C7.26928 10.17 7.60928 10.0467 7.84262 9.8C8.08262 9.55333 8.23928 9.22667 8.31262 8.82C8.39262 8.41333 8.43262 7.91 8.43262 7.31ZM10.5819 7.31C10.5819 6.16333 10.7686 5.27 11.1419 4.63C11.5152 3.98333 12.1686 3.66 13.1019 3.66C14.0286 3.66 14.6786 3.98333 15.0519 4.63C15.4252 5.27 15.6119 6.16333 15.6119 7.31C15.6119 8.47667 15.4252 9.38333 15.0519 10.03C14.6786 10.6767 14.0286 11 13.1019 11C12.1686 11 11.5152 10.6767 11.1419 10.03C10.7686 9.38333 10.5819 8.47667 10.5819 7.31ZM14.7119 7.31C14.7119 6.73 14.6719 6.24 14.5919 5.84C14.5186 5.43333 14.3619 5.10667 14.1219 4.86C13.8886 4.61333 13.5486 4.49 13.1019 4.49C12.6486 4.49 12.3019 4.61333 12.0619 4.86C11.8286 5.10667 11.6719 5.43333 11.5919 5.84C11.5186 6.24 11.4819 6.73 11.4819 7.31C11.4819 7.91 11.5186 8.41333 11.5919 8.82C11.6719 9.22667 11.8286 9.55333 12.0619 9.8C12.3019 10.0467 12.6486 10.17 13.1019 10.17C13.5486 10.17 13.8886 10.0467 14.1219 9.8C14.3619 9.55333 14.5186 9.22667 14.5919 8.82C14.6719 8.41333 14.7119 7.91 14.7119 7.31ZM16.8612 7.31C16.8612 6.16333 17.0479 5.27 17.4212 4.63C17.7945 3.98333 18.4479 3.66 19.3812 3.66C20.3079 3.66 20.9579 3.98333 21.3312 4.63C21.7045 5.27 21.8912 6.16333 21.8912 7.31C21.8912 8.47667 21.7045 9.38333 21.3312 10.03C20.9579 10.6767 20.3079 11 19.3812 11C18.4479 11 17.7945 10.6767 17.4212 10.03C17.0479 9.38333 16.8612 8.47667 16.8612 7.31ZM20.9912 7.31C20.9912 6.73 20.9512 6.24 20.8712 5.84C20.7979 5.43333 20.6412 5.10667 20.4012 4.86C20.1679 4.61333 19.8279 4.49 19.3812 4.49C18.9279 4.49 18.5812 4.61333 18.3412 4.86C18.1079 5.10667 17.9512 5.43333 17.8712 5.84C17.7979 6.24 17.7612 6.73 17.7612 7.31C17.7612 7.91 17.7979 8.41333 17.8712 8.82C17.9512 9.22667 18.1079 9.55333 18.3412 9.8C18.5812 10.0467 18.9279 10.17 19.3812 10.17C19.8279 10.17 20.1679 10.0467 20.4012 9.8C20.6412 9.55333 20.7979 9.22667 20.8712 8.82C20.9512 8.41333 20.9912 7.91 20.9912 7.31Z" fill="#737373"/>
<path d="M75.711 383.03V383.77H72.681V386.12H75.141V386.86H72.681V390H71.771V383.03H75.711ZM81.81 387.05C81.81 387.223 81.8 387.407 81.78 387.6H77.4C77.4334 388.14 77.6167 388.563 77.95 388.87C78.29 389.17 78.7 389.32 79.18 389.32C79.5734 389.32 79.9 389.23 80.16 389.05C80.4267 388.863 80.6134 388.617 80.72 388.31H81.7C81.5534 388.837 81.26 389.267 80.82 389.6C80.38 389.927 79.8334 390.09 79.18 390.09C78.66 390.09 78.1934 389.973 77.78 389.74C77.3734 389.507 77.0534 389.177 76.82 388.75C76.5867 388.317 76.47 387.817 76.47 387.25C76.47 386.683 76.5834 386.187 76.81 385.76C77.0367 385.333 77.3534 385.007 77.76 384.78C78.1734 384.547 78.6467 384.43 79.18 384.43C79.7 384.43 80.16 384.543 80.56 384.77C80.96 384.997 81.2667 385.31 81.48 385.71C81.7 386.103 81.81 386.55 81.81 387.05ZM80.87 386.86C80.87 386.513 80.7934 386.217 80.64 385.97C80.4867 385.717 80.2767 385.527 80.01 385.4C79.75 385.267 79.46 385.2 79.14 385.2C78.68 385.2 78.2867 385.347 77.96 385.64C77.64 385.933 77.4567 386.34 77.41 386.86H80.87ZM83.9212 385.54C84.1079 385.213 84.3812 384.947 84.7412 384.74C85.1012 384.533 85.5112 384.43 85.9712 384.43C86.4645 384.43 86.9079 384.547 87.3012 384.78C87.6945 385.013 88.0045 385.343 88.2312 385.77C88.4579 386.19 88.5712 386.68 88.5712 387.24C88.5712 387.793 88.4579 388.287 88.2312 388.72C88.0045 389.153 87.6912 389.49 87.2912 389.73C86.8979 389.97 86.4579 390.09 85.9712 390.09C85.4979 390.09 85.0812 389.987 84.7212 389.78C84.3679 389.573 84.1012 389.31 83.9212 388.99V390H83.0112V382.6H83.9212V385.54ZM87.6412 387.24C87.6412 386.827 87.5579 386.467 87.3912 386.16C87.2245 385.853 86.9979 385.62 86.7112 385.46C86.4312 385.3 86.1212 385.22 85.7812 385.22C85.4479 385.22 85.1379 385.303 84.8512 385.47C84.5712 385.63 84.3445 385.867 84.1712 386.18C84.0045 386.487 83.9212 386.843 83.9212 387.25C83.9212 387.663 84.0045 388.027 84.1712 388.34C84.3445 388.647 84.5712 388.883 84.8512 389.05C85.1379 389.21 85.4479 389.29 85.7812 389.29C86.1212 389.29 86.4312 389.21 86.7112 389.05C86.9979 388.883 87.2245 388.647 87.3912 388.34C87.5579 388.027 87.6412 387.66 87.6412 387.24Z" fill="#0C15F9"/>
<path d="M75.711 383.03V383.77H72.681V386.12H75.141V386.86H72.681V390H71.771V383.03H75.711ZM81.81 387.05C81.81 387.223 81.8 387.407 81.78 387.6H77.4C77.4334 388.14 77.6167 388.563 77.95 388.87C78.29 389.17 78.7 389.32 79.18 389.32C79.5734 389.32 79.9 389.23 80.16 389.05C80.4267 388.863 80.6134 388.617 80.72 388.31H81.7C81.5534 388.837 81.26 389.267 80.82 389.6C80.38 389.927 79.8334 390.09 79.18 390.09C78.66 390.09 78.1934 389.973 77.78 389.74C77.3734 389.507 77.0534 389.177 76.82 388.75C76.5867 388.317 76.47 387.817 76.47 387.25C76.47 386.683 76.5834 386.187 76.81 385.76C77.0367 385.333 77.3534 385.007 77.76 384.78C78.1734 384.547 78.6467 384.43 79.18 384.43C79.7 384.43 80.16 384.543 80.56 384.77C80.96 384.997 81.2667 385.31 81.48 385.71C81.7 386.103 81.81 386.55 81.81 387.05ZM80.87 386.86C80.87 386.513 80.7934 386.217 80.64 385.97C80.4867 385.717 80.2767 385.527 80.01 385.4C79.75 385.267 79.46 385.2 79.14 385.2C78.68 385.2 78.2867 385.347 77.96 385.64C77.64 385.933 77.4567 386.34 77.41 386.86H80.87ZM83.9212 385.54C84.1079 385.213 84.3812 384.947 84.7412 384.74C85.1012 384.533 85.5112 384.43 85.9712 384.43C86.4645 384.43 86.9079 384.547 87.3012 384.78C87.6945 385.013 88.0045 385.343 88.2312 385.77C88.4579 386.19 88.5712 386.68 88.5712 387.24C88.5712 387.793 88.4579 388.287 88.2312 388.72C88.0045 389.153 87.6912 389.49 87.2912 389.73C86.8979 389.97 86.4579 390.09 85.9712 390.09C85.4979 390.09 85.0812 389.987 84.7212 389.78C84.3679 389.573 84.1012 389.31 83.9212 388.99V390H83.0112V382.6H83.9212V385.54ZM87.6412 387.24C87.6412 386.827 87.5579 386.467 87.3912 386.16C87.2245 385.853 86.9979 385.62 86.7112 385.46C86.4312 385.3 86.1212 385.22 85.7812 385.22C85.4479 385.22 85.1379 385.303 84.8512 385.47C84.5712 385.63 84.3445 385.867 84.1712 386.18C84.0045 386.487 83.9212 386.843 83.9212 387.25C83.9212 387.663 84.0045 388.027 84.1712 388.34C84.3445 388.647 84.5712 388.883 84.8512 389.05C85.1379 389.21 85.4479 389.29 85.7812 389.29C86.1212 389.29 86.4312 389.21 86.7112 389.05C86.9979 388.883 87.2245 388.647 87.3912 388.34C87.5579 388.027 87.6412 387.66 87.6412 387.24Z" fill="#737373"/>
<path d="M133.289 383.08V390H132.379V384.84L130.079 390H129.439L127.129 384.83V390H126.219V383.08H127.199L129.759 388.8L132.319 383.08H133.289ZM134.493 387.24C134.493 386.68 134.606 386.19 134.833 385.77C135.059 385.343 135.369 385.013 135.763 384.78C136.163 384.547 136.606 384.43 137.093 384.43C137.573 384.43 137.989 384.533 138.343 384.74C138.696 384.947 138.959 385.207 139.133 385.52V384.52H140.053V390H139.133V388.98C138.953 389.3 138.683 389.567 138.323 389.78C137.969 389.987 137.556 390.09 137.083 390.09C136.596 390.09 136.156 389.97 135.763 389.73C135.369 389.49 135.059 389.153 134.833 388.72C134.606 388.287 134.493 387.793 134.493 387.24ZM139.133 387.25C139.133 386.837 139.049 386.477 138.883 386.17C138.716 385.863 138.489 385.63 138.203 385.47C137.923 385.303 137.613 385.22 137.273 385.22C136.933 385.22 136.623 385.3 136.343 385.46C136.063 385.62 135.839 385.853 135.673 386.16C135.506 386.467 135.423 386.827 135.423 387.24C135.423 387.66 135.506 388.027 135.673 388.34C135.839 388.647 136.063 388.883 136.343 389.05C136.623 389.21 136.933 389.29 137.273 389.29C137.613 389.29 137.923 389.21 138.203 389.05C138.489 388.883 138.716 388.647 138.883 388.34C139.049 388.027 139.133 387.663 139.133 387.25ZM142.5 385.41C142.66 385.097 142.887 384.853 143.18 384.68C143.48 384.507 143.844 384.42 144.27 384.42V385.36H144.03C143.01 385.36 142.5 385.913 142.5 387.02V390H141.59V384.52H142.5V385.41Z" fill="#0C15F9"/>
<path d="M133.289 383.08V390H132.379V384.84L130.079 390H129.439L127.129 384.83V390H126.219V383.08H127.199L129.759 388.8L132.319 383.08H133.289ZM134.493 387.24C134.493 386.68 134.606 386.19 134.833 385.77C135.059 385.343 135.369 385.013 135.763 384.78C136.163 384.547 136.606 384.43 137.093 384.43C137.573 384.43 137.989 384.533 138.343 384.74C138.696 384.947 138.959 385.207 139.133 385.52V384.52H140.053V390H139.133V388.98C138.953 389.3 138.683 389.567 138.323 389.78C137.969 389.987 137.556 390.09 137.083 390.09C136.596 390.09 136.156 389.97 135.763 389.73C135.369 389.49 135.059 389.153 134.833 388.72C134.606 388.287 134.493 387.793 134.493 387.24ZM139.133 387.25C139.133 386.837 139.049 386.477 138.883 386.17C138.716 385.863 138.489 385.63 138.203 385.47C137.923 385.303 137.613 385.22 137.273 385.22C136.933 385.22 136.623 385.3 136.343 385.46C136.063 385.62 135.839 385.853 135.673 386.16C135.506 386.467 135.423 386.827 135.423 387.24C135.423 387.66 135.506 388.027 135.673 388.34C135.839 388.647 136.063 388.883 136.343 389.05C136.623 389.21 136.933 389.29 137.273 389.29C137.613 389.29 137.923 389.21 138.203 389.05C138.489 388.883 138.716 388.647 138.883 388.34C139.049 388.027 139.133 387.663 139.133 387.25ZM142.5 385.41C142.66 385.097 142.887 384.853 143.18 384.68C143.48 384.507 143.844 384.42 144.27 384.42V385.36H144.03C143.01 385.36 142.5 385.913 142.5 387.02V390H141.59V384.52H142.5V385.41Z" fill="#737373"/>
<path d="M186.277 388.45H183.237L182.677 390H181.717L184.237 383.07H185.287L187.797 390H186.837L186.277 388.45ZM186.017 387.71L184.757 384.19L183.497 387.71H186.017ZM189.805 385.53C189.985 385.217 190.252 384.957 190.605 384.75C190.965 384.537 191.382 384.43 191.855 384.43C192.342 384.43 192.782 384.547 193.175 384.78C193.575 385.013 193.888 385.343 194.115 385.77C194.342 386.19 194.455 386.68 194.455 387.24C194.455 387.793 194.342 388.287 194.115 388.72C193.888 389.153 193.575 389.49 193.175 389.73C192.782 389.97 192.342 390.09 191.855 390.09C191.388 390.09 190.975 389.987 190.615 389.78C190.262 389.567 189.992 389.303 189.805 388.99V392.6H188.895V384.52H189.805V385.53ZM193.525 387.24C193.525 386.827 193.442 386.467 193.275 386.16C193.108 385.853 192.882 385.62 192.595 385.46C192.315 385.3 192.005 385.22 191.665 385.22C191.332 385.22 191.022 385.303 190.735 385.47C190.455 385.63 190.228 385.867 190.055 386.18C189.888 386.487 189.805 386.843 189.805 387.25C189.805 387.663 189.888 388.027 190.055 388.34C190.228 388.647 190.455 388.883 190.735 389.05C191.022 389.21 191.332 389.29 191.665 389.29C192.005 389.29 192.315 389.21 192.595 389.05C192.882 388.883 193.108 388.647 193.275 388.34C193.442 388.027 193.525 387.66 193.525 387.24ZM196.563 385.41C196.723 385.097 196.949 384.853 197.243 384.68C197.543 384.507 197.906 384.42 198.333 384.42V385.36H198.093C197.073 385.36 196.563 385.913 196.563 387.02V390H195.653V384.52H196.563V385.41Z" fill="#0C15F9"/>
<path d="M186.277 388.45H183.237L182.677 390H181.717L184.237 383.07H185.287L187.797 390H186.837L186.277 388.45ZM186.017 387.71L184.757 384.19L183.497 387.71H186.017ZM189.805 385.53C189.985 385.217 190.252 384.957 190.605 384.75C190.965 384.537 191.382 384.43 191.855 384.43C192.342 384.43 192.782 384.547 193.175 384.78C193.575 385.013 193.888 385.343 194.115 385.77C194.342 386.19 194.455 386.68 194.455 387.24C194.455 387.793 194.342 388.287 194.115 388.72C193.888 389.153 193.575 389.49 193.175 389.73C192.782 389.97 192.342 390.09 191.855 390.09C191.388 390.09 190.975 389.987 190.615 389.78C190.262 389.567 189.992 389.303 189.805 388.99V392.6H188.895V384.52H189.805V385.53ZM193.525 387.24C193.525 386.827 193.442 386.467 193.275 386.16C193.108 385.853 192.882 385.62 192.595 385.46C192.315 385.3 192.005 385.22 191.665 385.22C191.332 385.22 191.022 385.303 190.735 385.47C190.455 385.63 190.228 385.867 190.055 386.18C189.888 386.487 189.805 386.843 189.805 387.25C189.805 387.663 189.888 388.027 190.055 388.34C190.228 388.647 190.455 388.883 190.735 389.05C191.022 389.21 191.332 389.29 191.665 389.29C192.005 389.29 192.315 389.21 192.595 389.05C192.882 388.883 193.108 388.647 193.275 388.34C193.442 388.027 193.525 387.66 193.525 387.24ZM196.563 385.41C196.723 385.097 196.949 384.853 197.243 384.68C197.543 384.507 197.906 384.42 198.333 384.42V385.36H198.093C197.073 385.36 196.563 385.913 196.563 387.02V390H195.653V384.52H196.563V385.41Z" fill="#737373"/>
<path d="M243.337 383.08V390H242.427V384.84L240.127 390H239.487L237.177 384.83V390H236.267V383.08H237.247L239.807 388.8L242.367 383.08H243.337ZM244.54 387.24C244.54 386.68 244.654 386.19 244.88 385.77C245.107 385.343 245.417 385.013 245.81 384.78C246.21 384.547 246.654 384.43 247.14 384.43C247.62 384.43 248.037 384.533 248.39 384.74C248.744 384.947 249.007 385.207 249.18 385.52V384.52H250.1V390H249.18V388.98C249 389.3 248.73 389.567 248.37 389.78C248.017 389.987 247.604 390.09 247.13 390.09C246.644 390.09 246.204 389.97 245.81 389.73C245.417 389.49 245.107 389.153 244.88 388.72C244.654 388.287 244.54 387.793 244.54 387.24ZM249.18 387.25C249.18 386.837 249.097 386.477 248.93 386.17C248.764 385.863 248.537 385.63 248.25 385.47C247.97 385.303 247.66 385.22 247.32 385.22C246.98 385.22 246.67 385.3 246.39 385.46C246.11 385.62 245.887 385.853 245.72 386.16C245.554 386.467 245.47 386.827 245.47 387.24C245.47 387.66 245.554 388.027 245.72 388.34C245.887 388.647 246.11 388.883 246.39 389.05C246.67 389.21 246.98 389.29 247.32 389.29C247.66 389.29 247.97 389.21 248.25 389.05C248.537 388.883 248.764 388.647 248.93 388.34C249.097 388.027 249.18 387.663 249.18 387.25ZM256.358 384.52L253.058 392.58H252.118L253.198 389.94L250.988 384.52H251.998L253.718 388.96L255.418 384.52H256.358Z" fill="#0C15F9"/>
<path d="M243.337 383.08V390H242.427V384.84L240.127 390H239.487L237.177 384.83V390H236.267V383.08H237.247L239.807 388.8L242.367 383.08H243.337ZM244.54 387.24C244.54 386.68 244.654 386.19 244.88 385.77C245.107 385.343 245.417 385.013 245.81 384.78C246.21 384.547 246.654 384.43 247.14 384.43C247.62 384.43 248.037 384.533 248.39 384.74C248.744 384.947 249.007 385.207 249.18 385.52V384.52H250.1V390H249.18V388.98C249 389.3 248.73 389.567 248.37 389.78C248.017 389.987 247.604 390.09 247.13 390.09C246.644 390.09 246.204 389.97 245.81 389.73C245.417 389.49 245.107 389.153 244.88 388.72C244.654 388.287 244.54 387.793 244.54 387.24ZM249.18 387.25C249.18 386.837 249.097 386.477 248.93 386.17C248.764 385.863 248.537 385.63 248.25 385.47C247.97 385.303 247.66 385.22 247.32 385.22C246.98 385.22 246.67 385.3 246.39 385.46C246.11 385.62 245.887 385.853 245.72 386.16C245.554 386.467 245.47 386.827 245.47 387.24C245.47 387.66 245.554 388.027 245.72 388.34C245.887 388.647 246.11 388.883 246.39 389.05C246.67 389.21 246.98 389.29 247.32 389.29C247.66 389.29 247.97 389.21 248.25 389.05C248.537 388.883 248.764 388.647 248.93 388.34C249.097 388.027 249.18 387.663 249.18 387.25ZM256.358 384.52L253.058 392.58H252.118L253.198 389.94L250.988 384.52H251.998L253.718 388.96L255.418 384.52H256.358Z" fill="#737373"/>
<path d="M297.732 383.03V388.18C297.732 388.753 297.555 389.213 297.202 389.56C296.849 389.9 296.382 390.07 295.802 390.07C295.215 390.07 294.745 389.897 294.392 389.55C294.039 389.197 293.862 388.717 293.862 388.11H294.772C294.779 388.45 294.865 388.727 295.032 388.94C295.205 389.153 295.462 389.26 295.802 389.26C296.142 389.26 296.395 389.16 296.562 388.96C296.729 388.753 296.812 388.493 296.812 388.18V383.03H297.732ZM304.385 384.52V390H303.475V389.19C303.302 389.47 303.058 389.69 302.745 389.85C302.438 390.003 302.098 390.08 301.725 390.08C301.298 390.08 300.915 389.993 300.575 389.82C300.235 389.64 299.965 389.373 299.765 389.02C299.572 388.667 299.475 388.237 299.475 387.73V384.52H300.375V387.61C300.375 388.15 300.512 388.567 300.785 388.86C301.058 389.147 301.432 389.29 301.905 389.29C302.392 389.29 302.775 389.14 303.055 388.84C303.335 388.54 303.475 388.103 303.475 387.53V384.52H304.385ZM308.591 384.42C309.258 384.42 309.798 384.623 310.211 385.03C310.625 385.43 310.831 386.01 310.831 386.77V390H309.931V386.9C309.931 386.353 309.795 385.937 309.521 385.65C309.248 385.357 308.875 385.21 308.401 385.21C307.921 385.21 307.538 385.36 307.251 385.66C306.971 385.96 306.831 386.397 306.831 386.97V390H305.921V384.52H306.831V385.3C307.011 385.02 307.255 384.803 307.561 384.65C307.875 384.497 308.218 384.42 308.591 384.42Z" fill="#0C15F9"/>
<path d="M297.732 383.03V388.18C297.732 388.753 297.555 389.213 297.202 389.56C296.849 389.9 296.382 390.07 295.802 390.07C295.215 390.07 294.745 389.897 294.392 389.55C294.039 389.197 293.862 388.717 293.862 388.11H294.772C294.779 388.45 294.865 388.727 295.032 388.94C295.205 389.153 295.462 389.26 295.802 389.26C296.142 389.26 296.395 389.16 296.562 388.96C296.729 388.753 296.812 388.493 296.812 388.18V383.03H297.732ZM304.385 384.52V390H303.475V389.19C303.302 389.47 303.058 389.69 302.745 389.85C302.438 390.003 302.098 390.08 301.725 390.08C301.298 390.08 300.915 389.993 300.575 389.82C300.235 389.64 299.965 389.373 299.765 389.02C299.572 388.667 299.475 388.237 299.475 387.73V384.52H300.375V387.61C300.375 388.15 300.512 388.567 300.785 388.86C301.058 389.147 301.432 389.29 301.905 389.29C302.392 389.29 302.775 389.14 303.055 388.84C303.335 388.54 303.475 388.103 303.475 387.53V384.52H304.385ZM308.591 384.42C309.258 384.42 309.798 384.623 310.211 385.03C310.625 385.43 310.831 386.01 310.831 386.77V390H309.931V386.9C309.931 386.353 309.795 385.937 309.521 385.65C309.248 385.357 308.875 385.21 308.401 385.21C307.921 385.21 307.538 385.36 307.251 385.66C306.971 385.96 306.831 386.397 306.831 386.97V390H305.921V384.52H306.831V385.3C307.011 385.02 307.255 384.803 307.561 384.65C307.875 384.497 308.218 384.42 308.591 384.42Z" fill="#737373"/>
<path d="M352.7 383.03V388.18C352.7 388.753 352.523 389.213 352.17 389.56C351.817 389.9 351.35 390.07 350.77 390.07C350.183 390.07 349.713 389.897 349.36 389.55C349.007 389.197 348.83 388.717 348.83 388.11H349.74C349.747 388.45 349.833 388.727 350 388.94C350.173 389.153 350.43 389.26 350.77 389.26C351.11 389.26 351.363 389.16 351.53 388.96C351.697 388.753 351.78 388.493 351.78 388.18V383.03H352.7ZM359.353 384.52V390H358.443V389.19C358.269 389.47 358.026 389.69 357.713 389.85C357.406 390.003 357.066 390.08 356.693 390.08C356.266 390.08 355.883 389.993 355.543 389.82C355.203 389.64 354.933 389.373 354.733 389.02C354.539 388.667 354.443 388.237 354.443 387.73V384.52H355.343V387.61C355.343 388.15 355.479 388.567 355.753 388.86C356.026 389.147 356.399 389.29 356.873 389.29C357.359 389.29 357.743 389.14 358.023 388.84C358.303 388.54 358.443 388.103 358.443 387.53V384.52H359.353ZM361.799 382.6V390H360.889V382.6H361.799Z" fill="#0C15F9"/>
<path d="M352.7 383.03V388.18C352.7 388.753 352.523 389.213 352.17 389.56C351.817 389.9 351.35 390.07 350.77 390.07C350.183 390.07 349.713 389.897 349.36 389.55C349.007 389.197 348.83 388.717 348.83 388.11H349.74C349.747 388.45 349.833 388.727 350 388.94C350.173 389.153 350.43 389.26 350.77 389.26C351.11 389.26 351.363 389.16 351.53 388.96C351.697 388.753 351.78 388.493 351.78 388.18V383.03H352.7ZM359.353 384.52V390H358.443V389.19C358.269 389.47 358.026 389.69 357.713 389.85C357.406 390.003 357.066 390.08 356.693 390.08C356.266 390.08 355.883 389.993 355.543 389.82C355.203 389.64 354.933 389.373 354.733 389.02C354.539 388.667 354.443 388.237 354.443 387.73V384.52H355.343V387.61C355.343 388.15 355.479 388.567 355.753 388.86C356.026 389.147 356.399 389.29 356.873 389.29C357.359 389.29 357.743 389.14 358.023 388.84C358.303 388.54 358.443 388.103 358.443 387.53V384.52H359.353ZM361.799 382.6V390H360.889V382.6H361.799Z" fill="#737373"/>
<path d="M403.944 388.45H400.904L400.344 390H399.384L401.904 383.07H402.954L405.464 390H404.504L403.944 388.45ZM403.684 387.71L402.424 384.19L401.164 387.71H403.684ZM411.422 384.52V390H410.512V389.19C410.339 389.47 410.095 389.69 409.782 389.85C409.475 390.003 409.135 390.08 408.762 390.08C408.335 390.08 407.952 389.993 407.612 389.82C407.272 389.64 407.002 389.373 406.802 389.02C406.609 388.667 406.512 388.237 406.512 387.73V384.52H407.412V387.61C407.412 388.15 407.549 388.567 407.822 388.86C408.095 389.147 408.469 389.29 408.942 389.29C409.429 389.29 409.812 389.14 410.092 388.84C410.372 388.54 410.512 388.103 410.512 387.53V384.52H411.422ZM415.218 384.43C415.692 384.43 416.105 384.533 416.458 384.74C416.818 384.947 417.085 385.207 417.258 385.52V384.52H418.178V390.12C418.178 390.62 418.072 391.063 417.858 391.45C417.645 391.843 417.338 392.15 416.938 392.37C416.545 392.59 416.085 392.7 415.558 392.7C414.838 392.7 414.238 392.53 413.758 392.19C413.278 391.85 412.995 391.387 412.908 390.8H413.808C413.908 391.133 414.115 391.4 414.428 391.6C414.742 391.807 415.118 391.91 415.558 391.91C416.058 391.91 416.465 391.753 416.778 391.44C417.098 391.127 417.258 390.687 417.258 390.12V388.97C417.078 389.29 416.812 389.557 416.458 389.77C416.105 389.983 415.692 390.09 415.218 390.09C414.732 390.09 414.288 389.97 413.888 389.73C413.495 389.49 413.185 389.153 412.958 388.72C412.732 388.287 412.618 387.793 412.618 387.24C412.618 386.68 412.732 386.19 412.958 385.77C413.185 385.343 413.495 385.013 413.888 384.78C414.288 384.547 414.732 384.43 415.218 384.43ZM417.258 387.25C417.258 386.837 417.175 386.477 417.008 386.17C416.842 385.863 416.615 385.63 416.328 385.47C416.048 385.303 415.738 385.22 415.398 385.22C415.058 385.22 414.748 385.3 414.468 385.46C414.188 385.62 413.965 385.853 413.798 386.16C413.632 386.467 413.548 386.827 413.548 387.24C413.548 387.66 413.632 388.027 413.798 388.34C413.965 388.647 414.188 388.883 414.468 389.05C414.748 389.21 415.058 389.29 415.398 389.29C415.738 389.29 416.048 389.21 416.328 389.05C416.615 388.883 416.842 388.647 417.008 388.34C417.175 388.027 417.258 387.663 417.258 387.25Z" fill="#0C15F9"/>
<path d="M403.944 388.45H400.904L400.344 390H399.384L401.904 383.07H402.954L405.464 390H404.504L403.944 388.45ZM403.684 387.71L402.424 384.19L401.164 387.71H403.684ZM411.422 384.52V390H410.512V389.19C410.339 389.47 410.095 389.69 409.782 389.85C409.475 390.003 409.135 390.08 408.762 390.08C408.335 390.08 407.952 389.993 407.612 389.82C407.272 389.64 407.002 389.373 406.802 389.02C406.609 388.667 406.512 388.237 406.512 387.73V384.52H407.412V387.61C407.412 388.15 407.549 388.567 407.822 388.86C408.095 389.147 408.469 389.29 408.942 389.29C409.429 389.29 409.812 389.14 410.092 388.84C410.372 388.54 410.512 388.103 410.512 387.53V384.52H411.422ZM415.218 384.43C415.692 384.43 416.105 384.533 416.458 384.74C416.818 384.947 417.085 385.207 417.258 385.52V384.52H418.178V390.12C418.178 390.62 418.072 391.063 417.858 391.45C417.645 391.843 417.338 392.15 416.938 392.37C416.545 392.59 416.085 392.7 415.558 392.7C414.838 392.7 414.238 392.53 413.758 392.19C413.278 391.85 412.995 391.387 412.908 390.8H413.808C413.908 391.133 414.115 391.4 414.428 391.6C414.742 391.807 415.118 391.91 415.558 391.91C416.058 391.91 416.465 391.753 416.778 391.44C417.098 391.127 417.258 390.687 417.258 390.12V388.97C417.078 389.29 416.812 389.557 416.458 389.77C416.105 389.983 415.692 390.09 415.218 390.09C414.732 390.09 414.288 389.97 413.888 389.73C413.495 389.49 413.185 389.153 412.958 388.72C412.732 388.287 412.618 387.793 412.618 387.24C412.618 386.68 412.732 386.19 412.958 385.77C413.185 385.343 413.495 385.013 413.888 384.78C414.288 384.547 414.732 384.43 415.218 384.43ZM417.258 387.25C417.258 386.837 417.175 386.477 417.008 386.17C416.842 385.863 416.615 385.63 416.328 385.47C416.048 385.303 415.738 385.22 415.398 385.22C415.058 385.22 414.748 385.3 414.468 385.46C414.188 385.62 413.965 385.853 413.798 386.16C413.632 386.467 413.548 386.827 413.548 387.24C413.548 387.66 413.632 388.027 413.798 388.34C413.965 388.647 414.188 388.883 414.468 389.05C414.748 389.21 415.058 389.29 415.398 389.29C415.738 389.29 416.048 389.21 416.328 389.05C416.615 388.883 416.842 388.647 417.008 388.34C417.175 388.027 417.258 387.663 417.258 387.25Z" fill="#737373"/>
<path d="M458.066 390.07C457.606 390.07 457.193 389.99 456.826 389.83C456.466 389.663 456.183 389.437 455.976 389.15C455.769 388.857 455.663 388.52 455.656 388.14H456.626C456.659 388.467 456.793 388.743 457.026 388.97C457.266 389.19 457.613 389.3 458.066 389.3C458.499 389.3 458.839 389.193 459.086 388.98C459.339 388.76 459.466 388.48 459.466 388.14C459.466 387.873 459.393 387.657 459.246 387.49C459.099 387.323 458.916 387.197 458.696 387.11C458.476 387.023 458.179 386.93 457.806 386.83C457.346 386.71 456.976 386.59 456.696 386.47C456.423 386.35 456.186 386.163 455.986 385.91C455.793 385.65 455.696 385.303 455.696 384.87C455.696 384.49 455.793 384.153 455.986 383.86C456.179 383.567 456.449 383.34 456.796 383.18C457.149 383.02 457.553 382.94 458.006 382.94C458.659 382.94 459.193 383.103 459.606 383.43C460.026 383.757 460.263 384.19 460.316 384.73H459.316C459.283 384.463 459.143 384.23 458.896 384.03C458.649 383.823 458.323 383.72 457.916 383.72C457.536 383.72 457.226 383.82 456.986 384.02C456.746 384.213 456.626 384.487 456.626 384.84C456.626 385.093 456.696 385.3 456.836 385.46C456.983 385.62 457.159 385.743 457.366 385.83C457.579 385.91 457.876 386.003 458.256 386.11C458.716 386.237 459.086 386.363 459.366 386.49C459.646 386.61 459.886 386.8 460.086 387.06C460.286 387.313 460.386 387.66 460.386 388.1C460.386 388.44 460.296 388.76 460.116 389.06C459.936 389.36 459.669 389.603 459.316 389.79C458.963 389.977 458.546 390.07 458.066 390.07ZM466.725 387.05C466.725 387.223 466.715 387.407 466.695 387.6H462.315C462.348 388.14 462.532 388.563 462.865 388.87C463.205 389.17 463.615 389.32 464.095 389.32C464.488 389.32 464.815 389.23 465.075 389.05C465.342 388.863 465.528 388.617 465.635 388.31H466.615C466.468 388.837 466.175 389.267 465.735 389.6C465.295 389.927 464.748 390.09 464.095 390.09C463.575 390.09 463.108 389.973 462.695 389.74C462.288 389.507 461.968 389.177 461.735 388.75C461.502 388.317 461.385 387.817 461.385 387.25C461.385 386.683 461.498 386.187 461.725 385.76C461.952 385.333 462.268 385.007 462.675 384.78C463.088 384.547 463.562 384.43 464.095 384.43C464.615 384.43 465.075 384.543 465.475 384.77C465.875 384.997 466.182 385.31 466.395 385.71C466.615 386.103 466.725 386.55 466.725 387.05ZM465.785 386.86C465.785 386.513 465.708 386.217 465.555 385.97C465.402 385.717 465.192 385.527 464.925 385.4C464.665 385.267 464.375 385.2 464.055 385.2C463.595 385.2 463.202 385.347 462.875 385.64C462.555 385.933 462.372 386.34 462.325 386.86H465.785ZM468.836 385.53C469.016 385.217 469.283 384.957 469.636 384.75C469.996 384.537 470.413 384.43 470.886 384.43C471.373 384.43 471.813 384.547 472.206 384.78C472.606 385.013 472.92 385.343 473.146 385.77C473.373 386.19 473.486 386.68 473.486 387.24C473.486 387.793 473.373 388.287 473.146 388.72C472.92 389.153 472.606 389.49 472.206 389.73C471.813 389.97 471.373 390.09 470.886 390.09C470.42 390.09 470.006 389.987 469.646 389.78C469.293 389.567 469.023 389.303 468.836 388.99V392.6H467.926V384.52H468.836V385.53ZM472.556 387.24C472.556 386.827 472.473 386.467 472.306 386.16C472.14 385.853 471.913 385.62 471.626 385.46C471.346 385.3 471.036 385.22 470.696 385.22C470.363 385.22 470.053 385.303 469.766 385.47C469.486 385.63 469.26 385.867 469.086 386.18C468.92 386.487 468.836 386.843 468.836 387.25C468.836 387.663 468.92 388.027 469.086 388.34C469.26 388.647 469.486 388.883 469.766 389.05C470.053 389.21 470.363 389.29 470.696 389.29C471.036 389.29 471.346 389.21 471.626 389.05C471.913 388.883 472.14 388.647 472.306 388.34C472.473 388.027 472.556 387.66 472.556 387.24Z" fill="#0C15F9"/>
<path d="M458.066 390.07C457.606 390.07 457.193 389.99 456.826 389.83C456.466 389.663 456.183 389.437 455.976 389.15C455.769 388.857 455.663 388.52 455.656 388.14H456.626C456.659 388.467 456.793 388.743 457.026 388.97C457.266 389.19 457.613 389.3 458.066 389.3C458.499 389.3 458.839 389.193 459.086 388.98C459.339 388.76 459.466 388.48 459.466 388.14C459.466 387.873 459.393 387.657 459.246 387.49C459.099 387.323 458.916 387.197 458.696 387.11C458.476 387.023 458.179 386.93 457.806 386.83C457.346 386.71 456.976 386.59 456.696 386.47C456.423 386.35 456.186 386.163 455.986 385.91C455.793 385.65 455.696 385.303 455.696 384.87C455.696 384.49 455.793 384.153 455.986 383.86C456.179 383.567 456.449 383.34 456.796 383.18C457.149 383.02 457.553 382.94 458.006 382.94C458.659 382.94 459.193 383.103 459.606 383.43C460.026 383.757 460.263 384.19 460.316 384.73H459.316C459.283 384.463 459.143 384.23 458.896 384.03C458.649 383.823 458.323 383.72 457.916 383.72C457.536 383.72 457.226 383.82 456.986 384.02C456.746 384.213 456.626 384.487 456.626 384.84C456.626 385.093 456.696 385.3 456.836 385.46C456.983 385.62 457.159 385.743 457.366 385.83C457.579 385.91 457.876 386.003 458.256 386.11C458.716 386.237 459.086 386.363 459.366 386.49C459.646 386.61 459.886 386.8 460.086 387.06C460.286 387.313 460.386 387.66 460.386 388.1C460.386 388.44 460.296 388.76 460.116 389.06C459.936 389.36 459.669 389.603 459.316 389.79C458.963 389.977 458.546 390.07 458.066 390.07ZM466.725 387.05C466.725 387.223 466.715 387.407 466.695 387.6H462.315C462.348 388.14 462.532 388.563 462.865 388.87C463.205 389.17 463.615 389.32 464.095 389.32C464.488 389.32 464.815 389.23 465.075 389.05C465.342 388.863 465.528 388.617 465.635 388.31H466.615C466.468 388.837 466.175 389.267 465.735 389.6C465.295 389.927 464.748 390.09 464.095 390.09C463.575 390.09 463.108 389.973 462.695 389.74C462.288 389.507 461.968 389.177 461.735 388.75C461.502 388.317 461.385 387.817 461.385 387.25C461.385 386.683 461.498 386.187 461.725 385.76C461.952 385.333 462.268 385.007 462.675 384.78C463.088 384.547 463.562 384.43 464.095 384.43C464.615 384.43 465.075 384.543 465.475 384.77C465.875 384.997 466.182 385.31 466.395 385.71C466.615 386.103 466.725 386.55 466.725 387.05ZM465.785 386.86C465.785 386.513 465.708 386.217 465.555 385.97C465.402 385.717 465.192 385.527 464.925 385.4C464.665 385.267 464.375 385.2 464.055 385.2C463.595 385.2 463.202 385.347 462.875 385.64C462.555 385.933 462.372 386.34 462.325 386.86H465.785ZM468.836 385.53C469.016 385.217 469.283 384.957 469.636 384.75C469.996 384.537 470.413 384.43 470.886 384.43C471.373 384.43 471.813 384.547 472.206 384.78C472.606 385.013 472.92 385.343 473.146 385.77C473.373 386.19 473.486 386.68 473.486 387.24C473.486 387.793 473.373 388.287 473.146 388.72C472.92 389.153 472.606 389.49 472.206 389.73C471.813 389.97 471.373 390.09 470.886 390.09C470.42 390.09 470.006 389.987 469.646 389.78C469.293 389.567 469.023 389.303 468.836 388.99V392.6H467.926V384.52H468.836V385.53ZM472.556 387.24C472.556 386.827 472.473 386.467 472.306 386.16C472.14 385.853 471.913 385.62 471.626 385.46C471.346 385.3 471.036 385.22 470.696 385.22C470.363 385.22 470.053 385.303 469.766 385.47C469.486 385.63 469.26 385.867 469.086 386.18C468.92 386.487 468.836 386.843 468.836 387.25C468.836 387.663 468.92 388.027 469.086 388.34C469.26 388.647 469.486 388.883 469.766 389.05C470.053 389.21 470.363 389.29 470.696 389.29C471.036 389.29 471.346 389.21 471.626 389.05C471.913 388.883 472.14 388.647 472.306 388.34C472.473 388.027 472.556 387.66 472.556 387.24Z" fill="#737373"/>
<path d="M514.141 390.07C513.494 390.07 512.904 389.92 512.371 389.62C511.838 389.313 511.414 388.89 511.101 388.35C510.794 387.803 510.641 387.19 510.641 386.51C510.641 385.83 510.794 385.22 511.101 384.68C511.414 384.133 511.838 383.71 512.371 383.41C512.904 383.103 513.494 382.95 514.141 382.95C514.794 382.95 515.388 383.103 515.921 383.41C516.454 383.71 516.874 384.13 517.181 384.67C517.488 385.21 517.641 385.823 517.641 386.51C517.641 387.197 517.488 387.81 517.181 388.35C516.874 388.89 516.454 389.313 515.921 389.62C515.388 389.92 514.794 390.07 514.141 390.07ZM514.141 389.28C514.628 389.28 515.064 389.167 515.451 388.94C515.844 388.713 516.151 388.39 516.371 387.97C516.598 387.55 516.711 387.063 516.711 386.51C516.711 385.95 516.598 385.463 516.371 385.05C516.151 384.63 515.848 384.307 515.461 384.08C515.074 383.853 514.634 383.74 514.141 383.74C513.648 383.74 513.208 383.853 512.821 384.08C512.434 384.307 512.128 384.63 511.901 385.05C511.681 385.463 511.571 385.95 511.571 386.51C511.571 387.063 511.681 387.55 511.901 387.97C512.128 388.39 512.434 388.713 512.821 388.94C513.214 389.167 513.654 389.28 514.141 389.28ZM518.502 387.25C518.502 386.683 518.616 386.19 518.842 385.77C519.069 385.343 519.382 385.013 519.782 384.78C520.189 384.547 520.652 384.43 521.172 384.43C521.846 384.43 522.399 384.593 522.832 384.92C523.272 385.247 523.562 385.7 523.702 386.28H522.722C522.629 385.947 522.446 385.683 522.172 385.49C521.906 385.297 521.572 385.2 521.172 385.2C520.652 385.2 520.232 385.38 519.912 385.74C519.592 386.093 519.432 386.597 519.432 387.25C519.432 387.91 519.592 388.42 519.912 388.78C520.232 389.14 520.652 389.32 521.172 389.32C521.572 389.32 521.906 389.227 522.172 389.04C522.439 388.853 522.622 388.587 522.722 388.24H523.702C523.556 388.8 523.262 389.25 522.822 389.59C522.382 389.923 521.832 390.09 521.172 390.09C520.652 390.09 520.189 389.973 519.782 389.74C519.382 389.507 519.069 389.177 518.842 388.75C518.616 388.323 518.502 387.823 518.502 387.25ZM526.026 385.27V388.5C526.026 388.767 526.083 388.957 526.196 389.07C526.31 389.177 526.506 389.23 526.786 389.23H527.456V390H526.636C526.13 390 525.75 389.883 525.496 389.65C525.243 389.417 525.116 389.033 525.116 388.5V385.27H524.406V384.52H525.116V383.14H526.026V384.52H527.456V385.27H526.026Z" fill="#0C15F9"/>
<path d="M514.141 390.07C513.494 390.07 512.904 389.92 512.371 389.62C511.838 389.313 511.414 388.89 511.101 388.35C510.794 387.803 510.641 387.19 510.641 386.51C510.641 385.83 510.794 385.22 511.101 384.68C511.414 384.133 511.838 383.71 512.371 383.41C512.904 383.103 513.494 382.95 514.141 382.95C514.794 382.95 515.388 383.103 515.921 383.41C516.454 383.71 516.874 384.13 517.181 384.67C517.488 385.21 517.641 385.823 517.641 386.51C517.641 387.197 517.488 387.81 517.181 388.35C516.874 388.89 516.454 389.313 515.921 389.62C515.388 389.92 514.794 390.07 514.141 390.07ZM514.141 389.28C514.628 389.28 515.064 389.167 515.451 388.94C515.844 388.713 516.151 388.39 516.371 387.97C516.598 387.55 516.711 387.063 516.711 386.51C516.711 385.95 516.598 385.463 516.371 385.05C516.151 384.63 515.848 384.307 515.461 384.08C515.074 383.853 514.634 383.74 514.141 383.74C513.648 383.74 513.208 383.853 512.821 384.08C512.434 384.307 512.128 384.63 511.901 385.05C511.681 385.463 511.571 385.95 511.571 386.51C511.571 387.063 511.681 387.55 511.901 387.97C512.128 388.39 512.434 388.713 512.821 388.94C513.214 389.167 513.654 389.28 514.141 389.28ZM518.502 387.25C518.502 386.683 518.616 386.19 518.842 385.77C519.069 385.343 519.382 385.013 519.782 384.78C520.189 384.547 520.652 384.43 521.172 384.43C521.846 384.43 522.399 384.593 522.832 384.92C523.272 385.247 523.562 385.7 523.702 386.28H522.722C522.629 385.947 522.446 385.683 522.172 385.49C521.906 385.297 521.572 385.2 521.172 385.2C520.652 385.2 520.232 385.38 519.912 385.74C519.592 386.093 519.432 386.597 519.432 387.25C519.432 387.91 519.592 388.42 519.912 388.78C520.232 389.14 520.652 389.32 521.172 389.32C521.572 389.32 521.906 389.227 522.172 389.04C522.439 388.853 522.622 388.587 522.722 388.24H523.702C523.556 388.8 523.262 389.25 522.822 389.59C522.382 389.923 521.832 390.09 521.172 390.09C520.652 390.09 520.189 389.973 519.782 389.74C519.382 389.507 519.069 389.177 518.842 388.75C518.616 388.323 518.502 387.823 518.502 387.25ZM526.026 385.27V388.5C526.026 388.767 526.083 388.957 526.196 389.07C526.31 389.177 526.506 389.23 526.786 389.23H527.456V390H526.636C526.13 390 525.75 389.883 525.496 389.65C525.243 389.417 525.116 389.033 525.116 388.5V385.27H524.406V384.52H525.116V383.14H526.026V384.52H527.456V385.27H526.026Z" fill="#737373"/>
<path d="M570.733 390H569.823L566.163 384.45V390H565.253V383.02H566.163L569.823 388.56V383.02H570.733V390ZM574.675 390.09C574.161 390.09 573.695 389.973 573.275 389.74C572.861 389.507 572.535 389.177 572.295 388.75C572.061 388.317 571.945 387.817 571.945 387.25C571.945 386.69 572.065 386.197 572.305 385.77C572.551 385.337 572.885 385.007 573.305 384.78C573.725 384.547 574.195 384.43 574.715 384.43C575.235 384.43 575.705 384.547 576.125 384.78C576.545 385.007 576.875 385.333 577.115 385.76C577.361 386.187 577.485 386.683 577.485 387.25C577.485 387.817 577.358 388.317 577.105 388.75C576.858 389.177 576.521 389.507 576.095 389.74C575.668 389.973 575.195 390.09 574.675 390.09ZM574.675 389.29C575.001 389.29 575.308 389.213 575.595 389.06C575.881 388.907 576.111 388.677 576.285 388.37C576.465 388.063 576.555 387.69 576.555 387.25C576.555 386.81 576.468 386.437 576.295 386.13C576.121 385.823 575.895 385.597 575.615 385.45C575.335 385.297 575.031 385.22 574.705 385.22C574.371 385.22 574.065 385.297 573.785 385.45C573.511 385.597 573.291 385.823 573.125 386.13C572.958 386.437 572.875 386.81 572.875 387.25C572.875 387.697 572.955 388.073 573.115 388.38C573.281 388.687 573.501 388.917 573.775 389.07C574.048 389.217 574.348 389.29 574.675 389.29ZM580.721 389.16L582.421 384.52H583.391L581.241 390H580.181L578.031 384.52H579.011L580.721 389.16Z" fill="#0C15F9"/>
<path d="M570.733 390H569.823L566.163 384.45V390H565.253V383.02H566.163L569.823 388.56V383.02H570.733V390ZM574.675 390.09C574.161 390.09 573.695 389.973 573.275 389.74C572.861 389.507 572.535 389.177 572.295 388.75C572.061 388.317 571.945 387.817 571.945 387.25C571.945 386.69 572.065 386.197 572.305 385.77C572.551 385.337 572.885 385.007 573.305 384.78C573.725 384.547 574.195 384.43 574.715 384.43C575.235 384.43 575.705 384.547 576.125 384.78C576.545 385.007 576.875 385.333 577.115 385.76C577.361 386.187 577.485 386.683 577.485 387.25C577.485 387.817 577.358 388.317 577.105 388.75C576.858 389.177 576.521 389.507 576.095 389.74C575.668 389.973 575.195 390.09 574.675 390.09ZM574.675 389.29C575.001 389.29 575.308 389.213 575.595 389.06C575.881 388.907 576.111 388.677 576.285 388.37C576.465 388.063 576.555 387.69 576.555 387.25C576.555 386.81 576.468 386.437 576.295 386.13C576.121 385.823 575.895 385.597 575.615 385.45C575.335 385.297 575.031 385.22 574.705 385.22C574.371 385.22 574.065 385.297 573.785 385.45C573.511 385.597 573.291 385.823 573.125 386.13C572.958 386.437 572.875 386.81 572.875 387.25C572.875 387.697 572.955 388.073 573.115 388.38C573.281 388.687 573.501 388.917 573.775 389.07C574.048 389.217 574.348 389.29 574.675 389.29ZM580.721 389.16L582.421 384.52H583.391L581.241 390H580.181L578.031 384.52H579.011L580.721 389.16Z" fill="#737373"/>
<path d="M623.267 383.03C624.027 383.03 624.684 383.173 625.237 383.46C625.797 383.74 626.224 384.143 626.517 384.67C626.817 385.197 626.967 385.817 626.967 386.53C626.967 387.243 626.817 387.863 626.517 388.39C626.224 388.91 625.797 389.31 625.237 389.59C624.684 389.863 624.027 390 623.267 390H621.097V383.03H623.267ZM623.267 389.25C624.167 389.25 624.854 389.013 625.327 388.54C625.8 388.06 626.037 387.39 626.037 386.53C626.037 385.663 625.797 384.987 625.317 384.5C624.844 384.013 624.16 383.77 623.267 383.77H622.007V389.25H623.267ZM633.167 387.05C633.167 387.223 633.157 387.407 633.137 387.6H628.757C628.791 388.14 628.974 388.563 629.307 388.87C629.647 389.17 630.057 389.32 630.537 389.32C630.931 389.32 631.257 389.23 631.517 389.05C631.784 388.863 631.971 388.617 632.077 388.31H633.057C632.911 388.837 632.617 389.267 632.177 389.6C631.737 389.927 631.191 390.09 630.537 390.09C630.017 390.09 629.551 389.973 629.137 389.74C628.731 389.507 628.411 389.177 628.177 388.75C627.944 388.317 627.827 387.817 627.827 387.25C627.827 386.683 627.941 386.187 628.167 385.76C628.394 385.333 628.711 385.007 629.117 384.78C629.531 384.547 630.004 384.43 630.537 384.43C631.057 384.43 631.517 384.543 631.917 384.77C632.317 384.997 632.624 385.31 632.837 385.71C633.057 386.103 633.167 386.55 633.167 387.05ZM632.227 386.86C632.227 386.513 632.151 386.217 631.997 385.97C631.844 385.717 631.634 385.527 631.367 385.4C631.107 385.267 630.817 385.2 630.497 385.2C630.037 385.2 629.644 385.347 629.317 385.64C628.997 385.933 628.814 386.34 628.767 386.86H632.227ZM634.029 387.25C634.029 386.683 634.142 386.19 634.369 385.77C634.595 385.343 634.909 385.013 635.309 384.78C635.715 384.547 636.179 384.43 636.699 384.43C637.372 384.43 637.925 384.593 638.359 384.92C638.799 385.247 639.089 385.7 639.229 386.28H638.249C638.155 385.947 637.972 385.683 637.699 385.49C637.432 385.297 637.099 385.2 636.699 385.2C636.179 385.2 635.759 385.38 635.439 385.74C635.119 386.093 634.959 386.597 634.959 387.25C634.959 387.91 635.119 388.42 635.439 388.78C635.759 389.14 636.179 389.32 636.699 389.32C637.099 389.32 637.432 389.227 637.699 389.04C637.965 388.853 638.149 388.587 638.249 388.24H639.229C639.082 388.8 638.789 389.25 638.349 389.59C637.909 389.923 637.359 390.09 636.699 390.09C636.179 390.09 635.715 389.973 635.309 389.74C634.909 389.507 634.595 389.177 634.369 388.75C634.142 388.323 634.029 387.823 634.029 387.25Z" fill="#0C15F9"/>
<path d="M623.267 383.03C624.027 383.03 624.684 383.173 625.237 383.46C625.797 383.74 626.224 384.143 626.517 384.67C626.817 385.197 626.967 385.817 626.967 386.53C626.967 387.243 626.817 387.863 626.517 388.39C626.224 388.91 625.797 389.31 625.237 389.59C624.684 389.863 624.027 390 623.267 390H621.097V383.03H623.267ZM623.267 389.25C624.167 389.25 624.854 389.013 625.327 388.54C625.8 388.06 626.037 387.39 626.037 386.53C626.037 385.663 625.797 384.987 625.317 384.5C624.844 384.013 624.16 383.77 623.267 383.77H622.007V389.25H623.267ZM633.167 387.05C633.167 387.223 633.157 387.407 633.137 387.6H628.757C628.791 388.14 628.974 388.563 629.307 388.87C629.647 389.17 630.057 389.32 630.537 389.32C630.931 389.32 631.257 389.23 631.517 389.05C631.784 388.863 631.971 388.617 632.077 388.31H633.057C632.911 388.837 632.617 389.267 632.177 389.6C631.737 389.927 631.191 390.09 630.537 390.09C630.017 390.09 629.551 389.973 629.137 389.74C628.731 389.507 628.411 389.177 628.177 388.75C627.944 388.317 627.827 387.817 627.827 387.25C627.827 386.683 627.941 386.187 628.167 385.76C628.394 385.333 628.711 385.007 629.117 384.78C629.531 384.547 630.004 384.43 630.537 384.43C631.057 384.43 631.517 384.543 631.917 384.77C632.317 384.997 632.624 385.31 632.837 385.71C633.057 386.103 633.167 386.55 633.167 387.05ZM632.227 386.86C632.227 386.513 632.151 386.217 631.997 385.97C631.844 385.717 631.634 385.527 631.367 385.4C631.107 385.267 630.817 385.2 630.497 385.2C630.037 385.2 629.644 385.347 629.317 385.64C628.997 385.933 628.814 386.34 628.767 386.86H632.227ZM634.029 387.25C634.029 386.683 634.142 386.19 634.369 385.77C634.595 385.343 634.909 385.013 635.309 384.78C635.715 384.547 636.179 384.43 636.699 384.43C637.372 384.43 637.925 384.593 638.359 384.92C638.799 385.247 639.089 385.7 639.229 386.28H638.249C638.155 385.947 637.972 385.683 637.699 385.49C637.432 385.297 637.099 385.2 636.699 385.2C636.179 385.2 635.759 385.38 635.439 385.74C635.119 386.093 634.959 386.597 634.959 387.25C634.959 387.91 635.119 388.42 635.439 388.78C635.759 389.14 636.179 389.32 636.699 389.32C637.099 389.32 637.432 389.227 637.699 389.04C637.965 388.853 638.149 388.587 638.249 388.24H639.229C639.082 388.8 638.789 389.25 638.349 389.59C637.909 389.923 637.359 390.09 636.699 390.09C636.179 390.09 635.715 389.973 635.309 389.74C634.909 389.507 634.595 389.177 634.369 388.75C634.142 388.323 634.029 387.823 634.029 387.25Z" fill="#737373"/>
<path d="M20.5515 383.03V388.18C20.5515 388.753 20.3748 389.213 20.0215 389.56C19.6682 389.9 19.2015 390.07 18.6215 390.07C18.0348 390.07 17.5648 389.897 17.2115 389.55C16.8582 389.197 16.6815 388.717 16.6815 388.11H17.5915C17.5982 388.45 17.6848 388.727 17.8515 388.94C18.0248 389.153 18.2815 389.26 18.6215 389.26C18.9615 389.26 19.2148 389.16 19.3815 388.96C19.5482 388.753 19.6315 388.493 19.6315 388.18V383.03H20.5515ZM22.0042 387.24C22.0042 386.68 22.1176 386.19 22.3442 385.77C22.5709 385.343 22.8809 385.013 23.2742 384.78C23.6742 384.547 24.1176 384.43 24.6042 384.43C25.0842 384.43 25.5009 384.533 25.8542 384.74C26.2076 384.947 26.4709 385.207 26.6442 385.52V384.52H27.5642V390H26.6442V388.98C26.4642 389.3 26.1942 389.567 25.8342 389.78C25.4809 389.987 25.0676 390.09 24.5942 390.09C24.1076 390.09 23.6676 389.97 23.2742 389.73C22.8809 389.49 22.5709 389.153 22.3442 388.72C22.1176 388.287 22.0042 387.793 22.0042 387.24ZM26.6442 387.25C26.6442 386.837 26.5609 386.477 26.3942 386.17C26.2276 385.863 26.0009 385.63 25.7142 385.47C25.4342 385.303 25.1242 385.22 24.7842 385.22C24.4442 385.22 24.1342 385.3 23.8542 385.46C23.5742 385.62 23.3509 385.853 23.1842 386.16C23.0176 386.467 22.9342 386.827 22.9342 387.24C22.9342 387.66 23.0176 388.027 23.1842 388.34C23.3509 388.647 23.5742 388.883 23.8542 389.05C24.1342 389.21 24.4442 389.29 24.7842 389.29C25.1242 389.29 25.4342 389.21 25.7142 389.05C26.0009 388.883 26.2276 388.647 26.3942 388.34C26.5609 388.027 26.6442 387.663 26.6442 387.25ZM31.772 384.42C32.4387 384.42 32.9787 384.623 33.392 385.03C33.8054 385.43 34.012 386.01 34.012 386.77V390H33.112V386.9C33.112 386.353 32.9754 385.937 32.702 385.65C32.4287 385.357 32.0554 385.21 31.582 385.21C31.102 385.21 30.7187 385.36 30.432 385.66C30.152 385.96 30.012 386.397 30.012 386.97V390H29.102V384.52H30.012V385.3C30.192 385.02 30.4354 384.803 30.742 384.65C31.0554 384.497 31.3987 384.42 31.772 384.42Z" fill="#0C15F9"/>
<path d="M20.5515 383.03V388.18C20.5515 388.753 20.3748 389.213 20.0215 389.56C19.6682 389.9 19.2015 390.07 18.6215 390.07C18.0348 390.07 17.5648 389.897 17.2115 389.55C16.8582 389.197 16.6815 388.717 16.6815 388.11H17.5915C17.5982 388.45 17.6848 388.727 17.8515 388.94C18.0248 389.153 18.2815 389.26 18.6215 389.26C18.9615 389.26 19.2148 389.16 19.3815 388.96C19.5482 388.753 19.6315 388.493 19.6315 388.18V383.03H20.5515ZM22.0042 387.24C22.0042 386.68 22.1176 386.19 22.3442 385.77C22.5709 385.343 22.8809 385.013 23.2742 384.78C23.6742 384.547 24.1176 384.43 24.6042 384.43C25.0842 384.43 25.5009 384.533 25.8542 384.74C26.2076 384.947 26.4709 385.207 26.6442 385.52V384.52H27.5642V390H26.6442V388.98C26.4642 389.3 26.1942 389.567 25.8342 389.78C25.4809 389.987 25.0676 390.09 24.5942 390.09C24.1076 390.09 23.6676 389.97 23.2742 389.73C22.8809 389.49 22.5709 389.153 22.3442 388.72C22.1176 388.287 22.0042 387.793 22.0042 387.24ZM26.6442 387.25C26.6442 386.837 26.5609 386.477 26.3942 386.17C26.2276 385.863 26.0009 385.63 25.7142 385.47C25.4342 385.303 25.1242 385.22 24.7842 385.22C24.4442 385.22 24.1342 385.3 23.8542 385.46C23.5742 385.62 23.3509 385.853 23.1842 386.16C23.0176 386.467 22.9342 386.827 22.9342 387.24C22.9342 387.66 23.0176 388.027 23.1842 388.34C23.3509 388.647 23.5742 388.883 23.8542 389.05C24.1342 389.21 24.4442 389.29 24.7842 389.29C25.1242 389.29 25.4342 389.21 25.7142 389.05C26.0009 388.883 26.2276 388.647 26.3942 388.34C26.5609 388.027 26.6442 387.663 26.6442 387.25ZM31.772 384.42C32.4387 384.42 32.9787 384.623 33.392 385.03C33.8054 385.43 34.012 386.01 34.012 386.77V390H33.112V386.9C33.112 386.353 32.9754 385.937 32.702 385.65C32.4287 385.357 32.0554 385.21 31.582 385.21C31.102 385.21 30.7187 385.36 30.432 385.66C30.152 385.96 30.012 386.397 30.012 386.97V390H29.102V384.52H30.012V385.3C30.192 385.02 30.4354 384.803 30.742 384.65C31.0554 384.497 31.3987 384.42 31.772 384.42Z" fill="#737373"/>
<path d="M27 350H638" stroke="#191919" stroke-width="1.08642" stroke-linecap="round"/>
<path d="M27 301H638" stroke="#191919" stroke-width="1.08642" stroke-linecap="round"/>
<path d="M27 252H638" stroke="#191919" stroke-width="1.08642" stroke-linecap="round"/>
<path d="M27 203H638" stroke="#191919" stroke-width="1.08642" stroke-linecap="round"/>
<path d="M27 154H638" stroke="#191919" stroke-width="1.08642" stroke-linecap="round"/>
<path d="M27 105H638" stroke="#191919" stroke-width="1.08642" stroke-linecap="round"/>
<path d="M27 56H638" stroke="#191919" stroke-width="1.08642" stroke-linecap="round"/>
<path d="M27 7H638" stroke="#191919" stroke-width="1.08642" stroke-linecap="round"/>
<path opacity="0.7" d="M628.555 353H26L86.6033 317.692L138.762 291.463H190.424L248.046 272.801L296.728 266.748L356.679 254.642H411.391L466.119 233.457L515.794 225.891H576.373L637 181V353H633.523H628.555Z" fill="url(#paint0_linear_0_1)" stroke="black" stroke-width="1.08434"/>
<path d="M27 352L84.1248 318.302L138.254 291.142H190.427L248.048 273.036L302.599 265.833L356.465 254.929C381.102 254.929 386.54 254.929 411.177 254.929L467.109 233.302L516.286 226.26H576.155L636 182" stroke="#1F55DD" stroke-width="1.62651" stroke-linecap="round"/>
<circle cx="26.5" cy="351.5" r="2.5" fill="#285FEA"/>
<circle cx="82.5" cy="318.5" r="2.5" fill="#285FEA"/>
<circle cx="138.5" cy="290.5" r="2.5" fill="#285FEA"/>
<circle cx="190.5" cy="290.5" r="2.5" fill="#285FEA"/>
<circle cx="247.5" cy="272.5" r="2.5" fill="#285FEA"/>
<circle cx="302.5" cy="265.5" r="2.5" fill="#285FEA"/>
<circle cx="356.5" cy="254.5" r="2.5" fill="#285FEA"/>
<circle cx="412.5" cy="253.5" r="2.5" fill="#285FEA"/>
<circle cx="467.5" cy="232.5" r="2.5" fill="#285FEA"/>
<circle cx="516.5" cy="225.5" r="2.5" fill="#285FEA"/>
<circle cx="575.5" cy="225.5" r="2.5" fill="#285FEA"/>
<circle cx="635.5" cy="181.5" r="2.5" fill="#285FEA"/>
<path d="M9.31105 53.56H5.80105V55.84C5.95439 55.6267 6.18105 55.4533 6.48105 55.32C6.78105 55.18 7.10439 55.11 7.45105 55.11C8.00439 55.11 8.45439 55.2267 8.80106 55.46C9.14772 55.6867 9.39439 55.9833 9.54105 56.35C9.69439 56.71 9.77105 57.0933 9.77105 57.5C9.77105 57.98 9.68105 58.41 9.50106 58.79C9.32106 59.17 9.04439 59.47 8.67105 59.69C8.30439 59.91 7.84772 60.02 7.30105 60.02C6.60105 60.02 6.03439 59.84 5.60105 59.48C5.16772 59.12 4.90439 58.64 4.81105 58.04H5.70105C5.78772 58.42 5.97105 58.7167 6.25105 58.93C6.53105 59.1433 6.88439 59.25 7.31105 59.25C7.83772 59.25 8.23439 59.0933 8.50106 58.78C8.76772 58.46 8.90105 58.04 8.90105 57.52C8.90105 57 8.76772 56.6 8.50106 56.32C8.23439 56.0333 7.84105 55.89 7.32105 55.89C6.96772 55.89 6.65772 55.9767 6.39105 56.15C6.13105 56.3167 5.94105 56.5467 5.82105 56.84H4.96105V52.76H9.31105V53.56ZM10.9804 56.31C10.9804 55.1633 11.167 54.27 11.5404 53.63C11.9137 52.9833 12.567 52.66 13.5004 52.66C14.427 52.66 15.077 52.9833 15.4504 53.63C15.8237 54.27 16.0104 55.1633 16.0104 56.31C16.0104 57.4767 15.8237 58.3833 15.4504 59.03C15.077 59.6767 14.427 60 13.5004 60C12.567 60 11.9137 59.6767 11.5404 59.03C11.167 58.3833 10.9804 57.4767 10.9804 56.31ZM15.1104 56.31C15.1104 55.73 15.0704 55.24 14.9904 54.84C14.917 54.4333 14.7604 54.1067 14.5204 53.86C14.287 53.6133 13.947 53.49 13.5004 53.49C13.047 53.49 12.7004 53.6133 12.4604 53.86C12.227 54.1067 12.0704 54.4333 11.9904 54.84C11.917 55.24 11.8804 55.73 11.8804 56.31C11.8804 56.91 11.917 57.4133 11.9904 57.82C12.0704 58.2267 12.227 58.5533 12.4604 58.8C12.7004 59.0467 13.047 59.17 13.5004 59.17C13.947 59.17 14.287 59.0467 14.5204 58.8C14.7604 58.5533 14.917 58.2267 14.9904 57.82C15.0704 57.4133 15.1104 56.91 15.1104 56.31ZM17.2596 56.31C17.2596 55.1633 17.4463 54.27 17.8196 53.63C18.193 52.9833 18.8463 52.66 19.7796 52.66C20.7063 52.66 21.3563 52.9833 21.7296 53.63C22.103 54.27 22.2896 55.1633 22.2896 56.31C22.2896 57.4767 22.103 58.3833 21.7296 59.03C21.3563 59.6767 20.7063 60 19.7796 60C18.8463 60 18.193 59.6767 17.8196 59.03C17.4463 58.3833 17.2596 57.4767 17.2596 56.31ZM21.3896 56.31C21.3896 55.73 21.3496 55.24 21.2696 54.84C21.1963 54.4333 21.0396 54.1067 20.7996 53.86C20.5663 53.6133 20.2263 53.49 19.7796 53.49C19.3263 53.49 18.9796 53.6133 18.7396 53.86C18.5063 54.1067 18.3496 54.4333 18.2696 54.84C18.1963 55.24 18.1596 55.73 18.1596 56.31C18.1596 56.91 18.1963 57.4133 18.2696 57.82C18.3496 58.2267 18.5063 58.5533 18.7396 58.8C18.9796 59.0467 19.3263 59.17 19.7796 59.17C20.2263 59.17 20.5663 59.0467 20.7996 58.8C21.0396 58.5533 21.1963 58.2267 21.2696 57.82C21.3496 57.4133 21.3896 56.91 21.3896 56.31Z" fill="#0C15F9"/>
<path d="M9.31105 53.56H5.80105V55.84C5.95439 55.6267 6.18105 55.4533 6.48105 55.32C6.78105 55.18 7.10439 55.11 7.45105 55.11C8.00439 55.11 8.45439 55.2267 8.80106 55.46C9.14772 55.6867 9.39439 55.9833 9.54105 56.35C9.69439 56.71 9.77105 57.0933 9.77105 57.5C9.77105 57.98 9.68105 58.41 9.50106 58.79C9.32106 59.17 9.04439 59.47 8.67105 59.69C8.30439 59.91 7.84772 60.02 7.30105 60.02C6.60105 60.02 6.03439 59.84 5.60105 59.48C5.16772 59.12 4.90439 58.64 4.81105 58.04H5.70105C5.78772 58.42 5.97105 58.7167 6.25105 58.93C6.53105 59.1433 6.88439 59.25 7.31105 59.25C7.83772 59.25 8.23439 59.0933 8.50106 58.78C8.76772 58.46 8.90105 58.04 8.90105 57.52C8.90105 57 8.76772 56.6 8.50106 56.32C8.23439 56.0333 7.84105 55.89 7.32105 55.89C6.96772 55.89 6.65772 55.9767 6.39105 56.15C6.13105 56.3167 5.94105 56.5467 5.82105 56.84H4.96105V52.76H9.31105V53.56ZM10.9804 56.31C10.9804 55.1633 11.167 54.27 11.5404 53.63C11.9137 52.9833 12.567 52.66 13.5004 52.66C14.427 52.66 15.077 52.9833 15.4504 53.63C15.8237 54.27 16.0104 55.1633 16.0104 56.31C16.0104 57.4767 15.8237 58.3833 15.4504 59.03C15.077 59.6767 14.427 60 13.5004 60C12.567 60 11.9137 59.6767 11.5404 59.03C11.167 58.3833 10.9804 57.4767 10.9804 56.31ZM15.1104 56.31C15.1104 55.73 15.0704 55.24 14.9904 54.84C14.917 54.4333 14.7604 54.1067 14.5204 53.86C14.287 53.6133 13.947 53.49 13.5004 53.49C13.047 53.49 12.7004 53.6133 12.4604 53.86C12.227 54.1067 12.0704 54.4333 11.9904 54.84C11.917 55.24 11.8804 55.73 11.8804 56.31C11.8804 56.91 11.917 57.4133 11.9904 57.82C12.0704 58.2267 12.227 58.5533 12.4604 58.8C12.7004 59.0467 13.047 59.17 13.5004 59.17C13.947 59.17 14.287 59.0467 14.5204 58.8C14.7604 58.5533 14.917 58.2267 14.9904 57.82C15.0704 57.4133 15.1104 56.91 15.1104 56.31ZM17.2596 56.31C17.2596 55.1633 17.4463 54.27 17.8196 53.63C18.193 52.9833 18.8463 52.66 19.7796 52.66C20.7063 52.66 21.3563 52.9833 21.7296 53.63C22.103 54.27 22.2896 55.1633 22.2896 56.31C22.2896 57.4767 22.103 58.3833 21.7296 59.03C21.3563 59.6767 20.7063 60 19.7796 60C18.8463 60 18.193 59.6767 17.8196 59.03C17.4463 58.3833 17.2596 57.4767 17.2596 56.31ZM21.3896 56.31C21.3896 55.73 21.3496 55.24 21.2696 54.84C21.1963 54.4333 21.0396 54.1067 20.7996 53.86C20.5663 53.6133 20.2263 53.49 19.7796 53.49C19.3263 53.49 18.9796 53.6133 18.7396 53.86C18.5063 54.1067 18.3496 54.4333 18.2696 54.84C18.1963 55.24 18.1596 55.73 18.1596 56.31C18.1596 56.91 18.1963 57.4133 18.2696 57.82C18.3496 58.2267 18.5063 58.5533 18.7396 58.8C18.9796 59.0467 19.3263 59.17 19.7796 59.17C20.2263 59.17 20.5663 59.0467 20.7996 58.8C21.0396 58.5533 21.1963 58.2267 21.2696 57.82C21.3496 57.4133 21.3896 56.91 21.3896 56.31Z" fill="#737373"/>
<defs>
<linearGradient id="paint0_linear_0_1" x1="263.446" y1="222.865" x2="263.446" y2="356.531" gradientUnits="userSpaceOnUse">
<stop stop-color="#1F55DD"/>
<stop offset="1"/>
</linearGradient>
</defs>
</svg>
