<svg width="354" height="355" viewBox="0 0 354 355" fill="none" xmlns="http://www.w3.org/2000/svg">
<path fill-rule="evenodd" clip-rule="evenodd" d="M345.405 122.333C321.365 49.4626 253.895 -0.0358513 176.794 1.94834e-05L176.805 88.4984C202.62 88.8909 224.192 98.199 241.521 116.423C250.511 125.886 257.235 137.267 261.185 149.708L345.405 122.333ZM334.006 258.865C356.093 216.848 359.861 167.434 345.407 122.333L261.187 149.709C266.49 166.466 267.013 182.919 262.755 199.068C259.741 210.776 254.363 221.744 246.951 231.295C239.539 240.846 230.251 248.779 219.658 254.606C209.064 260.432 197.391 264.028 185.355 265.173C173.32 266.318 161.177 264.987 149.676 261.263L122.507 344.906C122.469 345.019 122.416 345.125 122.347 345.223L122.18 345.454C162.023 358.438 205.182 356.862 243.972 341.006C282.763 325.149 314.667 296.042 334.006 258.865Z" fill="url(#paint0_linear_36_2)"/>
<path fill-rule="evenodd" clip-rule="evenodd" d="M176.808 88.4984L176.795 0C139.433 0.0875468 103.049 11.9504 72.8162 33.9021L124.877 105.52C135.936 97.5492 148.644 92.1647 162.063 89.7644C166.945 89.0265 171.871 88.6036 176.808 88.4984ZM124.878 105.526L72.8171 33.9089C57.9035 44.7805 44.777 57.912 33.9111 72.8298C33.995 73.0409 34.1243 73.2311 34.2898 73.3868C57.9821 90.5661 81.6871 107.787 105.405 125.05C110.81 117.543 117.385 110.951 124.878 105.526ZM33.907 72.8293C33.9909 73.0405 34.1202 73.2307 34.2857 73.3864C57.9773 90.565 81.6823 107.786 105.401 125.05C99.8957 132.531 95.6581 140.867 92.8574 149.724L92.8478 149.72C91.1182 155.014 89.9011 160.461 89.2132 165.987L1.34037 154.902C2.75162 143.843 5.18832 132.94 8.61897 122.333L8.62289 122.335C14.4385 104.624 22.9681 87.9233 33.907 72.8293ZM1.34348 154.907L89.2205 165.994C86.3782 188.409 92.2083 211.062 105.518 229.32C105.518 229.32 105.518 229.32 105.519 229.32C116.496 244.358 131.95 255.539 149.668 261.261L122.496 344.904C122.459 345.016 122.405 345.123 122.337 345.22L122.169 345.451C86.6599 333.854 55.7111 311.356 33.7234 281.157C33.7237 281.157 33.7241 281.157 33.7244 281.156C7.39904 244.661 -4.16682 199.568 1.34348 154.907Z" fill="url(#paint1_linear_36_2)"/>
<path d="M299.684 197.538C299.609 197.193 299.479 196.936 299.292 196.768C299.105 196.591 298.839 196.502 298.494 196.502C297.962 196.502 297.579 196.735 297.346 197.202C297.113 197.659 296.991 198.387 296.982 199.386C297.187 199.059 297.481 198.803 297.864 198.616C298.256 198.429 298.685 198.336 299.152 198.336C300.067 198.336 300.799 198.625 301.35 199.204C301.91 199.783 302.19 200.59 302.19 201.626C302.19 202.307 302.05 202.905 301.77 203.418C301.499 203.931 301.098 204.333 300.566 204.622C300.043 204.911 299.423 205.056 298.704 205.056C297.267 205.056 296.268 204.608 295.708 203.712C295.148 202.807 294.868 201.509 294.868 199.82C294.868 198.047 295.162 196.731 295.75 195.872C296.347 195.004 297.299 194.57 298.606 194.57C299.306 194.57 299.894 194.71 300.37 194.99C300.855 195.261 301.219 195.62 301.462 196.068C301.714 196.516 301.863 197.006 301.91 197.538H299.684ZM298.578 200.226C298.177 200.226 297.841 200.347 297.57 200.59C297.309 200.823 297.178 201.159 297.178 201.598C297.178 202.046 297.299 202.396 297.542 202.648C297.794 202.9 298.149 203.026 298.606 203.026C299.017 203.026 299.339 202.905 299.572 202.662C299.815 202.41 299.936 202.069 299.936 201.64C299.936 201.201 299.819 200.856 299.586 200.604C299.353 200.352 299.017 200.226 298.578 200.226ZM303.544 199.75C303.544 198.145 303.852 196.88 304.468 195.956C305.093 195.032 306.097 194.57 307.478 194.57C308.859 194.57 309.858 195.032 310.474 195.956C311.099 196.88 311.412 198.145 311.412 199.75C311.412 201.374 311.099 202.648 310.474 203.572C309.858 204.496 308.859 204.958 307.478 204.958C306.097 204.958 305.093 204.496 304.468 203.572C303.852 202.648 303.544 201.374 303.544 199.75ZM309.06 199.75C309.06 198.807 308.957 198.084 308.752 197.58C308.547 197.067 308.122 196.81 307.478 196.81C306.834 196.81 306.409 197.067 306.204 197.58C305.999 198.084 305.896 198.807 305.896 199.75C305.896 200.385 305.933 200.912 306.008 201.332C306.083 201.743 306.232 202.079 306.456 202.34C306.689 202.592 307.03 202.718 307.478 202.718C307.926 202.718 308.262 202.592 308.486 202.34C308.719 202.079 308.873 201.743 308.948 201.332C309.023 200.912 309.06 200.385 309.06 199.75ZM312.481 197.356C312.481 196.6 312.696 196.017 313.125 195.606C313.564 195.195 314.128 194.99 314.819 194.99C315.51 194.99 316.07 195.195 316.499 195.606C316.928 196.017 317.143 196.6 317.143 197.356C317.143 198.112 316.928 198.695 316.499 199.106C316.07 199.517 315.51 199.722 314.819 199.722C314.128 199.722 313.564 199.517 313.125 199.106C312.696 198.695 312.481 198.112 312.481 197.356ZM321.987 195.144L316.597 205H314.287L319.677 195.144H321.987ZM314.805 196.39C314.357 196.39 314.133 196.712 314.133 197.356C314.133 197.991 314.357 198.308 314.805 198.308C315.02 198.308 315.188 198.229 315.309 198.07C315.43 197.911 315.491 197.673 315.491 197.356C315.491 196.712 315.262 196.39 314.805 196.39ZM319.145 202.788C319.145 202.032 319.36 201.449 319.789 201.038C320.218 200.627 320.778 200.422 321.469 200.422C322.16 200.422 322.72 200.627 323.149 201.038C323.578 201.449 323.793 202.032 323.793 202.788C323.793 203.544 323.578 204.127 323.149 204.538C322.72 204.949 322.16 205.154 321.469 205.154C320.778 205.154 320.218 204.949 319.789 204.538C319.36 204.127 319.145 203.544 319.145 202.788ZM321.455 201.822C321.24 201.822 321.072 201.901 320.951 202.06C320.839 202.219 320.783 202.461 320.783 202.788C320.783 203.423 321.007 203.74 321.455 203.74C321.67 203.74 321.838 203.661 321.959 203.502C322.08 203.343 322.141 203.105 322.141 202.788C322.141 202.471 322.08 202.233 321.959 202.074C321.838 201.906 321.67 201.822 321.455 201.822Z" fill="white"/>
<path d="M31.637 170.31V168.516L35.745 162.64H38.228V168.386H39.294V170.31H38.228V172H36.005V170.31H31.637ZM36.161 165.084L33.977 168.386H36.161V165.084ZM40.3829 167.125C40.3829 165.634 40.6689 164.46 41.2409 163.602C41.8215 162.744 42.7532 162.315 44.0359 162.315C45.3185 162.315 46.2459 162.744 46.8179 163.602C47.3985 164.46 47.6889 165.634 47.6889 167.125C47.6889 168.633 47.3985 169.816 46.8179 170.674C46.2459 171.532 45.3185 171.961 44.0359 171.961C42.7532 171.961 41.8215 171.532 41.2409 170.674C40.6689 169.816 40.3829 168.633 40.3829 167.125ZM45.5049 167.125C45.5049 166.25 45.4095 165.578 45.2189 165.11C45.0282 164.633 44.6339 164.395 44.0359 164.395C43.4379 164.395 43.0435 164.633 42.8529 165.11C42.6622 165.578 42.5669 166.25 42.5669 167.125C42.5669 167.714 42.6015 168.204 42.6709 168.594C42.7402 168.975 42.8789 169.287 43.0869 169.53C43.3035 169.764 43.6199 169.881 44.0359 169.881C44.4519 169.881 44.7639 169.764 44.9719 169.53C45.1885 169.287 45.3315 168.975 45.4009 168.594C45.4702 168.204 45.5049 167.714 45.5049 167.125ZM48.6813 164.902C48.6813 164.2 48.8807 163.658 49.2793 163.277C49.6867 162.896 50.211 162.705 50.8523 162.705C51.4937 162.705 52.0137 162.896 52.4123 163.277C52.811 163.658 53.0103 164.2 53.0103 164.902C53.0103 165.604 52.811 166.146 52.4123 166.527C52.0137 166.908 51.4937 167.099 50.8523 167.099C50.211 167.099 49.6867 166.908 49.2793 166.527C48.8807 166.146 48.6813 165.604 48.6813 164.902ZM57.5083 162.848L52.5033 172H50.3583L55.3633 162.848H57.5083ZM50.8393 164.005C50.4233 164.005 50.2153 164.304 50.2153 164.902C50.2153 165.491 50.4233 165.786 50.8393 165.786C51.0387 165.786 51.1947 165.712 51.3073 165.565C51.42 165.418 51.4763 165.197 51.4763 164.902C51.4763 164.304 51.264 164.005 50.8393 164.005ZM54.8693 169.946C54.8693 169.244 55.0687 168.702 55.4673 168.321C55.866 167.94 56.386 167.749 57.0273 167.749C57.6687 167.749 58.1887 167.94 58.5873 168.321C58.986 168.702 59.1853 169.244 59.1853 169.946C59.1853 170.648 58.986 171.19 58.5873 171.571C58.1887 171.952 57.6687 172.143 57.0273 172.143C56.386 172.143 55.866 171.952 55.4673 171.571C55.0687 171.19 54.8693 170.648 54.8693 169.946ZM57.0143 169.049C56.815 169.049 56.659 169.123 56.5463 169.27C56.4423 169.417 56.3903 169.643 56.3903 169.946C56.3903 170.535 56.5983 170.83 57.0143 170.83C57.2137 170.83 57.3697 170.756 57.4823 170.609C57.595 170.462 57.6513 170.241 57.6513 169.946C57.6513 169.651 57.595 169.43 57.4823 169.283C57.3697 169.127 57.2137 169.049 57.0143 169.049Z" fill="white"/>
<defs>
<linearGradient id="paint0_linear_36_2" x1="238.09" y1="0" x2="238.09" y2="354.163" gradientUnits="userSpaceOnUse">
<stop stop-color="#00CC8F"/>
<stop offset="1" stop-color="#0DA97A"/>
</linearGradient>
<linearGradient id="paint1_linear_36_2" x1="88.4038" y1="0" x2="88.4038" y2="345.451" gradientUnits="userSpaceOnUse">
<stop stop-color="#285FEA"/>
<stop offset="1" stop-color="#356AF0"/>
</linearGradient>
</defs>
</svg>
