<svg width="8" height="11" viewBox="0 0 8 11" fill="none" xmlns="http://www.w3.org/2000/svg">
<path d="M7.13113 2.92188H0.71115C0.516872 2.92188 0.359375 3.07935 0.359375 3.27362V8.76865C0.359375 9.70265 1.11927 10.4625 2.05322 10.4625H5.78895C6.72292 10.4625 7.48282 9.70265 7.48282 8.76865V3.27362C7.48284 3.07937 7.32541 2.92188 7.13113 2.92188ZM3.07552 8.34393C3.07552 8.58257 2.88204 8.77606 2.64335 8.77606C2.40473 8.77606 2.21117 8.58257 2.21117 8.34393V5.04045C2.21117 4.80177 2.4047 4.60832 2.64335 4.60832C2.88203 4.60832 3.07552 4.80179 3.07552 5.04045V8.34393ZM5.63104 8.34393C5.63104 8.58257 5.43756 8.77606 5.19887 8.77606C4.96025 8.77606 4.76669 8.58257 4.76669 8.34393V5.04045C4.76669 4.80177 4.96022 4.60832 5.19887 4.60832C5.43755 4.60832 5.63104 4.80179 5.63104 5.04045V8.34393Z" fill="#FD6767"/>
<path d="M6.77931 0.5473H5.247V0.414415C5.247 0.185903 5.06113 0 4.83264 0H3.01085C2.78234 0 2.59644 0.185903 2.59644 0.414415V0.5473H1.06413C0.477379 0.5473 0 1.02464 0 1.61141V2.29376C0 2.4158 0.0989249 2.51474 0.221009 2.51474H7.6225C7.74449 2.51474 7.84344 2.4158 7.84344 2.29376V1.61141C7.84344 1.02466 7.36609 0.5473 6.77931 0.5473Z" fill="#FD6767"/>
</svg>
