<svg width="104" height="92" viewBox="0 0 104 92" fill="none" xmlns="http://www.w3.org/2000/svg">
<path d="M24.9837 0.139565L20.7009 4.41027C20.6239 4.48713 20.6237 4.61194 20.7006 4.68902L24.9754 8.97596C25.0522 9.05304 25.177 9.05322 25.2541 8.97635L29.5369 4.70565C29.614 4.62878 29.6142 4.50398 29.5373 4.4269L25.2625 0.13996C25.1856 0.0628761 25.0608 0.0626994 24.9837 0.139565Z" fill="#FFBEBE"/>
<path d="M102.56 18.0934L100.538 16.092C100.463 16.0183 100.343 16.0189 100.269 16.0934L98.2603 18.1237C98.1866 18.1982 98.1872 18.3184 98.2617 18.3921L100.284 20.3935C100.359 20.4673 100.479 20.4666 100.553 20.3921L102.562 18.3619C102.635 18.2874 102.635 18.1672 102.56 18.0934Z" fill="#FFBEBE"/>
<path d="M3.23157 45.8406L0.248481 48.7926C0.110901 48.9287 0.109739 49.1506 0.245886 49.2882L3.17376 52.2469C3.30991 52.3845 3.5318 52.3856 3.66938 52.2495L6.65247 49.2975C6.79005 49.1613 6.79121 48.9394 6.65507 48.8019L3.72719 45.8432C3.59105 45.7056 3.36915 45.7044 3.23157 45.8406Z" fill="#FFBEBE"/>
<path d="M100.282 78.8414L97.1364 81.9785C97.0622 82.0525 97.062 82.1727 97.136 82.247L100.265 85.3847C100.339 85.459 100.459 85.4591 100.533 85.3851L103.679 82.248C103.754 82.1739 103.754 82.0537 103.68 81.9795L100.551 78.8418C100.477 78.7675 100.357 78.7673 100.282 78.8414Z" fill="#FFBEBE"/>
<path d="M55.3932 91.7883C78.2546 91.7883 96.7874 73.2555 96.7874 50.3941C96.7874 27.5327 78.2546 8.99992 55.3932 8.99992C32.5319 8.99992 13.999 27.5327 13.999 50.3941C13.999 73.2555 32.5319 91.7883 55.3932 91.7883Z" fill="#FF7E7E"/>
<path d="M55.3522 85.6331C74.8614 85.6331 90.6768 69.8177 90.6768 50.3085C90.6768 30.7993 74.8614 14.9839 55.3522 14.9839C35.843 14.9839 20.0276 30.7993 20.0276 50.3085C20.0276 69.8177 35.843 85.6331 55.3522 85.6331Z" fill="#FF6262"/>
<path d="M66.5463 42.0589H44.4464C43.7776 42.0589 43.2355 42.601 43.2355 43.2698V62.1857C43.2355 65.4009 45.8513 68.0166 49.0663 68.0166H61.926C65.1411 68.0166 67.757 65.4009 67.757 62.1857V43.2698C67.757 42.6011 67.2151 42.0589 66.5463 42.0589ZM52.5854 60.7236C52.5854 61.5452 51.9194 62.2112 51.0977 62.2112C50.2763 62.2112 49.61 61.5452 49.61 60.7236V49.3519C49.61 48.5302 50.2762 47.8643 51.0977 47.8643C51.9194 47.8643 52.5854 48.5303 52.5854 49.3519V60.7236ZM61.3825 60.7236C61.3825 61.5452 60.7165 62.2112 59.8948 62.2112C59.0734 62.2112 58.4071 61.5452 58.4071 60.7236V49.3519C58.4071 48.5302 59.0733 47.8643 59.8948 47.8643C60.7164 47.8643 61.3825 48.5303 61.3825 49.3519V60.7236Z" fill="white"/>
<path d="M65.3363 33.8844H60.0615V33.427C60.0615 32.6403 59.4217 32.0004 58.6351 32.0004H52.3638C51.5772 32.0004 50.9373 32.6403 50.9373 33.427V33.8844H45.6625C43.6427 33.8844 41.9994 35.5276 41.9994 37.5475V39.8964C41.9994 40.3165 42.3399 40.657 42.7602 40.657H68.2388C68.6588 40.657 68.9994 40.3165 68.9994 39.8964V37.5475C68.9994 35.5277 67.3562 33.8844 65.3363 33.8844Z" fill="white"/>
</svg>
