<svg width="113" height="21" viewBox="0 0 113 21" fill="none" xmlns="http://www.w3.org/2000/svg">
<path d="M40.3023 0C40.3023 5.25175 40.3023 10.5035 40.3023 15.7552C40.3023 17.3206 40.2988 18.8856 40.3067 20.451C40.3067 20.6323 40.2627 20.6794 40.0796 20.6781C38.5041 20.6702 36.9283 20.6702 35.3522 20.6781C35.1502 20.6781 35.1035 20.6266 35.1035 20.4286C35.1094 13.6195 35.111 6.81025 35.1084 0.00088104L40.3023 0Z" fill="#2E4276"/>
<path d="M64.5455 0C64.5455 1.07382 64.538 2.14808 64.5455 3.2219C64.5455 3.40762 64.4931 3.44811 64.314 3.44767C62.7253 3.44062 61.1362 3.44062 59.5469 3.44767C59.3837 3.44767 59.3401 3.40938 59.3418 3.2439C59.352 2.16304 59.3506 1.08174 59.3528 0.00044052L64.5455 0Z" fill="#2E4276"/>
<path d="M77.5111 16.2579C77.5111 16.7338 77.5111 17.2079 77.5111 17.6803C77.5111 18.4337 77.5111 19.1871 77.5111 19.9406C77.5111 20.0392 77.5085 20.1135 77.3914 20.1641C75.4858 20.9862 73.5138 21.2204 71.4854 20.7732C69.8311 20.4102 68.9514 19.2831 68.5918 17.6882C68.4352 16.9924 68.3823 16.2869 68.3815 15.5758C68.3815 13.5716 68.3779 11.5674 68.3859 9.56324C68.3859 9.37489 68.3339 9.33528 68.1561 9.34056C67.687 9.35376 67.2179 9.34056 66.7478 9.3476C66.6158 9.3476 66.5577 9.3278 66.5586 9.17156C66.5656 7.96454 66.5656 6.75752 66.5586 5.5505C66.5586 5.41408 66.5947 5.37886 66.7294 5.38106C67.206 5.38943 67.6826 5.37491 68.1588 5.38899C68.3485 5.39471 68.3845 5.33178 68.3832 5.15618C68.3757 3.97102 68.3832 2.78586 68.3753 1.60113C68.3753 1.42906 68.4193 1.37272 68.5953 1.34279C70.2122 1.07082 71.8272 0.789457 73.4403 0.498704C73.6084 0.468778 73.6163 0.523348 73.6163 0.656695C73.6133 2.12704 73.6163 3.59738 73.6097 5.06728C73.6097 5.25696 73.6485 5.31197 73.8474 5.30933C74.8077 5.29745 75.7679 5.30669 76.7287 5.30097C76.8677 5.30097 76.9126 5.3309 76.9117 5.47701C76.9056 6.6764 76.9056 7.87594 76.9117 9.07563C76.9117 9.23714 76.8611 9.2631 76.7146 9.26178C75.7543 9.25518 74.794 9.26178 73.8337 9.25518C73.674 9.25518 73.6084 9.27719 73.6089 9.46334C73.6168 11.3725 73.6128 13.2816 73.6159 15.1907C73.6142 15.3662 73.629 15.5416 73.6599 15.7144C73.7783 16.3305 74.1783 16.6866 74.8103 16.7266C75.6584 16.7807 76.4668 16.58 77.2625 16.3142C77.3421 16.294 77.4134 16.2487 77.5111 16.2579Z" fill="#2E4276"/>
<path d="M89.5298 16.2387C89.5298 17.5017 89.5298 18.7384 89.5298 19.9746C89.5298 20.0789 89.4929 20.1264 89.3978 20.1687C87.887 20.8468 86.3 21.066 84.6589 20.9608C83.9301 20.9133 83.2242 20.7685 82.5641 20.4411C81.4889 19.9081 80.9463 18.9804 80.6519 17.8709C80.4512 17.1162 80.3988 16.3434 80.3984 15.5666C80.3966 13.5692 80.3978 11.5718 80.4019 9.57436C80.4019 9.39832 80.3724 9.33627 80.1819 9.34287C79.7132 9.35872 79.2436 9.34287 78.7736 9.35124C78.6275 9.35432 78.5733 9.32791 78.5742 9.16508C78.5822 7.96539 78.5822 6.76556 78.5742 5.56558C78.5742 5.41947 78.6152 5.38338 78.7569 5.38602C79.241 5.39482 79.7251 5.38294 80.2092 5.39306C80.3685 5.39658 80.4028 5.34245 80.4019 5.19414C80.3966 4.01602 80.4019 2.8379 80.3949 1.66022C80.3949 1.48066 80.4318 1.41816 80.6246 1.38868C82.2314 1.14267 83.8373 0.882136 85.4401 0.620723C85.595 0.595637 85.6381 0.629524 85.6377 0.791037C85.6315 2.25434 85.6377 3.71764 85.6284 5.18094C85.6284 5.38954 85.6909 5.43135 85.8859 5.42959C86.8316 5.41991 87.7783 5.42959 88.7236 5.42123C88.886 5.42123 88.9309 5.45731 88.93 5.62411C88.9218 6.80912 88.9218 7.99444 88.93 9.18004C88.93 9.36268 88.8706 9.39217 88.7073 9.39085C87.7466 9.3838 86.7859 9.39084 85.8256 9.3838C85.672 9.3838 85.6298 9.42473 85.6302 9.57832C85.6346 11.5394 85.6302 13.5 85.6333 15.461C85.6333 16.2378 86.0597 16.6884 86.8413 16.7373C87.6586 16.7861 88.4415 16.6052 89.2095 16.3452C89.308 16.3099 89.4049 16.2791 89.5298 16.2387Z" fill="#2E4276"/>
<path d="M59.3462 12.9937C59.3462 10.506 59.3447 8.01815 59.3418 5.53017C59.3418 5.35106 59.3792 5.30089 59.5658 5.30177C61.1572 5.30998 62.7485 5.30998 64.3399 5.30177C64.5032 5.30177 64.5454 5.33962 64.545 5.50553C64.5403 10.4882 64.5403 15.4711 64.545 20.4541C64.545 20.6209 64.5111 20.6741 64.3315 20.6741C62.7402 20.6662 61.149 20.6662 59.5579 20.6741C59.3818 20.6741 59.3427 20.6253 59.3431 20.4541C59.3481 17.9682 59.3491 15.4814 59.3462 12.9937Z" fill="#2E4276"/>
<path d="M106.467 18.0084C106.471 17.2239 106.786 16.4729 107.341 15.9193C107.897 15.3656 108.649 15.0541 109.434 15.0527C111.069 15.0527 112.417 16.3976 112.412 18.026C112.408 19.6468 111.045 20.9931 109.415 20.9865C107.796 20.9799 106.464 19.6341 106.467 18.0084Z" fill="#2E4276"/>
<path d="M16.7006 6.61045C15.9044 3.43211 13.8959 1.37645 10.7118 0.498472C9.55348 0.179406 8.36788 0.061899 7.17083 0.0385742C7.0903 0.0412148 7.00976 0.0456172 6.92922 0.0456172C4.70853 0.0456172 2.48768 0.0456172 0.266695 0.0456172C0.178677 0.0456172 0.0906585 0.0522181 0.00264044 0.0561789C0.00264044 0.144197 0.00484102 0.232215 0.00484102 0.320233C0.00484102 7.01313 0.00322733 13.7062 0 20.3994C0 20.5956 0.0488494 20.6383 0.240729 20.6374C2.3228 20.63 4.40486 20.6374 6.48693 20.6317C7.77332 20.6291 9.0465 20.5116 10.2893 20.1577C13.2881 19.3057 15.3816 17.4486 16.3995 14.4977C17.2907 11.9122 17.3624 9.25451 16.7006 6.61045ZM11.4115 10.8855C11.3627 11.8607 11.2285 12.8188 10.8324 13.7245C10.2493 15.0575 9.20933 15.7881 7.79312 16.0275C7.04497 16.1542 6.28713 16.1019 5.53326 16.1186C5.34534 16.1226 5.40827 15.9954 5.40783 15.9109C5.40519 14.0599 5.40519 12.209 5.40783 10.3583C5.40783 8.50987 5.41047 6.65666 5.40343 4.80564C5.40343 4.6296 5.45316 4.58867 5.62127 4.59395C6.3461 4.61595 7.07357 4.56359 7.79664 4.64456C9.52048 4.83732 10.5912 5.80244 11.089 7.43122C11.4313 8.55873 11.4701 9.71837 11.4115 10.8855Z" fill="#2E4276"/>
<path d="M57.0184 10.523C56.4023 8.16671 55.0759 6.40723 52.7187 5.54994C51.1635 4.98398 49.5611 4.94393 47.9504 5.23087C45.6091 5.6472 43.8857 6.91026 42.9936 9.13051C42.0254 11.5431 42.0043 14.0221 42.892 16.4598C43.6665 18.5863 45.1989 19.9805 47.3945 20.5966C48.8248 21.0002 50.2793 21.0011 51.7277 20.7106C53.9158 20.2705 55.5309 19.0691 56.4806 17.0341C57.0866 15.7371 57.2728 14.3495 57.2838 12.8884C57.2768 12.1236 57.2253 11.312 57.0184 10.523ZM51.784 15.2319C51.7365 15.4079 51.6798 15.5812 51.6141 15.7512C51.3254 16.5377 50.7546 16.9487 49.9211 16.9835C49.0506 17.0196 48.4094 16.6556 48.0327 15.8582C47.766 15.2935 47.6718 14.6884 47.6124 14.0762C47.5847 13.7924 47.5759 13.5068 47.564 13.307C47.5591 12.2389 47.6133 11.2654 47.9601 10.3284C48.3971 9.14591 49.3494 8.7912 50.5029 9.08518C50.943 9.1974 51.2616 9.48126 51.4799 9.87734C51.788 10.4393 51.92 11.0515 51.9816 11.6817C52.1 12.873 52.0802 14.06 51.784 15.2306V15.2319Z" fill="#2E4276"/>
<path d="M33.1278 12.2116C33.1278 11.449 33.0706 10.6916 32.9051 9.94605C32.4008 7.67254 31.0568 6.14631 28.8242 5.43292C27.3063 4.94882 25.751 4.91581 24.1953 5.18999C21.7308 5.62392 20.0585 7.04233 19.2302 9.38625C18.5045 11.4358 18.4684 13.5455 18.9358 15.6562C19.2241 16.9598 19.834 18.1093 20.8255 19.0286C22.1229 20.2318 23.7086 20.745 25.4346 20.8968C26.6295 21.0024 27.823 20.9492 29.0117 20.8062C30.0437 20.6825 31.0361 20.4101 31.9603 19.9321C32.0619 19.8798 32.1416 19.8441 32.1051 19.6892C31.8563 18.6529 31.6161 17.6155 31.3846 16.5769C31.3516 16.4295 31.3173 16.4009 31.173 16.4598C30.4167 16.7771 29.6222 16.994 28.8097 17.105C27.9295 17.219 27.0458 17.2973 26.1621 17.1274C24.8246 16.8704 24.0122 15.9947 23.8952 14.6977C23.8815 14.5419 23.9022 14.4865 24.0813 14.4878C25.5552 14.4961 27.0299 14.4926 28.5025 14.4926C29.9689 14.4926 31.4352 14.4895 32.9034 14.4966C33.0794 14.4966 33.1384 14.4671 33.1349 14.2765C33.1195 13.5869 33.1274 12.8991 33.1278 12.2116ZM28.2552 11.0925C27.5669 11.0872 26.8781 11.0903 26.1898 11.0903C25.5091 11.0903 24.828 11.0903 24.1465 11.0903C24.0664 11.0903 23.9581 11.1246 23.9784 10.971C24.0664 10.3109 24.2164 9.67319 24.7239 9.1913C25.9249 8.05146 27.9202 8.6711 28.3326 10.3091C28.3788 10.5083 28.4128 10.7101 28.4343 10.9134C28.4523 11.0722 28.3903 11.0934 28.2552 11.0925Z" fill="#2E4276"/>
<path d="M105.239 14.2915C105.227 13.7946 105.232 13.2969 105.235 12.7996C105.242 11.8177 105.195 10.8412 104.977 9.87915C104.473 7.64833 103.147 6.15378 100.961 5.44259C99.5476 4.98314 98.0966 4.93561 96.6369 5.13717C93.8621 5.52049 92.0511 7.07357 91.2185 9.72511C90.6463 11.544 90.6169 13.4117 90.9544 15.2791C91.192 16.5896 91.7263 17.7748 92.6532 18.7558C93.8674 20.0386 95.4121 20.6402 97.1293 20.8537C98.564 21.0297 99.9978 20.9633 101.425 20.763C102.355 20.6369 103.257 20.3523 104.091 19.9216C104.192 19.8692 104.241 19.8287 104.208 19.691C103.959 18.6475 103.724 17.601 103.486 16.5544C103.458 16.4321 103.424 16.3995 103.297 16.4528C102.433 16.8154 101.52 17.0496 100.587 17.1481C99.7395 17.2361 98.8923 17.2916 98.0522 17.0795C96.8481 16.7749 96.0819 15.8886 96.0027 14.7206C95.9908 14.5445 96.0168 14.4869 96.2126 14.4882C97.6785 14.4979 99.1449 14.4935 100.614 14.4935C102.087 14.4935 103.562 14.4909 105.034 14.4975C105.194 14.4957 105.243 14.4596 105.239 14.2915ZM100.316 11.096C99.6431 11.0797 98.9693 11.0903 98.2956 11.0903C97.6293 11.0903 96.9625 11.0823 96.2967 11.0951C96.0999 11.0986 96.0639 11.0339 96.0929 10.8592C96.1972 10.2312 96.3517 9.62433 96.8441 9.17412C98.0812 8.04353 100.066 8.69398 100.446 10.3522C100.483 10.5155 100.502 10.6828 100.534 10.8473C100.568 11.0256 100.53 11.1013 100.316 11.096Z" fill="#2E4276"/>
</svg>
