<svg width="25" height="25" viewBox="0 0 25 25" fill="none" xmlns="http://www.w3.org/2000/svg">
<g id="Group 64358">
<circle id="Ellipse 869" cx="12.5" cy="12.5" r="12.5" fill="#E8EFFF"/>
<g id="Group">
<path id="Vector" fill-rule="evenodd" clip-rule="evenodd" d="M12.6531 7.1742C12.8374 6.9627 13.1584 6.94072 13.3699 7.1251L17.3257 10.5738C17.4854 10.713 17.5419 10.9366 17.4676 11.135C17.3933 11.3333 17.2036 11.4648 16.9918 11.4648H7.50806C7.22747 11.4648 7 11.2373 7 10.9567C7 10.6761 7.22747 10.4487 7.50806 10.4487H15.6359L12.7022 7.89103C12.4907 7.70664 12.4687 7.3857 12.6531 7.1742Z" fill="#2E4276"/>
<path id="Vector_2" fill-rule="evenodd" clip-rule="evenodd" d="M11.8468 17.3258C11.6624 17.5372 11.3415 17.5592 11.13 17.3748L7.17422 13.9262C7.01454 13.7869 6.958 13.5633 7.03233 13.3649C7.10665 13.1666 7.29625 13.0352 7.50808 13.0352H16.9918C17.2724 13.0352 17.4999 13.2626 17.4999 13.5432C17.4999 13.8238 17.2724 14.0513 16.9918 14.0513H8.864L11.7978 16.6089C12.0093 16.7933 12.0312 17.1142 11.8468 17.3258Z" fill="#2E4276"/>
</g>
</g>
</svg>
