<svg width="18" height="17" viewBox="0 0 18 17" fill="none" xmlns="http://www.w3.org/2000/svg">
<g id="Group 63923">
<g id="Group">
<path id="Vector" d="M0.527301 15.8197H1.5819C1.87311 15.8197 2.1092 15.5836 2.1092 15.2924V9.49207H0.527301C0.23609 9.49207 0 9.72816 0 10.0194V15.2924C0 15.5835 0.23609 15.8197 0.527301 15.8197Z" fill="#292D32"/>
<path id="Vector_2" d="M9.51958 16.1009H9.63559C11.4073 16.0798 13.1052 15.5772 14.6028 14.6701L17.5451 12.6137C18.0407 12.2656 18.1357 11.6118 17.8088 11.1478C17.4713 10.6626 16.8174 10.5467 16.3429 10.8841L13.5165 12.8668C12.6096 13.3941 11.5023 13.5101 10.5004 13.1726L7.24868 12.0969C6.97448 12.0125 6.8268 11.7067 6.92175 11.4325C7.00608 11.1689 7.28028 11.0212 7.55448 11.0951C7.56502 11.0951 11.2069 12.2762 11.2069 12.2762C11.8202 12.46 12.3651 12.113 12.5357 11.6013C12.715 11.0423 12.4092 10.4517 11.8608 10.2725L6.90062 8.64839C5.81572 8.25344 4.35373 8.33503 3.16382 9.00041V14.9034L7.30137 15.8408C8.05931 16.0075 8.80302 16.1009 9.51958 16.1009Z" fill="#292D32"/>
</g>
<g id="Group 63922">
<path id="Vector_3" d="M11.8942 2.40791L11.8957 7.86719C11.8958 7.87832 11.893 7.88926 11.8875 7.89893C11.882 7.90861 11.874 7.91669 11.8643 7.92238C11.8547 7.92808 11.8436 7.93119 11.8322 7.93141C11.8209 7.93163 11.8096 7.92895 11.7996 7.92364C9.43613 6.62672 8.8014 3.55073 10.5927 1.44972C11.5814 0.292152 12.9205 -0.172197 14.6101 0.0566714C14.6341 0.0599749 14.6561 0.0718213 14.6721 0.0900378C14.688 0.108254 14.6969 0.131619 14.6971 0.155848V2.22634C14.6971 2.28839 14.6665 2.31942 14.6055 2.31942L11.9827 2.32094C11.9237 2.32094 11.8942 2.34993 11.8942 2.40791Z" fill="#292D32"/>
<path id="Vector_4" d="M15.6614 5.99205L15.6583 0.502263C15.6584 0.494621 15.6605 0.487137 15.6644 0.480539C15.6682 0.473941 15.6737 0.468455 15.6803 0.464613C15.687 0.460772 15.6944 0.458708 15.7021 0.458621C15.7097 0.458534 15.7173 0.460428 15.724 0.464118C18.1881 1.7885 18.7694 5.00945 16.8302 7.09367C15.8455 8.15156 14.5471 8.5681 12.9348 8.3433C12.9112 8.34 12.8896 8.32831 12.8739 8.31038C12.8582 8.29245 12.8495 8.26947 12.8494 8.24565L12.8524 6.16599C12.8524 6.11005 12.8804 6.08208 12.9363 6.08208H15.5698C15.6309 6.08208 15.6614 6.05207 15.6614 5.99205Z" fill="#292D32"/>
<path id="Vector_5" d="M14.6607 3.27769L12.8907 3.27461C12.8688 3.27457 12.851 3.2923 12.851 3.31421L12.8479 5.08412C12.8479 5.10603 12.8656 5.12382 12.8875 5.12386L14.6574 5.12695C14.6793 5.12699 14.6971 5.10926 14.6972 5.08735L14.7003 3.31743C14.7003 3.29552 14.6826 3.27773 14.6607 3.27769Z" fill="#292D32"/>
</g>
</g>
</svg>
