<svg width="18" height="18" viewBox="0 0 18 18" fill="none" xmlns="http://www.w3.org/2000/svg">
<path d="M11.1094 8.47266C10.8184 8.47266 10.582 8.70905 10.582 9C10.582 9.29095 10.8184 9.52735 11.1094 9.52735C11.4003 9.52735 11.6367 9.29095 11.6367 9C11.6367 8.70905 11.4003 8.47266 11.1094 8.47266Z" fill="white"/>
<path d="M17.4726 10.582H14.8008V0.527345C14.8008 0.235864 14.5649 0 14.2734 0H3.72662C3.43514 0 3.19928 0.235864 3.19928 0.527345V10.582H0.527398C0.0222722 10.582 -0.193306 11.2285 0.211202 11.5311L8.6838 17.8944C8.86957 18.0342 9.12811 18.0359 9.3162 17.8944L17.7888 11.5311C18.1933 11.2285 17.9777 10.582 17.4726 10.582ZM5.30862 4.78122C5.30862 3.90885 6.01825 3.19919 6.89066 3.19919C7.76302 3.19919 8.47269 3.90885 8.47269 4.78122C8.47269 5.65359 7.76302 6.36326 6.89066 6.36326C6.01829 6.36326 5.30862 5.65359 5.30862 4.78122ZM7.32941 10.3472C7.17032 10.5861 6.84453 10.6568 6.59812 10.4934C6.35558 10.3317 6.29015 10.0047 6.45187 9.76213L10.6706 3.43403C10.8313 3.19149 11.1583 3.12606 11.4019 3.28778C11.6444 3.4495 11.7098 3.77649 11.5481 4.01907L7.32941 10.3472ZM11.1094 10.582C10.237 10.582 9.52734 9.87231 9.52734 8.99994C9.52734 8.12758 10.237 7.41791 11.1094 7.41791C11.9817 7.41791 12.6914 8.12758 12.6914 8.99994C12.6914 9.87231 11.9817 10.582 11.1094 10.582Z" fill="white"/>
<path d="M6.89063 4.25391C6.59967 4.25391 6.36328 4.4903 6.36328 4.78125C6.36328 5.0722 6.59964 5.3086 6.89063 5.3086C7.18158 5.3086 7.41797 5.0722 7.41797 4.78125C7.41797 4.4903 7.18158 4.25391 6.89063 4.25391Z" fill="white"/>
</svg>
