<svg width="25" height="25" viewBox="0 0 25 25" fill="none" xmlns="http://www.w3.org/2000/svg">
<circle cx="12.5" cy="12.5" r="12.5" fill="#2966FF"/>
<path d="M8.57035 14.8051H16.9412C17.2565 14.8051 17.512 14.5496 17.512 14.2342C17.512 13.9188 17.2566 13.6634 16.9412 13.6634H8.57035C8.25508 13.6635 7.99963 13.9188 7.99963 14.2342C7.99963 14.5495 8.25508 14.8051 8.57035 14.8051Z" fill="white"/>
<path d="M8.57035 12.1415H16.9412C17.2565 12.1415 17.512 11.886 17.512 11.5707C17.512 11.2555 17.2566 11 16.9412 11H8.57035C8.25508 11 7.99963 11.2555 7.99963 11.5707C7.99963 11.886 8.25508 12.1415 8.57035 12.1415Z" fill="white"/>
</svg>
