<svg width="12" height="12" viewBox="0 0 12 12" fill="none" xmlns="http://www.w3.org/2000/svg">
<path d="M7.57107 11.5717L10.8909 9.89789C11.0502 9.81642 11.1539 9.64793 11.1539 9.46647C11.1539 9.39982 11.139 9.33131 11.1113 9.26835C11.0039 9.03135 10.7224 8.92396 10.4854 9.0295L7.3174 10.4367C7.18039 10.5311 7.0193 10.5811 6.84896 10.5811H4.54005C4.44006 10.5811 4.35859 10.4996 4.35859 10.3997C4.35859 10.2997 4.44006 10.2182 4.54005 10.2182H6.84711C6.91746 10.2182 6.98412 10.2034 7.04522 10.1738C7.04707 10.1738 7.04707 10.1719 7.04893 10.1719C7.0767 10.1608 7.09892 10.146 7.12484 10.1293C7.13039 10.1256 7.1341 10.1219 7.13965 10.1201C7.16002 10.1053 7.17854 10.0905 7.1952 10.0738C7.21742 10.0497 7.23779 10.0256 7.2563 9.99787C7.31 9.9164 7.33777 9.82197 7.33777 9.72384C7.33777 9.44981 7.11743 9.22947 6.84711 9.22947H5.28808C5.19736 9.22947 5.10848 9.22392 5.01775 9.21651C4.99183 9.21466 4.96406 9.21096 4.93814 9.2091C4.85667 9.19985 4.77705 9.18874 4.69743 9.17207C4.66966 9.16652 4.64188 9.15911 4.61411 9.15356C4.55116 9.13874 4.49006 9.12393 4.42895 9.10542C4.39563 9.09616 4.36415 9.0869 4.33082 9.07579C4.25306 9.04987 4.17529 9.0221 4.09937 8.99062C4.09382 8.98877 4.08641 8.98692 4.08086 8.98321C4.02902 8.96099 3.97717 8.93692 3.92348 8.911C3.92162 8.911 3.91977 8.90915 3.91977 8.90915C3.85867 8.87952 3.79942 8.84805 3.74017 8.81472C3.41244 8.62586 3.04398 8.51291 2.66626 8.47218V11.1144L4.33823 11.7439C5.38066 12.1383 6.57492 12.0735 7.57107 11.5717Z" fill="#2E4276"/>
<path d="M1.96081 7.6759H0.338837C0.151829 7.6759 0 7.82772 0 8.01473V11.3124C0 11.4994 0.151829 11.6512 0.338837 11.6512H1.96081C2.14782 11.6512 2.29965 11.4994 2.29965 11.3124V11.2494C2.29965 11.2476 2.29965 11.2439 2.29965 11.242V8.27025C2.29965 8.2684 2.29965 8.2684 2.29965 8.26655C2.29965 8.26469 2.29965 8.26469 2.29965 8.26284V8.01473C2.29965 7.82772 2.14782 7.6759 1.96081 7.6759Z" fill="#2E4276"/>
<path d="M7.09517 2.22488C5.80462 2.22488 4.75293 3.27472 4.75293 4.56712C4.75293 5.85766 5.80277 6.9075 7.09517 6.9075C8.38756 6.9075 9.43555 5.85766 9.43555 4.56712C9.4374 3.27472 8.38756 2.22488 7.09517 2.22488ZM8.54865 4.61341L8.15797 4.99483C8.14315 5.00964 8.13575 5.03001 8.13945 5.05408L8.23018 5.59104C8.25795 5.75212 8.19315 5.91136 8.06169 6.00949C7.98577 6.06504 7.8969 6.09281 7.80802 6.09281C7.73951 6.09281 7.67286 6.07615 7.60805 6.04282L7.12479 5.78915C7.10628 5.7799 7.0822 5.7799 7.06369 5.78915L6.58043 6.04282C6.43416 6.11873 6.26011 6.10577 6.12865 6.00949C5.99533 5.91321 5.93238 5.75212 5.96015 5.58918L6.05088 5.05408C6.05458 5.03186 6.04903 5.00964 6.03236 4.99483L5.64168 4.61526C5.52318 4.49861 5.48245 4.33012 5.53429 4.17273C5.58614 4.0172 5.7176 3.90611 5.87868 3.88204L6.41934 3.80427C6.43786 3.80057 6.45823 3.78575 6.46748 3.76724L6.71004 3.27842C6.78225 3.1303 6.93038 3.03772 7.09517 3.03772C7.25996 3.03772 7.40623 3.1303 7.48029 3.27842L7.721 3.76354C7.73025 3.7839 7.75062 3.79872 7.77099 3.80057L8.3098 3.87833C8.47273 3.9024 8.6042 4.0135 8.65419 4.16903C8.70788 4.33012 8.66715 4.49861 8.54865 4.61341Z" fill="#2E4276"/>
<path d="M7.09715 0.823242C5.03265 0.823242 3.35327 2.50447 3.35327 4.56712C3.35327 6.62977 5.03265 8.30914 7.09715 8.30914C9.15979 8.30914 10.8392 6.62977 10.8392 4.56712C10.8392 2.50447 9.15979 0.823242 7.09715 0.823242ZM7.09529 7.27041C5.60478 7.27041 4.39015 6.05763 4.39015 4.56712C4.39015 3.0766 5.60293 1.86197 7.09529 1.86197C8.58581 1.86197 9.80044 3.07475 9.80044 4.56712C9.80044 6.05763 8.58766 7.27041 7.09529 7.27041Z" fill="#2E4276"/>
<path d="M8.25803 4.24124L7.71922 4.16347C7.5785 4.14311 7.45815 4.05423 7.3952 3.92647L7.15449 3.44136C7.13783 3.40803 7.11006 3.40248 7.09524 3.40248C7.08043 3.40248 7.05266 3.40803 7.03599 3.43951L6.79344 3.92647C6.73234 4.05238 6.61199 4.14126 6.47127 4.16162L5.93061 4.23939C5.89728 4.24494 5.88432 4.26901 5.87876 4.28383C5.87321 4.29864 5.86951 4.32826 5.89543 4.35419L6.28426 4.73376C6.38609 4.83189 6.43238 4.97446 6.40831 5.11333L6.31759 5.65029C6.31203 5.68546 6.33055 5.70583 6.34351 5.71509C6.35647 5.72435 6.38054 5.73731 6.41387 5.72064L6.89713 5.46698C6.96008 5.43365 7.02674 5.41699 7.09524 5.41699C7.16375 5.41699 7.23226 5.43365 7.29521 5.46698L7.77662 5.72064C7.8081 5.73731 7.83402 5.72435 7.84698 5.71509C7.85994 5.70583 7.87846 5.68546 7.8729 5.65214L7.78218 5.11518C7.75811 4.97631 7.8044 4.83374 7.90623 4.73561L8.29506 4.35604C8.32098 4.33012 8.31543 4.30234 8.31173 4.28753C8.30617 4.27087 8.29321 4.2468 8.25803 4.24124Z" fill="#2E4276"/>
</svg>
