<svg width="15" height="15" viewBox="0 0 15 15" fill="none" xmlns="http://www.w3.org/2000/svg">
<g id="Group 64061">
<g id="Group">
<g id="Group_2">
<path id="Vector" d="M8.26727 0.107225C8.1604 0.0191057 8.01884 -0.0174544 7.88198 0.00785641L0.382475 1.41401C0.160302 1.45526 0 1.64837 0 1.8743V12.1861C0 12.4111 0.160302 12.6051 0.382475 12.6464L7.88198 14.0526C7.9101 14.0582 7.9401 14.061 7.96822 14.061C8.07603 14.061 8.1829 14.0235 8.26727 13.9532C8.37507 13.8641 8.43694 13.731 8.43694 13.5923V0.468138C8.43694 0.32846 8.37507 0.196281 8.26727 0.107225ZM7.4995 13.027L0.937438 11.7971V2.26333L7.4995 1.03341V13.027Z" fill="#697F9B"/>
</g>
</g>
<g id="Group_3">
<g id="Group_4">
<path id="Vector_2" d="M14.5327 1.875H7.97067C7.71194 1.875 7.50195 2.08499 7.50195 2.34372C7.50195 2.60245 7.71194 2.81244 7.97067 2.81244H14.064V11.2494H7.97067C7.71194 11.2494 7.50195 11.4594 7.50195 11.7181C7.50195 11.9768 7.71194 12.1868 7.97067 12.1868H14.5327C14.7915 12.1868 15.0015 11.9768 15.0015 11.7181V2.34372C15.0015 2.08499 14.7915 1.875 14.5327 1.875Z" fill="#697F9B"/>
</g>
</g>
<g id="Group_5">
<g id="Group_6">
<path id="Vector_3" d="M9.84164 3.75H7.96677C7.70803 3.75 7.49805 3.95999 7.49805 4.21872C7.49805 4.47745 7.70803 4.68744 7.96677 4.68744H9.84164C10.1004 4.68744 10.3104 4.47745 10.3104 4.21872C10.3104 3.95999 10.1004 3.75 9.84164 3.75Z" fill="#697F9B"/>
</g>
</g>
<g id="Group_7">
<g id="Group_8">
<path id="Vector_4" d="M9.84555 5.62305H7.97067C7.71194 5.62305 7.50195 5.83303 7.50195 6.09177C7.50195 6.3505 7.71194 6.56048 7.97067 6.56048H9.84555C10.1043 6.56048 10.3143 6.3505 10.3143 6.09177C10.3143 5.83303 10.1043 5.62305 9.84555 5.62305Z" fill="#697F9B"/>
</g>
</g>
<g id="Group_9">
<g id="Group_10">
<path id="Vector_5" d="M9.84164 7.49805H7.96677C7.70803 7.49805 7.49805 7.70803 7.49805 7.96677C7.49805 8.2255 7.70803 8.43548 7.96677 8.43548H9.84164C10.1004 8.43548 10.3104 8.2255 10.3104 7.96677C10.3104 7.70803 10.1004 7.49805 9.84164 7.49805Z" fill="#697F9B"/>
</g>
</g>
<g id="Group_11">
<g id="Group_12">
<path id="Vector_6" d="M9.84164 9.37305H7.96677C7.70803 9.37305 7.49805 9.58303 7.49805 9.84177C7.49805 10.1005 7.70803 10.3105 7.96677 10.3105H9.84164C10.1004 10.3105 10.3104 10.1005 10.3104 9.84177C10.3104 9.58303 10.1004 9.37305 9.84164 9.37305Z" fill="#697F9B"/>
</g>
</g>
<g id="Group_13">
<g id="Group_14">
<path id="Vector_7" d="M12.6562 3.75H11.7187C11.46 3.75 11.25 3.95999 11.25 4.21872C11.25 4.47745 11.46 4.68744 11.7187 4.68744H12.6562C12.9149 4.68744 13.1249 4.47745 13.1249 4.21872C13.1249 3.95999 12.9149 3.75 12.6562 3.75Z" fill="#697F9B"/>
</g>
</g>
<g id="Group_15">
<g id="Group_16">
<path id="Vector_8" d="M12.6562 5.62305H11.7187C11.46 5.62305 11.25 5.83303 11.25 6.09177C11.25 6.3505 11.46 6.56048 11.7187 6.56048H12.6562C12.9149 6.56048 13.1249 6.3505 13.1249 6.09177C13.1249 5.83303 12.9149 5.62305 12.6562 5.62305Z" fill="#697F9B"/>
</g>
</g>
<g id="Group_17">
<g id="Group_18">
<path id="Vector_9" d="M12.6562 7.49805H11.7187C11.46 7.49805 11.25 7.70803 11.25 7.96677C11.25 8.2255 11.46 8.43548 11.7187 8.43548H12.6562C12.9149 8.43548 13.1249 8.2255 13.1249 7.96677C13.1249 7.70803 12.9149 7.49805 12.6562 7.49805Z" fill="#697F9B"/>
</g>
</g>
<g id="Group_19">
<g id="Group_20">
<path id="Vector_10" d="M12.6562 9.37305H11.7187C11.46 9.37305 11.25 9.58303 11.25 9.84177C11.25 10.1005 11.46 10.3105 11.7187 10.3105H12.6562C12.9149 10.3105 13.1249 10.1005 13.1249 9.84177C13.1249 9.58303 12.9149 9.37305 12.6562 9.37305Z" fill="#697F9B"/>
</g>
</g>
<g id="Group_21">
<g id="Group_22">
<path id="Vector_11" d="M6.44679 8.59579L3.16575 4.84604C2.99326 4.65011 2.69797 4.63136 2.50392 4.80198C2.30893 4.97259 2.28925 5.26882 2.45986 5.46287L5.74089 9.21262C5.8337 9.31855 5.96307 9.37292 6.09337 9.37292C6.20305 9.37292 6.31273 9.33449 6.40273 9.25668C6.59771 9.08607 6.6174 8.79078 6.44679 8.59579Z" fill="#697F9B"/>
</g>
</g>
<g id="Group_23">
<g id="Group_24">
<path id="Vector_12" d="M6.38131 4.31806C6.17695 4.15776 5.88259 4.19619 5.72323 4.39962L2.4422 8.61809C2.28377 8.82245 2.32033 9.11774 2.52469 9.27617C2.61094 9.34273 2.71218 9.3746 2.81248 9.3746C2.95123 9.3746 3.08997 9.31273 3.18183 9.19461L6.46287 4.97614C6.62223 4.77084 6.58567 4.47649 6.38131 4.31806Z" fill="#697F9B"/>
</g>
</g>
</g>
</svg>
