<svg width="36" height="36" viewBox="0 0 36 36" fill="none" xmlns="http://www.w3.org/2000/svg">
<circle cx="18" cy="18" r="18" fill="#141925"/>
<path d="M15.5041 9.66406C12.2531 9.66406 9.66895 12.2482 9.66895 15.4993C9.66895 18.0001 11.2476 20.1622 13.4983 20.9958L14.41 19.511C12.6595 19.0942 11.3361 17.4165 11.3361 15.4993C11.3361 13.1652 13.1701 11.3313 15.5041 11.3313C17.1713 11.3313 18.5885 12.3368 19.2554 13.7539C19.4221 13.7539 19.5054 13.6758 19.6722 13.6758C20.2557 13.6758 20.7663 13.8373 21.1831 14.1707C20.5995 11.5866 18.255 9.66406 15.5041 9.66406ZM14.6705 12.9985V15.4993V15.9682L15.0613 16.2026L16.3898 17.0362L17.2755 15.6295L16.3377 15.0304V12.9985H14.6705ZM19.6722 15.4211C19.3179 15.4211 18.9688 15.5826 18.7604 15.9161L13.1596 24.6689C12.7428 25.4191 13.2638 26.3361 14.0974 26.3361H25.2469C26.0805 26.3361 26.6015 25.4191 26.1847 24.6689L20.5839 15.9161C20.3755 15.5826 20.0264 15.4211 19.6722 15.4211ZM18.8386 18.0001H20.5058V22.1681H18.8386V18.0001ZM18.8386 23.0017H20.5058V24.6689H18.8386V23.0017Z" fill="#2966FF"/>
</svg>
