<svg width="36" height="36" viewBox="0 0 36 36" fill="none" xmlns="http://www.w3.org/2000/svg">
<circle cx="18" cy="18" r="18" fill="#141925"/>
<path d="M25.8996 10.9592H10.1002C8.37041 10.9592 6.96338 12.3663 6.96338 14.096C6.96338 15.8258 8.37041 17.2329 10.1002 17.2329H12.2575V14.5866H9.9555C9.68473 14.5866 9.46499 14.3668 9.46499 14.096C9.46499 13.8253 9.68473 13.6055 9.9555 13.6055H26.0443C26.315 13.6055 26.5348 13.8253 26.5348 14.096C26.5348 14.3668 26.315 14.5866 26.0443 14.5866H23.7423V17.2329H25.8996C27.6293 17.2329 29.0364 15.8258 29.0364 14.096C29.0364 12.3663 27.6293 10.9592 25.8996 10.9592Z" fill="#2966FF"/>
<path d="M22.7613 24.5156V14.5867H13.2385V24.5156C13.2385 24.8057 13.4737 25.0409 13.7639 25.0409H22.236C22.5261 25.0409 22.7613 24.8057 22.7613 24.5156ZM18.5498 20.2609C18.4806 20.0762 18.3313 19.9381 18.1404 19.882C18.1301 19.8788 18.1201 19.8756 18.1098 19.8719L17.5661 19.6725C17.0844 19.5256 16.7077 19.1727 16.5311 18.7016C16.3805 18.2996 16.3952 17.8633 16.5728 17.4726C16.7503 17.0819 17.0694 16.7839 17.4714 16.6333C17.4839 16.6287 17.4967 16.6255 17.5092 16.6211V16.3989C17.5092 16.1281 17.7289 15.9084 17.9997 15.9084C18.2704 15.9084 18.4902 16.1281 18.4902 16.3989V16.5983C18.5613 16.6193 18.6317 16.6439 18.7001 16.675C19.0908 16.8526 19.389 17.1717 19.5396 17.5736C19.6348 17.8272 19.506 18.11 19.2524 18.2052C18.9991 18.2996 18.7158 18.1716 18.6209 17.918C18.5623 17.7615 18.4463 17.6374 18.2942 17.5682C18.1422 17.4991 17.9722 17.4934 17.8157 17.5521C17.659 17.6107 17.5349 17.7267 17.4657 17.879C17.3966 18.031 17.3907 18.201 17.4496 18.3575C17.519 18.5424 17.6681 18.6805 17.8589 18.7366C17.8692 18.7396 17.8795 18.743 17.8896 18.7467L18.4333 18.9461C18.915 19.093 19.2917 19.4459 19.4683 19.9168C19.7795 20.7463 19.3577 21.6741 18.528 21.9855C18.5154 21.9902 18.5027 21.9917 18.4902 21.9961V22.2198C18.4902 22.4905 18.2704 22.7103 17.9997 22.7103C17.7289 22.7103 17.5092 22.4905 17.5092 22.2198V22.0199C17.438 21.9988 17.3676 21.9745 17.2992 21.9434C16.9085 21.7655 16.6103 21.4467 16.4597 21.0447C16.3646 20.7911 16.4931 20.5081 16.7467 20.4132C17.0005 20.3183 17.283 20.4468 17.3782 20.7004C17.4368 20.8569 17.5531 20.9812 17.7051 21.0504C17.8574 21.1195 18.0271 21.1254 18.1836 21.0666C18.5069 20.9454 18.6709 20.5839 18.5498 20.2609Z" fill="#2966FF"/>
</svg>
