<svg width="36" height="36" viewBox="0 0 36 36" fill="none" xmlns="http://www.w3.org/2000/svg">
<circle cx="18" cy="18" r="18" fill="#141925"/>
<path d="M25.3423 20.9658C25.0216 20.9419 24.3596 21.3002 24.1788 21.3923C23.5338 21.7165 22.6364 22.2249 22.0461 22.631C22.0052 22.6583 21.9506 22.6958 21.9096 22.7231C21.6435 22.8937 21.3637 23.0063 21.0532 23.0745C19.3402 23.4397 16.8459 23.4772 16.8459 23.4772L16.6992 23.484C16.59 23.4908 16.491 23.4124 16.4774 23.3066C16.4603 23.1906 16.5456 23.0814 16.6685 23.0711L20.3775 22.7197C20.787 22.6753 21.1112 22.2932 21.0668 21.8632C21.0225 21.4333 20.6266 21.1194 20.2172 21.1637L16.9176 21.1228C16.6924 21.1194 16.3341 21.0648 16.1191 20.9999C13.9933 20.3789 12.7922 20.959 12.1541 21.232C12.0108 20.9965 11.7412 20.843 11.441 20.8634L10.0181 20.959C9.54378 20.9897 9.18892 21.3855 9.21963 21.8427L9.44824 25.0024C9.48237 25.4597 9.89183 25.8043 10.3661 25.7702L11.789 25.6747C12.0893 25.6542 12.335 25.4699 12.4408 25.2174L18.6919 25.487C19.388 25.5621 20.0397 25.4767 20.6539 25.156L20.8314 25.0639L25.5573 22.3C25.7893 22.1635 25.9531 21.928 25.9633 21.6687C25.9736 21.3514 25.7927 20.9999 25.3423 20.9658ZM10.8882 25.0229C10.622 25.0229 10.4037 24.8148 10.4037 24.5554C10.4037 24.2961 10.622 24.088 10.8882 24.088C11.1543 24.088 11.3727 24.2961 11.3727 24.5554C11.3727 24.8148 11.1543 25.0229 10.8882 25.0229ZM21.8277 22.0543C21.8346 21.969 21.8346 21.8803 21.8243 21.7916C21.8141 21.679 21.7868 21.5732 21.7527 21.4708C21.7561 21.464 21.7595 21.4572 21.7595 21.4503C22.2577 21.1774 23.2336 20.7065 23.7659 20.4983C24.032 20.3926 24.2948 20.3994 24.537 20.5632C24.3459 20.6314 24.1685 20.7167 24.0013 20.7986C23.4417 21.0784 22.4556 21.6141 21.9745 21.9519C21.9267 21.9861 21.8755 22.0202 21.8277 22.0543ZM21.1044 20.6621C21.4319 20.4881 22.1621 20.2527 22.4931 20.123C22.7559 20.0172 23.0152 20.024 23.2575 20.1844C22.8719 20.355 22.1314 20.6143 21.78 20.8088L21.5411 20.9385C21.5172 20.9522 21.4968 20.9658 21.4763 20.9829C21.3671 20.8532 21.2443 20.7474 21.1044 20.6621ZM22.4283 17.6696C22.6262 17.6696 22.7866 17.83 22.7866 18.0279C22.7866 18.2258 22.6262 18.3862 22.4283 18.3862H13.4951C13.2972 18.3862 13.1368 18.2258 13.1368 18.0279C13.1368 17.83 13.2972 17.6696 13.4951 17.6696H22.4283ZM13.1403 19.3211C13.1403 19.1232 13.3006 18.9628 13.4985 18.9628H22.4283C22.6262 18.9628 22.7866 19.1232 22.7866 19.3211C22.7866 19.519 22.6262 19.6794 22.4283 19.6794H13.4951C13.3006 19.6794 13.1403 19.519 13.1403 19.3211ZM21.1351 14.1107C21.1351 14.3905 20.9064 14.6191 20.6266 14.6191C20.3468 14.6191 20.1182 14.3905 20.1182 14.1107C20.1182 13.8309 20.3468 13.6023 20.6266 13.6023C20.9099 13.6023 21.1351 13.8309 21.1351 14.1107ZM15.8018 14.1107C15.8018 14.3905 15.5732 14.6191 15.2934 14.6191C15.0136 14.6191 14.7849 14.3905 14.7849 14.1107C14.7849 13.8309 15.0136 13.6023 15.2934 13.6023C15.5766 13.6023 15.8018 13.8309 15.8018 14.1107ZM22.79 11.9576C22.79 11.4969 22.4146 11.1216 21.954 11.1216H13.9694C13.5088 11.1216 13.1334 11.4969 13.1334 11.9576V16.2638C13.1334 16.7244 13.5088 17.0998 13.9694 17.0998H21.954C22.4146 17.0998 22.79 16.7244 22.79 16.2638V11.9576ZM22.0768 15.4619C22.0086 15.4449 21.9403 15.4346 21.8687 15.4346C21.4012 15.4346 21.0225 15.8134 21.0225 16.2808C21.0225 16.315 21.0259 16.3525 21.0293 16.3866H14.8293C14.8395 16.3354 14.8429 16.2843 14.8429 16.2297C14.8429 15.7622 14.4642 15.3834 13.9967 15.3834C13.9455 15.3834 13.8978 15.3868 13.8466 15.3971V12.8243C13.8944 12.8345 13.9455 12.8379 13.9967 12.8379C14.4642 12.8379 14.8429 12.4592 14.8429 11.9917C14.8429 11.9371 14.8361 11.8859 14.8293 11.8347H21.0463C21.0293 11.8996 21.019 11.9712 21.019 12.0429C21.019 12.5104 21.3978 12.8891 21.8653 12.8891C21.9369 12.8891 22.0086 12.8789 22.0734 12.8618V15.4619H22.0768ZM17.9617 12.2783C16.9517 12.2783 16.1293 13.1007 16.1293 14.1107C16.1293 15.1207 16.9517 15.943 17.9617 15.943C18.9717 15.943 19.7941 15.1207 19.7941 14.1107C19.7941 13.1007 18.9717 12.2783 17.9617 12.2783ZM18.0811 14.5201L17.7228 14.875L17.368 14.5167L17.0268 14.1721L17.385 13.8172L17.7263 14.1619L18.5452 13.3463L18.9001 13.7046L18.0811 14.5201Z" fill="#2966FF"/>
</svg>
