<svg width="19" height="15" viewBox="0 0 19 15" fill="none" xmlns="http://www.w3.org/2000/svg">
<path d="M11.8588 7.66846L12.938 6.53252C13.0165 6.84174 13.0625 7.16502 13.0625 7.50002C13.0625 9.56783 11.4644 11.25 9.5 11.25C9.18175 11.25 8.87463 11.2016 8.58087 11.1189L9.66002 9.98298C10.8399 9.89829 11.7784 8.91048 11.8588 7.66846ZM18.9252 7.19643C18.8522 7.05815 17.8164 5.14768 15.7917 3.52862L14.9276 4.43815C16.404 5.58081 17.3394 6.91346 17.7077 7.50096C17.004 8.62892 14.2433 12.5 9.5 12.5C8.78869 12.5 8.12725 12.4042 7.50485 12.2514L6.52917 13.2784C7.42618 13.568 8.4121 13.75 9.5 13.75C15.7155 13.75 18.7971 8.04627 18.9252 7.80361C19.0249 7.61471 19.0249 7.38533 18.9252 7.19643ZM16.451 1.06691L3.38853 14.8169C3.2726 14.9389 3.1206 15 2.96875 15C2.8169 15 2.6649 14.9389 2.54897 14.8169C2.31696 14.5727 2.31696 14.1772 2.54897 13.9331L4.21088 12.1838C1.52416 10.4764 0.158977 7.96314 0.0748125 7.80361C-0.0249375 7.61471 -0.0249375 7.38518 0.0748125 7.19627C0.202914 6.95377 3.28448 1.25004 9.5 1.25004C11.1071 1.25004 12.4992 1.63597 13.6892 2.2066L15.6115 0.183164C15.8435 -0.0610545 16.2192 -0.0610545 16.451 0.183164C16.6829 0.427382 16.683 0.822849 16.451 1.06691ZM5.0963 11.2517L6.59953 9.66939C6.18435 9.05627 5.9375 8.30861 5.9375 7.50002C5.9375 5.43221 7.53558 3.75003 9.5 3.75003C10.2682 3.75003 10.9784 4.00987 11.5609 4.44675L12.7765 3.16722C11.8161 2.76238 10.7248 2.50003 9.5 2.50003C4.75668 2.50003 1.99604 6.37112 1.29245 7.49908C1.73924 8.21189 3.02352 10.0163 5.0963 11.2517ZM7.46151 8.76189L10.6988 5.35424C10.3456 5.13471 9.93908 5.00003 9.5 5.00003C8.19048 5.00003 7.125 6.12159 7.125 7.50002C7.125 7.96221 7.25295 8.39017 7.46151 8.76189Z" fill="#697F9B"/>
</svg>
