<svg width="104" height="92" viewBox="0 0 104 92" fill="none" xmlns="http://www.w3.org/2000/svg">
<g id="Group 57125">
<g id="Screenshot 2023-03-24 at 11.06.43 AM">
<path id="Rectangle 3254" d="M24.9849 0.138947L20.7021 4.40965C20.625 4.48652 20.6248 4.61132 20.7017 4.6884L24.9765 8.97534C25.0534 9.05242 25.1782 9.0526 25.2553 8.97573L29.5381 4.70503C29.6151 4.62816 29.6153 4.50336 29.5385 4.42628L25.2636 0.139341C25.1868 0.0622577 25.062 0.062081 24.9849 0.138947Z" fill="#FFBEBE"/>
<path id="Rectangle 3255" d="M102.562 18.0929L100.539 16.0915C100.465 16.0178 100.345 16.0184 100.271 16.0929L98.2617 18.1232C98.1879 18.1977 98.1886 18.3179 98.2631 18.3916L100.286 20.393C100.36 20.4668 100.48 20.4662 100.554 20.3916L102.563 18.3614C102.637 18.2869 102.636 18.1667 102.562 18.0929Z" fill="#FFBEBE"/>
<path id="Rectangle 3256" d="M3.2322 45.8405L0.24911 48.7925C0.11153 48.9287 0.110368 49.1506 0.246515 49.2882L3.17439 52.2469C3.31053 52.3844 3.53243 52.3856 3.67001 52.2495L6.6531 49.2975C6.79068 49.1613 6.79184 48.9394 6.65569 48.8018L3.72782 45.8431C3.59168 45.7056 3.36978 45.7044 3.2322 45.8405Z" fill="#FFBEBE"/>
<path id="Rectangle 3257" d="M100.282 78.8402L97.1364 81.9773C97.0621 82.0513 97.062 82.1715 97.136 82.2458L100.265 85.3835C100.339 85.4577 100.459 85.4579 100.533 85.3839L103.679 82.2467C103.754 82.1727 103.754 82.0525 103.68 81.9783L100.551 78.8405C100.477 78.7663 100.357 78.7661 100.282 78.8402Z" fill="#FFBEBE"/>
</g>
<g id="Group 57124">
<path id="Ellipse 37" d="M55.3649 91.805C78.2262 91.805 96.7591 73.2721 96.7591 50.4108C96.7591 27.5494 78.2262 9.0166 55.3649 9.0166C32.5035 9.0166 13.9707 27.5494 13.9707 50.4108C13.9707 73.2721 32.5035 91.805 55.3649 91.805Z" fill="#FF7E7E"/>
<path id="Ellipse 38" d="M55.3246 85.6501C74.8338 85.6501 90.6492 69.8348 90.6492 50.3256C90.6492 30.8163 74.8338 15.001 55.3246 15.001C35.8154 15.001 20 30.8163 20 50.3256C20 69.8348 35.8154 85.6501 55.3246 85.6501Z" fill="#FF6262"/>
<g id="Group 64097">
<path id="Vector" d="M69.2325 59.2815L45.7201 35.7691C44.6946 34.7436 43.0321 34.7436 42.0083 35.7691L40.7691 37.0063C39.7436 38.0321 39.7436 39.6946 40.7691 40.7185L64.2815 64.2309C65.3073 65.2564 66.9698 65.2564 67.9937 64.2309L69.2309 62.9936C70.2583 61.9698 70.2583 60.307 69.2325 59.2815Z" fill="white"/>
<path id="Vector_2" d="M64.2815 35.7688L40.7691 59.2813C39.7436 60.3067 39.7436 61.9696 40.7691 62.9934L42.0063 64.2307C43.0321 65.2561 44.6946 65.2561 45.7185 64.2307L69.2325 40.7198C70.2583 39.6944 70.2583 38.0319 69.2325 37.008L67.9953 35.7708C66.9698 34.7434 65.3073 34.7434 64.2815 35.7688Z" fill="white"/>
</g>
</g>
</g>
</svg>
