<svg width="182" height="196" viewBox="0 0 182 196" fill="none" xmlns="http://www.w3.org/2000/svg">
<g id="Group">
<g id="Group 64224">
<g id="Group 64067">
<path id="Vector" d="M58.6027 32.9434L58.5997 32.9466C53.9336 37.8671 51.5891 44.7119 51.5891 53.4969V77.675H26.4203V47.7C26.4203 41.1433 27.7312 35.0047 30.3489 29.3604C32.9717 23.7049 36.5781 18.7042 41.089 14.3569C45.6758 10.0163 51.0852 6.65441 57.3242 4.19164C63.5538 1.73257 70.3643 0.5 77.7609 0.5C84.3209 0.5 90.6341 1.7295 96.7865 4.19032C102.859 6.65214 108.275 10.0986 113.037 14.3676C117.79 18.6289 121.561 23.7109 124.35 29.3703C127.133 35.1014 128.605 41.1545 128.605 47.7V77.675H104.512V53.4969C104.512 44.7107 102.084 37.7737 97.074 32.9326C92.0737 28.0179 85.3944 25.6688 77.0156 25.6688C69.4456 25.6688 63.2639 28.1127 58.6027 32.9434ZM141.027 91.0969V91.1797H141.527C145.119 91.1797 148.222 92.4509 150.862 95.0911C153.502 97.7312 154.773 100.834 154.773 104.427V168.772C154.773 172.438 154.122 175.851 152.823 179.016C151.522 182.189 149.733 184.955 147.535 187.398C145.349 189.745 142.673 191.611 139.583 192.994C136.508 194.369 133.184 195.02 129.519 195.02H24.6781C21.0117 195.02 17.6895 194.369 14.7009 192.996L14.4922 193.45L14.7009 192.996C11.6911 191.613 9.17589 189.827 7.06797 187.638C4.96752 185.456 3.34522 182.784 2.20671 179.775C1.06976 176.77 0.5 173.6 0.5 170.18V104.344C0.5 100.75 1.77224 97.6445 4.33395 95.0028C6.89045 92.3664 9.90812 91.0969 13.4984 91.0969H25.9203H52.0062H103.847H128.939H141.027Z" stroke="#D0D6E4"/>
</g>
<g id="Group_2">
<path id="Vector_2" d="M178.372 77.9961H81.6278C79.6242 77.9961 78 79.6205 78 81.6239V120.233C78 122.237 79.6244 123.861 81.6278 123.861H116.276L126.858 142.189C128.254 144.606 131.749 144.602 133.142 142.189L143.723 123.861H178.372C180.376 123.861 182 122.237 182 120.233V81.6239C182 79.6205 180.376 77.9961 178.372 77.9961ZM103.127 105.793C100.441 105.793 98.2629 103.615 98.2629 100.929C98.2629 98.2424 100.441 96.0645 103.127 96.0645C105.814 96.0645 107.991 98.2424 107.991 100.929C107.991 103.615 105.814 105.793 103.127 105.793ZM121.042 105.793C118.356 105.793 116.178 103.615 116.178 100.929C116.178 98.2424 118.356 96.0645 121.042 96.0645C123.729 96.0645 125.907 98.2424 125.907 100.929C125.907 103.615 123.729 105.793 121.042 105.793ZM138.958 105.793C136.271 105.793 134.093 103.615 134.093 100.929C134.093 98.2424 136.271 96.0645 138.958 96.0645C141.644 96.0645 143.822 98.2424 143.822 100.929C143.822 103.615 141.644 105.793 138.958 105.793ZM156.873 105.793C154.186 105.793 152.009 103.615 152.009 100.929C152.009 98.2424 154.186 96.0645 156.873 96.0645C159.559 96.0645 161.737 98.2424 161.737 100.929C161.737 103.615 159.559 105.793 156.873 105.793Z" fill="#3072F3"/>
</g>
</g>
</g>
</svg>
