<svg width="13" height="12" viewBox="0 0 13 12" fill="none" xmlns="http://www.w3.org/2000/svg">
<path id="Vector" d="M0.433333 2.1426H0.494867C0.589451 2.51016 0.805158 2.83607 1.10791 3.06885C1.41066 3.30163 1.7832 3.428 2.16667 3.428C2.55013 3.428 2.92267 3.30163 3.22542 3.06885C3.52818 2.83607 3.74388 2.51016 3.83847 2.1426H12.5667C12.6816 2.1426 12.7918 2.09744 12.8731 2.01707C12.9543 1.93669 13 1.82767 13 1.714C13 1.60033 12.9543 1.49131 12.8731 1.41093C12.7918 1.33056 12.6816 1.2854 12.5667 1.2854H3.83847C3.74388 0.917839 3.52818 0.591926 3.22542 0.359148C2.92267 0.126371 2.55013 0 2.16667 0C1.7832 0 1.41066 0.126371 1.10791 0.359148C0.805158 0.591926 0.589451 0.917839 0.494867 1.2854H0.433333C0.318406 1.2854 0.208186 1.33056 0.12692 1.41093C0.0456546 1.49131 0 1.60033 0 1.714C0 1.82767 0.0456546 1.93669 0.12692 2.01707C0.208186 2.09744 0.318406 2.1426 0.433333 2.1426ZM2.16667 0.856799C2.33808 0.856799 2.50564 0.907073 2.64816 1.00126C2.79068 1.09545 2.90177 1.22933 2.96736 1.38596C3.03296 1.5426 3.05012 1.71495 3.01668 1.88123C2.98324 2.04751 2.9007 2.20025 2.77949 2.32013C2.65829 2.44001 2.50386 2.52165 2.33574 2.55473C2.16763 2.5878 1.99337 2.57083 1.83501 2.50595C1.67665 2.44107 1.54129 2.3312 1.44606 2.19023C1.35083 2.04927 1.3 1.88354 1.3 1.714C1.3 1.48666 1.39131 1.26862 1.55384 1.10787C1.71637 0.947111 1.93681 0.856799 2.16667 0.856799ZM12.5667 5.5714H12.5051C12.4105 5.20384 12.1948 4.87793 11.8921 4.64515C11.5893 4.41237 11.2168 4.286 10.8333 4.286C10.4499 4.286 10.0773 4.41237 9.77458 4.64515C9.47182 4.87793 9.25612 5.20384 9.16153 5.5714H0.433333C0.318406 5.5714 0.208186 5.61656 0.12692 5.69693C0.0456546 5.77731 0 5.88633 0 6C0 6.11367 0.0456546 6.22269 0.12692 6.30307C0.208186 6.38344 0.318406 6.4286 0.433333 6.4286H9.16153C9.25612 6.79616 9.47182 7.12207 9.77458 7.35485C10.0773 7.58763 10.4499 7.714 10.8333 7.714C11.2168 7.714 11.5893 7.58763 11.8921 7.35485C12.1948 7.12207 12.4105 6.79616 12.5051 6.4286H12.5667C12.6816 6.4286 12.7918 6.38344 12.8731 6.30307C12.9543 6.22269 13 6.11367 13 6C13 5.88633 12.9543 5.77731 12.8731 5.69693C12.7918 5.61656 12.6816 5.5714 12.5667 5.5714ZM10.8333 6.8572C10.6619 6.8572 10.4944 6.80693 10.3518 6.71274C10.2093 6.61855 10.0982 6.48467 10.0326 6.32804C9.96704 6.1714 9.94988 5.99905 9.98332 5.83277C10.0168 5.66649 10.0993 5.51375 10.2205 5.39387C10.3417 5.27399 10.4961 5.19235 10.6643 5.15927C10.8324 5.12619 11.0066 5.14317 11.165 5.20805C11.3234 5.27293 11.4587 5.3828 11.5539 5.52377C11.6492 5.66473 11.7 5.83046 11.7 6C11.7 6.22734 11.6087 6.44538 11.4462 6.60613C11.2836 6.76689 11.0632 6.8572 10.8333 6.8572ZM12.5667 9.8574H8.1718C8.07722 9.48984 7.86151 9.16393 7.55876 8.93115C7.256 8.69837 6.88347 8.572 6.5 8.572C6.11653 8.572 5.744 8.69837 5.44124 8.93115C5.13849 9.16393 4.92278 9.48984 4.8282 9.8574H0.433333C0.318406 9.8574 0.208186 9.90256 0.12692 9.98293C0.0456546 10.0633 0 10.1723 0 10.286C0 10.3997 0.0456546 10.5087 0.12692 10.5891C0.208186 10.6694 0.318406 10.7146 0.433333 10.7146H4.8282C4.92278 11.0822 5.13849 11.4081 5.44124 11.6409C5.744 11.8736 6.11653 12 6.5 12C6.88347 12 7.256 11.8736 7.55876 11.6409C7.86151 11.4081 8.07722 11.0822 8.1718 10.7146H12.5667C12.6816 10.7146 12.7918 10.6694 12.8731 10.5891C12.9543 10.5087 13 10.3997 13 10.286C13 10.1723 12.9543 10.0633 12.8731 9.98293C12.7918 9.90256 12.6816 9.8574 12.5667 9.8574ZM6.5 11.1432C6.32859 11.1432 6.16103 11.0929 6.01851 10.9987C5.87598 10.9045 5.7649 10.7707 5.6993 10.614C5.63371 10.4574 5.61655 10.285 5.64999 10.1188C5.68343 9.95249 5.76597 9.79975 5.88717 9.67987C6.00838 9.55999 6.1628 9.47835 6.33092 9.44527C6.49904 9.4122 6.6733 9.42917 6.83166 9.49405C6.99002 9.55893 7.12538 9.6688 7.22061 9.80976C7.31584 9.95073 7.36667 10.1165 7.36667 10.286C7.36667 10.5133 7.27536 10.7314 7.11283 10.8921C6.95029 11.0529 6.72985 11.1432 6.5 11.1432Z" fill="#2E4276"/>
</svg>
