<svg width="1127" height="612" viewBox="0 0 1127 612" fill="none" xmlns="http://www.w3.org/2000/svg">
<rect x="0.5" y="0.5" width="1126" height="611" rx="26.5" fill="url(#paint0_linear_222_4050)" stroke="#282A66"/>
<path d="M122 509L1052 509" stroke="#737592" stroke-linecap="round"/>
<path d="M122 439L1052 439" stroke="#292A38" stroke-linecap="round"/>
<path d="M122 367L1052 367" stroke="#292A38" stroke-linecap="round"/>
<path d="M122 296L1052 296" stroke="#292A38" stroke-linecap="round"/>
<path d="M122 224L1052 224" stroke="#292A38" stroke-linecap="round"/>
<path d="M122 153L1052 153" stroke="#292A38" stroke-linecap="round"/>
<path d="M96.9725 507.834C96.9725 506.229 97.2338 504.978 97.7565 504.082C98.2792 503.177 99.1938 502.724 100.5 502.724C101.798 502.724 102.708 503.177 103.23 504.082C103.753 504.978 104.014 506.229 104.014 507.834C104.014 509.467 103.753 510.737 103.23 511.642C102.708 512.547 101.798 513 100.5 513C99.1938 513 98.2792 512.547 97.7565 511.642C97.2338 510.737 96.9725 509.467 96.9725 507.834ZM102.754 507.834C102.754 507.022 102.698 506.336 102.586 505.776C102.484 505.207 102.264 504.749 101.928 504.404C101.602 504.059 101.126 503.886 100.5 503.886C99.8658 503.886 99.3805 504.059 99.0445 504.404C98.7178 504.749 98.4985 505.207 98.3865 505.776C98.2838 506.336 98.2325 507.022 98.2325 507.834C98.2325 508.674 98.2838 509.379 98.3865 509.948C98.4985 510.517 98.7178 510.975 99.0445 511.32C99.3805 511.665 99.8658 511.838 100.5 511.838C101.126 511.838 101.602 511.665 101.928 511.32C102.264 510.975 102.484 510.517 102.586 509.948C102.698 509.379 102.754 508.674 102.754 507.834Z" fill="#B3B6E1"/>
<path d="M164.031 529.242L160.853 535.318V539H159.579V535.318L156.387 529.242H157.801L160.209 534.184L162.617 529.242H164.031ZM172.375 534.87C172.375 535.113 172.361 535.369 172.333 535.64H166.201C166.248 536.396 166.504 536.989 166.971 537.418C167.447 537.838 168.021 538.048 168.693 538.048C169.244 538.048 169.701 537.922 170.065 537.67C170.438 537.409 170.7 537.063 170.849 536.634H172.221C172.016 537.371 171.605 537.973 170.989 538.44C170.373 538.897 169.608 539.126 168.693 539.126C167.965 539.126 167.312 538.963 166.733 538.636C166.164 538.309 165.716 537.847 165.389 537.25C165.062 536.643 164.899 535.943 164.899 535.15C164.899 534.357 165.058 533.661 165.375 533.064C165.692 532.467 166.136 532.009 166.705 531.692C167.284 531.365 167.946 531.202 168.693 531.202C169.421 531.202 170.065 531.361 170.625 531.678C171.185 531.995 171.614 532.434 171.913 532.994C172.221 533.545 172.375 534.17 172.375 534.87ZM171.059 534.604C171.059 534.119 170.952 533.703 170.737 533.358C170.522 533.003 170.228 532.737 169.855 532.56C169.491 532.373 169.085 532.28 168.637 532.28C167.993 532.28 167.442 532.485 166.985 532.896C166.537 533.307 166.28 533.876 166.215 534.604H171.059ZM173.581 535.136C173.581 534.352 173.739 533.666 174.057 533.078C174.374 532.481 174.808 532.019 175.359 531.692C175.919 531.365 176.539 531.202 177.221 531.202C177.893 531.202 178.476 531.347 178.971 531.636C179.465 531.925 179.834 532.289 180.077 532.728V531.328H181.365V539H180.077V537.572C179.825 538.02 179.447 538.393 178.943 538.692C178.448 538.981 177.869 539.126 177.207 539.126C176.525 539.126 175.909 538.958 175.359 538.622C174.808 538.286 174.374 537.815 174.057 537.208C173.739 536.601 173.581 535.911 173.581 535.136ZM180.077 535.15C180.077 534.571 179.96 534.067 179.727 533.638C179.493 533.209 179.176 532.882 178.775 532.658C178.383 532.425 177.949 532.308 177.473 532.308C176.997 532.308 176.563 532.42 176.171 532.644C175.779 532.868 175.466 533.195 175.233 533.624C174.999 534.053 174.883 534.557 174.883 535.136C174.883 535.724 174.999 536.237 175.233 536.676C175.466 537.105 175.779 537.437 176.171 537.67C176.563 537.894 176.997 538.006 177.473 538.006C177.949 538.006 178.383 537.894 178.775 537.67C179.176 537.437 179.493 537.105 179.727 536.676C179.96 536.237 180.077 535.729 180.077 535.15ZM184.791 532.574C185.015 532.135 185.333 531.795 185.743 531.552C186.163 531.309 186.672 531.188 187.269 531.188V532.504H186.933C185.505 532.504 184.791 533.279 184.791 534.828V539H183.517V531.328H184.791V532.574ZM191.927 530.04V528.878H194.559V539H193.271V530.04H191.927Z" fill="#B3B6E1"/>
<path d="M331.247 529.242L328.069 535.318V539H326.795V535.318L323.603 529.242H325.017L327.425 534.184L329.833 529.242H331.247ZM339.591 534.87C339.591 535.113 339.577 535.369 339.549 535.64H333.417C333.463 536.396 333.72 536.989 334.187 537.418C334.663 537.838 335.237 538.048 335.909 538.048C336.459 538.048 336.917 537.922 337.281 537.67C337.654 537.409 337.915 537.063 338.065 536.634H339.437C339.231 537.371 338.821 537.973 338.205 538.44C337.589 538.897 336.823 539.126 335.909 539.126C335.181 539.126 334.527 538.963 333.949 538.636C333.379 538.309 332.931 537.847 332.605 537.25C332.278 536.643 332.115 535.943 332.115 535.15C332.115 534.357 332.273 533.661 332.591 533.064C332.908 532.467 333.351 532.009 333.921 531.692C334.499 531.365 335.162 531.202 335.909 531.202C336.637 531.202 337.281 531.361 337.841 531.678C338.401 531.995 338.83 532.434 339.129 532.994C339.437 533.545 339.591 534.17 339.591 534.87ZM338.275 534.604C338.275 534.119 338.167 533.703 337.953 533.358C337.738 533.003 337.444 532.737 337.071 532.56C336.707 532.373 336.301 532.28 335.853 532.28C335.209 532.28 334.658 532.485 334.201 532.896C333.753 533.307 333.496 533.876 333.431 534.604H338.275ZM340.796 535.136C340.796 534.352 340.955 533.666 341.272 533.078C341.59 532.481 342.024 532.019 342.574 531.692C343.134 531.365 343.755 531.202 344.436 531.202C345.108 531.202 345.692 531.347 346.186 531.636C346.681 531.925 347.05 532.289 347.292 532.728V531.328H348.58V539H347.292V537.572C347.04 538.02 346.662 538.393 346.158 538.692C345.664 538.981 345.085 539.126 344.422 539.126C343.741 539.126 343.125 538.958 342.574 538.622C342.024 538.286 341.59 537.815 341.272 537.208C340.955 536.601 340.796 535.911 340.796 535.136ZM347.292 535.15C347.292 534.571 347.176 534.067 346.942 533.638C346.709 533.209 346.392 532.882 345.99 532.658C345.598 532.425 345.164 532.308 344.688 532.308C344.212 532.308 343.778 532.42 343.386 532.644C342.994 532.868 342.682 533.195 342.448 533.624C342.215 534.053 342.098 534.557 342.098 535.136C342.098 535.724 342.215 536.237 342.448 536.676C342.682 537.105 342.994 537.437 343.386 537.67C343.778 537.894 344.212 538.006 344.688 538.006C345.164 538.006 345.598 537.894 345.99 537.67C346.392 537.437 346.709 537.105 346.942 536.676C347.176 536.237 347.292 535.729 347.292 535.15ZM352.007 532.574C352.231 532.135 352.549 531.795 352.959 531.552C353.379 531.309 353.888 531.188 354.485 531.188V532.504H354.149C352.721 532.504 352.007 533.279 352.007 534.828V539H350.733V531.328H352.007V532.574ZM359.324 537.978C360.51 537.026 361.438 536.247 362.11 535.64C362.782 535.024 363.347 534.385 363.804 533.722C364.271 533.05 364.504 532.392 364.504 531.748C364.504 531.141 364.355 530.665 364.056 530.32C363.767 529.965 363.296 529.788 362.642 529.788C362.008 529.788 361.513 529.989 361.158 530.39C360.813 530.782 360.626 531.309 360.598 531.972H359.366C359.404 530.927 359.721 530.119 360.318 529.55C360.916 528.981 361.686 528.696 362.628 528.696C363.59 528.696 364.35 528.962 364.91 529.494C365.48 530.026 365.764 530.759 365.764 531.692C365.764 532.467 365.531 533.223 365.064 533.96C364.607 534.688 364.084 535.332 363.496 535.892C362.908 536.443 362.157 537.087 361.242 537.824H366.058V538.888H359.324V537.978Z" fill="#B3B6E1"/>
<path d="M502.151 529.242L498.973 535.318V539H497.699V535.318L494.507 529.242H495.921L498.329 534.184L500.737 529.242H502.151ZM510.495 534.87C510.495 535.113 510.481 535.369 510.453 535.64H504.321C504.368 536.396 504.624 536.989 505.091 537.418C505.567 537.838 506.141 538.048 506.813 538.048C507.364 538.048 507.821 537.922 508.185 537.67C508.558 537.409 508.82 537.063 508.969 536.634H510.341C510.136 537.371 509.725 537.973 509.109 538.44C508.493 538.897 507.728 539.126 506.813 539.126C506.085 539.126 505.432 538.963 504.853 538.636C504.284 538.309 503.836 537.847 503.509 537.25C503.182 536.643 503.019 535.943 503.019 535.15C503.019 534.357 503.178 533.661 503.495 533.064C503.812 532.467 504.256 532.009 504.825 531.692C505.404 531.365 506.066 531.202 506.813 531.202C507.541 531.202 508.185 531.361 508.745 531.678C509.305 531.995 509.734 532.434 510.033 532.994C510.341 533.545 510.495 534.17 510.495 534.87ZM509.179 534.604C509.179 534.119 509.072 533.703 508.857 533.358C508.642 533.003 508.348 532.737 507.975 532.56C507.611 532.373 507.205 532.28 506.757 532.28C506.113 532.28 505.562 532.485 505.105 532.896C504.657 533.307 504.4 533.876 504.335 534.604H509.179ZM511.701 535.136C511.701 534.352 511.859 533.666 512.177 533.078C512.494 532.481 512.928 532.019 513.479 531.692C514.039 531.365 514.659 531.202 515.341 531.202C516.013 531.202 516.596 531.347 517.091 531.636C517.585 531.925 517.954 532.289 518.197 532.728V531.328H519.485V539H518.197V537.572C517.945 538.02 517.567 538.393 517.063 538.692C516.568 538.981 515.989 539.126 515.327 539.126C514.645 539.126 514.029 538.958 513.479 538.622C512.928 538.286 512.494 537.815 512.177 537.208C511.859 536.601 511.701 535.911 511.701 535.136ZM518.197 535.15C518.197 534.571 518.08 534.067 517.847 533.638C517.613 533.209 517.296 532.882 516.895 532.658C516.503 532.425 516.069 532.308 515.593 532.308C515.117 532.308 514.683 532.42 514.291 532.644C513.899 532.868 513.586 533.195 513.353 533.624C513.119 534.053 513.003 534.557 513.003 535.136C513.003 535.724 513.119 536.237 513.353 536.676C513.586 537.105 513.899 537.437 514.291 537.67C514.683 537.894 515.117 538.006 515.593 538.006C516.069 538.006 516.503 537.894 516.895 537.67C517.296 537.437 517.613 537.105 517.847 536.676C518.08 536.237 518.197 535.729 518.197 535.15ZM522.912 532.574C523.136 532.135 523.453 531.795 523.864 531.552C524.284 531.309 524.792 531.188 525.39 531.188V532.504H525.054C523.626 532.504 522.912 533.279 522.912 534.828V539H521.638V531.328H522.912V532.574ZM530.355 531.426C530.42 530.567 530.751 529.895 531.349 529.41C531.946 528.925 532.721 528.682 533.673 528.682C534.307 528.682 534.853 528.799 535.311 529.032C535.777 529.256 536.127 529.564 536.361 529.956C536.603 530.348 536.725 530.791 536.725 531.286C536.725 531.865 536.557 532.364 536.221 532.784C535.894 533.204 535.465 533.475 534.933 533.596V533.666C535.539 533.815 536.02 534.109 536.375 534.548C536.729 534.987 536.907 535.561 536.907 536.27C536.907 536.802 536.785 537.283 536.543 537.712C536.3 538.132 535.936 538.463 535.451 538.706C534.965 538.949 534.382 539.07 533.701 539.07C532.711 539.07 531.899 538.813 531.265 538.3C530.63 537.777 530.275 537.04 530.201 536.088H531.433C531.498 536.648 531.727 537.105 532.119 537.46C532.511 537.815 533.033 537.992 533.687 537.992C534.34 537.992 534.835 537.824 535.171 537.488C535.516 537.143 535.689 536.699 535.689 536.158C535.689 535.458 535.455 534.954 534.989 534.646C534.522 534.338 533.817 534.184 532.875 534.184H532.553V533.12H532.889C533.747 533.111 534.396 532.971 534.835 532.7C535.273 532.42 535.493 531.991 535.493 531.412C535.493 530.917 535.329 530.521 535.003 530.222C534.685 529.923 534.228 529.774 533.631 529.774C533.052 529.774 532.585 529.923 532.231 530.222C531.876 530.521 531.666 530.922 531.601 531.426H530.355Z" fill="#B3B6E1"/>
<path d="M673.371 529.242L670.193 535.318V539H668.919V535.318L665.727 529.242H667.141L669.549 534.184L671.957 529.242H673.371ZM681.715 534.87C681.715 535.113 681.701 535.369 681.673 535.64H675.541C675.587 536.396 675.844 536.989 676.311 537.418C676.787 537.838 677.361 538.048 678.033 538.048C678.583 538.048 679.041 537.922 679.405 537.67C679.778 537.409 680.039 537.063 680.189 536.634H681.561C681.355 537.371 680.945 537.973 680.329 538.44C679.713 538.897 678.947 539.126 678.033 539.126C677.305 539.126 676.651 538.963 676.073 538.636C675.503 538.309 675.055 537.847 674.729 537.25C674.402 536.643 674.239 535.943 674.239 535.15C674.239 534.357 674.397 533.661 674.715 533.064C675.032 532.467 675.475 532.009 676.045 531.692C676.623 531.365 677.286 531.202 678.033 531.202C678.761 531.202 679.405 531.361 679.965 531.678C680.525 531.995 680.954 532.434 681.253 532.994C681.561 533.545 681.715 534.17 681.715 534.87ZM680.399 534.604C680.399 534.119 680.291 533.703 680.077 533.358C679.862 533.003 679.568 532.737 679.195 532.56C678.831 532.373 678.425 532.28 677.977 532.28C677.333 532.28 676.782 532.485 676.325 532.896C675.877 533.307 675.62 533.876 675.555 534.604H680.399ZM682.92 535.136C682.92 534.352 683.079 533.666 683.396 533.078C683.714 532.481 684.148 532.019 684.698 531.692C685.258 531.365 685.879 531.202 686.56 531.202C687.232 531.202 687.816 531.347 688.31 531.636C688.805 531.925 689.174 532.289 689.416 532.728V531.328H690.704V539H689.416V537.572C689.164 538.02 688.786 538.393 688.282 538.692C687.788 538.981 687.209 539.126 686.546 539.126C685.865 539.126 685.249 538.958 684.698 538.622C684.148 538.286 683.714 537.815 683.396 537.208C683.079 536.601 682.92 535.911 682.92 535.136ZM689.416 535.15C689.416 534.571 689.3 534.067 689.066 533.638C688.833 533.209 688.516 532.882 688.114 532.658C687.722 532.425 687.288 532.308 686.812 532.308C686.336 532.308 685.902 532.42 685.51 532.644C685.118 532.868 684.806 533.195 684.572 533.624C684.339 534.053 684.222 534.557 684.222 535.136C684.222 535.724 684.339 536.237 684.572 536.676C684.806 537.105 685.118 537.437 685.51 537.67C685.902 537.894 686.336 538.006 686.812 538.006C687.288 538.006 687.722 537.894 688.114 537.67C688.516 537.437 688.833 537.105 689.066 536.676C689.3 536.237 689.416 535.729 689.416 535.15ZM694.131 532.574C694.355 532.135 694.673 531.795 695.083 531.552C695.503 531.309 696.012 531.188 696.609 531.188V532.504H696.273C694.845 532.504 694.131 533.279 694.131 534.828V539H692.857V531.328H694.131V532.574ZM701.294 536.746V535.78L706.208 528.976H707.734V535.64H709.134V536.746H707.734V539H706.474V536.746H701.294ZM706.53 530.306L702.764 535.64H706.53V530.306Z" fill="#B3B6E1"/>
<path d="M845.378 529.242L842.2 535.318V539H840.926V535.318L837.734 529.242H839.148L841.556 534.184L843.964 529.242H845.378ZM853.722 534.87C853.722 535.113 853.708 535.369 853.68 535.64H847.548C847.594 536.396 847.851 536.989 848.318 537.418C848.794 537.838 849.368 538.048 850.04 538.048C850.59 538.048 851.048 537.922 851.412 537.67C851.785 537.409 852.046 537.063 852.196 536.634H853.568C853.362 537.371 852.952 537.973 852.336 538.44C851.72 538.897 850.954 539.126 850.04 539.126C849.312 539.126 848.658 538.963 848.08 538.636C847.51 538.309 847.062 537.847 846.736 537.25C846.409 536.643 846.246 535.943 846.246 535.15C846.246 534.357 846.404 533.661 846.722 533.064C847.039 532.467 847.482 532.009 848.052 531.692C848.63 531.365 849.293 531.202 850.04 531.202C850.768 531.202 851.412 531.361 851.972 531.678C852.532 531.995 852.961 532.434 853.26 532.994C853.568 533.545 853.722 534.17 853.722 534.87ZM852.406 534.604C852.406 534.119 852.298 533.703 852.084 533.358C851.869 533.003 851.575 532.737 851.202 532.56C850.838 532.373 850.432 532.28 849.984 532.28C849.34 532.28 848.789 532.485 848.332 532.896C847.884 533.307 847.627 533.876 847.562 534.604H852.406ZM854.927 535.136C854.927 534.352 855.086 533.666 855.403 533.078C855.721 532.481 856.155 532.019 856.705 531.692C857.265 531.365 857.886 531.202 858.567 531.202C859.239 531.202 859.823 531.347 860.317 531.636C860.812 531.925 861.181 532.289 861.423 532.728V531.328H862.711V539H861.423V537.572C861.171 538.02 860.793 538.393 860.289 538.692C859.795 538.981 859.216 539.126 858.553 539.126C857.872 539.126 857.256 538.958 856.705 538.622C856.155 538.286 855.721 537.815 855.403 537.208C855.086 536.601 854.927 535.911 854.927 535.136ZM861.423 535.15C861.423 534.571 861.307 534.067 861.073 533.638C860.84 533.209 860.523 532.882 860.121 532.658C859.729 532.425 859.295 532.308 858.819 532.308C858.343 532.308 857.909 532.42 857.517 532.644C857.125 532.868 856.813 533.195 856.579 533.624C856.346 534.053 856.229 534.557 856.229 535.136C856.229 535.724 856.346 536.237 856.579 536.676C856.813 537.105 857.125 537.437 857.517 537.67C857.909 537.894 858.343 538.006 858.819 538.006C859.295 538.006 859.729 537.894 860.121 537.67C860.523 537.437 860.84 537.105 861.073 536.676C861.307 536.237 861.423 535.729 861.423 535.15ZM866.138 532.574C866.362 532.135 866.679 531.795 867.09 531.552C867.51 531.309 868.019 531.188 868.616 531.188V532.504H868.28C866.852 532.504 866.138 533.279 866.138 534.828V539H864.864V531.328H866.138V532.574ZM880.063 529.984H875.149V533.176C875.364 532.877 875.681 532.635 876.101 532.448C876.521 532.252 876.974 532.154 877.459 532.154C878.234 532.154 878.864 532.317 879.349 532.644C879.835 532.961 880.18 533.377 880.385 533.89C880.6 534.394 880.707 534.931 880.707 535.5C880.707 536.172 880.581 536.774 880.329 537.306C880.077 537.838 879.69 538.258 879.167 538.566C878.654 538.874 878.015 539.028 877.249 539.028C876.269 539.028 875.476 538.776 874.869 538.272C874.263 537.768 873.894 537.096 873.763 536.256H875.009C875.131 536.788 875.387 537.203 875.779 537.502C876.171 537.801 876.666 537.95 877.263 537.95C878.001 537.95 878.556 537.731 878.929 537.292C879.303 536.844 879.489 536.256 879.489 535.528C879.489 534.8 879.303 534.24 878.929 533.848C878.556 533.447 878.005 533.246 877.277 533.246C876.783 533.246 876.349 533.367 875.975 533.61C875.611 533.843 875.345 534.165 875.177 534.576H873.973V528.864H880.063V529.984Z" fill="#B3B6E1"/>
<path d="M1017.33 529.242L1014.15 535.318V539H1012.88V535.318L1009.69 529.242H1011.1L1013.51 534.184L1015.92 529.242H1017.33ZM1025.67 534.87C1025.67 535.113 1025.66 535.369 1025.63 535.64H1019.5C1019.55 536.396 1019.8 536.989 1020.27 537.418C1020.75 537.838 1021.32 538.048 1021.99 538.048C1022.54 538.048 1023 537.922 1023.36 537.67C1023.74 537.409 1024 537.063 1024.15 536.634H1025.52C1025.31 537.371 1024.9 537.973 1024.29 538.44C1023.67 538.897 1022.91 539.126 1021.99 539.126C1021.26 539.126 1020.61 538.963 1020.03 538.636C1019.46 538.309 1019.01 537.847 1018.69 537.25C1018.36 536.643 1018.2 535.943 1018.2 535.15C1018.2 534.357 1018.36 533.661 1018.67 533.064C1018.99 532.467 1019.43 532.009 1020 531.692C1020.58 531.365 1021.25 531.202 1021.99 531.202C1022.72 531.202 1023.36 531.361 1023.92 531.678C1024.48 531.995 1024.91 532.434 1025.21 532.994C1025.52 533.545 1025.67 534.17 1025.67 534.87ZM1024.36 534.604C1024.36 534.119 1024.25 533.703 1024.04 533.358C1023.82 533.003 1023.53 532.737 1023.15 532.56C1022.79 532.373 1022.38 532.28 1021.94 532.28C1021.29 532.28 1020.74 532.485 1020.28 532.896C1019.84 533.307 1019.58 533.876 1019.51 534.604H1024.36ZM1026.88 535.136C1026.88 534.352 1027.04 533.666 1027.36 533.078C1027.67 532.481 1028.11 532.019 1028.66 531.692C1029.22 531.365 1029.84 531.202 1030.52 531.202C1031.19 531.202 1031.77 531.347 1032.27 531.636C1032.76 531.925 1033.13 532.289 1033.38 532.728V531.328H1034.66V539H1033.38V537.572C1033.12 538.02 1032.75 538.393 1032.24 538.692C1031.75 538.981 1031.17 539.126 1030.51 539.126C1029.82 539.126 1029.21 538.958 1028.66 538.622C1028.11 538.286 1027.67 537.815 1027.36 537.208C1027.04 536.601 1026.88 535.911 1026.88 535.136ZM1033.38 535.15C1033.38 534.571 1033.26 534.067 1033.03 533.638C1032.79 533.209 1032.47 532.882 1032.07 532.658C1031.68 532.425 1031.25 532.308 1030.77 532.308C1030.3 532.308 1029.86 532.42 1029.47 532.644C1029.08 532.868 1028.76 533.195 1028.53 533.624C1028.3 534.053 1028.18 534.557 1028.18 535.136C1028.18 535.724 1028.3 536.237 1028.53 536.676C1028.76 537.105 1029.08 537.437 1029.47 537.67C1029.86 537.894 1030.3 538.006 1030.77 538.006C1031.25 538.006 1031.68 537.894 1032.07 537.67C1032.47 537.437 1032.79 537.105 1033.03 536.676C1033.26 536.237 1033.38 535.729 1033.38 535.15ZM1038.09 532.574C1038.31 532.135 1038.63 531.795 1039.04 531.552C1039.46 531.309 1039.97 531.188 1040.57 531.188V532.504H1040.23C1038.8 532.504 1038.09 533.279 1038.09 534.828V539H1036.82V531.328H1038.09V532.574ZM1051.2 531.286C1051 530.25 1050.36 529.732 1049.29 529.732C1048.45 529.732 1047.83 530.054 1047.42 530.698C1047.01 531.333 1046.81 532.383 1046.82 533.848C1047.04 533.363 1047.39 532.985 1047.89 532.714C1048.39 532.434 1048.95 532.294 1049.57 532.294C1050.53 532.294 1051.29 532.593 1051.86 533.19C1052.44 533.787 1052.73 534.613 1052.73 535.668C1052.73 536.303 1052.6 536.872 1052.35 537.376C1052.11 537.88 1051.74 538.281 1051.23 538.58C1050.74 538.879 1050.13 539.028 1049.43 539.028C1048.46 539.028 1047.71 538.813 1047.17 538.384C1046.63 537.955 1046.25 537.362 1046.04 536.606C1045.82 535.85 1045.72 534.917 1045.72 533.806C1045.72 530.381 1046.91 528.668 1049.3 528.668C1050.21 528.668 1050.93 528.915 1051.46 529.41C1051.98 529.905 1052.29 530.53 1052.38 531.286H1051.2ZM1049.3 533.372C1048.9 533.372 1048.52 533.456 1048.17 533.624C1047.81 533.783 1047.52 534.03 1047.3 534.366C1047.08 534.693 1046.98 535.094 1046.98 535.57C1046.98 536.279 1047.18 536.858 1047.59 537.306C1048 537.745 1048.59 537.964 1049.36 537.964C1050.01 537.964 1050.53 537.763 1050.91 537.362C1051.3 536.951 1051.5 536.401 1051.5 535.71C1051.5 534.982 1051.31 534.413 1050.94 534.002C1050.56 533.582 1050.02 533.372 1049.3 533.372Z" fill="#B3B6E1"/>
<path d="M79.8966 441.978C81.082 441.026 82.0106 440.247 82.6826 439.64C83.3546 439.024 83.9193 438.385 84.3766 437.722C84.8433 437.05 85.0766 436.392 85.0766 435.748C85.0766 435.141 84.9273 434.665 84.6286 434.32C84.3393 433.965 83.868 433.788 83.2146 433.788C82.58 433.788 82.0853 433.989 81.7306 434.39C81.3853 434.782 81.1986 435.309 81.1706 435.972H79.9386C79.976 434.927 80.2933 434.119 80.8906 433.55C81.488 432.981 82.258 432.696 83.2006 432.696C84.162 432.696 84.9226 432.962 85.4826 433.494C86.052 434.026 86.3366 434.759 86.3366 435.692C86.3366 436.467 86.1033 437.223 85.6366 437.96C85.1793 438.688 84.6566 439.332 84.0686 439.892C83.4806 440.443 82.7293 441.087 81.8146 441.824H86.6306V442.888H79.8966V441.978ZM94.5574 433.984H89.6434V437.176C89.858 436.877 90.1754 436.635 90.5954 436.448C91.0154 436.252 91.468 436.154 91.9534 436.154C92.728 436.154 93.358 436.317 93.8434 436.644C94.3287 436.961 94.674 437.377 94.8794 437.89C95.094 438.394 95.2014 438.931 95.2014 439.5C95.2014 440.172 95.0754 440.774 94.8234 441.306C94.5714 441.838 94.184 442.258 93.6614 442.566C93.148 442.874 92.5087 443.028 91.7434 443.028C90.7634 443.028 89.97 442.776 89.3634 442.272C88.7567 441.768 88.388 441.096 88.2574 440.256H89.5034C89.6247 440.788 89.8814 441.203 90.2734 441.502C90.6654 441.801 91.16 441.95 91.7574 441.95C92.4947 441.95 93.05 441.731 93.4234 441.292C93.7967 440.844 93.9834 440.256 93.9834 439.528C93.9834 438.8 93.7967 438.24 93.4234 437.848C93.05 437.447 92.4994 437.246 91.7714 437.246C91.2767 437.246 90.8427 437.367 90.4694 437.61C90.1054 437.843 89.8394 438.165 89.6714 438.576H88.4674V432.864H94.5574V433.984ZM96.8944 437.834C96.8944 436.229 97.1557 434.978 97.6784 434.082C98.201 433.177 99.1157 432.724 100.422 432.724C101.72 432.724 102.63 433.177 103.152 434.082C103.675 434.978 103.936 436.229 103.936 437.834C103.936 439.467 103.675 440.737 103.152 441.642C102.63 442.547 101.72 443 100.422 443C99.1157 443 98.201 442.547 97.6784 441.642C97.1557 440.737 96.8944 439.467 96.8944 437.834ZM102.676 437.834C102.676 437.022 102.62 436.336 102.508 435.776C102.406 435.207 102.186 434.749 101.85 434.404C101.524 434.059 101.048 433.886 100.422 433.886C99.7877 433.886 99.3024 434.059 98.9664 434.404C98.6397 434.749 98.4204 435.207 98.3084 435.776C98.2057 436.336 98.1544 437.022 98.1544 437.834C98.1544 438.674 98.2057 439.379 98.3084 439.948C98.4204 440.517 98.6397 440.975 98.9664 441.32C99.3024 441.665 99.7877 441.838 100.422 441.838C101.048 441.838 101.524 441.665 101.85 441.32C102.186 440.975 102.406 440.517 102.508 439.948C102.62 439.379 102.676 438.674 102.676 437.834Z" fill="#B3B6E1"/>
<path d="M85.6355 361.984H80.7215V365.176C80.9361 364.877 81.2535 364.635 81.6735 364.448C82.0935 364.252 82.5461 364.154 83.0315 364.154C83.8061 364.154 84.4361 364.317 84.9215 364.644C85.4068 364.961 85.7521 365.377 85.9575 365.89C86.1721 366.394 86.2795 366.931 86.2795 367.5C86.2795 368.172 86.1535 368.774 85.9015 369.306C85.6495 369.838 85.2621 370.258 84.7395 370.566C84.2261 370.874 83.5868 371.028 82.8215 371.028C81.8415 371.028 81.0481 370.776 80.4415 370.272C79.8348 369.768 79.4661 369.096 79.3355 368.256H80.5815C80.7028 368.788 80.9595 369.203 81.3515 369.502C81.7435 369.801 82.2381 369.95 82.8355 369.95C83.5728 369.95 84.1281 369.731 84.5015 369.292C84.8748 368.844 85.0615 368.256 85.0615 367.528C85.0615 366.8 84.8748 366.24 84.5015 365.848C84.1281 365.447 83.5775 365.246 82.8495 365.246C82.3548 365.246 81.9208 365.367 81.5475 365.61C81.1835 365.843 80.9175 366.165 80.7495 366.576H79.5455V360.864H85.6355V361.984ZM87.9725 365.834C87.9725 364.229 88.2338 362.978 88.7565 362.082C89.2792 361.177 90.1938 360.724 91.5005 360.724C92.7978 360.724 93.7078 361.177 94.2305 362.082C94.7532 362.978 95.0145 364.229 95.0145 365.834C95.0145 367.467 94.7532 368.737 94.2305 369.642C93.7078 370.547 92.7978 371 91.5005 371C90.1938 371 89.2792 370.547 88.7565 369.642C88.2338 368.737 87.9725 367.467 87.9725 365.834ZM93.7545 365.834C93.7545 365.022 93.6985 364.336 93.5865 363.776C93.4838 363.207 93.2645 362.749 92.9285 362.404C92.6018 362.059 92.1258 361.886 91.5005 361.886C90.8658 361.886 90.3805 362.059 90.0445 362.404C89.7178 362.749 89.4985 363.207 89.3865 363.776C89.2838 364.336 89.2325 365.022 89.2325 365.834C89.2325 366.674 89.2838 367.379 89.3865 367.948C89.4985 368.517 89.7178 368.975 90.0445 369.32C90.3805 369.665 90.8658 369.838 91.5005 369.838C92.1258 369.838 92.6018 369.665 92.9285 369.32C93.2645 368.975 93.4838 368.517 93.5865 367.948C93.6985 367.379 93.7545 366.674 93.7545 365.834ZM96.7635 365.834C96.7635 364.229 97.0248 362.978 97.5475 362.082C98.0702 361.177 98.9848 360.724 100.292 360.724C101.589 360.724 102.499 361.177 103.022 362.082C103.544 362.978 103.806 364.229 103.806 365.834C103.806 367.467 103.544 368.737 103.022 369.642C102.499 370.547 101.589 371 100.292 371C98.9848 371 98.0702 370.547 97.5475 369.642C97.0248 368.737 96.7635 367.467 96.7635 365.834ZM102.546 365.834C102.546 365.022 102.49 364.336 102.378 363.776C102.275 363.207 102.056 362.749 101.72 362.404C101.393 362.059 100.917 361.886 100.292 361.886C99.6568 361.886 99.1715 362.059 98.8355 362.404C98.5088 362.749 98.2895 363.207 98.1775 363.776C98.0748 364.336 98.0235 365.022 98.0235 365.834C98.0235 366.674 98.0748 367.379 98.1775 367.948C98.2895 368.517 98.5088 368.975 98.8355 369.32C99.1715 369.665 99.6568 369.838 100.292 369.838C100.917 369.838 101.393 369.665 101.72 369.32C102.056 368.975 102.275 368.517 102.378 367.948C102.49 367.379 102.546 366.674 102.546 365.834Z" fill="#B3B6E1"/>
<path d="M86.4857 290.872L82.5937 300H81.3057L85.2537 290.998H79.8497V289.906H86.4857V290.872ZM94.3523 290.984H89.4383V294.176C89.6529 293.877 89.9703 293.635 90.3903 293.448C90.8103 293.252 91.2629 293.154 91.7483 293.154C92.5229 293.154 93.1529 293.317 93.6383 293.644C94.1236 293.961 94.4689 294.377 94.6743 294.89C94.8889 295.394 94.9963 295.931 94.9963 296.5C94.9963 297.172 94.8703 297.774 94.6183 298.306C94.3663 298.838 93.9789 299.258 93.4563 299.566C92.9429 299.874 92.3036 300.028 91.5383 300.028C90.5583 300.028 89.7649 299.776 89.1583 299.272C88.5516 298.768 88.1829 298.096 88.0523 297.256H89.2983C89.4196 297.788 89.6763 298.203 90.0683 298.502C90.4603 298.801 90.9549 298.95 91.5523 298.95C92.2896 298.95 92.8449 298.731 93.2183 298.292C93.5916 297.844 93.7783 297.256 93.7783 296.528C93.7783 295.8 93.5916 295.24 93.2183 294.848C92.8449 294.447 92.2943 294.246 91.5663 294.246C91.0716 294.246 90.6376 294.367 90.2643 294.61C89.9003 294.843 89.6343 295.165 89.4663 295.576H88.2623V289.864H94.3523V290.984ZM96.6893 294.834C96.6893 293.229 96.9506 291.978 97.4733 291.082C97.996 290.177 98.9106 289.724 100.217 289.724C101.515 289.724 102.425 290.177 102.947 291.082C103.47 291.978 103.731 293.229 103.731 294.834C103.731 296.467 103.47 297.737 102.947 298.642C102.425 299.547 101.515 300 100.217 300C98.9106 300 97.996 299.547 97.4733 298.642C96.9506 297.737 96.6893 296.467 96.6893 294.834ZM102.471 294.834C102.471 294.022 102.415 293.336 102.303 292.776C102.201 292.207 101.981 291.749 101.645 291.404C101.319 291.059 100.843 290.886 100.217 290.886C99.5826 290.886 99.0973 291.059 98.7613 291.404C98.4346 291.749 98.2153 292.207 98.1033 292.776C98.0006 293.336 97.9493 294.022 97.9493 294.834C97.9493 295.674 98.0006 296.379 98.1033 296.948C98.2153 297.517 98.4346 297.975 98.7613 298.32C99.0973 298.665 99.5826 298.838 100.217 298.838C100.843 298.838 101.319 298.665 101.645 298.32C101.981 297.975 102.201 297.517 102.303 296.948C102.415 296.379 102.471 295.674 102.471 294.834Z" fill="#B3B6E1"/>
<path d="M71.7156 219.04V217.878H74.3476V228H73.0596V219.04H71.7156ZM78.062 226.236L76.494 230.002H75.64L76.662 226.236H78.062ZM79.3114 222.834C79.3114 221.229 79.5727 219.978 80.0954 219.082C80.618 218.177 81.5327 217.724 82.8394 217.724C84.1367 217.724 85.0467 218.177 85.5694 219.082C86.092 219.978 86.3534 221.229 86.3534 222.834C86.3534 224.467 86.092 225.737 85.5694 226.642C85.0467 227.547 84.1367 228 82.8394 228C81.5327 228 80.618 227.547 80.0954 226.642C79.5727 225.737 79.3114 224.467 79.3114 222.834ZM85.0934 222.834C85.0934 222.022 85.0374 221.336 84.9254 220.776C84.8227 220.207 84.6034 219.749 84.2674 219.404C83.9407 219.059 83.4647 218.886 82.8394 218.886C82.2047 218.886 81.7194 219.059 81.3834 219.404C81.0567 219.749 80.8374 220.207 80.7254 220.776C80.6227 221.336 80.5714 222.022 80.5714 222.834C80.5714 223.674 80.6227 224.379 80.7254 224.948C80.8374 225.517 81.0567 225.975 81.3834 226.32C81.7194 226.665 82.2047 226.838 82.8394 226.838C83.4647 226.838 83.9407 226.665 84.2674 226.32C84.6034 225.975 84.8227 225.517 84.9254 224.948C85.0374 224.379 85.0934 223.674 85.0934 222.834ZM88.1024 222.834C88.1024 221.229 88.3637 219.978 88.8864 219.082C89.409 218.177 90.3237 217.724 91.6304 217.724C92.9277 217.724 93.8377 218.177 94.3604 219.082C94.883 219.978 95.1444 221.229 95.1444 222.834C95.1444 224.467 94.883 225.737 94.3604 226.642C93.8377 227.547 92.9277 228 91.6304 228C90.3237 228 89.409 227.547 88.8864 226.642C88.3637 225.737 88.1024 224.467 88.1024 222.834ZM93.8844 222.834C93.8844 222.022 93.8284 221.336 93.7164 220.776C93.6137 220.207 93.3944 219.749 93.0584 219.404C92.7317 219.059 92.2557 218.886 91.6304 218.886C90.9957 218.886 90.5104 219.059 90.1744 219.404C89.8477 219.749 89.6284 220.207 89.5164 220.776C89.4137 221.336 89.3624 222.022 89.3624 222.834C89.3624 223.674 89.4137 224.379 89.5164 224.948C89.6284 225.517 89.8477 225.975 90.1744 226.32C90.5104 226.665 90.9957 226.838 91.6304 226.838C92.2557 226.838 92.7317 226.665 93.0584 226.32C93.3944 225.975 93.6137 225.517 93.7164 224.948C93.8284 224.379 93.8844 223.674 93.8844 222.834ZM96.8934 222.834C96.8934 221.229 97.1547 219.978 97.6774 219.082C98.2001 218.177 99.1147 217.724 100.421 217.724C101.719 217.724 102.629 218.177 103.151 219.082C103.674 219.978 103.935 221.229 103.935 222.834C103.935 224.467 103.674 225.737 103.151 226.642C102.629 227.547 101.719 228 100.421 228C99.1147 228 98.2001 227.547 97.6774 226.642C97.1547 225.737 96.8934 224.467 96.8934 222.834ZM102.675 222.834C102.675 222.022 102.619 221.336 102.507 220.776C102.405 220.207 102.185 219.749 101.849 219.404C101.523 219.059 101.047 218.886 100.421 218.886C99.7867 218.886 99.3014 219.059 98.9654 219.404C98.6387 219.749 98.4194 220.207 98.3074 220.776C98.2047 221.336 98.1534 222.022 98.1534 222.834C98.1534 223.674 98.2047 224.379 98.3074 224.948C98.4194 225.517 98.6387 225.975 98.9654 226.32C99.3014 226.665 99.7867 226.838 100.421 226.838C101.047 226.838 101.523 226.665 101.849 226.32C102.185 225.975 102.405 225.517 102.507 224.948C102.619 224.379 102.675 223.674 102.675 222.834Z" fill="#B3B6E1"/>
<path d="M72.5847 148.04V146.878H75.2167V157H73.9287V148.04H72.5847ZM78.9311 155.236L77.3631 159.002H76.5091L77.5311 155.236H78.9311ZM80.0265 155.978C81.2118 155.026 82.1405 154.247 82.8125 153.64C83.4845 153.024 84.0492 152.385 84.5065 151.722C84.9732 151.05 85.2065 150.392 85.2065 149.748C85.2065 149.141 85.0572 148.665 84.7585 148.32C84.4692 147.965 83.9978 147.788 83.3445 147.788C82.7098 147.788 82.2152 147.989 81.8605 148.39C81.5152 148.782 81.3285 149.309 81.3005 149.972H80.0685C80.1058 148.927 80.4232 148.119 81.0205 147.55C81.6178 146.981 82.3878 146.696 83.3305 146.696C84.2918 146.696 85.0525 146.962 85.6125 147.494C86.1818 148.026 86.4665 148.759 86.4665 149.692C86.4665 150.467 86.2332 151.223 85.7665 151.96C85.3092 152.688 84.7865 153.332 84.1985 153.892C83.6105 154.443 82.8592 155.087 81.9445 155.824H86.7605V156.888H80.0265V155.978ZM94.6872 147.984H89.7732V151.176C89.9879 150.877 90.3052 150.635 90.7252 150.448C91.1452 150.252 91.5979 150.154 92.0832 150.154C92.8579 150.154 93.4879 150.317 93.9732 150.644C94.4586 150.961 94.8039 151.377 95.0092 151.89C95.2239 152.394 95.3312 152.931 95.3312 153.5C95.3312 154.172 95.2052 154.774 94.9532 155.306C94.7012 155.838 94.3139 156.258 93.7912 156.566C93.2779 156.874 92.6386 157.028 91.8732 157.028C90.8932 157.028 90.0999 156.776 89.4932 156.272C88.8866 155.768 88.5179 155.096 88.3872 154.256H89.6332C89.7546 154.788 90.0112 155.203 90.4032 155.502C90.7952 155.801 91.2899 155.95 91.8872 155.95C92.6246 155.95 93.1799 155.731 93.5532 155.292C93.9266 154.844 94.1132 154.256 94.1132 153.528C94.1132 152.8 93.9266 152.24 93.5532 151.848C93.1799 151.447 92.6292 151.246 91.9012 151.246C91.4066 151.246 90.9726 151.367 90.5992 151.61C90.2352 151.843 89.9692 152.165 89.8012 152.576H88.5972V146.864H94.6872V147.984ZM97.0243 151.834C97.0243 150.229 97.2856 148.978 97.8083 148.082C98.3309 147.177 99.2456 146.724 100.552 146.724C101.85 146.724 102.76 147.177 103.282 148.082C103.805 148.978 104.066 150.229 104.066 151.834C104.066 153.467 103.805 154.737 103.282 155.642C102.76 156.547 101.85 157 100.552 157C99.2456 157 98.3309 156.547 97.8083 155.642C97.2856 154.737 97.0243 153.467 97.0243 151.834ZM102.806 151.834C102.806 151.022 102.75 150.336 102.638 149.776C102.536 149.207 102.316 148.749 101.98 148.404C101.654 148.059 101.178 147.886 100.552 147.886C99.9176 147.886 99.4323 148.059 99.0963 148.404C98.7696 148.749 98.5503 149.207 98.4383 149.776C98.3356 150.336 98.2843 151.022 98.2843 151.834C98.2843 152.674 98.3356 153.379 98.4383 153.948C98.5503 154.517 98.7696 154.975 99.0963 155.32C99.4323 155.665 99.9176 155.838 100.552 155.838C101.178 155.838 101.654 155.665 101.98 155.32C102.316 154.975 102.536 154.517 102.638 153.948C102.75 153.379 102.806 152.674 102.806 151.834Z" fill="#B3B6E1"/>
<path d="M1042.06 167.6L774.887 222.349C774.554 222.412 774.244 222.567 773.991 222.797C773.862 222.919 773.732 223.036 773.603 223.149C773.337 223.367 773.018 223.504 772.646 223.56C769.364 224.069 766.142 224.19 762.883 224.844C741.105 229.197 719.27 233.424 697.378 237.526C691.795 238.58 686.441 240.179 680.93 241.402C676.545 242.379 672.447 243.365 668.635 244.358C607.814 260.306 546.988 276.234 486.159 292.142C481.895 293.256 477.631 294.367 473.368 295.473C430.699 306.52 387.723 317.7 344.441 329.013C341.55 329.764 338.954 330.822 336.653 332.186C289.72 360.029 242.251 388.038 194.245 416.212C194.075 416.317 194.035 416.454 194.123 416.623L194.269 416.914C194.317 417.003 194.39 417.027 194.487 416.987L338.554 351.773C339.281 351.441 340.04 351.227 340.831 351.131C455.28 336.765 568.371 322.811 680.106 309.269C687.85 308.325 695.448 307.642 702.902 307.222C749.14 304.574 795.474 301.869 841.906 299.107C847.543 298.776 852.699 298.501 857.374 298.283C864.569 297.96 871.744 297.451 878.898 296.757C886.109 296.054 893.268 295.465 900.374 294.989C947.581 291.807 994.808 288.403 1042.06 284.778L1042.01 319.105C987.015 323.054 932.02 327.047 877.021 331.084C868.905 331.674 860.854 332.207 852.868 332.683C802.803 335.655 752.725 338.57 702.635 341.428C694.657 341.889 686.602 342.623 678.471 343.633C545.466 360.227 446.171 372.501 380.585 380.455C370.225 381.715 359.501 383.047 348.414 384.452C341.881 385.284 335.248 386.572 328.513 388.316C283.761 399.896 238.976 411.415 194.16 422.874L174.126 428.264L167.863 429.015C171.772 426.011 175.837 423.419 180.061 421.238C181.845 420.318 183.468 419.349 184.93 418.331C186.012 417.572 187.163 416.87 188.382 416.224C189.521 415.618 190.651 414.984 191.774 414.322C240.676 385.421 289.599 356.634 338.542 327.959C339.651 327.308 340.85 326.811 342.103 326.481C452.037 298.138 562.323 269.584 672.959 240.821C681.785 238.528 688.956 236.812 694.471 235.673C745.482 225.167 797.949 214.775 851.875 204.495C854.628 203.97 857.269 203.445 859.797 202.921C888.261 197.074 917.638 190.933 947.928 184.497C977.838 178.142 1008.92 171.65 1041.18 165.02C1041.59 164.939 1041.84 165.101 1041.93 165.505C1042.18 166.498 1042.22 167.196 1042.06 167.6Z" fill="#4D6CB3"/>
<path d="M1042.06 167.602V284.779C994.808 288.405 947.581 291.808 900.374 294.99C893.268 295.466 886.11 296.056 878.899 296.758C871.744 297.453 864.57 297.962 857.375 298.285C852.699 298.503 847.543 298.777 841.907 299.108C795.475 301.87 749.14 304.575 702.902 307.224C695.449 307.644 687.85 308.326 680.106 309.271C568.372 322.813 455.28 336.766 340.832 351.132C340.041 351.229 339.282 351.443 338.555 351.774L194.487 416.988C194.39 417.029 194.318 417.004 194.269 416.916L194.124 416.625C194.035 416.455 194.075 416.318 194.245 416.213C242.251 388.039 289.721 360.031 336.653 332.188C338.954 330.823 341.551 329.765 344.442 329.014C387.724 317.701 430.7 306.521 473.368 295.474C477.632 294.368 481.896 293.258 486.159 292.144C546.989 276.236 607.814 260.308 668.636 244.359C672.447 243.366 676.545 242.381 680.93 241.404C686.441 240.18 691.795 238.582 697.379 237.528C719.271 233.426 741.106 229.198 762.884 224.846C766.142 224.192 769.364 224.071 772.647 223.562C773.018 223.505 773.337 223.368 773.604 223.15C773.733 223.037 773.862 222.92 773.991 222.799C774.245 222.569 774.555 222.414 774.888 222.351L1042.06 167.602Z" fill="#354368"/>
<path d="M1042.01 319.102L1042.04 322.42C1041.04 322.299 1040.67 321.924 1039.67 321.996C989.483 325.574 939.3 329.256 889.122 333.043C881.047 333.649 872.992 334.19 864.957 334.666C811.145 337.864 757.328 341.025 703.508 344.15C695.449 344.619 687.523 345.325 679.731 346.27C570.071 359.602 459.939 373.192 349.335 387.041C343.4 387.784 337.275 388.963 330.96 390.578C307.082 396.667 283.204 402.763 259.326 408.868C258.938 408.973 258.712 409.139 258.648 409.365L233.865 415.009C233.722 415.041 233.588 415.112 233.478 415.215C233.155 415.514 232.868 415.675 232.618 415.7C231.277 415.813 229.929 415.93 228.572 416.051C228.184 416.083 227.857 416.241 227.591 416.523L227.143 416.996C226.86 417.286 226.521 417.42 226.125 417.395C224.785 417.315 223.473 417.468 222.189 417.856C216.972 419.422 211.473 420.67 205.691 421.599C205.296 421.663 205.045 421.885 204.94 422.265C204.787 422.782 204.432 422.991 203.874 422.895C202.868 422.734 201.881 422.677 200.931 422.725C200.382 422.757 200.103 423.048 200.095 423.597C200.087 423.993 199.889 424.179 199.502 424.154C196.11 423.944 194.33 423.516 194.16 422.87C238.977 411.412 283.761 399.893 328.513 388.313C335.248 386.569 341.882 385.281 348.414 384.449C359.501 383.044 370.225 381.712 380.585 380.452C446.171 372.498 545.466 360.224 678.471 343.63C686.603 342.62 694.658 341.885 702.636 341.425C752.725 338.567 802.803 335.651 852.868 332.68C860.855 332.203 868.906 331.67 877.021 331.081C932.02 327.043 987.016 323.05 1042.01 319.102Z" fill="#436DD1"/>
<path d="M1042.04 322.418V336.068C992.931 339.928 956.101 342.722 931.553 344.45C913.497 345.718 897.835 346.877 884.568 347.927C875.645 348.637 867.586 349.199 860.391 349.61C809.3 352.574 758.169 355.469 706.997 358.295C699.237 358.723 691.182 359.313 682.832 360.064C625.838 365.215 568.849 370.424 511.863 375.689C456.129 380.841 402.74 385.674 351.698 390.188C345.052 390.777 338.527 391.762 332.124 393.143C307.801 398.392 283.718 403.754 259.872 409.229C259.484 409.318 259.076 409.362 258.648 409.362C258.713 409.136 258.939 408.97 259.327 408.865C283.205 402.761 307.083 396.664 330.961 390.575C337.275 388.96 343.4 387.781 349.336 387.038C459.94 373.19 570.072 359.599 679.732 346.267C687.524 345.323 695.45 344.616 703.509 344.148C757.329 341.023 811.145 337.861 864.958 334.663C872.992 334.187 881.047 333.646 889.122 333.04C939.301 329.253 989.483 325.571 1039.67 321.994C1040.68 321.921 1041.04 322.296 1042.04 322.418Z" fill="#4C81EA"/>
<path d="M1042.04 336.07V338.493C1039.41 338.767 1036.8 339.01 1034.21 339.22C1020.58 340.294 1006.96 341.303 993.326 342.248C983.563 342.926 973.061 343.701 961.821 344.573C936.586 346.552 912.159 348.344 888.539 349.951C880.077 350.525 872.01 351.042 864.338 351.502C815.936 354.393 765.362 357.384 712.616 360.477C709.111 360.679 706.285 360.833 704.137 360.938C700.398 361.115 697.576 361.285 695.67 361.446C695.63 361.446 678.361 363.001 643.864 366.11C621.06 368.169 598.256 370.252 575.452 372.36C574.354 372.457 514.296 377.915 395.277 388.736C390.045 389.212 384.78 389.608 379.482 389.923C376.6 390.101 373.806 390.367 371.1 390.722C368.218 391.102 365.44 391.445 362.767 391.752C360.062 392.067 357.102 392.321 353.888 392.515C350.828 392.709 347.816 392.971 344.852 393.302C343.956 393.407 343.096 393.529 342.272 393.666C335.029 394.934 326.901 396.686 317.89 398.923C314.595 399.746 311.171 400.465 307.618 401.079C305.753 401.394 304.433 402.29 302.507 402.399C301.198 402.48 299.919 402.726 298.667 403.138C297.73 403.453 296.717 403.643 295.627 403.707C294.674 403.764 293.705 403.974 292.72 404.337C290.039 405.322 287.443 405.948 284.931 406.215C283.865 406.328 282.832 406.586 281.83 406.99C280.789 407.402 279.666 407.64 278.463 407.704C278.1 407.729 277.938 407.918 277.979 408.274C277.995 408.419 278.039 408.568 278.112 408.722L264.061 411.52C263.948 411.544 263.896 411.58 263.904 411.629L263.964 411.956C264.005 412.19 264.142 412.279 264.376 412.222C266.072 411.786 267.501 412.198 269.185 411.544C270.792 410.922 272.423 410.656 274.078 410.745C274.45 410.769 274.801 410.7 275.132 410.539C275.923 410.151 276.751 409.905 277.615 409.8C280.587 409.412 283.672 408.92 286.869 408.322C300.225 405.811 313.477 403.312 326.623 400.824C334.302 399.371 341.97 398.406 349.625 397.929C361.947 397.17 374.028 396.601 385.866 396.222C392.786 395.995 399.646 395.689 406.445 395.301C412.978 394.93 419.85 394.578 427.061 394.247C471.353 392.228 513.827 390.137 554.485 387.973C556.375 387.876 558.24 387.767 560.082 387.646C565.007 387.323 569.921 387.27 574.823 387.488C578.226 387.634 581.291 386.204 584.719 386.18C597.259 386.108 609.933 385.732 622.74 385.054C624.121 384.981 625.453 384.787 626.737 384.472C629.281 383.842 631.752 384.254 634.32 384.012C635.507 383.907 636.645 383.859 637.735 383.867C647.442 383.98 657.172 383.717 666.927 383.079C675.357 382.53 683.42 382.122 691.116 381.856C703.818 381.412 716.536 380.843 729.271 380.148C733.954 379.89 738.533 379.676 743.006 379.506C747.472 379.329 752.002 379.05 756.597 378.67C760.674 378.331 764.829 378.073 769.06 377.895C772.331 377.766 775.658 377.516 779.041 377.144C788.949 376.054 799.1 376.696 808.911 376.272C829.002 375.408 849.089 374.427 869.171 373.329C887.348 372.327 905.917 371.286 924.877 370.204C925.677 370.155 927.599 370.046 930.643 369.877C966.068 367.826 1001.5 365.783 1036.93 363.748C1038.63 363.651 1040.35 363.695 1042.07 363.881L1042.05 404.301C1038.74 404.39 1035.45 404.365 1032.17 404.228C1028.85 404.091 1025.56 404.022 1022.29 404.022C841.748 403.853 663.378 403.635 484.886 404.385C476.965 404.418 468.898 404.394 460.685 404.313C428.232 403.982 395.62 403.885 362.852 404.022C357.603 404.046 352.556 404.119 347.711 404.24C342.89 404.369 337.871 404.809 332.655 405.56C269.887 414.621 227.974 420.834 206.914 424.202C192.742 426.463 181.812 427.815 174.125 428.259L194.159 422.869C194.329 423.515 196.109 423.943 199.501 424.153C199.889 424.178 200.086 423.992 200.094 423.596C200.103 423.047 200.381 422.756 200.93 422.724C201.88 422.676 202.867 422.733 203.874 422.894C204.431 422.99 204.786 422.781 204.94 422.264C205.044 421.884 205.295 421.662 205.69 421.598C211.472 420.669 216.971 419.421 222.188 417.855C223.472 417.467 224.784 417.314 226.124 417.394C226.52 417.419 226.859 417.285 227.142 416.995L227.59 416.522C227.857 416.24 228.184 416.082 228.571 416.05C229.928 415.929 231.276 415.812 232.617 415.699C232.867 415.674 233.154 415.513 233.477 415.214C233.587 415.111 233.721 415.04 233.864 415.008L258.647 409.364C259.075 409.364 259.483 409.319 259.87 409.231C283.716 403.756 307.8 398.394 332.122 393.145C338.526 391.764 345.05 390.779 351.696 390.189C402.739 385.676 456.127 380.843 511.861 375.691C568.847 370.426 625.837 365.217 682.831 360.065C691.18 359.314 699.235 358.725 706.995 358.297C758.167 355.471 809.299 352.576 860.39 349.612C867.585 349.2 875.643 348.639 884.566 347.929C897.834 346.879 913.495 345.72 931.551 344.452C956.1 342.724 992.93 339.93 1042.04 336.07Z" fill="#1B64CF"/>
<path d="M1042.04 338.492V353.245C1003.76 356.096 965.523 358.942 927.336 361.785C925.713 361.906 924.09 362.023 922.467 362.136C902.982 363.485 886.222 364.603 872.187 365.491C789.563 370.692 706.301 375.634 622.401 380.317C620.875 380.406 619.159 380.567 617.253 380.802C615.549 381.012 613.829 381.165 612.093 381.262C525.504 386.18 438.079 391.17 349.819 396.233C343.407 396.604 337.084 397.376 330.85 398.547C313.255 401.857 295.675 405.249 278.112 408.721C278.039 408.568 277.995 408.418 277.979 408.273C277.938 407.918 278.1 407.728 278.463 407.704C279.666 407.639 280.789 407.401 281.831 406.989C282.832 406.585 283.865 406.327 284.931 406.214C287.443 405.947 290.039 405.322 292.72 404.336C293.705 403.973 294.674 403.763 295.627 403.707C296.717 403.642 297.73 403.452 298.667 403.137C299.919 402.725 301.199 402.479 302.507 402.398C304.433 402.289 305.753 401.393 307.618 401.078C311.171 400.464 314.595 399.746 317.89 398.922C326.902 396.685 335.029 394.933 342.272 393.665C343.096 393.528 343.956 393.407 344.852 393.302C347.816 392.971 350.828 392.708 353.888 392.514C357.102 392.321 360.062 392.066 362.767 391.751C365.44 391.445 368.218 391.101 371.101 390.722C373.806 390.367 376.6 390.1 379.482 389.922C384.78 389.607 390.045 389.212 395.277 388.735C514.296 377.915 574.354 372.456 575.453 372.359C598.257 370.251 621.061 368.168 643.865 366.109C678.361 363 695.63 361.446 695.67 361.446C697.576 361.284 700.398 361.115 704.137 360.937C706.285 360.832 709.111 360.678 712.616 360.477C765.362 357.384 815.936 354.392 864.338 351.501C872.01 351.041 880.077 350.524 888.539 349.951C912.159 348.344 936.586 346.551 961.821 344.573C973.061 343.701 983.563 342.925 993.326 342.247C1006.96 341.302 1020.58 340.293 1034.21 339.219C1036.8 339.009 1039.41 338.767 1042.04 338.492Z" fill="#436DD1"/>
<path d="M1042.04 353.258L1042.07 363.893C1040.35 363.707 1038.63 363.663 1036.93 363.759C1001.5 365.794 966.068 367.837 930.642 369.888C927.598 370.058 925.676 370.167 924.877 370.215C905.916 371.298 887.348 372.339 869.171 373.341C849.088 374.439 829.001 375.42 808.91 376.284C799.099 376.708 788.949 376.066 779.041 377.156C775.657 377.527 772.33 377.778 769.06 377.907C764.829 378.085 760.674 378.343 756.596 378.682C752.001 379.062 747.471 379.34 743.006 379.518C738.532 379.688 733.953 379.902 729.27 380.16C716.536 380.854 703.817 381.424 691.115 381.868C683.42 382.134 675.357 382.542 666.926 383.091C657.172 383.729 647.441 383.992 637.735 383.879C636.645 383.87 635.506 383.919 634.319 384.024C631.751 384.266 629.28 383.854 626.737 384.484C625.453 384.799 624.12 384.993 622.739 385.066C609.932 385.744 597.259 386.119 584.718 386.192C581.29 386.216 578.226 387.646 574.822 387.5C569.92 387.282 565.007 387.335 560.081 387.658C558.24 387.779 556.374 387.888 554.485 387.985C513.827 390.149 471.352 392.24 427.06 394.259C419.849 394.59 412.977 394.941 406.444 395.313C399.645 395.7 392.785 396.007 385.865 396.233C374.027 396.613 361.947 397.182 349.624 397.941C341.969 398.418 334.302 399.383 326.622 400.836C313.476 403.323 300.225 405.823 286.869 408.334C283.671 408.931 280.586 409.424 277.615 409.812C276.751 409.917 275.923 410.163 275.132 410.55C274.8 410.712 274.449 410.781 274.078 410.756C272.422 410.668 270.791 410.934 269.184 411.556C267.501 412.21 266.071 411.798 264.376 412.234C264.141 412.291 264.004 412.202 263.964 411.968L263.903 411.641C263.895 411.592 263.948 411.556 264.061 411.532L278.111 408.734C295.675 405.261 313.254 401.87 330.85 398.559C337.084 397.388 343.406 396.617 349.818 396.245C438.079 391.182 525.503 386.192 612.092 381.274C613.829 381.177 615.549 381.024 617.252 380.814C619.158 380.58 620.874 380.418 622.4 380.33C706.3 375.646 789.562 370.704 872.187 365.504C886.221 364.615 902.981 363.497 922.466 362.148C924.089 362.035 925.712 361.918 927.336 361.797C965.523 358.955 1003.76 356.108 1042.04 353.258Z" fill="#204AEC"/>
<path d="M1042.06 404.304V438.752H164.121L164 431.291C164 430.879 164.174 430.56 164.521 430.334C165.627 429.639 166.741 429.199 167.864 429.013L174.126 428.262C181.814 427.818 192.743 426.466 206.915 424.205C227.975 420.837 269.888 414.624 332.656 405.563C337.873 404.812 342.891 404.372 347.712 404.243C352.557 404.122 357.604 404.049 362.853 404.025C395.622 403.888 428.233 403.985 460.686 404.316C468.899 404.397 476.966 404.421 484.887 404.389C663.379 403.638 841.749 403.856 1022.29 404.025C1025.56 404.025 1028.85 404.094 1032.17 404.231C1035.45 404.368 1038.74 404.393 1042.06 404.304Z" fill="#204AEC"/>
<path d="M164.121 438.75H1042.06V508.192C1042.06 508.407 1041.97 508.613 1041.82 508.765C1041.67 508.918 1041.46 509.003 1041.24 509.003H164.557C164.454 509.003 164.356 508.964 164.283 508.893C164.21 508.823 164.17 508.727 164.17 508.628L164.121 438.75Z" fill="#0B1AC3"/>
<path d="M95.0922 72.114C95.0922 71.162 95.3069 70.308 95.7362 69.552C96.1656 68.7867 96.7489 68.1893 97.4862 67.76C98.2329 67.3307 99.0589 67.116 99.9642 67.116C101.028 67.116 101.957 67.3727 102.75 67.886C103.544 68.3993 104.122 69.1273 104.486 70.07H102.96C102.69 69.482 102.298 69.0293 101.784 68.712C101.28 68.3947 100.674 68.236 99.9642 68.236C99.2829 68.236 98.6716 68.3947 98.1302 68.712C97.5889 69.0293 97.1642 69.482 96.8562 70.07C96.5482 70.6487 96.3942 71.33 96.3942 72.114C96.3942 72.8887 96.5482 73.57 96.8562 74.158C97.1642 74.7367 97.5889 75.1847 98.1302 75.502C98.6716 75.8193 99.2829 75.978 99.9642 75.978C100.674 75.978 101.28 75.824 101.784 75.516C102.298 75.1987 102.69 74.746 102.96 74.158H104.486C104.122 75.0913 103.544 75.8147 102.75 76.328C101.957 76.832 101.028 77.084 99.9642 77.084C99.0589 77.084 98.2329 76.874 97.4862 76.454C96.7489 76.0247 96.1656 75.432 95.7362 74.676C95.3069 73.92 95.0922 73.066 95.0922 72.114ZM107.657 70.574C107.881 70.1353 108.198 69.7947 108.609 69.552C109.029 69.3093 109.537 69.188 110.135 69.188V70.504H109.799C108.371 70.504 107.657 71.2787 107.657 72.828V77H106.383V69.328H107.657V70.574ZM114.951 77.126C114.233 77.126 113.579 76.9627 112.991 76.636C112.413 76.3093 111.955 75.8473 111.619 75.25C111.293 74.6433 111.129 73.9433 111.129 73.15C111.129 72.366 111.297 71.6753 111.633 71.078C111.979 70.4713 112.445 70.0093 113.033 69.692C113.621 69.3653 114.279 69.202 115.007 69.202C115.735 69.202 116.393 69.3653 116.981 69.692C117.569 70.0093 118.031 70.4667 118.367 71.064C118.713 71.6613 118.885 72.3567 118.885 73.15C118.885 73.9433 118.708 74.6433 118.353 75.25C118.008 75.8473 117.537 76.3093 116.939 76.636C116.342 76.9627 115.679 77.126 114.951 77.126ZM114.951 76.006C115.409 76.006 115.838 75.8987 116.239 75.684C116.641 75.4693 116.963 75.1473 117.205 74.718C117.457 74.2887 117.583 73.766 117.583 73.15C117.583 72.534 117.462 72.0113 117.219 71.582C116.977 71.1527 116.659 70.8353 116.267 70.63C115.875 70.4153 115.451 70.308 114.993 70.308C114.527 70.308 114.097 70.4153 113.705 70.63C113.323 70.8353 113.015 71.1527 112.781 71.582C112.548 72.0113 112.431 72.534 112.431 73.15C112.431 73.7753 112.543 74.3027 112.767 74.732C113.001 75.1613 113.309 75.4833 113.691 75.698C114.074 75.9033 114.494 76.006 114.951 76.006ZM130.78 69.328L128.386 77H127.07L125.222 70.91L123.374 77H122.058L119.65 69.328H120.952L122.716 75.768L124.62 69.328H125.922L127.784 75.782L129.52 69.328H130.78ZM131.569 73.136C131.569 72.352 131.727 71.666 132.045 71.078C132.362 70.4807 132.796 70.0187 133.347 69.692C133.907 69.3653 134.532 69.202 135.223 69.202C135.82 69.202 136.375 69.342 136.889 69.622C137.402 69.8927 137.794 70.252 138.065 70.7V66.64H139.353V77H138.065V75.558C137.813 76.0153 137.439 76.3933 136.945 76.692C136.45 76.9813 135.871 77.126 135.209 77.126C134.527 77.126 133.907 76.958 133.347 76.622C132.796 76.286 132.362 75.8147 132.045 75.208C131.727 74.6013 131.569 73.9107 131.569 73.136ZM138.065 73.15C138.065 72.5713 137.948 72.0673 137.715 71.638C137.481 71.2087 137.164 70.882 136.763 70.658C136.371 70.4247 135.937 70.308 135.461 70.308C134.985 70.308 134.551 70.42 134.159 70.644C133.767 70.868 133.454 71.1947 133.221 71.624C132.987 72.0533 132.871 72.5573 132.871 73.136C132.871 73.724 132.987 74.2373 133.221 74.676C133.454 75.1053 133.767 75.4367 134.159 75.67C134.551 75.894 134.985 76.006 135.461 76.006C135.937 76.006 136.371 75.894 136.763 75.67C137.164 75.4367 137.481 75.1053 137.715 74.676C137.948 74.2373 138.065 73.7287 138.065 73.15ZM146.512 67.242V77H145.238V67.242H146.512ZM151.721 67.242C152.785 67.242 153.705 67.4427 154.479 67.844C155.263 68.236 155.861 68.8007 156.271 69.538C156.691 70.2753 156.901 71.1433 156.901 72.142C156.901 73.1407 156.691 74.0087 156.271 74.746C155.861 75.474 155.263 76.034 154.479 76.426C153.705 76.8087 152.785 77 151.721 77H148.683V67.242H151.721ZM151.721 75.95C152.981 75.95 153.943 75.6187 154.605 74.956C155.268 74.284 155.599 73.346 155.599 72.142C155.599 70.9287 155.263 69.9813 154.591 69.3C153.929 68.6187 152.972 68.278 151.721 68.278H149.957V75.95H151.721ZM163.006 77.098C162.101 77.098 161.275 76.888 160.528 76.468C159.781 76.0387 159.189 75.446 158.75 74.69C158.321 73.9247 158.106 73.066 158.106 72.114C158.106 71.162 158.321 70.308 158.75 69.552C159.189 68.7867 159.781 68.194 160.528 67.774C161.275 67.3447 162.101 67.13 163.006 67.13C163.921 67.13 164.751 67.3447 165.498 67.774C166.245 68.194 166.833 68.782 167.262 69.538C167.691 70.294 167.906 71.1527 167.906 72.114C167.906 73.0753 167.691 73.934 167.262 74.69C166.833 75.446 166.245 76.0387 165.498 76.468C164.751 76.888 163.921 77.098 163.006 77.098ZM163.006 75.992C163.687 75.992 164.299 75.8333 164.84 75.516C165.391 75.1987 165.82 74.746 166.128 74.158C166.445 73.57 166.604 72.8887 166.604 72.114C166.604 71.33 166.445 70.6487 166.128 70.07C165.82 69.482 165.395 69.0293 164.854 68.712C164.313 68.3947 163.697 68.236 163.006 68.236C162.315 68.236 161.699 68.3947 161.158 68.712C160.617 69.0293 160.187 69.482 159.87 70.07C159.562 70.6487 159.408 71.33 159.408 72.114C159.408 72.8887 159.562 73.57 159.87 74.158C160.187 74.746 160.617 75.1987 161.158 75.516C161.709 75.8333 162.325 75.992 163.006 75.992Z" fill="#B3B6E1"/>
<circle cx="78" cy="73" r="7" fill="#0B1AC3"/>
<path d="M237.73 75.964H241.146V77H236.456V67.242H237.73V75.964ZM243.157 68.082C242.914 68.082 242.709 67.998 242.541 67.83C242.373 67.662 242.289 67.4567 242.289 67.214C242.289 66.9713 242.373 66.766 242.541 66.598C242.709 66.43 242.914 66.346 243.157 66.346C243.39 66.346 243.586 66.43 243.745 66.598C243.913 66.766 243.997 66.9713 243.997 67.214C243.997 67.4567 243.913 67.662 243.745 67.83C243.586 67.998 243.39 68.082 243.157 68.082ZM243.773 69.328V77H242.499V69.328H243.773ZM245.468 73.136C245.468 72.352 245.627 71.666 245.944 71.078C246.262 70.4807 246.696 70.0187 247.246 69.692C247.806 69.3653 248.432 69.202 249.122 69.202C249.785 69.202 250.364 69.3513 250.858 69.65C251.362 69.9393 251.731 70.2987 251.964 70.728V69.328H253.252V80.64H251.964V75.586C251.722 76.0153 251.348 76.3793 250.844 76.678C250.34 76.9767 249.752 77.126 249.08 77.126C248.408 77.126 247.797 76.958 247.246 76.622C246.696 76.286 246.262 75.8147 245.944 75.208C245.627 74.6013 245.468 73.9107 245.468 73.136ZM251.964 73.15C251.964 72.5713 251.848 72.0673 251.614 71.638C251.381 71.2087 251.064 70.882 250.662 70.658C250.27 70.4247 249.836 70.308 249.36 70.308C248.884 70.308 248.45 70.42 248.058 70.644C247.666 70.868 247.354 71.1947 247.12 71.624C246.887 72.0533 246.77 72.5573 246.77 73.136C246.77 73.724 246.887 74.2373 247.12 74.676C247.354 75.1053 247.666 75.4367 248.058 75.67C248.45 75.894 248.884 76.006 249.36 76.006C249.836 76.006 250.27 75.894 250.662 75.67C251.064 75.4367 251.381 75.1053 251.614 74.676C251.848 74.2373 251.964 73.7287 251.964 73.15ZM262.209 69.328V77H260.935V75.866C260.692 76.258 260.352 76.566 259.913 76.79C259.484 77.0047 259.008 77.112 258.485 77.112C257.888 77.112 257.351 76.9907 256.875 76.748C256.399 76.496 256.021 76.1227 255.741 75.628C255.47 75.1333 255.335 74.5313 255.335 73.822V69.328H256.595V73.654C256.595 74.41 256.786 74.9933 257.169 75.404C257.552 75.8053 258.074 76.006 258.737 76.006C259.418 76.006 259.955 75.796 260.347 75.376C260.739 74.956 260.935 74.3447 260.935 73.542V69.328H262.209ZM265.018 68.082C264.776 68.082 264.57 67.998 264.402 67.83C264.234 67.662 264.15 67.4567 264.15 67.214C264.15 66.9713 264.234 66.766 264.402 66.598C264.57 66.43 264.776 66.346 265.018 66.346C265.252 66.346 265.448 66.43 265.606 66.598C265.774 66.766 265.858 66.9713 265.858 67.214C265.858 67.4567 265.774 67.662 265.606 67.83C265.448 67.998 265.252 68.082 265.018 68.082ZM265.634 69.328V77H264.36V69.328H265.634ZM267.33 73.136C267.33 72.352 267.488 71.666 267.806 71.078C268.123 70.4807 268.557 70.0187 269.108 69.692C269.668 69.3653 270.293 69.202 270.984 69.202C271.581 69.202 272.136 69.342 272.65 69.622C273.163 69.8927 273.555 70.252 273.826 70.7V66.64H275.114V77H273.826V75.558C273.574 76.0153 273.2 76.3933 272.706 76.692C272.211 76.9813 271.632 77.126 270.97 77.126C270.288 77.126 269.668 76.958 269.108 76.622C268.557 76.286 268.123 75.8147 267.806 75.208C267.488 74.6013 267.33 73.9107 267.33 73.136ZM273.826 73.15C273.826 72.5713 273.709 72.0673 273.476 71.638C273.242 71.2087 272.925 70.882 272.524 70.658C272.132 70.4247 271.698 70.308 271.222 70.308C270.746 70.308 270.312 70.42 269.92 70.644C269.528 70.868 269.215 71.1947 268.982 71.624C268.748 72.0533 268.632 72.5573 268.632 73.136C268.632 73.724 268.748 74.2373 268.982 74.676C269.215 75.1053 269.528 75.4367 269.92 75.67C270.312 75.894 270.746 76.006 271.222 76.006C271.698 76.006 272.132 75.894 272.524 75.67C272.925 75.4367 273.242 75.1053 273.476 74.676C273.709 74.2373 273.826 73.7287 273.826 73.15ZM277.924 68.082C277.682 68.082 277.476 67.998 277.308 67.83C277.14 67.662 277.056 67.4567 277.056 67.214C277.056 66.9713 277.14 66.766 277.308 66.598C277.476 66.43 277.682 66.346 277.924 66.346C278.158 66.346 278.354 66.43 278.512 66.598C278.68 66.766 278.764 66.9713 278.764 67.214C278.764 67.4567 278.68 67.662 278.512 67.83C278.354 67.998 278.158 68.082 277.924 68.082ZM278.54 69.328V77H277.266V69.328H278.54ZM282.266 70.378V74.9C282.266 75.2733 282.345 75.5393 282.504 75.698C282.662 75.8473 282.938 75.922 283.33 75.922H284.268V77H283.12C282.41 77 281.878 76.8367 281.524 76.51C281.169 76.1833 280.992 75.6467 280.992 74.9V70.378H279.998V69.328H280.992V67.396H282.266V69.328H284.268V70.378H282.266ZM292.419 69.328L287.799 80.612H286.483L287.995 76.916L284.901 69.328H286.315L288.723 75.544L291.103 69.328H292.419Z" fill="#B3B6E1"/>
<circle cx="218" cy="73" r="7" fill="#204AEC"/>
<path d="M357.623 72.114C357.623 71.162 357.837 70.308 358.267 69.552C358.696 68.7867 359.279 68.1893 360.017 67.76C360.763 67.3307 361.589 67.116 362.495 67.116C363.559 67.116 364.487 67.3727 365.281 67.886C366.074 68.3993 366.653 69.1273 367.017 70.07H365.491C365.22 69.482 364.828 69.0293 364.315 68.712C363.811 68.3947 363.204 68.236 362.495 68.236C361.813 68.236 361.202 68.3947 360.661 68.712C360.119 69.0293 359.695 69.482 359.387 70.07C359.079 70.6487 358.925 71.33 358.925 72.114C358.925 72.8887 359.079 73.57 359.387 74.158C359.695 74.7367 360.119 75.1847 360.661 75.502C361.202 75.8193 361.813 75.978 362.495 75.978C363.204 75.978 363.811 75.824 364.315 75.516C364.828 75.1987 365.22 74.746 365.491 74.158H367.017C366.653 75.0913 366.074 75.8147 365.281 76.328C364.487 76.832 363.559 77.084 362.495 77.084C361.589 77.084 360.763 76.874 360.017 76.454C359.279 76.0247 358.696 75.432 358.267 74.676C357.837 73.92 357.623 73.066 357.623 72.114ZM372.259 77.126C371.54 77.126 370.887 76.9627 370.299 76.636C369.72 76.3093 369.263 75.8473 368.927 75.25C368.6 74.6433 368.437 73.9433 368.437 73.15C368.437 72.366 368.605 71.6753 368.941 71.078C369.286 70.4713 369.753 70.0093 370.341 69.692C370.929 69.3653 371.587 69.202 372.315 69.202C373.043 69.202 373.701 69.3653 374.289 69.692C374.877 70.0093 375.339 70.4667 375.675 71.064C376.02 71.6613 376.193 72.3567 376.193 73.15C376.193 73.9433 376.016 74.6433 375.661 75.25C375.316 75.8473 374.844 76.3093 374.247 76.636C373.65 76.9627 372.987 77.126 372.259 77.126ZM372.259 76.006C372.716 76.006 373.146 75.8987 373.547 75.684C373.948 75.4693 374.27 75.1473 374.513 74.718C374.765 74.2887 374.891 73.766 374.891 73.15C374.891 72.534 374.77 72.0113 374.527 71.582C374.284 71.1527 373.967 70.8353 373.575 70.63C373.183 70.4153 372.758 70.308 372.301 70.308C371.834 70.308 371.405 70.4153 371.013 70.63C370.63 70.8353 370.322 71.1527 370.089 71.582C369.856 72.0113 369.739 72.534 369.739 73.15C369.739 73.7753 369.851 74.3027 370.075 74.732C370.308 75.1613 370.616 75.4833 370.999 75.698C371.382 75.9033 371.802 76.006 372.259 76.006ZM387.094 69.188C387.691 69.188 388.223 69.314 388.69 69.566C389.157 69.8087 389.525 70.1773 389.796 70.672C390.067 71.1667 390.202 71.7687 390.202 72.478V77H388.942V72.66C388.942 71.8947 388.751 71.3113 388.368 70.91C387.995 70.4993 387.486 70.294 386.842 70.294C386.179 70.294 385.652 70.5087 385.26 70.938C384.868 71.358 384.672 71.9693 384.672 72.772V77H383.412V72.66C383.412 71.8947 383.221 71.3113 382.838 70.91C382.465 70.4993 381.956 70.294 381.312 70.294C380.649 70.294 380.122 70.5087 379.73 70.938C379.338 71.358 379.142 71.9693 379.142 72.772V77H377.868V69.328H379.142V70.434C379.394 70.0327 379.73 69.7247 380.15 69.51C380.579 69.2953 381.051 69.188 381.564 69.188C382.208 69.188 382.777 69.3327 383.272 69.622C383.767 69.9113 384.135 70.336 384.378 70.896C384.593 70.3547 384.947 69.9347 385.442 69.636C385.937 69.3373 386.487 69.188 387.094 69.188ZM393.566 70.742C393.818 70.3033 394.191 69.9393 394.686 69.65C395.19 69.3513 395.773 69.202 396.436 69.202C397.117 69.202 397.733 69.3653 398.284 69.692C398.844 70.0187 399.283 70.4807 399.6 71.078C399.917 71.666 400.076 72.352 400.076 73.136C400.076 73.9107 399.917 74.6013 399.6 75.208C399.283 75.8147 398.844 76.286 398.284 76.622C397.733 76.958 397.117 77.126 396.436 77.126C395.783 77.126 395.204 76.9813 394.7 76.692C394.205 76.3933 393.827 76.0247 393.566 75.586V80.64H392.292V69.328H393.566V70.742ZM398.774 73.136C398.774 72.5573 398.657 72.0533 398.424 71.624C398.191 71.1947 397.873 70.868 397.472 70.644C397.08 70.42 396.646 70.308 396.17 70.308C395.703 70.308 395.269 70.4247 394.868 70.658C394.476 70.882 394.159 71.2133 393.916 71.652C393.683 72.0813 393.566 72.5807 393.566 73.15C393.566 73.7287 393.683 74.2373 393.916 74.676C394.159 75.1053 394.476 75.4367 394.868 75.67C395.269 75.894 395.703 76.006 396.17 76.006C396.646 76.006 397.08 75.894 397.472 75.67C397.873 75.4367 398.191 75.1053 398.424 74.676C398.657 74.2373 398.774 73.724 398.774 73.136ZM401.277 73.136C401.277 72.352 401.435 71.666 401.753 71.078C402.07 70.4807 402.504 70.0187 403.055 69.692C403.615 69.3653 404.235 69.202 404.917 69.202C405.589 69.202 406.172 69.3467 406.667 69.636C407.161 69.9253 407.53 70.2893 407.773 70.728V69.328H409.061V77H407.773V75.572C407.521 76.02 407.143 76.3933 406.639 76.692C406.144 76.9813 405.565 77.126 404.903 77.126C404.221 77.126 403.605 76.958 403.055 76.622C402.504 76.286 402.07 75.8147 401.753 75.208C401.435 74.6013 401.277 73.9107 401.277 73.136ZM407.773 73.15C407.773 72.5713 407.656 72.0673 407.423 71.638C407.189 71.2087 406.872 70.882 406.471 70.658C406.079 70.4247 405.645 70.308 405.169 70.308C404.693 70.308 404.259 70.42 403.867 70.644C403.475 70.868 403.162 71.1947 402.929 71.624C402.695 72.0533 402.579 72.5573 402.579 73.136C402.579 73.724 402.695 74.2373 402.929 74.676C403.162 75.1053 403.475 75.4367 403.867 75.67C404.259 75.894 404.693 76.006 405.169 76.006C405.645 76.006 406.079 75.894 406.471 75.67C406.872 75.4367 407.189 75.1053 407.423 74.676C407.656 74.2373 407.773 73.7287 407.773 73.15ZM414.952 69.188C415.885 69.188 416.641 69.4727 417.22 70.042C417.798 70.602 418.088 71.414 418.088 72.478V77H416.828V72.66C416.828 71.8947 416.636 71.3113 416.254 70.91C415.871 70.4993 415.348 70.294 414.686 70.294C414.014 70.294 413.477 70.504 413.076 70.924C412.684 71.344 412.488 71.9553 412.488 72.758V77H411.214V69.328H412.488V70.42C412.74 70.028 413.08 69.7247 413.51 69.51C413.948 69.2953 414.429 69.188 414.952 69.188ZM426.777 69.328L422.157 80.612H420.841L422.353 76.916L419.259 69.328H420.673L423.081 75.544L425.461 69.328H426.777Z" fill="#B3B6E1"/>
<circle cx="342" cy="73" r="7" fill="#1B64CF"/>
<path d="M497.946 67.242V68.278H493.704V71.568H497.148V72.604H493.704V77H492.43V67.242H497.946ZM502.83 77.126C502.112 77.126 501.458 76.9627 500.87 76.636C500.292 76.3093 499.834 75.8473 499.498 75.25C499.172 74.6433 499.008 73.9433 499.008 73.15C499.008 72.366 499.176 71.6753 499.512 71.078C499.858 70.4713 500.324 70.0093 500.912 69.692C501.5 69.3653 502.158 69.202 502.886 69.202C503.614 69.202 504.272 69.3653 504.86 69.692C505.448 70.0093 505.91 70.4667 506.246 71.064C506.592 71.6613 506.764 72.3567 506.764 73.15C506.764 73.9433 506.587 74.6433 506.232 75.25C505.887 75.8473 505.416 76.3093 504.818 76.636C504.221 76.9627 503.558 77.126 502.83 77.126ZM502.83 76.006C503.288 76.006 503.717 75.8987 504.118 75.684C504.52 75.4693 504.842 75.1473 505.084 74.718C505.336 74.2887 505.462 73.766 505.462 73.15C505.462 72.534 505.341 72.0113 505.098 71.582C504.856 71.1527 504.538 70.8353 504.146 70.63C503.754 70.4153 503.33 70.308 502.872 70.308C502.406 70.308 501.976 70.4153 501.584 70.63C501.202 70.8353 500.894 71.1527 500.66 71.582C500.427 72.0113 500.31 72.534 500.31 73.15C500.31 73.7753 500.422 74.3027 500.646 74.732C500.88 75.1613 501.188 75.4833 501.57 75.698C501.953 75.9033 502.373 76.006 502.83 76.006ZM515.243 69.328V77H513.969V75.866C513.727 76.258 513.386 76.566 512.947 76.79C512.518 77.0047 512.042 77.112 511.519 77.112C510.922 77.112 510.385 76.9907 509.909 76.748C509.433 76.496 509.055 76.1227 508.775 75.628C508.505 75.1333 508.369 74.5313 508.369 73.822V69.328H509.629V73.654C509.629 74.41 509.821 74.9933 510.203 75.404C510.586 75.8053 511.109 76.006 511.771 76.006C512.453 76.006 512.989 75.796 513.381 75.376C513.773 74.956 513.969 74.3447 513.969 73.542V69.328H515.243ZM521.132 69.188C522.066 69.188 522.822 69.4727 523.4 70.042C523.979 70.602 524.268 71.414 524.268 72.478V77H523.008V72.66C523.008 71.8947 522.817 71.3113 522.434 70.91C522.052 70.4993 521.529 70.294 520.866 70.294C520.194 70.294 519.658 70.504 519.256 70.924C518.864 71.344 518.668 71.9553 518.668 72.758V77H517.394V69.328H518.668V70.42C518.92 70.028 519.261 69.7247 519.69 69.51C520.129 69.2953 520.61 69.188 521.132 69.188ZM525.873 73.136C525.873 72.352 526.032 71.666 526.349 71.078C526.667 70.4807 527.101 70.0187 527.651 69.692C528.211 69.3653 528.837 69.202 529.527 69.202C530.125 69.202 530.68 69.342 531.193 69.622C531.707 69.8927 532.099 70.252 532.369 70.7V66.64H533.657V77H532.369V75.558C532.117 76.0153 531.744 76.3933 531.249 76.692C530.755 76.9813 530.176 77.126 529.513 77.126C528.832 77.126 528.211 76.958 527.651 76.622C527.101 76.286 526.667 75.8147 526.349 75.208C526.032 74.6013 525.873 73.9107 525.873 73.136ZM532.369 73.15C532.369 72.5713 532.253 72.0673 532.019 71.638C531.786 71.2087 531.469 70.882 531.067 70.658C530.675 70.4247 530.241 70.308 529.765 70.308C529.289 70.308 528.855 70.42 528.463 70.644C528.071 70.868 527.759 71.1947 527.525 71.624C527.292 72.0533 527.175 72.5573 527.175 73.136C527.175 73.724 527.292 74.2373 527.525 74.676C527.759 75.1053 528.071 75.4367 528.463 75.67C528.855 75.894 529.289 76.006 529.765 76.006C530.241 76.006 530.675 75.894 531.067 75.67C531.469 75.4367 531.786 75.1053 532.019 74.676C532.253 74.2373 532.369 73.7287 532.369 73.15ZM535.334 73.136C535.334 72.352 535.493 71.666 535.81 71.078C536.128 70.4807 536.562 70.0187 537.112 69.692C537.672 69.3653 538.293 69.202 538.974 69.202C539.646 69.202 540.23 69.3467 540.724 69.636C541.219 69.9253 541.588 70.2893 541.83 70.728V69.328H543.118V77H541.83V75.572C541.578 76.02 541.2 76.3933 540.696 76.692C540.202 76.9813 539.623 77.126 538.96 77.126C538.279 77.126 537.663 76.958 537.112 76.622C536.562 76.286 536.128 75.8147 535.81 75.208C535.493 74.6013 535.334 73.9107 535.334 73.136ZM541.83 73.15C541.83 72.5713 541.714 72.0673 541.48 71.638C541.247 71.2087 540.93 70.882 540.528 70.658C540.136 70.4247 539.702 70.308 539.226 70.308C538.75 70.308 538.316 70.42 537.924 70.644C537.532 70.868 537.22 71.1947 536.986 71.624C536.753 72.0533 536.636 72.5573 536.636 73.136C536.636 73.724 536.753 74.2373 536.986 74.676C537.22 75.1053 537.532 75.4367 537.924 75.67C538.316 75.894 538.75 76.006 539.226 76.006C539.702 76.006 540.136 75.894 540.528 75.67C540.93 75.4367 541.247 75.1053 541.48 74.676C541.714 74.2373 541.83 73.7287 541.83 73.15ZM546.825 70.378V74.9C546.825 75.2733 546.905 75.5393 547.063 75.698C547.222 75.8473 547.497 75.922 547.889 75.922H548.827V77H547.679C546.97 77 546.438 76.8367 546.083 76.51C545.729 76.1833 545.551 75.6467 545.551 74.9V70.378H544.557V69.328H545.551V67.396H546.825V69.328H548.827V70.378H546.825ZM551.029 68.082C550.786 68.082 550.581 67.998 550.413 67.83C550.245 67.662 550.161 67.4567 550.161 67.214C550.161 66.9713 550.245 66.766 550.413 66.598C550.581 66.43 550.786 66.346 551.029 66.346C551.262 66.346 551.458 66.43 551.617 66.598C551.785 66.766 551.869 66.9713 551.869 67.214C551.869 67.4567 551.785 67.662 551.617 67.83C551.458 67.998 551.262 68.082 551.029 68.082ZM551.645 69.328V77H550.371V69.328H551.645ZM557.162 77.126C556.444 77.126 555.79 76.9627 555.202 76.636C554.624 76.3093 554.166 75.8473 553.83 75.25C553.504 74.6433 553.34 73.9433 553.34 73.15C553.34 72.366 553.508 71.6753 553.844 71.078C554.19 70.4713 554.656 70.0093 555.244 69.692C555.832 69.3653 556.49 69.202 557.218 69.202C557.946 69.202 558.604 69.3653 559.192 69.692C559.78 70.0093 560.242 70.4667 560.578 71.064C560.924 71.6613 561.096 72.3567 561.096 73.15C561.096 73.9433 560.919 74.6433 560.564 75.25C560.219 75.8473 559.748 76.3093 559.15 76.636C558.553 76.9627 557.89 77.126 557.162 77.126ZM557.162 76.006C557.62 76.006 558.049 75.8987 558.45 75.684C558.852 75.4693 559.174 75.1473 559.416 74.718C559.668 74.2887 559.794 73.766 559.794 73.15C559.794 72.534 559.673 72.0113 559.43 71.582C559.188 71.1527 558.87 70.8353 558.478 70.63C558.086 70.4153 557.662 70.308 557.204 70.308C556.738 70.308 556.308 70.4153 555.916 70.63C555.534 70.8353 555.226 71.1527 554.992 71.582C554.759 72.0113 554.642 72.534 554.642 73.15C554.642 73.7753 554.754 74.3027 554.978 74.732C555.212 75.1613 555.52 75.4833 555.902 75.698C556.285 75.9033 556.705 76.006 557.162 76.006ZM566.509 69.188C567.443 69.188 568.199 69.4727 568.777 70.042C569.356 70.602 569.645 71.414 569.645 72.478V77H568.385V72.66C568.385 71.8947 568.194 71.3113 567.811 70.91C567.429 70.4993 566.906 70.294 566.243 70.294C565.571 70.294 565.035 70.504 564.633 70.924C564.241 71.344 564.045 71.9553 564.045 72.758V77H562.771V69.328H564.045V70.42C564.297 70.028 564.638 69.7247 565.067 69.51C565.506 69.2953 565.987 69.188 566.509 69.188Z" fill="#B3B6E1"/>
<circle cx="476" cy="73" r="7" fill="#204AEC"/>
<path d="M642.849 74.83H638.593L637.809 77H636.465L639.993 67.298H641.463L644.977 77H643.633L642.849 74.83ZM642.485 73.794L640.721 68.866L638.957 73.794H642.485ZM646.039 73.136C646.039 72.352 646.197 71.666 646.515 71.078C646.832 70.4807 647.266 70.0187 647.817 69.692C648.377 69.3653 649.002 69.202 649.693 69.202C650.29 69.202 650.845 69.342 651.359 69.622C651.872 69.8927 652.264 70.252 652.535 70.7V66.64H653.823V77H652.535V75.558C652.283 76.0153 651.909 76.3933 651.415 76.692C650.92 76.9813 650.341 77.126 649.679 77.126C648.997 77.126 648.377 76.958 647.817 76.622C647.266 76.286 646.832 75.8147 646.515 75.208C646.197 74.6013 646.039 73.9107 646.039 73.136ZM652.535 73.15C652.535 72.5713 652.418 72.0673 652.185 71.638C651.951 71.2087 651.634 70.882 651.233 70.658C650.841 70.4247 650.407 70.308 649.931 70.308C649.455 70.308 649.021 70.42 648.629 70.644C648.237 70.868 647.924 71.1947 647.691 71.624C647.457 72.0533 647.341 72.5573 647.341 73.136C647.341 73.724 647.457 74.2373 647.691 74.676C647.924 75.1053 648.237 75.4367 648.629 75.67C649.021 75.894 649.455 76.006 649.931 76.006C650.407 76.006 650.841 75.894 651.233 75.67C651.634 75.4367 651.951 75.1053 652.185 74.676C652.418 74.2373 652.535 73.7287 652.535 73.15ZM658.831 75.824L661.211 69.328H662.569L659.559 77H658.075L655.065 69.328H656.437L658.831 75.824ZM664.481 68.082C664.238 68.082 664.033 67.998 663.865 67.83C663.697 67.662 663.613 67.4567 663.613 67.214C663.613 66.9713 663.697 66.766 663.865 66.598C664.033 66.43 664.238 66.346 664.481 66.346C664.714 66.346 664.91 66.43 665.069 66.598C665.237 66.766 665.321 66.9713 665.321 67.214C665.321 67.4567 665.237 67.662 665.069 67.83C664.91 67.998 664.714 68.082 664.481 68.082ZM665.097 69.328V77H663.823V69.328H665.097ZM669.984 77.126C669.396 77.126 668.869 77.028 668.402 76.832C667.936 76.6267 667.567 76.3467 667.296 75.992C667.026 75.628 666.876 75.2127 666.848 74.746H668.164C668.202 75.1287 668.379 75.4413 668.696 75.684C669.023 75.9267 669.448 76.048 669.97 76.048C670.456 76.048 670.838 75.9407 671.118 75.726C671.398 75.5113 671.538 75.2407 671.538 74.914C671.538 74.578 671.389 74.3307 671.09 74.172C670.792 74.004 670.33 73.8407 669.704 73.682C669.135 73.5327 668.668 73.3833 668.304 73.234C667.95 73.0753 667.642 72.8467 667.38 72.548C667.128 72.24 667.002 71.8387 667.002 71.344C667.002 70.952 667.119 70.5927 667.352 70.266C667.586 69.9393 667.917 69.6827 668.346 69.496C668.776 69.3 669.266 69.202 669.816 69.202C670.666 69.202 671.352 69.4167 671.874 69.846C672.397 70.2753 672.677 70.8633 672.714 71.61H671.44C671.412 71.2087 671.249 70.8867 670.95 70.644C670.661 70.4013 670.269 70.28 669.774 70.28C669.317 70.28 668.953 70.378 668.682 70.574C668.412 70.77 668.276 71.0267 668.276 71.344C668.276 71.596 668.356 71.806 668.514 71.974C668.682 72.1327 668.888 72.2633 669.13 72.366C669.382 72.4593 669.728 72.5667 670.166 72.688C670.717 72.8373 671.165 72.9867 671.51 73.136C671.856 73.276 672.15 73.4907 672.392 73.78C672.644 74.0693 672.775 74.4473 672.784 74.914C672.784 75.334 672.668 75.712 672.434 76.048C672.201 76.384 671.87 76.65 671.44 76.846C671.02 77.0327 670.535 77.126 669.984 77.126ZM677.929 77.126C677.21 77.126 676.557 76.9627 675.969 76.636C675.39 76.3093 674.933 75.8473 674.597 75.25C674.27 74.6433 674.107 73.9433 674.107 73.15C674.107 72.366 674.275 71.6753 674.611 71.078C674.956 70.4713 675.423 70.0093 676.011 69.692C676.599 69.3653 677.257 69.202 677.985 69.202C678.713 69.202 679.371 69.3653 679.959 69.692C680.547 70.0093 681.009 70.4667 681.345 71.064C681.69 71.6613 681.863 72.3567 681.863 73.15C681.863 73.9433 681.686 74.6433 681.331 75.25C680.986 75.8473 680.514 76.3093 679.917 76.636C679.32 76.9627 678.657 77.126 677.929 77.126ZM677.929 76.006C678.386 76.006 678.816 75.8987 679.217 75.684C679.618 75.4693 679.94 75.1473 680.183 74.718C680.435 74.2887 680.561 73.766 680.561 73.15C680.561 72.534 680.44 72.0113 680.197 71.582C679.954 71.1527 679.637 70.8353 679.245 70.63C678.853 70.4153 678.428 70.308 677.971 70.308C677.504 70.308 677.075 70.4153 676.683 70.63C676.3 70.8353 675.992 71.1527 675.759 71.582C675.526 72.0113 675.409 72.534 675.409 73.15C675.409 73.7753 675.521 74.3027 675.745 74.732C675.978 75.1613 676.286 75.4833 676.669 75.698C677.052 75.9033 677.472 76.006 677.929 76.006ZM684.812 70.574C685.036 70.1353 685.353 69.7947 685.764 69.552C686.184 69.3093 686.693 69.188 687.29 69.188V70.504H686.954C685.526 70.504 684.812 71.2787 684.812 72.828V77H683.538V69.328H684.812V70.574ZM691.477 77.126C690.889 77.126 690.361 77.028 689.895 76.832C689.428 76.6267 689.059 76.3467 688.789 75.992C688.518 75.628 688.369 75.2127 688.341 74.746H689.657C689.694 75.1287 689.871 75.4413 690.189 75.684C690.515 75.9267 690.94 76.048 691.463 76.048C691.948 76.048 692.331 75.9407 692.611 75.726C692.891 75.5113 693.031 75.2407 693.031 74.914C693.031 74.578 692.881 74.3307 692.583 74.172C692.284 74.004 691.822 73.8407 691.197 73.682C690.627 73.5327 690.161 73.3833 689.797 73.234C689.442 73.0753 689.134 72.8467 688.873 72.548C688.621 72.24 688.495 71.8387 688.495 71.344C688.495 70.952 688.611 70.5927 688.845 70.266C689.078 69.9393 689.409 69.6827 689.839 69.496C690.268 69.3 690.758 69.202 691.309 69.202C692.158 69.202 692.844 69.4167 693.367 69.846C693.889 70.2753 694.169 70.8633 694.207 71.61H692.933C692.905 71.2087 692.741 70.8867 692.443 70.644C692.153 70.4013 691.761 70.28 691.267 70.28C690.809 70.28 690.445 70.378 690.175 70.574C689.904 70.77 689.769 71.0267 689.769 71.344C689.769 71.596 689.848 71.806 690.007 71.974C690.175 72.1327 690.38 72.2633 690.623 72.366C690.875 72.4593 691.22 72.5667 691.659 72.688C692.209 72.8373 692.657 72.9867 693.003 73.136C693.348 73.276 693.642 73.4907 693.885 73.78C694.137 74.0693 694.267 74.4473 694.277 74.914C694.277 75.334 694.16 75.712 693.927 76.048C693.693 76.384 693.362 76.65 692.933 76.846C692.513 77.0327 692.027 77.126 691.477 77.126Z" fill="#B3B6E1"/>
<circle cx="620" cy="73" r="7" fill="#3165CB"/>
<path d="M764.651 77.098C764.007 77.098 763.429 76.986 762.915 76.762C762.411 76.5287 762.015 76.2113 761.725 75.81C761.436 75.3993 761.287 74.928 761.277 74.396H762.635C762.682 74.8533 762.869 75.2407 763.195 75.558C763.531 75.866 764.017 76.02 764.651 76.02C765.258 76.02 765.734 75.8707 766.079 75.572C766.434 75.264 766.611 74.872 766.611 74.396C766.611 74.0227 766.509 73.7193 766.303 73.486C766.098 73.2527 765.841 73.0753 765.533 72.954C765.225 72.8327 764.81 72.702 764.287 72.562C763.643 72.394 763.125 72.226 762.733 72.058C762.351 71.89 762.019 71.6287 761.739 71.274C761.469 70.91 761.333 70.4247 761.333 69.818C761.333 69.286 761.469 68.8147 761.739 68.404C762.01 67.9933 762.388 67.676 762.873 67.452C763.368 67.228 763.933 67.116 764.567 67.116C765.482 67.116 766.229 67.3447 766.807 67.802C767.395 68.2593 767.727 68.866 767.801 69.622H766.401C766.355 69.2487 766.159 68.922 765.813 68.642C765.468 68.3527 765.011 68.208 764.441 68.208C763.909 68.208 763.475 68.348 763.139 68.628C762.803 68.8987 762.635 69.2813 762.635 69.776C762.635 70.1307 762.733 70.42 762.929 70.644C763.135 70.868 763.382 71.0407 763.671 71.162C763.97 71.274 764.385 71.4047 764.917 71.554C765.561 71.7313 766.079 71.9087 766.471 72.086C766.863 72.254 767.199 72.52 767.479 72.884C767.759 73.2387 767.899 73.724 767.899 74.34C767.899 74.816 767.773 75.264 767.521 75.684C767.269 76.104 766.896 76.4447 766.401 76.706C765.907 76.9673 765.323 77.098 764.651 77.098ZM776.774 72.87C776.774 73.1127 776.76 73.3693 776.732 73.64H770.6C770.647 74.396 770.904 74.9887 771.37 75.418C771.846 75.838 772.42 76.048 773.092 76.048C773.643 76.048 774.1 75.922 774.464 75.67C774.838 75.4087 775.099 75.0633 775.248 74.634H776.62C776.415 75.3713 776.004 75.9733 775.388 76.44C774.772 76.8973 774.007 77.126 773.092 77.126C772.364 77.126 771.711 76.9627 771.132 76.636C770.563 76.3093 770.115 75.8473 769.788 75.25C769.462 74.6433 769.298 73.9433 769.298 73.15C769.298 72.3567 769.457 71.6613 769.774 71.064C770.092 70.4667 770.535 70.0093 771.104 69.692C771.683 69.3653 772.346 69.202 773.092 69.202C773.82 69.202 774.464 69.3607 775.024 69.678C775.584 69.9953 776.014 70.434 776.312 70.994C776.62 71.5447 776.774 72.17 776.774 72.87ZM775.458 72.604C775.458 72.1187 775.351 71.7033 775.136 71.358C774.922 71.0033 774.628 70.7373 774.254 70.56C773.89 70.3733 773.484 70.28 773.036 70.28C772.392 70.28 771.842 70.4853 771.384 70.896C770.936 71.3067 770.68 71.876 770.614 72.604H775.458ZM785.456 72.87C785.456 73.1127 785.442 73.3693 785.414 73.64H779.282C779.329 74.396 779.585 74.9887 780.052 75.418C780.528 75.838 781.102 76.048 781.774 76.048C782.325 76.048 782.782 75.922 783.146 75.67C783.519 75.4087 783.781 75.0633 783.93 74.634H785.302C785.097 75.3713 784.686 75.9733 784.07 76.44C783.454 76.8973 782.689 77.126 781.774 77.126C781.046 77.126 780.393 76.9627 779.814 76.636C779.245 76.3093 778.797 75.8473 778.47 75.25C778.143 74.6433 777.98 73.9433 777.98 73.15C777.98 72.3567 778.139 71.6613 778.456 71.064C778.773 70.4667 779.217 70.0093 779.786 69.692C780.365 69.3653 781.027 69.202 781.774 69.202C782.502 69.202 783.146 69.3607 783.706 69.678C784.266 69.9953 784.695 70.434 784.994 70.994C785.302 71.5447 785.456 72.17 785.456 72.87ZM784.14 72.604C784.14 72.1187 784.033 71.7033 783.818 71.358C783.603 71.0033 783.309 70.7373 782.936 70.56C782.572 70.3733 782.166 70.28 781.718 70.28C781.074 70.28 780.523 70.4853 780.066 70.896C779.618 71.3067 779.361 71.876 779.296 72.604H784.14ZM786.662 73.136C786.662 72.352 786.82 71.666 787.138 71.078C787.455 70.4807 787.889 70.0187 788.44 69.692C789 69.3653 789.625 69.202 790.316 69.202C790.913 69.202 791.468 69.342 791.982 69.622C792.495 69.8927 792.887 70.252 793.158 70.7V66.64H794.446V77H793.158V75.558C792.906 76.0153 792.532 76.3933 792.038 76.692C791.543 76.9813 790.964 77.126 790.302 77.126C789.62 77.126 789 76.958 788.44 76.622C787.889 76.286 787.455 75.8147 787.138 75.208C786.82 74.6013 786.662 73.9107 786.662 73.136ZM793.158 73.15C793.158 72.5713 793.041 72.0673 792.808 71.638C792.574 71.2087 792.257 70.882 791.856 70.658C791.464 70.4247 791.03 70.308 790.554 70.308C790.078 70.308 789.644 70.42 789.252 70.644C788.86 70.868 788.547 71.1947 788.314 71.624C788.08 72.0533 787.964 72.5573 787.964 73.136C787.964 73.724 788.08 74.2373 788.314 74.676C788.547 75.1053 788.86 75.4367 789.252 75.67C789.644 75.894 790.078 76.006 790.554 76.006C791.03 76.006 791.464 75.894 791.856 75.67C792.257 75.4367 792.574 75.1053 792.808 74.676C793.041 74.2373 793.158 73.7287 793.158 73.15Z" fill="#B3B6E1"/>
<circle cx="744" cy="73" r="7" fill="#006BEE"/>
<path d="M872.181 67.312V77H870.907V69.776L867.687 77H866.791L863.557 69.762V77H862.283V67.312H863.655L867.239 75.32L870.823 67.312H872.181ZM873.866 73.136C873.866 72.352 874.024 71.666 874.342 71.078C874.659 70.4807 875.093 70.0187 875.644 69.692C876.204 69.3653 876.824 69.202 877.506 69.202C878.178 69.202 878.761 69.3467 879.256 69.636C879.75 69.9253 880.119 70.2893 880.362 70.728V69.328H881.65V77H880.362V75.572C880.11 76.02 879.732 76.3933 879.228 76.692C878.733 76.9813 878.154 77.126 877.492 77.126C876.81 77.126 876.194 76.958 875.644 76.622C875.093 76.286 874.659 75.8147 874.342 75.208C874.024 74.6013 873.866 73.9107 873.866 73.136ZM880.362 73.15C880.362 72.5713 880.245 72.0673 880.012 71.638C879.778 71.2087 879.461 70.882 879.06 70.658C878.668 70.4247 878.234 70.308 877.758 70.308C877.282 70.308 876.848 70.42 876.456 70.644C876.064 70.868 875.751 71.1947 875.518 71.624C875.284 72.0533 875.168 72.5573 875.168 73.136C875.168 73.724 875.284 74.2373 875.518 74.676C875.751 75.1053 876.064 75.4367 876.456 75.67C876.848 75.894 877.282 76.006 877.758 76.006C878.234 76.006 878.668 75.894 879.06 75.67C879.461 75.4367 879.778 75.1053 880.012 74.676C880.245 74.2373 880.362 73.7287 880.362 73.15ZM885.077 70.574C885.301 70.1353 885.618 69.7947 886.029 69.552C886.449 69.3093 886.957 69.188 887.555 69.188V70.504H887.219C885.791 70.504 885.077 71.2787 885.077 72.828V77H883.803V69.328H885.077V70.574ZM893.309 77L890.299 73.612V77H889.025V66.64H890.299V72.73L893.253 69.328H895.031L891.419 73.15L895.045 77H893.309ZM903.23 72.87C903.23 73.1127 903.216 73.3693 903.188 73.64H897.056C897.103 74.396 897.36 74.9887 897.826 75.418C898.302 75.838 898.876 76.048 899.548 76.048C900.099 76.048 900.556 75.922 900.92 75.67C901.294 75.4087 901.555 75.0633 901.704 74.634H903.076C902.871 75.3713 902.46 75.9733 901.844 76.44C901.228 76.8973 900.463 77.126 899.548 77.126C898.82 77.126 898.167 76.9627 897.588 76.636C897.019 76.3093 896.571 75.8473 896.244 75.25C895.918 74.6433 895.754 73.9433 895.754 73.15C895.754 72.3567 895.913 71.6613 896.23 71.064C896.548 70.4667 896.991 70.0093 897.56 69.692C898.139 69.3653 898.802 69.202 899.548 69.202C900.276 69.202 900.92 69.3607 901.48 69.678C902.04 69.9953 902.47 70.434 902.768 70.994C903.076 71.5447 903.23 72.17 903.23 72.87ZM901.914 72.604C901.914 72.1187 901.807 71.7033 901.592 71.358C901.378 71.0033 901.084 70.7373 900.71 70.56C900.346 70.3733 899.94 70.28 899.492 70.28C898.848 70.28 898.298 70.4853 897.84 70.896C897.392 71.3067 897.136 71.876 897.07 72.604H901.914ZM906.466 70.378V74.9C906.466 75.2733 906.545 75.5393 906.704 75.698C906.863 75.8473 907.138 75.922 907.53 75.922H908.468V77H907.32C906.611 77 906.079 76.8367 905.724 76.51C905.369 76.1833 905.192 75.6467 905.192 74.9V70.378H904.198V69.328H905.192V67.396H906.466V69.328H908.468V70.378H906.466ZM910.67 68.082C910.427 68.082 910.222 67.998 910.054 67.83C909.886 67.662 909.802 67.4567 909.802 67.214C909.802 66.9713 909.886 66.766 910.054 66.598C910.222 66.43 910.427 66.346 910.67 66.346C910.903 66.346 911.099 66.43 911.258 66.598C911.426 66.766 911.51 66.9713 911.51 67.214C911.51 67.4567 911.426 67.662 911.258 67.83C911.099 67.998 910.903 68.082 910.67 68.082ZM911.286 69.328V77H910.012V69.328H911.286ZM917.195 69.188C918.128 69.188 918.884 69.4727 919.463 70.042C920.042 70.602 920.331 71.414 920.331 72.478V77H919.071V72.66C919.071 71.8947 918.88 71.3113 918.497 70.91C918.114 70.4993 917.592 70.294 916.929 70.294C916.257 70.294 915.72 70.504 915.319 70.924C914.927 71.344 914.731 71.9553 914.731 72.758V77H913.457V69.328H914.731V70.42C914.983 70.028 915.324 69.7247 915.753 69.51C916.192 69.2953 916.672 69.188 917.195 69.188ZM925.576 69.202C926.239 69.202 926.817 69.3467 927.312 69.636C927.816 69.9253 928.189 70.2893 928.432 70.728V69.328H929.72V77.168C929.72 77.868 929.571 78.4887 929.272 79.03C928.973 79.5807 928.544 80.01 927.984 80.318C927.433 80.626 926.789 80.78 926.052 80.78C925.044 80.78 924.204 80.542 923.532 80.066C922.86 79.59 922.463 78.9413 922.342 78.12H923.602C923.742 78.5867 924.031 78.96 924.47 79.24C924.909 79.5293 925.436 79.674 926.052 79.674C926.752 79.674 927.321 79.4547 927.76 79.016C928.208 78.5773 928.432 77.9613 928.432 77.168V75.558C928.18 76.006 927.807 76.3793 927.312 76.678C926.817 76.9767 926.239 77.126 925.576 77.126C924.895 77.126 924.274 76.958 923.714 76.622C923.163 76.286 922.729 75.8147 922.412 75.208C922.095 74.6013 921.936 73.9107 921.936 73.136C921.936 72.352 922.095 71.666 922.412 71.078C922.729 70.4807 923.163 70.0187 923.714 69.692C924.274 69.3653 924.895 69.202 925.576 69.202ZM928.432 73.15C928.432 72.5713 928.315 72.0673 928.082 71.638C927.849 71.2087 927.531 70.882 927.13 70.658C926.738 70.4247 926.304 70.308 925.828 70.308C925.352 70.308 924.918 70.42 924.526 70.644C924.134 70.868 923.821 71.1947 923.588 71.624C923.355 72.0533 923.238 72.5573 923.238 73.136C923.238 73.724 923.355 74.2373 923.588 74.676C923.821 75.1053 924.134 75.4367 924.526 75.67C924.918 75.894 925.352 76.006 925.828 76.006C926.304 76.006 926.738 75.894 927.13 75.67C927.531 75.4367 927.849 75.1053 928.082 74.676C928.315 74.2373 928.432 73.7287 928.432 73.15Z" fill="#B3B6E1"/>
<circle cx="845" cy="73" r="7" fill="#4D6CB3"/>
<path d="M1001.64 77L999.321 73.01H997.781V77H996.507V67.242H999.657C1000.39 67.242 1001.01 67.368 1001.52 67.62C1002.03 67.872 1002.41 68.2127 1002.67 68.642C1002.92 69.0713 1003.04 69.5613 1003.04 70.112C1003.04 70.784 1002.85 71.3767 1002.46 71.89C1002.07 72.4033 1001.5 72.744 1000.72 72.912L1003.17 77H1001.64ZM997.781 71.988H999.657C1000.35 71.988 1000.87 71.82 1001.21 71.484C1001.56 71.1387 1001.73 70.6813 1001.73 70.112C1001.73 69.5333 1001.56 69.0853 1001.21 68.768C1000.87 68.4507 1000.36 68.292 999.657 68.292H997.781V71.988ZM1012.02 72.87C1012.02 73.1127 1012.01 73.3693 1011.98 73.64H1005.85C1005.9 74.396 1006.15 74.9887 1006.62 75.418C1007.1 75.838 1007.67 76.048 1008.34 76.048C1008.89 76.048 1009.35 75.922 1009.71 75.67C1010.09 75.4087 1010.35 75.0633 1010.5 74.634H1011.87C1011.66 75.3713 1011.25 75.9733 1010.64 76.44C1010.02 76.8973 1009.26 77.126 1008.34 77.126C1007.61 77.126 1006.96 76.9627 1006.38 76.636C1005.81 76.3093 1005.36 75.8473 1005.04 75.25C1004.71 74.6433 1004.55 73.9433 1004.55 73.15C1004.55 72.3567 1004.71 71.6613 1005.02 71.064C1005.34 70.4667 1005.78 70.0093 1006.35 69.692C1006.93 69.3653 1007.6 69.202 1008.34 69.202C1009.07 69.202 1009.71 69.3607 1010.27 69.678C1010.83 69.9953 1011.26 70.434 1011.56 70.994C1011.87 71.5447 1012.02 72.17 1012.02 72.87ZM1010.71 72.604C1010.71 72.1187 1010.6 71.7033 1010.39 71.358C1010.17 71.0033 1009.88 70.7373 1009.5 70.56C1009.14 70.3733 1008.73 70.28 1008.29 70.28C1007.64 70.28 1007.09 70.4853 1006.63 70.896C1006.19 71.3067 1005.93 71.876 1005.86 72.604H1010.71ZM1023.93 69.328L1021.53 77H1020.22L1018.37 70.91L1016.52 77H1015.2L1012.8 69.328H1014.1L1015.86 75.768L1017.77 69.328H1019.07L1020.93 75.782L1022.67 69.328H1023.93ZM1024.71 73.136C1024.71 72.352 1024.87 71.666 1025.19 71.078C1025.51 70.4807 1025.94 70.0187 1026.49 69.692C1027.05 69.3653 1027.67 69.202 1028.35 69.202C1029.03 69.202 1029.61 69.3467 1030.1 69.636C1030.6 69.9253 1030.97 70.2893 1031.21 70.728V69.328H1032.5V77H1031.21V75.572C1030.96 76.02 1030.58 76.3933 1030.08 76.692C1029.58 76.9813 1029 77.126 1028.34 77.126C1027.66 77.126 1027.04 76.958 1026.49 76.622C1025.94 76.286 1025.51 75.8147 1025.19 75.208C1024.87 74.6013 1024.71 73.9107 1024.71 73.136ZM1031.21 73.15C1031.21 72.5713 1031.09 72.0673 1030.86 71.638C1030.63 71.2087 1030.31 70.882 1029.91 70.658C1029.52 70.4247 1029.08 70.308 1028.61 70.308C1028.13 70.308 1027.7 70.42 1027.3 70.644C1026.91 70.868 1026.6 71.1947 1026.37 71.624C1026.13 72.0533 1026.02 72.5573 1026.02 73.136C1026.02 73.724 1026.13 74.2373 1026.37 74.676C1026.6 75.1053 1026.91 75.4367 1027.3 75.67C1027.7 75.894 1028.13 76.006 1028.61 76.006C1029.08 76.006 1029.52 75.894 1029.91 75.67C1030.31 75.4367 1030.63 75.1053 1030.86 74.676C1031.09 74.2373 1031.21 73.7287 1031.21 73.15ZM1035.93 70.574C1036.15 70.1353 1036.47 69.7947 1036.88 69.552C1037.3 69.3093 1037.81 69.188 1038.4 69.188V70.504H1038.07C1036.64 70.504 1035.93 71.2787 1035.93 72.828V77H1034.65V69.328H1035.93V70.574ZM1039.4 73.136C1039.4 72.352 1039.56 71.666 1039.87 71.078C1040.19 70.4807 1040.63 70.0187 1041.18 69.692C1041.74 69.3653 1042.36 69.202 1043.05 69.202C1043.65 69.202 1044.2 69.342 1044.72 69.622C1045.23 69.8927 1045.62 70.252 1045.89 70.7V66.64H1047.18V77H1045.89V75.558C1045.64 76.0153 1045.27 76.3933 1044.77 76.692C1044.28 76.9813 1043.7 77.126 1043.04 77.126C1042.36 77.126 1041.74 76.958 1041.18 76.622C1040.63 76.286 1040.19 75.8147 1039.87 75.208C1039.56 74.6013 1039.4 73.9107 1039.4 73.136ZM1045.89 73.15C1045.89 72.5713 1045.78 72.0673 1045.54 71.638C1045.31 71.2087 1044.99 70.882 1044.59 70.658C1044.2 70.4247 1043.77 70.308 1043.29 70.308C1042.81 70.308 1042.38 70.42 1041.99 70.644C1041.6 70.868 1041.28 71.1947 1041.05 71.624C1040.82 72.0533 1040.7 72.5573 1040.7 73.136C1040.7 73.724 1040.82 74.2373 1041.05 74.676C1041.28 75.1053 1041.6 75.4367 1041.99 75.67C1042.38 75.894 1042.81 76.006 1043.29 76.006C1043.77 76.006 1044.2 75.894 1044.59 75.67C1044.99 75.4367 1045.31 75.1053 1045.54 74.676C1045.78 74.2373 1045.89 73.7287 1045.89 73.15ZM1052.05 77.126C1051.46 77.126 1050.94 77.028 1050.47 76.832C1050 76.6267 1049.63 76.3467 1049.36 75.992C1049.09 75.628 1048.94 75.2127 1048.91 74.746H1050.23C1050.27 75.1287 1050.45 75.4413 1050.76 75.684C1051.09 75.9267 1051.51 76.048 1052.04 76.048C1052.52 76.048 1052.9 75.9407 1053.18 75.726C1053.46 75.5113 1053.6 75.2407 1053.6 74.914C1053.6 74.578 1053.46 74.3307 1053.16 74.172C1052.86 74.004 1052.4 73.8407 1051.77 73.682C1051.2 73.5327 1050.73 73.3833 1050.37 73.234C1050.02 73.0753 1049.71 72.8467 1049.45 72.548C1049.19 72.24 1049.07 71.8387 1049.07 71.344C1049.07 70.952 1049.19 70.5927 1049.42 70.266C1049.65 69.9393 1049.98 69.6827 1050.41 69.496C1050.84 69.3 1051.33 69.202 1051.88 69.202C1052.73 69.202 1053.42 69.4167 1053.94 69.846C1054.46 70.2753 1054.74 70.8633 1054.78 71.61H1053.51C1053.48 71.2087 1053.32 70.8867 1053.02 70.644C1052.73 70.4013 1052.34 70.28 1051.84 70.28C1051.38 70.28 1051.02 70.378 1050.75 70.574C1050.48 70.77 1050.34 71.0267 1050.34 71.344C1050.34 71.596 1050.42 71.806 1050.58 71.974C1050.75 72.1327 1050.95 72.2633 1051.2 72.366C1051.45 72.4593 1051.79 72.5667 1052.23 72.688C1052.78 72.8373 1053.23 72.9867 1053.58 73.136C1053.92 73.276 1054.22 73.4907 1054.46 73.78C1054.71 74.0693 1054.84 74.4473 1054.85 74.914C1054.85 75.334 1054.73 75.712 1054.5 76.048C1054.27 76.384 1053.94 76.65 1053.51 76.846C1053.09 77.0327 1052.6 77.126 1052.05 77.126Z" fill="#B3B6E1"/>
<circle cx="980" cy="73" r="7" fill="#354368"/>
<defs>
<linearGradient id="paint0_linear_222_4050" x1="120.064" y1="-26.0631" x2="613.758" y2="871.429" gradientUnits="userSpaceOnUse">
<stop stop-color="#0C0D30"/>
<stop offset="1" stop-opacity="0"/>
</linearGradient>
</defs>
</svg>
