<svg width="13" height="11" viewBox="0 0 13 11" fill="none" xmlns="http://www.w3.org/2000/svg">
<g id="Group">
<path id="Vector" d="M5.53127 1.78768C4.95901 2.14648 4.55773 2.75365 4.48467 3.45843C4.25129 3.56748 3.99226 3.63019 3.71764 3.63019C2.71507 3.63019 1.90247 2.81759 1.90247 1.81517C1.90247 0.812595 2.71507 0 3.71764 0C4.71064 0.000308913 5.51613 0.798385 5.53127 1.78768ZM6.72043 5.5042C5.71785 5.5042 4.90526 4.69145 4.90526 3.68903C4.90526 2.68661 5.718 1.87402 6.72043 1.87402C7.72285 1.87402 8.5359 2.68677 8.5359 3.68919C8.5359 4.69161 7.72285 5.5042 6.72043 5.5042ZM5.95046 5.62792H7.4907C8.77222 5.62792 9.8148 6.67066 9.8148 7.95218V9.83578L9.81001 9.86528L9.68027 9.9059C8.45729 10.288 7.39478 10.4155 6.52025 10.4155C4.81212 10.4155 3.82205 9.92845 3.76104 9.8974L3.6398 9.83608H3.62682V7.95218C3.62636 6.67066 4.66894 5.62792 5.95046 5.62792ZM2.94737 3.75406H4.47571C4.49224 4.36555 4.75327 4.91619 5.16613 5.31221C4.02702 5.65094 3.19357 6.70726 3.19357 7.95496V8.53541C1.68453 8.48011 0.814944 8.05242 0.757641 8.02369L0.636394 7.96222H0.62342V6.07801C0.62342 4.79664 1.666 3.75406 2.94737 3.75406ZM9.90547 3.63049C9.55037 3.63049 9.21999 3.52685 8.94012 3.35031C8.85115 2.77002 8.54007 2.26294 8.0957 1.91757C8.09385 1.88359 8.09061 1.84992 8.09061 1.81563C8.09061 0.813058 8.90336 0.000463335 9.90547 0.000463335C10.9082 0.000463335 11.7206 0.813058 11.7206 1.81563C11.7206 2.81775 10.9082 3.63049 9.90547 3.63049ZM8.27534 5.31221C8.68619 4.9182 8.9463 4.37049 8.96529 3.76271C9.02198 3.75854 9.07805 3.75406 9.13581 3.75406H10.6759C11.9574 3.75406 13 4.79664 13 6.07801V7.96191L12.9952 7.99095L12.8655 8.03188C11.8844 8.33817 11.0087 8.47934 10.2482 8.52382V7.95496C10.2479 6.70726 9.41476 5.65125 8.27534 5.31221Z" fill="white"/>
</g>
</svg>
