<svg width="20" height="21" viewBox="0 0 20 21" fill="none" xmlns="http://www.w3.org/2000/svg">
<rect width="20" height="21" fill="#E4E4E4"/>
<g id="05_Staking">
<rect width="1920" height="1488" transform="translate(-1494 -212)" fill="#F3F4FA"/>
<g id="Group 59853">
<g id="Group 165">
<rect id="Rectangle 38" width="434" height="282" rx="9" transform="matrix(1 0 0 -1 -37 244)" fill="white"/>
</g>
</g>
<g id="Group 59856">
<g id="Group">
<g id="Group_2">
<g id="Group_3">
<path id="Vector" d="M5.58398 8.00879H8.83075V20.2599H5.58398V8.00879Z" fill="#292D32"/>
<path id="Vector_2" d="M11.1699 10.6064H14.4167V20.2602H11.1699V10.6064Z" fill="#292D32"/>
<path id="Vector_3" d="M16.7539 6.01758H20.0007V20.2601H16.7539V6.01758Z" fill="#292D32"/>
<path id="Vector_4" d="M0 12.6416H3.24676V20.2607H0V12.6416Z" fill="#292D32"/>
</g>
</g>
<path id="Vector_5" d="M18.2634 0C17.3555 0 16.6196 0.735457 16.6196 1.64269C16.6196 1.85503 16.6603 2.05776 16.7337 2.24403L13.5656 4.94287C13.3331 4.81703 13.0669 4.74556 12.7839 4.74556C12.3141 4.74556 11.8906 4.94283 11.5911 5.25863L8.85615 4.13854C8.85637 4.12794 8.85697 4.11742 8.85697 4.10672C8.85697 3.19949 8.121 2.46403 7.21312 2.46403C6.30523 2.46403 5.5693 3.19949 5.5693 4.10672C5.5693 4.19854 5.57718 4.28846 5.59168 4.37616L2.75033 6.05612C2.47054 5.83569 2.11764 5.70379 1.7337 5.70379C0.82582 5.70379 0.0898438 6.43924 0.0898438 7.34648C0.0898438 8.25371 0.82582 8.98917 1.7337 8.98917C2.64158 8.98917 3.37752 8.25371 3.37752 7.34648C3.37752 7.25466 3.36964 7.16474 3.35514 7.07704L6.19649 5.39708C6.47627 5.61751 6.82917 5.74941 7.21316 5.74941C7.68299 5.74941 8.10645 5.55214 8.40602 5.23634L11.1409 6.35643C11.1407 6.36703 11.1401 6.37755 11.1401 6.3882C11.1401 7.29544 11.8761 8.03089 12.784 8.03089C13.6918 8.03089 14.4278 7.29544 14.4278 6.3882C14.4278 6.19812 14.3951 6.01574 14.3357 5.84591L17.5387 3.11724C17.7574 3.22473 18.0032 3.28538 18.2634 3.28538C19.1713 3.28538 19.9073 2.54992 19.9073 1.64269C19.9073 0.735457 19.1713 0 18.2634 0Z" fill="#292D32"/>
</g>
</g>
</g>
</svg>
