<svg width="37" height="36" viewBox="0 0 37 36" fill="none" xmlns="http://www.w3.org/2000/svg">
<path id="Vector" d="M36.9873 14.3907C36.3315 11.2853 34.9419 8.32909 32.9687 5.84177C31.0194 3.38449 28.502 1.38342 25.6888 0.0549151C25.5457 -0.0126109 25.3817 -0.0181077 25.2347 0.0397842C25.0876 0.0976761 24.9703 0.213818 24.91 0.361362L21.741 8.11273C21.6255 8.39519 21.7447 8.71998 22.0144 8.85796C24.7583 10.2616 26.7998 12.7819 27.6155 15.7727C27.6854 16.029 27.9156 16.202 28.1723 16.202C28.1975 16.202 28.223 16.2003 28.2486 16.1969L36.4977 15.0925C36.6576 15.0711 36.8013 14.9832 36.8943 14.8499C36.9872 14.7166 37.0209 14.5502 36.9873 14.3907ZM28.5855 14.9721C27.656 12.0513 25.6579 9.57829 23.0097 8.07012L25.7438 1.38235C30.7048 3.92357 34.3775 8.57744 35.7154 14.0175L28.5855 14.9721ZM33.9286 16.9368C33.8053 16.8355 33.6462 16.7901 33.4887 16.8111L28.4904 17.4783C28.1924 17.5181 27.9742 17.7824 27.9886 18.0861C27.9974 18.2713 28.0064 18.4902 28.0064 18.7086C28.0064 23.6596 24.7139 28.0339 19.9997 29.3461C19.7213 29.4236 19.5421 29.697 19.5799 29.9865L20.2437 35.0671C20.265 35.2304 20.3534 35.377 20.4872 35.471C20.5849 35.5394 20.7001 35.5753 20.8168 35.5753C20.8601 35.5753 20.9036 35.5704 20.9465 35.5604C24.6527 34.6973 28.0156 32.5633 30.4155 29.5514C32.8519 26.494 34.1936 22.6433 34.1936 18.7086C34.1936 18.2704 34.1758 17.8121 34.1408 17.3464C34.1287 17.1862 34.052 17.0381 33.9286 16.9368ZM21.305 34.2639L20.7908 30.3278C25.7451 28.7193 29.1626 24.0132 29.1626 18.7086C29.1626 18.6615 29.1623 18.6148 29.1616 18.5684L33.0238 18.0528C33.0328 18.2757 33.0374 18.4949 33.0374 18.7086C33.0374 26.0503 28.245 32.3571 21.305 34.2639ZM18.3111 30.231C18.2713 29.9273 18.0075 29.7058 17.7044 29.724C17.5055 29.7357 17.3011 29.7416 17.0968 29.7416C11.0824 29.7416 6.18925 24.7922 6.18925 18.7086C6.18925 12.6239 11.0824 7.67358 17.0968 7.67358C18.0278 7.67358 18.9514 7.79208 19.842 8.02579C20.1213 8.09896 20.4111 7.9529 20.5214 7.68322L22.4572 2.9487C22.5195 2.79629 22.5153 2.62441 22.4456 2.47536C22.376 2.32631 22.2474 2.21389 22.0914 2.16584C20.4753 1.66773 18.7949 1.41518 17.0968 1.41518C12.5305 1.41518 8.23727 3.21388 5.00804 6.47999C1.77857 9.7464 0 14.0892 0 18.7086C0 23.3272 1.77857 27.6694 5.00804 30.9355C8.23741 34.2014 12.5306 36 17.0968 36C17.548 36 18.0012 35.9827 18.4436 35.9485C18.602 35.9363 18.7485 35.8587 18.8486 35.7339C18.9487 35.6091 18.9936 35.4481 18.9727 35.2887L18.3111 30.231ZM17.0968 34.8305C8.30713 34.8305 1.15624 27.5983 1.15624 18.7086C1.15624 9.81786 8.30713 2.58473 17.0968 2.58473C18.4666 2.58473 19.8239 2.7609 21.1404 3.10889L19.6411 6.77603C18.8093 6.59543 17.9557 6.50406 17.0968 6.50406C10.4448 6.50406 5.03302 11.979 5.03302 18.7086C5.03302 25.4371 10.4448 30.9111 17.0968 30.9111C17.1424 30.9111 17.188 30.9109 17.2336 30.9104L17.7448 34.8178C17.5295 34.8263 17.3129 34.8305 17.0968 34.8305ZM22.1147 13.6332C22.3404 13.8616 22.3404 14.2318 22.1146 14.4602L12.8965 23.7821C12.7837 23.8962 12.6357 23.9533 12.4878 23.9533C12.3398 23.9533 12.1919 23.8962 12.0789 23.782C11.8532 23.5536 11.8533 23.1834 12.0791 22.955L21.2971 13.6331C21.5229 13.4048 21.8889 13.4048 22.1147 13.6332ZM14.1348 18.0357C15.4023 18.0357 16.4336 16.9926 16.4336 15.7104C16.4336 14.4295 15.4023 13.3873 14.1348 13.3873C12.8672 13.3873 11.8359 14.4295 11.8359 15.7104C11.8359 16.9926 12.8672 18.0357 14.1348 18.0357ZM14.1348 14.5568C14.7648 14.5568 15.2773 15.0743 15.2773 15.7104C15.2773 16.3477 14.7648 16.8662 14.1348 16.8662C13.5047 16.8662 12.9922 16.3477 12.9922 15.7104C12.9922 15.0743 13.5047 14.5568 14.1348 14.5568ZM20.0589 19.3795C18.7924 19.3795 17.7621 20.4226 17.7621 21.7048C17.7621 22.9869 18.7924 24.03 20.0589 24.03C21.3264 24.03 22.3577 22.9869 22.3577 21.7048C22.3577 20.4226 21.3264 19.3795 20.0589 19.3795ZM20.0589 22.8605C19.43 22.8605 18.9183 22.342 18.9183 21.7048C18.9183 21.0675 19.43 20.549 20.0589 20.549C20.6889 20.549 21.2015 21.0675 21.2015 21.7048C21.2015 22.342 20.6889 22.8605 20.0589 22.8605Z" fill="#2E4276"/>
</svg>
