<svg width="14" height="15" viewBox="0 0 14 15" fill="none" xmlns="http://www.w3.org/2000/svg">
<path d="M5.75464 4.39727C5.75464 3.99774 6.07842 3.67369 6.47795 3.67369C6.87748 3.67369 7.20126 3.99774 7.20126 4.39727V7.42942L9.20683 8.31106C9.57217 8.47186 9.73789 8.89818 9.57709 9.26325C9.4163 9.62833 8.98997 9.79404 8.6249 9.63352L6.2239 8.57796C5.94962 8.47514 5.75464 8.2107 5.75464 7.90059V4.39727ZM0.146483 4.60893C0.1257 4.5474 0.112847 4.48204 0.109292 4.41395L-9.27319e-05 2.40428C-0.0206024 2.00639 0.285675 1.6673 0.683562 1.64706C1.08145 1.62655 1.42054 1.93283 1.44078 2.33072L1.46101 2.70263C1.75903 2.31913 2.09641 1.96791 2.46763 1.65472C2.95904 1.24015 3.51718 0.886566 4.13602 0.610643C5.9045 -0.178295 7.82366 -0.176381 9.49642 0.464341C11.1522 1.09877 12.569 2.35861 13.3632 4.09674C13.3842 4.13447 13.402 4.1744 13.4162 4.21597C14.1781 5.96776 14.1691 7.86204 13.5357 9.51593C12.9013 11.1717 11.6415 12.5886 9.90333 13.3824C9.79567 13.4428 9.67426 13.4743 9.55084 13.474C9.15131 13.474 8.82753 13.1502 8.82753 12.7507C8.82753 12.4362 9.02826 12.1688 9.30855 12.0692C9.51885 11.9727 9.72039 11.865 9.91263 11.7466C9.93451 11.7285 9.95775 11.7116 9.98236 11.6957C10.2922 11.4955 10.5867 11.2664 10.8531 11.0109C10.8706 10.9943 10.8889 10.9784 10.9078 10.9639C11.4727 10.4033 11.9053 9.7317 12.1851 9.00155C12.6954 7.66979 12.6984 6.14497 12.073 4.7432L12.0727 4.74238C11.4473 3.34061 10.3119 2.32443 8.98204 1.81497C7.65028 1.30496 6.12546 1.30195 4.72369 1.92709C4.24573 2.14 3.80016 2.41921 3.40013 2.7565C3.1305 2.98402 2.88603 3.23396 2.66862 3.50278L2.76297 3.49102C3.15921 3.44262 3.51991 3.72483 3.56831 4.12107C3.61672 4.51732 3.3345 4.87802 2.93826 4.92642L0.940343 5.17254C0.566794 5.21793 0.224966 4.9699 0.146483 4.60893ZM7.75119 13.9876C8.32218 13.9236 8.59454 13.2512 8.22865 12.8073C8.07251 12.6178 7.83514 12.5246 7.59176 12.5497C7.16625 12.5976 6.74047 12.5968 6.31524 12.5462C6.05982 12.5158 5.8107 12.6205 5.65373 12.8243C5.31573 13.2736 5.584 13.9118 6.14104 13.9824C6.67648 14.0464 7.2152 14.0477 7.75119 13.9876ZM3.13679 12.8754C3.35337 13.0193 3.62273 13.0357 3.85654 12.923C4.3567 12.6752 4.40265 11.982 3.93885 11.6716C3.58855 11.4406 3.25137 11.1531 2.96506 10.8469C2.70308 10.5679 2.27374 10.5392 1.97758 10.7815C1.9011 10.8442 1.83829 10.9219 1.79305 11.0099C1.7478 11.0978 1.72109 11.1941 1.71455 11.2928C1.70802 11.3915 1.7218 11.4905 1.75505 11.5836C1.7883 11.6768 1.8403 11.7621 1.90785 11.8343C2.27265 12.2227 2.69159 12.582 3.13679 12.8754ZM0.297707 9.07812C0.377558 9.33627 0.590859 9.52441 0.855843 9.57527C1.39019 9.67454 1.84058 9.16946 1.67978 8.65042C1.55235 8.24023 1.47496 7.82293 1.44351 7.39441C1.40632 6.89316 0.890846 6.58442 0.430063 6.78377C0.149218 6.91093 -0.0200555 7.18822 0.000454192 7.49669C0.0392858 8.03432 0.137732 8.56319 0.297707 9.07812Z" fill="#4D6090"/>
</svg>
