<svg width="22" height="23" viewBox="0 0 22 23" fill="none" xmlns="http://www.w3.org/2000/svg">
<g id="_icons">
<g id="Group">
<path id="Vector" d="M11 19.9411C6.23333 19.9411 2.44444 16.1522 2.44444 11.3855C2.44444 6.61885 6.23333 2.82997 11 2.82997C13.4444 2.82997 15.7667 3.92997 17.3556 5.64108L15.1556 6.00774C14.5444 6.12996 14.0556 6.74108 14.1778 7.47441C14.3 8.08552 14.7889 8.45219 15.4 8.45219H15.6444L20.7778 7.47441C21.3889 7.35219 21.8778 6.74108 21.7556 6.00774L20.7778 0.996632C20.6556 0.385521 20.0444 -0.103368 19.3111 0.0188541C18.7 0.141076 18.2111 0.752188 18.3333 1.48552L18.7 3.5633C16.6222 1.60774 13.9333 0.385521 11 0.385521C6.96667 0.385521 3.42222 2.58552 1.46667 5.88552C0.488889 7.59663 0 9.42997 0 11.3855C0 13.3411 0.488889 15.1744 1.46667 16.8855C2.44444 18.5966 3.78889 19.9411 5.5 20.9189C7.21111 21.8966 9.04445 22.3855 11 22.3855C11.4889 22.3855 11.9778 22.0189 12.1 21.6522C12.2222 21.53 12.2222 21.2855 12.2222 21.1633C12.2222 21.0411 12.2222 20.7966 12.1 20.6744C11.9778 20.3077 11.4889 19.9411 11 19.9411Z" fill="#292D32"/>
<path id="Vector_2" d="M20.7779 12.608C21.4529 12.608 22.0001 12.0608 22.0001 11.3858C22.0001 10.7108 21.4529 10.1636 20.7779 10.1636C20.1029 10.1636 19.5557 10.7108 19.5557 11.3858C19.5557 12.0608 20.1029 12.608 20.7779 12.608Z" fill="#292D32"/>
<path id="Vector_3" d="M20.51 16.9159C20.8475 16.3313 20.6472 15.5838 20.0626 15.2463C19.4781 14.9088 18.7306 15.1091 18.3931 15.6936C18.0556 16.2782 18.2559 17.0257 18.8404 17.3632C19.425 17.7007 20.1725 17.5004 20.51 16.9159Z" fill="#292D32"/>
<path id="Vector_4" d="M16.4818 20.8813C17.0664 20.5438 17.2667 19.7963 16.9292 19.2117C16.5917 18.6271 15.8442 18.4269 15.2596 18.7644C14.6751 19.1019 14.4748 19.8494 14.8123 20.4339C15.1498 21.0185 15.8973 21.2188 16.4818 20.8813Z" fill="#292D32"/>
<path id="Vector_5" d="M12.2223 10.8968V7.71905C12.2223 6.98572 11.7334 6.49683 11.0001 6.49683C10.2667 6.49683 9.77783 6.98572 9.77783 7.71905V11.3857C9.77783 11.7524 9.90005 11.9968 10.1445 12.2413L12.5889 14.6857C12.8334 14.9302 13.2001 15.0524 13.4445 15.0524C13.6889 15.0524 14.0556 14.9302 14.3001 14.6857C14.7889 14.1968 14.7889 13.4635 14.3001 12.9746L12.2223 10.8968Z" fill="#292D32"/>
</g>
</g>
</svg>
