<svg width="14" height="15" viewBox="0 0 14 15" fill="none" xmlns="http://www.w3.org/2000/svg">
<path d="M5.75586 4.39727C5.75586 3.99774 6.07964 3.67369 6.47917 3.67369C6.8787 3.67369 7.20248 3.99774 7.20248 4.39727V7.42942L9.20805 8.31106C9.57339 8.47186 9.73911 8.89818 9.57831 9.26325C9.41752 9.62833 8.99119 9.79404 8.62612 9.63352L6.22512 8.57796C5.95084 8.47514 5.75586 8.2107 5.75586 7.90059V4.39727ZM0.147704 4.60893C0.12692 4.5474 0.114068 4.48204 0.110513 4.41395L0.00112797 2.40428C-0.0193817 2.00639 0.286896 1.6673 0.684783 1.64706C1.08267 1.62655 1.42176 1.93283 1.442 2.33072L1.46224 2.70263C1.76025 2.31913 2.09763 1.96791 2.46885 1.65472C2.96026 1.24015 3.5184 0.886566 4.13724 0.610643C5.90572 -0.178295 7.82488 -0.176381 9.49764 0.464341C11.1535 1.09877 12.5703 2.35861 13.3644 4.09674C13.3855 4.13447 13.4032 4.1744 13.4174 4.21597C14.1793 5.96776 14.1703 7.86204 13.5369 9.51593C12.9025 11.1717 11.6427 12.5886 9.90455 13.3824C9.79689 13.4428 9.67548 13.4743 9.55206 13.474C9.15253 13.474 8.82875 13.1502 8.82875 12.7507C8.82875 12.4362 9.02948 12.1688 9.30977 12.0692C9.52007 11.9727 9.72161 11.865 9.91385 11.7466C9.93573 11.7285 9.95897 11.7116 9.98358 11.6957C10.2934 11.4955 10.5879 11.2664 10.8543 11.0109C10.8718 10.9943 10.8901 10.9784 10.909 10.9639C11.474 10.4033 11.9066 9.7317 12.1863 9.00155C12.6966 7.66979 12.6996 6.14497 12.0742 4.7432L12.0739 4.74238C11.4485 3.34061 10.3131 2.32443 8.98326 1.81497C7.6515 1.30496 6.12668 1.30195 4.72491 1.92709C4.24695 2.14 3.80138 2.41921 3.40135 2.7565C3.13172 2.98402 2.88725 3.23396 2.66984 3.50278L2.76419 3.49102C3.16043 3.44262 3.52113 3.72483 3.56953 4.12107C3.61794 4.51732 3.33572 4.87802 2.93948 4.92642L0.941564 5.17254C0.568015 5.21793 0.226187 4.9699 0.147704 4.60893ZM7.75241 13.9876C8.3234 13.9236 8.59577 13.2512 8.22987 12.8073C8.07373 12.6178 7.83636 12.5246 7.59298 12.5497C7.16747 12.5976 6.74169 12.5968 6.31646 12.5462C6.06105 12.5158 5.81192 12.6205 5.65495 12.8243C5.31696 13.2736 5.58522 13.9118 6.14226 13.9824C6.6777 14.0464 7.21642 14.0477 7.75241 13.9876ZM3.13801 12.8754C3.35459 13.0193 3.62395 13.0357 3.85776 12.923C4.35792 12.6752 4.40387 11.982 3.94007 11.6716C3.58977 11.4406 3.25259 11.1531 2.96628 10.8469C2.7043 10.5679 2.27496 10.5392 1.97881 10.7815C1.90232 10.8442 1.83951 10.9219 1.79427 11.0099C1.74903 11.0978 1.72231 11.1941 1.71577 11.2928C1.70924 11.3915 1.72302 11.4905 1.75627 11.5836C1.78952 11.6768 1.84152 11.7621 1.90907 11.8343C2.27387 12.2227 2.69281 12.582 3.13801 12.8754ZM0.298928 9.07812C0.378779 9.33627 0.592079 9.52441 0.857064 9.57527C1.39141 9.67454 1.8418 9.16946 1.68101 8.65042C1.55357 8.24023 1.47618 7.82293 1.44473 7.39441C1.40754 6.89316 0.892067 6.58442 0.431284 6.78377C0.150438 6.91093 -0.0188348 7.18822 0.0016749 7.49669C0.0405065 8.03432 0.138953 8.56319 0.298928 9.07812Z" fill="#697081"/>
</svg>
