<svg width="270" height="147" viewBox="0 0 270 147" fill="none" xmlns="http://www.w3.org/2000/svg">
<g style="mix-blend-mode:lighten">
<path d="M89.2772 44.7045C89.2713 41.2169 89.2731 37.8054 89.2825 34.47C89.2837 34.1112 89.2435 33.7023 89.1621 33.2432" stroke="#131827" stroke-width="0.1"/>
<path d="M89.1639 33.2433C88.6671 31.408 87.586 30.2337 85.9206 29.7203C85.3648 29.5491 84.4778 29.4642 83.2598 29.4653C76.8818 29.4689 70.5038 29.4707 64.1258 29.4707C62.4333 29.4689 61.2064 29.5946 60.0309 30.6072C58.866 31.6092 58.2848 32.9264 58.2871 34.5587C58.2942 39.3835 58.3066 44.1375 58.3243 48.8207" stroke="#000712" stroke-width="0.1"/>
<path d="M58.3221 48.8213L58.3203 53.4561" stroke="#131827" stroke-width="0.1"/>
<path d="M58.3208 53.4546C58.2807 53.4735 58.2464 53.5006 58.2181 53.536C58.2171 53.5365 58.2161 53.5368 58.2151 53.5368C58.2142 53.5368 58.2134 53.5365 58.2128 53.536C58.1986 53.5207 58.1839 53.5065 58.1685 53.4935C58.1367 53.4688 58.1013 53.4581 58.0623 53.4617C48.2262 54.5381 37.82 55.3701 28.8213 60.1147C17.1423 66.272 9.06941 78.4149 5.11974 90.6941C5.11148 90.7189 5.1103 90.7413 5.11621 90.7613C5.12329 90.7814 5.13332 90.8021 5.1463 90.8233C5.16637 90.8552 5.15751 90.8735 5.11974 90.8782C5.0808 90.8829 5.06487 90.9047 5.07195 90.9437" stroke="#000712" stroke-width="0.1"/>
<path d="M5.07058 90.9448L0.70664 90.9519C0.655462 90.9519 0.606381 90.9724 0.570192 91.0089C0.534004 91.0455 0.513672 91.095 0.513672 91.1466V95.2716" stroke="#0A0E1A" stroke-width="0.1"/>
<path d="M0.513672 95.2715L0.526066 115.505C0.526066 115.579 0.563241 115.616 0.637596 115.616L1.49976 115.622" stroke="#131827" stroke-width="0.1"/>
<path d="M1.49805 115.622C1.5783 116.634 1.65502 117.642 1.72819 118.644C2.43456 128.23 5.05115 137.51 9.4027 146.061C9.4276 146.111 9.46603 146.153 9.51362 146.182C9.5612 146.211 9.61601 146.226 9.67179 146.226L77.5845 146.178" stroke="#000712" stroke-width="0.1"/>
<path d="M77.5809 146.179C77.5431 146.182 77.5579 146.201 77.6252 146.235C77.6452 146.246 77.6671 146.251 77.6907 146.251C78.9476 146.257 80.2949 146.258 81.7324 146.255" stroke="#131827" stroke-width="0.1"/>
<path d="M81.7402 146.255L94.4479 146.248C94.4746 146.248 94.5011 146.242 94.5255 146.231C94.5498 146.22 94.5714 146.204 94.5888 146.183C94.6061 146.163 94.6188 146.139 94.626 146.113C94.6331 146.087 94.6346 146.06 94.6302 146.034C94.5771 145.709 94.6196 145.415 94.7577 145.15" stroke="#0A0E1A" stroke-width="0.1"/>
<path d="M94.7539 145.15C95.8716 145.888 97.0158 146.257 98.1866 146.257C137.491 146.272 176.795 146.275 216.1 146.266" stroke="#3E4857" stroke-width="0.1"/>
<path d="M216.102 146.265H218.939" stroke="#505867" stroke-width="0.1"/>
<path d="M218.939 146.265L234.276 146.262" stroke="#3E4857" stroke-width="0.1"/>
<path d="M234.273 146.262C235.351 146.308 236.419 146.245 237.478 146.074" stroke="#505867" stroke-width="0.1"/>
<path d="M237.48 146.074C238.238 146.155 238.966 146.236 239.741 146.235C244.408 146.223 249.05 146.222 253.667 146.231C253.724 146.231 253.779 146.213 253.825 146.18C253.871 146.146 253.905 146.099 253.922 146.045C254.983 142.661 255.724 139.166 256.145 135.558" stroke="#000712" stroke-width="0.1"/>
<path d="M256.145 135.558C258.509 134.933 259.979 133.394 260.555 130.941C260.665 130.476 260.353 130.323 259.94 130.368C258.362 130.533 256.794 130.777 255.237 131.101C255.154 131.117 255.142 131.095 255.199 131.033C257.032 129.075 258.531 127.161 259.694 125.29C260.048 124.72 259.893 124.333 259.227 124.129C259.216 124.126 259.207 124.119 259.2 124.11C259.194 124.1 259.19 124.089 259.191 124.078C259.191 124.067 259.195 124.056 259.202 124.047C259.21 124.038 259.219 124.032 259.231 124.03C259.664 123.925 260.128 123.886 260.5 123.7C262.688 122.603 264.34 120.409 264.995 118.143C265.126 117.694 264.878 117.047 264.301 117.299C263.255 117.754 262.038 118.023 261.119 118.565C260.155 119.132 259.267 119.814 258.455 120.609C258.446 120.619 258.434 120.625 258.421 120.627C258.408 120.629 258.394 120.626 258.383 120.618C258.372 120.611 258.364 120.6 258.36 120.588C258.356 120.575 258.356 120.561 258.361 120.549C258.814 119.283 259.167 117.989 259.42 116.669C259.429 116.62 259.458 116.589 259.507 116.577C264.019 115.396 267.505 110.906 269.203 106.785C269.509 106.041 269.189 105.39 268.32 105.485C266.567 105.679 264.817 105.923 263.07 106.218C263.01 106.229 262.977 106.204 262.97 106.144C262.842 105.118 262.705 104.095 262.557 103.074C262.449 102.318 261.755 101.293 261.075 102.417C260.757 102.941 260.464 103.437 260.025 103.922C258.942 105.121 258.269 106.533 258.005 108.158C258.001 108.186 257.99 108.212 257.975 108.235C257.959 108.258 257.938 108.276 257.913 108.289C256.987 108.799 256.132 109.409 255.35 110.118C255.34 110.127 255.328 110.131 255.315 110.132C255.303 110.133 255.29 110.13 255.28 110.123C255.269 110.116 255.261 110.105 255.257 110.093C255.252 110.081 255.252 110.068 255.256 110.056C255.831 108.419 256.2 106.743 256.364 105.028C256.408 104.579 256.417 103.717 256.391 102.442C256.352 100.537 256.708 98.5897 256.697 96.8034C256.689 95.1935 256.607 93.8451 256.451 92.7581C256.06 90.03 254.628 87.0452 252.314 85.2376C252.271 85.2043 252.219 85.1862 252.165 85.1863C251.835 85.1839 251.612 85.1993 251.498 85.2323C251.152 85.3297 251.211 85.7369 251.156 85.9528C250.763 87.5261 250.477 88.8798 250.299 90.014C249.755 93.4662 250.19 96.801 251.604 100.018" stroke="#0A0E1A" stroke-width="0.1"/>
<path d="M251.603 100.018L250.943 100.342C250.916 100.356 250.886 100.364 250.856 100.365C250.826 100.367 250.796 100.363 250.768 100.353C250.739 100.343 250.713 100.327 250.691 100.307C250.669 100.286 250.651 100.262 250.638 100.234C249.825 98.4439 248.934 96.7232 247.965 95.072C247.834 94.8478 247.757 94.6034 247.733 94.3391C247.508 91.7768 246.803 89.349 245.619 87.0558C245.361 86.5548 244.309 84.6995 243.711 86.0361C243.457 86.605 243.251 87.175 243.091 87.7463C243.087 87.7619 243.078 87.776 243.066 87.7871C243.054 87.7982 243.04 87.8058 243.024 87.8091C243.008 87.8124 242.991 87.8112 242.976 87.8058C242.961 87.8003 242.947 87.7907 242.937 87.7781C240.984 85.3315 238.776 83.1126 236.312 81.1216" stroke="#000712" stroke-width="0.1"/>
<path d="M236.315 81.1226C237.313 75.3052 238.316 69.4536 239.323 63.5677C239.543 62.2718 239.62 61.3111 239.553 60.6856C239.245 57.8442 236.993 55.6595 234.111 55.479C233.502 55.4412 232.542 55.4382 231.23 55.4701" stroke="#505867" stroke-width="0.1"/>
<path d="M231.23 55.4693L211.682 55.4463" stroke="#3E4857" stroke-width="0.1"/>
<path d="M211.683 55.4468C210.88 54.0482 210.056 52.675 209.211 51.3272C206.439 46.9048 203.757 42.3815 200.453 36.9731C197.525 32.1766 194.391 27.5808 191.051 23.1855" stroke="#000712" stroke-width="0.1"/>
<path d="M191.049 23.185L189.67 21.4624" stroke="#0A0E1A" stroke-width="0.1"/>
<path d="M189.667 21.4619C185.234 15.9579 179.896 10.8592 173.865 7.25124C167.5 3.44674 160.417 1.35063 152.982 0.851392C143.217 0.195179 134.429 2.83537 126.616 8.77197C122.014 12.2684 117.962 16.365 114.074 20.7962C109.443 26.0755 104.994 31.3653 99.8938 36.3984C96.6434 39.6051 93.1033 42.374 89.2734 44.7049" stroke="#000712" stroke-width="0.1"/>
<path d="M189.669 21.4624L187.325 34.301C187.323 34.3141 187.316 34.3261 187.307 34.3349C187.297 34.3438 187.285 34.349 187.271 34.3499C187.258 34.3507 187.245 34.347 187.234 34.3394C187.222 34.3319 187.214 34.3208 187.21 34.3081L185.191 27.9862" stroke="#0A141C" stroke-width="0.1"/>
<path d="M185.192 27.9846C185.817 27.4959 186.084 26.8692 185.994 26.1044C185.764 24.1517 183.064 23.6861 182.2 25.4937C181.803 26.3245 181.949 27.1171 182.64 27.8713" stroke="#2D3C4F" stroke-width="0.1"/>
<path d="M182.642 27.8737L180.064 41.6825C180.061 41.696 180.054 41.7081 180.043 41.7169C180.032 41.7256 180.019 41.7304 180.005 41.7307C179.991 41.7309 179.978 41.7264 179.966 41.718C179.955 41.7096 179.948 41.6977 179.944 41.6843C179.042 37.6077 178.144 33.5442 177.25 29.4936C177.178 29.1666 177.094 28.9418 176.998 28.8191C176.586 28.288 175.823 28.4933 175.585 29.0935C174.652 31.4551 173.745 33.7666 172.864 36.028C172.781 36.2404 172.704 36.238 172.636 36.0209C171.688 33.0632 170.748 30.1285 169.816 27.2169C169.472 26.1423 168.662 26.1458 168.086 27.0646C167.258 28.3865 166.44 29.7101 165.632 31.0356C165.626 31.0455 165.617 31.0535 165.606 31.0584C165.595 31.0633 165.583 31.0651 165.572 31.0634C165.56 31.0617 165.549 31.0567 165.54 31.0489C165.531 31.0412 165.524 31.031 165.521 31.0196C164.488 27.1307 163.458 23.2336 162.43 19.3282C162.283 18.7723 162.083 18.2943 161.446 18.374C160.888 18.443 160.768 18.8148 160.665 19.3069C159.703 23.9559 158.751 28.5783 157.807 33.1741C157.758 33.4173 157.702 33.419 157.639 33.1795L155.318 24.271" stroke="#0A141C" stroke-width="0.1"/>
<path d="M155.315 24.2692C155.762 23.8738 156.003 23.397 156.037 22.8387C156.186 20.3815 152.696 19.845 152.1 22.2386C151.908 23.0093 152.142 23.692 152.801 24.2869" stroke="#2D3C4F" stroke-width="0.1"/>
<path d="M152.802 24.2886L150.21 32.2676C150.205 32.2816 150.197 32.2941 150.185 32.3036C150.174 32.3132 150.16 32.3193 150.146 32.3214C150.131 32.3234 150.117 32.3213 150.104 32.3152C150.09 32.3091 150.079 32.2993 150.072 32.2871C149.21 30.9498 148.345 29.6038 147.476 28.2489C147.028 27.5549 146.147 27.5584 145.878 28.3675C144.849 31.4562 143.804 34.5378 142.744 37.6123" stroke="#0A141C" stroke-width="0.1"/>
<path d="M142.748 37.6104C141.229 37.8458 140.501 39.402 141.296 40.7138C142.113 42.0593 144.285 41.8344 144.842 40.358C145.163 39.5117 144.991 38.7629 144.325 38.1114" stroke="#2D3C4F" stroke-width="0.1"/>
<path d="M144.322 38.1112L146.884 30.5518C146.888 30.541 146.894 30.5315 146.903 30.5244C146.912 30.5172 146.923 30.5128 146.934 30.5115C146.945 30.5102 146.957 30.5121 146.967 30.517C146.977 30.522 146.986 30.5297 146.992 30.5394C147.849 31.8943 148.72 33.2522 149.605 34.613C150.233 35.5814 150.998 35.2167 151.31 34.2518C152.194 31.5019 153.08 28.7649 153.969 26.0409C153.973 26.0295 153.98 26.0197 153.99 26.0129C154 26.0061 154.012 26.0027 154.024 26.0031C154.036 26.0035 154.048 26.0077 154.057 26.0151C154.067 26.0226 154.074 26.0328 154.077 26.0444C155.035 29.7587 155.995 33.467 156.957 37.1694C157.045 37.5057 157.169 37.7359 157.329 37.8598C157.814 38.2334 158.512 37.9625 158.641 37.3464C159.631 32.5594 160.613 27.7794 161.585 23.0065C161.587 22.9951 161.593 22.9848 161.602 22.9773C161.61 22.9698 161.621 22.9655 161.633 22.9653C161.645 22.9651 161.656 22.9689 161.665 22.9761C161.674 22.9833 161.68 22.9934 161.682 23.0047C162.577 26.3956 163.47 29.7799 164.363 33.1577C164.452 33.5 164.569 33.7337 164.711 33.8588C165.117 34.2146 165.689 34.0624 165.972 33.6092C166.869 32.1728 167.758 30.7382 168.64 29.3054C168.646 29.2957 168.654 29.2878 168.664 29.2827C168.674 29.2777 168.686 29.2757 168.697 29.277C168.708 29.2783 168.719 29.2829 168.728 29.2901C168.736 29.2974 168.743 29.307 168.746 29.3178C169.768 32.5104 170.791 35.7106 171.816 38.9185C171.98 39.4331 172.303 39.6697 172.786 39.6284C173.02 39.6089 173.312 39.4142 173.393 39.2071C174.293 36.9221 175.183 34.6431 176.065 32.3699C176.07 32.3561 176.079 32.3443 176.092 32.3364C176.104 32.3285 176.119 32.3249 176.133 32.3261C176.148 32.3273 176.162 32.3333 176.173 32.3431C176.184 32.3529 176.191 32.3661 176.194 32.3806C177.19 36.928 178.193 41.4778 179.204 46.03C179.338 46.6302 179.629 47.1028 180.305 46.9046C180.841 46.7488 180.875 46.3398 180.967 45.853C181.97 40.4852 182.967 35.1276 183.959 29.7799C183.961 29.7709 183.966 29.7628 183.973 29.7568C183.98 29.7508 183.988 29.7473 183.998 29.7467C184.007 29.7461 184.016 29.7485 184.024 29.7535C184.031 29.7585 184.037 29.7659 184.04 29.7746C184.892 32.4821 185.746 35.1854 186.602 37.8846C186.717 38.2475 186.814 38.5998 187.191 38.7255C187.933 38.9734 188.257 38.4476 188.376 37.7855C189.233 32.9854 190.124 28.1181 191.049 23.1835" stroke="#0A141C" stroke-width="0.1"/>
<path d="M211.678 55.4463C179.532 55.4486 147.425 55.4486 115.356 55.4463C114.016 55.4463 113.076 55.5 112.538 55.6074C109.688 56.1774 107.282 58.2045 106.138 60.8229C105.865 61.4508 105.62 62.402 105.402 63.6767C101.987 83.6097 98.5669 103.542 95.1406 123.474" stroke="#3E4E5A" stroke-width="0.1"/>
<path d="M95.1433 123.474L87.8017 123.426C87.7379 123.425 87.7007 123.393 87.6901 123.33C87.3803 121.608 87.398 119.779 87.2936 118.028C87.29 117.968 87.303 117.912 87.3325 117.86C87.8583 116.904 88.0159 115.505 88.2478 114.436C88.2608 114.378 88.2879 114.327 88.3292 114.284C88.583 114.021 88.8007 113.731 88.9825 113.415C89.3649 112.752 89.7225 112.402 90.3209 112.069C92.9611 110.6 95.164 108.684 96.9296 106.322C97.5085 105.549 98.1883 104.203 97.227 103.548C96.8287 103.277 96.2533 103.286 95.8161 103.44C93.0401 104.421 90.7829 106.802 89.1843 109.228C89.1788 109.235 89.171 109.241 89.162 109.244C89.153 109.247 89.1434 109.247 89.1346 109.244C89.1259 109.241 89.1186 109.235 89.1138 109.227C89.109 109.219 89.107 109.21 89.1082 109.201C89.5331 104.945 89.9278 100.719 89.9987 96.4332C90.0459 93.6479 89.716 91.0177 89.009 88.5428C88.7311 87.5726 86.8457 82.3518 85.1036 84.0868C84.1901 84.995 84.4539 88.0311 84.7496 89.1801C85.5922 92.4411 87.2245 95.3604 88.5965 98.4072C88.7063 98.6503 88.7535 98.9094 88.7382 99.1844C88.5234 103.163 88.1634 107.127 87.6583 111.078C87.4989 112.329 87.2281 113.558 86.9554 114.787C86.953 114.798 86.9466 114.809 86.9372 114.816C86.9279 114.824 86.9162 114.828 86.9042 114.828C86.8923 114.827 86.8807 114.823 86.8717 114.815C86.8626 114.807 86.8565 114.797 86.8545 114.785C85.656 107.847 82.0002 100.418 75.3029 97.2405C74.2743 96.7519 72.5128 96.1217 71.378 96.4014C67.4248 97.3768 73.2316 104.458 74.3682 105.69C77.314 108.887 80.7887 111.328 84.792 113.014C85.1107 113.149 85.3532 113.384 85.4294 113.698C85.8578 115.429 86.1015 117.292 86.1605 119.287C86.1629 119.382 86.1393 119.389 86.0897 119.308C85.2842 117.964 83.9263 116.336 82.4888 115.661C81.0283 114.978 80.0245 115.828 80.6211 117.343C80.7769 117.741 80.9551 118.086 81.1557 118.379C82.2085 119.915 83.5197 121.597 85.0895 123.422" stroke="#0A141C" stroke-width="0.1"/>
<path d="M85.089 123.422L71.7352 123.427C71.701 123.427 71.6868 123.444 71.6927 123.479L72.9196 131.043C72.929 131.1 72.9621 131.128 73.0187 131.128L75.129 131.116" stroke="#131F29" stroke-width="0.1"/>
<path d="M75.1309 131.115L75.182 131.343" stroke="#3E4E5A" stroke-width="0.1"/>
<path d="M75.1816 131.347L77.5876 146.181" stroke="#131F29" stroke-width="0.1"/>
<path d="M1.49805 115.621L6.0337 115.634C6.10806 115.634 6.14524 115.596 6.14524 115.522L6.15763 95.1558" stroke="#131F29" stroke-width="0.1"/>
<path d="M6.15908 95.1565L6.15023 91.0847C6.14905 91.0091 6.11128 90.9702 6.03693 90.9678L5.07031 90.9448" stroke="#0A141C" stroke-width="0.1"/>
<path d="M58.3212 53.4546C58.3035 54.2353 58.2894 55.0745 58.5266 55.8021C59.0601 57.4332 60.1058 58.4924 61.6637 58.9799C62.1995 59.1463 63.0121 59.2301 64.1015 59.2313C70.0357 59.2336 75.9953 59.2283 81.9803 59.2153" stroke="#131F29" stroke-width="0.1"/>
<path d="M81.9785 59.2172L85.0288 63.4909C85.0678 63.5452 85.115 63.5534 85.1705 63.5157L87.4348 61.9595C87.4843 61.9265 87.492 61.8852 87.4578 61.8356L85.5192 59.127" stroke="#202F3C" stroke-width="0.1"/>
<path d="M85.5176 59.1269C87.3351 58.597 88.4965 57.5466 89.0016 55.9757C89.1799 55.4245 89.2684 54.4892 89.2672 53.1696C89.266 50.2922 89.2684 47.4709 89.2743 44.7056" stroke="#131F29" stroke-width="0.1"/>
<path d="M182.641 27.8726C183.493 28.4981 184.344 28.5359 185.193 27.9859" stroke="#374357" stroke-width="0.1"/>
<path d="M144.322 38.1126C143.838 37.7184 143.312 37.5514 142.744 37.6116" stroke="#374357" stroke-width="0.1"/>
<path d="M152.803 24.2863C153.632 24.8481 154.47 24.8422 155.317 24.2686" stroke="#374357" stroke-width="0.1"/>
<path d="M6.15934 95.1558C6.12512 95.1593 6.09561 95.1646 6.07083 95.1717C6.03116 95.1835 5.99349 95.1944 5.96438 95.2024C5.93526 95.2105 5.91655 95.2153 5.9115 95.216L0.513672 95.2708" stroke="#1D2631" stroke-width="0.1"/>
<path d="M231.229 55.4683C232.965 55.7468 234.295 56.4927 235.218 57.706C235.878 58.5711 236.271 59.5472 236.397 60.6342C236.469 61.2573 236.388 62.2511 236.154 63.6155C231.88 88.5456 227.601 113.475 223.318 138.404C223.133 139.474 222.912 140.301 222.654 140.888C221.551 143.393 219.116 145.611 216.303 146.068C216.247 146.078 216.203 146.106 216.172 146.153L216.102 146.265" stroke="#8DA0AF" stroke-width="0.1"/>
<path d="M94.7537 145.149C93.3764 144.082 92.5945 142.725 92.408 141.076C92.3348 140.43 92.421 139.385 92.6665 137.939C93.4844 133.115 94.3094 128.293 95.1415 123.473" stroke="#485562" stroke-width="0.1"/>
<path d="M84.0175 131.337L75.1816 131.346" stroke="#51606F" stroke-width="0.1"/>
<path d="M85.518 59.1259L81.9313 54.1052C81.89 54.0474 81.8392 54.0373 81.779 54.0751L81.5117 54.2433" stroke="#334151" stroke-width="0.1"/>
<path d="M81.5118 54.2433L79.1289 50.8018" stroke="#1D2631" stroke-width="0.1"/>
<path d="M77.4141 51.9746L79.7828 55.4286" stroke="#1D2631" stroke-width="0.1"/>
<path d="M79.7809 55.4277C79.5449 55.5481 79.4652 55.6638 79.5419 55.7747C80.3338 56.9137 81.1458 58.0608 81.9779 59.2163" stroke="#334151" stroke-width="0.1"/>
<path d="M81.7402 146.256L84.0984 131.785C84.109 131.724 84.096 131.668 84.0594 131.617C83.9898 131.522 83.9762 131.428 84.0187 131.337" stroke="#1D2631" stroke-width="0.1"/>
<path d="M84.0156 131.336L87.9387 131.338C88.0143 131.338 88.0514 131.3 88.0503 131.224L88.0485 131.056C88.0485 130.99 88.0154 130.957 87.9494 130.957H86.4233" stroke="#485562" stroke-width="0.1"/>
<path d="M86.4227 130.957L87.6301 123.551C87.6324 123.537 87.6316 123.523 87.6278 123.509C87.624 123.495 87.6172 123.482 87.6079 123.471C87.5987 123.46 87.5872 123.451 87.5742 123.445C87.5612 123.439 87.5471 123.436 87.5328 123.436L85.0879 123.422" stroke="#1D2631" stroke-width="0.1"/>
<path d="M86.4257 130.957L75.2636 130.977C75.2093 130.978 75.1728 131.004 75.1539 131.054L75.1309 131.116" stroke="#51606F" stroke-width="0.1"/>
<path d="M81.5107 54.2437L79.7793 55.428" stroke="#2A3644" stroke-width="0.1"/>
<path d="M236.314 81.1216C235.693 84.6894 235.09 88.2219 234.506 91.7189C234.448 92.0589 234.451 92.3982 234.515 92.7369C236.598 103.883 238.7 115.109 240.819 126.414" stroke="#505F69" stroke-width="0.1"/>
<path d="M240.816 126.416L242.507 135.463" stroke="#5A6671" stroke-width="0.1"/>
<path d="M242.51 135.46C242.882 137.42 243.26 138.797 243.059 140.557" stroke="#505F69" stroke-width="0.1"/>
<path d="M243.059 140.556L242.723 141.926" stroke="#5A6671" stroke-width="0.1"/>
<path d="M242.722 141.927C241.706 144.135 239.959 145.518 237.48 146.073" stroke="#505F69" stroke-width="0.1"/>
<path d="M234.276 146.261C234.247 146.126 234.312 146.05 234.473 146.033C235.663 145.911 236.776 145.436 237.811 144.606C239.326 143.39 240.164 141.864 240.325 140.026C240.379 139.416 240.298 138.538 240.083 137.392C237.763 124.985 235.443 112.589 233.124 100.204C233.122 100.197 233.118 100.191 233.112 100.186C233.106 100.182 233.099 100.18 233.092 100.18C233.085 100.18 233.078 100.183 233.072 100.188C233.067 100.192 233.063 100.199 233.062 100.206C230.994 112.266 228.925 124.324 226.855 136.379C226.516 138.357 226.297 139.515 226.198 139.853C225.427 142.478 223.718 144.404 221.071 145.633C220.723 145.795 220.012 146.005 218.939 146.265" stroke="#8DA0AF" stroke-width="0.1"/>
<path d="M82.5085 40.4502C83.3182 44.5716 82.1916 48.022 79.1289 50.8015" stroke="#51606F" stroke-width="0.1"/>
<path d="M79.1313 50.8018L77.4141 51.9737" stroke="#485562" stroke-width="0.1"/>
<path d="M77.4121 51.9735C73.1261 54.1387 68.1939 53.4536 64.8691 49.8916" stroke="#51606F" stroke-width="0.1"/>
<path d="M89.161 33.2432C87.6704 36.3625 85.4533 38.7649 82.5098 40.4503" stroke="#131F29" stroke-width="0.1"/>
<path d="M82.5103 40.4501C81.6817 37.5915 80.1008 35.4641 77.7675 34.0679C71.6403 30.3997 63.6365 33.9776 62.3299 40.9758C61.7127 44.2793 62.5595 47.2512 64.8704 49.8914" stroke="#3E4E5A" stroke-width="0.1"/>
<path d="M64.8708 49.8924C63.9148 50.7303 62.7895 50.9599 61.4947 50.581C60.3546 50.247 59.2971 49.6604 58.3223 48.8213" stroke="#131F29" stroke-width="0.1"/>
<path d="M251.604 100.017L252.375 101.564" stroke="#0A141C" stroke-width="0.1"/>
<path d="M252.376 101.566L251.893 102.929C251.873 102.986 251.874 103.042 251.897 103.099C252.707 105.127 253.426 107.227 254.051 109.4" stroke="#000712" stroke-width="0.1"/>
<path d="M254.048 109.4C253.384 111.525 252.377 113.522 251.028 115.393C250.056 116.737 249.014 117.961 247.9 119.064C247.779 119.184 247.748 119.164 247.806 119.004C248.756 116.395 249.433 113.741 249.049 110.972C248.964 110.356 248.696 109.207 248.245 107.525C247.861 106.095 247.445 104.674 246.995 103.264C246.869 102.866 246.568 102.138 246.232 101.915C245.825 101.646 245.409 101.705 244.984 102.092C241.939 104.864 241.537 109.069 241.746 113.028C241.781 113.688 241.874 114.379 242.024 115.099C242.539 117.583 243.074 120.019 245.11 121.759C245.151 121.794 245.153 121.832 245.115 121.872L240.816 126.415" stroke="#0A141C" stroke-width="0.1"/>
<path d="M256.146 135.559C254.474 135.986 252.072 136.11 250.695 135.007C250.683 134.998 250.67 134.99 250.656 134.986C250.642 134.982 250.627 134.981 250.612 134.982C250.598 134.983 250.584 134.988 250.571 134.995C250.558 135.002 250.546 135.011 250.537 135.023C248.341 137.729 245.736 140.031 242.723 141.929" stroke="#0A141C" stroke-width="0.1"/>
<path d="M243.059 140.557C244.046 139.924 244.958 139.234 245.792 138.485C245.839 138.443 245.838 138.403 245.788 138.365C244.84 137.63 244.118 136.719 243.625 135.632C243.599 135.574 243.554 135.543 243.491 135.538L242.51 135.46" stroke="#0A141C" stroke-width="0.1"/>
<path d="M254.05 109.4C254.548 107.93 254.867 106.461 255.008 104.992C255.013 104.933 254.993 104.883 254.947 104.843C253.916 103.942 253.058 102.85 252.375 101.566" stroke="#0A0E1A" stroke-width="0.1"/>
<path d="M45.6348 80.8547L45.6436 115.525C45.6436 115.595 45.6778 115.63 45.7463 115.63H51.1831C51.2421 115.63 51.2716 115.6 51.2716 115.541L51.2698 80.8335" stroke="#131F29" stroke-width="0.1"/>
<path d="M51.2689 80.8358V76.3426C51.2689 76.2848 51.24 76.2559 51.1822 76.2559H45.7401C45.7096 76.2559 45.6803 76.268 45.6587 76.2896C45.6371 76.3111 45.625 76.3404 45.625 76.3709L45.6339 80.857" stroke="#0A141C" stroke-width="0.1"/>
<path d="M51.2698 80.8335L45.6348 80.8547" stroke="#1D2631" stroke-width="0.1"/>
<path d="M36.6152 85.0361V115.536C36.6152 115.601 36.6477 115.633 36.7126 115.633H42.1529C42.2119 115.633 42.2414 115.604 42.2414 115.545L42.2432 85.0024" stroke="#131F29" stroke-width="0.1"/>
<path d="M42.2432 85.0016V78.5061C42.2432 78.4826 42.2339 78.4601 42.2173 78.4435C42.2007 78.4269 42.1782 78.4176 42.1547 78.4176L36.7161 78.4141C36.65 78.4141 36.617 78.4471 36.617 78.5132L36.6152 85.0352" stroke="#0A141C" stroke-width="0.1"/>
<path d="M42.2432 85.0024L36.6152 85.0361" stroke="#1D2631" stroke-width="0.1"/>
<path d="M27.5898 88.8951L27.5934 115.53C27.5934 115.592 27.6241 115.622 27.6854 115.622L33.1169 115.635C33.1842 115.635 33.2178 115.601 33.2178 115.534L33.2196 88.8721" stroke="#131F29" stroke-width="0.1"/>
<path d="M33.2196 88.8721L33.2178 84.1505C33.2178 84.0868 33.1859 84.055 33.1222 84.055L27.7439 84.0479C27.7242 84.0476 27.7047 84.0513 27.6864 84.0587C27.6682 84.066 27.6516 84.077 27.6376 84.0908C27.6236 84.1046 27.6125 84.1211 27.6049 84.1393C27.5973 84.1574 27.5934 84.1769 27.5934 84.1966L27.5898 88.8951" stroke="#0A141C" stroke-width="0.1"/>
<path d="M33.2196 88.8721L27.5898 88.8951" stroke="#1D2631" stroke-width="0.1"/>
<path d="M9.54669 92.5674L9.54492 115.548C9.54492 115.605 9.57325 115.633 9.6299 115.633H15.0649C15.1357 115.633 15.1711 115.598 15.1711 115.527L15.1817 92.5745" stroke="#131F29" stroke-width="0.1"/>
<path d="M15.1835 92.5734L15.1888 88.4343C15.1888 88.4185 15.1857 88.4028 15.1797 88.3882C15.1736 88.3736 15.1647 88.3603 15.1536 88.3492C15.1424 88.338 15.1291 88.3291 15.1145 88.3231C15.0999 88.317 15.0842 88.3139 15.0684 88.3139L9.63167 88.3086C9.57384 88.3086 9.54492 88.3381 9.54492 88.3971L9.54846 92.5663" stroke="#0A141C" stroke-width="0.1"/>
<path d="M15.18 92.5745L9.54492 92.5674" stroke="#1D2631" stroke-width="0.1"/>
<path d="M18.5625 92.4657L18.5731 115.484C18.5731 115.519 18.5871 115.553 18.612 115.578C18.6369 115.603 18.6707 115.617 18.7059 115.617L24.0524 115.633C24.0704 115.633 24.0883 115.629 24.1051 115.623C24.1218 115.616 24.1371 115.606 24.1499 115.593C24.1628 115.581 24.173 115.566 24.1799 115.549C24.1869 115.532 24.1905 115.514 24.1905 115.496L24.2029 92.4409" stroke="#131F29" stroke-width="0.1"/>
<path d="M24.2029 92.4443V90.4491C24.2029 90.4357 24.2002 90.4224 24.1951 90.41C24.19 90.3977 24.1826 90.3865 24.1732 90.3771C24.1638 90.3677 24.1527 90.3603 24.1404 90.3553C24.1282 90.3504 24.1151 90.3479 24.1019 90.3482L18.6935 90.3535C18.6168 90.3547 18.5784 90.393 18.5784 90.4685L18.5625 92.469" stroke="#0A141C" stroke-width="0.1"/>
<path d="M24.2029 92.4409L18.5625 92.4657" stroke="#1D2631" stroke-width="0.1"/>
<path d="M81.3866 42.9116C81.3866 41.7401 81.1558 40.58 80.7075 39.4977C80.2592 38.4154 79.6021 37.4319 78.7737 36.6036C77.9454 35.7752 76.9619 35.1181 75.8796 34.6698C74.7973 34.2215 73.6372 33.9907 72.4657 33.9907C71.2942 33.9907 70.1342 34.2215 69.0519 34.6698C67.9696 35.1181 66.9861 35.7752 66.1578 36.6036C65.3294 37.4319 64.6723 38.4154 64.224 39.4977C63.7757 40.58 63.5449 41.7401 63.5449 42.9116C63.5449 45.2775 64.4848 47.5466 66.1578 49.2195C67.8307 50.8925 70.0998 51.8324 72.4657 51.8324C74.8317 51.8324 77.1008 50.8925 78.7737 49.2195C80.4467 47.5466 81.3866 45.2775 81.3866 42.9116Z" stroke="#485562" stroke-width="0.1"/>
<path d="M124.914 65.083L114.745 65.1184C114.714 65.1184 114.684 65.1295 114.66 65.1496C114.637 65.1697 114.621 65.1975 114.616 65.2282L102.374 136.529C102.372 136.538 102.373 136.548 102.375 136.556C102.378 136.565 102.382 136.573 102.388 136.58C102.394 136.587 102.401 136.593 102.409 136.596C102.418 136.6 102.427 136.602 102.436 136.602L178.211 136.613" stroke="#3E4E5A" stroke-width="0.1"/>
<path d="M178.209 136.614L214.082 136.578C214.112 136.578 214.14 136.567 214.163 136.548C214.186 136.528 214.201 136.501 214.206 136.472L217.941 114.392" stroke="#52626F" stroke-width="0.1"/>
<path d="M217.939 114.392C217.952 114.403 217.964 114.413 217.975 114.42C218 114.433 218.015 114.426 218.021 114.399L226.825 65.2784C226.83 65.2547 226.826 65.2302 226.815 65.2087C226.804 65.1872 226.787 65.17 226.765 65.1597C226.668 65.1149 226.544 65.1356 226.393 65.2217" stroke="#BDC7CF" stroke-width="0.1"/>
<path d="M226.394 65.2217C226.345 65.1438 226.29 65.1042 226.23 65.1031C200.969 65.0452 167.197 65.0387 124.912 65.0836" stroke="#52626F" stroke-width="0.1"/>
<path d="M226.393 65.2207L217.939 114.391" stroke="#949A9F" stroke-width="0.1"/>
<path d="M178.21 136.613C178.364 136.542 178.548 136.529 178.763 136.574C178.765 136.575 178.766 136.574 178.766 136.572C178.766 136.571 178.765 136.569 178.764 136.568C178.764 136.562 178.762 136.559 178.757 136.559C178.059 136.524 177.36 136.506 176.661 136.505C151.975 136.455 127.296 136.386 102.625 136.297C102.615 136.297 102.605 136.295 102.596 136.291C102.587 136.287 102.579 136.281 102.573 136.273C102.567 136.265 102.562 136.257 102.559 136.247C102.557 136.238 102.556 136.228 102.557 136.218L114.785 65.3999C114.794 65.3527 114.822 65.3285 114.87 65.3273C118.078 65.2707 121.285 65.2913 124.49 65.3893C124.77 65.3981 125.039 65.3326 125.324 65.3025C125.369 65.2978 125.393 65.273 125.395 65.2282C125.397 65.1727 125.371 65.1497 125.315 65.1591C125.138 65.1875 125.004 65.1621 124.914 65.083" stroke="#152129" stroke-width="0.1"/>
<path d="M213.094 115.944L218.261 85.8267" stroke="#4D5F71" stroke-width="0.1"/>
<path d="M218.267 85.8266L219.451 78.9346C219.453 78.9213 219.452 78.9077 219.447 78.8952C219.442 78.8828 219.433 78.872 219.422 78.8642C219.411 78.8564 219.398 78.8519 219.385 78.8512C219.372 78.8505 219.358 78.8536 219.346 78.8602C218.098 79.5518 216.9 80.2794 215.754 81.0431C211.52 83.8597 209.388 89.8046 207.605 94.4358" stroke="#424F64" stroke-width="0.1"/>
<path d="M207.599 94.436L207.451 94.6495" stroke="#4D5F71" stroke-width="0.1"/>
<path d="M207.453 94.6499C205.366 96.7766 203.849 98.1965 202.903 98.9093C201.524 99.9503 200.217 100.708 198.53 99.8724C197.929 99.575 197.423 99.241 197.011 98.8704C194.94 97.0115 192.72 94.094 189.565 93.3062C188.835 93.1244 187.897 93.0146 186.748 92.9769C180.626 92.7733 176.234 96.5282 171.672 100.011C171.636 100.038 171.594 100.058 171.55 100.068C171.506 100.079 171.46 100.08 171.416 100.071C171.371 100.063 171.329 100.045 171.292 100.02C171.254 99.9939 171.223 99.9606 171.199 99.922C169.704 97.5013 168.241 95.0311 166.812 92.5113C165.64 90.4435 163.827 87.919 161.772 86.9187C158.87 85.5077 155.894 87.0302 153.561 88.9157C151.217 90.8123 149.207 92.9769 147.529 95.4093C147.541 95.4648 147.498 95.4955 147.398 95.5014" stroke="#424F64" stroke-width="0.1"/>
<path d="M147.398 95.5016L151.739 70.2138C151.752 70.1406 151.721 70.104 151.647 70.104H151.059C150.99 70.1029 150.95 70.1365 150.939 70.2049L142.96 116.686C142.948 116.757 142.977 116.792 143.048 116.792H212.829C212.897 116.792 212.938 116.758 212.951 116.691L213.094 115.944" stroke="#949A9F" stroke-width="0.1"/>
<path d="M147.401 95.5024C147.365 95.5789 147.356 95.6547 147.375 95.73" stroke="#ADB5C5" stroke-width="0.1"/>
<path d="M147.373 95.7285L143.924 115.84C143.913 115.907 143.941 115.941 144.009 115.941L213.096 115.942" stroke="#B8C5D2" stroke-width="0.1"/>
<path d="M147.369 95.7289C147.649 95.7265 148.294 95.7041 149.306 95.6616C154.851 95.4314 157.738 102.258 163.125 103.012C165.745 103.38 169.038 101.868 171.097 100.334C171.133 100.307 171.174 100.287 171.218 100.276C171.262 100.265 171.307 100.263 171.351 100.27C171.396 100.277 171.439 100.292 171.477 100.316C171.515 100.339 171.549 100.37 171.575 100.406C173.694 103.329 177.807 107.157 181.539 104.145C183.536 102.534 185.09 100.026 186.446 98.5667C188.813 96.0227 191.623 95.7696 193.469 99.0518C193.748 99.5487 194.304 100.636 195.139 102.313C196.171 104.382 197.732 106.716 200.333 105.05C201.819 104.099 203.086 102.86 204.134 101.334C205.443 99.4265 206.548 97.1982 207.45 94.6489" stroke="#657A97" stroke-width="0.1"/>
<path d="M218.267 85.8267C216.457 86.6823 214.714 87.8555 213.037 89.3461C210.944 91.2062 209.217 92.8538 207.855 94.289C207.775 94.3728 207.692 94.4217 207.605 94.4359" stroke="#657A97" stroke-width="0.1"/>
<path d="M119.896 94.9061C123.738 98.9425 129.564 98.9513 134.167 96.2055C138.122 93.8474 141.031 89.9491 141.861 85.3585C141.873 85.2948 141.847 85.2629 141.782 85.2629L137.565 85.2559C137.5 85.2559 137.46 85.2871 137.444 85.3497C136.692 88.5918 134.946 90.9399 132.204 92.3939C129.198 93.989 125.933 93.8793 123.414 91.4114" stroke="#394954" stroke-width="0.1"/>
<path d="M123.414 91.413C121.326 88.938 121.287 85.569 122.659 82.7524C124.462 79.047 128.333 76.4021 132.535 77.1917C132.57 77.1981 132.606 77.1918 132.638 77.1741C132.669 77.1563 132.693 77.1281 132.706 77.0943L134.338 72.7498C134.359 72.6955 134.34 72.6625 134.284 72.6507C126.924 71.0875 119.859 76.7739 117.81 83.5986C116.633 87.5182 117.173 91.7422 119.896 94.9076" stroke="#354351" stroke-width="0.1"/>
<path d="M123.414 91.4126L119.896 94.9073" stroke="#455867" stroke-width="0.1"/>
<path d="M112.65 104.189C112.63 104.189 112.611 104.196 112.595 104.208C112.58 104.221 112.57 104.239 112.566 104.258L111.325 111.504C111.323 111.516 111.324 111.529 111.327 111.54C111.33 111.552 111.336 111.563 111.344 111.572C111.352 111.582 111.362 111.589 111.373 111.594C111.384 111.599 111.396 111.602 111.409 111.602H138.874C138.894 111.602 138.913 111.595 138.928 111.582C138.944 111.57 138.954 111.552 138.957 111.533L140.198 104.283C140.2 104.271 140.2 104.259 140.196 104.247C140.193 104.235 140.187 104.224 140.179 104.215C140.172 104.205 140.162 104.198 140.15 104.193C140.139 104.188 140.127 104.185 140.115 104.186L112.65 104.189Z" stroke="#354351" stroke-width="0.1"/>
<path d="M137.188 121.52C137.205 121.52 137.221 121.515 137.234 121.504C137.247 121.493 137.256 121.478 137.259 121.462L138.503 114.203C138.505 114.193 138.505 114.183 138.502 114.173C138.499 114.163 138.495 114.154 138.488 114.146C138.481 114.138 138.473 114.131 138.464 114.127C138.455 114.123 138.445 114.12 138.434 114.12H110.932C110.915 114.12 110.899 114.126 110.886 114.136C110.873 114.147 110.864 114.162 110.861 114.179L109.616 121.437C109.615 121.447 109.615 121.458 109.618 121.468C109.62 121.477 109.625 121.487 109.632 121.495C109.638 121.503 109.646 121.509 109.656 121.513C109.665 121.518 109.675 121.52 109.685 121.52H137.188Z" stroke="#394954" stroke-width="0.1"/>
<path d="M146.095 120.117C145.074 120.423 143.932 121.489 143.704 122.657C143.576 123.305 143.341 124.668 142.999 126.745C142.755 128.221 143.194 129.212 144.318 129.715C144.658 129.869 145.129 129.946 145.731 129.946C154.025 129.941 162.321 129.939 170.617 129.94C172.052 129.94 173.136 129.446 173.879 128.248C174.124 127.855 174.32 127.246 174.469 126.423C174.644 125.461 174.811 124.498 174.972 123.533C175.109 122.71 175.125 122.082 175.02 121.65C174.743 120.517 173.931 119.95 172.583 119.95C164.655 119.956 156.726 119.957 148.797 119.954C147.362 119.953 146.461 120.007 146.095 120.117Z" stroke="#354351" stroke-width="0.1"/>
<path d="M181.278 120.21C180.332 120.586 179.346 121.628 179.144 122.722C178.999 123.504 178.796 124.679 178.535 126.247C178.389 127.125 178.358 127.757 178.443 128.143C178.728 129.448 179.773 129.951 181.063 129.951C189.148 129.948 197.234 129.95 205.321 129.956C206.361 129.957 207.102 129.879 207.544 129.722C208.327 129.447 208.929 128.955 209.352 128.244C210.014 127.131 210.168 125.091 210.418 123.647C210.565 122.79 210.591 122.145 210.494 121.712C210.23 120.529 209.382 119.938 207.95 119.939C199.857 119.948 191.763 119.948 183.669 119.941C182.529 119.94 181.732 120.03 181.278 120.21Z" stroke="#394954" stroke-width="0.1"/>
<path d="M109.234 124.044C109.216 124.044 109.199 124.051 109.185 124.062C109.171 124.074 109.162 124.09 109.159 124.108L107.913 131.354C107.911 131.365 107.912 131.376 107.915 131.386C107.918 131.397 107.923 131.407 107.93 131.415C107.937 131.424 107.946 131.43 107.956 131.435C107.966 131.44 107.976 131.442 107.987 131.442H135.471C135.488 131.442 135.506 131.436 135.519 131.424C135.533 131.412 135.542 131.396 135.545 131.379L136.788 124.134C136.789 124.123 136.789 124.112 136.786 124.102C136.783 124.091 136.778 124.081 136.771 124.073C136.764 124.064 136.755 124.058 136.745 124.053C136.735 124.048 136.724 124.046 136.713 124.046L109.234 124.044Z" stroke="#354351" stroke-width="0.1"/>
<path d="M256.463 122.687C257.35 120.778 257.99 118.848 258.384 116.894C258.398 116.825 258.371 116.794 258.301 116.804C257.396 116.918 256.532 116.941 255.711 116.871" stroke="#0A0E1A" stroke-width="0.1"/>
<path d="M255.712 116.873C254.513 116.614 253.611 116.006 253.007 115.049C253.003 115.042 252.997 115.036 252.99 115.032C252.983 115.028 252.975 115.026 252.967 115.025C252.958 115.025 252.95 115.027 252.943 115.031C252.936 115.035 252.93 115.04 252.925 115.047C250.077 119.201 246.379 122.458 242.909 126.047C242.679 126.284 242.719 126.345 243.029 126.229C245.44 125.324 247.925 124.711 250.484 124.391C250.511 124.388 250.536 124.374 250.553 124.354C250.571 124.333 250.579 124.306 250.578 124.28C250.473 122.702 250.588 121.142 250.923 119.601C251.053 119.001 251.322 118.534 251.73 118.2C251.77 118.168 251.816 118.145 251.865 118.131C251.914 118.118 251.966 118.115 252.016 118.122C252.067 118.13 252.115 118.148 252.158 118.175C252.201 118.202 252.238 118.238 252.267 118.28C253.445 120.021 254.285 121.909 254.788 123.943C254.803 124.002 254.841 124.031 254.901 124.03L255.843 124.002C255.896 123.999 255.933 123.974 255.953 123.926L256.464 122.688" stroke="#0A141C" stroke-width="0.1"/>
<path d="M255.711 116.87L256.463 122.686" stroke="#000712" stroke-width="0.1"/>
<path d="M247.072 137.265C247.072 137.276 247.075 137.287 247.081 137.296C247.087 137.305 247.096 137.312 247.105 137.316C247.115 137.32 247.126 137.321 247.137 137.318C247.147 137.316 247.157 137.31 247.164 137.303L249.537 134.79C249.545 134.782 249.55 134.771 249.551 134.76C249.553 134.748 249.55 134.737 249.545 134.727C249.539 134.717 249.53 134.709 249.519 134.704C249.508 134.7 249.497 134.699 249.485 134.702L247.141 135.26C247.13 135.262 247.12 135.269 247.113 135.278C247.105 135.286 247.101 135.298 247.101 135.309L247.072 137.265Z" stroke="#0A141C" stroke-width="0.1"/>
<path d="M113.313 105.076C113.299 105.076 113.285 105.081 113.274 105.09C113.263 105.099 113.255 105.112 113.253 105.126L112.308 110.653C112.306 110.661 112.306 110.67 112.309 110.679C112.311 110.687 112.315 110.695 112.32 110.702C112.326 110.708 112.333 110.714 112.341 110.718C112.349 110.721 112.357 110.724 112.366 110.724H138.203C138.217 110.724 138.231 110.719 138.242 110.71C138.253 110.701 138.26 110.688 138.263 110.674L139.21 105.149C139.211 105.14 139.211 105.131 139.209 105.123C139.207 105.114 139.203 105.107 139.197 105.1C139.192 105.093 139.185 105.088 139.177 105.084C139.169 105.08 139.16 105.078 139.152 105.078L113.313 105.076Z" stroke="#354351" stroke-width="0.1"/>
<path d="M111.618 114.998C111.604 114.998 111.59 115.003 111.579 115.012C111.568 115.021 111.561 115.034 111.558 115.048L110.616 120.566C110.615 120.574 110.615 120.583 110.617 120.592C110.619 120.6 110.623 120.608 110.629 120.615C110.635 120.621 110.642 120.627 110.649 120.631C110.657 120.635 110.666 120.637 110.675 120.637H136.501C136.515 120.637 136.529 120.632 136.54 120.623C136.551 120.614 136.558 120.601 136.561 120.587L137.508 115.069C137.509 115.06 137.509 115.051 137.507 115.043C137.505 115.035 137.501 115.027 137.495 115.02C137.49 115.013 137.483 115.008 137.475 115.004C137.467 115 137.458 114.998 137.45 114.998H111.618Z" stroke="#394954" stroke-width="0.1"/>
<path d="M109.929 124.938C109.909 124.938 109.889 124.945 109.873 124.959C109.858 124.972 109.847 124.99 109.844 125.011L108.909 130.47C108.907 130.483 108.908 130.495 108.911 130.507C108.915 130.52 108.921 130.531 108.929 130.54C108.937 130.55 108.947 130.558 108.958 130.563C108.969 130.568 108.982 130.571 108.994 130.571L134.774 130.578C134.795 130.578 134.814 130.571 134.83 130.558C134.846 130.544 134.856 130.526 134.859 130.506L135.803 125.041C135.805 125.028 135.804 125.016 135.801 125.004C135.798 124.991 135.792 124.98 135.784 124.971C135.776 124.961 135.766 124.953 135.754 124.948C135.743 124.943 135.73 124.94 135.718 124.94L109.929 124.938Z" stroke="#354351" stroke-width="0.1"/>
<path d="M189.668 21.4619L187.324 34.3005C187.322 34.3136 187.315 34.3256 187.306 34.3344C187.296 34.3433 187.284 34.3485 187.27 34.3494C187.257 34.3502 187.244 34.3465 187.233 34.3389C187.221 34.3314 187.213 34.3203 187.209 34.3076L185.19 27.9857C185.815 27.4971 186.082 26.8703 185.992 26.1056C185.762 24.1528 183.062 23.6872 182.199 25.4948C181.801 26.3257 181.947 27.1182 182.638 27.8724L180.06 41.6812C180.057 41.6947 180.049 41.7068 180.038 41.7155C180.028 41.7243 180.014 41.7291 180 41.7293C179.987 41.7295 179.973 41.7251 179.962 41.7167C179.951 41.7082 179.943 41.6964 179.94 41.6829C179.038 37.6064 178.14 33.5428 177.245 29.4922C177.173 29.1653 177.089 28.9405 176.994 28.8177C176.581 28.2866 175.818 28.492 175.581 29.0921C174.647 31.4538 173.74 33.7653 172.86 36.0266C172.776 36.2391 172.7 36.2367 172.631 36.0196C171.684 33.0619 170.744 30.1272 169.811 27.2156C169.468 26.141 168.657 26.1445 168.082 27.0633C167.253 28.3852 166.435 29.7088 165.628 31.0342C165.622 31.0442 165.612 31.0521 165.602 31.0571C165.591 31.062 165.579 31.0637 165.567 31.0621C165.555 31.0604 165.544 31.0554 165.535 31.0476C165.526 31.0398 165.52 31.0297 165.516 31.0183C164.484 27.1294 163.453 23.2323 162.425 19.3268C162.278 18.771 162.078 18.293 161.441 18.3726C160.883 18.4417 160.763 18.8134 160.66 19.3056C159.698 23.9546 158.746 28.577 157.803 33.1728C157.753 33.416 157.697 33.4177 157.635 33.1781L155.314 24.2697C155.761 23.8743 156.002 23.3975 156.036 22.8392C156.185 20.382 152.695 19.8456 152.099 22.2391C151.908 23.0098 152.141 23.6926 152.8 24.2874L150.208 32.2664C150.204 32.2804 150.195 32.2929 150.184 32.3025C150.172 32.312 150.159 32.3181 150.144 32.3202C150.13 32.3222 150.115 32.3201 150.102 32.314C150.089 32.3079 150.078 32.2982 150.07 32.2859C149.208 30.9487 148.343 29.6026 147.475 28.2477C147.027 27.5537 146.145 27.5572 145.876 28.3663C144.847 31.455 143.802 34.5366 142.743 37.6111C141.224 37.8466 140.496 39.4027 141.291 40.7145C142.107 42.06 144.279 41.8352 144.837 40.3587C145.158 39.5125 144.986 38.7636 144.32 38.1121L146.882 30.5527C146.885 30.5419 146.892 30.5324 146.901 30.5253C146.91 30.5182 146.92 30.5137 146.932 30.5124C146.943 30.5111 146.954 30.513 146.965 30.518C146.975 30.5229 146.984 30.5306 146.99 30.5403C147.846 31.8952 148.717 33.2531 149.603 34.6139C150.231 35.5823 150.996 35.2176 151.308 34.2527C152.192 31.5028 153.078 28.7658 153.967 26.0418C153.971 26.0305 153.978 26.0207 153.988 26.0139C153.998 26.0071 154.01 26.0036 154.022 26.004C154.034 26.0044 154.046 26.0086 154.055 26.0161C154.064 26.0235 154.071 26.0338 154.075 26.0454C155.033 29.7596 155.993 33.4679 156.955 37.1703C157.042 37.5067 157.166 37.7368 157.327 37.8607C157.812 38.2343 158.509 37.9634 158.639 37.3473C159.629 32.5603 160.61 27.7803 161.583 23.0074C161.585 22.9961 161.59 22.9857 161.599 22.9782C161.608 22.9707 161.619 22.9665 161.631 22.9663C161.642 22.9661 161.653 22.9699 161.662 22.9771C161.671 22.9843 161.678 22.9944 161.68 23.0057C162.575 26.3965 163.468 29.7808 164.36 33.1587C164.45 33.5009 164.566 33.7346 164.709 33.8597C165.115 34.2156 165.686 34.0633 165.97 33.6101C166.867 32.1738 167.756 30.7392 168.638 29.3064C168.643 29.2966 168.652 29.2887 168.662 29.2836C168.672 29.2786 168.683 29.2766 168.695 29.2779C168.706 29.2792 168.717 29.2838 168.725 29.291C168.734 29.2983 168.74 29.3079 168.744 29.3188C169.766 32.5113 170.789 35.7115 171.814 38.9194C171.978 39.434 172.301 39.6706 172.784 39.6293C173.017 39.6098 173.31 39.4151 173.391 39.208C174.29 36.923 175.181 34.644 176.062 32.3709C176.068 32.357 176.077 32.3453 176.089 32.3374C176.102 32.3294 176.116 32.3258 176.131 32.327C176.146 32.3282 176.16 32.3342 176.171 32.344C176.182 32.3539 176.189 32.367 176.192 32.3815C177.188 36.9289 178.191 41.4788 179.201 46.0309C179.336 46.6311 179.626 47.1038 180.302 46.9055C180.839 46.7497 180.872 46.3407 180.965 45.8539C181.968 40.4862 182.965 35.1285 183.956 29.7808C183.958 29.7718 183.963 29.7637 183.97 29.7577C183.977 29.7517 183.986 29.7482 183.995 29.7476C184.004 29.747 184.014 29.7494 184.021 29.7544C184.029 29.7595 184.035 29.7669 184.038 29.7755C184.89 32.483 185.744 35.1863 186.6 37.8855C186.715 38.2484 186.812 38.6007 187.189 38.7264C187.931 38.9743 188.255 38.4485 188.374 37.7864C189.23 32.9863 190.121 28.119 191.047 23.1845C194.387 27.5797 197.521 32.1755 200.449 36.972C203.753 42.3805 206.435 46.9037 209.207 51.3261C210.052 52.6739 210.876 54.0471 211.678 55.4457C179.532 55.4481 147.425 55.4481 115.357 55.4457C114.016 55.4457 113.077 55.4994 112.538 55.6068C109.688 56.1769 107.282 58.2039 106.139 60.8223C105.866 61.4502 105.62 62.4014 105.402 63.6761C101.988 83.6091 98.5674 103.542 95.1411 123.473L87.7995 123.426C87.7357 123.425 87.6986 123.393 87.6879 123.33C87.3781 121.608 87.3958 119.779 87.2914 118.028C87.2878 117.968 87.3008 117.912 87.3303 117.86C87.8561 116.904 88.0137 115.505 88.2456 114.436C88.2586 114.378 88.2857 114.327 88.327 114.284C88.5808 114.02 88.7985 113.731 88.9803 113.414C89.3627 112.752 89.7203 112.402 90.3187 112.069C92.9589 110.599 95.1618 108.684 96.9274 106.322C97.5063 105.549 98.1861 104.203 97.2248 103.548C96.8265 103.277 96.2512 103.286 95.8139 103.44C93.038 104.421 90.7807 106.802 89.1821 109.227C89.1767 109.235 89.1688 109.241 89.1598 109.244C89.1508 109.246 89.1412 109.246 89.1324 109.243C89.1237 109.24 89.1164 109.234 89.1116 109.227C89.1068 109.219 89.1048 109.21 89.106 109.201C89.5309 104.945 89.9257 100.719 89.9965 96.433C90.0437 93.6477 89.7138 91.0175 89.0069 88.5426C88.7289 87.5724 86.8435 82.3516 85.1014 84.0866C84.1879 84.9948 84.4517 88.0309 84.7474 89.1799C85.5901 92.4409 87.2223 95.3602 88.5944 98.407C88.7041 98.6501 88.7513 98.9092 88.736 99.1842C88.5212 103.163 88.1612 107.127 87.6561 111.077C87.4967 112.329 87.2259 113.558 86.9532 114.786C86.9508 114.798 86.9444 114.809 86.935 114.816C86.9257 114.824 86.914 114.828 86.902 114.827C86.8901 114.827 86.8785 114.823 86.8695 114.815C86.8604 114.807 86.8543 114.796 86.8523 114.785C85.6538 107.847 81.998 100.418 75.3007 97.2403C74.2722 96.7517 72.5106 96.1215 71.3758 96.4012C67.4226 97.3766 73.2294 104.458 74.366 105.69C77.3119 108.886 80.7865 111.328 84.7899 113.014C85.1085 113.149 85.3511 113.384 85.4272 113.698C85.8556 115.429 86.0993 117.292 86.1583 119.287C86.1607 119.382 86.1371 119.389 86.0875 119.308C85.282 117.964 83.9241 116.335 82.4866 115.661C81.0261 114.978 80.0223 115.827 80.6189 117.343C80.7747 117.74 80.9529 118.086 81.1535 118.378C82.2063 119.915 83.5176 121.596 85.0873 123.422L71.7335 123.427C71.6992 123.427 71.6851 123.445 71.691 123.479L72.9178 131.044C72.9273 131.1 72.9603 131.129 73.017 131.129L75.1272 131.116L75.1786 131.345L77.5845 146.178L9.67179 146.226C9.61601 146.227 9.5612 146.212 9.51361 146.182C9.46603 146.153 9.42759 146.111 9.40269 146.062C5.05115 137.511 2.43456 128.23 1.72819 118.644C1.65502 117.642 1.5783 116.635 1.49805 115.622L6.0337 115.634C6.10806 115.634 6.14524 115.597 6.14524 115.523L6.15763 95.1566L6.14878 91.0848C6.1476 91.0092 6.10983 90.9703 6.03547 90.9679L5.06886 90.9449C5.06178 90.906 5.07771 90.8841 5.11666 90.8794C5.15442 90.8747 5.16328 90.8564 5.14321 90.8245C5.13023 90.8033 5.1202 90.7826 5.11312 90.7626C5.10722 90.7425 5.10839 90.7201 5.11666 90.6953C9.06633 78.4161 17.1392 66.2732 28.8182 60.1159C37.8169 55.3713 48.2231 54.5393 58.0592 53.4629C58.0982 53.4594 58.1336 53.47 58.1654 53.4948C58.1808 53.5077 58.1955 53.5219 58.2097 53.5373C58.2103 53.5378 58.2111 53.538 58.212 53.538C58.213 53.538 58.214 53.5378 58.215 53.5373C58.2433 53.5019 58.2776 53.4747 58.3177 53.4558C58.3 54.2365 58.2858 55.0757 58.5231 55.8033C59.0565 57.4344 60.1022 58.4937 61.6601 58.9811C62.196 59.1475 63.0085 59.2313 64.0979 59.2325C70.0322 59.2349 75.9918 59.2295 81.9768 59.2166L85.0271 63.4902C85.066 63.5445 85.1132 63.5528 85.1687 63.515L87.433 61.9588C87.4826 61.9258 87.4902 61.8845 87.456 61.8349L85.5175 59.1263C87.335 58.5963 88.4964 57.5459 89.0015 55.975C89.1798 55.4239 89.2683 54.4885 89.2671 53.169C89.2659 50.2916 89.2683 47.4702 89.2742 44.7049C93.104 42.374 96.6442 39.6051 99.8946 36.3984C104.995 31.3653 109.444 26.0755 114.075 20.7963C117.963 16.365 122.015 12.2684 126.616 8.77197C134.43 2.83537 143.218 0.195179 152.982 0.851392C160.418 1.35063 167.501 3.44674 173.865 7.25124C179.897 10.8592 185.235 15.9579 189.668 21.4619ZM45.6313 80.8557L45.6402 115.526C45.6402 115.596 45.6744 115.631 45.7428 115.631H51.1796C51.2386 115.631 51.2681 115.601 51.2681 115.542L51.2664 80.8344V76.3412C51.2664 76.2834 51.2374 76.2545 51.1796 76.2545H45.7375C45.707 76.2545 45.6777 76.2666 45.6562 76.2882C45.6346 76.3098 45.6225 76.339 45.6225 76.3696L45.6313 80.8557ZM36.6131 85.0355V115.535C36.6131 115.6 36.6456 115.633 36.7105 115.633H42.1508C42.2098 115.633 42.2393 115.603 42.2393 115.544L42.2411 85.0018V78.5064C42.2411 78.4829 42.2317 78.4604 42.2151 78.4438C42.1985 78.4272 42.176 78.4179 42.1525 78.4179L36.714 78.4143C36.6479 78.4143 36.6149 78.4474 36.6149 78.5135L36.6131 85.0355ZM27.5896 88.8948L27.5931 115.53C27.5931 115.591 27.6238 115.622 27.6852 115.622L33.1166 115.634C33.1839 115.634 33.2175 115.601 33.2175 115.533L33.2193 88.8718L33.2175 84.1503C33.2175 84.0866 33.1857 84.0547 33.122 84.0547L27.7436 84.0476C27.7239 84.0474 27.7044 84.0511 27.6862 84.0584C27.6679 84.0658 27.6513 84.0767 27.6373 84.0905C27.6233 84.1044 27.6122 84.1208 27.6046 84.139C27.597 84.1572 27.5931 84.1766 27.5931 84.1963L27.5896 88.8948ZM9.54609 92.5666L9.54432 115.548C9.54432 115.604 9.57265 115.633 9.6293 115.633H15.0643C15.1351 115.633 15.1705 115.597 15.1705 115.526L15.1811 92.5737L15.1865 88.4346C15.1865 88.4188 15.1833 88.4031 15.1773 88.3885C15.1712 88.3739 15.1624 88.3606 15.1512 88.3494C15.14 88.3383 15.1267 88.3294 15.1121 88.3233C15.0975 88.3173 15.0819 88.3142 15.0661 88.3142L9.6293 88.3089C9.57147 88.3089 9.54255 88.3384 9.54255 88.3974L9.54609 92.5666ZM18.5608 92.4674L18.5714 115.486C18.5714 115.521 18.5854 115.555 18.6103 115.58C18.6352 115.604 18.6689 115.618 18.7042 115.618L24.0506 115.634C24.0687 115.635 24.0866 115.631 24.1033 115.624C24.1201 115.618 24.1353 115.608 24.1482 115.595C24.161 115.582 24.1712 115.567 24.1782 115.551C24.1851 115.534 24.1887 115.516 24.1887 115.498L24.2011 92.4427V90.4475C24.2011 90.4341 24.1985 90.4208 24.1934 90.4084C24.1883 90.3961 24.1808 90.3849 24.1714 90.3755C24.1621 90.3661 24.1509 90.3587 24.1387 90.3537C24.1265 90.3487 24.1134 90.3463 24.1002 90.3465L18.6918 90.3519C18.615 90.353 18.5767 90.3914 18.5767 90.4669L18.5608 92.4674Z" fill="url(#paint0_linear_108_41)"/>
<path d="M182.639 27.8737C183.491 28.4992 184.342 28.537 185.192 27.987L187.21 34.3089C187.215 34.3217 187.223 34.3327 187.234 34.3403C187.245 34.3478 187.259 34.3515 187.272 34.3507C187.285 34.3499 187.298 34.3446 187.307 34.3357C187.317 34.3269 187.323 34.315 187.325 34.3019L189.669 21.4632L191.048 23.1858C190.123 28.1204 189.232 32.9877 188.375 37.7877C188.257 38.4498 187.933 38.9756 187.191 38.7278C186.814 38.6021 186.716 38.2498 186.601 37.8868C185.746 35.1876 184.892 32.4843 184.04 29.7768C184.036 29.7682 184.031 29.7608 184.023 29.7557C184.015 29.7507 184.006 29.7483 183.997 29.7489C183.988 29.7495 183.979 29.7531 183.972 29.7591C183.965 29.7651 183.96 29.7732 183.958 29.7821C182.967 35.1298 181.969 40.4875 180.966 45.8552C180.874 46.3421 180.84 46.751 180.304 46.9068C179.628 47.1051 179.337 46.6324 179.203 46.0323C178.193 41.4801 177.189 36.9303 176.193 32.3828C176.191 32.3683 176.183 32.3552 176.172 32.3453C176.161 32.3355 176.147 32.3295 176.133 32.3283C176.118 32.3271 176.103 32.3308 176.091 32.3387C176.079 32.3466 176.069 32.3584 176.064 32.3722C175.182 34.6453 174.292 36.9244 173.393 39.2093C173.311 39.4164 173.019 39.6112 172.785 39.6306C172.303 39.672 171.979 39.4353 171.815 38.9207C170.791 35.7128 169.767 32.5126 168.745 29.3201C168.742 29.3092 168.736 29.2996 168.727 29.2924C168.718 29.2851 168.708 29.2805 168.696 29.2792C168.685 29.2779 168.674 29.2799 168.664 29.285C168.653 29.29 168.645 29.2979 168.639 29.3077C167.758 30.7405 166.868 32.1751 165.971 33.6114C165.688 34.0646 165.116 34.2169 164.711 33.861C164.568 33.7359 164.452 33.5023 164.362 33.16C163.47 29.7821 162.576 26.3978 161.682 23.007C161.679 22.9957 161.673 22.9856 161.664 22.9784C161.655 22.9712 161.644 22.9674 161.632 22.9676C161.621 22.9678 161.61 22.972 161.601 22.9795C161.592 22.9871 161.586 22.9974 161.584 23.0088C160.612 27.7816 159.63 32.5616 158.64 37.3487C158.511 37.9647 157.813 38.2356 157.328 37.8621C157.168 37.7381 157.044 37.508 156.957 37.1716C155.995 33.4692 155.035 29.7609 154.076 26.0467C154.073 26.0351 154.066 26.0248 154.057 26.0174C154.047 26.01 154.036 26.0057 154.024 26.0053C154.011 26.0049 154 26.0084 153.99 26.0152C153.98 26.022 153.972 26.0318 153.968 26.0431C153.079 28.7671 152.193 31.5041 151.309 34.2541C150.998 35.2189 150.233 35.5836 149.604 34.6152C148.719 33.2544 147.848 31.8965 146.991 30.5416C146.985 30.532 146.977 30.5242 146.966 30.5193C146.956 30.5144 146.945 30.5124 146.933 30.5137C146.922 30.515 146.911 30.5195 146.902 30.5266C146.894 30.5338 146.887 30.5433 146.883 30.554L144.322 38.1134C143.838 37.7192 143.312 37.5522 142.744 37.6124C143.804 34.5379 144.849 31.4563 145.878 28.3676C146.147 27.5586 147.028 27.555 147.476 28.249C148.345 29.6039 149.21 30.95 150.072 32.2872C150.079 32.2995 150.09 32.3093 150.104 32.3153C150.117 32.3214 150.131 32.3235 150.146 32.3215C150.16 32.3195 150.174 32.3133 150.185 32.3038C150.197 32.2943 150.205 32.2818 150.21 32.2677L152.802 24.2887C153.631 24.8505 154.469 24.8446 155.315 24.271L157.636 33.1795C157.699 33.419 157.755 33.4173 157.805 33.1741C158.748 28.5783 159.7 23.9559 160.662 19.3069C160.765 18.8148 160.885 18.443 161.443 18.374C162.08 18.2943 162.28 18.7723 162.427 19.3282C163.455 23.2336 164.485 27.1307 165.518 31.0196C165.521 31.031 165.528 31.0412 165.537 31.0489C165.546 31.0567 165.557 31.0617 165.569 31.0634C165.58 31.0651 165.592 31.0633 165.603 31.0584C165.614 31.0535 165.623 31.0455 165.63 31.0356C166.437 29.7101 167.255 28.3865 168.083 27.0646C168.659 26.1458 169.469 26.1423 169.813 27.2169C170.745 30.1285 171.685 33.0632 172.633 36.0209C172.702 36.238 172.778 36.2404 172.861 36.028C173.742 33.7666 174.649 31.4551 175.583 29.0935C175.82 28.4933 176.583 28.288 176.995 28.8191C177.091 28.9418 177.175 29.1666 177.247 29.4936C178.141 33.5442 179.039 37.6077 179.941 41.6843C179.945 41.6977 179.953 41.7096 179.964 41.718C179.975 41.7264 179.988 41.7309 180.002 41.7307C180.016 41.7304 180.029 41.7256 180.04 41.7169C180.051 41.7081 180.058 41.696 180.062 41.6825L182.639 27.8737Z" fill="#8491A0"/>
<path d="M155.315 24.2706C154.468 24.8442 153.63 24.8501 152.801 24.2883C152.142 23.6935 151.908 23.0107 152.1 22.24C152.696 19.8465 156.186 20.3829 156.037 22.8402C156.003 23.3984 155.762 23.8752 155.315 24.2706Z" fill="#5A6A8A"/>
<path d="M185.192 27.9865C184.343 28.5365 183.492 28.4987 182.64 27.8732C181.949 27.119 181.803 26.3265 182.2 25.4956C183.064 23.6881 185.764 24.1537 185.994 26.1064C186.084 26.8712 185.817 27.4979 185.192 27.9865Z" fill="#5A6A8A"/>
<path d="M89.1639 33.2433C87.6733 36.3627 85.4562 38.765 82.5127 40.4504C81.6842 37.5919 80.1032 35.4645 77.7699 34.0683C71.6427 30.4001 63.6389 33.978 62.3324 40.9762C61.7151 44.2797 62.5619 47.2515 64.8729 49.8917C63.9169 50.7297 62.7915 50.9593 61.4968 50.5804C60.3567 50.2464 59.2992 49.6598 58.3243 48.8207C58.3066 44.1375 58.2942 39.3835 58.2871 34.5587C58.2848 32.9264 58.866 31.6092 60.0309 30.6072C61.2064 29.5946 62.4333 29.4689 64.1258 29.4707C70.5038 29.4707 76.8818 29.4689 83.2598 29.4653C84.4778 29.4642 85.3648 29.5491 85.9206 29.7203C87.586 30.2337 88.6671 31.408 89.1639 33.2433Z" fill="#394048"/>
<path d="M82.5103 40.4525C83.3199 44.5739 82.1934 48.0243 79.1306 50.8038L77.4134 51.9758C73.1274 54.1409 68.1951 53.4558 64.8704 49.8938C62.5595 47.2536 61.7127 44.2818 62.3299 40.9783C63.6365 33.9801 71.6403 30.4022 77.7675 34.0704C80.1008 35.4666 81.6817 37.594 82.5103 40.4525ZM81.3896 42.9115C81.3896 41.74 81.1589 40.58 80.7106 39.4977C80.2623 38.4153 79.6052 37.4319 78.7768 36.6035C77.9484 35.7752 76.965 35.1181 75.8826 34.6697C74.8003 34.2214 73.6403 33.9907 72.4688 33.9907C71.2973 33.9907 70.1373 34.2214 69.0549 34.6697C67.9726 35.1181 66.9892 35.7752 66.1608 36.6035C65.3324 37.4319 64.6753 38.4153 64.227 39.4977C63.7787 40.58 63.548 41.74 63.548 42.9115C63.548 45.2775 64.4878 47.5465 66.1608 49.2195C67.8338 50.8925 70.1028 51.8324 72.4688 51.8324C74.8347 51.8324 77.1038 50.8925 78.7768 49.2195C80.4498 47.5465 81.3896 45.2775 81.3896 42.9115Z" fill="#7B8F9F"/>
<path d="M89.1598 33.2432C89.2412 33.7023 89.2813 34.1112 89.2801 34.47C89.2707 37.8054 89.2689 41.2169 89.2748 44.7045C89.2689 47.4698 89.2666 50.2911 89.2678 53.1685C89.2689 54.4881 89.1804 55.4234 89.0022 55.9746C88.4971 57.5455 87.3357 58.5959 85.5181 59.1258L81.9314 54.1051C81.8901 54.0472 81.8393 54.0372 81.7791 54.075L81.5118 54.2432L79.1289 50.8016C82.1916 48.0221 83.3182 44.5717 82.5085 40.4503C85.452 38.7649 87.6691 36.3625 89.1598 33.2432Z" fill="#484F57"/>
<path d="M72.4657 51.8304C77.3926 51.8304 81.3866 47.8364 81.3866 42.9096C81.3866 37.9828 77.3926 33.9888 72.4657 33.9888C67.5389 33.9888 63.5449 37.9828 63.5449 42.9096C63.5449 47.8364 67.5389 51.8304 72.4657 51.8304Z" fill="#3D454F"/>
<path d="M142.748 37.6116C143.316 37.5514 143.842 37.7184 144.325 38.1126C144.991 38.7641 145.163 39.5129 144.842 40.3592C144.285 41.8356 142.113 42.0605 141.296 40.715C140.501 39.4032 141.229 37.847 142.748 37.6116Z" fill="#5A6A8A"/>
<path d="M64.8716 49.8924C68.1963 53.4543 73.1285 54.1394 77.4146 51.9743L79.7833 55.4283C79.5473 55.5487 79.4676 55.6643 79.5443 55.7753C80.3362 56.9142 81.1482 58.0614 81.9803 59.2168C75.9953 59.2298 70.0357 59.2351 64.1015 59.2328C63.0121 59.2316 62.1995 59.1478 61.6637 58.9814C60.1058 58.4939 59.0601 57.4347 58.5266 55.8036C58.2894 55.076 58.3035 54.2368 58.3212 53.4561L58.323 48.8213C59.2979 49.6604 60.3554 50.247 61.4955 50.581C62.7902 50.9599 63.9156 50.7303 64.8716 49.8924Z" fill="#484F57"/>
<path d="M79.1313 50.8018L81.5142 54.2433L79.7828 55.4277L77.4141 51.9737L79.1313 50.8018Z" fill="#141B24"/>
<path d="M85.5186 59.1259L87.4572 61.8346C87.4914 61.8842 87.4837 61.9255 87.4342 61.9585L85.1699 63.5147C85.1144 63.5524 85.0672 63.5442 85.0282 63.4899L81.9779 59.2162C81.1458 58.0608 80.3338 56.9136 79.5419 55.7747C79.4652 55.6637 79.5449 55.5481 79.7809 55.4277L81.5123 54.2433L81.7796 54.0751C81.8398 54.0373 81.8906 54.0474 81.9319 54.1052L85.5186 59.1259Z" fill="#405164"/>
<path d="M211.679 55.4463L231.227 55.4693C232.963 55.7478 234.293 56.4937 235.216 57.707C235.876 58.5721 236.269 59.5482 236.395 60.6352C236.467 61.2584 236.386 62.2521 236.152 63.6165C231.877 88.5467 227.599 113.476 223.315 138.405C223.131 139.475 222.91 140.303 222.652 140.889C221.549 143.394 219.114 145.612 216.301 146.069C216.245 146.079 216.201 146.107 216.17 146.154L216.099 146.266C176.795 146.275 137.491 146.272 98.1865 146.257C97.0157 146.257 95.8714 145.888 94.7537 145.15C93.3764 144.083 92.5945 142.726 92.408 141.077C92.3348 140.431 92.421 139.385 92.6665 137.94C93.4844 133.116 94.3094 128.294 95.1415 123.474C98.5677 103.542 101.988 83.6097 105.402 63.6767C105.621 62.402 105.866 61.4508 106.139 60.8229C107.283 58.2045 109.688 56.1774 112.539 55.6074C113.077 55.5 114.016 55.4463 115.357 55.4463C147.425 55.4486 179.533 55.4486 211.679 55.4463ZM124.91 65.0841L114.741 65.1195C114.71 65.1195 114.68 65.1306 114.656 65.1507C114.633 65.1708 114.617 65.1986 114.612 65.2293L102.37 136.53C102.368 136.539 102.369 136.549 102.371 136.557C102.374 136.566 102.378 136.574 102.384 136.581C102.39 136.588 102.397 136.594 102.405 136.598C102.414 136.601 102.423 136.603 102.432 136.603L178.207 136.614L214.079 136.578C214.109 136.578 214.138 136.567 214.161 136.548C214.183 136.528 214.198 136.501 214.203 136.472L217.939 114.392C217.952 114.404 217.964 114.413 217.974 114.42C217.999 114.433 218.014 114.426 218.02 114.399L226.824 65.2789C226.829 65.2552 226.826 65.2307 226.815 65.2092C226.804 65.1877 226.786 65.1705 226.764 65.1602C226.667 65.1154 226.543 65.1361 226.392 65.2222C226.343 65.1443 226.288 65.1048 226.228 65.1036C200.967 65.0458 167.194 65.0393 124.91 65.0841Z" fill="#6A7380"/>
<path d="M231.229 55.4682C232.541 55.4363 233.501 55.4392 234.11 55.477C236.992 55.6576 239.244 57.8422 239.552 60.6836C239.619 61.3092 239.542 62.2699 239.322 63.5658C238.315 69.4516 237.312 75.3033 236.314 81.1207C235.693 84.6885 235.09 88.221 234.506 91.718C234.448 92.0579 234.451 92.3972 234.515 92.736C236.598 103.882 238.7 115.108 240.819 126.414L242.51 135.46C242.882 137.42 243.261 138.797 243.059 140.557L242.722 141.927C241.706 144.135 239.959 145.517 237.48 146.073C236.422 146.244 235.354 146.307 234.276 146.261C234.247 146.125 234.312 146.049 234.473 146.033C235.663 145.911 236.776 145.435 237.811 144.606C239.326 143.39 240.164 141.863 240.325 140.026C240.378 139.416 240.298 138.538 240.083 137.391C237.762 124.985 235.443 112.589 233.124 100.203C233.122 100.196 233.118 100.19 233.112 100.186C233.106 100.182 233.099 100.18 233.092 100.18C233.085 100.18 233.078 100.183 233.072 100.187C233.067 100.192 233.063 100.198 233.062 100.205C230.994 112.266 228.925 124.324 226.855 136.379C226.516 138.357 226.297 139.515 226.198 139.852C225.427 142.477 223.718 144.404 221.071 145.633C220.723 145.794 220.012 146.005 218.939 146.265H216.102L216.172 146.153C216.203 146.106 216.247 146.077 216.303 146.068C219.116 145.611 221.551 143.393 222.654 140.888C222.912 140.301 223.133 139.473 223.318 138.404C227.601 113.475 231.88 88.5455 236.154 63.6154C236.388 62.251 236.469 61.2572 236.397 60.6341C236.271 59.5471 235.878 58.571 235.218 57.7059C234.295 56.4926 232.965 55.7467 231.229 55.4682Z" fill="#9FB0BE"/>
<path d="M226.396 65.2217L217.942 114.392L214.207 136.472C214.202 136.501 214.187 136.528 214.164 136.547C214.142 136.566 214.113 136.577 214.083 136.578L178.21 136.613C178.364 136.542 178.548 136.529 178.763 136.574C178.765 136.575 178.766 136.575 178.766 136.572C178.766 136.571 178.765 136.57 178.764 136.569C178.764 136.563 178.762 136.56 178.757 136.56C178.059 136.525 177.36 136.506 176.661 136.505C151.975 136.456 127.296 136.387 102.625 136.298C102.615 136.298 102.605 136.296 102.596 136.291C102.587 136.287 102.579 136.281 102.573 136.274C102.567 136.266 102.562 136.257 102.559 136.248C102.557 136.238 102.556 136.228 102.557 136.218L114.785 65.4005C114.794 65.3533 114.822 65.3291 114.87 65.3279C118.078 65.2712 121.285 65.2919 124.49 65.3899C124.77 65.3987 125.039 65.3332 125.324 65.3031C125.369 65.2984 125.393 65.2736 125.395 65.2288C125.397 65.1733 125.371 65.1503 125.315 65.1597C125.138 65.188 125.004 65.1627 124.914 65.0836C167.198 65.0387 200.971 65.0452 226.231 65.1031C226.291 65.1042 226.346 65.1438 226.396 65.2217ZM213.097 115.944L218.265 85.8269L219.449 78.9349C219.451 78.9216 219.45 78.908 219.445 78.8955C219.44 78.8831 219.431 78.8723 219.42 78.8645C219.409 78.8567 219.396 78.8522 219.383 78.8515C219.37 78.8508 219.356 78.8539 219.344 78.8605C218.096 79.5521 216.898 80.2797 215.752 81.0434C211.518 83.86 209.386 89.8049 207.603 94.4361L207.455 94.6503C205.368 96.7771 203.851 98.197 202.905 98.9098C201.526 99.9508 200.219 100.709 198.532 99.8729C197.931 99.5755 197.425 99.2415 197.013 98.8709C194.942 97.012 192.722 94.0944 189.567 93.3066C188.838 93.1249 187.899 93.0151 186.75 92.9773C180.628 92.7738 176.236 96.5287 171.674 100.011C171.638 100.038 171.597 100.058 171.552 100.069C171.508 100.079 171.463 100.08 171.418 100.072C171.373 100.063 171.331 100.046 171.294 100.02C171.257 99.9944 171.225 99.9611 171.201 99.9225C169.706 97.5018 168.244 95.0316 166.814 92.5117C165.642 90.444 163.83 87.9194 161.774 86.9192C158.873 85.5082 155.897 87.0307 153.563 88.9161C151.219 90.8128 149.209 92.9773 147.532 95.4098C147.543 95.4653 147.5 95.496 147.401 95.5019L151.742 70.2141C151.755 70.1409 151.724 70.1043 151.649 70.1043H151.062C150.993 70.1031 150.953 70.1368 150.941 70.2052L142.962 116.686C142.951 116.757 142.98 116.792 143.051 116.792H212.831C212.9 116.792 212.94 116.759 212.953 116.691L213.097 115.944ZM119.898 94.907C123.74 98.9435 129.566 98.9523 134.169 96.2065C138.124 93.8484 141.033 89.95 141.863 85.3595C141.875 85.2958 141.848 85.2639 141.783 85.2639L137.566 85.2568C137.501 85.2568 137.461 85.2881 137.446 85.3506C136.694 88.5928 134.947 90.9408 132.206 92.3949C129.2 93.99 125.935 93.8802 123.416 91.4124C121.329 88.9374 121.29 85.5684 122.662 82.7518C124.464 79.0464 128.336 76.4015 132.537 77.1911C132.572 77.1975 132.608 77.1912 132.64 77.1735C132.671 77.1557 132.695 77.1275 132.708 77.0937L134.341 72.7492C134.361 72.6949 134.342 72.6619 134.286 72.6501C126.926 71.0869 119.861 76.7733 117.813 83.598C116.635 87.5176 117.175 91.7416 119.898 94.907ZM112.652 104.189C112.632 104.189 112.613 104.196 112.598 104.208C112.582 104.221 112.572 104.239 112.569 104.258L111.328 111.504C111.326 111.516 111.326 111.529 111.33 111.54C111.333 111.552 111.339 111.563 111.347 111.572C111.354 111.582 111.364 111.589 111.376 111.594C111.387 111.599 111.399 111.602 111.411 111.602H138.876C138.896 111.602 138.915 111.595 138.931 111.582C138.946 111.57 138.956 111.552 138.96 111.532L140.201 104.283C140.203 104.271 140.202 104.258 140.199 104.247C140.196 104.235 140.19 104.224 140.182 104.215C140.174 104.205 140.164 104.198 140.153 104.193C140.142 104.188 140.13 104.185 140.117 104.185L112.652 104.189ZM137.189 121.521C137.206 121.521 137.222 121.515 137.235 121.505C137.248 121.494 137.257 121.479 137.26 121.462L138.505 114.204C138.506 114.194 138.506 114.183 138.503 114.173C138.501 114.164 138.496 114.154 138.489 114.146C138.483 114.138 138.475 114.132 138.465 114.128C138.456 114.123 138.446 114.121 138.436 114.121H110.933C110.916 114.12 110.9 114.126 110.887 114.137C110.874 114.148 110.865 114.163 110.862 114.179L109.618 121.438C109.616 121.448 109.616 121.458 109.619 121.468C109.622 121.478 109.626 121.487 109.633 121.495C109.639 121.503 109.648 121.51 109.657 121.514C109.666 121.518 109.676 121.521 109.687 121.521H137.189ZM146.101 120.117C145.08 120.423 143.938 121.489 143.709 122.657C143.582 123.305 143.347 124.668 143.005 126.745C142.761 128.222 143.2 129.212 144.324 129.716C144.664 129.869 145.135 129.946 145.737 129.946C154.031 129.941 162.327 129.939 170.622 129.941C172.058 129.941 173.142 129.447 173.885 128.248C174.13 127.855 174.326 127.247 174.475 126.423C174.649 125.461 174.817 124.498 174.978 123.534C175.114 122.71 175.13 122.082 175.025 121.65C174.749 120.517 173.937 119.951 172.589 119.951C164.66 119.956 156.732 119.958 148.803 119.954C147.368 119.953 146.467 120.007 146.101 120.117ZM181.28 120.211C180.335 120.586 179.349 121.629 179.147 122.723C179.002 123.504 178.799 124.679 178.538 126.248C178.391 127.126 178.361 127.758 178.446 128.144C178.731 129.449 179.775 129.951 181.066 129.951C189.15 129.949 197.236 129.951 205.323 129.957C206.363 129.958 207.104 129.88 207.547 129.723C208.329 129.448 208.932 128.955 209.354 128.245C210.016 127.131 210.17 125.092 210.42 123.647C210.568 122.79 210.593 122.145 210.496 121.712C210.232 120.529 209.384 119.939 207.952 119.94C199.859 119.948 191.766 119.949 183.672 119.942C182.532 119.94 181.734 120.03 181.28 120.211ZM109.239 124.044C109.221 124.044 109.204 124.05 109.19 124.062C109.176 124.074 109.167 124.09 109.164 124.107L107.918 131.353C107.916 131.364 107.917 131.375 107.92 131.386C107.923 131.397 107.928 131.406 107.935 131.415C107.942 131.423 107.951 131.43 107.961 131.435C107.971 131.439 107.981 131.442 107.992 131.442H135.476C135.493 131.442 135.511 131.435 135.524 131.424C135.538 131.412 135.547 131.396 135.55 131.378L136.793 124.134C136.794 124.123 136.794 124.112 136.791 124.101C136.788 124.091 136.783 124.081 136.776 124.073C136.769 124.064 136.76 124.057 136.75 124.053C136.74 124.048 136.729 124.045 136.718 124.045L109.239 124.044Z" fill="#29343E"/>
<path d="M124.914 65.083C125.005 65.1621 125.139 65.1875 125.316 65.1591C125.372 65.1497 125.398 65.1727 125.396 65.2282C125.393 65.273 125.37 65.2978 125.325 65.3025C125.04 65.3326 124.771 65.3981 124.491 65.3893C121.286 65.2913 118.079 65.2707 114.871 65.3273C114.823 65.3285 114.794 65.3527 114.786 65.3999L102.558 136.218C102.557 136.228 102.557 136.238 102.56 136.247C102.562 136.257 102.567 136.265 102.574 136.273C102.58 136.281 102.588 136.287 102.597 136.291C102.606 136.295 102.615 136.297 102.625 136.297C127.297 136.386 151.976 136.455 176.662 136.505C177.36 136.506 178.059 136.524 178.758 136.559C178.763 136.559 178.765 136.562 178.765 136.568C178.766 136.569 178.767 136.571 178.767 136.572C178.767 136.574 178.766 136.575 178.763 136.574C178.548 136.529 178.364 136.542 178.211 136.613L102.436 136.602C102.427 136.602 102.418 136.6 102.409 136.596C102.401 136.593 102.394 136.587 102.388 136.58C102.382 136.573 102.378 136.565 102.375 136.556C102.373 136.548 102.372 136.538 102.374 136.529L114.616 65.2282C114.621 65.1975 114.637 65.1697 114.66 65.1496C114.684 65.1295 114.714 65.1184 114.745 65.1184L124.914 65.083Z" fill="#000D14"/>
<path d="M217.939 114.392L226.393 65.2217C226.544 65.1356 226.668 65.1149 226.765 65.1597C226.787 65.17 226.804 65.1872 226.815 65.2087C226.826 65.2302 226.83 65.2547 226.825 65.2784L218.021 114.399C218.015 114.426 218 114.433 217.975 114.42C217.964 114.413 217.952 114.403 217.939 114.392Z" fill="white"/>
<path d="M147.398 95.5016C147.361 95.5783 147.352 95.6544 147.371 95.73L143.923 115.841C143.911 115.909 143.939 115.942 144.008 115.942L213.094 115.944L212.951 116.691C212.938 116.758 212.897 116.792 212.829 116.792H143.048C142.977 116.792 142.948 116.757 142.96 116.686L150.939 70.2049C150.95 70.1365 150.99 70.1029 151.059 70.104H151.647C151.721 70.104 151.752 70.1406 151.739 70.2138L147.398 95.5016Z" fill="white"/>
<path d="M123.414 91.413L119.896 94.9076C117.173 91.7422 116.633 87.5182 117.81 83.5986C119.859 76.7739 126.924 71.0875 134.284 72.6507C134.34 72.6625 134.359 72.6955 134.338 72.7498L132.706 77.0943C132.693 77.1281 132.669 77.1563 132.638 77.1741C132.606 77.1918 132.57 77.1981 132.535 77.1917C128.333 76.4021 124.462 79.047 122.659 82.7524C121.287 85.569 121.326 88.938 123.414 91.413Z" fill="#405164"/>
<path d="M51.2689 80.8338L45.6339 80.8551L45.625 76.369C45.625 76.3385 45.6371 76.3092 45.6587 76.2876C45.6803 76.266 45.7096 76.2539 45.7401 76.2539H51.1822C51.24 76.2539 51.2689 76.2828 51.2689 76.3407V80.8338Z" fill="#141B24"/>
<path d="M42.2432 85.0016L36.6152 85.0352L36.617 78.5132C36.617 78.4471 36.65 78.4141 36.7161 78.4141L42.1547 78.4176C42.1782 78.4176 42.2007 78.4269 42.2173 78.4435C42.2339 78.4601 42.2432 78.4826 42.2432 78.5061V85.0016Z" fill="#141B24"/>
<path d="M218.267 85.8285C216.457 86.6842 214.714 87.8573 213.037 89.348C210.944 91.208 209.217 92.8557 207.855 94.2908C207.775 94.3746 207.692 94.4236 207.605 94.4378C209.388 89.8065 211.52 83.8617 215.754 81.045C216.9 80.2814 218.098 79.5538 219.346 78.8622C219.358 78.8556 219.372 78.8524 219.385 78.8531C219.398 78.8538 219.411 78.8584 219.422 78.8662C219.433 78.874 219.442 78.8847 219.447 78.8972C219.452 78.9096 219.453 78.9233 219.451 78.9365L218.267 85.8285Z" fill="#5A6A8A"/>
<path d="M51.2698 80.8335L51.2716 115.541C51.2716 115.6 51.2421 115.63 51.1831 115.63H45.7463C45.6778 115.63 45.6436 115.595 45.6436 115.525L45.6348 80.8547L51.2698 80.8335Z" fill="#708AA4"/>
<path d="M236.314 81.1216C238.777 83.1126 240.985 85.3315 242.938 87.7781C242.949 87.7907 242.962 87.8003 242.977 87.8058C242.993 87.8112 243.009 87.8124 243.025 87.8091C243.041 87.8058 243.056 87.7982 243.067 87.7871C243.079 87.776 243.088 87.7619 243.092 87.7463C243.252 87.175 243.458 86.605 243.712 86.0361C244.31 84.6995 245.362 86.5548 245.62 87.0558C246.804 89.349 247.509 91.7768 247.734 94.3391C247.758 94.6034 247.835 94.8478 247.966 95.072C248.935 96.7232 249.826 98.4439 250.639 100.234C250.652 100.262 250.67 100.286 250.692 100.307C250.714 100.327 250.74 100.343 250.769 100.353C250.797 100.363 250.827 100.367 250.857 100.365C250.887 100.364 250.917 100.356 250.944 100.342L251.604 100.018L252.376 101.566L251.893 102.929C251.873 102.986 251.874 103.042 251.896 103.099C252.707 105.126 253.425 107.227 254.051 109.4C253.386 111.524 252.38 113.522 251.031 115.392C250.059 116.736 249.017 117.96 247.902 119.064C247.782 119.183 247.751 119.163 247.809 119.004C248.759 116.394 249.436 113.74 249.051 110.972C248.966 110.356 248.698 109.207 248.248 107.525C247.864 106.094 247.447 104.674 246.998 103.263C246.872 102.865 246.571 102.138 246.235 101.914C245.828 101.645 245.412 101.704 244.987 102.091C241.942 104.864 241.54 109.068 241.749 113.027C241.784 113.688 241.877 114.378 242.027 115.098C242.542 117.582 243.076 120.018 245.112 121.758C245.154 121.794 245.155 121.832 245.118 121.872L240.819 126.414C238.7 115.109 236.598 103.883 234.515 92.7369C234.451 92.3982 234.448 92.0589 234.506 91.7189C235.09 88.2219 235.693 84.6894 236.314 81.1216Z" fill="#000D14"/>
<path d="M95.1433 123.474C94.3113 128.294 93.4863 133.116 92.6684 137.939C92.4229 139.385 92.3367 140.431 92.4099 141.076C92.5964 142.725 93.3783 144.083 94.7556 145.15C94.6175 145.414 94.575 145.709 94.6282 146.033C94.6325 146.06 94.6311 146.087 94.6239 146.113C94.6168 146.138 94.6041 146.162 94.5867 146.183C94.5694 146.203 94.5477 146.22 94.5234 146.231C94.4991 146.242 94.4726 146.248 94.4458 146.248L81.7382 146.255L84.0963 131.784C84.1069 131.722 84.0939 131.666 84.0573 131.616C83.9877 131.52 83.9741 131.427 84.0166 131.336L87.9397 131.338C88.0153 131.338 88.0524 131.3 88.0513 131.224L88.0495 131.056C88.0495 130.99 88.0164 130.957 87.9504 130.957H86.4243L87.6317 123.552C87.634 123.537 87.6332 123.523 87.6294 123.509C87.6256 123.495 87.6188 123.483 87.6095 123.472C87.6003 123.461 87.5888 123.452 87.5758 123.446C87.5628 123.44 87.5487 123.437 87.5343 123.437L85.0895 123.422C83.5197 121.597 82.2085 119.915 81.1557 118.379C80.9551 118.086 80.7769 117.741 80.6211 117.343C80.0245 115.828 81.0283 114.978 82.4888 115.661C83.9263 116.336 85.2842 117.964 86.0897 119.308C86.1393 119.389 86.1629 119.382 86.1605 119.287C86.1015 117.292 85.8578 115.429 85.4294 113.698C85.3532 113.384 85.1107 113.149 84.792 113.014C80.7887 111.328 77.314 108.887 74.3682 105.69C73.2316 104.458 67.4248 97.3768 71.378 96.4014C72.5128 96.1217 74.2743 96.7519 75.3029 97.2405C82.0002 100.418 85.656 107.847 86.8545 114.785C86.8565 114.797 86.8626 114.807 86.8717 114.815C86.8807 114.823 86.8923 114.827 86.9042 114.828C86.9162 114.828 86.9279 114.824 86.9372 114.816C86.9466 114.809 86.953 114.798 86.9554 114.787C87.2281 113.558 87.4989 112.329 87.6583 111.078C88.1634 107.127 88.5234 103.163 88.7382 99.1844C88.7535 98.9094 88.7063 98.6503 88.5965 98.4072C87.2245 95.3604 85.5922 92.4411 84.7496 89.1801C84.4539 88.0311 84.1901 84.995 85.1036 84.0868C86.8457 82.3518 88.7311 87.5726 89.009 88.5428C89.716 91.0177 90.0459 93.6479 89.9987 96.4332C89.9278 100.719 89.5331 104.945 89.1082 109.201C89.107 109.21 89.109 109.219 89.1138 109.227C89.1186 109.235 89.1259 109.241 89.1346 109.244C89.1434 109.247 89.153 109.247 89.162 109.244C89.171 109.241 89.1788 109.235 89.1843 109.228C90.7829 106.802 93.0401 104.421 95.8161 103.44C96.2533 103.286 96.8287 103.277 97.227 103.548C98.1883 104.203 97.5085 105.549 96.9296 106.322C95.164 108.684 92.9611 110.6 90.3209 112.069C89.7225 112.402 89.3649 112.752 88.9825 113.415C88.8007 113.731 88.583 114.021 88.3292 114.284C88.2879 114.327 88.2608 114.378 88.2478 114.436C88.0159 115.505 87.8583 116.904 87.3325 117.86C87.303 117.912 87.29 117.968 87.2936 118.028C87.398 119.779 87.3803 121.608 87.6901 123.33C87.7007 123.393 87.7379 123.425 87.8017 123.426L95.1433 123.474Z" fill="#141B24"/>
<path d="M33.2196 88.8721L27.5898 88.8951L27.5934 84.1966C27.5934 84.1769 27.5973 84.1574 27.6049 84.1393C27.6125 84.1211 27.6236 84.1046 27.6376 84.0908C27.6516 84.077 27.6682 84.066 27.6864 84.0587C27.7047 84.0513 27.7242 84.0476 27.7439 84.0479L33.1222 84.055C33.1859 84.055 33.2178 84.0868 33.2178 84.1505L33.2196 88.8721Z" fill="#141B24"/>
<path d="M42.2432 85.0005L42.2414 115.543C42.2414 115.602 42.2119 115.631 42.1529 115.631H36.7126C36.6477 115.631 36.6152 115.599 36.6152 115.534V85.0341L42.2432 85.0005Z" fill="#708AA4"/>
<path d="M256.142 135.556C254.471 135.983 252.069 136.107 250.691 135.004C250.68 134.995 250.667 134.988 250.653 134.983C250.639 134.979 250.624 134.978 250.609 134.979C250.595 134.981 250.581 134.985 250.568 134.992C250.555 134.999 250.543 135.008 250.534 135.02C248.337 137.726 245.733 140.028 242.72 141.926L243.056 140.556C244.044 139.923 244.955 139.233 245.789 138.485C245.837 138.442 245.835 138.402 245.786 138.364C244.837 137.629 244.116 136.718 243.622 135.631C243.596 135.573 243.552 135.542 243.488 135.537L242.507 135.459L240.816 126.412L245.115 121.87C245.153 121.83 245.151 121.792 245.11 121.756C243.074 120.016 242.539 117.58 242.024 115.096C241.874 114.376 241.781 113.686 241.746 113.025C241.537 109.066 241.939 104.862 244.984 102.089C245.409 101.702 245.825 101.643 246.232 101.912C246.568 102.136 246.869 102.863 246.995 103.261C247.445 104.672 247.861 106.092 248.245 107.523C248.696 109.205 248.964 110.354 249.049 110.97C249.433 113.738 248.756 116.392 247.806 119.002C247.748 119.161 247.779 119.181 247.9 119.062C249.014 117.958 250.056 116.734 251.028 115.39C252.377 113.52 253.384 111.522 254.048 109.398C254.546 107.928 254.865 106.459 255.006 104.989C255.012 104.93 254.992 104.881 254.946 104.841C253.914 103.94 253.057 102.848 252.373 101.564L251.601 100.016C250.187 96.7991 249.753 93.4643 250.297 90.0121C250.475 88.8779 250.761 87.5241 251.154 85.9509C251.208 85.7349 251.15 85.3277 251.495 85.2303C251.61 85.1973 251.832 85.182 252.163 85.1843C252.217 85.1843 252.269 85.2024 252.311 85.2357C254.625 87.0432 256.057 90.028 256.449 92.7561C256.604 93.8431 256.686 95.1916 256.695 96.8014C256.705 98.5877 256.35 100.535 256.388 102.44C256.414 103.715 256.406 104.577 256.362 105.026C256.198 106.741 255.828 108.417 255.254 110.054C255.25 110.066 255.25 110.08 255.254 110.092C255.258 110.103 255.267 110.114 255.277 110.121C255.288 110.128 255.3 110.131 255.313 110.13C255.326 110.13 255.338 110.125 255.348 110.116C256.13 109.407 256.984 108.797 257.911 108.287C257.935 108.274 257.956 108.256 257.972 108.233C257.988 108.21 257.999 108.184 258.003 108.156C258.266 106.531 258.94 105.119 260.023 103.92C260.462 103.435 260.754 102.939 261.073 102.415C261.753 101.291 262.447 102.316 262.555 103.072C262.702 104.093 262.84 105.116 262.967 106.142C262.974 106.202 263.008 106.227 263.068 106.216C264.815 105.921 266.564 105.677 268.317 105.483C269.186 105.388 269.507 106.039 269.201 106.783C267.503 110.904 264.017 115.394 259.504 116.575C259.456 116.588 259.427 116.618 259.418 116.667C259.165 117.987 258.812 119.281 258.359 120.547C258.354 120.559 258.353 120.573 258.357 120.586C258.361 120.598 258.37 120.609 258.381 120.616C258.392 120.624 258.405 120.627 258.418 120.625C258.431 120.623 258.444 120.617 258.453 120.607C259.265 119.812 260.153 119.13 261.117 118.563C262.036 118.021 263.252 117.752 264.298 117.297C264.876 117.045 265.123 117.692 264.992 118.141C264.337 120.407 262.686 122.601 260.497 123.698C260.126 123.884 259.662 123.923 259.228 124.028C259.217 124.03 259.207 124.036 259.2 124.045C259.193 124.054 259.189 124.065 259.188 124.076C259.188 124.087 259.191 124.098 259.198 124.108C259.204 124.117 259.214 124.124 259.225 124.127C259.89 124.331 260.046 124.718 259.692 125.288C258.528 127.159 257.03 129.073 255.197 131.031C255.139 131.093 255.152 131.115 255.234 131.099C256.792 130.775 258.36 130.531 259.938 130.366C260.351 130.321 260.662 130.474 260.552 130.939C259.976 133.392 258.506 134.931 256.142 135.556ZM256.463 122.684C257.349 120.776 257.989 118.845 258.384 116.891C258.398 116.822 258.37 116.792 258.3 116.801C257.395 116.916 256.532 116.938 255.71 116.868C254.511 116.61 253.61 116.002 253.005 115.045C253.001 115.038 252.995 115.032 252.988 115.028C252.981 115.024 252.973 115.021 252.965 115.021C252.957 115.021 252.949 115.023 252.942 115.027C252.934 115.031 252.928 115.036 252.924 115.043C250.075 119.196 246.377 122.454 242.907 126.042C242.677 126.28 242.717 126.34 243.028 126.225C245.439 125.32 247.924 124.707 250.483 124.387C250.51 124.384 250.534 124.37 250.552 124.349C250.569 124.329 250.578 124.302 250.576 124.276C250.471 122.698 250.586 121.138 250.922 119.597C251.051 118.997 251.321 118.53 251.729 118.196C251.769 118.164 251.814 118.141 251.864 118.127C251.913 118.114 251.964 118.111 252.015 118.118C252.065 118.126 252.113 118.144 252.156 118.171C252.2 118.198 252.237 118.234 252.265 118.276C253.443 120.017 254.284 121.905 254.786 123.939C254.802 123.998 254.839 124.027 254.9 124.026L255.841 123.998C255.895 123.995 255.931 123.97 255.951 123.922L256.463 122.684ZM247.069 137.263C247.069 137.274 247.072 137.284 247.078 137.293C247.084 137.302 247.093 137.309 247.103 137.313C247.113 137.317 247.123 137.318 247.134 137.316C247.144 137.314 247.154 137.308 247.161 137.3L249.534 134.788C249.542 134.78 249.547 134.769 249.548 134.757C249.55 134.746 249.547 134.734 249.542 134.724C249.536 134.714 249.527 134.706 249.516 134.702C249.505 134.697 249.494 134.697 249.482 134.699L247.138 135.257C247.127 135.26 247.117 135.266 247.11 135.275C247.102 135.284 247.098 135.295 247.098 135.307L247.069 137.263Z" fill="#2C3949"/>
<path d="M119.896 94.908L123.414 91.4134C125.933 93.8812 129.198 93.991 132.204 92.3959C134.946 90.9418 136.692 88.5938 137.444 85.3516C137.46 85.2891 137.5 85.2578 137.565 85.2578L141.782 85.2649C141.847 85.2649 141.873 85.2968 141.861 85.3605C141.031 89.951 138.122 93.8494 134.167 96.2075C129.564 98.9533 123.738 98.9445 119.896 94.908Z" fill="#495E6A"/>
<path d="M218.264 85.8267L213.096 115.944L144.009 115.942C143.941 115.942 143.913 115.909 143.924 115.841L147.373 95.73C147.653 95.7277 148.298 95.7053 149.31 95.6628C154.855 95.4326 157.742 102.259 163.129 103.013C165.749 103.382 169.042 101.87 171.101 100.335C171.137 100.308 171.178 100.288 171.222 100.278C171.266 100.267 171.311 100.264 171.355 100.271C171.4 100.278 171.443 100.293 171.481 100.317C171.519 100.34 171.553 100.371 171.579 100.407C173.698 103.33 177.811 107.158 181.543 104.146C183.54 102.535 185.094 100.027 186.45 98.5679C188.817 96.0239 191.627 95.7708 193.473 99.053C193.752 99.5499 194.308 100.637 195.143 102.314C196.175 104.384 197.736 106.717 200.337 105.051C201.823 104.1 203.09 102.861 204.138 101.335C205.447 99.4277 206.552 97.1994 207.454 94.6501L207.602 94.4359C207.689 94.4217 207.772 94.3728 207.852 94.289C209.214 92.8538 210.941 91.2062 213.034 89.3461C214.711 87.8555 216.454 86.6823 218.264 85.8267Z" fill="#708AA4"/>
<path d="M207.456 94.6499C206.554 97.1992 205.449 99.4275 204.14 101.335C203.092 102.861 201.825 104.099 200.339 105.051C197.738 106.717 196.177 104.383 195.144 102.314C194.31 100.637 193.754 99.5496 193.475 99.0527C191.629 95.7705 188.819 96.0237 186.452 98.5677C185.096 100.026 183.542 102.535 181.545 104.146C177.813 107.157 173.7 103.33 171.581 100.407C171.555 100.371 171.521 100.34 171.483 100.317C171.444 100.293 171.402 100.278 171.357 100.271C171.313 100.264 171.267 100.266 171.224 100.277C171.18 100.288 171.139 100.308 171.103 100.334C169.044 101.869 165.751 103.381 163.131 103.013C157.744 102.259 154.856 95.4324 149.312 95.6625C148.3 95.705 147.655 95.7274 147.375 95.7298C147.356 95.6542 147.365 95.5781 147.401 95.5014C147.501 95.4955 147.544 95.4648 147.532 95.4093C149.21 92.9769 151.22 90.8123 153.564 88.9157C155.897 87.0302 158.873 85.5077 161.775 86.9187C163.83 87.919 165.643 90.4435 166.815 92.5113C168.244 95.0311 169.707 97.5013 171.202 99.922C171.226 99.9606 171.257 99.9939 171.295 100.02C171.332 100.045 171.374 100.063 171.419 100.071C171.463 100.08 171.509 100.079 171.553 100.068C171.597 100.058 171.639 100.038 171.675 100.011C176.237 96.5282 180.629 92.7733 186.751 92.9769C187.9 93.0146 188.838 93.1244 189.568 93.3062C192.723 94.094 194.943 97.0115 197.014 98.8704C197.426 99.241 197.932 99.575 198.533 99.8724C200.22 100.708 201.527 99.9503 202.906 98.9093C203.852 98.1965 205.369 96.7766 207.456 94.6499Z" fill="#5A6A8A"/>
<path d="M15.1835 92.5734L9.54846 92.5663L9.54492 88.3971C9.54492 88.3381 9.57384 88.3086 9.63167 88.3086L15.0684 88.3139C15.0842 88.3139 15.0999 88.317 15.1145 88.3231C15.1291 88.3291 15.1424 88.338 15.1536 88.3492C15.1647 88.3603 15.1736 88.3736 15.1797 88.3882C15.1857 88.4028 15.1888 88.4185 15.1888 88.4343L15.1835 92.5734Z" fill="#141B24"/>
<path d="M33.2196 88.8701L33.2178 115.532C33.2178 115.599 33.1842 115.633 33.1169 115.633L27.6854 115.62C27.6241 115.62 27.5934 115.59 27.5934 115.528L27.5898 88.8931L33.2196 88.8701Z" fill="#708AA4"/>
<path d="M24.2029 92.4423L18.5625 92.4671L18.5784 90.4666C18.5784 90.3911 18.6168 90.3527 18.6935 90.3515L24.1019 90.3462C24.1151 90.346 24.1282 90.3484 24.1404 90.3534C24.1527 90.3583 24.1638 90.3657 24.1732 90.3751C24.1826 90.3845 24.19 90.3957 24.1951 90.4081C24.2002 90.4204 24.2029 90.4337 24.2029 90.4471V92.4423Z" fill="#141B24"/>
<path d="M5.07057 90.9448L6.03719 90.9678C6.11154 90.9702 6.14931 91.0091 6.15049 91.0847L6.15934 95.1565C6.12512 95.16 6.09561 95.1654 6.07083 95.1724C6.03116 95.1842 5.99349 95.1951 5.96438 95.2032C5.93526 95.2113 5.91655 95.2161 5.9115 95.2167L0.513672 95.2716V91.1466C0.513672 91.095 0.534004 91.0455 0.570192 91.0089C0.606381 90.9724 0.655462 90.9519 0.70664 90.9519L5.07057 90.9448Z" fill="#141B24"/>
<path d="M24.2029 92.4429L24.1905 115.498C24.1905 115.516 24.1869 115.534 24.1799 115.551C24.173 115.567 24.1628 115.583 24.1499 115.595C24.1371 115.608 24.1218 115.618 24.1051 115.625C24.0883 115.631 24.0704 115.635 24.0524 115.635L18.7059 115.619C18.6707 115.619 18.6369 115.605 18.612 115.58C18.5871 115.555 18.5731 115.521 18.5731 115.486L18.5625 92.4676L24.2029 92.4429Z" fill="#708AA4"/>
<path d="M15.1817 92.5745L15.1711 115.527C15.1711 115.598 15.1357 115.633 15.0649 115.633H9.6299C9.57325 115.633 9.54492 115.605 9.54492 115.548L9.54669 92.5674L15.1817 92.5745Z" fill="#708AA4"/>
<path d="M6.15934 95.1558L6.14695 115.522C6.14695 115.596 6.10977 115.634 6.03542 115.634L1.49976 115.621L0.637596 115.616C0.563241 115.616 0.526066 115.579 0.526066 115.504L0.513672 95.2708L5.9115 95.216C5.91655 95.2153 5.93526 95.2105 5.96438 95.2024C5.99349 95.1944 6.03116 95.1835 6.07083 95.1717C6.09561 95.1646 6.12512 95.1593 6.15934 95.1558Z" fill="#708AA4"/>
<path d="M234.276 146.261L218.939 146.265C220.012 146.005 220.723 145.795 221.071 145.633C223.718 144.404 225.427 142.478 226.198 139.853C226.297 139.515 226.516 138.357 226.855 136.379C228.925 124.324 230.994 112.266 233.062 100.206C233.063 100.199 233.067 100.192 233.072 100.188C233.078 100.183 233.085 100.18 233.092 100.18C233.099 100.18 233.106 100.182 233.112 100.186C233.118 100.191 233.122 100.197 233.124 100.204C235.443 112.589 237.763 124.985 240.083 137.392C240.298 138.538 240.379 139.416 240.325 140.026C240.164 141.864 239.326 143.39 237.811 144.606C236.776 145.436 235.663 145.911 234.473 146.033C234.312 146.05 234.247 146.126 234.276 146.261Z" fill="#7B8F9F"/>
<path d="M252.376 101.566C253.06 102.85 253.917 103.942 254.949 104.843C254.995 104.883 255.015 104.933 255.009 104.992C254.869 106.461 254.549 107.93 254.051 109.4C253.426 107.227 252.707 105.127 251.897 103.099C251.874 103.042 251.873 102.986 251.893 102.929L252.376 101.566Z" fill="#00000F"/>
<path d="M112.65 104.189L140.115 104.186C140.127 104.185 140.139 104.188 140.15 104.193C140.162 104.198 140.172 104.205 140.179 104.215C140.187 104.224 140.193 104.235 140.196 104.247C140.2 104.259 140.2 104.271 140.198 104.283L138.957 111.533C138.954 111.552 138.944 111.57 138.928 111.582C138.913 111.595 138.894 111.602 138.874 111.602H111.409C111.396 111.602 111.384 111.599 111.373 111.594C111.362 111.589 111.352 111.582 111.344 111.572C111.336 111.563 111.33 111.552 111.327 111.54C111.324 111.529 111.323 111.516 111.325 111.504L112.566 104.258C112.57 104.239 112.58 104.221 112.595 104.208C112.611 104.196 112.63 104.189 112.65 104.189ZM113.317 105.074C113.303 105.074 113.289 105.079 113.278 105.088C113.267 105.097 113.259 105.11 113.257 105.124L112.312 110.651C112.31 110.66 112.31 110.668 112.313 110.677C112.315 110.685 112.319 110.693 112.324 110.7C112.33 110.707 112.337 110.712 112.345 110.716C112.353 110.72 112.361 110.722 112.37 110.722H138.207C138.221 110.722 138.235 110.717 138.246 110.708C138.257 110.699 138.264 110.686 138.267 110.672L139.214 105.147C139.215 105.138 139.215 105.129 139.213 105.121C139.211 105.113 139.207 105.105 139.201 105.098C139.196 105.091 139.189 105.086 139.181 105.082C139.173 105.078 139.164 105.076 139.155 105.076L113.317 105.074Z" fill="#405164"/>
<path d="M113.313 105.076L139.152 105.078C139.16 105.078 139.169 105.08 139.177 105.084C139.185 105.088 139.192 105.093 139.197 105.1C139.203 105.107 139.207 105.114 139.209 105.123C139.211 105.131 139.211 105.14 139.21 105.149L138.263 110.674C138.26 110.688 138.253 110.701 138.242 110.71C138.231 110.719 138.217 110.724 138.203 110.724H112.366C112.357 110.724 112.349 110.721 112.341 110.718C112.333 110.714 112.326 110.708 112.32 110.702C112.315 110.695 112.311 110.687 112.309 110.679C112.306 110.67 112.306 110.661 112.308 110.653L113.253 105.126C113.255 105.112 113.263 105.099 113.274 105.09C113.285 105.081 113.299 105.076 113.313 105.076Z" fill="#29343E"/>
<path d="M137.188 121.52H109.685C109.675 121.52 109.665 121.518 109.656 121.513C109.646 121.509 109.638 121.503 109.632 121.495C109.625 121.487 109.62 121.477 109.618 121.468C109.615 121.458 109.615 121.447 109.616 121.437L110.861 114.179C110.864 114.162 110.873 114.147 110.886 114.136C110.899 114.126 110.915 114.12 110.932 114.12H138.434C138.445 114.12 138.455 114.123 138.464 114.127C138.473 114.131 138.481 114.138 138.488 114.146C138.495 114.154 138.499 114.163 138.502 114.173C138.505 114.183 138.505 114.193 138.503 114.203L137.259 121.462C137.256 121.478 137.247 121.493 137.234 121.504C137.221 121.515 137.205 121.52 137.188 121.52ZM111.617 114.998C111.603 114.998 111.589 115.003 111.578 115.012C111.567 115.021 111.559 115.034 111.557 115.048L110.615 120.566C110.613 120.575 110.614 120.583 110.616 120.592C110.618 120.6 110.622 120.608 110.628 120.615C110.633 120.622 110.64 120.627 110.648 120.631C110.656 120.635 110.665 120.637 110.673 120.637H136.499C136.514 120.637 136.527 120.632 136.538 120.623C136.549 120.614 136.557 120.601 136.559 120.587L137.507 115.069C137.508 115.06 137.508 115.052 137.506 115.043C137.503 115.035 137.499 115.027 137.494 115.02C137.488 115.013 137.481 115.008 137.473 115.004C137.465 115 137.457 114.998 137.448 114.998H111.617Z" fill="#495E6A"/>
<path d="M111.618 115H137.45C137.458 115 137.467 115.002 137.475 115.005C137.483 115.009 137.49 115.015 137.495 115.021C137.501 115.028 137.505 115.036 137.507 115.044C137.509 115.053 137.509 115.062 137.508 115.07L136.561 120.589C136.558 120.603 136.551 120.615 136.54 120.624C136.529 120.633 136.515 120.638 136.501 120.638H110.675C110.666 120.638 110.657 120.636 110.649 120.632C110.642 120.628 110.635 120.623 110.629 120.616C110.623 120.609 110.619 120.602 110.617 120.593C110.615 120.585 110.615 120.576 110.616 120.567L111.558 115.049C111.561 115.035 111.568 115.022 111.579 115.013C111.59 115.004 111.604 114.999 111.618 115Z" fill="#29343E"/>
<path d="M255.712 116.869L256.464 122.684L255.953 123.922C255.933 123.97 255.896 123.996 255.843 123.998L254.901 124.026C254.841 124.027 254.803 123.998 254.788 123.939C254.285 121.905 253.445 120.017 252.267 118.276C252.238 118.234 252.201 118.198 252.158 118.171C252.115 118.144 252.067 118.126 252.016 118.118C251.966 118.111 251.914 118.114 251.865 118.127C251.816 118.141 251.77 118.164 251.73 118.196C251.322 118.53 251.053 118.997 250.923 119.597C250.588 121.138 250.473 122.698 250.578 124.276C250.579 124.303 250.571 124.329 250.553 124.35C250.536 124.37 250.511 124.384 250.484 124.387C247.925 124.707 245.44 125.32 243.029 126.225C242.719 126.341 242.679 126.28 242.909 126.043C246.379 122.454 250.077 119.197 252.925 115.043C252.93 115.037 252.936 115.031 252.943 115.027C252.95 115.023 252.958 115.021 252.967 115.021C252.975 115.022 252.983 115.024 252.99 115.028C252.997 115.032 253.003 115.038 253.007 115.045C253.611 116.002 254.513 116.61 255.712 116.869Z" fill="#000D14"/>
<path d="M256.463 122.687L255.711 116.871C256.532 116.941 257.396 116.918 258.301 116.804C258.371 116.794 258.398 116.825 258.384 116.894C257.99 118.848 257.35 120.778 256.463 122.687Z" fill="#00000F"/>
<path d="M143.704 122.657C143.932 121.489 145.074 120.423 146.095 120.117C146.461 120.007 147.362 119.953 148.797 119.954C156.726 119.957 164.655 119.956 172.583 119.95C173.931 119.95 174.743 120.517 175.02 121.65C175.125 122.082 175.109 122.71 174.972 123.533C174.811 124.498 174.644 125.461 174.469 126.423C174.32 127.246 174.124 127.855 173.879 128.248C173.136 129.446 172.052 129.94 170.617 129.94C162.321 129.939 154.025 129.941 145.731 129.946C145.129 129.946 144.658 129.869 144.318 129.715C143.194 129.212 142.755 128.221 142.999 126.745C143.341 124.668 143.576 123.305 143.704 122.657Z" fill="#405164"/>
<path d="M179.144 122.722C179.346 121.628 180.332 120.586 181.278 120.21C181.732 120.03 182.529 119.94 183.669 119.941C191.763 119.948 199.857 119.948 207.95 119.939C209.382 119.938 210.23 120.529 210.494 121.712C210.591 122.145 210.565 122.79 210.418 123.647C210.168 125.091 210.014 127.131 209.352 128.244C208.929 128.955 208.327 129.447 207.544 129.722C207.102 129.879 206.361 129.957 205.321 129.956C197.234 129.95 189.148 129.948 181.063 129.951C179.773 129.951 178.728 129.448 178.443 128.143C178.358 127.757 178.389 127.125 178.535 126.247C178.796 124.679 178.999 123.504 179.144 122.722Z" fill="#495E6A"/>
<path d="M85.089 123.422L87.5339 123.436C87.5482 123.436 87.5623 123.439 87.5753 123.445C87.5883 123.451 87.5998 123.46 87.6091 123.471C87.6183 123.482 87.6251 123.495 87.6289 123.509C87.6328 123.523 87.6335 123.537 87.6312 123.551L86.4239 130.957L75.2617 130.976C75.2075 130.977 75.1709 131.003 75.152 131.054L75.129 131.116L73.0187 131.128C72.9621 131.128 72.929 131.1 72.9196 131.043L71.6927 123.479C71.6868 123.444 71.701 123.427 71.7352 123.427L85.089 123.422Z" fill="#26303E"/>
<path d="M109.234 124.044L136.713 124.046C136.724 124.046 136.735 124.048 136.745 124.053C136.755 124.058 136.764 124.064 136.771 124.073C136.778 124.081 136.783 124.091 136.786 124.102C136.789 124.112 136.789 124.123 136.788 124.134L135.545 131.379C135.542 131.396 135.533 131.412 135.519 131.424C135.506 131.436 135.488 131.442 135.471 131.442H107.987C107.976 131.442 107.966 131.44 107.956 131.435C107.946 131.43 107.937 131.424 107.93 131.415C107.923 131.407 107.918 131.397 107.915 131.386C107.912 131.376 107.911 131.365 107.913 131.354L109.159 124.108C109.162 124.09 109.171 124.074 109.185 124.062C109.199 124.051 109.216 124.044 109.234 124.044ZM109.926 124.938C109.906 124.938 109.886 124.945 109.87 124.959C109.855 124.972 109.844 124.99 109.841 125.011L108.906 130.47C108.904 130.483 108.905 130.495 108.908 130.507C108.912 130.52 108.917 130.531 108.926 130.54C108.934 130.55 108.944 130.558 108.955 130.563C108.966 130.568 108.979 130.571 108.991 130.571L134.771 130.578C134.792 130.578 134.811 130.571 134.827 130.558C134.843 130.544 134.853 130.526 134.856 130.506L135.8 125.041C135.802 125.028 135.801 125.016 135.798 125.004C135.795 124.991 135.789 124.98 135.781 124.971C135.773 124.961 135.762 124.953 135.751 124.948C135.74 124.943 135.727 124.94 135.715 124.94L109.926 124.938Z" fill="#405164"/>
<path d="M109.929 124.938L135.718 124.94C135.73 124.94 135.743 124.943 135.754 124.948C135.766 124.953 135.776 124.961 135.784 124.971C135.792 124.98 135.798 124.991 135.801 125.004C135.804 125.016 135.805 125.028 135.803 125.041L134.859 130.506C134.856 130.526 134.846 130.544 134.83 130.558C134.814 130.571 134.795 130.578 134.774 130.578L108.994 130.571C108.982 130.571 108.969 130.568 108.958 130.563C108.947 130.558 108.937 130.55 108.929 130.54C108.921 130.531 108.915 130.52 108.911 130.507C108.908 130.495 108.907 130.483 108.909 130.47L109.844 125.011C109.847 124.99 109.858 124.972 109.873 124.959C109.889 124.945 109.909 124.938 109.929 124.938Z" fill="#29343E"/>
<path d="M86.4257 130.957H87.9518C88.0179 130.957 88.0509 130.99 88.0509 131.056L88.0527 131.224C88.0539 131.3 88.0167 131.338 87.9412 131.338L84.0181 131.336L75.1822 131.345L75.1309 131.116L75.1539 131.054C75.1728 131.004 75.2093 130.978 75.2636 130.977L86.4257 130.957Z" fill="#7B8F9F"/>
<path d="M75.1816 131.344L84.0175 131.335C83.975 131.426 83.9886 131.52 84.0582 131.615C84.0948 131.666 84.1078 131.722 84.0972 131.783L81.7391 146.254C80.3015 146.258 78.9543 146.257 77.6973 146.251C77.6737 146.251 77.6519 146.245 77.6318 146.235C77.5645 146.201 77.5498 146.182 77.5876 146.178L75.1816 131.344Z" fill="#26303E"/>
<path d="M247.072 137.265L247.101 135.309C247.101 135.298 247.105 135.286 247.113 135.278C247.12 135.269 247.13 135.262 247.141 135.26L249.485 134.702C249.497 134.699 249.508 134.7 249.519 134.704C249.53 134.709 249.539 134.717 249.545 134.727C249.55 134.737 249.553 134.748 249.551 134.76C249.55 134.771 249.545 134.782 249.537 134.79L247.164 137.303C247.157 137.31 247.147 137.316 247.137 137.318C247.126 137.321 247.115 137.32 247.105 137.316C247.096 137.312 247.087 137.305 247.081 137.296C247.075 137.287 247.072 137.276 247.072 137.265Z" fill="#000D14"/>
<path d="M256.145 135.559C255.724 139.167 254.983 142.663 253.922 146.047C253.905 146.101 253.871 146.148 253.825 146.181C253.779 146.215 253.724 146.233 253.667 146.233C249.05 146.223 244.408 146.224 239.741 146.236C238.966 146.238 238.238 146.157 237.48 146.075C239.959 145.519 241.706 144.137 242.722 141.929C245.736 140.031 248.34 137.729 250.537 135.023C250.546 135.011 250.558 135.002 250.571 134.995C250.583 134.988 250.598 134.983 250.612 134.982C250.627 134.981 250.642 134.982 250.656 134.986C250.67 134.99 250.683 134.998 250.694 135.007C252.072 136.11 254.474 135.986 256.145 135.559Z" fill="#000D14"/>
<path d="M242.51 135.46L243.491 135.538C243.554 135.543 243.599 135.574 243.625 135.632C244.118 136.719 244.84 137.63 245.788 138.365C245.838 138.403 245.839 138.443 245.792 138.485C244.958 139.234 244.046 139.924 243.059 140.557C243.26 138.797 242.882 137.42 242.51 135.46Z" fill="#000D14"/>
</g>
<defs>
<linearGradient id="paint0_linear_108_41" x1="106.588" y1="0.753418" x2="106.588" y2="146.226" gradientUnits="userSpaceOnUse">
<stop stop-color="#292D32"/>
<stop offset="1" stop-color="#798BA3" stop-opacity="0"/>
</linearGradient>
</defs>
</svg>
