<svg width="145" height="79" viewBox="0 0 145 79" fill="none" xmlns="http://www.w3.org/2000/svg">
<g id="Group 59910" style="mix-blend-mode:lighten">
<g id="Group">
<path id="Vector" d="M48.2214 24.3814C48.2182 22.5261 48.2192 20.7112 48.2242 18.9369C48.2248 18.746 48.2035 18.5284 48.1602 18.2842" stroke="#131827" stroke-width="0.1"/>
<path id="Vector_2" d="M48.1604 18.2842C47.8961 17.3079 47.321 16.6832 46.435 16.41C46.1393 16.319 45.6675 16.2738 45.0195 16.2744C41.6265 16.2763 38.2335 16.2772 34.8405 16.2772C33.9401 16.2763 33.2874 16.3432 32.6621 16.8819C32.0424 17.4149 31.7331 18.1157 31.7344 18.984C31.7381 21.5507 31.7447 24.0798 31.7542 26.5712" stroke="#000712" stroke-width="0.1"/>
<path id="Vector_3" d="M31.7529 26.5713L31.752 29.0369" stroke="#131827" stroke-width="0.1"/>
<path id="Vector_4" d="M31.7523 29.0361C31.731 29.0462 31.7128 29.0606 31.6977 29.0795C31.6972 29.0797 31.6966 29.0799 31.6961 29.0799C31.6956 29.0799 31.6952 29.0797 31.6949 29.0795C31.6874 29.0713 31.6795 29.0638 31.6714 29.0569C31.6544 29.0437 31.6356 29.038 31.6148 29.0399C26.3822 29.6125 20.8462 30.0552 16.059 32.5792C9.84593 35.8548 5.5513 42.3147 3.45013 48.847C3.44573 48.8602 3.4451 48.8721 3.44824 48.8828C3.45201 48.8935 3.45735 48.9045 3.46425 48.9158C3.47493 48.9327 3.47022 48.9425 3.45013 48.945C3.42941 48.9475 3.42093 48.9591 3.4247 48.9798" stroke="#000712" stroke-width="0.1"/>
<path id="Vector_5" d="M3.42421 48.9805L1.10266 48.9842C1.07543 48.9842 1.04932 48.9952 1.03007 49.0146C1.01082 49.034 1 49.0604 1 49.0878V51.2822" stroke="#0A0E1A" stroke-width="0.1"/>
<path id="Vector_6" d="M1 51.2822L1.00659 62.0461C1.00659 62.0857 1.02637 62.1055 1.06593 62.1055L1.52459 62.1083" stroke="#131827" stroke-width="0.1"/>
<path id="Vector_7" d="M1.52344 62.1084C1.56613 62.6471 1.60694 63.183 1.64587 63.7161C2.02165 68.8159 3.41364 73.7529 5.7286 78.3018C5.74185 78.3284 5.7623 78.3507 5.78761 78.3661C5.81292 78.3816 5.84208 78.3897 5.87176 78.3894L42.0004 78.364" stroke="#000712" stroke-width="0.1"/>
<path id="Vector_8" d="M41.9991 78.3643C41.979 78.3661 41.9869 78.3762 42.0227 78.3944C42.0333 78.4 42.045 78.4029 42.0575 78.4029C42.7262 78.406 43.4429 78.4066 44.2077 78.4048" stroke="#131827" stroke-width="0.1"/>
<path id="Vector_9" d="M44.2109 78.4051L50.9712 78.4013C50.9855 78.4014 50.9996 78.3983 51.0125 78.3924C51.0255 78.3864 51.0369 78.3777 51.0462 78.3668C51.0554 78.356 51.0622 78.3433 51.066 78.3295C51.0698 78.3158 51.0706 78.3014 51.0682 78.2873C51.04 78.1147 51.0626 77.958 51.136 77.8174" stroke="#0A0E1A" stroke-width="0.1"/>
<path id="Vector_10" d="M51.1348 77.8174C51.7294 78.2098 52.3381 78.406 52.9609 78.406C73.8703 78.4142 94.7796 78.4157 115.689 78.4107" stroke="#3E4857" stroke-width="0.1"/>
<path id="Vector_11" d="M115.689 78.4102H117.199" stroke="#505867" stroke-width="0.1"/>
<path id="Vector_12" d="M117.199 78.4101L125.358 78.4082" stroke="#3E4857" stroke-width="0.1"/>
<path id="Vector_13" d="M125.357 78.4084C125.931 78.4329 126.499 78.3996 127.062 78.3086" stroke="#505867" stroke-width="0.1"/>
<path id="Vector_14" d="M127.062 78.3082C127.466 78.3515 127.853 78.3948 128.265 78.3939C130.748 78.3876 133.217 78.387 135.673 78.392C135.704 78.3921 135.733 78.3825 135.758 78.3647C135.782 78.3469 135.8 78.3218 135.809 78.2931C136.374 76.493 136.768 74.6333 136.992 72.7139" stroke="#000712" stroke-width="0.1"/>
<path id="Vector_15" d="M136.992 72.7143C138.25 72.3816 139.032 71.5628 139.338 70.2581C139.397 70.0104 139.231 69.9294 139.011 69.953C138.172 70.0409 137.338 70.1708 136.509 70.3429C136.465 70.3517 136.459 70.3397 136.489 70.3071C137.464 69.2654 138.261 68.247 138.881 67.2519C139.069 66.9486 138.986 66.7427 138.632 66.634C138.626 66.6323 138.621 66.6287 138.618 66.6238C138.614 66.6189 138.612 66.613 138.613 66.6069C138.613 66.6009 138.615 66.5952 138.619 66.5905C138.623 66.5859 138.628 66.5826 138.634 66.5813C138.865 66.5257 139.111 66.505 139.309 66.4061C140.473 65.8222 141.352 64.6553 141.7 63.4498C141.77 63.2106 141.638 62.8668 141.331 63.0005C140.775 63.2426 140.127 63.3857 139.639 63.6739C139.126 63.9759 138.653 64.3385 138.221 64.7617C138.216 64.7669 138.21 64.7702 138.203 64.7711C138.196 64.772 138.189 64.7703 138.183 64.7665C138.177 64.7627 138.173 64.757 138.17 64.7502C138.168 64.7435 138.169 64.7362 138.171 64.7297C138.412 64.056 138.6 63.3678 138.735 62.6653C138.74 62.6395 138.755 62.6232 138.781 62.6163C141.181 61.9881 143.036 59.5997 143.939 57.4072C144.102 57.0116 143.931 56.665 143.469 56.7159C142.537 56.8188 141.606 56.9488 140.677 57.1058C140.645 57.1114 140.627 57.0982 140.623 57.0662C140.555 56.5206 140.482 55.9762 140.403 55.4331C140.346 55.031 139.977 54.4857 139.615 55.0837C139.446 55.3625 139.29 55.6262 139.057 55.8843C138.48 56.5222 138.122 57.2734 137.982 58.138C137.98 58.1526 137.974 58.1665 137.966 58.1786C137.957 58.1907 137.946 58.2006 137.933 58.2077C137.44 58.4789 136.986 58.8032 136.569 59.1806C136.564 59.185 136.558 59.1876 136.551 59.1881C136.544 59.1885 136.538 59.1867 136.532 59.183C136.526 59.1792 136.522 59.1738 136.52 59.1674C136.517 59.161 136.517 59.1541 136.519 59.1476C136.825 58.2768 137.022 57.3852 137.109 56.4729C137.132 56.2337 137.137 55.775 137.123 55.0969C137.102 54.0835 137.292 53.0475 137.286 52.0973C137.282 51.2408 137.238 50.5235 137.155 49.9452C136.947 48.4939 136.185 46.906 134.954 45.9444C134.932 45.9267 134.904 45.9171 134.875 45.9171C134.699 45.9159 134.581 45.924 134.52 45.9416C134.336 45.9934 134.367 46.21 134.338 46.3249C134.129 47.1619 133.977 47.882 133.882 48.4854C133.593 50.3219 133.824 52.096 134.576 53.8076" stroke="#0A0E1A" stroke-width="0.1"/>
<path id="Vector_16" d="M134.576 53.8077L134.224 53.9801C134.21 53.9872 134.194 53.9914 134.178 53.9923C134.162 53.9933 134.146 53.991 134.131 53.9857C134.116 53.9803 134.102 53.972 134.091 53.9611C134.079 53.9503 134.069 53.9372 134.063 53.9226C133.63 52.9701 133.156 52.0547 132.64 51.1763C132.571 51.057 132.53 50.927 132.517 50.7864C132.397 49.4233 132.022 48.1318 131.392 46.9118C131.255 46.6453 130.696 45.6583 130.377 46.3693C130.242 46.672 130.132 46.9752 130.048 47.2791C130.045 47.2874 130.041 47.295 130.034 47.3009C130.028 47.3067 130.02 47.3108 130.012 47.3125C130.003 47.3143 129.995 47.3137 129.986 47.3108C129.978 47.3079 129.971 47.3028 129.966 47.2961C128.927 45.9945 127.752 44.8141 126.441 43.7549" stroke="#000712" stroke-width="0.1"/>
<path id="Vector_17" d="M126.443 43.7551C126.974 40.6603 127.508 37.5473 128.043 34.4161C128.161 33.7267 128.202 33.2157 128.166 32.8829C128.002 31.3713 126.804 30.2091 125.271 30.113C124.947 30.0929 124.436 30.0914 123.738 30.1083" stroke="#505867" stroke-width="0.1"/>
<path id="Vector_18" d="M123.737 30.1079L113.338 30.0957" stroke="#3E4857" stroke-width="0.1"/>
<path id="Vector_19" d="M113.339 30.0961C112.912 29.3521 112.474 28.6216 112.024 27.9045C110.549 25.5519 109.123 23.1456 107.365 20.2684C105.807 17.7167 104.14 15.2718 102.363 12.9336" stroke="#000712" stroke-width="0.1"/>
<path id="Vector_20" d="M102.363 12.933L101.629 12.0166" stroke="#0A0E1A" stroke-width="0.1"/>
<path id="Vector_21" d="M101.627 12.0166C99.2684 9.08855 96.4289 6.37615 93.2201 4.45675C89.8343 2.43281 86.0662 1.31771 82.1106 1.05212C76.9162 0.703025 72.2408 2.10757 68.0843 5.26576C65.6365 7.12583 63.4807 9.30517 61.4125 11.6625C58.9488 14.471 56.582 17.2851 53.8687 19.9626C52.1395 21.6686 50.2562 23.1416 48.2188 24.3816" stroke="#000712" stroke-width="0.1"/>
<path id="Vector_22" d="M101.628 12.0166L100.381 18.8466C100.38 18.8535 100.377 18.8599 100.371 18.8646C100.366 18.8693 100.36 18.8721 100.353 18.8725C100.345 18.873 100.338 18.871 100.332 18.867C100.327 18.863 100.322 18.8571 100.32 18.8503L99.2461 15.4872" stroke="#0A141C" stroke-width="0.1"/>
<path id="Vector_23" d="M99.2467 15.4866C99.5789 15.2267 99.7211 14.8933 99.6734 14.4864C99.5509 13.4476 98.1147 13.1999 97.6551 14.1615C97.4435 14.6035 97.5213 15.0251 97.8886 15.4263" stroke="#2D3C4F" stroke-width="0.1"/>
<path id="Vector_24" d="M97.8894 15.4275L96.5181 22.7736C96.5164 22.7808 96.5124 22.7872 96.5067 22.7919C96.501 22.7965 96.4938 22.7991 96.4864 22.7992C96.4791 22.7993 96.4718 22.797 96.466 22.7925C96.4601 22.788 96.4559 22.7817 96.4541 22.7745C95.9744 20.6059 95.4965 18.4441 95.0206 16.2893C94.9823 16.1153 94.9377 15.9957 94.8869 15.9304C94.6674 15.6479 94.2615 15.7571 94.1353 16.0764C93.6387 17.3328 93.1562 18.5625 92.6878 19.7655C92.6432 19.8785 92.6027 19.8772 92.5663 19.7617C92.0621 18.1883 91.562 16.6271 91.066 15.0781C90.8833 14.5064 90.4519 14.5083 90.1458 14.9971C89.7051 15.7003 89.2699 16.4045 88.8405 17.1096C88.8371 17.1149 88.8322 17.1191 88.8265 17.1217C88.8207 17.1244 88.8143 17.1253 88.8081 17.1244C88.8018 17.1235 88.796 17.1208 88.7912 17.1167C88.7864 17.1126 88.7829 17.1072 88.7811 17.1011C88.2318 15.0323 87.6836 12.959 87.1368 10.8814C87.0586 10.5857 86.9522 10.3314 86.6131 10.3738C86.3164 10.4105 86.2524 10.6083 86.1978 10.8701C85.6861 13.3433 85.1794 15.8024 84.6777 18.2473C84.6513 18.3766 84.6215 18.3776 84.5882 18.2501L83.3535 13.5109" stroke="#0A141C" stroke-width="0.1"/>
<path id="Vector_25" d="M83.3521 13.5099C83.59 13.2996 83.7181 13.0459 83.7363 12.7489C83.8154 11.4417 81.9591 11.1563 81.6418 12.4296C81.54 12.8396 81.6644 13.2029 82.0147 13.5193" stroke="#2D3C4F" stroke-width="0.1"/>
<path id="Vector_26" d="M82.0145 13.5205L80.6357 17.7652C80.6332 17.7727 80.6287 17.7793 80.6227 17.7844C80.6167 17.7895 80.6094 17.7927 80.6017 17.7938C80.594 17.7949 80.5862 17.7938 80.5792 17.7906C80.5722 17.7873 80.5663 17.7821 80.5622 17.7756C80.1038 17.0642 79.6436 16.3481 79.1815 15.6273C78.9432 15.2581 78.4742 15.26 78.3311 15.6904C77.7836 17.3336 77.2279 18.9729 76.6641 20.6085" stroke="#0A141C" stroke-width="0.1"/>
<path id="Vector_27" d="M76.6662 20.6074C75.8582 20.7327 75.4711 21.5605 75.894 22.2584C76.3281 22.9742 77.4837 22.8546 77.7804 22.0691C77.9512 21.6189 77.8595 21.2205 77.5054 20.874" stroke="#2D3C4F" stroke-width="0.1"/>
<path id="Vector_28" d="M77.5039 20.8738L78.8667 16.8523C78.8687 16.8466 78.8722 16.8415 78.8769 16.8377C78.8816 16.8339 78.8873 16.8315 78.8933 16.8309C78.8994 16.8302 78.9054 16.8312 78.9109 16.8338C78.9163 16.8364 78.9209 16.8406 78.9241 16.8457C79.38 17.5665 79.8434 18.2889 80.3143 19.0128C80.6486 19.528 81.0555 19.3339 81.2212 18.8207C81.6915 17.3577 82.163 15.9017 82.6358 14.4526C82.6379 14.4465 82.6419 14.4413 82.6472 14.4377C82.6525 14.4341 82.6588 14.4322 82.6652 14.4325C82.6716 14.4327 82.6778 14.4349 82.6828 14.4389C82.6879 14.4428 82.6915 14.4483 82.6933 14.4544C83.2031 16.4304 83.7139 18.4031 84.2256 20.3728C84.272 20.5517 84.338 20.6741 84.4234 20.7401C84.6814 20.9388 85.0525 20.7947 85.1212 20.4669C85.648 17.9203 86.1701 15.3774 86.6875 12.8383C86.6885 12.8323 86.6916 12.8268 86.6963 12.8228C86.7009 12.8188 86.7068 12.8165 86.713 12.8164C86.7191 12.8163 86.7251 12.8183 86.7299 12.8222C86.7347 12.826 86.738 12.8314 86.7393 12.8374C87.2152 14.6412 87.6905 16.4417 88.1652 18.2386C88.2129 18.4207 88.2747 18.545 88.3507 18.6116C88.5664 18.8009 88.8706 18.7199 89.0213 18.4788C89.4984 17.7147 89.9715 16.9515 90.4406 16.1893C90.4436 16.1841 90.4481 16.1799 90.4535 16.1772C90.4589 16.1745 90.465 16.1734 90.471 16.1741C90.4769 16.1748 90.4826 16.1772 90.4872 16.1811C90.4919 16.185 90.4953 16.1901 90.4971 16.1958C91.0408 17.8942 91.5852 19.5967 92.1302 21.3033C92.2174 21.577 92.3895 21.7029 92.6463 21.6809C92.7706 21.6706 92.926 21.567 92.9693 21.4568C93.4477 20.2412 93.9215 19.0288 94.3905 17.8195C94.3932 17.8122 94.3982 17.8059 94.4048 17.8017C94.4114 17.7975 94.4192 17.7956 94.427 17.7962C94.4348 17.7968 94.4422 17.8 94.448 17.8053C94.4538 17.8105 94.4578 17.8175 94.4592 17.8252C94.9892 20.2444 95.5229 22.6648 96.0603 25.0865C96.1319 25.4058 96.2863 25.6572 96.6461 25.5518C96.9315 25.4689 96.9494 25.2513 96.9983 24.9923C97.532 22.1368 98.0626 19.2865 98.59 16.4417C98.5911 16.4369 98.5936 16.4326 98.5973 16.4294C98.6011 16.4262 98.6057 16.4243 98.6106 16.424C98.6155 16.4237 98.6203 16.4249 98.6244 16.4276C98.6285 16.4303 98.6317 16.4342 98.6333 16.4388C99.0866 17.8792 99.5409 19.3173 99.9961 20.7533C100.057 20.9463 100.109 21.1337 100.31 21.2006C100.704 21.3325 100.877 21.0527 100.94 20.7005C101.396 18.147 101.87 15.5576 102.362 12.9325" stroke="#0A141C" stroke-width="0.1"/>
<path id="Vector_29" d="M113.336 30.0957C96.2348 30.097 79.1542 30.097 62.0943 30.0957C61.3811 30.0957 60.8813 30.1243 60.595 30.1814C59.0787 30.4847 57.7988 31.563 57.1903 32.956C57.0453 33.29 56.9147 33.7961 56.7986 34.4742C54.9821 45.0783 53.1626 55.6821 51.3398 66.2855" stroke="#3E4E5A" stroke-width="0.1"/>
<path id="Vector_30" d="M51.3412 66.2852L47.4355 66.2598C47.4016 66.2592 47.3818 66.2422 47.3762 66.209C47.2113 65.2926 47.2208 64.3197 47.1652 63.3882C47.1633 63.3562 47.1702 63.3264 47.1859 63.2988C47.4656 62.7902 47.5494 62.0462 47.6728 61.4773C47.6797 61.4466 47.6942 61.4196 47.7161 61.3963C47.8511 61.2563 47.967 61.1022 48.0637 60.9339C48.2671 60.5817 48.4574 60.3952 48.7757 60.2181C50.1802 59.4364 51.3522 58.4174 52.2914 57.161C52.5994 56.7495 52.9611 56.0337 52.4497 55.6852C52.2378 55.5411 51.9317 55.5458 51.699 55.6278C50.2223 56.1495 49.0215 57.4163 48.171 58.7065C48.1681 58.7106 48.164 58.7136 48.1592 58.7151C48.1544 58.7167 48.1493 58.7166 48.1446 58.715C48.14 58.7134 48.1361 58.7103 48.1335 58.7062C48.131 58.7021 48.1299 58.6972 48.1305 58.6924C48.3566 56.4283 48.5666 54.1802 48.6043 51.9001C48.6294 50.4183 48.4539 49.0191 48.0778 47.7025C47.9299 47.1864 46.9269 44.409 46.0002 45.3319C45.5142 45.8151 45.6545 47.4303 45.8118 48.0415C46.2601 49.7763 47.1285 51.3294 47.8584 52.9502C47.9168 53.0796 47.9419 53.2174 47.9337 53.3637C47.8194 55.4802 47.6279 57.5892 47.3592 59.6907C47.2744 60.3566 47.1303 61.0102 46.9853 61.6638C46.984 61.67 46.9806 61.6756 46.9756 61.6796C46.9707 61.6836 46.9644 61.6857 46.9581 61.6856C46.9517 61.6855 46.9456 61.6832 46.9407 61.679C46.9359 61.6749 46.9327 61.6691 46.9316 61.6629C46.294 57.9719 44.3492 54.0201 40.7863 52.3296C40.2391 52.0696 39.3021 51.7343 38.6984 51.8831C36.5953 52.4021 39.6844 56.1693 40.2891 56.8248C41.8562 58.5251 43.7047 59.8238 45.8344 60.721C46.0039 60.7926 46.133 60.9179 46.1735 61.0846C46.4014 62.0057 46.531 62.9968 46.5624 64.0579C46.5637 64.1087 46.5511 64.1125 46.5248 64.0692C46.0962 63.3543 45.3739 62.4879 44.6091 62.129C43.8321 61.7655 43.2981 62.2176 43.6155 63.0238C43.6984 63.2354 43.7932 63.419 43.8999 63.5747C44.46 64.3922 45.1576 65.2866 45.9926 66.2579" stroke="#0A141C" stroke-width="0.1"/>
<path id="Vector_31" d="M45.9926 66.2578L38.8885 66.2606C38.8703 66.2606 38.8628 66.2697 38.8659 66.288L39.5186 70.3123C39.5236 70.3424 39.5412 70.3575 39.5713 70.3575L40.694 70.3509" stroke="#131F29" stroke-width="0.1"/>
<path id="Vector_32" d="M40.6953 70.3506L40.7226 70.4721" stroke="#3E4E5A" stroke-width="0.1"/>
<path id="Vector_33" d="M40.7227 70.4736L42.0026 78.365" stroke="#131F29" stroke-width="0.1"/>
<path id="Vector_34" d="M1.52344 62.108L3.93634 62.1146C3.9759 62.1146 3.99568 62.0948 3.99568 62.0552L4.00227 51.2207" stroke="#131F29" stroke-width="0.1"/>
<path id="Vector_35" d="M4.00304 51.221L3.99833 49.0549C3.9977 49.0147 3.97761 48.994 3.93805 48.9927L3.42383 48.9805" stroke="#0A141C" stroke-width="0.1"/>
<path id="Vector_36" d="M31.7527 29.0361C31.7433 29.4515 31.7357 29.8979 31.862 30.285C32.1457 31.1527 32.702 31.7162 33.5308 31.9755C33.8159 32.064 34.2482 32.1086 34.8277 32.1092C37.9846 32.1105 41.1551 32.1077 44.339 32.1008" stroke="#131F29" stroke-width="0.1"/>
<path id="Vector_37" d="M44.3379 32.1017L45.9606 34.3753C45.9813 34.4041 46.0065 34.4085 46.036 34.3884L47.2405 33.5606C47.2669 33.543 47.271 33.521 47.2528 33.4947L46.2215 32.0537" stroke="#202F3C" stroke-width="0.1"/>
<path id="Vector_38" d="M46.2207 32.0538C47.1876 31.7719 47.8054 31.2131 48.0742 30.3774C48.169 30.0842 48.2161 29.5866 48.2154 28.8846C48.2148 27.3539 48.2161 25.8529 48.2192 24.3818" stroke="#131F29" stroke-width="0.1"/>
<path id="Vector_39" d="M97.8887 15.4268C98.342 15.7595 98.7947 15.7796 99.2467 15.487" stroke="#374357" stroke-width="0.1"/>
<path id="Vector_40" d="M77.5032 20.8745C77.2458 20.6647 76.9661 20.5759 76.6641 20.6079" stroke="#374357" stroke-width="0.1"/>
<path id="Vector_41" d="M82.0156 13.5192C82.457 13.8181 82.9028 13.8149 83.353 13.5098" stroke="#374357" stroke-width="0.1"/>
<path id="Vector_42" d="M4.00342 51.2207C3.98521 51.2226 3.96952 51.2254 3.95633 51.2292C3.93523 51.2354 3.91519 51.2412 3.8997 51.2455C3.88421 51.2498 3.87426 51.2524 3.87157 51.2527L1 51.2819" stroke="#1D2631" stroke-width="0.1"/>
<path id="Vector_43" d="M123.737 30.1074C124.661 30.2556 125.368 30.6524 125.859 31.2979C126.21 31.7581 126.419 32.2773 126.486 32.8556C126.525 33.1871 126.482 33.7158 126.357 34.4416C124.083 47.7041 121.807 60.9663 119.528 74.2282C119.43 74.7971 119.313 75.2375 119.175 75.5496C118.588 76.8822 117.293 78.0623 115.797 78.3053C115.767 78.3103 115.743 78.3254 115.727 78.3505L115.689 78.4098" stroke="#8DA0AF" stroke-width="0.1"/>
<path id="Vector_44" d="M51.1343 77.8166C50.4016 77.249 49.9857 76.5267 49.8865 75.6495C49.8475 75.3061 49.8934 74.7498 50.024 73.9807C50.4591 71.4145 50.898 68.8494 51.3406 66.2852" stroke="#485562" stroke-width="0.1"/>
<path id="Vector_45" d="M45.4232 70.4688L40.7227 70.4735" stroke="#51606F" stroke-width="0.1"/>
<path id="Vector_46" d="M46.2212 32.0534L44.3131 29.3824C44.2911 29.3516 44.2641 29.3463 44.2321 29.3664L44.0898 29.4559" stroke="#334151" stroke-width="0.1"/>
<path id="Vector_47" d="M44.0899 29.4559L42.8223 27.625" stroke="#1D2631" stroke-width="0.1"/>
<path id="Vector_48" d="M41.9102 28.249L43.1703 30.0865" stroke="#1D2631" stroke-width="0.1"/>
<path id="Vector_49" d="M43.1695 30.0859C43.0439 30.15 43.0015 30.2115 43.0424 30.2705C43.4637 30.8764 43.8956 31.4867 44.3383 32.1014" stroke="#334151" stroke-width="0.1"/>
<path id="Vector_50" d="M44.2109 78.4053L45.4654 70.707C45.4711 70.6744 45.4642 70.6445 45.4447 70.6176C45.4077 70.5667 45.4004 70.5171 45.423 70.4688" stroke="#1D2631" stroke-width="0.1"/>
<path id="Vector_51" d="M45.4219 70.4681L47.5089 70.4691C47.5491 70.4691 47.5689 70.449 47.5682 70.4088L47.5673 70.3193C47.5673 70.2842 47.5497 70.2666 47.5146 70.2666H46.7027" stroke="#485562" stroke-width="0.1"/>
<path id="Vector_52" d="M46.7023 70.2661L47.3446 66.3266C47.3458 66.319 47.3454 66.3113 47.3434 66.304C47.3414 66.2967 47.3377 66.2898 47.3328 66.284C47.3279 66.2782 47.3218 66.2735 47.3149 66.2703C47.308 66.2671 47.3004 66.2654 47.2928 66.2653L45.9922 66.2578" stroke="#1D2631" stroke-width="0.1"/>
<path id="Vector_53" d="M46.704 70.2666L40.7659 70.277C40.7371 70.2776 40.7176 70.2914 40.7076 70.3184L40.6953 70.3514" stroke="#51606F" stroke-width="0.1"/>
<path id="Vector_54" d="M44.0891 29.4561L43.168 30.0861" stroke="#2A3644" stroke-width="0.1"/>
<path id="Vector_55" d="M126.443 43.7549C126.112 45.6529 125.792 47.5322 125.481 49.3925C125.45 49.5734 125.452 49.7539 125.486 49.9341C126.594 55.8637 127.712 61.8357 128.839 67.8501" stroke="#505F69" stroke-width="0.1"/>
<path id="Vector_56" d="M128.838 67.8506L129.737 72.6632" stroke="#5A6671" stroke-width="0.1"/>
<path id="Vector_57" d="M129.738 72.6621C129.936 73.7047 130.138 74.4374 130.03 75.3736" stroke="#505F69" stroke-width="0.1"/>
<path id="Vector_58" d="M130.031 75.373L129.852 76.102" stroke="#5A6671" stroke-width="0.1"/>
<path id="Vector_59" d="M129.851 76.1025C129.311 77.2773 128.381 78.0125 127.062 78.3083" stroke="#505F69" stroke-width="0.1"/>
<path id="Vector_60" d="M125.358 78.4081C125.342 78.3359 125.377 78.2954 125.463 78.2866C126.096 78.222 126.688 77.9689 127.239 77.5275C128.044 76.8808 128.49 76.0687 128.576 75.0911C128.604 74.7665 128.561 74.2993 128.447 73.6897C127.213 67.0895 125.979 60.495 124.745 53.9061C124.744 53.9024 124.742 53.8992 124.739 53.8969C124.736 53.8946 124.732 53.8935 124.728 53.8936C124.724 53.8937 124.721 53.8951 124.718 53.8975C124.715 53.9 124.713 53.9033 124.712 53.907C123.612 60.3233 122.511 66.7379 121.41 73.151C121.23 74.2033 121.113 74.8192 121.061 74.9988C120.651 76.3952 119.741 77.4202 118.333 78.0738C118.148 78.1598 117.77 78.2719 117.199 78.41" stroke="#8DA0AF" stroke-width="0.1"/>
<path id="Vector_61" d="M44.6202 22.1182C45.0509 24.3107 44.4516 26.1463 42.8223 27.6249" stroke="#51606F" stroke-width="0.1"/>
<path id="Vector_62" d="M42.8237 27.625L41.9102 28.2485" stroke="#485562" stroke-width="0.1"/>
<path id="Vector_63" d="M41.909 28.2482C39.6289 29.4 37.005 29.0355 35.2363 27.1406" stroke="#51606F" stroke-width="0.1"/>
<path id="Vector_64" d="M48.1595 18.2842C47.3665 19.9436 46.187 21.2217 44.6211 22.1183" stroke="#131F29" stroke-width="0.1"/>
<path id="Vector_65" d="M44.6207 22.1183C44.18 20.5976 43.3389 19.4658 42.0976 18.7231C38.838 16.7716 34.5801 18.675 33.8851 22.398C33.5567 24.1554 34.0072 25.7364 35.2366 27.1409" stroke="#3E4E5A" stroke-width="0.1"/>
<path id="Vector_66" d="M35.2376 27.1411C34.7291 27.5869 34.1304 27.709 33.4416 27.5074C32.8351 27.3298 32.2725 27.0177 31.7539 26.5713" stroke="#131F29" stroke-width="0.1"/>
<path id="Vector_67" d="M134.576 53.8066L134.987 54.6298" stroke="#0A141C" stroke-width="0.1"/>
<path id="Vector_68" d="M134.987 54.6309L134.73 55.3561C134.72 55.3862 134.72 55.4163 134.732 55.4465C135.163 56.5251 135.546 57.6424 135.878 58.7984" stroke="#000712" stroke-width="0.1"/>
<path id="Vector_69" d="M135.877 58.7985C135.523 59.9287 134.988 60.9914 134.27 61.9865C133.753 62.7017 133.199 63.3528 132.606 63.9398C132.542 64.0033 132.525 63.9926 132.556 63.9078C133.062 62.5196 133.422 61.1078 133.217 59.6348C133.172 59.3071 133.03 58.6959 132.79 57.8012C132.586 57.0402 132.364 56.2845 132.125 55.5342C132.058 55.3223 131.898 54.9352 131.719 54.8166C131.502 54.6734 131.281 54.7048 131.055 54.9108C129.435 56.3856 129.221 58.6224 129.332 60.7283C129.351 61.0799 129.4 61.4472 129.48 61.8302C129.754 63.1516 130.039 64.4475 131.122 65.3733C131.144 65.3921 131.145 65.4122 131.125 65.4336L128.838 67.8502" stroke="#0A141C" stroke-width="0.1"/>
<path id="Vector_70" d="M136.992 72.7146C136.103 72.9416 134.825 73.0075 134.093 72.4207C134.086 72.4158 134.079 72.412 134.072 72.4098C134.065 72.4075 134.057 72.4067 134.049 72.4075C134.041 72.4083 134.033 72.4106 134.027 72.4144C134.02 72.4181 134.014 72.4231 134.009 72.4292C132.84 73.8689 131.455 75.0936 129.852 76.1032" stroke="#0A141C" stroke-width="0.1"/>
<path id="Vector_71" d="M130.03 75.3736C130.556 75.037 131.04 74.6697 131.484 74.2717C131.51 74.249 131.509 74.2277 131.483 74.2076C130.978 73.8164 130.594 73.3317 130.332 72.7535C130.318 72.7227 130.294 72.7061 130.26 72.7035L129.738 72.6621" stroke="#0A141C" stroke-width="0.1"/>
<path id="Vector_72" d="M135.877 58.7984C136.142 58.0167 136.312 57.235 136.387 56.4533C136.39 56.4219 136.379 56.3955 136.355 56.3741C135.806 55.8951 135.35 55.314 134.986 54.6309" stroke="#0A0E1A" stroke-width="0.1"/>
<path id="Vector_73" d="M25.0039 43.6129L25.0086 62.0572C25.0086 62.0942 25.0268 62.1128 25.0632 62.1128H27.9555C27.9869 62.1128 28.0026 62.0971 28.0026 62.0657L28.0017 43.6016" stroke="#131F29" stroke-width="0.1"/>
<path id="Vector_74" d="M28.0005 43.6025V41.2122C28.0005 41.1814 27.9851 41.166 27.9544 41.166H25.0593C25.043 41.166 25.0275 41.1725 25.016 41.1839C25.0045 41.1954 24.998 41.211 24.998 41.2272L25.0028 43.6138" stroke="#0A141C" stroke-width="0.1"/>
<path id="Vector_75" d="M28.0017 43.6016L25.0039 43.6129" stroke="#1D2631" stroke-width="0.1"/>
<path id="Vector_76" d="M20.2051 45.8372V62.0627C20.2051 62.0972 20.2223 62.1145 20.2569 62.1145H23.151C23.1824 62.1145 23.1981 62.0988 23.1981 62.0674L23.1991 45.8193" stroke="#131F29" stroke-width="0.1"/>
<path id="Vector_77" d="M23.1991 45.8189V42.3634C23.1991 42.3509 23.1941 42.339 23.1853 42.3301C23.1765 42.3213 23.1645 42.3163 23.152 42.3163L20.2588 42.3145C20.2236 42.3145 20.206 42.332 20.206 42.3672L20.2051 45.8368" stroke="#0A141C" stroke-width="0.1"/>
<path id="Vector_78" d="M23.1991 45.8193L20.2051 45.8372" stroke="#1D2631" stroke-width="0.1"/>
<path id="Vector_79" d="M15.4043 47.8902L15.4062 62.0597C15.4062 62.0923 15.4225 62.1086 15.4552 62.1086L18.3446 62.1152C18.3804 62.1152 18.3983 62.0973 18.3983 62.0615L18.3992 47.8779" stroke="#131F29" stroke-width="0.1"/>
<path id="Vector_80" d="M18.3992 47.878L18.3983 45.3662C18.3983 45.3323 18.3813 45.3153 18.3474 45.3153L15.4862 45.3115C15.4758 45.3114 15.4654 45.3134 15.4557 45.3173C15.446 45.3212 15.4371 45.327 15.4297 45.3344C15.4222 45.3417 15.4163 45.3505 15.4123 45.3601C15.4083 45.3698 15.4062 45.3802 15.4062 45.3906L15.4043 47.8902" stroke="#0A141C" stroke-width="0.1"/>
<path id="Vector_81" d="M18.3992 47.8779L15.4043 47.8902" stroke="#1D2631" stroke-width="0.1"/>
<path id="Vector_82" d="M5.80563 49.8438L5.80469 62.0693C5.80469 62.0995 5.81976 62.1145 5.84989 62.1145H8.74124C8.77891 62.1145 8.79775 62.0957 8.79775 62.058L8.8034 49.8475" stroke="#131F29" stroke-width="0.1"/>
<path id="Vector_83" d="M8.80434 49.8469L8.80717 47.645C8.80717 47.6366 8.80551 47.6283 8.80229 47.6205C8.79907 47.6127 8.79436 47.6057 8.78841 47.5997C8.78246 47.5938 8.7754 47.589 8.76763 47.5858C8.75986 47.5826 8.75153 47.581 8.74312 47.581L5.85084 47.5781C5.82007 47.5781 5.80469 47.5938 5.80469 47.6252L5.80657 49.8432" stroke="#0A141C" stroke-width="0.1"/>
<path id="Vector_84" d="M8.80246 49.8475L5.80469 49.8438" stroke="#1D2631" stroke-width="0.1"/>
<path id="Vector_85" d="M10.6016 49.7895L10.6072 62.0349C10.6072 62.0536 10.6147 62.0716 10.6279 62.0849C10.6411 62.0981 10.6591 62.1055 10.6778 62.1055L13.5221 62.114C13.5317 62.1142 13.5412 62.1124 13.5501 62.1088C13.5591 62.1052 13.5672 62.0999 13.574 62.0931C13.5808 62.0864 13.5863 62.0783 13.59 62.0695C13.5937 62.0606 13.5956 62.0511 13.5956 62.0415L13.6022 49.7764" stroke="#131F29" stroke-width="0.1"/>
<path id="Vector_86" d="M13.6022 49.7782V48.7168C13.6022 48.7096 13.6008 48.7026 13.598 48.696C13.5953 48.6894 13.5914 48.6835 13.5864 48.6785C13.5814 48.6735 13.5754 48.6695 13.5689 48.6669C13.5624 48.6643 13.5555 48.663 13.5485 48.6631L10.6713 48.6659C10.6304 48.6666 10.61 48.687 10.61 48.7271L10.6016 49.7914" stroke="#0A141C" stroke-width="0.1"/>
<path id="Vector_87" d="M13.6022 49.7764L10.6016 49.7895" stroke="#1D2631" stroke-width="0.1"/>
<path id="Vector_88" d="M44.0228 23.4274C44.0228 22.8042 43.9 22.1871 43.6615 21.6113C43.423 21.0355 43.0735 20.5123 42.6328 20.0716C42.1921 19.631 41.6689 19.2814 41.0931 19.0429C40.5174 18.8044 39.9002 18.6816 39.277 18.6816C38.6538 18.6816 38.0367 18.8044 37.4609 19.0429C36.8851 19.2814 36.3619 19.631 35.9212 20.0716C35.4806 20.5123 35.131 21.0355 34.8925 21.6113C34.654 22.1871 34.5312 22.8042 34.5312 23.4274C34.5313 24.6861 35.0312 25.8932 35.9212 26.7832C36.8113 27.6732 38.0184 28.1732 39.277 28.1732C40.5357 28.1732 41.7428 27.6732 42.6328 26.7832C43.5228 25.8932 44.0228 24.6861 44.0228 23.4274Z" stroke="#485562" stroke-width="0.1"/>
<path id="Vector_89" d="M67.1791 35.2227L61.7693 35.2415C61.7528 35.2415 61.7368 35.2474 61.7242 35.2581C61.7116 35.2688 61.7033 35.2836 61.7006 35.2999L55.188 73.2311C55.1872 73.2359 55.1874 73.2408 55.1887 73.2455C55.1899 73.2502 55.1922 73.2545 55.1954 73.2582C55.1985 73.2619 55.2025 73.2648 55.2069 73.2668C55.2113 73.2688 55.2161 73.2698 55.221 73.2698L95.5321 73.2754" stroke="#3E4E5A" stroke-width="0.1"/>
<path id="Vector_90" d="M95.5312 73.2757L114.615 73.2568C114.631 73.2566 114.646 73.2508 114.658 73.2405C114.67 73.2302 114.678 73.216 114.681 73.2003L116.668 61.4541" stroke="#52626F" stroke-width="0.1"/>
<path id="Vector_91" d="M116.668 61.4539C116.675 61.4602 116.681 61.4652 116.687 61.469C116.7 61.4759 116.708 61.4721 116.711 61.4577L121.395 35.3263C121.397 35.3137 121.396 35.3007 121.39 35.2893C121.384 35.2778 121.374 35.2687 121.363 35.2632C121.311 35.2394 121.245 35.2504 121.165 35.2962" stroke="#BDC7CF" stroke-width="0.1"/>
<path id="Vector_92" d="M121.165 35.2961C121.139 35.2547 121.109 35.2337 121.077 35.233C107.639 35.2023 89.6725 35.1988 67.1777 35.2227" stroke="#52626F" stroke-width="0.1"/>
<path id="Vector_93" d="M121.165 35.2959L116.668 61.4536" stroke="#949A9F" stroke-width="0.1"/>
<path id="Vector_94" d="M95.5318 73.2754C95.6134 73.2377 95.7114 73.2308 95.8256 73.2547C95.8269 73.2553 95.8275 73.255 95.8275 73.2537C95.8275 73.2531 95.8272 73.2525 95.8266 73.2519C95.8266 73.2487 95.8253 73.2471 95.8228 73.2471C95.4511 73.2283 95.0794 73.2186 94.7077 73.2179C81.5752 73.1916 68.4464 73.1548 55.3214 73.1078C55.3161 73.1077 55.3109 73.1065 55.3062 73.1042C55.3014 73.102 55.2972 73.0987 55.2938 73.0947C55.2904 73.0907 55.2879 73.086 55.2865 73.0809C55.2851 73.0759 55.2848 73.0706 55.2856 73.0654L61.7907 35.3912C61.795 35.3661 61.8101 35.3533 61.8359 35.3526C63.5424 35.3225 65.2483 35.3335 66.9536 35.3856C67.1024 35.3903 67.2456 35.3555 67.3972 35.3394C67.4211 35.3369 67.4336 35.3237 67.4349 35.2999C67.4362 35.2704 67.422 35.2581 67.3925 35.2632C67.2983 35.2782 67.2271 35.2647 67.1787 35.2227" stroke="#152129" stroke-width="0.1"/>
<path id="Vector_95" d="M114.09 62.2798L116.839 46.2578" stroke="#4D5F71" stroke-width="0.1"/>
<path id="Vector_96" d="M116.841 46.2577L117.472 42.5913C117.473 42.5842 117.472 42.577 117.469 42.5704C117.467 42.5637 117.462 42.558 117.456 42.5539C117.45 42.5497 117.444 42.5473 117.436 42.5469C117.429 42.5466 117.422 42.5482 117.416 42.5517C116.752 42.9197 116.115 43.3067 115.505 43.713C113.252 45.2114 112.118 48.374 111.17 50.8377" stroke="#424F64" stroke-width="0.1"/>
<path id="Vector_97" d="M111.167 50.8379L111.088 50.9519" stroke="#4D5F71" stroke-width="0.1"/>
<path id="Vector_98" d="M111.089 50.9514C109.978 52.0829 109.172 52.8382 108.668 53.2174C107.934 53.7712 107.239 54.1743 106.342 53.7298C106.022 53.5716 105.753 53.3939 105.534 53.1967C104.432 52.2078 103.251 50.6557 101.573 50.2366C101.185 50.1399 100.685 50.0815 100.074 50.0614C96.8174 49.9531 94.4808 51.9507 92.0537 53.8032C92.0346 53.8179 92.0125 53.8283 91.9891 53.8338C91.9656 53.8394 91.9412 53.84 91.9175 53.8356C91.8938 53.8311 91.8713 53.8218 91.8515 53.8081C91.8316 53.7944 91.8149 53.7767 91.8023 53.7561C91.0068 52.4684 90.2288 51.1542 89.4685 49.8137C88.845 48.7137 87.8806 47.3707 86.7872 46.8386C85.2435 46.088 83.6604 46.8979 82.4191 47.9009C81.1721 48.9099 80.1025 50.0614 79.2103 51.3555C79.2166 51.385 79.1934 51.4013 79.1406 51.4045" stroke="#424F64" stroke-width="0.1"/>
<path id="Vector_99" d="M79.1398 51.4047L81.4491 37.952C81.456 37.913 81.4397 37.8936 81.4001 37.8936H81.0875C81.051 37.8929 81.0297 37.9108 81.0234 37.9472L76.7787 62.6744C76.7724 62.7121 76.7881 62.7309 76.8258 62.7309H113.948C113.984 62.7309 114.006 62.713 114.013 62.6772L114.089 62.2798" stroke="#949A9F" stroke-width="0.1"/>
<path id="Vector_100" d="M79.1423 51.4053C79.1228 51.4461 79.1181 51.4866 79.1282 51.5268" stroke="#ADB5C5" stroke-width="0.1"/>
<path id="Vector_101" d="M79.127 51.5254L77.2924 62.2243C77.2861 62.2601 77.3012 62.278 77.3376 62.278L114.091 62.2789" stroke="#B8C5D2" stroke-width="0.1"/>
<path id="Vector_102" d="M79.125 51.5257C79.2738 51.5244 79.6173 51.5125 80.1553 51.4899C83.1051 51.3675 84.6412 54.9991 87.5071 55.4003C88.9009 55.5962 90.6527 54.7919 91.748 53.9753C91.7672 53.961 91.789 53.9507 91.8123 53.9449C91.8355 53.9391 91.8596 53.9379 91.8832 53.9415C91.9069 53.9451 91.9296 53.9534 91.95 53.9658C91.9705 53.9782 91.9883 53.9946 92.0023 54.0139C93.1297 55.5688 95.3175 57.605 97.3028 56.003C98.3652 55.146 99.1921 53.8114 99.9135 53.0354C101.173 51.682 102.667 51.5473 103.65 53.2934C103.798 53.5578 104.094 54.136 104.538 55.0282C105.087 56.1292 105.918 57.3705 107.301 56.4843C108.092 55.9782 108.766 55.3193 109.323 54.5074C110.019 53.4928 110.607 52.3074 111.087 50.9512" stroke="#657A97" stroke-width="0.1"/>
<path id="Vector_103" d="M116.841 46.2578C115.879 46.713 114.952 47.3371 114.059 48.1301C112.946 49.1196 112.027 49.9962 111.303 50.7596C111.26 50.8042 111.216 50.8303 111.17 50.8378" stroke="#657A97" stroke-width="0.1"/>
<path id="Vector_104" d="M64.5098 51.0879C66.5535 53.2352 69.653 53.2399 72.1017 51.7792C74.2057 50.5247 75.7531 48.4508 76.1948 46.0087C76.201 45.9748 76.1869 45.9579 76.1524 45.9579L73.909 45.9541C73.8745 45.9541 73.8531 45.9707 73.8449 46.004C73.445 47.7288 72.5157 48.9779 71.0572 49.7515C69.458 50.6 67.7213 50.5416 66.3811 49.2288" stroke="#394954" stroke-width="0.1"/>
<path id="Vector_105" d="M66.3814 49.2295C65.271 47.9129 65.2503 46.1206 65.9802 44.6222C66.9389 42.651 68.9987 41.2439 71.2336 41.664C71.2523 41.6674 71.2717 41.6641 71.2884 41.6546C71.3051 41.6452 71.318 41.6302 71.3249 41.6122L72.1933 39.301C72.204 39.2721 72.1942 39.2545 72.1641 39.2482C68.249 38.4166 64.4903 41.4417 63.4006 45.0724C62.7743 47.1575 63.0615 49.4047 64.51 51.0886" stroke="#354351" stroke-width="0.1"/>
<path id="Vector_106" d="M66.3811 49.2295L64.5098 51.0886" stroke="#455867" stroke-width="0.1"/>
<path id="Vector_107" d="M60.6543 56.0263C60.6438 56.0262 60.6335 56.0298 60.6254 56.0365C60.6173 56.0432 60.6119 56.0526 60.6101 56.063L59.9499 59.9178C59.9488 59.9243 59.9491 59.9308 59.9508 59.9371C59.9525 59.9434 59.9556 59.9492 59.9598 59.9541C59.9641 59.9591 59.9693 59.963 59.9753 59.9657C59.9812 59.9684 59.9876 59.9697 59.9941 59.9696H74.6053C74.6159 59.9698 74.6261 59.9662 74.6342 59.9594C74.6423 59.9527 74.6478 59.9433 74.6496 59.9329L75.3098 56.0762C75.3109 56.0698 75.3106 56.0632 75.3089 56.057C75.3071 56.0507 75.304 56.0449 75.2998 56.0399C75.2956 56.035 75.2903 56.031 75.2844 56.0283C75.2785 56.0257 75.272 56.0243 75.2655 56.0244L60.6543 56.0263Z" stroke="#354351" stroke-width="0.1"/>
<path id="Vector_108" d="M73.7093 65.2463C73.7182 65.2465 73.7269 65.2434 73.7338 65.2377C73.7407 65.232 73.7454 65.2241 73.747 65.2152L74.409 61.3538C74.41 61.3485 74.4098 61.3429 74.4084 61.3376C74.407 61.3323 74.4044 61.3274 74.4009 61.3232C74.3975 61.319 74.3931 61.3156 74.3881 61.3132C74.3832 61.3109 74.3778 61.3096 74.3723 61.3096H59.7414C59.7324 61.3094 59.7237 61.3125 59.7168 61.3182C59.7099 61.3239 59.7053 61.3318 59.7037 61.3407L59.0416 65.2021C59.0406 65.2075 59.0409 65.213 59.0423 65.2183C59.0437 65.2236 59.0462 65.2285 59.0497 65.2327C59.0532 65.2369 59.0576 65.2403 59.0625 65.2427C59.0675 65.245 59.0729 65.2463 59.0783 65.2463H73.7093Z" stroke="#394954" stroke-width="0.1"/>
<path id="Vector_109" d="M78.4477 64.4997C77.9042 64.6626 77.2968 65.2296 77.1753 65.8512C77.1075 66.1959 76.9825 66.9207 76.8004 68.0258C76.6705 68.8112 76.9044 69.338 77.5021 69.6061C77.6829 69.6878 77.9334 69.7286 78.2537 69.7286C82.6663 69.7261 87.0793 69.7251 91.4926 69.7257C92.2564 69.7257 92.8328 69.463 93.2284 68.8254C93.3583 68.6163 93.4629 68.2926 93.542 67.8544C93.6349 67.3427 93.7241 66.8303 93.8095 66.3173C93.8823 65.8791 93.8908 65.5451 93.8349 65.3153C93.688 64.7125 93.256 64.4111 92.539 64.4111C88.3209 64.4143 84.1029 64.4149 79.8849 64.413C79.1214 64.4124 78.6423 64.4413 78.4477 64.4997Z" stroke="#354351" stroke-width="0.1"/>
<path id="Vector_110" d="M97.1636 64.5494C96.6607 64.749 96.1361 65.3038 96.0287 65.8858C95.9515 66.3014 95.8435 66.9265 95.7047 67.7609C95.6269 68.2281 95.6106 68.5643 95.6558 68.7696C95.8074 69.4637 96.3631 69.7312 97.0496 69.7312C101.351 69.7299 105.652 69.7309 109.954 69.734C110.507 69.7346 110.902 69.6932 111.137 69.6097C111.553 69.4634 111.874 69.2013 112.099 68.8233C112.451 68.2309 112.533 67.1459 112.666 66.3774C112.744 65.9216 112.758 65.5784 112.706 65.348C112.566 64.7189 112.114 64.4046 111.353 64.4053C107.048 64.4097 102.742 64.41 98.436 64.4062C97.8295 64.4056 97.4053 64.4533 97.1636 64.5494Z" stroke="#394954" stroke-width="0.1"/>
<path id="Vector_111" d="M58.8379 66.5889C58.8284 66.589 58.8192 66.5924 58.8119 66.5986C58.8047 66.6048 58.7999 66.6134 58.7983 66.6228L58.1353 70.4776C58.1344 70.4833 58.1347 70.4893 58.1362 70.4949C58.1377 70.5005 58.1405 70.5058 58.1443 70.5102C58.148 70.5147 58.1527 70.5183 58.158 70.5208C58.1633 70.5233 58.169 70.5246 58.1749 70.5247H72.7955C72.805 70.5246 72.8142 70.5211 72.8214 70.5149C72.8287 70.5087 72.8335 70.5002 72.835 70.4908L73.4962 66.6369C73.4971 66.6311 73.4968 66.6252 73.4953 66.6196C73.4937 66.614 73.491 66.6087 73.4872 66.6043C73.4835 66.5998 73.4788 66.5962 73.4735 66.5937C73.4682 66.5912 73.4625 66.5899 73.4566 66.5898L58.8379 66.5889Z" stroke="#354351" stroke-width="0.1"/>
<path id="Vector_112" d="M137.162 65.8668C137.634 64.8516 137.974 63.8244 138.184 62.7853C138.191 62.7482 138.177 62.7322 138.14 62.7372C137.658 62.7981 137.199 62.8101 136.762 62.773" stroke="#0A0E1A" stroke-width="0.1"/>
<path id="Vector_113" d="M136.762 62.7737C136.124 62.6362 135.645 62.3128 135.323 61.8036C135.321 61.7999 135.318 61.7967 135.314 61.7945C135.31 61.7923 135.306 61.7911 135.302 61.791C135.298 61.7909 135.293 61.7919 135.289 61.794C135.286 61.796 135.282 61.799 135.28 61.8027C133.765 64.0121 131.797 65.7451 129.951 67.6541C129.829 67.7803 129.85 67.8126 130.015 67.7511C131.298 67.2695 132.62 66.9437 133.981 66.7735C133.996 66.7716 134.009 66.7645 134.018 66.7535C134.027 66.7425 134.032 66.7284 134.031 66.7142C133.975 65.8747 134.036 65.045 134.215 64.225C134.284 63.906 134.427 63.6577 134.644 63.48C134.665 63.463 134.69 63.4505 134.716 63.4433C134.742 63.4362 134.769 63.4346 134.796 63.4386C134.823 63.4425 134.849 63.452 134.872 63.4665C134.895 63.4809 134.914 63.5 134.93 63.5224C135.556 64.4485 136.003 65.4528 136.271 66.5352C136.279 66.5666 136.299 66.582 136.331 66.5814L136.832 66.5663C136.86 66.5651 136.88 66.5516 136.89 66.5258L137.163 65.8675" stroke="#0A141C" stroke-width="0.1"/>
<path id="Vector_114" d="M136.762 62.7725L137.162 65.8663" stroke="#000712" stroke-width="0.1"/>
<path id="Vector_115" d="M132.166 73.6225C132.166 73.6282 132.168 73.6338 132.171 73.6386C132.174 73.6434 132.178 73.6471 132.184 73.6492C132.189 73.6514 132.195 73.6519 132.2 73.6506C132.206 73.6494 132.211 73.6464 132.215 73.6422L133.477 72.3058C133.481 72.3014 133.484 72.2957 133.485 72.2896C133.486 72.2834 133.484 72.2772 133.481 72.2719C133.478 72.2666 133.473 72.2624 133.468 72.26C133.462 72.2576 133.456 72.2572 133.45 72.2587L132.203 72.5554C132.197 72.5568 132.191 72.5602 132.187 72.5649C132.184 72.5697 132.181 72.5756 132.181 72.5818L132.166 73.6225Z" stroke="#0A141C" stroke-width="0.1"/>
<path id="Vector_116" d="M61.0081 56.4981C61.0005 56.4979 60.9931 56.5005 60.9872 56.5054C60.9814 56.5102 60.9774 56.5169 60.9761 56.5244L60.4732 59.4647C60.4723 59.4693 60.4725 59.474 60.4737 59.4785C60.4749 59.483 60.477 59.4872 60.48 59.4908C60.4829 59.4944 60.4866 59.4973 60.4908 59.4993C60.495 59.5013 60.4996 59.5024 60.5042 59.5024H74.249C74.2566 59.5025 74.2639 59.4999 74.2698 59.4951C74.2757 59.4903 74.2796 59.4835 74.281 59.476L74.7848 56.5367C74.7857 56.5321 74.7855 56.5274 74.7843 56.5229C74.7831 56.5184 74.781 56.5142 74.778 56.5106C74.7751 56.507 74.7714 56.5042 74.7672 56.5021C74.763 56.5001 74.7584 56.4991 74.7538 56.499L61.0081 56.4981Z" stroke="#354351" stroke-width="0.1"/>
<path id="Vector_117" d="M60.1058 61.7764C60.0982 61.7763 60.0908 61.7788 60.085 61.7837C60.0791 61.7885 60.0752 61.7953 60.0738 61.8027L59.5728 64.7384C59.5719 64.7429 59.5721 64.7476 59.5733 64.7521C59.5745 64.7566 59.5766 64.7608 59.5796 64.7644C59.5825 64.768 59.5862 64.7709 59.5904 64.7729C59.5946 64.7749 59.5992 64.776 59.6039 64.776H73.3429C73.3505 64.7761 73.3579 64.7736 73.3638 64.7687C73.3696 64.7639 73.3736 64.7571 73.3749 64.7497L73.8788 61.814C73.8796 61.8095 73.8794 61.8048 73.8783 61.8003C73.8771 61.7958 73.8749 61.7916 73.872 61.788C73.869 61.7844 73.8653 61.7815 73.8611 61.7795C73.8569 61.7775 73.8524 61.7764 73.8477 61.7764H60.1058Z" stroke="#394954" stroke-width="0.1"/>
<path id="Vector_118" d="M59.2072 67.0645C59.1963 67.0645 59.1858 67.0684 59.1775 67.0755C59.1692 67.0826 59.1637 67.0923 59.162 67.1031L58.6647 70.0076C58.6636 70.0142 58.6639 70.0209 58.6657 70.0273C58.6675 70.0338 58.6706 70.0398 58.6749 70.0449C58.6792 70.05 58.6846 70.0541 58.6906 70.0569C58.6966 70.0597 58.7032 70.0612 58.7099 70.0613L72.4245 70.065C72.4353 70.065 72.4458 70.0611 72.4541 70.054C72.4624 70.0469 72.4679 70.0372 72.4697 70.0264L72.9717 67.1191C72.9727 67.1125 72.9724 67.1058 72.9706 67.0993C72.9689 67.0929 72.9657 67.0869 72.9614 67.0818C72.9571 67.0767 72.9518 67.0726 72.9457 67.0698C72.9397 67.0669 72.9331 67.0654 72.9265 67.0654L59.2072 67.0645Z" stroke="#354351" stroke-width="0.1"/>
</g>
<path id="Vector_119" d="M101.627 12.0166L100.38 18.8466C100.379 18.8536 100.376 18.8599 100.371 18.8646C100.365 18.8693 100.359 18.8721 100.352 18.8726C100.345 18.873 100.338 18.8711 100.332 18.867C100.326 18.863 100.321 18.8571 100.319 18.8504L99.2452 15.4872C99.5774 15.2272 99.7196 14.8938 99.6719 14.487C99.5495 13.4482 98.1132 13.2005 97.6536 14.1621C97.442 14.6041 97.5199 15.0257 97.8872 15.4269L96.5159 22.773C96.5143 22.7802 96.5102 22.7866 96.5045 22.7913C96.4988 22.7959 96.4916 22.7985 96.4842 22.7986C96.4769 22.7987 96.4697 22.7964 96.4638 22.7919C96.4579 22.7874 96.4537 22.7811 96.4519 22.7739C95.9722 20.6053 95.4943 18.4435 95.0184 16.2887C94.9801 16.1147 94.9355 15.9951 94.8847 15.9298C94.6653 15.6473 94.2593 15.7565 94.1331 16.0758C93.6365 17.3322 93.154 18.5619 92.6856 19.7649C92.641 19.8779 92.6005 19.8766 92.5641 19.7611C92.0599 18.1877 91.5598 16.6265 91.0638 15.0775C90.8811 14.5058 90.4497 14.5077 90.1436 14.9965C89.7029 15.6997 89.2678 16.4039 88.8383 17.109C88.8349 17.1143 88.83 17.1185 88.8243 17.1211C88.8185 17.1238 88.8121 17.1247 88.8059 17.1238C88.7997 17.1229 88.7938 17.1202 88.789 17.1161C88.7842 17.112 88.7807 17.1066 88.779 17.1005C88.2296 15.0317 87.6814 12.9584 87.1346 10.8808C87.0564 10.5851 86.95 10.3308 86.6109 10.3732C86.3143 10.4099 86.2502 10.6077 86.1956 10.8695C85.6839 13.3427 85.1772 15.8017 84.6755 18.2467C84.6491 18.376 84.6193 18.377 84.586 18.2495L83.3513 13.5103C83.5893 13.3 83.7174 13.0463 83.7356 12.7494C83.8147 11.4421 81.9584 11.1568 81.641 12.4301C81.5393 12.8401 81.6636 13.2033 82.014 13.5198L80.6352 17.7645C80.6327 17.7719 80.6282 17.7786 80.6222 17.7837C80.6162 17.7887 80.6089 17.792 80.6012 17.7931C80.5935 17.7942 80.5857 17.793 80.5787 17.7898C80.5717 17.7866 80.5658 17.7814 80.5617 17.7748C80.1033 17.0635 79.6431 16.3474 79.181 15.6266C78.9427 15.2574 78.4737 15.2593 78.3306 15.6897C77.7831 17.3328 77.2274 18.9722 76.6636 20.6078C75.8555 20.733 75.4684 21.5609 75.8913 22.2588C76.3255 22.9745 77.4811 22.8549 77.7777 22.0695C77.9485 21.6193 77.8568 21.2209 77.5027 20.8743L78.8655 16.8528C78.8675 16.8471 78.871 16.842 78.8757 16.8382C78.8804 16.8344 78.8861 16.8321 78.8922 16.8314C78.8982 16.8307 78.9042 16.8317 78.9097 16.8343C78.9151 16.837 78.9197 16.8411 78.923 16.8462C79.3788 17.567 79.8422 18.2894 80.3131 19.0133C80.6474 19.5285 81.0543 19.3345 81.22 18.8212C81.6903 17.3582 82.1618 15.9022 82.6346 14.4531C82.6367 14.447 82.6407 14.4418 82.646 14.4382C82.6513 14.4346 82.6576 14.4328 82.664 14.433C82.6704 14.4332 82.6766 14.4354 82.6816 14.4394C82.6867 14.4433 82.6903 14.4488 82.6921 14.455C83.2019 16.4309 83.7127 18.4036 84.2244 20.3733C84.2708 20.5522 84.3368 20.6747 84.4222 20.7406C84.6802 20.9393 85.0513 20.7952 85.12 20.4675C85.6468 17.9208 86.1689 15.3779 86.6863 12.8388C86.6873 12.8328 86.6904 12.8273 86.6951 12.8233C86.6997 12.8193 86.7056 12.817 86.7118 12.8169C86.7179 12.8168 86.7239 12.8188 86.7287 12.8227C86.7335 12.8265 86.7368 12.8319 86.7381 12.8379C87.214 14.6418 87.6893 16.4422 88.164 18.2391C88.2117 18.4212 88.2735 18.5455 88.3495 18.6121C88.5652 18.8014 88.8694 18.7204 89.0201 18.4793C89.4972 17.7152 89.9703 16.952 90.4394 16.1898C90.4424 16.1846 90.4469 16.1804 90.4523 16.1777C90.4577 16.175 90.4638 16.1739 90.4698 16.1746C90.4758 16.1753 90.4814 16.1778 90.486 16.1816C90.4907 16.1855 90.4941 16.1906 90.4959 16.1964C91.0396 17.8948 91.584 19.5972 92.129 21.3038C92.2162 21.5775 92.3883 21.7034 92.6451 21.6814C92.7694 21.6711 92.9248 21.5675 92.9681 21.4573C93.4466 20.2417 93.9203 19.0293 94.3893 17.82C94.392 17.8127 94.397 17.8064 94.4036 17.8022C94.4102 17.798 94.418 17.7961 94.4258 17.7967C94.4336 17.7974 94.441 17.8005 94.4468 17.8058C94.4526 17.811 94.4566 17.818 94.4581 17.8257C94.988 20.2449 95.5217 22.6653 96.0591 25.087C96.1307 25.4063 96.2851 25.6577 96.6449 25.5523C96.9303 25.4694 96.9482 25.2518 96.9972 24.9928C97.5308 22.1373 98.0614 19.2871 98.5888 16.4422C98.5899 16.4374 98.5924 16.4331 98.5962 16.4299C98.5999 16.4267 98.6045 16.4248 98.6094 16.4245C98.6143 16.4242 98.6192 16.4255 98.6233 16.4281C98.6273 16.4308 98.6305 16.4347 98.6321 16.4394C99.0855 17.8797 99.5397 19.3178 99.9949 20.7538C100.056 20.9468 100.108 21.1343 100.309 21.2011C100.703 21.333 100.876 21.0533 100.939 20.701C101.394 18.1475 101.868 15.5581 102.361 12.933C104.138 15.2712 105.805 17.7161 107.363 20.2678C109.12 23.145 110.547 25.5513 112.022 27.904C112.471 28.621 112.91 29.3515 113.337 30.0955C96.2352 30.0968 79.1546 30.0968 62.0948 30.0955C61.3815 30.0955 60.8817 30.1241 60.5954 30.1812C59.0791 30.4845 57.7992 31.5629 57.1908 32.9558C57.0457 33.2898 56.9151 33.7959 56.799 34.474C54.9826 45.0781 53.163 55.6819 51.3403 66.2854L47.4346 66.26C47.4007 66.2593 47.3809 66.2424 47.3753 66.2091C47.2105 65.2927 47.2199 64.3198 47.1643 63.3884C47.1624 63.3564 47.1693 63.3266 47.185 63.2989C47.4647 62.7904 47.5486 62.0463 47.6719 61.4775C47.6788 61.4467 47.6933 61.4197 47.7153 61.3965C47.8503 61.2565 47.9661 61.1023 48.0628 60.934C48.2662 60.5818 48.4565 60.3953 48.7748 60.2183C50.1793 59.4366 51.3513 58.4175 52.2906 57.1612C52.5985 56.7496 52.9602 56.0338 52.4488 55.6854C52.2369 55.5413 51.9308 55.546 51.6982 55.6279C50.2214 56.1497 49.0206 57.4164 48.1702 58.7067C48.1673 58.7107 48.1631 58.7137 48.1583 58.7153C48.1535 58.7168 48.1484 58.7168 48.1437 58.7152C48.1391 58.7135 48.1352 58.7104 48.1326 58.7063C48.1301 58.7022 48.129 58.6974 48.1297 58.6926C48.3557 56.4284 48.5657 54.1804 48.6034 51.9002C48.6285 50.4185 48.453 49.0193 48.0769 47.7026C47.9291 47.1865 46.926 44.4091 45.9993 45.3321C45.5133 45.8152 45.6537 47.4304 45.8109 48.0417C46.2592 49.7765 47.1276 51.3295 47.8575 52.9504C47.9159 53.0797 47.941 53.2175 47.9328 53.3638C47.8186 55.4804 47.627 57.5894 47.3583 59.6909C47.2736 60.3567 47.1295 61.0103 46.9844 61.6639C46.9831 61.6702 46.9797 61.6758 46.9747 61.6798C46.9698 61.6838 46.9636 61.6859 46.9572 61.6858C46.9508 61.6856 46.9447 61.6833 46.9399 61.6792C46.935 61.675 46.9318 61.6693 46.9307 61.663C46.2931 57.9721 44.3483 54.0202 40.7855 52.3297C40.2383 52.0698 39.3012 51.7345 38.6975 51.8833C36.5944 52.4022 39.6835 56.1694 40.2882 56.8249C41.8553 58.5252 43.7038 59.824 45.8335 60.7212C46.0031 60.7928 46.1321 60.918 46.1726 61.0847C46.4005 62.0058 46.5302 62.9969 46.5616 64.058C46.5628 64.1089 46.5502 64.1126 46.5239 64.0693C46.0954 63.3545 45.373 62.488 44.6082 62.1292C43.8313 61.7657 43.2973 62.2177 43.6146 63.0239C43.6975 63.2355 43.7923 63.4192 43.8991 63.5749C44.4591 64.3924 45.1567 65.2868 45.9918 66.2581L38.8877 66.2609C38.8695 66.2609 38.862 66.27 38.8651 66.2882L39.5178 70.3126C39.5228 70.3427 39.5404 70.3578 39.5705 70.3578L40.6932 70.3512L40.7205 70.4727L42.0004 78.3641L5.87176 78.3895C5.84208 78.3898 5.81292 78.3817 5.78761 78.3662C5.7623 78.3507 5.74185 78.3285 5.7286 78.3019C3.41364 73.753 2.02165 68.816 1.64587 63.7161C1.60694 63.1831 1.56613 62.6472 1.52344 62.1085L3.93634 62.1151C3.9759 62.1151 3.99568 62.0953 3.99568 62.0557L4.00227 51.2212L3.99756 49.055C3.99693 49.0149 3.97684 48.9941 3.93729 48.9929L3.42306 48.9806C3.41929 48.9599 3.42777 48.9483 3.44849 48.9458C3.46858 48.9433 3.47329 48.9336 3.46262 48.9166C3.45571 48.9053 3.45037 48.8943 3.44661 48.8836C3.44347 48.873 3.44409 48.861 3.44849 48.8479C5.54966 42.3155 9.8443 35.8556 16.0574 32.58C20.8446 30.056 26.3805 29.6133 31.6132 29.0407C31.6339 29.0388 31.6528 29.0445 31.6697 29.0577C31.6779 29.0646 31.6857 29.0721 31.6933 29.0803C31.6936 29.0805 31.694 29.0807 31.6945 29.0807C31.695 29.0807 31.6956 29.0805 31.6961 29.0803C31.7111 29.0614 31.7294 29.047 31.7507 29.037C31.7413 29.4523 31.7338 29.8987 31.86 30.2858C32.1438 31.1535 32.7 31.717 33.5288 31.9763C33.8139 32.0649 34.2462 32.1094 34.8257 32.1101C37.9826 32.1113 41.1531 32.1085 44.337 32.1016L45.9597 34.3751C45.9805 34.404 46.0056 34.4084 46.0351 34.3883L47.2397 33.5604C47.266 33.5429 47.2701 33.5209 47.2519 33.4945L46.2206 32.0536C47.1875 31.7716 47.8054 31.2128 48.0741 30.3771C48.1689 30.0839 48.216 29.5863 48.2154 28.8844C48.2147 27.3536 48.216 25.8527 48.2191 24.3816C50.2566 23.1416 52.1399 21.6686 53.869 19.9626C56.5824 17.2851 58.9491 14.471 61.4129 11.6625C63.4811 9.30517 65.6369 7.12583 68.0846 5.26576C72.2412 2.10757 76.9166 0.703025 82.111 1.05212C86.0666 1.31771 89.8347 2.43281 93.2205 4.45675C96.4293 6.37615 99.2688 9.08855 101.627 12.0166ZM25.0017 43.6133L25.0064 62.0576C25.0064 62.0947 25.0246 62.1132 25.0611 62.1132H27.9533C27.9847 62.1132 28.0004 62.0975 28.0004 62.0661L27.9995 43.602V41.2117C27.9995 41.1809 27.9841 41.1655 27.9533 41.1655H25.0582C25.042 41.1655 25.0264 41.172 25.0149 41.1835C25.0035 41.1949 24.997 41.2105 24.997 41.2267L25.0017 43.6133ZM20.2042 45.8369V62.0623C20.2042 62.0969 20.2214 62.1141 20.256 62.1141H23.1501C23.1815 62.1141 23.1972 62.0984 23.1972 62.067L23.1982 45.819V42.3635C23.1982 42.351 23.1932 42.339 23.1844 42.3302C23.1755 42.3214 23.1636 42.3164 23.1511 42.3164L20.2578 42.3145C20.2227 42.3145 20.2051 42.3321 20.2051 42.3673L20.2042 45.8369ZM15.4038 47.89L15.4057 62.0595C15.4057 62.0922 15.422 62.1085 15.4546 62.1085L18.3441 62.1151C18.3799 62.1151 18.3978 62.0972 18.3978 62.0614L18.3987 47.8778L18.3978 45.366C18.3978 45.3321 18.3808 45.3151 18.3469 45.3151L15.4857 45.3114C15.4752 45.3112 15.4649 45.3132 15.4552 45.3171C15.4454 45.321 15.4366 45.3268 15.4292 45.3342C15.4217 45.3416 15.4158 45.3503 15.4118 45.36C15.4077 45.3696 15.4057 45.38 15.4057 45.3905L15.4038 47.89ZM5.80489 49.8433L5.80395 62.0689C5.80395 62.0991 5.81902 62.1141 5.84915 62.1141H8.7405C8.77817 62.1141 8.79701 62.0953 8.79701 62.0576L8.80266 49.8471L8.80548 47.6452C8.80548 47.6367 8.80382 47.6284 8.80061 47.6207C8.79739 47.6129 8.79267 47.6058 8.78672 47.5999C8.78078 47.5939 8.77372 47.5892 8.76595 47.586C8.75818 47.5828 8.74985 47.5811 8.74144 47.5811L5.84915 47.5783C5.81839 47.5783 5.803 47.594 5.803 47.6254L5.80489 49.8433ZM10.6006 49.7906L10.6062 62.036C10.6062 62.0547 10.6137 62.0727 10.6269 62.0859C10.6402 62.0992 10.6581 62.1066 10.6769 62.1066L13.5211 62.1151C13.5307 62.1152 13.5402 62.1134 13.5491 62.1098C13.5581 62.1062 13.5662 62.1009 13.573 62.0942C13.5798 62.0874 13.5853 62.0794 13.589 62.0705C13.5927 62.0617 13.5946 62.0522 13.5946 62.0426L13.6012 49.7774V48.716C13.6012 48.7089 13.5998 48.7018 13.5971 48.6952C13.5943 48.6887 13.5904 48.6827 13.5854 48.6777C13.5804 48.6727 13.5745 48.6688 13.5679 48.6661C13.5614 48.6635 13.5545 48.6622 13.5475 48.6623L10.6703 48.6651C10.6294 48.6658 10.609 48.6862 10.609 48.7264L10.6006 49.7906Z" fill="url(#paint0_linear_0_4344)"/>
<path id="Vector_120" d="M97.8877 15.4275C98.341 15.7603 98.7937 15.7804 99.2457 15.4878L100.319 18.851C100.322 18.8577 100.326 18.8636 100.332 18.8676C100.338 18.8717 100.345 18.8736 100.352 18.8732C100.359 18.8727 100.366 18.8699 100.371 18.8652C100.376 18.8605 100.38 18.8542 100.381 18.8472L101.628 12.0172L102.361 12.9336C101.869 15.5587 101.395 18.1481 100.939 20.7016C100.876 21.0539 100.704 21.3336 100.309 21.2017C100.108 21.1349 100.057 20.9474 99.9954 20.7544C99.5402 19.3184 99.086 17.8803 98.6326 16.44C98.631 16.4354 98.6279 16.4314 98.6238 16.4287C98.6197 16.4261 98.6148 16.4248 98.6099 16.4251C98.605 16.4254 98.6004 16.4273 98.5967 16.4305C98.5929 16.4337 98.5904 16.438 98.5893 16.4428C98.0619 19.2877 97.5313 22.1379 96.9977 24.9934C96.9487 25.2524 96.9308 25.47 96.6454 25.5529C96.2857 25.6584 96.1312 25.4069 96.0596 25.0876C95.5222 22.6659 94.9885 20.2455 94.4585 17.8263C94.4571 17.8186 94.4531 17.8116 94.4473 17.8064C94.4415 17.8011 94.4341 17.798 94.4263 17.7973C94.4185 17.7967 94.4107 17.7986 94.4041 17.8028C94.3975 17.807 94.3925 17.8133 94.3898 17.8206C93.9208 19.0299 93.4471 20.2423 92.9686 21.4579C92.9253 21.5681 92.7699 21.6717 92.6456 21.682C92.3888 21.704 92.2167 21.5781 92.1295 21.3044C91.5845 19.5978 91.0401 17.8954 90.4964 16.197C90.4946 16.1912 90.4912 16.1861 90.4865 16.1822C90.4819 16.1784 90.4763 16.1759 90.4703 16.1752C90.4643 16.1745 90.4582 16.1756 90.4528 16.1783C90.4474 16.181 90.4429 16.1852 90.4399 16.1904C89.9708 16.9526 89.4977 17.7158 89.0206 18.4799C88.8699 18.721 88.5657 18.802 88.35 18.6127C88.274 18.5461 88.2122 18.4218 88.1645 18.2397C87.6898 16.4428 87.2145 14.6424 86.7386 12.8385C86.7373 12.8325 86.734 12.8271 86.7292 12.8233C86.7244 12.8194 86.7184 12.8174 86.7123 12.8175C86.7061 12.8176 86.7002 12.8199 86.6956 12.8239C86.6909 12.8279 86.6878 12.8334 86.6868 12.8394C86.1694 15.3785 85.6473 17.9214 85.1205 20.4681C85.0518 20.7958 84.6807 20.9399 84.4227 20.7412C84.3373 20.6753 84.2713 20.5528 84.2249 20.3739C83.7132 18.4042 83.2024 16.4315 82.6926 14.4556C82.6908 14.4494 82.6872 14.4439 82.6821 14.44C82.6771 14.436 82.6709 14.4338 82.6645 14.4336C82.6581 14.4334 82.6518 14.4352 82.6465 14.4388C82.6412 14.4424 82.6372 14.4476 82.6351 14.4537C82.1623 15.9028 81.6908 17.3588 81.2205 18.8218C81.0548 19.3351 80.6479 19.5291 80.3136 19.0139C79.8427 18.29 79.3793 17.5676 78.9235 16.8468C78.9202 16.8417 78.9157 16.8376 78.9102 16.8349C78.9047 16.8323 78.8987 16.8313 78.8926 16.832C78.8866 16.8327 78.8809 16.835 78.8762 16.8388C78.8715 16.8426 78.868 16.8477 78.866 16.8534L77.5032 20.8749C77.2458 20.6652 76.9661 20.5764 76.6641 20.6084C77.2279 18.9728 77.7836 17.3334 78.3311 15.6903C78.4742 15.2599 78.9432 15.258 79.1815 15.6272C79.6436 16.348 80.1038 17.0641 80.5622 17.7754C80.5663 17.782 80.5722 17.7872 80.5792 17.7904C80.5862 17.7936 80.594 17.7948 80.6017 17.7937C80.6094 17.7926 80.6167 17.7893 80.6227 17.7843C80.6287 17.7792 80.6332 17.7725 80.6357 17.7651L82.0145 13.5204C82.4559 13.8192 82.9016 13.8161 83.3518 13.5109L84.5865 18.2501C84.6198 18.3776 84.6496 18.3766 84.676 18.2473C85.1777 15.8024 85.6844 13.3433 86.1961 10.8701C86.2507 10.6083 86.3148 10.4105 86.6114 10.3738C86.9505 10.3314 87.0569 10.5857 87.1351 10.8814C87.6819 12.959 88.2301 15.0323 88.7795 17.1011C88.7812 17.1072 88.7847 17.1126 88.7895 17.1167C88.7943 17.1208 88.8002 17.1235 88.8064 17.1244C88.8127 17.1253 88.819 17.1244 88.8248 17.1217C88.8305 17.1191 88.8354 17.1149 88.8388 17.1096C89.2683 16.4045 89.7034 15.7003 90.1441 14.9971C90.4502 14.5083 90.8816 14.5064 91.0643 15.0781C91.5603 16.6271 92.0604 18.1883 92.5646 19.7617C92.601 19.8772 92.6415 19.8785 92.6861 19.7655C93.1545 18.5625 93.637 17.3328 94.1336 16.0764C94.2598 15.7571 94.6657 15.6479 94.8852 15.9304C94.936 15.9957 94.9806 16.1153 95.0189 16.2893C95.4948 18.4441 95.9727 20.6059 96.4524 22.7745C96.4542 22.7817 96.4584 22.788 96.4643 22.7925C96.4702 22.797 96.4774 22.7993 96.4847 22.7992C96.4921 22.7991 96.4993 22.7965 96.505 22.7919C96.5107 22.7872 96.5147 22.7808 96.5164 22.7736L97.8877 15.4275Z" fill="#8491A0"/>
<path id="Vector_121" d="M83.3521 13.5109C82.9019 13.816 82.4561 13.8192 82.0147 13.5203C81.6644 13.2038 81.54 12.8406 81.6418 12.4306C81.9591 11.1573 83.8154 11.4427 83.7363 12.7499C83.7181 13.0469 83.59 13.3005 83.3521 13.5109Z" fill="#5A6A8A"/>
<path id="Vector_122" d="M99.2467 15.4876C98.7946 15.7802 98.342 15.7601 97.8886 15.4273C97.5213 15.0261 97.4435 14.6045 97.6551 14.1625C98.1147 13.2009 99.5509 13.4486 99.6734 14.4874C99.7211 14.8943 99.5789 15.2277 99.2467 15.4876Z" fill="#5A6A8A"/>
<path id="Vector_123" d="M48.1604 18.2842C47.3674 19.9437 46.188 21.2217 44.6221 22.1183C44.1813 20.5976 43.3403 19.4659 42.099 18.7231C38.8394 16.7717 34.5815 18.6751 33.8864 22.398C33.558 24.1555 34.0085 25.7364 35.2379 27.141C34.7293 27.5868 34.1306 27.7089 33.4419 27.5073C32.8354 27.3297 32.2728 27.0176 31.7542 26.5712C31.7447 24.0798 31.7381 21.5507 31.7344 18.984C31.7331 18.1157 32.0424 17.4149 32.6621 16.8819C33.2874 16.3432 33.9401 16.2763 34.8405 16.2772C38.2335 16.2772 41.6265 16.2763 45.0195 16.2744C45.6675 16.2738 46.1393 16.319 46.435 16.41C47.321 16.6832 47.8961 17.3079 48.1604 18.2842Z" fill="#394048"/>
<path id="Vector_124" d="M44.6207 22.1192C45.0515 24.3118 44.4521 26.1473 42.8228 27.626L41.9093 28.2495C39.6292 29.4013 37.0053 29.0368 35.2366 27.1419C34.0072 25.7373 33.5567 24.1564 33.8851 22.399C34.5801 18.676 38.838 16.7726 42.0976 18.724C43.3389 19.4668 44.18 20.5985 44.6207 22.1192ZM44.0246 23.4274C44.0246 22.8042 43.9018 22.1871 43.6633 21.6113C43.4248 21.0355 43.0753 20.5123 42.6346 20.0716C42.1939 19.631 41.6707 19.2814 41.0949 19.0429C40.5191 18.8044 39.902 18.6816 39.2788 18.6816C38.6556 18.6816 38.0385 18.8044 37.4627 19.0429C36.8869 19.2814 36.3637 19.631 35.923 20.0716C35.4824 20.5123 35.1328 21.0355 34.8943 21.6113C34.6558 22.1871 34.533 22.8042 34.533 23.4274C34.533 24.6861 35.033 25.8932 35.923 26.7832C36.813 27.6732 38.0202 28.1732 39.2788 28.1732C40.5375 28.1732 41.7446 27.6732 42.6346 26.7832C43.5246 25.8932 44.0246 24.6861 44.0246 23.4274Z" fill="#7B8F9F"/>
<path id="Vector_125" d="M48.1585 18.2842C48.2019 18.5284 48.2232 18.746 48.2226 18.9369C48.2176 20.7112 48.2166 22.5261 48.2198 24.3814C48.2166 25.8525 48.2154 27.3535 48.216 28.8842C48.2166 29.5862 48.1695 30.0838 48.0747 30.377C47.806 31.2127 47.1882 31.7715 46.2212 32.0534L44.3131 29.3824C44.2912 29.3517 44.2642 29.3463 44.2322 29.3664L44.0899 29.4559L42.8223 27.625C44.4516 26.1464 45.0509 24.3108 44.6202 22.1183C46.1861 21.2217 47.3655 19.9436 48.1585 18.2842Z" fill="#484F57"/>
<path id="Vector_126" d="M39.277 28.1722C41.898 28.1722 44.0228 26.0474 44.0228 23.4264C44.0228 20.8054 41.898 18.6807 39.277 18.6807C36.656 18.6807 34.5312 20.8054 34.5312 23.4264C34.5312 26.0474 36.656 28.1722 39.277 28.1722Z" fill="#3D454F"/>
<path id="Vector_127" d="M76.6662 20.6079C76.9682 20.5759 77.248 20.6647 77.5054 20.8745C77.8595 21.221 77.9512 21.6194 77.7804 22.0696C77.4837 22.8551 76.3281 22.9747 75.894 22.2589C75.4711 21.561 75.8582 20.7332 76.6662 20.6079Z" fill="#5A6A8A"/>
<path id="Vector_128" d="M35.2374 27.1411C37.0061 29.036 39.63 29.4005 41.9101 28.2486L43.1702 30.0861C43.0446 30.1502 43.0023 30.2117 43.0431 30.2707C43.4644 30.8766 43.8963 31.4869 44.339 32.1016C41.1551 32.1085 37.9846 32.1113 34.8277 32.1101C34.2482 32.1094 33.8159 32.0648 33.5308 31.9763C32.702 31.717 32.1457 31.1535 31.862 30.2858C31.7357 29.8987 31.7433 29.4523 31.7527 29.0369L31.7536 26.5713C32.2723 27.0177 32.8348 27.3298 33.4414 27.5074C34.1301 27.709 34.7288 27.5869 35.2374 27.1411Z" fill="#484F57"/>
<path id="Vector_129" d="M42.8237 27.625L44.0914 29.4559L43.1703 30.0859L41.9102 28.2485L42.8237 27.625Z" fill="#141B24"/>
<path id="Vector_130" d="M46.2219 32.0534L47.2532 33.4943C47.2714 33.5207 47.2673 33.5427 47.2409 33.5603L46.0364 34.3881C46.0068 34.4082 45.9817 34.4038 45.961 34.3749L44.3383 32.1014C43.8956 31.4867 43.4637 30.8764 43.0424 30.2705C43.0015 30.2115 43.0439 30.15 43.1695 30.0859L44.0906 29.4559L44.2328 29.3664C44.2648 29.3463 44.2918 29.3516 44.3138 29.3824L46.2219 32.0534Z" fill="#405164"/>
<path id="Vector_131" d="M113.337 30.0957L123.736 30.1079C124.66 30.2561 125.367 30.6529 125.858 31.2984C126.209 31.7586 126.418 32.2779 126.485 32.8561C126.524 33.1877 126.481 33.7163 126.356 34.4421C124.082 47.7047 121.806 60.9669 119.527 74.2287C119.429 74.7976 119.312 75.238 119.174 75.5501C118.587 76.8828 117.292 78.0628 115.796 78.3058C115.766 78.3108 115.743 78.3259 115.726 78.351L115.689 78.4104C94.7792 78.4154 73.8699 78.4138 52.9605 78.4057C52.3377 78.4057 51.7289 78.2094 51.1343 77.817C50.4016 77.2494 49.9857 76.5271 49.8865 75.6499C49.8475 75.3065 49.8934 74.7502 50.024 73.9811C50.4591 71.4149 50.898 68.8498 51.3406 66.2855C53.1633 55.6821 54.9829 45.0783 56.7993 34.4742C56.9155 33.7961 57.0461 33.29 57.1911 32.956C57.7995 31.563 59.0794 30.4847 60.5957 30.1814C60.882 30.1243 61.3818 30.0957 62.0951 30.0957C79.155 30.097 96.2356 30.097 113.337 30.0957ZM67.1771 35.2229L61.7673 35.2417C61.7508 35.2417 61.7348 35.2476 61.7222 35.2583C61.7097 35.269 61.7013 35.2838 61.6986 35.3001L55.186 73.2314C55.1852 73.2361 55.1854 73.241 55.1867 73.2457C55.188 73.2504 55.1903 73.2547 55.1934 73.2584C55.1966 73.2621 55.2005 73.2651 55.2049 73.2671C55.2093 73.2691 55.2141 73.2701 55.219 73.27L95.5302 73.2756L114.614 73.2568C114.63 73.2566 114.645 73.2508 114.657 73.2405C114.669 73.2302 114.677 73.2159 114.68 73.2003L116.667 61.4541C116.674 61.4604 116.68 61.4654 116.686 61.4692C116.699 61.4761 116.707 61.4723 116.71 61.4578L121.394 35.3265C121.397 35.3139 121.395 35.3009 121.389 35.2894C121.383 35.278 121.374 35.2688 121.362 35.2634C121.311 35.2395 121.245 35.2505 121.164 35.2964C121.138 35.2549 121.109 35.2339 121.077 35.2333C107.638 35.2025 89.6718 35.199 67.1771 35.2229Z" fill="#6A7380"/>
<path id="Vector_132" d="M123.737 30.1073C124.435 30.0904 124.946 30.092 125.27 30.1121C126.803 30.2081 128.001 31.3703 128.165 32.8819C128.2 33.2147 128.16 33.7258 128.042 34.4152C127.507 37.5464 126.973 40.6593 126.442 43.7541C126.112 45.6522 125.791 47.5314 125.48 49.3918C125.45 49.5726 125.451 49.7531 125.485 49.9333C126.593 55.8629 127.711 61.8349 128.839 67.8493L129.738 72.6619C129.936 73.7045 130.138 74.4372 130.03 75.3734L129.851 76.1023C129.311 77.2771 128.381 78.0123 127.063 78.308C126.5 78.3991 125.931 78.4324 125.358 78.4079C125.342 78.3357 125.377 78.2952 125.463 78.2864C126.096 78.2217 126.688 77.9687 127.239 77.5273C128.044 76.8806 128.49 76.0684 128.576 75.0908C128.604 74.7662 128.561 74.2991 128.447 73.6894C127.213 67.0892 125.979 60.4947 124.745 53.9058C124.744 53.9022 124.742 53.8989 124.739 53.8967C124.736 53.8944 124.732 53.8932 124.728 53.8933C124.724 53.8934 124.721 53.8948 124.718 53.8972C124.715 53.8997 124.713 53.9031 124.712 53.9068C123.612 60.323 122.511 66.7376 121.41 73.1507C121.23 74.203 121.113 74.819 121.061 74.9985C120.651 76.3949 119.741 77.4199 118.333 78.0735C118.148 78.1596 117.77 78.2716 117.199 78.4098H115.689L115.727 78.3504C115.743 78.3253 115.767 78.3102 115.797 78.3052C117.293 78.0622 118.588 76.8821 119.175 75.5495C119.313 75.2374 119.43 74.797 119.528 74.2281C121.807 60.9663 124.083 47.7041 126.357 34.4415C126.482 33.7157 126.525 33.187 126.486 32.8555C126.419 32.2773 126.21 31.758 125.859 31.2978C125.368 30.6523 124.661 30.2555 123.737 30.1073Z" fill="#9FB0BE"/>
<path id="Vector_133" d="M121.166 35.2961L116.669 61.4539L114.682 73.2001C114.679 73.2157 114.671 73.2299 114.659 73.2402C114.647 73.2506 114.631 73.2563 114.616 73.2566L95.5318 73.2754C95.6134 73.2377 95.7114 73.2308 95.8256 73.2547C95.8269 73.2553 95.8275 73.255 95.8275 73.2537C95.8275 73.2531 95.8272 73.2525 95.8266 73.2519C95.8266 73.2487 95.8253 73.2471 95.8228 73.2471C95.4511 73.2283 95.0794 73.2186 94.7077 73.218C81.5752 73.1916 68.4464 73.1549 55.3214 73.1078C55.3161 73.1077 55.3109 73.1065 55.3062 73.1042C55.3014 73.102 55.2972 73.0988 55.2938 73.0947C55.2904 73.0907 55.2879 73.086 55.2865 73.081C55.2851 73.0759 55.2848 73.0706 55.2856 73.0654L61.7907 35.3912C61.795 35.3661 61.8101 35.3533 61.8359 35.3526C63.5424 35.3225 65.2483 35.3335 66.9536 35.3856C67.1024 35.3903 67.2456 35.3555 67.3972 35.3394C67.4211 35.3369 67.4336 35.3237 67.4349 35.2999C67.4362 35.2704 67.422 35.2581 67.3925 35.2632C67.2983 35.2782 67.2271 35.2647 67.1787 35.2227C89.6735 35.1988 107.64 35.2023 121.078 35.233C121.11 35.2337 121.14 35.2547 121.166 35.2961ZM114.091 62.2798L116.84 46.2578L117.47 42.5914C117.472 42.5843 117.471 42.5771 117.468 42.5704C117.465 42.5638 117.461 42.5581 117.455 42.5539C117.449 42.5498 117.442 42.5474 117.435 42.547C117.428 42.5466 117.421 42.5483 117.415 42.5518C116.75 42.9197 116.113 43.3068 115.504 43.713C113.251 45.2115 112.117 48.374 111.169 50.8378L111.089 50.9518C109.979 52.0832 109.173 52.8385 108.669 53.2178C107.935 53.7715 107.24 54.1746 106.343 53.7301C106.023 53.5719 105.754 53.3942 105.535 53.197C104.433 52.2081 103.252 50.656 101.573 50.2369C101.185 50.1402 100.686 50.0819 100.075 50.0618C96.8183 49.9535 94.4817 51.951 92.0546 53.8036C92.0355 53.8182 92.0134 53.8286 91.99 53.8342C91.9665 53.8397 91.9422 53.8403 91.9185 53.8359C91.8948 53.8314 91.8723 53.8221 91.8524 53.8084C91.8325 53.7947 91.8158 53.777 91.8032 53.7565C91.0077 52.4687 90.2297 51.1546 89.4694 49.8141C88.8459 48.714 87.8815 47.371 86.7881 46.8389C85.2445 46.0883 83.6613 46.8982 82.42 47.9013C81.173 48.9102 80.1034 50.0618 79.2112 51.3558C79.2175 51.3853 79.1943 51.4016 79.1415 51.4048L81.4509 37.952C81.4578 37.9131 81.4414 37.8936 81.4019 37.8936H81.0892C81.0528 37.893 81.0314 37.9109 81.0252 37.9473L76.7804 62.6744C76.7742 62.7121 76.7899 62.7309 76.8275 62.7309H113.95C113.986 62.7309 114.008 62.713 114.015 62.6773L114.091 62.2798ZM64.5106 51.0883C66.5543 53.2356 69.6538 53.2404 72.1025 51.7796C74.2065 50.5251 75.7539 48.4513 76.1956 46.0092C76.2019 45.9753 76.1877 45.9583 76.1532 45.9583L73.9098 45.9545C73.8753 45.9545 73.8539 45.9712 73.8458 46.0045C73.4458 47.7292 72.5166 48.9784 71.058 49.7519C69.4588 50.6005 67.7221 50.5421 66.382 49.2292C65.2716 47.9126 65.2508 46.1203 65.9807 44.6219C66.9395 42.6507 68.9992 41.2436 71.2341 41.6637C71.2529 41.6671 71.2723 41.6638 71.289 41.6543C71.3056 41.6449 71.3185 41.6299 71.3255 41.6119L72.1938 39.3007C72.2045 39.2718 72.1948 39.2542 72.1646 39.2479C68.2496 38.4163 64.4908 41.4414 63.4011 45.0721C62.7748 47.1572 63.0621 49.4044 64.5106 51.0883ZM60.6558 56.0262C60.6452 56.0261 60.635 56.0297 60.6269 56.0364C60.6187 56.0432 60.6133 56.0526 60.6115 56.063L59.9513 59.9178C59.9502 59.9242 59.9505 59.9307 59.9522 59.937C59.954 59.9433 59.957 59.9491 59.9613 59.9541C59.9655 59.959 59.9708 59.963 59.9767 59.9656C59.9826 59.9683 59.9891 59.9697 59.9956 59.9696H74.6068C74.6173 59.9697 74.6275 59.9661 74.6357 59.9594C74.6438 59.9526 74.6492 59.9432 74.651 59.9328L75.3112 56.0761C75.3123 56.0697 75.312 56.0632 75.3103 56.0569C75.3086 56.0506 75.3055 56.0448 75.3013 56.0398C75.297 56.0349 75.2918 56.0309 75.2858 56.0283C75.2799 56.0256 75.2735 56.0242 75.267 56.0243L60.6558 56.0262ZM73.7092 65.2465C73.7182 65.2466 73.7269 65.2436 73.7338 65.2379C73.7407 65.2322 73.7453 65.2242 73.7469 65.2154L74.409 61.354C74.4099 61.3486 74.4097 61.3431 74.4083 61.3378C74.4069 61.3325 74.4044 61.3276 74.4009 61.3234C74.3974 61.3192 74.393 61.3158 74.3881 61.3134C74.3831 61.3111 74.3777 61.3098 74.3722 61.3098H59.7413C59.7323 61.3096 59.7236 61.3127 59.7167 61.3184C59.7098 61.3241 59.7052 61.332 59.7036 61.3408L59.0415 65.2022C59.0406 65.2076 59.0408 65.2132 59.0422 65.2185C59.0436 65.2238 59.0461 65.2287 59.0496 65.2329C59.0531 65.2371 59.0575 65.2405 59.0624 65.2429C59.0674 65.2452 59.0728 65.2465 59.0782 65.2465H73.7092ZM78.4503 64.4997C77.9068 64.6626 77.2994 65.2296 77.1779 65.8511C77.1101 66.1958 76.9851 66.9207 76.803 68.0258C76.6731 68.8112 76.907 69.338 77.5047 69.6061C77.6855 69.6877 77.936 69.7286 78.2563 69.7286C82.6689 69.726 87.0819 69.7251 91.4952 69.7257C92.259 69.7257 92.8354 69.463 93.231 68.8254C93.3609 68.6163 93.4655 68.2926 93.5446 67.8544C93.6375 67.3427 93.7267 66.8303 93.8121 66.3173C93.8849 65.8791 93.8934 65.5451 93.8375 65.3153C93.6906 64.7125 93.2586 64.4111 92.5416 64.4111C88.3235 64.4143 84.1055 64.4149 79.8875 64.413C79.124 64.4124 78.6449 64.4413 78.4503 64.4997ZM97.1649 64.5496C96.662 64.7492 96.1374 65.304 96.03 65.886C95.9528 66.3016 95.8448 66.9267 95.706 67.7611C95.6282 68.2283 95.6119 68.5645 95.6571 68.7698C95.8087 69.4639 96.3644 69.7314 97.0509 69.7314C101.352 69.7301 105.653 69.7311 109.956 69.7342C110.509 69.7348 110.903 69.6934 111.138 69.6099C111.555 69.4636 111.875 69.2015 112.1 68.8235C112.452 68.2311 112.534 67.1461 112.667 66.3776C112.746 65.9218 112.759 65.5786 112.708 65.3482C112.567 64.7191 112.116 64.4048 111.354 64.4055C107.049 64.4099 102.743 64.4102 98.4373 64.4064C97.8307 64.4058 97.4066 64.4535 97.1649 64.5496ZM58.84 66.5886C58.8304 66.5887 58.8213 66.5921 58.814 66.5983C58.8068 66.6045 58.802 66.6131 58.8004 66.6225L58.1374 70.4773C58.1364 70.4831 58.1367 70.489 58.1383 70.4946C58.1398 70.5002 58.1426 70.5055 58.1463 70.5099C58.1501 70.5144 58.1548 70.518 58.1601 70.5205C58.1653 70.523 58.1711 70.5243 58.1769 70.5244H72.7975C72.8071 70.5243 72.8163 70.5208 72.8235 70.5146C72.8307 70.5084 72.8356 70.4999 72.8371 70.4905L73.4982 66.6366C73.4992 66.6308 73.4989 66.6249 73.4973 66.6193C73.4958 66.6137 73.4931 66.6084 73.4893 66.604C73.4855 66.5995 73.4809 66.5959 73.4756 66.5934C73.4703 66.5909 73.4645 66.5896 73.4587 66.5895L58.84 66.5886Z" fill="#29343E"/>
<path id="Vector_134" d="M67.1791 35.2227C67.2274 35.2647 67.2987 35.2782 67.3929 35.2632C67.4224 35.2581 67.4365 35.2704 67.4352 35.2999C67.434 35.3237 67.4214 35.3369 67.3976 35.3394C67.2459 35.3555 67.1028 35.3903 66.954 35.3856C65.2487 35.3335 63.5427 35.3225 61.8362 35.3526C61.8105 35.3533 61.7954 35.3661 61.791 35.3912L55.2859 73.0654C55.2851 73.0706 55.2854 73.0759 55.2869 73.0809C55.2883 73.086 55.2908 73.0907 55.2942 73.0947C55.2976 73.0988 55.3018 73.102 55.3065 73.1042C55.3113 73.1065 55.3165 73.1077 55.3217 73.1078C68.4467 73.1548 81.5755 73.1916 94.7081 73.2179C95.0798 73.2186 95.4515 73.2283 95.8232 73.2471C95.8257 73.2471 95.8269 73.2487 95.8269 73.2519C95.8276 73.2525 95.8279 73.2531 95.8279 73.2537C95.8279 73.255 95.8272 73.2553 95.826 73.2547C95.7117 73.2308 95.6138 73.2377 95.5321 73.2754L55.221 73.2697C55.2161 73.2698 55.2113 73.2688 55.2069 73.2668C55.2025 73.2648 55.1985 73.2619 55.1954 73.2582C55.1922 73.2545 55.1899 73.2502 55.1887 73.2455C55.1874 73.2408 55.1872 73.2359 55.188 73.2311L61.7006 35.2999C61.7033 35.2836 61.7116 35.2688 61.7242 35.2581C61.7368 35.2474 61.7528 35.2415 61.7693 35.2415L67.1791 35.2227Z" fill="#000D14"/>
<path id="Vector_135" d="M116.668 61.4539L121.165 35.2962C121.245 35.2504 121.311 35.2394 121.363 35.2632C121.374 35.2687 121.384 35.2778 121.39 35.2893C121.396 35.3007 121.397 35.3137 121.395 35.3263L116.711 61.4577C116.708 61.4721 116.7 61.4759 116.687 61.469C116.681 61.4652 116.675 61.4602 116.668 61.4539Z" fill="white"/>
<path id="Vector_136" d="M79.1398 51.4047C79.1203 51.4455 79.1156 51.486 79.1257 51.5262L77.291 62.2251C77.2848 62.2609 77.2998 62.2788 77.3362 62.2788L114.089 62.2798L114.013 62.6772C114.006 62.713 113.984 62.7309 113.948 62.7309H76.8258C76.7881 62.7309 76.7724 62.7121 76.7787 62.6744L81.0234 37.9472C81.0297 37.9108 81.051 37.8929 81.0875 37.8936H81.4001C81.4397 37.8936 81.456 37.913 81.4491 37.952L79.1398 51.4047Z" fill="white"/>
<path id="Vector_137" d="M66.3814 49.2295L64.51 51.0886C63.0615 49.4047 62.7743 47.1575 63.4006 45.0724C64.4903 41.4417 68.249 38.4166 72.1641 39.2482C72.1942 39.2545 72.204 39.2721 72.1933 39.301L71.3249 41.6122C71.318 41.6302 71.3051 41.6452 71.2884 41.6546C71.2717 41.6641 71.2523 41.6674 71.2336 41.664C68.9987 41.2439 66.9389 42.651 65.9802 44.6222C65.2503 46.1206 65.271 47.9129 66.3814 49.2295Z" fill="#405164"/>
<path id="Vector_138" d="M28.0005 43.6015L25.0028 43.6128L24.998 41.2263C24.998 41.21 25.0045 41.1944 25.016 41.183C25.0275 41.1715 25.043 41.165 25.0593 41.165H27.9544C27.9851 41.165 28.0005 41.1804 28.0005 41.2112V43.6015Z" fill="#141B24"/>
<path id="Vector_139" d="M23.1991 45.8189L20.2051 45.8368L20.206 42.3672C20.206 42.332 20.2236 42.3145 20.2588 42.3145L23.152 42.3163C23.1645 42.3163 23.1765 42.3213 23.1853 42.3301C23.1941 42.339 23.1991 42.3509 23.1991 42.3634V45.8189Z" fill="#141B24"/>
<path id="Vector_140" d="M116.841 46.2587C115.879 46.7139 114.952 47.338 114.059 48.131C112.946 49.1206 112.027 49.9971 111.303 50.7606C111.26 50.8051 111.216 50.8312 111.17 50.8387C112.118 48.375 113.252 45.2124 115.505 43.714C116.115 43.3077 116.752 42.9206 117.416 42.5527C117.422 42.5492 117.429 42.5475 117.436 42.5479C117.444 42.5483 117.451 42.5507 117.456 42.5548C117.462 42.559 117.467 42.5647 117.469 42.5713C117.472 42.578 117.473 42.5852 117.472 42.5923L116.841 46.2587Z" fill="#5A6A8A"/>
<path id="Vector_141" d="M28.0017 43.6016L28.0026 62.0657C28.0026 62.0971 27.9869 62.1128 27.9555 62.1128H25.0632C25.0268 62.1128 25.0086 62.0942 25.0086 62.0572L25.0039 43.6129L28.0017 43.6016Z" fill="#708AA4"/>
<path id="Vector_142" d="M126.443 43.7549C127.753 44.8141 128.928 45.9945 129.967 47.2961C129.972 47.3028 129.979 47.3079 129.988 47.3108C129.996 47.3137 130.004 47.3143 130.013 47.3125C130.021 47.3108 130.029 47.3067 130.035 47.3009C130.042 47.295 130.046 47.2874 130.049 47.2791C130.133 46.9752 130.243 46.672 130.378 46.3693C130.697 45.6583 131.256 46.6453 131.394 46.9118C132.023 48.1318 132.398 49.4233 132.518 50.7864C132.531 50.927 132.572 51.057 132.641 51.1763C133.157 52.0547 133.631 52.9701 134.064 53.9226C134.07 53.9372 134.08 53.9503 134.092 53.9611C134.103 53.972 134.117 53.9803 134.132 53.9857C134.148 53.991 134.164 53.9933 134.18 53.9923C134.196 53.9914 134.211 53.9872 134.226 53.9801L134.577 53.8077L134.988 54.6309L134.73 55.3561C134.72 55.3862 134.72 55.4163 134.732 55.4465C135.164 56.5251 135.546 57.6424 135.878 58.7984C135.525 59.9285 134.989 60.9912 134.272 61.9864C133.755 62.7015 133.2 63.3526 132.608 63.9397C132.544 64.0031 132.527 63.9924 132.558 63.9077C133.063 62.5194 133.423 61.1077 133.219 59.6347C133.174 59.3069 133.031 58.6957 132.791 57.801C132.587 57.04 132.366 56.2844 132.126 55.5341C132.059 55.3221 131.899 54.9351 131.72 54.8164C131.504 54.6732 131.282 54.7046 131.056 54.9106C129.437 56.3854 129.223 58.6222 129.334 60.7281C129.353 61.0797 129.402 61.447 129.482 61.83C129.756 63.1514 130.04 64.4473 131.123 65.3731C131.145 65.3919 131.146 65.412 131.126 65.4334L128.839 67.8501C127.712 61.8357 126.594 55.8637 125.486 49.9341C125.452 49.7539 125.45 49.5734 125.481 49.3925C125.792 47.5322 126.112 45.6529 126.443 43.7549Z" fill="#000D14"/>
<path id="Vector_143" d="M51.3412 66.2852C50.8985 68.8495 50.4596 71.4146 50.0245 73.9807C49.8939 74.7499 49.8481 75.3062 49.887 75.6496C49.9862 76.5268 50.4022 77.2491 51.1349 77.8167C51.0614 77.9574 51.0388 78.114 51.0671 78.2867C51.0694 78.3007 51.0687 78.3151 51.0648 78.3289C51.061 78.3426 51.0543 78.3553 51.0451 78.3662C51.0358 78.377 51.0243 78.3857 51.0114 78.3917C50.9984 78.3976 50.9843 78.4007 50.9701 78.4006L44.2098 78.4044L45.4643 70.7061C45.4699 70.6734 45.463 70.6436 45.4436 70.6166C45.4065 70.5658 45.3993 70.5162 45.4219 70.4678L47.509 70.4687C47.5491 70.4687 47.5689 70.4487 47.5683 70.4085L47.5673 70.319C47.5673 70.2838 47.5498 70.2663 47.5146 70.2663H46.7028L47.3451 66.3267C47.3463 66.3192 47.3459 66.3115 47.3438 66.3041C47.3418 66.2968 47.3382 66.29 47.3333 66.2841C47.3284 66.2783 47.3222 66.2736 47.3153 66.2704C47.3084 66.2672 47.3009 66.2655 47.2933 66.2655L45.9926 66.2579C45.1576 65.2866 44.46 64.3922 43.8999 63.5747C43.7932 63.419 43.6984 63.2354 43.6155 63.0238C43.2981 62.2176 43.8321 61.7655 44.6091 62.129C45.3739 62.4879 46.0962 63.3543 46.5248 64.0692C46.5511 64.1125 46.5637 64.1087 46.5624 64.0579C46.531 62.9968 46.4014 62.0057 46.1735 61.0846C46.133 60.9179 46.0039 60.7926 45.8344 60.721C43.7047 59.8238 41.8562 58.5251 40.2891 56.8248C39.6844 56.1693 36.5953 52.4021 38.6984 51.8831C39.3021 51.7343 40.2391 52.0696 40.7863 52.3296C44.3492 54.0201 46.294 57.9719 46.9316 61.6629C46.9327 61.6691 46.9359 61.6749 46.9407 61.679C46.9456 61.6832 46.9517 61.6855 46.9581 61.6856C46.9644 61.6857 46.9707 61.6836 46.9756 61.6796C46.9806 61.6756 46.984 61.67 46.9853 61.6638C47.1303 61.0102 47.2744 60.3566 47.3592 59.6907C47.6279 57.5892 47.8194 55.4802 47.9337 53.3637C47.9419 53.2174 47.9168 53.0796 47.8584 52.9502C47.1285 51.3294 46.2601 49.7763 45.8118 48.0415C45.6545 47.4303 45.5142 45.8151 46.0002 45.3319C46.9269 44.409 47.9299 47.1864 48.0778 47.7025C48.4539 49.0191 48.6294 50.4183 48.6043 51.9001C48.5666 54.1802 48.3566 56.4283 48.1305 58.6924C48.1299 58.6972 48.131 58.7021 48.1335 58.7062C48.1361 58.7103 48.14 58.7134 48.1446 58.715C48.1493 58.7166 48.1544 58.7167 48.1592 58.7151C48.164 58.7136 48.1681 58.7106 48.171 58.7065C49.0215 57.4163 50.2223 56.1495 51.699 55.6278C51.9317 55.5458 52.2378 55.5411 52.4497 55.6852C52.9611 56.0337 52.5994 56.7495 52.2914 57.161C51.3522 58.4174 50.1802 59.4364 48.7757 60.2181C48.4573 60.3952 48.2671 60.5817 48.0637 60.9339C47.967 61.1022 47.8511 61.2563 47.7161 61.3963C47.6942 61.4196 47.6797 61.4466 47.6728 61.4773C47.5494 62.0462 47.4656 62.7902 47.1859 63.2988C47.1702 63.3264 47.1633 63.3562 47.1652 63.3882C47.2208 64.3197 47.2113 65.2926 47.3762 66.209C47.3818 66.2422 47.4016 66.2592 47.4355 66.2598L51.3412 66.2852Z" fill="#141B24"/>
<path id="Vector_144" d="M18.3992 47.878L15.4043 47.8902L15.4062 45.3906C15.4062 45.3802 15.4083 45.3698 15.4123 45.3601C15.4163 45.3505 15.4222 45.3417 15.4297 45.3344C15.4371 45.327 15.446 45.3212 15.4557 45.3173C15.4654 45.3134 15.4758 45.3114 15.4862 45.3115L18.3474 45.3153C18.3813 45.3153 18.3983 45.3323 18.3983 45.3662L18.3992 47.878Z" fill="#141B24"/>
<path id="Vector_145" d="M23.1991 45.8184L23.1981 62.0664C23.1981 62.0978 23.1824 62.1135 23.151 62.1135H20.2569C20.2223 62.1135 20.2051 62.0962 20.2051 62.0617V45.8363L23.1991 45.8184Z" fill="#708AA4"/>
<path id="Vector_146" d="M136.991 72.7134C136.102 72.9403 134.824 73.0063 134.091 72.4195C134.085 72.4145 134.078 72.4108 134.071 72.4085C134.063 72.4063 134.055 72.4055 134.048 72.4063C134.04 72.4071 134.032 72.4094 134.025 72.4131C134.018 72.4169 134.012 72.4219 134.007 72.428C132.839 73.8677 131.453 75.0924 129.85 76.102L130.029 75.373C130.555 75.0365 131.04 74.6692 131.483 74.2711C131.509 74.2485 131.508 74.2272 131.482 74.2071C130.977 73.8159 130.593 73.3312 130.331 72.7529C130.317 72.7221 130.293 72.7055 130.259 72.703L129.737 72.6616L128.838 67.8489L131.125 65.4323C131.145 65.4109 131.144 65.3908 131.122 65.372C130.039 64.4462 129.754 63.1503 129.48 61.8289C129.4 61.4459 129.351 61.0786 129.332 60.727C129.221 58.6211 129.435 56.3843 131.055 54.9095C131.281 54.7035 131.502 54.6721 131.719 54.8153C131.898 54.9339 132.058 55.321 132.125 55.5329C132.364 56.2832 132.586 57.0389 132.79 57.7999C133.03 58.6946 133.172 59.3058 133.217 59.6336C133.422 61.1065 133.062 62.5183 132.556 63.9065C132.525 63.9913 132.542 64.002 132.606 63.9386C133.199 63.3515 133.753 62.7004 134.27 61.9852C134.988 60.9901 135.523 59.9274 135.877 58.7972C136.142 58.0155 136.312 57.2338 136.386 56.4521C136.39 56.4207 136.379 56.3944 136.354 56.373C135.806 55.894 135.35 55.3129 134.986 54.6297L134.575 53.8066C133.823 52.095 133.592 50.321 133.881 48.4844C133.976 47.8811 134.128 47.1609 134.337 46.3239C134.366 46.209 134.335 45.9924 134.519 45.9406C134.58 45.923 134.698 45.9149 134.874 45.9161C134.903 45.9161 134.93 45.9258 134.953 45.9435C136.184 46.905 136.946 48.4929 137.154 49.9442C137.237 50.5225 137.281 51.2399 137.285 52.0963C137.291 53.0466 137.101 54.0825 137.122 55.0959C137.136 55.774 137.131 56.2327 137.108 56.4719C137.021 57.3842 136.824 58.2758 136.518 59.1466C136.516 59.1531 136.516 59.16 136.519 59.1664C136.521 59.1728 136.525 59.1783 136.531 59.182C136.536 59.1857 136.543 59.1875 136.55 59.1871C136.557 59.1867 136.563 59.184 136.568 59.1796C136.985 58.8022 137.439 58.478 137.932 58.2067C137.945 58.1997 137.956 58.1897 137.965 58.1776C137.973 58.1656 137.979 58.1517 137.981 58.137C138.121 57.2724 138.479 56.5212 139.056 55.8833C139.289 55.6252 139.445 55.3615 139.614 55.0827C139.976 54.4847 140.345 55.03 140.402 55.4322C140.481 55.9753 140.554 56.5196 140.622 57.0652C140.626 57.0973 140.643 57.1105 140.675 57.1048C141.605 56.9478 142.536 56.8179 143.468 56.7149C143.93 56.664 144.101 57.0106 143.938 57.4062C143.035 59.5987 141.18 61.9871 138.78 62.6153C138.754 62.6222 138.738 62.6385 138.733 62.6643C138.599 63.3669 138.411 64.055 138.17 64.7287C138.168 64.7352 138.167 64.7425 138.169 64.7492C138.171 64.756 138.176 64.7618 138.182 64.7656C138.188 64.7694 138.195 64.771 138.202 64.7701C138.209 64.7692 138.215 64.7659 138.22 64.7607C138.652 64.3376 139.125 63.975 139.638 63.673C140.126 63.3848 140.773 63.2416 141.33 62.9996C141.637 62.8658 141.769 63.2096 141.699 63.4488C141.351 64.6543 140.472 65.8212 139.308 66.4051C139.11 66.504 138.863 66.5247 138.633 66.5803C138.627 66.5817 138.622 66.5849 138.618 66.5895C138.614 66.5942 138.612 66.6 138.611 66.606C138.611 66.612 138.613 66.6179 138.617 66.6228C138.62 66.6277 138.625 66.6313 138.631 66.6331C138.985 66.7417 139.068 66.9476 138.879 67.2509C138.26 68.2461 137.463 69.2645 136.488 70.3061C136.457 70.3388 136.464 70.3507 136.508 70.3419C137.337 70.1699 138.171 70.0399 139.01 69.952C139.23 69.9284 139.396 70.0094 139.337 70.2571C139.031 71.5618 138.249 72.3806 136.991 72.7134ZM137.162 65.8655C137.633 64.8502 137.974 63.823 138.183 62.7839C138.191 62.7469 138.176 62.7308 138.139 62.7359C137.658 62.7968 137.198 62.8087 136.761 62.7717C136.123 62.6341 135.644 62.3108 135.322 61.8016C135.32 61.7978 135.317 61.7947 135.313 61.7925C135.309 61.7903 135.305 61.7891 135.301 61.789C135.296 61.7889 135.292 61.7899 135.288 61.792C135.285 61.794 135.281 61.797 135.279 61.8006C133.764 64.0101 131.796 65.743 129.95 67.6521C129.828 67.7783 129.849 67.8106 130.014 67.7491C131.297 67.2675 132.619 66.9417 133.98 66.7715C133.995 66.7696 134.008 66.7624 134.017 66.7514C134.026 66.7404 134.031 66.7264 134.03 66.7122C133.974 65.8727 134.035 65.043 134.214 64.223C134.283 63.904 134.426 63.6557 134.643 63.478C134.664 63.4609 134.689 63.4485 134.715 63.4413C134.741 63.4342 134.768 63.4325 134.795 63.4365C134.822 63.4405 134.848 63.45 134.871 63.4645C134.894 63.4789 134.913 63.4979 134.929 63.5204C135.555 64.4465 136.002 65.4508 136.27 66.5332C136.278 66.5646 136.298 66.58 136.33 66.5794L136.831 66.5643C136.859 66.5631 136.879 66.5496 136.889 66.5238L137.162 65.8655ZM132.164 73.6213C132.164 73.627 132.166 73.6326 132.169 73.6374C132.172 73.6422 132.177 73.6459 132.182 73.648C132.187 73.6502 132.193 73.6507 132.199 73.6494C132.204 73.6482 132.209 73.6452 132.213 73.641L133.475 72.3046C133.48 72.3002 133.482 72.2945 133.483 72.2884C133.484 72.2822 133.483 72.276 133.48 72.2707C133.476 72.2654 133.472 72.2612 133.466 72.2588C133.46 72.2564 133.454 72.256 133.448 72.2575L132.201 72.5542C132.195 72.5556 132.19 72.559 132.186 72.5637C132.182 72.5685 132.18 72.5744 132.179 72.5806L132.164 73.6213Z" fill="#2C3949"/>
<path id="Vector_147" d="M64.5098 51.0889L66.3811 49.2297C67.7213 50.5426 69.458 50.601 71.0572 49.7524C72.5157 48.9789 73.445 47.7298 73.8449 46.005C73.8531 45.9717 73.8745 45.9551 73.909 45.9551L76.1524 45.9588C76.1869 45.9588 76.201 45.9758 76.1948 46.0097C75.7531 48.4518 74.2057 50.5257 72.1017 51.7801C69.653 53.2409 66.5535 53.2362 64.5098 51.0889Z" fill="#495E6A"/>
<path id="Vector_148" d="M116.84 46.2578L114.091 62.2798L77.3376 62.2789C77.3012 62.2789 77.2861 62.261 77.2924 62.2252L79.127 51.5263C79.2758 51.525 79.6193 51.5131 80.1574 51.4905C83.1071 51.3681 84.6432 54.9997 87.5091 55.4009C88.903 55.5968 90.6547 54.7925 91.7501 53.9759C91.7692 53.9616 91.7911 53.9513 91.8143 53.9455C91.8375 53.9397 91.8616 53.9385 91.8853 53.9421C91.9089 53.9457 91.9316 53.954 91.9521 53.9664C91.9725 53.9788 91.9903 53.9952 92.0044 54.0145C93.1317 55.5694 95.3195 57.6056 97.3048 56.0036C98.3672 55.1466 99.1941 53.812 99.9155 53.036C101.175 51.6826 102.669 51.5479 103.652 53.294C103.8 53.5584 104.096 54.1366 104.54 55.0288C105.089 56.1298 105.92 57.3711 107.303 56.4849C108.094 55.9788 108.768 55.3199 109.325 54.508C110.021 53.4934 110.609 52.308 111.089 50.9518L111.168 50.8378C111.214 50.8303 111.258 50.8042 111.301 50.7596C112.026 49.9962 112.944 49.1196 114.058 48.1301C114.95 47.3371 115.877 46.713 116.84 46.2578Z" fill="#708AA4"/>
<path id="Vector_149" d="M111.09 50.9514C110.611 52.3076 110.023 53.4931 109.326 54.5077C108.769 55.3195 108.095 55.9785 107.304 56.4846C105.921 57.3708 105.09 56.1295 104.541 55.0285C104.097 54.1363 103.801 53.5581 103.653 53.2937C102.671 51.5476 101.176 51.6823 99.9167 53.0357C99.1953 53.8117 98.3683 55.1463 97.306 56.0033C95.3207 57.6053 93.1328 55.5691 92.0055 54.0142C91.9914 53.9949 91.9737 53.9785 91.9532 53.9661C91.9328 53.9536 91.9101 53.9454 91.8864 53.9418C91.8628 53.9382 91.8386 53.9393 91.8154 53.9451C91.7922 53.9509 91.7704 53.9613 91.7512 53.9756C90.6559 54.7921 88.9041 55.5964 87.5103 55.4005C84.6443 54.9993 83.1083 51.3677 80.1585 51.4902C79.6204 51.5128 79.277 51.5247 79.1282 51.526C79.1181 51.4858 79.1228 51.4453 79.1423 51.4045C79.195 51.4013 79.2183 51.385 79.212 51.3555C80.1042 50.0614 81.1738 48.9099 82.4207 47.9009C83.662 46.8979 85.2452 46.088 86.7888 46.8386C87.8823 47.3707 88.8467 48.7137 89.4702 49.8137C90.2305 51.1542 91.0084 52.4684 91.804 53.7561C91.8165 53.7767 91.8333 53.7944 91.8532 53.8081C91.873 53.8218 91.8955 53.8311 91.9192 53.8356C91.9429 53.84 91.9673 53.8394 91.9907 53.8338C92.0142 53.8283 92.0362 53.8179 92.0554 53.8032C94.4824 51.9507 96.8191 49.9531 100.076 50.0614C100.687 50.0815 101.186 50.1399 101.574 50.2366C103.253 50.6557 104.434 52.2078 105.535 53.1967C105.755 53.3939 106.024 53.5716 106.344 53.7298C107.241 54.1743 107.936 53.7712 108.67 53.2174C109.173 52.8382 109.98 52.0829 111.09 50.9514Z" fill="#5A6A8A"/>
<path id="Vector_150" d="M8.80434 49.8469L5.80657 49.8432L5.80469 47.6252C5.80469 47.5938 5.82007 47.5781 5.85084 47.5781L8.74312 47.581C8.75153 47.581 8.75986 47.5826 8.76763 47.5858C8.7754 47.589 8.78246 47.5938 8.78841 47.5997C8.79436 47.6057 8.79907 47.6127 8.80229 47.6205C8.80551 47.6283 8.80717 47.6366 8.80717 47.645L8.80434 49.8469Z" fill="#141B24"/>
<path id="Vector_151" d="M18.3992 47.877L18.3983 62.0606C18.3983 62.0963 18.3804 62.1142 18.3446 62.1142L15.4552 62.1077C15.4225 62.1077 15.4062 62.0913 15.4062 62.0587L15.4043 47.8892L18.3992 47.877Z" fill="#708AA4"/>
<path id="Vector_152" d="M13.6022 49.7772L10.6016 49.7904L10.61 48.7262C10.61 48.686 10.6304 48.6656 10.6713 48.6649L13.5485 48.6621C13.5555 48.662 13.5624 48.6633 13.5689 48.6659C13.5754 48.6686 13.5814 48.6725 13.5864 48.6775C13.5914 48.6825 13.5953 48.6885 13.598 48.695C13.6008 48.7016 13.6022 48.7087 13.6022 48.7158V49.7772Z" fill="#141B24"/>
<path id="Vector_153" d="M3.42421 48.9805L3.93844 48.9927C3.97799 48.994 3.99808 49.0147 3.99871 49.0549L4.00342 51.221C3.98521 51.2229 3.96952 51.2257 3.95633 51.2295C3.93523 51.2358 3.91519 51.2416 3.8997 51.2459C3.88421 51.2502 3.87426 51.2527 3.87157 51.253L1 51.2822V49.0878C1 49.0604 1.01082 49.034 1.03007 49.0146C1.04932 48.9952 1.07543 48.9842 1.10266 48.9842L3.42421 48.9805Z" fill="#141B24"/>
<path id="Vector_154" d="M13.6022 49.7773L13.5956 62.0425C13.5956 62.0521 13.5937 62.0616 13.59 62.0705C13.5863 62.0793 13.5808 62.0874 13.574 62.0941C13.5672 62.1008 13.5591 62.1062 13.5501 62.1098C13.5412 62.1133 13.5317 62.1151 13.5221 62.115L10.6778 62.1065C10.6591 62.1065 10.6411 62.0991 10.6279 62.0858C10.6147 62.0726 10.6072 62.0546 10.6072 62.0359L10.6016 49.7905L13.6022 49.7773Z" fill="#708AA4"/>
<path id="Vector_155" d="M8.8034 49.8475L8.79775 62.058C8.79775 62.0957 8.77891 62.1145 8.74124 62.1145H5.84989C5.81976 62.1145 5.80469 62.0995 5.80469 62.0693L5.80563 49.8438L8.8034 49.8475Z" fill="#708AA4"/>
<path id="Vector_156" d="M4.00342 51.2207L3.99683 62.0552C3.99683 62.0948 3.97705 62.1146 3.93749 62.1146L1.52459 62.108L1.06593 62.1052C1.02637 62.1052 1.00659 62.0854 1.00659 62.0458L1 51.2819L3.87157 51.2527C3.87426 51.2524 3.88421 51.2498 3.8997 51.2455C3.91519 51.2412 3.93523 51.2354 3.95633 51.2292C3.96952 51.2254 3.98521 51.2226 4.00342 51.2207Z" fill="#708AA4"/>
<path id="Vector_157" d="M125.358 78.4081L117.199 78.41C117.77 78.2719 118.148 78.1598 118.333 78.0738C119.741 77.4202 120.651 76.3952 121.061 74.9988C121.113 74.8192 121.23 74.2033 121.41 73.151C122.511 66.7379 123.612 60.3233 124.712 53.907C124.713 53.9033 124.715 53.9 124.718 53.8975C124.721 53.8951 124.724 53.8937 124.728 53.8936C124.732 53.8935 124.736 53.8946 124.739 53.8969C124.742 53.8992 124.744 53.9024 124.745 53.9061C125.979 60.495 127.213 67.0895 128.447 73.6897C128.561 74.2993 128.604 74.7665 128.576 75.0911C128.49 76.0687 128.044 76.8808 127.239 77.5275C126.688 77.9689 126.096 78.222 125.463 78.2866C125.377 78.2954 125.342 78.3359 125.358 78.4081Z" fill="#7B8F9F"/>
<path id="Vector_158" d="M134.987 54.6309C135.351 55.314 135.807 55.8951 136.356 56.3741C136.38 56.3955 136.391 56.4219 136.388 56.4533C136.313 57.235 136.143 58.0167 135.878 58.7984C135.546 57.6424 135.163 56.5251 134.732 55.4465C134.72 55.4163 134.72 55.3862 134.73 55.3561L134.987 54.6309Z" fill="#00000F"/>
<path id="Vector_159" d="M60.6543 56.0263L75.2655 56.0244C75.272 56.0243 75.2785 56.0257 75.2844 56.0283C75.2903 56.031 75.2956 56.035 75.2998 56.0399C75.304 56.0449 75.3071 56.0507 75.3089 56.057C75.3106 56.0632 75.3109 56.0698 75.3098 56.0762L74.6496 59.9329C74.6478 59.9433 74.6423 59.9527 74.6342 59.9594C74.6261 59.9662 74.6159 59.9698 74.6053 59.9696H59.9941C59.9876 59.9697 59.9812 59.9684 59.9753 59.9657C59.9693 59.963 59.9641 59.9591 59.9598 59.9541C59.9556 59.9492 59.9525 59.9434 59.9508 59.9371C59.9491 59.9308 59.9488 59.9243 59.9499 59.9178L60.6101 56.063C60.6119 56.0526 60.6173 56.0432 60.6254 56.0365C60.6335 56.0298 60.6438 56.0262 60.6543 56.0263ZM61.0094 56.4972C61.0018 56.4971 60.9944 56.4997 60.9885 56.5045C60.9827 56.5093 60.9787 56.5161 60.9774 56.5236L60.4745 59.4639C60.4736 59.4685 60.4738 59.4732 60.475 59.4777C60.4762 59.4822 60.4783 59.4863 60.4813 59.4899C60.4842 59.4935 60.4879 59.4964 60.4921 59.4984C60.4963 59.5004 60.5009 59.5015 60.5055 59.5016H74.2502C74.2578 59.5017 74.2652 59.4991 74.2711 59.4943C74.277 59.4894 74.2809 59.4827 74.2823 59.4752L74.7861 56.5358C74.787 56.5312 74.7868 56.5266 74.7856 56.5221C74.7844 56.5176 74.7823 56.5134 74.7793 56.5098C74.7764 56.5062 74.7727 56.5033 74.7685 56.5013C74.7643 56.4993 74.7597 56.4982 74.7551 56.4982L61.0094 56.4972Z" fill="#405164"/>
<path id="Vector_160" d="M61.0081 56.4981L74.7538 56.499C74.7584 56.4991 74.763 56.5001 74.7672 56.5021C74.7714 56.5042 74.7751 56.507 74.778 56.5106C74.781 56.5142 74.7831 56.5184 74.7843 56.5229C74.7855 56.5274 74.7857 56.5321 74.7848 56.5367L74.281 59.476C74.2796 59.4835 74.2757 59.4903 74.2698 59.4951C74.2639 59.4999 74.2566 59.5025 74.249 59.5024H60.5042C60.4996 59.5024 60.495 59.5013 60.4908 59.4993C60.4866 59.4973 60.4829 59.4944 60.48 59.4908C60.477 59.4872 60.4749 59.483 60.4737 59.4785C60.4725 59.474 60.4723 59.4693 60.4732 59.4647L60.9761 56.5244C60.9774 56.5169 60.9814 56.5102 60.9872 56.5054C60.9931 56.5005 61.0005 56.4979 61.0081 56.4981Z" fill="#29343E"/>
<path id="Vector_161" d="M73.7093 65.2463H59.0783C59.0729 65.2463 59.0675 65.245 59.0625 65.2427C59.0576 65.2403 59.0532 65.2369 59.0497 65.2327C59.0462 65.2285 59.0437 65.2236 59.0423 65.2183C59.0409 65.213 59.0406 65.2075 59.0416 65.2021L59.7037 61.3407C59.7053 61.3318 59.7099 61.3239 59.7168 61.3182C59.7237 61.3125 59.7324 61.3094 59.7414 61.3096H74.3723C74.3778 61.3096 74.3832 61.3109 74.3881 61.3132C74.3931 61.3156 74.3975 61.319 74.4009 61.3232C74.4044 61.3274 74.407 61.3323 74.4084 61.3376C74.4098 61.3429 74.41 61.3485 74.409 61.3538L73.747 65.2152C73.7454 65.2241 73.7407 65.232 73.7338 65.2377C73.7269 65.2434 73.7182 65.2465 73.7093 65.2463ZM60.1058 61.7767C60.0982 61.7766 60.0908 61.7792 60.085 61.784C60.0791 61.7888 60.0752 61.7956 60.0738 61.8031L59.5728 64.7387C59.572 64.7433 59.5721 64.748 59.5733 64.7525C59.5745 64.757 59.5766 64.7611 59.5796 64.7647C59.5826 64.7683 59.5863 64.7712 59.5904 64.7732C59.5946 64.7752 59.5992 64.7763 59.6039 64.7764H73.3429C73.3505 64.7765 73.3579 64.7739 73.3638 64.7691C73.3696 64.7642 73.3736 64.7575 73.3749 64.75L73.8788 61.8144C73.8796 61.8098 73.8794 61.8051 73.8783 61.8006C73.8771 61.7961 73.875 61.7919 73.872 61.7884C73.869 61.7848 73.8653 61.7819 73.8611 61.7799C73.857 61.7779 73.8524 61.7768 73.8477 61.7767H60.1058Z" fill="#495E6A"/>
<path id="Vector_162" d="M60.1058 61.7773H73.8477C73.8524 61.7774 73.8569 61.7785 73.8611 61.7805C73.8653 61.7825 73.869 61.7854 73.872 61.789C73.8749 61.7926 73.8771 61.7968 73.8783 61.8013C73.8794 61.8058 73.8796 61.8104 73.8788 61.815L73.3749 64.7506C73.3736 64.7581 73.3696 64.7649 73.3638 64.7697C73.3579 64.7745 73.3505 64.7771 73.3429 64.777H59.6039C59.5992 64.7769 59.5946 64.7759 59.5904 64.7739C59.5862 64.7718 59.5825 64.7689 59.5796 64.7654C59.5766 64.7618 59.5745 64.7576 59.5733 64.7531C59.5721 64.7486 59.5719 64.7439 59.5728 64.7393L60.0738 61.8037C60.0752 61.7962 60.0791 61.7895 60.085 61.7846C60.0908 61.7798 60.0982 61.7772 60.1058 61.7773Z" fill="#29343E"/>
<path id="Vector_163" d="M136.762 62.7717L137.163 65.8655L136.89 66.5239C136.88 66.5496 136.86 66.5631 136.832 66.5644L136.331 66.5794C136.299 66.5801 136.279 66.5647 136.271 66.5333C136.003 65.4508 135.556 64.4466 134.93 63.5205C134.914 63.498 134.895 63.479 134.872 63.4645C134.849 63.4501 134.823 63.4406 134.796 63.4366C134.769 63.4326 134.742 63.4342 134.716 63.4414C134.69 63.4485 134.665 63.461 134.644 63.4781C134.427 63.6558 134.284 63.9041 134.215 64.223C134.036 65.043 133.975 65.8728 134.031 66.7122C134.032 66.7265 134.027 66.7405 134.018 66.7515C134.009 66.7625 133.996 66.7697 133.981 66.7716C132.62 66.9417 131.298 67.2676 130.015 67.7492C129.85 67.8107 129.829 67.7784 129.951 67.6522C131.797 65.7431 133.765 64.0102 135.28 61.8007C135.282 61.7971 135.286 61.7941 135.289 61.792C135.293 61.79 135.298 61.789 135.302 61.7891C135.306 61.7892 135.31 61.7904 135.314 61.7926C135.318 61.7948 135.321 61.7979 135.323 61.8017C135.645 62.3109 136.124 62.6342 136.762 62.7717Z" fill="#000D14"/>
<path id="Vector_164" d="M137.162 65.8668L136.762 62.773C137.199 62.8101 137.658 62.7981 138.14 62.7372C138.177 62.7322 138.191 62.7482 138.184 62.7853C137.974 63.8244 137.634 64.8516 137.162 65.8668Z" fill="#00000F"/>
<path id="Vector_165" d="M77.1753 65.8512C77.2968 65.2296 77.9042 64.6626 78.4477 64.4997C78.6423 64.4413 79.1214 64.4124 79.8849 64.413C84.1029 64.4149 88.3209 64.4143 92.539 64.4111C93.256 64.4111 93.688 64.7125 93.8349 65.3153C93.8908 65.5451 93.8823 65.8791 93.8095 66.3173C93.7241 66.8303 93.6349 67.3427 93.542 67.8544C93.4629 68.2926 93.3583 68.6163 93.2284 68.8254C92.8328 69.463 92.2564 69.7257 91.4926 69.7257C87.0793 69.7251 82.6663 69.7261 78.2537 69.7286C77.9334 69.7286 77.6829 69.6878 77.5021 69.6061C76.9044 69.338 76.6705 68.8112 76.8004 68.0258C76.9825 66.9207 77.1075 66.1959 77.1753 65.8512Z" fill="#405164"/>
<path id="Vector_166" d="M96.0287 65.8858C96.1361 65.3038 96.6607 64.749 97.1636 64.5494C97.4053 64.4533 97.8295 64.4056 98.436 64.4062C102.742 64.41 107.048 64.4097 111.353 64.4053C112.114 64.4046 112.566 64.7189 112.706 65.348C112.758 65.5784 112.744 65.9216 112.666 66.3774C112.533 67.1459 112.451 68.2309 112.099 68.8233C111.874 69.2013 111.553 69.4634 111.137 69.6097C110.902 69.6932 110.507 69.7346 109.954 69.734C105.652 69.7309 101.351 69.7299 97.0496 69.7312C96.3631 69.7312 95.8074 69.4637 95.6558 68.7696C95.6106 68.5643 95.6269 68.2281 95.7047 67.7609C95.8435 66.9265 95.9515 66.3014 96.0287 65.8858Z" fill="#495E6A"/>
<path id="Vector_167" d="M45.9926 66.2578L47.2932 66.2653C47.3008 66.2654 47.3084 66.2671 47.3153 66.2703C47.3222 66.2735 47.3283 66.2782 47.3332 66.284C47.3381 66.2898 47.3417 66.2967 47.3438 66.304C47.3458 66.3113 47.3462 66.319 47.345 66.3266L46.7027 70.2661L40.7646 70.2765C40.7357 70.2771 40.7163 70.2909 40.7062 70.3179L40.694 70.3509L39.5713 70.3575C39.5412 70.3575 39.5236 70.3424 39.5186 70.3123L38.8659 66.288C38.8628 66.2697 38.8703 66.2606 38.8885 66.2606L45.9926 66.2578Z" fill="#26303E"/>
<path id="Vector_168" d="M58.8379 66.5889L73.4566 66.5898C73.4625 66.5899 73.4682 66.5912 73.4735 66.5937C73.4788 66.5962 73.4835 66.5998 73.4872 66.6043C73.491 66.6087 73.4937 66.614 73.4953 66.6196C73.4968 66.6252 73.4971 66.6311 73.4962 66.6369L72.835 70.4908C72.8335 70.5002 72.8287 70.5087 72.8214 70.5149C72.8142 70.5211 72.805 70.5246 72.7955 70.5247H58.1749C58.169 70.5246 58.1633 70.5233 58.158 70.5208C58.1527 70.5183 58.148 70.5147 58.1443 70.5102C58.1405 70.5058 58.1377 70.5005 58.1362 70.4949C58.1347 70.4893 58.1344 70.4833 58.1353 70.4776L58.7983 66.6228C58.7999 66.6134 58.8047 66.6048 58.8119 66.5986C58.8192 66.5924 58.8284 66.589 58.8379 66.5889ZM59.2061 67.0645C59.1953 67.0646 59.1848 67.0685 59.1765 67.0755C59.1682 67.0826 59.1627 67.0924 59.1609 67.1031L58.6637 70.0076C58.6626 70.0142 58.6629 70.0209 58.6647 70.0274C58.6665 70.0338 58.6696 70.0398 58.6739 70.0449C58.6782 70.05 58.6835 70.0541 58.6896 70.0569C58.6956 70.0598 58.7022 70.0613 58.7089 70.0613L72.4234 70.0651C72.4343 70.065 72.4448 70.0611 72.4531 70.054C72.4614 70.047 72.4669 70.0372 72.4687 70.0265L72.9706 67.1191C72.9717 67.1125 72.9714 67.1058 72.9696 67.0993C72.9678 67.0929 72.9647 67.0869 72.9604 67.0818C72.9561 67.0767 72.9508 67.0726 72.9447 67.0698C72.9387 67.067 72.9321 67.0655 72.9254 67.0654L59.2061 67.0645Z" fill="#405164"/>
<path id="Vector_169" d="M59.2072 67.0645L72.9265 67.0654C72.9331 67.0654 72.9397 67.0669 72.9457 67.0698C72.9518 67.0726 72.9571 67.0767 72.9614 67.0818C72.9657 67.0869 72.9689 67.0929 72.9706 67.0993C72.9724 67.1058 72.9727 67.1125 72.9717 67.1191L72.4697 70.0264C72.4679 70.0372 72.4624 70.0469 72.4541 70.054C72.4458 70.0611 72.4353 70.065 72.4245 70.065L58.7099 70.0613C58.7032 70.0612 58.6966 70.0597 58.6906 70.0569C58.6846 70.0541 58.6792 70.05 58.6749 70.0449C58.6706 70.0398 58.6675 70.0338 58.6657 70.0273C58.6639 70.0209 58.6636 70.0142 58.6647 70.0076L59.162 67.1031C59.1637 67.0923 59.1692 67.0826 59.1775 67.0755C59.1858 67.0684 59.1963 67.0645 59.2072 67.0645Z" fill="#29343E"/>
<path id="Vector_170" d="M46.704 70.2666H47.5159C47.551 70.2666 47.5686 70.2842 47.5686 70.3193L47.5696 70.4088C47.5702 70.449 47.5504 70.4691 47.5102 70.4691L45.4232 70.4681L40.7226 70.4729L40.6953 70.3514L40.7076 70.3184C40.7176 70.2914 40.7371 70.2776 40.7659 70.277L46.704 70.2666Z" fill="#7B8F9F"/>
<path id="Vector_171" d="M40.7227 70.4725L45.4232 70.4678C45.4006 70.5161 45.4078 70.5657 45.4449 70.6166C45.4643 70.6436 45.4712 70.6734 45.4656 70.706L44.2111 78.4044C43.4464 78.4063 42.7296 78.4056 42.061 78.4025C42.0484 78.4025 42.0368 78.3997 42.0261 78.394C41.9903 78.3758 41.9825 78.3658 42.0026 78.3639L40.7227 70.4725Z" fill="#26303E"/>
<path id="Vector_172" d="M132.166 73.6225L132.181 72.5818C132.181 72.5756 132.184 72.5697 132.187 72.5649C132.191 72.5602 132.197 72.5568 132.203 72.5554L133.45 72.2587C133.456 72.2572 133.462 72.2576 133.468 72.26C133.473 72.2624 133.478 72.2666 133.481 72.2719C133.484 72.2772 133.486 72.2834 133.485 72.2896C133.484 72.2957 133.481 72.3014 133.477 72.3058L132.215 73.6422C132.211 73.6464 132.206 73.6494 132.2 73.6506C132.195 73.6519 132.189 73.6514 132.184 73.6492C132.178 73.6471 132.174 73.6434 132.171 73.6386C132.168 73.6338 132.166 73.6282 132.166 73.6225Z" fill="#000D14"/>
<path id="Vector_173" d="M136.992 72.7146C136.768 74.634 136.374 76.4937 135.809 78.2939C135.8 78.3226 135.782 78.3476 135.758 78.3654C135.733 78.3832 135.704 78.3928 135.673 78.3927C133.217 78.3877 130.748 78.3883 128.265 78.3946C127.853 78.3956 127.466 78.3522 127.062 78.3089C128.381 78.0132 129.311 77.278 129.851 76.1032C131.454 75.0936 132.84 73.8689 134.008 72.4292C134.013 72.4231 134.019 72.4181 134.026 72.4144C134.033 72.4106 134.041 72.4083 134.048 72.4075C134.056 72.4067 134.064 72.4075 134.072 72.4098C134.079 72.412 134.086 72.4158 134.092 72.4207C134.825 73.0075 136.103 72.9416 136.992 72.7146Z" fill="#000D14"/>
<path id="Vector_174" d="M129.738 72.6621L130.26 72.7035C130.294 72.7061 130.318 72.7227 130.332 72.7535C130.594 73.3317 130.978 73.8164 131.483 74.2076C131.509 74.2277 131.51 74.249 131.484 74.2717C131.04 74.6697 130.556 75.037 130.03 75.3736C130.138 74.4374 129.936 73.7047 129.738 72.6621Z" fill="#000D14"/>
</g>
<defs>
<linearGradient id="paint0_linear_0_4344" x1="57.43" y1="1" x2="57.43" y2="78.3895" gradientUnits="userSpaceOnUse">
<stop stop-color="#292D32"/>
<stop offset="1" stop-color="#798BA3" stop-opacity="0"/>
</linearGradient>
</defs>
</svg>
