<svg width="14" height="12" viewBox="0 0 14 12" fill="none" xmlns="http://www.w3.org/2000/svg">
<g id="Group 59766">
<g id="Group">
<path id="Vector" d="M6.61261 0C2.95783 0 0 2.6835 0 6C0 9.31615 2.95749 12 6.61261 12C10.2674 12 13.2252 9.3165 13.2252 6C13.2252 2.68385 10.2677 0 6.61261 0ZM6.61261 11.1628C3.47519 11.1628 0.922692 8.84679 0.922692 6C0.922692 3.15321 3.47519 0.837211 6.61261 0.837211C9.75004 0.837211 12.3025 3.15321 12.3025 6C12.3025 8.84679 9.75004 11.1628 6.61261 11.1628Z" fill="#85744C"/>
</g>
<g id="Group_2">
<g id="Group_3">
<path id="Vector_2" d="M6.61163 5.00195C6.21994 5.00195 5.94141 5.15205 5.94141 5.37318V8.38223C5.94141 8.57179 6.21994 8.7613 6.61163 8.7613C6.98592 8.7613 7.29053 8.57179 7.29053 8.38223V5.37313C7.29053 5.15202 6.98592 5.00195 6.61163 5.00195Z" fill="#85744C"/>
</g>
</g>
<g id="Group_4">
<g id="Group_5">
<path id="Vector_3" d="M6.61216 3.14648C6.21176 3.14648 5.89844 3.40711 5.89844 3.70723C5.89844 4.00737 6.21179 4.27589 6.61216 4.27589C7.00385 4.27589 7.31723 4.00737 7.31723 3.70723C7.31723 3.40711 7.00383 3.14648 6.61216 3.14648Z" fill="#85744C"/>
</g>
</g>
</g>
</svg>
