<svg width="20" height="20" viewBox="0 0 20 20" fill="none" xmlns="http://www.w3.org/2000/svg">
<g id="Group 64512">
<path id="Path 20" d="M11.7021 0.465909C15.5254 2.92792 18.0521 4.63522 19.2823 5.58781C20.3398 6.40666 19.9168 14.4887 19.9085 16.1018C19.8961 18.4274 19.1455 19.5983 16.7362 19.5983C12.1997 19.5956 7.66313 19.597 3.12657 19.6024C1.60057 19.6024 0.750481 18.2145 0.746334 16.7283C0.740805 13.3846 0.740805 10.0424 0.746334 6.70145C0.746334 6.27292 1.06011 5.83756 1.68765 5.39538C5.39209 2.78598 7.95064 1.07459 9.3633 0.261197C10.0793 -0.145499 10.8589 -0.0772613 11.7021 0.465909ZM18.0217 6.82018L10.9515 2.13636C10.7885 2.02863 10.5977 1.9691 10.4015 1.96474C10.2054 1.96039 10.0121 2.01141 9.84432 2.1118C7.89811 3.26638 5.93393 4.5274 3.95178 5.89488C2.9607 6.57862 2.40089 6.8079 2.3926 7.92972C2.38154 10.924 2.39122 13.9182 2.42162 16.9125C2.42992 17.6822 2.91924 18.063 3.69883 18.063C8.24644 18.0657 12.6987 18.0644 17.0555 18.0589C17.1996 18.0592 17.3423 18.0314 17.4754 17.9772C17.6086 17.9231 17.7297 17.8435 17.8317 17.7432C17.9338 17.6428 18.0148 17.5236 18.0701 17.3923C18.1255 17.261 18.1542 17.1202 18.1544 16.978C18.16 13.7026 18.1613 10.4231 18.1586 7.13953C18.1653 7.0792 18.1562 7.01817 18.1323 6.96226C18.1083 6.90636 18.0703 6.85744 18.0217 6.82018Z" fill="#0C15F9"/>
<path id="Path 30" d="M8.58143 9.02483L7.95942 8.52942C7.92222 8.50008 7.89186 8.46317 7.87039 8.4212C7.84893 8.37924 7.83686 8.3332 7.83502 8.28622C7.83332 8.23961 7.84207 8.19321 7.86064 8.15032C7.8792 8.10743 7.90713 8.06912 7.94242 8.03811L8.69713 7.37075C8.72223 7.34248 8.75316 7.31983 8.78784 7.30431C8.82253 7.28879 8.86017 7.28076 8.89825 7.28076C8.93633 7.28076 8.97397 7.28879 9.00865 7.30431C9.04333 7.31983 9.07426 7.34248 9.09936 7.37075L11.3967 9.44244C11.5223 9.55628 11.6104 9.70486 11.6493 9.86881C11.6882 10.0328 11.6762 10.2045 11.6148 10.3616C11.5535 10.5185 11.4453 10.6533 11.3046 10.748C11.1638 10.8427 10.9972 10.8928 10.8269 10.8918L1.32461 10.8877C1.26074 10.8878 1.19821 10.8697 1.14451 10.8356C1.09081 10.8014 1.04824 10.7527 1.02189 10.6953C0.933571 10.5233 0.885483 10.334 0.881177 10.1413C0.87687 9.94851 0.916456 9.75727 0.997013 9.58165C1.02519 9.51319 1.07428 9.4551 1.13746 9.41547C1.20063 9.37585 1.27475 9.35665 1.34949 9.36056H8.46118C8.50088 9.36087 8.53969 9.34894 8.5722 9.32644C8.60471 9.30394 8.62929 9.27198 8.64253 9.23502C8.65577 9.19806 8.657 9.15795 8.64605 9.12027C8.63509 9.08259 8.61251 9.04923 8.58143 9.02483Z" fill="#0C15F9"/>
<path id="Path 33" d="M3.97897 13.4862L4.34389 13.8506C4.37346 13.8715 4.39741 13.8992 4.41367 13.9313C4.42993 13.9635 4.438 13.999 4.43718 14.0349C4.43636 14.0708 4.42668 14.106 4.40898 14.1374C4.39128 14.1687 4.36609 14.1954 4.3356 14.215L3.68041 14.8045C3.61275 14.8644 3.52531 14.8978 3.43446 14.8986C3.34361 14.8993 3.25561 14.8674 3.18694 14.8086C2.46264 14.1918 1.76184 13.5517 1.08454 12.8884C0.989047 12.7952 0.925282 12.6751 0.90208 12.5445C0.727916 11.6028 1.42042 11.4022 2.2166 11.4104C5.17462 11.4377 8.09118 11.4814 10.9663 11.5414C11.038 11.543 11.1086 11.5586 11.1742 11.5873C11.2398 11.616 11.2989 11.6572 11.3483 11.7086C11.3976 11.76 11.4362 11.8205 11.4617 11.8867C11.4872 11.9528 11.4993 12.0234 11.497 12.0941C11.4805 12.7301 11.2607 13.0536 10.8377 13.0645C8.69522 13.1218 6.45459 13.1532 4.11582 13.1586C3.80066 13.1586 3.75505 13.2678 3.97897 13.4862Z" fill="#0C15F9"/>
</g>
</svg>
