<svg width="13" height="14" viewBox="0 0 13 14" fill="none" xmlns="http://www.w3.org/2000/svg">
<path d="M7.4332 0.412438C9.9983 2.06423 11.6935 3.20968 12.5189 3.84879C13.2283 4.39816 12.9446 9.82051 12.939 10.9028C12.9306 12.463 12.4271 13.2486 10.8107 13.2486C7.76705 13.2468 4.72342 13.2477 1.67979 13.2514C0.655975 13.2514 0.0856423 12.3202 0.0828602 11.323C0.0791508 9.07976 0.0791508 6.83739 0.0828602 4.59594C0.0828602 4.30843 0.293373 4.01635 0.714399 3.71968C3.19975 1.969 4.91632 0.820807 5.86409 0.275093C6.34447 0.00223662 6.8675 0.048018 7.4332 0.412438ZM11.6731 4.6756L6.92964 1.53317C6.82025 1.46089 6.69224 1.42094 6.56066 1.41802C6.42907 1.4151 6.29938 1.44933 6.18681 1.51668C4.88107 2.2913 3.56328 3.13734 2.23343 4.0548C1.56851 4.51353 1.19292 4.66736 1.18736 5.42C1.17994 7.42889 1.18643 9.43777 1.20683 11.4467C1.2124 11.9631 1.54069 12.2185 2.06372 12.2185C5.11477 12.2204 8.10183 12.2194 11.0249 12.2158C11.1215 12.216 11.2173 12.1974 11.3066 12.161C11.396 12.1247 11.4772 12.0713 11.5456 12.004C11.6141 11.9366 11.6685 11.8566 11.7056 11.7685C11.7428 11.6805 11.762 11.586 11.7622 11.4906C11.7659 9.2931 11.7668 7.09285 11.7649 4.88985C11.7694 4.84937 11.7634 4.80843 11.7473 4.77092C11.7312 4.73341 11.7057 4.7006 11.6731 4.6756Z" fill="white"/>
<path d="M8.02286 6.15595L7.60554 5.82358C7.58058 5.80389 7.56021 5.77913 7.54581 5.75097C7.53141 5.72282 7.52331 5.69193 7.52208 5.66042C7.52094 5.62915 7.52681 5.59801 7.53926 5.56924C7.55172 5.54046 7.57045 5.51476 7.59413 5.49396L8.10048 5.04621C8.11732 5.02725 8.13807 5.01205 8.16134 5.00164C8.18461 4.99123 8.20986 4.98584 8.23541 4.98584C8.26096 4.98584 8.28621 4.99123 8.30948 5.00164C8.33275 5.01205 8.3535 5.02725 8.37034 5.04621L9.91163 6.43614C9.99595 6.51251 10.055 6.6122 10.0811 6.7222C10.1072 6.83219 10.0991 6.9474 10.058 7.05281C10.0169 7.15808 9.94425 7.24849 9.84983 7.31203C9.75541 7.37557 9.64364 7.40923 9.52937 7.40853L3.15416 7.40579C3.11131 7.40585 3.06936 7.3937 3.03333 7.3708C2.99731 7.3479 2.96874 7.31522 2.95107 7.27668C2.89181 7.16132 2.85955 7.0343 2.85666 6.90498C2.85377 6.77566 2.88033 6.64736 2.93437 6.52953C2.95328 6.4836 2.98622 6.44463 3.0286 6.41804C3.07099 6.39146 3.12071 6.37858 3.17085 6.3812H7.94217C7.96881 6.38141 7.99485 6.37341 8.01666 6.35831C8.03847 6.34321 8.05497 6.32177 8.06385 6.29698C8.07273 6.27218 8.07355 6.24527 8.06621 6.21999C8.05886 6.19471 8.0437 6.17233 8.02286 6.15595Z" fill="white"/>
<path d="M4.93503 9.1471L5.17986 9.39157C5.1997 9.4056 5.21577 9.4242 5.22668 9.44576C5.23758 9.46731 5.243 9.49117 5.24245 9.51526C5.2419 9.53935 5.23541 9.56294 5.22353 9.58399C5.21165 9.60504 5.19475 9.62291 5.17429 9.63604L4.73472 10.0316C4.68933 10.0718 4.63066 10.0942 4.56971 10.0947C4.50876 10.0952 4.44972 10.0737 4.40365 10.0343C3.91771 9.62048 3.44753 9.19105 2.99312 8.74606C2.92905 8.68355 2.88627 8.60291 2.87071 8.51532C2.75386 7.88354 3.21847 7.74894 3.75264 7.75443C5.73721 7.77274 7.69396 7.80204 9.62289 7.84233C9.671 7.8434 9.71841 7.85386 9.7624 7.87311C9.80639 7.89236 9.84609 7.92002 9.87919 7.9545C9.9123 7.98897 9.93816 8.02958 9.95529 8.07397C9.97242 8.11837 9.98048 8.16567 9.979 8.21316C9.96787 8.63984 9.82042 8.85685 9.53665 8.86417C8.09922 8.90263 6.59595 8.92369 5.02684 8.92735C4.8154 8.92735 4.7848 9.0006 4.93503 9.1471Z" fill="white"/>
</svg>
