<svg width="22" height="25" viewBox="0 0 22 25" fill="none" xmlns="http://www.w3.org/2000/svg">
<g id="Group 64239">
<path id="Vector" d="M10.9878 0.988551C8.65059 1.70084 6.31365 2.41407 3.97698 3.12825C3.8504 3.16684 3.76087 3.18613 3.70839 3.18613C3.2664 3.18639 3.05982 2.61037 3.40739 2.33458C3.46227 2.29101 3.56826 2.24522 3.72537 2.1972C6.10321 1.4717 8.48113 0.746462 10.8591 0.0214819C10.9531 -0.00716062 11.0471 -0.00716062 11.1411 0.0214819C13.5977 0.770131 16.0541 1.51938 18.5103 2.26923C18.6094 2.29959 18.68 2.3296 18.722 2.35927C19.0009 2.5566 18.9891 2.9533 18.7187 3.15166C18.5756 3.25637 18.4118 3.24685 18.2337 3.19231C15.8269 2.45686 13.4199 1.72228 11.0127 0.988551C11.0043 0.985978 10.996 0.985978 10.9878 0.988551Z" fill="#9E9E9E"/>
<path id="Vector_2" d="M16.7747 11.7726C16.7894 11.7458 16.8034 11.7187 16.8166 11.6913C18.1277 8.96938 19.4372 6.24688 20.7454 3.52379C20.8308 3.34602 20.8858 3.2161 21.0883 3.14638C21.3101 3.06997 21.5493 3.15744 21.6659 3.35837C21.6947 3.40828 21.7177 3.48872 21.7348 3.59969C21.7819 3.9048 21.8434 4.23179 21.8781 4.51453C21.9493 5.09595 21.9892 5.67978 21.9977 6.26601C22.0433 9.37251 21.4045 12.5364 20.0319 15.3326C18.2969 18.8675 15.5197 21.6588 12.0803 23.5544C11.8287 23.6931 11.5768 23.8314 11.3245 23.9691C11.2144 24.0291 11.1308 24.0635 11.0739 24.0723C10.9365 24.0936 10.8421 24.061 10.7129 23.9897C10.5356 23.8919 10.3577 23.7952 10.1791 23.6995C6.75976 21.8677 3.9522 19.1646 2.16393 15.7255C0.754106 13.0144 0.041989 9.91895 0.00159801 6.85129C-0.00783513 6.127 0.0244949 5.40442 0.0985881 4.68355C0.119341 4.48031 0.175768 4.11319 0.26787 3.58219C0.286394 3.47551 0.310148 3.39833 0.339133 3.35065C0.457991 3.15564 0.695449 3.06946 0.911554 3.14355C1.13795 3.22099 1.1912 3.39953 1.29643 3.60457C2.68859 6.32098 4.08015 9.03635 5.47111 11.7507C5.47319 11.7547 5.47636 11.7581 5.48026 11.7605C5.48416 11.7628 5.48865 11.7641 5.49323 11.7641C9.20509 11.7641 12.9187 11.7641 16.634 11.7641C16.6592 11.7641 16.6993 11.7699 16.7544 11.7816C16.7633 11.7836 16.7701 11.7806 16.7747 11.7726ZM1.02166 5.18162C1.02046 5.17922 1.01978 5.17939 1.01961 5.18214C0.757451 8.54591 1.40242 12.0779 2.9221 15.0905C4.46725 18.1543 6.86987 20.6408 9.8318 22.3936C9.84243 22.4 9.84492 22.3976 9.83926 22.3867L1.02166 5.18162ZM20.9753 5.27527C19.9113 7.48606 18.8501 9.69144 17.7917 11.8914C17.7172 12.046 17.6395 12.1989 17.5586 12.3501C15.7745 15.686 13.9908 19.0222 12.2074 22.3586C12.2028 22.3674 12.2047 22.3692 12.2131 22.3643C15.5161 20.4044 18.0919 17.5369 19.5817 13.9825C20.7284 11.247 21.1902 8.22973 20.9887 5.27784C20.9875 5.26035 20.9831 5.25949 20.9753 5.27527ZM16.2583 12.7386C16.259 12.7374 16.2594 12.736 16.2593 12.7346C16.2593 12.7332 16.2589 12.7318 16.2582 12.7306C16.2574 12.7294 16.2564 12.7284 16.2552 12.7277C16.2539 12.7271 16.2525 12.7267 16.2511 12.7268H5.98462C5.98325 12.7268 5.98189 12.7271 5.98069 12.7278C5.97949 12.7284 5.97848 12.7294 5.97776 12.7305C5.97703 12.7317 5.97662 12.733 5.97656 12.7344C5.9765 12.7358 5.97679 12.7371 5.97741 12.7383L11.0019 22.542C11.0025 22.5434 11.0035 22.5445 11.0047 22.5452C11.006 22.546 11.0074 22.5464 11.0088 22.5465C11.0103 22.5465 11.0117 22.5461 11.013 22.5454C11.0143 22.5447 11.0153 22.5436 11.016 22.5423L16.2583 12.7386Z" fill="#9E9E9E"/>
</g>
</svg>
