<svg xmlns="http://www.w3.org/2000/svg" width="34.008" height="33.997" viewBox="0 0 34.008 33.997">
  <g id="ido" transform="translate(-0.001 -0.001)">
    <g id="Group_59264" data-name="Group 59264" transform="translate(-5.125 -18.121)">
      <g id="Group_59263" data-name="Group 59263" transform="translate(5.125 18.122)">
        <g id="Group_59262" data-name="Group 59262">
          <path id="Path_11760" data-name="Path 11760" d="M3345.927,275.437a.535.535,0,0,1,.571.463,5.335,5.335,0,0,0,5.122,3.917c4.318.01,8.54.018,12.709,0a5.069,5.069,0,0,0,4.447-2.421,8.065,8.065,0,0,0,.6-1.2c.088-.2.18-.413.28-.624l.061-.128h1.336a3.962,3.962,0,0,0,2.688-1.069,4.211,4.211,0,0,0,1.31-3.308,6.643,6.643,0,0,0-6.727-6.736q-1.156-.006-2.312,0h-.882a7.169,7.169,0,0,0-2.6.344,3.694,3.694,0,0,1-1.412.225c-1.544-.012-3.116,0-4.636.011l-2.05.014a.994.994,0,0,1-.412-.084,6.23,6.23,0,0,0-2.5-.5c-1.321-.009-2.615-.015-3.93,0a6.633,6.633,0,0,0-6.278,4.815c-.074.263-.13.54-.185.807-.025.122-.049.243-.076.364v1.615l.006.015a.868.868,0,0,1,.054.165,3.976,3.976,0,0,0,2.586,3.081,5.3,5.3,0,0,0,2.2.242Zm20.036-9.383c.4.016.818,0,1.218-.012a8.122,8.122,0,0,1,2.6.193,4.922,4.922,0,0,1,3.559,4.711v.127a4.263,4.263,0,0,1-.028.679,2.291,2.291,0,0,1-2.07,1.971c-.17.016-.339.021-.51.021-.138,0-.276,0-.418-.006s-.287-.007-.436-.007h-.211l-.013-.21a9.2,9.2,0,0,0-3.836-7.062l-.572-.432Zm-10.7.521c1.924-.01,3.707-.01,5.448,0a7.323,7.323,0,0,1,7.235,7.124,6.853,6.853,0,0,1-.1,1.622,3.563,3.563,0,0,1-3.564,2.794c-1.462.006-2.948,0-4.386,0h-1.909c-.6,0-1.217-.006-1.812-.012-1.341-.013-2.729-.026-4.087.029h-.2a3.9,3.9,0,0,1-2.8-1.093,3.987,3.987,0,0,1-1.1-3.026,7.408,7.408,0,0,1,3.175-6.139,6.966,6.966,0,0,1,4.1-1.3Zm-9.935,7.17a2.616,2.616,0,0,1-1.461-.35,2.258,2.258,0,0,1-1.1-1.721,5.077,5.077,0,0,1,1.053-3.773,4.95,4.95,0,0,1,3.356-1.83,14.154,14.154,0,0,1,1.948-.034c.3.008.617.017.933.017h.68l-.546.4a9.1,9.1,0,0,0-3.886,7.061l-.014.208h-.209c-.119,0-.239,0-.357.008s-.266.013-.4.013Z" transform="translate(-3341.05 -245.831)" fill="#2966ff"/>
          <path id="Path_11761" data-name="Path 11761" d="M3368.405,256.777a4.431,4.431,0,0,0,3.67-3.268,12.48,12.48,0,0,0,.526-5.089,3.893,3.893,0,0,0-2.659-3.535,6.777,6.777,0,0,0-3.074-.38c-.229.019-.455.047-.693.077-.11.014-.22.028-.33.04l-.18.021-.084-.245-.047-.132-.007-.021c-.023-.064-.046-.129-.072-.192a5.557,5.557,0,0,0-4.432-3.417c-.3-.06-.612-.1-.915-.144-.138-.019-.276-.037-.415-.058h-1.445c-.166.027-.33.052-.5.077-.36.053-.731.108-1.085.192a5.407,5.407,0,0,0-4.24,3.628.626.626,0,0,1-.062.123c-.007.012-.015.024-.022.038l-.07.127-.144-.011h-.061a1.259,1.259,0,0,1-.163-.016,7.812,7.812,0,0,0-2.764.017,4.074,4.074,0,0,0-3.635,3.758,12.444,12.444,0,0,0,.481,5.03,4.676,4.676,0,0,0,5.684,3.356,4.315,4.315,0,0,0,2.45-1.363l.16-.173.164.167a6.074,6.074,0,0,0,4.55,1.781h.054a6.019,6.019,0,0,0,4.549-1.845l.166-.174.162.178a4.694,4.694,0,0,0,4.485,1.453Zm-3.5-3.544a13.859,13.859,0,0,0,.907-4.483c.033-.569.053-1.184.063-1.937a.476.476,0,0,1,.44-.524,6.219,6.219,0,0,1,2.662.05,2.491,2.491,0,0,1,1.972,2.568c.008.205.006.411,0,.61v.087l.1.019-.034.216-.118.742c-.1.668-.213,1.359-.33,2.038a2.837,2.837,0,0,1-.2.615l-.014.036a2.778,2.778,0,0,1-2.821,1.884h-.023a2.7,2.7,0,0,1-2.545-1.33.728.728,0,0,1-.065-.59Zm-11.864.776a2.48,2.48,0,0,1-1.485,1.02,4.981,4.981,0,0,1-1.054.122,2.837,2.837,0,0,1-2.863-2.208,7.634,7.634,0,0,1-.311-1.31c-.066-.495-.1-.983-.14-1.454-.014-.187-.028-.367-.043-.541V249.6c.009-.158.014-.307.021-.451a7.254,7.254,0,0,1,.064-.867,2.214,2.214,0,0,1,1.428-1.767,5.877,5.877,0,0,1,3.059-.26.46.46,0,0,1,.4.516v.01c.012.255.021.509.032.765.029.738.061,1.5.124,2.245a10.963,10.963,0,0,0,.854,3.5.652.652,0,0,1-.09.718Zm10.45-1.852a4.307,4.307,0,0,1-2.917,3.071,6.655,6.655,0,0,1-1.744.253,4.3,4.3,0,0,1-3.059-1.215,5.939,5.939,0,0,1-1.578-3.209,19.714,19.714,0,0,1-.343-5.211,3.655,3.655,0,0,1,3.149-3.468,8.181,8.181,0,0,1,4.333.1,3.662,3.662,0,0,1,2.837,3.649c.013.31.01.615.006.937v.464a16.177,16.177,0,0,1-.689,4.629Z" transform="translate(-3342.043 -240.434)" fill="#2966ff"/>
        </g>
      </g>
    </g>
  </g>
</svg>
