<svg width="17" height="17" viewBox="0 0 17 17" fill="none" xmlns="http://www.w3.org/2000/svg">
<g id="Group">
<g id="Group_2">
<g id="Group 64366">
<circle id="Ellipse 872" cx="8.5" cy="8.5" r="8.15" fill="" stroke="#FF8888" stroke-width="0.7"/>
<path id="Vector" d="M9.27097 8.5L11.8882 11.1175C11.9602 11.1895 11.9999 11.2857 12 11.3882C12 11.4907 11.9603 11.587 11.8882 11.6589L11.6588 11.8882C11.5867 11.9604 11.4906 12 11.388 12C11.2855 12 11.1894 11.9604 11.1173 11.8882L8.50011 9.2709L5.8828 11.8882C5.8108 11.9604 5.71463 12 5.61207 12C5.50963 12 5.41346 11.9604 5.34146 11.8882L5.112 11.6589C4.96267 11.5096 4.96267 11.2667 5.112 11.1175L7.72926 8.5L5.112 5.88263C5.03995 5.81046 5.00028 5.71433 5.00028 5.61183C5.00028 5.50933 5.03995 5.4132 5.112 5.34109L5.34141 5.11178C5.4134 5.03961 5.50963 5 5.61202 5C5.71457 5 5.81075 5.03961 5.88274 5.11178L8.50006 7.72915L11.1173 5.11178C11.1894 5.03961 11.2855 5 11.3879 5H11.388C11.4905 5 11.5867 5.03961 11.6588 5.11178L11.8881 5.34109C11.9601 5.41314 11.9998 5.50933 11.9998 5.61183C11.9998 5.71433 11.9601 5.81046 11.8881 5.88257L9.27097 8.5Z" fill="#FF8888"/>
</g>
</g>
</g>
</svg>
