<svg width="10" height="10" viewBox="0 0 10 10" fill="none" xmlns="http://www.w3.org/2000/svg">
<path d="M9.75447 7.07394L6.53237 0.979965C6.21658 0.368502 5.63764 0 4.99554 0C4.35237 0 3.77343 0.368502 3.45764 0.979965L0.235542 7.08545C-0.0802473 7.69576 -0.0802473 8.43277 0.246072 9.04307C0.561861 9.64304 1.13028 10 1.77238 10H8.2071C8.84921 10 9.42816 9.63151 9.75447 9.02003C10.0818 8.40973 10.0818 7.68426 9.75447 7.07394ZM4.99448 8.45003C4.67764 8.45003 4.41869 8.16675 4.41869 7.82014C4.41869 7.47352 4.67764 7.1914 4.99448 7.1914C5.31133 7.1914 5.57027 7.47352 5.55764 7.8328C5.57027 8.15409 5.29974 8.45003 4.99448 8.45003ZM5.53448 4.39084C5.51132 4.87909 5.48817 5.35354 5.45237 5.84179C5.4408 5.99608 5.4408 6.13773 5.4408 6.29204C5.42922 6.54883 5.24079 6.74114 5.00606 6.74114C4.77133 6.74114 4.59553 6.56151 4.57132 6.3047C4.52501 5.57232 4.48922 4.82728 4.45448 4.06955C4.44291 3.86459 4.43132 3.67112 4.41869 3.46614C4.41869 3.14487 4.58395 2.86158 4.865 2.78559C5.13553 2.70843 5.41763 2.86158 5.53448 3.14487C5.57027 3.24736 5.58185 3.34984 5.58185 3.45349C5.57027 3.76095 5.54606 4.08223 5.53448 4.39084Z" fill="white"/>
</svg>
