<svg width="15" height="15" viewBox="0 0 15 15" fill="none" xmlns="http://www.w3.org/2000/svg">
<path d="M7.09003 0.511719C8.94654 0.511719 10.727 1.24922 12.0398 2.56197C13.3525 3.87473 14.09 5.6552 14.09 7.51172C14.09 9.36823 13.3525 11.1487 12.0398 12.4615C10.727 13.7742 8.94654 14.5117 7.09003 14.5117C5.23351 14.5117 3.45303 13.7742 2.14028 12.4615C0.827525 11.1487 0.0900269 9.36823 0.0900269 7.51172C0.0900269 5.6552 0.827525 3.87473 2.14028 2.56197C3.45303 1.24922 5.23351 0.511719 7.09003 0.511719ZM8.13995 4.80941C8.65991 4.80941 9.08188 4.44844 9.08188 3.91348C9.08188 3.37851 8.65891 3.01754 8.13995 3.01754C7.61999 3.01754 7.20002 3.37851 7.20002 3.91348C7.20002 4.44844 7.61999 4.80941 8.13995 4.80941ZM8.32294 10.436C8.32294 10.329 8.35994 10.051 8.33894 9.89305L7.517 10.839C7.34701 11.018 7.13402 11.142 7.03403 11.109C6.98867 11.0923 6.95075 11.0599 6.92711 11.0178C6.90346 10.9756 6.89564 10.9264 6.90504 10.879L8.27494 6.55129C8.38693 6.00233 8.07896 5.50136 7.426 5.43737C6.73705 5.43737 5.72312 6.13632 5.10617 7.02325C5.10617 7.12925 5.08617 7.39323 5.10717 7.55122L5.92811 6.60428C6.0981 6.4273 6.29608 6.3023 6.39608 6.3363C6.44534 6.35398 6.48571 6.39028 6.50852 6.43739C6.53133 6.4845 6.53475 6.53867 6.51807 6.58828L5.16017 10.895C5.00318 11.3989 5.30015 11.8929 6.0201 12.0049C7.08003 12.0049 7.70598 11.3229 8.32394 10.436H8.32294Z" fill="#767676"/>
</svg>
