<svg width="14" height="15" viewBox="0 0 14 15" fill="none" xmlns="http://www.w3.org/2000/svg">
<path d="M6.70224 0.8125C8.47967 0.8125 10.1843 1.51858 11.4411 2.77542C12.698 4.03225 13.4041 5.73688 13.4041 7.51431C13.4041 9.29174 12.698 10.9964 11.4411 12.2532C10.1843 13.51 8.47967 14.2161 6.70224 14.2161C4.92481 14.2161 3.22018 13.51 1.96334 12.2532C0.706509 10.9964 0.000427246 9.29174 0.000427246 7.51431C0.000427246 5.73688 0.706509 4.03225 1.96334 2.77542C3.22018 1.51858 4.92481 0.8125 6.70224 0.8125ZM7.70744 4.92712C8.20525 4.92712 8.60925 4.58152 8.60925 4.06935C8.60925 3.55718 8.2043 3.21158 7.70744 3.21158C7.20963 3.21158 6.80755 3.55718 6.80755 4.06935C6.80755 4.58152 7.20963 4.92712 7.70744 4.92712ZM7.88263 10.314C7.88263 10.2116 7.91805 9.94546 7.89795 9.7942L7.11102 10.6998C6.94828 10.8712 6.74436 10.9899 6.64863 10.9583C6.6052 10.9423 6.5689 10.9114 6.54626 10.871C6.52362 10.8306 6.51613 10.7835 6.52513 10.7381L7.83668 6.59479C7.9439 6.06922 7.64904 5.58959 7.02391 5.52833C6.3643 5.52833 5.39357 6.1975 4.80289 7.04666C4.80289 7.14813 4.78374 7.40087 4.80385 7.55213L5.58982 6.64553C5.75257 6.47609 5.94212 6.35642 6.03785 6.38897C6.08502 6.4059 6.12367 6.44064 6.1455 6.48575C6.16734 6.53085 6.17062 6.58272 6.15465 6.63022L4.85459 10.7535C4.70429 11.2359 4.98861 11.7089 5.67789 11.8161C6.69267 11.8161 7.29196 11.1632 7.88359 10.314H7.88263Z" fill="#545454"/>
</svg>
