<svg width="24" height="24" viewBox="0 0 24 24" fill="none" xmlns="http://www.w3.org/2000/svg">
<path fill-rule="evenodd" clip-rule="evenodd" d="M24 12C24 18.625 18.6274 24 12 24C5.37256 24 0 18.625 0 12C0 5.375 5.37256 0 12 0C18.6274 0 24 5.375 24 12ZM11.9702 5C10.0537 5 8.6001 5.96875 8.09473 7.59375C8.05615 7.70312 8.0332 7.8125 8.01953 7.90625L8 8.17188C8 8.86719 8.53711 9.38281 9.26367 9.38281C9.82178 9.38281 10.2749 9.05469 10.5171 8.45312C10.7593 7.78125 11.2119 7.45312 11.8965 7.45312C12.7285 7.45312 13.0972 8.04688 13.0972 8.63281C13.0972 9.14844 12.9917 9.51562 12.3599 10.2734L11.3174 11.5312C10.9419 11.9609 10.7163 12.3359 10.5967 12.7734C10.5186 13.0547 10.4854 13.3672 10.4854 13.7344V13.8672C10.4854 14.6484 11.0332 15.1953 11.8125 15.1953C12.1851 15.1953 12.5083 15.0625 12.7422 14.8359C12.9907 14.6016 13.1392 14.2656 13.1392 13.8672V13.75C13.1392 13.5547 13.1606 13.4062 13.2505 13.2344C13.3154 13.1094 13.4165 12.9688 13.5713 12.7812L14.7192 11.4219C15.5088 10.4844 15.8354 9.67969 15.8354 8.60938C15.8354 8.02344 15.7139 7.48438 15.4897 7.00781C15.1924 6.38281 14.7144 5.875 14.1011 5.52344C13.5054 5.1875 12.7812 5 11.9702 5ZM10 17.5938C10 16.7188 10.7163 16 11.5903 16C12.4536 16 13.1807 16.7344 13.1807 17.5938C13.1807 18.4531 12.4536 19.1797 11.5903 19.1797C10.7163 19.1797 10 18.4609 10 17.5938Z" fill="url(#paint0_linear_517_30)"/>
<defs>
<linearGradient id="paint0_linear_517_30" x1="12" y1="0" x2="12" y2="24" gradientUnits="userSpaceOnUse">
<stop stop-color="#1463D6"/>
<stop offset="1" stop-color="#092E63"/>
</linearGradient>
</defs>
</svg>
