<svg width="12" height="12" viewBox="0 0 12 12" fill="none" xmlns="http://www.w3.org/2000/svg">
<g id="Group 59766">
<g id="Group">
<path id="Vector" d="M6 0C2.6838 0 0 2.6835 0 6C0 9.31615 2.6835 12 6 12C9.3162 12 12 9.3165 12 6C12 2.68385 9.3165 0 6 0ZM6 11.1628C3.15323 11.1628 0.837211 8.84679 0.837211 6C0.837211 3.15321 3.15323 0.837211 6 0.837211C8.84677 0.837211 11.1628 3.15321 11.1628 6C11.1628 8.84679 8.84677 11.1628 6 11.1628Z" fill="#85744C"/>
</g>
<g id="Group_2">
<g id="Group_3">
<path id="Vector_2" d="M5.99973 5.00195C5.64433 5.00195 5.3916 5.15205 5.3916 5.37318V8.38223C5.3916 8.57179 5.64433 8.7613 5.99973 8.7613C6.33934 8.7613 6.61574 8.57179 6.61574 8.38223V5.37313C6.61574 5.15202 6.33934 5.00195 5.99973 5.00195Z" fill="#85744C"/>
</g>
</g>
<g id="Group_4">
<g id="Group_5">
<path id="Vector_3" d="M6.00014 3.14648C5.63684 3.14648 5.35254 3.40711 5.35254 3.70723C5.35254 4.00737 5.63686 4.27589 6.00014 4.27589C6.35555 4.27589 6.63989 4.00737 6.63989 3.70723C6.63989 3.40711 6.35552 3.14648 6.00014 3.14648Z" fill="#85744C"/>
</g>
</g>
</g>
</svg>
