<svg xmlns="http://www.w3.org/2000/svg" width="103.703" height="40.613" viewBox="0 0 103.703 40.613">
  <g id="Screenshot_2024-01-09_at_11.45.28_AM" data-name="Screenshot 2024-01-09 at 11.45.28 AM" transform="translate(-18.29 -15.775)">
    <path id="Path_17" data-name="Path 17" d="M270.883,258.412l-.355.2a.061.061,0,0,1-.067,0l-17.653-10.122a.071.071,0,0,1-.039-.066v-20.21a.089.089,0,0,1,.044-.077l17.656-10.122a.053.053,0,0,1,.053,0l17.116,9.806a.064.064,0,0,0,.069,0l.462-.279a.028.028,0,0,1,.042.025c-.019.326.024.637.024.954q-.016,9.723,0,19.863a.137.137,0,0,1-.074.127q-3.739,2.136-7.527,4.311-.994.571-1.982,1.162-3.772,2.259-7.668,4.611-.055.033-.055-.031v-.128Q270.931,258.384,270.883,258.412Zm-10.158-32.579q-1.483.856-2.949,1.723a.025.025,0,0,0,0,.043l11.292,6.6a.071.071,0,0,0,.069,0,4.048,4.048,0,0,1,3.585.005.062.062,0,0,0,.057,0l10.968-6.42a.01.01,0,0,0,.005-.009.011.011,0,0,0-.005-.009l-11.488-6.587a.073.073,0,0,0-.059-.008,7.362,7.362,0,0,1-1.543.253,3.625,3.625,0,0,1-1.708-.319.1.1,0,0,0-.091,0q-3.558,2.029-6.882,3.99Q261.335,225.482,260.725,225.834Zm25.577,5.6L275.017,238.1a.076.076,0,0,0-.04.064,4.151,4.151,0,0,1-1.23,2.682,3.183,3.183,0,0,1-.547.444.063.063,0,0,0-.031.056l.017,13.128a.027.027,0,0,0,.014.024.029.029,0,0,0,.028,0l11.254-6.582a.069.069,0,0,0,.037-.058,4.125,4.125,0,0,1,1.772-3.128.085.085,0,0,0,.037-.072V231.449a.017.017,0,0,0-.008-.014A.017.017,0,0,0,286.3,231.434Zm-24.077,19.387.005.007a.042.042,0,0,0,.014.012q3.239,1.9,6.4,3.747.031.018.031-.018l0-13.186a.093.093,0,0,0-.042-.077,4.02,4.02,0,0,1-1.769-3.129.082.082,0,0,0-.04-.067l-11.239-6.579q-.052-.03-.052.03v13.164a.067.067,0,0,0,.03.058,4.092,4.092,0,0,1,1.789,3.158.068.068,0,0,0,.035.057l4.8,2.81a.049.049,0,0,0,.025.008A.023.023,0,0,1,262.225,250.821Z" transform="translate(-234.48 -202.238)" fill="#2e4276"/>
    <path id="Path_19" data-name="Path 19" d="M1453.143,340.626a6.769,6.769,0,0,0-.944-.082c-1.8-.093-4.653.187-5.039,2.467a3.9,3.9,0,0,0,.048,1.481,2.319,2.319,0,0,0,1.124,1.556,8.6,8.6,0,0,0,2.724.876q2.1.4,3.341.66a10.027,10.027,0,0,1,4.09,1.775,4.843,4.843,0,0,1,1.619,2.344,7.772,7.772,0,0,1,.247,3.79,5.464,5.464,0,0,1-2.029,3.457,7.581,7.581,0,0,1-2.464,1.305,11.119,11.119,0,0,1-2.943.516,15.344,15.344,0,0,1-4.689-.482,6.888,6.888,0,0,1-5.338-6.83.023.023,0,0,1,.007-.017.023.023,0,0,1,.017-.007h3.713a.045.045,0,0,1,.05.045,4.235,4.235,0,0,0,1.926,3.384,7.519,7.519,0,0,0,3.9.737,5.266,5.266,0,0,0,2.872-.812,3.2,3.2,0,0,0,1.182-3.191,2.921,2.921,0,0,0-2.089-2.363,7.3,7.3,0,0,0-1.142-.321q-1.807-.331-3.758-.72a17.344,17.344,0,0,1-2.486-.729,6.765,6.765,0,0,1-1.793-1.017,5.245,5.245,0,0,1-1.891-3.859,8.773,8.773,0,0,1,.025-1.778,5.513,5.513,0,0,1,2.281-3.752,8.426,8.426,0,0,1,3.658-1.417,15.756,15.756,0,0,1,3.959-.111,8.548,8.548,0,0,1,4.441,1.608,6.794,6.794,0,0,1,2.4,4.5.023.023,0,0,1-.022.03l-3.467.541a.043.043,0,0,1-.048-.033,5.372,5.372,0,0,0-1.208-2.47,3.353,3.353,0,0,0-1.8-.988Q1453.382,340.673,1453.143,340.626Z" transform="translate(-1338.487 -313.041)" fill="#2e4276"/>
    <rect id="Rectangle_1" data-name="Rectangle 1" width="3.739" height="22.25" rx="0.26" transform="translate(62.376 24.945)" fill="#2e4276"/>
    <path id="Path_20" data-name="Path 20" d="M978.561,357.486a6.741,6.741,0,0,1-1.115.53,9.225,9.225,0,0,1-1.239.359,13.956,13.956,0,0,1-2.844.288q-2.055.012-4.158,0a.038.038,0,0,0-.038.038v8.247a.037.037,0,0,1-.037.037h-3.6a.033.033,0,0,1-.037-.037V344.779a.035.035,0,0,1,.039-.039h7.349a12.117,12.117,0,0,1,5.32.946,5.385,5.385,0,0,1,2.909,3.354,9.353,9.353,0,0,1,.065,4.888,6.083,6.083,0,0,1-.493,1.343A5.387,5.387,0,0,1,978.561,357.486Zm-1.025-7.628a2.868,2.868,0,0,0-1.981-1.677,8.054,8.054,0,0,0-1.742-.283q-.46-.022-1.442-.014-1.57.012-3.123,0a.041.041,0,0,0-.046.046V355.5a.046.046,0,0,0,.046.046q2.252.013,4.147,0a6.858,6.858,0,0,0,2.422-.409,2.849,2.849,0,0,0,1.878-2.305A5.871,5.871,0,0,0,977.535,349.859Z" transform="translate(-895.63 -319.796)" fill="#2e4276"/>
    <path id="Path_21" data-name="Path 21" d="M1228.022,357.588v9.381a.031.031,0,0,1-.031.031h-3.68a.031.031,0,0,1-.031-.031V344.781a.031.031,0,0,1,.031-.031h14.026a.031.031,0,0,1,.031.031v3.176a.031.031,0,0,1-.031.031h-10.284a.031.031,0,0,0-.031.031v6.237a.031.031,0,0,0,.031.031l9.672,0a.031.031,0,0,1,.031.031v3.208a.031.031,0,0,1-.031.031h-9.673A.031.031,0,0,0,1228.022,357.588Z" transform="translate(-1135.695 -319.805)" fill="#2e4276"/>
  </g>
</svg>
