<svg width="20" height="19" viewBox="0 0 20 19" fill="none" xmlns="http://www.w3.org/2000/svg">
<g id="linkedin" clip-path="url(#clip0_0_4583)">
<g id="Layer 2">
<g id="linkedin_2">
<path id="icon" d="M15.5455 -0.000228882H2.45455C1.80356 -0.000228882 1.17924 0.272741 0.71892 0.758631C0.258603 1.24452 0 1.90353 0 2.59068L0 16.4089C0 17.096 0.258603 17.755 0.71892 18.2409C1.17924 18.7268 1.80356 18.9998 2.45455 18.9998H15.5455C16.1964 18.9998 16.8208 18.7268 17.2811 18.2409C17.7414 17.755 18 17.096 18 16.4089V2.59068C18 1.90353 17.7414 1.24452 17.2811 0.758631C16.8208 0.272741 16.1964 -0.000228882 15.5455 -0.000228882ZM6.13636 15.0357C6.1365 15.0884 6.12678 15.1406 6.10777 15.1893C6.08877 15.238 6.06084 15.2823 6.02559 15.3196C5.99035 15.3569 5.94847 15.3865 5.90237 15.4067C5.85627 15.4269 5.80685 15.4373 5.75693 15.4373H4.14C4.09 15.4374 4.04047 15.4271 3.99425 15.407C3.94803 15.3869 3.90603 15.3573 3.87068 15.32C3.83532 15.2826 3.8073 15.2383 3.78823 15.1895C3.76916 15.1407 3.75941 15.0885 3.75955 15.0357V7.88045C3.75955 7.77394 3.79963 7.6718 3.87098 7.59649C3.94233 7.52117 4.0391 7.47886 4.14 7.47886H5.75693C5.85766 7.47915 5.95416 7.52158 6.02529 7.59687C6.09642 7.67215 6.13636 7.77413 6.13636 7.88045V15.0357ZM4.94795 6.80091C4.64454 6.80091 4.34794 6.70594 4.09566 6.528C3.84338 6.35007 3.64675 6.09717 3.53064 5.80128C3.41453 5.50538 3.38415 5.17979 3.44334 4.86568C3.50253 4.55156 3.64864 4.26302 3.86319 4.03656C4.07773 3.81009 4.35108 3.65587 4.64867 3.59339C4.94625 3.5309 5.25471 3.56297 5.53503 3.68553C5.81534 3.8081 6.05494 4.01565 6.2235 4.28194C6.39207 4.54824 6.48205 4.86132 6.48205 5.18159C6.48205 5.61106 6.32042 6.02294 6.03272 6.32662C5.74502 6.6303 5.35482 6.80091 4.94795 6.80091ZM14.5882 15.0637C14.5883 15.1123 14.5794 15.1603 14.5618 15.2052C14.5443 15.2501 14.5185 15.2908 14.486 15.3251C14.4535 15.3594 14.4149 15.3866 14.3724 15.4051C14.3299 15.4236 14.2844 15.4331 14.2384 15.433H12.4998C12.4538 15.4331 12.4083 15.4236 12.3658 15.4051C12.3233 15.3866 12.2847 15.3594 12.2521 15.3251C12.2196 15.2908 12.1939 15.2501 12.1763 15.2052C12.1588 15.1603 12.1499 15.1123 12.15 15.0637V11.7118C12.15 11.2109 12.2891 9.51812 10.9094 9.51812C9.84068 9.51812 9.62284 10.6765 9.57989 11.1968V15.0681C9.5799 15.1651 9.54375 15.2582 9.47925 15.3272C9.41476 15.3963 9.3271 15.4359 9.23523 15.4373H7.55591C7.51002 15.4373 7.46459 15.4277 7.42221 15.4091C7.37983 15.3906 7.34134 15.3634 7.30894 15.3291C7.27655 15.2948 7.25088 15.2541 7.23341 15.2093C7.21595 15.1645 7.20702 15.1165 7.20716 15.0681V7.84915C7.20702 7.80071 7.21595 7.75273 7.23341 7.70794C7.25088 7.66315 7.27655 7.62244 7.30894 7.58814C7.34134 7.55385 7.37983 7.52663 7.42221 7.50807C7.46459 7.4895 7.51002 7.47994 7.55591 7.47994H9.23523C9.32799 7.47994 9.41696 7.51884 9.48255 7.58808C9.54815 7.65732 9.585 7.75123 9.585 7.84915V8.47312C9.98182 7.84375 10.5699 7.36011 11.8248 7.36011C14.6045 7.36011 14.5861 10.1 14.5861 11.6049L14.5882 15.0637Z" fill="white"/>
</g>
</g>
</g>
<defs>
<clipPath id="clip0_0_4583">
<rect width="19.6489" height="18.278" fill="white" transform="translate(0 0.442154)"/>
</clipPath>
</defs>
</svg>
