<svg width="18" height="18" viewBox="0 0 18 18" fill="none" xmlns="http://www.w3.org/2000/svg">
<path d="M15.6033 1.46148C14.6651 0.525587 13.394 0 12.0689 0C10.7437 0 9.4726 0.525587 8.53442 1.46148L8.06308 1.93268C8.00118 1.99456 7.95207 2.06803 7.91857 2.14889C7.88506 2.22975 7.86781 2.31643 7.8678 2.40395C7.86779 2.49148 7.88503 2.57816 7.91852 2.65903C7.95201 2.7399 8.0011 2.81338 8.063 2.87527L9.00535 3.8176C9.13032 3.94257 9.29981 4.01278 9.47655 4.0128C9.65328 4.01281 9.82279 3.94263 9.94778 3.81768L10.4193 3.34635C10.8568 2.90891 11.4501 2.66318 12.0688 2.6632C12.6875 2.66323 13.2808 2.90901 13.7183 3.34648C14.1558 3.78395 14.4016 4.37729 14.4016 4.99597C14.4016 5.61465 14.1559 6.208 13.7184 6.64551L11.3617 9.00156C10.9488 9.40987 10.3992 9.65063 9.81914 9.67731C9.23906 9.704 8.66968 9.51472 8.22104 9.14605L7.70959 8.71889C7.6424 8.66277 7.56482 8.62043 7.48127 8.59431C7.39772 8.56818 7.30984 8.55876 7.22265 8.5666C7.13546 8.57445 7.05067 8.59939 6.97312 8.64001C6.89557 8.68063 6.82679 8.73613 6.7707 8.80334L5.91652 9.82674C5.80326 9.96245 5.74854 10.1376 5.76441 10.3136C5.78028 10.4897 5.86543 10.6522 6.00113 10.7655L6.51258 11.1923C7.46815 11.9969 8.69164 12.4122 9.93954 12.3555C11.1874 12.2988 12.3682 11.7743 13.2469 10.8864L15.6036 8.53037C16.5409 7.5929 17.0674 6.32151 17.0674 4.99586C17.0673 3.6702 16.5407 2.39886 15.6033 1.46148Z" fill="white"/>
<path d="M8.06225 13.2462C7.93727 13.1213 7.76778 13.0511 7.59104 13.051C7.41431 13.051 7.2448 13.1212 7.11981 13.2462L6.64832 13.7175C6.21081 14.1549 5.61745 14.4007 4.99877 14.4006C4.38009 14.4006 3.78676 14.1548 3.34929 13.7174C2.91182 13.2799 2.66603 12.6865 2.66601 12.0679C2.66598 11.4492 2.91172 10.8558 3.34915 10.4183L5.70588 8.06227C6.11862 7.65367 6.66826 7.4127 7.24843 7.38601C7.8286 7.35932 8.39804 7.5488 8.84656 7.91778L9.35801 8.34494C9.42519 8.40106 9.50277 8.4434 9.58633 8.46953C9.66988 8.49566 9.75776 8.50507 9.84495 8.49723C9.93213 8.48939 10.0169 8.46444 10.0945 8.42382C10.172 8.3832 10.2408 8.3277 10.2969 8.26049L11.1511 7.23709C11.2643 7.10138 11.319 6.92623 11.3032 6.75018C11.2873 6.57413 11.2021 6.41159 11.0664 6.29832L10.555 5.87149C9.59943 5.06687 8.37593 4.65156 7.12802 4.70825C5.88011 4.76494 4.6993 5.28945 3.82063 6.1774L1.46397 8.53347C0.526575 9.4709 -3.00056e-05 10.7423 1.28231e-09 12.068C3.00082e-05 13.3937 0.526692 14.6651 1.46413 15.6025C2.40156 16.5399 3.67298 17.0665 4.99868 17.0665C6.32439 17.0665 7.59578 16.5398 8.53317 15.6024L9.00451 15.1312C9.06641 15.0693 9.11552 14.9958 9.14902 14.9149C9.18253 14.8341 9.19978 14.7474 9.19979 14.6599C9.1998 14.5723 9.18256 14.4857 9.14907 14.4048C9.11558 14.3239 9.06649 14.2505 9.0046 14.1886L8.06225 13.2462Z" fill="white"/>
</svg>
