<svg width="20" height="20" viewBox="0 0 20 20" fill="none" xmlns="http://www.w3.org/2000/svg">
<path fill-rule="evenodd" clip-rule="evenodd" d="M9.6866 11.6433L8.35676 10.3134C7.93882 9.89551 7.26125 9.89551 6.84332 10.3134L5.51348 11.6433C5.09554 12.0612 5.09554 12.7388 5.51348 13.1567L6.84332 14.4866C7.26125 14.9045 7.93882 14.9045 8.35676 14.4866L9.6866 13.1567C10.1045 12.7388 10.1045 12.0612 9.6866 11.6433ZM6.45383 12.4L7.60003 11.2538L8.74624 12.4L7.60003 13.5462L6.45383 12.4Z" fill="white"/>
<path fill-rule="evenodd" clip-rule="evenodd" d="M1 12.4C1 9.30805 3.12618 6.71266 5.99623 5.9962C6.71272 3.12617 9.30808 1 12.4 1C16.0451 1 19 3.95491 19 7.6C19 10.692 16.8738 13.2873 14.0038 14.0038C13.2873 16.8738 10.692 19 7.6 19C3.95491 19 1 16.0451 1 12.4ZM7.6 5.8C7.50115 5.8 7.40281 5.80216 7.30501 5.80648C8.04448 3.70576 10.0464 2.2 12.4 2.2C15.3824 2.2 17.8 4.61767 17.8 7.6C17.8 9.95362 16.2943 11.9555 14.1935 12.695C14.1978 12.5972 14.2 12.4989 14.2 12.4C14.2 8.75491 11.2451 5.8 7.6 5.8ZM7.6 7C4.61767 7 2.2 9.41767 2.2 12.4C2.2 15.3823 4.61767 17.8 7.6 17.8C10.5823 17.8 13 15.3823 13 12.4C13 9.41767 10.5823 7 7.6 7Z" fill="white"/>
</svg>
