<svg width="34" height="34" viewBox="0 0 34 34" fill="none" xmlns="http://www.w3.org/2000/svg">
<circle cx="17" cy="17" r="17" fill="#2966FF" fill-opacity="0.1"/>
<circle cx="17" cy="17" r="16.5" stroke="#2966FF" stroke-opacity="0.5"/>
<path d="M21.9412 14.451H20.7046V11.6294C20.7046 9.62812 19.0421 8 16.9987 8C14.9553 8 13.2928 9.62812 13.2928 11.6294V14.451H12.0588C10.9236 14.451 10 15.3746 10 16.5098V23.5098C10 24.645 10.9236 25.5686 12.0588 25.5686H21.9412C23.0764 25.5686 24 24.645 24 23.5098V16.5098C24 15.3746 23.0764 14.451 21.9412 14.451ZM14.6654 11.6294C14.6654 10.3849 15.7121 9.37255 16.9987 9.37255C18.2853 9.37255 19.3321 10.3849 19.3321 11.6294V14.451H14.6654V11.6294ZM22.6275 23.5098C22.6275 23.8882 22.3196 24.1961 21.9412 24.1961H12.0588C11.6804 24.1961 11.3725 23.8882 11.3725 23.5098V16.5098C11.3725 16.1314 11.6804 15.8235 12.0588 15.8235H21.9412C22.3196 15.8235 22.6275 16.1314 22.6275 16.5098V23.5098Z" fill="#2966FF"/>
<path d="M17.004 17.8135C16.3028 17.8135 15.7344 18.3819 15.7344 19.0831C15.7344 19.5308 15.9663 19.9241 16.3164 20.1502V21.6566C16.3164 22.0356 16.6237 22.3429 17.0027 22.3429C17.3817 22.3429 17.689 22.0356 17.689 21.6566V20.1518C18.0405 19.926 18.2736 19.5319 18.2736 19.0831C18.2736 18.3819 17.7052 17.8135 17.004 17.8135Z" fill="#2966FF"/>
</svg>
