<svg xmlns="http://www.w3.org/2000/svg" width="30.769" height="33.994" viewBox="0 0 30.769 33.994">
  <g id="lockups" transform="translate(-0.002 -0.002)">
    <g id="Group_59260" data-name="Group 59260" transform="translate(165 117)">
      <g id="Group_59259" data-name="Group 59259" transform="translate(-165 -117)">
        <path id="Path_11758" data-name="Path 11758" d="M2907.282,228.491a7.311,7.311,0,0,0-5.858,7.182c-.006,2.119,0,4.273,0,6.356v3.3a6.964,6.964,0,0,0,.185,1.608,7.325,7.325,0,0,0,7.2,5.708c1.827.01,3.685.007,5.482,0h10.469a7.145,7.145,0,0,0,.908-.038,7.34,7.34,0,0,0,6.521-7.43v-9.392a6.624,6.624,0,0,0-.112-1.359,7.176,7.176,0,0,0-5.8-5.945.619.619,0,0,1-.533-.683c.01-.924.019-2.145,0-3.388a5.676,5.676,0,0,0-5.687-5.73c-1.254-.013-2.4-.023-3.515-.023-1.137,0-2.228.011-3.34.041a5.642,5.642,0,0,0-5.3,5.06,26.939,26.939,0,0,0-.052,2.737c0,.417.012.848.01,1.273a.654.654,0,0,1-.578.723Zm.65,1.69a6.945,6.945,0,0,1,1.21-.061h10.682c.624,0,.975-.247,1.07-.754a.876.876,0,0,0-.766-1.02c-.109-.01-.225-.01-.346-.009h-1.847c-2.487,0-5.06,0-7.589.007a.729.729,0,0,1-.562-.177.71.71,0,0,1-.159-.535c.017-.481.01-.974,0-1.452a19.284,19.284,0,0,1,.06-2.3,3.82,3.82,0,0,1,3.658-3.4c2.019-.036,4.144-.039,6.688-.011a3.883,3.883,0,0,1,3.923,3.936c.025,1.314.01,2.648-.007,3.938l-.008.788a1.041,1.041,0,0,0,.295.761.832.832,0,0,0,.622.239,5.337,5.337,0,0,1,3.855,1.563,5.614,5.614,0,0,1,1.689,4.106c-.015,2.057-.012,4.15-.009,6.174v3.221a5.535,5.535,0,0,1-5.677,5.676H2908.9a5.533,5.533,0,0,1-5.712-5.716q0-4.68,0-9.36a5.528,5.528,0,0,1,4.744-5.615Z" transform="translate(-2901.419 -218.655)" fill="#2966ff"/>
        <path id="Path_11759" data-name="Path 11759" d="M3001.6,358.612a3.278,3.278,0,0,0,1.718-4.008,3.356,3.356,0,0,0-3.706-2.226,3.259,3.259,0,0,0-2.712,2.846,3.128,3.128,0,0,0,1.582,3.23,1.225,1.225,0,0,1,.8,1.4c0,.088,0,.167,0,.238v.391a.922.922,0,0,0,.888.9h0a.925.925,0,0,0,.89-.9v-.108c.008-.3.015-.594,0-.881a.8.8,0,0,1,.54-.882Zm-1.429-1.484h0a1.539,1.539,0,0,1-1.1-.435,1.458,1.458,0,0,1-.416-1.046,1.505,1.505,0,0,1,.445-1.071,1.538,1.538,0,0,1,1.09-.441h.014a1.512,1.512,0,0,1,1.5,1.478,1.485,1.485,0,0,1-.416,1.074,1.542,1.542,0,0,1-1.115.441Z" transform="translate(-2984.791 -335.414)" fill="#2966ff"/>
      </g>
    </g>
  </g>
</svg>
