<svg width="17" height="19" viewBox="0 0 17 19" fill="none" xmlns="http://www.w3.org/2000/svg">
<path id="Union 18" d="M2.41211 18.1221C1.77257 18.1215 1.15925 17.8673 0.707031 17.415C0.254808 16.9628 0.00052964 16.3495 0 15.71V9.89453C0.000264782 9.25482 0.25478 8.64189 0.707031 8.18945C1.15928 7.73701 1.7724 7.48198 2.41211 7.48145H3.32324V4.9043C3.32324 3.60368 3.84009 2.3562 4.75977 1.43652C5.67944 0.516845 6.92594 0 8.22656 0C9.52718 0 10.7747 0.516845 11.6943 1.43652C12.614 2.3562 13.1309 3.60368 13.1309 4.9043V7.47656H14.043C14.6826 7.47736 15.2959 7.73219 15.748 8.18457C16.2002 8.63695 16.4545 9.25002 16.4551 9.88965V15.7051C16.4543 16.3445 16.2002 16.957 15.748 17.4092C15.2959 17.8613 14.6824 18.1164 14.043 18.1172L2.41211 18.1221ZM1.5 9.89355V15.709C1.50053 15.9506 1.59663 16.1818 1.76758 16.3525C1.93853 16.5233 2.17049 16.6199 2.41211 16.6201H14.043C14.2845 16.6199 14.5157 16.5233 14.6865 16.3525C14.8573 16.1818 14.9538 15.9505 14.9541 15.709V9.89355C14.9542 9.77384 14.9305 9.65557 14.8848 9.54492C14.839 9.43428 14.7721 9.33372 14.6875 9.24902C14.6029 9.16432 14.5022 9.0976 14.3916 9.05176C14.281 9.00591 14.1627 8.98145 14.043 8.98145H2.41211C2.29218 8.98131 2.17333 9.00495 2.0625 9.05078C1.95167 9.09662 1.85141 9.16422 1.7666 9.24902C1.6818 9.33383 1.6142 9.43409 1.56836 9.54492C1.52252 9.65575 1.49889 9.7746 1.49902 9.89453L1.5 9.89355ZM11.6309 7.48047V4.9043C11.6309 4.00123 11.2724 3.13465 10.6338 2.49609C9.99523 1.85753 9.12865 1.49902 8.22559 1.49902C7.32252 1.49902 6.45692 1.85753 5.81836 2.49609C5.1798 3.13465 4.82129 4.00123 4.82129 4.9043V7.47656L11.6309 7.48047Z" fill="#D0D6E4"/>
</svg>
