<svg width="104" height="92" viewBox="0 0 104 92" fill="none" xmlns="http://www.w3.org/2000/svg">
<path d="M24.9849 0.138947L20.7021 4.40965C20.625 4.48652 20.6248 4.61132 20.7017 4.6884L24.9765 8.97534C25.0534 9.05242 25.1782 9.0526 25.2553 8.97573L29.5381 4.70503C29.6151 4.62816 29.6153 4.50336 29.5385 4.42628L25.2636 0.139341C25.1868 0.0622577 25.062 0.062081 24.9849 0.138947Z" fill="#292D32"/>
<path d="M102.56 18.0939L100.537 16.0925C100.463 16.0188 100.343 16.0194 100.269 16.0939L98.2597 18.1242C98.186 18.1987 98.1866 18.3189 98.2611 18.3926L100.284 20.394C100.358 20.4678 100.478 20.4671 100.552 20.3926L102.561 18.3624C102.635 18.2878 102.634 18.1676 102.56 18.0939Z" fill="#292D32"/>
<path d="M3.2322 45.8405L0.24911 48.7925C0.11153 48.9287 0.110368 49.1506 0.246515 49.2882L3.17439 52.2469C3.31053 52.3844 3.53243 52.3856 3.67001 52.2495L6.6531 49.2975C6.79068 49.1613 6.79184 48.9394 6.65569 48.8018L3.72782 45.8431C3.59168 45.7056 3.36978 45.7044 3.2322 45.8405Z" fill="#292D32"/>
<path d="M100.284 78.8402L97.1383 81.9773C97.0641 82.0513 97.0639 82.1715 97.1379 82.2458L100.267 85.3835C100.341 85.4577 100.461 85.4579 100.535 85.3839L103.681 82.2467C103.756 82.1727 103.756 82.0525 103.682 81.9783L100.553 78.8405C100.479 78.7663 100.359 78.7661 100.284 78.8402Z" fill="#292D32"/>
<path d="M55.3629 91.804C78.2243 91.804 96.7571 73.2712 96.7571 50.4098C96.7571 27.5484 78.2243 9.01562 55.3629 9.01562C32.5016 9.01562 13.9688 27.5484 13.9688 50.4098C13.9688 73.2712 32.5016 91.804 55.3629 91.804Z" fill="#54585C"/>
<path d="M55.3636 85.7351C74.8729 85.7351 90.6882 69.9197 90.6882 50.4105C90.6882 30.9013 74.8729 15.0859 55.3636 15.0859C35.8544 15.0859 20.0391 30.9013 20.0391 50.4105C20.0391 69.9197 35.8544 85.7351 55.3636 85.7351Z" fill="#292D32"/>
<path fill-rule="evenodd" clip-rule="evenodd" d="M62.6101 44.5032C61.638 43.3802 61.7595 41.6832 62.8824 40.7111C64.0054 39.739 65.7024 39.8605 66.6745 40.9835C67.8436 42.3369 68.7738 43.8998 69.4107 45.6094C70.0308 47.2771 70.3702 49.0579 70.3702 50.8974C70.3702 55.0917 68.669 58.888 65.9203 61.6367C63.1715 64.3855 59.3795 66.0867 55.1851 66.0867C50.9908 66.0867 47.1945 64.3855 44.4458 61.6367C41.697 58.888 40 55.0917 40 50.8974C40 49.0872 40.3268 47.3357 40.9218 45.7016C41.5336 44.0255 42.4387 42.4793 43.5742 41.1301C44.5296 39.9946 46.2224 39.8479 47.3579 40.8033C48.4934 41.7586 48.6401 43.4515 47.6847 44.587C46.9598 45.4502 46.3774 46.4432 45.9793 47.5369C45.6022 48.5718 45.3969 49.7032 45.3969 50.8974C45.3969 53.6 46.4947 56.0512 48.263 57.8237C50.0354 59.5961 52.4825 60.6897 55.1851 60.6897C57.8878 60.6897 60.339 59.5919 62.1072 57.8237C63.8755 56.0554 64.9775 53.6042 64.9775 50.8974C64.9775 49.678 64.7638 48.5299 64.3783 47.4866C63.9677 46.3888 63.3685 45.3789 62.6101 44.5032Z" fill="white"/>
<path fill-rule="evenodd" clip-rule="evenodd" d="M57.8852 45.7394C57.8852 47.2269 56.6784 48.4378 55.1867 48.4378C53.6992 48.4378 52.4883 47.2311 52.4883 45.7394V37.6985C52.4883 36.211 53.695 35 55.1867 35C56.6742 35 57.8852 36.2068 57.8852 37.6985V45.7394Z" fill="white"/>
</svg>
