<svg width="206" height="41" viewBox="0 0 206 41" fill="none" xmlns="http://www.w3.org/2000/svg">
<path d="M133.451 29.2213C133.117 30.7686 130.117 30.4201 128.943 30.2669C128.815 30.2495 128.697 30.1865 128.612 30.0896C128.527 29.9926 128.48 29.8684 128.48 29.7398L128.566 6.52905C128.551 6.42581 128.562 6.32056 128.596 6.22212C128.631 6.12369 128.689 6.03495 128.765 5.96333C128.842 5.8917 128.934 5.83929 129.035 5.81051C129.137 5.78172 129.243 5.77737 129.346 5.79786L133.219 5.96791C133.344 5.97231 133.461 6.02441 133.548 6.11323C133.634 6.20205 133.682 6.32065 133.682 6.44402V13.5178C133.682 13.9089 133.851 13.9996 134.188 13.7899C143.177 8.18696 151.652 19.0611 145.842 27.0702C143.437 30.3804 139.841 31.2787 135.053 29.7654C134.932 29.7312 134.821 29.6661 134.732 29.5767C134.644 29.4873 134.58 29.3765 134.548 29.2553C134.539 29.1826 134.516 29.1123 134.478 29.0491C134.441 28.9858 134.391 28.9309 134.332 28.8878C134.272 28.8446 134.204 28.8143 134.132 28.7985C134.06 28.7827 133.986 28.7819 133.913 28.7961C133.8 28.806 133.693 28.853 133.609 28.93C133.525 29.007 133.469 29.1094 133.451 29.2213ZM137.984 26.1605C139.2 26.1004 140.343 25.5648 141.162 24.6709C141.981 23.7769 142.409 22.5976 142.354 21.3907C142.412 20.7868 142.342 20.1774 142.149 19.6017C141.956 19.0261 141.643 18.4969 141.232 18.048C140.82 17.5992 140.319 17.2404 139.76 16.995C139.2 16.7496 138.595 16.6229 137.984 16.6229C137.372 16.6229 136.768 16.7496 136.208 16.995C135.649 17.2404 135.148 17.5992 134.736 18.048C134.325 18.4969 134.012 19.0261 133.819 19.6017C133.626 20.1774 133.556 20.7868 133.614 21.3907C133.558 22.5976 133.987 23.7769 134.806 24.6709C135.625 25.5648 136.768 26.1004 137.984 26.1605Z" fill="#2E4276"/>
<path d="M52.6667 28.2065L52.7783 34.6765C52.7899 34.7431 52.7854 34.8116 52.7653 34.8761C52.745 34.9406 52.7094 34.9995 52.6617 35.0477C52.6139 35.0958 52.5552 35.1321 52.4906 35.1533C52.426 35.1745 52.357 35.1802 52.2897 35.1697H48.545C48.4687 35.1799 48.3909 35.1724 48.3181 35.1476C48.2452 35.123 48.1791 35.0816 48.1251 35.0273C48.071 34.9728 48.0306 34.9067 48.0067 34.834C47.9829 34.7613 47.9765 34.6841 47.9879 34.6086V12.9196C47.9879 12.5398 48.1794 12.367 48.5621 12.401L52.0069 12.6815C52.1076 12.6862 52.2041 12.7225 52.2828 12.7851C52.3613 12.8478 52.4178 12.9336 52.444 13.0301L52.5811 13.4467C52.7124 13.8662 52.9553 13.9455 53.3095 13.6848C61.4846 7.71629 70.2767 18.8966 64.2354 26.574C61.6074 29.9125 57.8569 30.3886 52.9838 28.0024C52.7668 27.8946 52.6611 27.9627 52.6667 28.2065ZM56.9995 25.4092C58.1571 25.3429 59.2411 24.8243 60.0142 23.9669C60.7875 23.1095 61.1868 21.983 61.1247 20.8342C61.1717 20.2583 61.0972 19.679 60.9058 19.1332C60.7145 18.5873 60.4107 18.0871 60.0136 17.6645C59.6165 17.2418 59.135 16.9058 58.5998 16.678C58.0645 16.4502 57.4873 16.3357 56.905 16.3415C56.3226 16.3475 55.7478 16.4738 55.2174 16.7124C54.687 16.951 54.2125 17.2967 53.8244 17.7275C53.4361 18.1582 53.1426 18.6645 52.9626 19.2141C52.7827 19.7636 52.7202 20.3443 52.779 20.9193C52.7414 22.0692 53.1643 23.1871 53.9554 24.0283C54.7466 24.8694 55.8414 25.3655 57.0003 25.4076L56.9995 25.4092Z" fill="#2E4276"/>
<path d="M75.6671 14.3319C77.1298 13.0051 79.041 12.2709 81.0229 12.2744C81.0749 12.2655 81.1282 12.2689 81.1785 12.2844C81.2286 12.2999 81.2746 12.327 81.3122 12.3635C81.3498 12.4001 81.3782 12.445 81.3949 12.4945C81.4118 12.544 81.4164 12.5968 81.4085 12.6485V16.6954C81.4091 16.7669 81.394 16.8377 81.3645 16.9028C81.3348 16.968 81.2915 17.0261 81.2372 17.0729C81.1824 17.1206 81.1182 17.1562 81.0486 17.1776C80.9792 17.1991 80.9059 17.2057 80.8335 17.1971C73.5753 16.279 75.6834 25.7333 75.5977 29.8483C75.6047 29.9076 75.5978 29.9678 75.5778 30.0242C75.5577 30.0805 75.525 30.1315 75.4818 30.1733C75.4389 30.2151 75.3869 30.2468 75.3297 30.2656C75.2726 30.2844 75.2118 30.2899 75.1521 30.2818H70.8083C70.7351 30.2923 70.6603 30.2856 70.59 30.2623C70.5196 30.239 70.4559 30.1999 70.4035 30.1479C70.3511 30.096 70.3117 30.0326 70.2883 29.9628C70.2648 29.8931 70.258 29.8189 70.2684 29.7462V13.0651C70.2602 13.0073 70.2654 12.9485 70.2841 12.8931C70.3028 12.8378 70.3339 12.7875 70.3756 12.7463C70.4171 12.705 70.4679 12.674 70.5237 12.6555C70.5794 12.6371 70.6388 12.6317 70.697 12.64H74.6131C74.7579 12.6399 74.897 12.6958 75.001 12.7958C75.1049 12.8958 75.1657 13.032 75.1702 13.1756L75.2043 14.1449C75.2215 14.5303 75.3757 14.5926 75.6671 14.3319Z" fill="#2E4276"/>
<path d="M102.403 21.4217C102.403 26.4745 97.9952 30.57 92.5571 30.57C87.119 30.57 82.7109 26.4745 82.7109 21.4217C82.7109 16.3689 87.119 12.2734 92.5571 12.2734C97.9952 12.2734 102.403 16.3689 102.403 21.4217ZM92.6676 26.2161C93.8901 26.1331 95.03 25.5732 95.8377 24.6589C96.6455 23.7446 97.0554 22.5501 96.978 21.3368C97.0295 20.7279 96.9521 20.1149 96.7503 19.5375C96.5486 18.9603 96.2272 18.4313 95.8068 17.9846C95.3865 17.5382 94.8764 17.1839 94.3096 16.9448C93.743 16.7057 93.132 16.5871 92.5161 16.5965C91.9003 16.6061 91.2934 16.7434 90.7343 16.9999C90.1753 17.2563 89.6767 17.6261 89.2705 18.0854C88.8642 18.5447 88.5595 19.0833 88.3761 19.6667C88.1925 20.2499 88.1341 20.8649 88.2047 21.4719C88.1656 22.6876 88.6133 23.8691 89.4498 24.758C90.2862 25.6471 91.4426 26.1713 92.6676 26.2161Z" fill="#2E4276"/>
<path d="M110.973 29.261V36.1222C110.983 36.1949 110.977 36.2691 110.953 36.3388C110.93 36.4085 110.89 36.4718 110.838 36.5239C110.786 36.5759 110.722 36.615 110.651 36.6383C110.581 36.6616 110.506 36.6681 110.433 36.6578H106.157C106.086 36.6578 106.016 36.644 105.95 36.6171C105.885 36.5902 105.825 36.5507 105.775 36.501C105.725 36.4512 105.685 36.3921 105.658 36.3272C105.631 36.2623 105.617 36.1925 105.617 36.1222V13.0644C105.609 13.0067 105.614 12.9478 105.633 12.8925C105.651 12.8372 105.683 12.7869 105.724 12.7456C105.766 12.7044 105.816 12.6733 105.872 12.6548C105.928 12.6364 105.987 12.6311 106.046 12.6393H110.116C110.335 12.6376 110.546 12.716 110.71 12.8595C110.846 12.9922 110.848 13.1401 110.716 13.226C110.643 13.2761 110.586 13.3462 110.553 13.4277C110.519 13.5093 110.51 13.5987 110.527 13.6851C110.579 14.0535 110.761 14.1357 111.076 13.9317C120.108 7.92914 129.508 19.3051 122.807 27.4755C119.979 30.9275 116.123 31.4659 111.239 29.0909C111.061 29.0059 110.973 29.0626 110.973 29.261ZM115.275 26.2258C116.494 26.1534 117.636 25.6054 118.449 24.7012C119.263 23.7972 119.684 22.6105 119.619 21.4C119.679 20.7927 119.61 20.1798 119.416 19.6009C119.222 19.022 118.908 18.4899 118.493 18.0391C118.079 17.5883 117.574 17.2286 117.011 16.9837C116.448 16.7387 115.839 16.6138 115.224 16.6168C114.609 16.6199 114.002 16.7511 113.441 17.0018C112.881 17.2524 112.379 17.6171 111.97 18.0721C111.56 18.527 111.252 19.0623 111.064 19.6432C110.876 20.224 110.813 20.8375 110.879 21.4442C110.826 22.6557 111.26 23.8385 112.083 24.7345C112.907 25.6303 114.054 26.1665 115.275 26.2258Z" fill="#2E4276"/>
<path d="M161.121 28.8719C152.895 34.6874 144.223 23.7961 153.598 20.2508C154.673 19.8484 157.066 19.65 160.78 19.6557C161.151 19.6557 161.283 19.4771 161.174 19.1201C159.982 15.1325 155.123 16.3398 152.459 17.9042C152.408 17.9335 152.353 17.952 152.295 17.9589C152.238 17.9656 152.178 17.9605 152.123 17.9436C152.068 17.9269 152.016 17.8989 151.972 17.8612C151.928 17.8238 151.892 17.7776 151.868 17.7257L150.445 14.7839C150.414 14.7372 150.394 14.6844 150.388 14.6293C150.381 14.5742 150.385 14.5183 150.403 14.4654C150.42 14.4125 150.45 14.3641 150.487 14.3237C150.526 14.2832 150.572 14.2516 150.624 14.2313C156.555 10.9835 166.246 11.06 166.436 19.9532C166.498 23.1671 166.595 26.3865 166.727 29.6116C166.742 29.6943 166.737 29.7794 166.713 29.86C166.689 29.9406 166.646 30.0142 166.588 30.0749C166.528 30.1355 166.456 30.1815 166.376 30.2088C166.295 30.2363 166.21 30.2442 166.127 30.2323L162.536 30.2748C162.395 30.2751 162.257 30.2308 162.144 30.1482C162.029 30.0657 161.944 29.9491 161.902 29.8156L161.653 29.0504C161.562 28.7444 161.384 28.6849 161.121 28.8719ZM160.591 22.8269L154.977 23.422C154.891 23.4328 154.812 23.4771 154.756 23.5455C154.703 23.614 154.677 23.701 154.686 23.7876L154.773 24.6464C154.812 24.9879 154.923 25.3175 155.1 25.6135C155.276 25.9097 155.513 26.1659 155.795 26.3656C156.397 26.7936 157.139 26.9839 157.875 26.8994L158.5 26.8315C159.236 26.7583 159.92 26.4157 160.415 25.8707C160.648 25.6159 160.824 25.3156 160.933 24.989C161.041 24.6624 161.08 24.3169 161.045 23.9748L160.959 23.1245C160.954 23.0809 160.942 23.0385 160.921 22.9999C160.9 22.9612 160.872 22.9272 160.838 22.8994C160.803 22.8718 160.763 22.8511 160.721 22.8387C160.68 22.8263 160.635 22.8222 160.591 22.8269Z" fill="#2E4276"/>
<path d="M182.982 20.9307C183.628 21.247 184.191 21.7117 184.621 22.2866C185.052 22.8614 185.337 23.5297 185.457 24.2363C185.575 24.9426 185.521 25.6669 185.3 26.3488C185.08 27.0307 184.7 27.6508 184.189 28.1576C180.856 31.6094 173.803 30.8017 169.871 28.9313C169.799 28.9084 169.733 28.8701 169.68 28.819C169.624 28.7681 169.583 28.7057 169.556 28.6366C169.529 28.5673 169.517 28.493 169.523 28.419C169.529 28.3449 169.55 28.2731 169.587 28.2086L170.769 25.3688C170.798 25.3004 170.841 25.2385 170.895 25.1871C170.949 25.1358 171.013 25.0961 171.083 25.0706C171.153 25.045 171.228 25.0341 171.302 25.0386C171.375 25.0431 171.449 25.0629 171.516 25.0968C173.927 26.3457 176.691 26.7557 179.365 26.2616C179.629 26.211 179.868 26.072 180.041 25.8678C180.214 25.6636 180.311 25.4064 180.317 25.1395C180.322 24.8726 180.235 24.612 180.069 24.4015C179.904 24.1909 179.669 24.0433 179.408 23.9829C175.86 23.2093 167.608 22.5547 170.075 16.3905C172.141 11.2213 180.29 11.7059 184.386 13.6784C184.506 13.7365 184.598 13.8371 184.646 13.96C184.694 14.083 184.692 14.2192 184.643 14.3416L183.504 17.1048C183.479 17.1675 183.44 17.2242 183.391 17.2715C183.341 17.3189 183.285 17.3559 183.22 17.3802C183.156 17.4048 183.088 17.4166 183.017 17.4145C182.949 17.4125 182.882 17.3968 182.819 17.3683C180.622 16.3414 178.144 16.0693 175.775 16.5946C175.537 16.6456 175.321 16.7676 175.155 16.944C174.989 17.1205 174.882 17.3432 174.848 17.582C174.812 17.8209 174.852 18.0645 174.961 18.28C175.07 18.4957 175.243 18.6729 175.457 18.7882C177.676 19.987 180.453 19.6299 182.982 20.9307Z" fill="#2E4276"/>
<path d="M192.716 23.049C192.668 23.0486 192.622 23.061 192.581 23.0848C192.541 23.1087 192.508 23.1431 192.486 23.1843C192.464 23.2256 192.453 23.272 192.456 23.3186C192.459 23.3652 192.474 23.4101 192.501 23.4486C194.936 26.7928 197.976 27.2577 201.628 24.843C201.672 24.807 201.723 24.7805 201.778 24.7648C201.834 24.7491 201.892 24.7446 201.948 24.7518C202.005 24.759 202.06 24.7776 202.11 24.8064C202.159 24.8352 202.202 24.8737 202.237 24.9196L204.207 27.096C204.686 27.6232 204.621 28.0681 204.01 28.4308C197.385 32.4014 188.191 30.4969 187.172 22.1904C185.715 10.3639 206.23 7.83874 205.998 22.2498C205.992 22.4667 205.901 22.6728 205.745 22.8238C205.588 22.9748 205.377 23.0587 205.158 23.0575L192.716 23.049ZM192.595 19.6397L200.771 19.6823C200.792 19.6823 200.812 19.6745 200.829 19.6603C200.844 19.6463 200.854 19.6267 200.856 19.6057V19.5291C200.844 19.1031 200.73 18.686 200.526 18.3115C200.32 17.9371 200.029 17.6158 199.675 17.3739C198.836 16.7754 197.827 16.4582 196.794 16.4684H196.606C194.355 16.4564 192.522 17.8032 192.51 19.4782V19.5546C192.51 19.5772 192.519 19.5988 192.535 19.6148C192.552 19.6308 192.573 19.6397 192.595 19.6397Z" fill="#2E4276"/>
<path d="M22.6488 0.967508C30.5496 6.08012 35.7712 9.62551 38.3134 11.6037C40.4986 13.3041 39.6245 30.0873 39.6074 33.4372C39.5816 38.2664 38.0307 40.6979 33.0519 40.6979C23.677 40.6922 14.3022 40.6951 4.92736 40.7064C1.77385 40.7064 0.0171386 37.8242 0.00856931 34.7379C-0.00285644 27.7946 -0.00285644 20.854 0.00856931 13.9163C0.00856931 13.0264 0.65698 12.1223 1.9538 11.2041C9.60906 5.78538 14.8963 2.2315 17.8157 0.542401C19.2953 -0.302143 20.9063 -0.160441 22.6488 0.967508ZM35.7084 14.1628L21.0976 4.43638C20.7607 4.21268 20.3665 4.08903 19.9612 4.08C19.5558 4.07095 19.1563 4.17689 18.8097 4.38536C14.7878 6.78297 10.7288 9.40162 6.63265 12.2413C4.58458 13.6612 3.42773 14.1373 3.41059 16.4668C3.38774 22.6847 3.40772 28.9026 3.47057 35.1205C3.48771 36.719 4.4989 37.5097 6.10992 37.5097C15.5076 37.5154 24.7082 37.5125 33.7117 37.5012C34.0093 37.5018 34.3041 37.4441 34.5794 37.3316C34.8547 37.219 35.1049 37.0539 35.3156 36.8456C35.5266 36.637 35.6939 36.3895 35.8084 36.1168C35.9229 35.8442 35.982 35.5519 35.9826 35.2565C35.9939 28.455 35.9968 21.6447 35.9911 14.826C36.005 14.7007 35.9863 14.5739 35.9368 14.4579C35.8874 14.3418 35.8087 14.2402 35.7084 14.1628Z" fill="#2E4276"/>
<path d="M24.4661 18.7469L23.1806 17.7181C23.1038 17.6572 23.0411 17.5804 22.9967 17.4932C22.9523 17.4062 22.9273 17.3105 22.9236 17.2131C22.92 17.1162 22.9382 17.0199 22.9766 16.9308C23.0149 16.8417 23.0726 16.7621 23.1456 16.6978L24.7052 15.3119C24.757 15.2532 24.8209 15.2062 24.8925 15.174C24.9643 15.1417 25.0421 15.125 25.1208 15.125C25.1994 15.125 25.2772 15.1417 25.3489 15.174C25.4205 15.2062 25.4846 15.2532 25.5364 15.3119L30.2837 19.614C30.5435 19.8505 30.7255 20.159 30.8058 20.4995C30.8862 20.8398 30.8613 21.1965 30.7346 21.5228C30.6078 21.8485 30.3842 22.1284 30.0934 22.3251C29.8026 22.5217 29.4583 22.6259 29.1064 22.6238L9.46974 22.6153C9.33777 22.6155 9.20854 22.5779 9.09757 22.5069C8.98662 22.436 8.89863 22.335 8.84419 22.2157C8.66167 21.8586 8.56229 21.4655 8.55339 21.0652C8.54449 20.6649 8.6263 20.2678 8.79277 19.9031C8.851 19.7609 8.95245 19.6403 9.083 19.558C9.21356 19.4758 9.36671 19.4359 9.52117 19.444H24.2175C24.2996 19.4446 24.3798 19.4198 24.4469 19.3731C24.5141 19.3263 24.565 19.2601 24.5923 19.1833C24.6197 19.1066 24.6222 19.0233 24.5997 18.9449C24.577 18.8667 24.5302 18.7975 24.4661 18.7469Z" fill="#2E4276"/>
<path d="M14.9514 28.0025L15.7056 28.7592C15.7668 28.8026 15.8162 28.8601 15.8498 28.9268C15.8834 28.9935 15.9001 29.0674 15.8984 29.1419C15.8966 29.2166 15.8766 29.2896 15.8401 29.3548C15.8035 29.4199 15.7516 29.4753 15.6884 29.5159L14.3345 30.7402C14.1947 30.8644 14.014 30.934 13.8263 30.9355C13.6385 30.9371 13.4567 30.8707 13.3148 30.7487C11.818 29.4676 10.3698 28.1385 8.97012 26.7611C8.7728 26.5677 8.64102 26.3181 8.59307 26.047C8.23317 24.0915 9.66424 23.6749 11.3095 23.6919C17.4224 23.7486 23.4494 23.8392 29.3908 23.964C29.539 23.9673 29.685 23.9997 29.8206 24.0593C29.956 24.1188 30.0782 24.2044 30.1803 24.3111C30.2823 24.4178 30.3618 24.5435 30.4147 24.681C30.4674 24.8183 30.4923 24.9648 30.4877 25.1118C30.4534 26.4324 29.9993 27.104 29.1251 27.1267C24.6978 27.2458 20.0674 27.3109 15.2343 27.3223C14.583 27.3223 14.4888 27.549 14.9514 28.0025Z" fill="#2E4276"/>
</svg>
