<svg width="106" height="22" viewBox="0 0 106 22" fill="none" xmlns="http://www.w3.org/2000/svg">
<path d="M57.3989 16.5747C57.175 17.6113 55.1658 17.3778 54.3793 17.2752C54.2934 17.2635 54.2146 17.2213 54.1576 17.1564C54.1006 17.0914 54.0692 17.0082 54.0693 16.9221L54.1267 1.37309C54.1168 1.30393 54.1238 1.23342 54.147 1.16748C54.1702 1.10154 54.2091 1.04209 54.2602 0.994108C54.3114 0.94613 54.3734 0.911024 54.4411 0.891738C54.5088 0.872451 54.5801 0.869545 54.6491 0.883263L57.2439 0.997176C57.3272 1.00013 57.406 1.03503 57.4638 1.09453C57.5217 1.15403 57.554 1.23348 57.5539 1.31613V6.05488C57.5539 6.31688 57.6668 6.37763 57.8926 6.23714C63.9145 2.48373 69.592 9.76842 65.6998 15.1337C64.0886 17.3512 61.6795 17.953 58.4724 16.9392C58.3909 16.9163 58.3169 16.8727 58.2575 16.8128C58.1981 16.7529 58.1555 16.6787 58.1337 16.5975C58.1281 16.5488 58.1123 16.5017 58.0874 16.4594C58.0626 16.417 58.0291 16.3802 57.9892 16.3513C57.9493 16.3224 57.9038 16.3021 57.8555 16.2915C57.8073 16.2809 57.7574 16.2804 57.7089 16.2899C57.6327 16.2965 57.5609 16.328 57.5047 16.3796C57.4486 16.4312 57.4114 16.4998 57.3989 16.5747ZM60.4357 14.5243C61.2504 14.484 62.0158 14.1252 62.5644 13.5264C63.1131 12.9275 63.4004 12.1375 63.3634 11.329C63.4022 10.9244 63.3553 10.5162 63.2258 10.1305C63.0963 9.74491 62.8871 9.39038 62.6114 9.08967C62.3358 8.78896 61.9999 8.54871 61.6252 8.3843C61.2505 8.2199 60.8454 8.13498 60.4357 8.13498C60.026 8.13498 59.6209 8.2199 59.2462 8.3843C58.8715 8.54871 58.5356 8.78896 58.26 9.08967C57.9843 9.39038 57.775 9.74491 57.6455 10.1305C57.5161 10.5162 57.4692 10.9244 57.508 11.329C57.471 12.1375 57.7583 12.9275 58.3069 13.5264C58.8556 14.1252 59.621 14.484 60.4357 14.5243Z" fill="#fff"/>
<path d="M3.28213 15.897L3.35675 20.2313C3.36461 20.2759 3.36163 20.3218 3.34806 20.365C3.33448 20.4082 3.31072 20.4477 3.27872 20.48C3.24673 20.5122 3.20743 20.5365 3.1641 20.5507C3.12076 20.5649 3.07463 20.5687 3.02954 20.5617H0.520889C0.469757 20.5685 0.417719 20.5635 0.368898 20.5469C0.320077 20.5304 0.275812 20.5027 0.239608 20.4663C0.203404 20.4298 0.176257 20.3855 0.160313 20.3368C0.144369 20.2881 0.140065 20.2364 0.147747 20.1858V5.65626C0.147747 5.40185 0.275953 5.28604 0.532368 5.30883L2.8401 5.49678C2.90754 5.49991 2.97224 5.52421 3.02486 5.56618C3.07748 5.60815 3.1153 5.66562 3.13287 5.7303L3.22472 6.00939C3.31274 6.29037 3.47539 6.34353 3.71267 6.16886C9.18923 2.17054 15.0791 9.66028 11.032 14.8034C9.27151 17.0399 6.75903 17.3588 3.49453 15.7603C3.3491 15.6881 3.2783 15.7337 3.28213 15.897ZM6.18459 14.0231C6.9601 13.9787 7.6863 13.6313 8.20424 13.0569C8.72217 12.4825 8.98965 11.7279 8.94812 10.9583C8.9796 10.5725 8.92966 10.1844 8.8015 9.81875C8.67334 9.45314 8.46977 9.11804 8.20378 8.83485C7.93779 8.55166 7.61523 8.32659 7.25667 8.174C6.8981 8.02141 6.51142 7.94465 6.12129 7.94863C5.73115 7.9526 5.34614 8.03722 4.99081 8.19708C4.63548 8.35694 4.31764 8.58854 4.05757 8.87709C3.79749 9.16564 3.6009 9.50481 3.48034 9.87296C3.35977 10.2411 3.31788 10.6301 3.35733 11.0153C3.33206 11.7856 3.61543 12.5345 4.14542 13.098C4.67541 13.6615 5.40884 13.9938 6.18516 14.022L6.18459 14.0231Z" fill="#fff"/>
<path d="M18.6896 6.60156C19.6695 5.7127 20.9498 5.22086 22.2775 5.22322C22.3123 5.21724 22.348 5.21954 22.3817 5.22992C22.4153 5.2403 22.4461 5.25848 22.4713 5.28295C22.4965 5.30742 22.5155 5.33749 22.5267 5.37068C22.538 5.40386 22.5411 5.43922 22.5358 5.47383V8.18494C22.5362 8.23281 22.5261 8.28018 22.5063 8.32382C22.4864 8.36747 22.4574 8.40635 22.421 8.43783C22.3843 8.46972 22.3413 8.4936 22.2947 8.50792C22.2482 8.52225 22.1991 8.5267 22.1506 8.52098C17.2883 7.90586 18.7005 14.2394 18.6431 16.9961C18.6478 17.0358 18.6432 17.0761 18.6298 17.1139C18.6163 17.1516 18.5944 17.1858 18.5655 17.2138C18.5367 17.2418 18.5019 17.263 18.4636 17.2756C18.4253 17.2882 18.3846 17.2919 18.3446 17.2865H15.4347C15.3856 17.2935 15.3355 17.289 15.2884 17.2734C15.2413 17.2578 15.1986 17.2316 15.1635 17.1968C15.1284 17.162 15.102 17.1195 15.0863 17.0728C15.0706 17.0261 15.066 16.9764 15.073 16.9277V5.75291C15.0675 5.71423 15.071 5.6748 15.0835 5.63773C15.096 5.60066 15.1169 5.56697 15.1448 5.53934C15.1726 5.51171 15.2066 5.4909 15.244 5.47854C15.2813 5.46618 15.3211 5.46261 15.3601 5.46813H17.9835C18.0805 5.46809 18.1737 5.50553 18.2434 5.57251C18.313 5.63949 18.3537 5.73076 18.3567 5.82696L18.3796 6.47626C18.3911 6.73446 18.4944 6.77623 18.6896 6.60156Z" fill="#fff"/>
<path d="M36.6002 11.3516C36.6002 14.7365 33.6472 17.4801 30.0042 17.4801C26.3612 17.4801 23.4082 14.7365 23.4082 11.3516C23.4082 7.96672 26.3612 5.22314 30.0042 5.22314C33.6472 5.22314 36.6002 7.96672 36.6002 11.3516ZM30.0782 14.5634C30.8972 14.5078 31.6608 14.1327 32.2019 13.5202C32.743 12.9077 33.0176 12.1075 32.9658 11.2947C33.0003 10.8868 32.9484 10.4762 32.8132 10.0894C32.6781 9.70268 32.4628 9.3483 32.1812 9.04913C31.8996 8.74997 31.5579 8.51266 31.1782 8.35249C30.7986 8.19233 30.3893 8.11286 29.9767 8.11922C29.5642 8.12558 29.1576 8.21761 28.7831 8.3894C28.4086 8.56118 28.0746 8.80891 27.8025 9.1166C27.5303 9.4243 27.3262 9.78514 27.2033 10.1759C27.0803 10.5666 27.0412 10.9786 27.0885 11.3852C27.0623 12.1996 27.3622 12.9911 27.9226 13.5866C28.4829 14.1822 29.2576 14.5334 30.0782 14.5634Z" fill="#fff"/>
<path d="M42.3409 16.603V21.1994C42.3479 21.2481 42.3434 21.2978 42.3277 21.3445C42.312 21.3912 42.2855 21.4336 42.2505 21.4685C42.2154 21.5033 42.1726 21.5295 42.1255 21.5451C42.0785 21.5607 42.0284 21.5651 41.9793 21.5582H39.1147C39.0672 21.5582 39.0202 21.5489 38.9763 21.5309C38.9324 21.5129 38.8925 21.4864 38.859 21.4531C38.8254 21.4198 38.7987 21.3802 38.7806 21.3367C38.7624 21.2932 38.753 21.2465 38.753 21.1994V5.75287C38.7475 5.71419 38.7511 5.67475 38.7635 5.63768C38.776 5.60062 38.797 5.56693 38.8248 5.5393C38.8527 5.51167 38.8866 5.49085 38.924 5.47849C38.9613 5.46613 39.0011 5.46257 39.0401 5.46809H41.7669C41.9133 5.46696 42.0549 5.51949 42.1647 5.61561C42.256 5.70446 42.2571 5.80356 42.1687 5.86109C42.1199 5.89469 42.0819 5.94165 42.0595 5.99626C42.0371 6.05086 42.0311 6.11076 42.0424 6.16865C42.0769 6.41546 42.1993 6.47052 42.4098 6.33383C48.4604 2.31272 54.7579 9.93345 50.2687 15.4069C48.3743 17.7194 45.791 18.0801 42.5189 16.4891C42.4002 16.4321 42.3409 16.4701 42.3409 16.603ZM45.2227 14.5697C46.0397 14.5212 46.8043 14.1541 47.3495 13.5484C47.8948 12.9428 48.1765 12.1478 48.1332 11.3369C48.1733 10.9301 48.1269 10.5195 47.9969 10.1317C47.867 9.74387 47.6565 9.38742 47.379 9.0854C47.1015 8.78338 46.7631 8.54252 46.3859 8.3784C46.0086 8.21428 45.6009 8.13055 45.1889 8.13264C44.777 8.13472 44.3702 8.22257 43.9946 8.39049C43.6191 8.55842 43.2832 8.80269 43.0088 9.1075C42.7344 9.41232 42.5276 9.77088 42.4017 10.16C42.2757 10.5491 42.2335 10.9601 42.2778 11.3665C42.2428 12.1781 42.533 12.9705 43.0848 13.5707C43.6367 14.1708 44.4049 14.53 45.2227 14.5697Z" fill="#fff"/>
<path d="M75.9354 16.341C70.4244 20.2368 64.6149 12.9407 70.8952 10.5657C71.6147 10.2961 73.2182 10.1632 75.7058 10.167C75.9546 10.167 76.0426 10.0474 75.9699 9.80815C75.1719 7.13691 71.917 7.94569 70.1317 8.99368C70.0981 9.01325 70.0608 9.02571 70.0222 9.03026C69.9836 9.03481 69.9444 9.03135 69.9072 9.02011C69.8699 9.00887 69.8354 8.99009 69.8059 8.96495C69.7764 8.93981 69.7524 8.90887 69.7356 8.87407L68.7826 6.90339C68.7624 6.87208 68.7493 6.8367 68.7445 6.79981C68.7397 6.76291 68.7432 6.72542 68.7547 6.69001C68.7662 6.65461 68.7855 6.62218 68.8112 6.59507C68.8369 6.56795 68.8683 6.54681 68.9032 6.53318C72.8757 4.35745 79.3683 4.40871 79.4946 10.3663C79.5367 12.5193 79.6018 14.676 79.6898 16.8365C79.7002 16.8919 79.6972 16.9489 79.681 17.0029C79.6648 17.0569 79.6358 17.1062 79.5965 17.1469C79.5573 17.1875 79.5088 17.2183 79.4551 17.2366C79.4014 17.255 79.3441 17.2603 79.288 17.2523L76.8826 17.2808C76.7881 17.281 76.6959 17.2513 76.6195 17.196C76.5431 17.1407 76.4865 17.0626 76.4578 16.9732L76.2913 16.4606C76.2301 16.2556 76.1115 16.2157 75.9354 16.341ZM75.5795 12.2914L71.8194 12.6901C71.7609 12.6973 71.7077 12.727 71.6711 12.7728C71.6346 12.8187 71.6177 12.877 71.6242 12.935L71.6816 13.5103C71.7084 13.7391 71.7832 13.9599 71.9013 14.1582C72.0193 14.3566 72.178 14.5282 72.3671 14.662C72.7704 14.9487 73.2668 15.0762 73.7597 15.0196L74.1788 14.9741C74.6722 14.9251 75.1295 14.6956 75.4618 14.3305C75.6178 14.1598 75.7359 13.9586 75.8086 13.7398C75.8813 13.521 75.9069 13.2896 75.8838 13.0604L75.8264 12.4908C75.8235 12.4616 75.8148 12.4332 75.8008 12.4073C75.7868 12.3814 75.7678 12.3586 75.7449 12.34C75.7219 12.3215 75.6955 12.3076 75.6671 12.2993C75.6387 12.291 75.6089 12.2883 75.5795 12.2914Z" fill="#fff"/>
<path d="M90.5797 11.0215C91.0135 11.2334 91.3902 11.5447 91.6785 11.9298C91.9668 12.3149 92.1585 12.7626 92.2376 13.2359C92.3167 13.7091 92.281 14.1943 92.1335 14.6511C91.9859 15.1079 91.7307 15.5233 91.3891 15.8628C89.156 18.1752 84.4315 17.6341 81.7965 16.3811C81.7488 16.3658 81.7052 16.3401 81.6688 16.3059C81.6323 16.2718 81.604 16.23 81.5859 16.1837C81.5677 16.1373 81.5602 16.0875 81.5639 16.0379C81.5676 15.9883 81.5823 15.9402 81.6071 15.897L82.3993 13.9946C82.4184 13.9488 82.4469 13.9073 82.4829 13.8729C82.5189 13.8385 82.5618 13.8119 82.6087 13.7948C82.6557 13.7777 82.7057 13.7704 82.7556 13.7734C82.8055 13.7764 82.8542 13.7897 82.8987 13.8124C84.5141 14.649 86.3657 14.9237 88.1571 14.5927C88.3342 14.5588 88.4941 14.4657 88.6102 14.3289C88.7263 14.1921 88.7914 14.0198 88.7948 13.841C88.7982 13.6622 88.7395 13.4876 88.6286 13.3466C88.5178 13.2055 88.3615 13.1066 88.1858 13.0662C85.8092 12.5479 80.281 12.1094 81.9343 7.98005C83.3178 4.51712 88.7771 4.84176 91.5211 6.16315C91.601 6.20206 91.6631 6.26943 91.695 6.3518C91.7269 6.43416 91.7263 6.52545 91.6934 6.60741L90.9299 8.45848C90.9125 8.50045 90.8867 8.53847 90.8541 8.5702C90.8214 8.60193 90.7825 8.62671 90.7399 8.64302C90.6967 8.65954 90.6507 8.66735 90.6044 8.66598C90.5582 8.66461 90.5127 8.65409 90.4706 8.63504C88.9993 7.94713 87.3391 7.76478 85.7518 8.11674C85.5926 8.15088 85.4477 8.23256 85.3366 8.35081C85.2256 8.46905 85.1536 8.61819 85.1305 8.77818C85.1074 8.93818 85.1342 9.10136 85.2073 9.24581C85.2804 9.39026 85.3963 9.50905 85.5394 9.58621C87.0262 10.3893 88.8862 10.1501 90.5797 11.0215Z" fill="#fff"/>
<path d="M97.1007 12.4396C97.0692 12.4393 97.0382 12.4476 97.0111 12.4636C96.984 12.4796 96.9619 12.5026 96.9471 12.5302C96.9323 12.5579 96.9254 12.589 96.9272 12.6202C96.929 12.6514 96.9393 12.6815 96.9572 12.7073C98.5875 14.9476 100.625 15.259 103.071 13.6414C103.101 13.6173 103.135 13.5995 103.172 13.589C103.209 13.5785 103.248 13.5755 103.286 13.5803C103.324 13.5851 103.361 13.5976 103.394 13.6169C103.427 13.6362 103.456 13.662 103.479 13.6927L104.799 15.1507C105.12 15.5039 105.076 15.8019 104.667 16.0449C100.229 18.7048 94.0697 17.429 93.3865 11.8644C92.4106 3.94177 106.154 2.25017 105.999 11.9042C105.995 12.0495 105.934 12.1876 105.829 12.2887C105.724 12.3899 105.583 12.4461 105.436 12.4453L97.1007 12.4396ZM97.0204 10.1557L102.497 10.1842C102.511 10.1842 102.525 10.179 102.536 10.1695C102.546 10.1601 102.553 10.147 102.554 10.1329V10.0816C102.546 9.79624 102.47 9.51679 102.333 9.26594C102.195 9.0151 102 8.7999 101.763 8.6378C101.201 8.23687 100.525 8.02436 99.8333 8.03122H99.707C98.1989 8.02324 96.971 8.92543 96.9629 10.0475V10.0987C96.9629 10.1138 96.969 10.1283 96.9798 10.139C96.9905 10.1497 97.0051 10.1557 97.0204 10.1557Z" fill="#fff"/>
</svg>
