<svg width="16" height="16" viewBox="0 0 16 16" fill="none" xmlns="http://www.w3.org/2000/svg">
<g id="Group 64072">
<path id="Vector" d="M2.03073 3.31792L2.0307 3.31795C1.46471 3.99046 1.01387 4.7608 0.709273 5.59531L2.03073 3.31792ZM2.03073 3.31792C2.43359 2.83908 3.1471 2.77738 3.62574 3.18007C4.10458 3.58293 4.16627 4.29644 3.76358 4.77508L3.76344 4.77525M2.03073 3.31792L3.76344 4.77525M3.76344 4.77525C3.37203 5.24132 3.05737 5.77776 2.8423 6.36864C2.63812 6.92903 2.52748 7.54023 2.52748 8.1836C2.52748 9.64349 3.12073 10.9677 4.07549 11.9247L4.07569 11.9249M3.76344 4.77525L4.07569 11.9249M4.07569 11.9249C5.0329 12.8822 6.35513 13.4732 7.81489 13.4732C9.27472 13.4732 10.5991 12.8799 11.5541 11.9249C12.5089 10.9701 13.1045 9.64581 13.1045 8.1836C13.1045 7.52668 12.9893 6.90647 12.7806 6.34162L12.7802 6.34068M4.07569 11.9249L12.7802 6.34068M12.7802 6.34068C12.5586 5.74809 12.235 5.2026 11.8251 4.72927L12.7802 6.34068ZM11.9399 3.13034C11.4664 3.54018 11.4151 4.25561 11.8251 4.72923L11.9399 3.13034ZM11.9399 3.13034C12.4134 2.72039 13.1288 2.77167 13.5387 3.24499M11.9399 3.13034L13.5387 3.24499M13.5387 3.24499C14.1209 3.91904 14.5843 4.69754 14.9016 5.54933C15.2109 6.3809 15.3798 7.26792 15.3798 8.1836C15.3798 10.2732 14.5326 12.164 13.1629 13.5337C11.7931 14.9035 9.90437 15.7506 7.81489 15.7506C5.72533 15.7506 3.83444 14.9034 2.46474 13.5337C1.09518 12.1642 0.25 10.2733 0.25 8.1836C0.25 7.28235 0.412691 6.40993 0.709259 5.59535L13.5387 3.24499Z" fill="#D0D6E4" stroke="white" stroke-width="0.5"/>
<path id="Vector_2" d="M8.95326 5.52692C8.95326 6.15463 8.44388 6.66566 7.81452 6.66566C7.18681 6.66566 6.67578 6.15628 6.67578 5.52692V1.38874C6.67578 0.761025 7.18516 0.25 7.81452 0.25C8.44223 0.25 8.95326 0.759374 8.95326 1.38874V5.52692Z" fill="#D0D6E4" stroke="white" stroke-width="0.5"/>
</g>
</svg>
