<svg width="246" height="257" viewBox="0 0 246 257" fill="none" xmlns="http://www.w3.org/2000/svg">
<path d="M140.01 6.09885C188.851 38.3477 221.13 60.711 236.846 73.1886C250.354 83.9144 244.951 189.778 244.845 210.908C244.686 241.369 235.098 256.707 204.32 256.707C146.367 256.671 88.4132 256.689 30.4599 256.76C10.9656 256.76 0.105948 238.58 0.0529738 219.113C-0.0176579 175.316 -0.0176579 131.537 0.0529738 87.7757C0.0529738 82.1625 4.06132 76.46 12.078 70.6681C59.4012 36.4886 92.0861 14.0717 110.132 3.4174C119.279 -1.90974 129.238 -1.01592 140.01 6.09885ZM220.742 89.3309L130.421 27.9795C128.339 26.5684 125.901 25.7885 123.396 25.7315C120.89 25.6745 118.421 26.3427 116.277 27.6577C91.4151 42.781 66.3232 59.2987 41.0017 77.2108C28.341 86.1668 21.1895 89.1701 21.0836 103.864C20.9423 143.085 21.0659 182.306 21.4544 221.526C21.5603 231.608 27.8112 236.596 37.7703 236.596C95.8649 236.632 152.741 236.614 208.399 236.542C210.239 236.546 212.062 236.182 213.763 235.473C215.464 234.763 217.011 233.721 218.314 232.407C219.618 231.092 220.653 229.53 221.36 227.811C222.068 226.091 222.433 224.247 222.437 222.384C222.507 179.481 222.525 136.524 222.49 93.514C222.576 92.7236 222.46 91.9242 222.154 91.192C221.848 90.4597 221.362 89.819 220.742 89.3309Z" fill="white" fill-opacity="0.15"/>
</svg>
