<svg width="124" height="26" viewBox="0 0 124 26" fill="none" xmlns="http://www.w3.org/2000/svg">
<g id="Group 59842">
<g id="Group 166">
<path id="Path 22" d="M80.3301 18.2091C80.129 19.1734 78.3236 18.9561 77.6169 18.8608C77.5397 18.8499 77.4689 18.8106 77.4177 18.7502C77.3664 18.6898 77.3383 18.6124 77.3384 18.5323L77.39 4.06806C77.3811 4.00372 77.3873 3.93814 77.4082 3.87679C77.429 3.81545 77.4639 3.76015 77.5099 3.71552C77.5559 3.67089 77.6116 3.63823 77.6724 3.62029C77.7332 3.60235 77.7973 3.59964 77.8594 3.61241L80.1909 3.71837C80.2657 3.72112 80.3365 3.75358 80.3885 3.80893C80.4404 3.86428 80.4695 3.93818 80.4694 4.01507V8.42321C80.4694 8.66693 80.5709 8.72345 80.7737 8.59276C86.1847 5.10121 91.2862 11.8777 87.7889 16.8686C86.3412 18.9314 84.1764 19.4912 81.2947 18.5482C81.2215 18.5268 81.155 18.4863 81.1016 18.4306C81.0483 18.3748 81.0099 18.3058 80.9904 18.2303C80.9853 18.185 80.9712 18.1412 80.9488 18.1018C80.9265 18.0624 80.8964 18.0282 80.8606 18.0013C80.8247 17.9744 80.7838 17.9555 80.7405 17.9456C80.6971 17.9358 80.6522 17.9353 80.6087 17.9442C80.5402 17.9503 80.4757 17.9796 80.4252 18.0276C80.3748 18.0756 80.3413 18.1394 80.3301 18.2091ZM83.0588 16.3017C83.7908 16.2642 84.4786 15.9305 84.9716 15.3734C85.4646 14.8164 85.7228 14.0814 85.6895 13.3294C85.7244 12.953 85.6823 12.5732 85.5659 12.2145C85.4495 11.8558 85.2615 11.526 85.0138 11.2463C84.7662 10.9665 84.4643 10.743 84.1277 10.5901C83.791 10.4372 83.4269 10.3582 83.0588 10.3582C82.6907 10.3582 82.3267 10.4372 81.99 10.5901C81.6533 10.743 81.3515 10.9665 81.1038 11.2463C80.8562 11.526 80.6681 11.8558 80.5518 12.2145C80.4354 12.5732 80.3933 12.953 80.4281 13.3294C80.3949 14.0814 80.653 14.8164 81.146 15.3734C81.6391 15.9305 82.3268 16.2642 83.0588 16.3017Z" fill="white"/>
<path id="Path 23" d="M31.7035 17.5793L31.7706 21.6112C31.7776 21.6527 31.7749 21.6954 31.7627 21.7356C31.7505 21.7758 31.7292 21.8125 31.7004 21.8425C31.6717 21.8726 31.6364 21.8951 31.5974 21.9084C31.5585 21.9216 31.5171 21.9251 31.4765 21.9185H29.2224C29.1765 21.9249 29.1297 21.9202 29.0858 21.9048C29.042 21.8894 29.0022 21.8637 28.9697 21.8298C28.9371 21.7959 28.9127 21.7546 28.8984 21.7093C28.8841 21.664 28.8802 21.616 28.8871 21.5689V8.05304C28.8871 7.81638 29.0023 7.70865 29.2327 7.72984L31.3063 7.90469C31.3669 7.90759 31.425 7.9302 31.4723 7.96924C31.5196 8.00829 31.5536 8.06175 31.5694 8.12191L31.6519 8.38153C31.731 8.64291 31.8772 8.69236 32.0904 8.52988C37.0113 4.81051 42.3036 11.7777 38.6671 16.562C37.0852 18.6425 34.8277 18.9392 31.8944 17.4521C31.7637 17.385 31.7001 17.4274 31.7035 17.5793ZM34.3115 15.8362C35.0083 15.7949 35.6608 15.4717 36.1262 14.9374C36.5916 14.403 36.832 13.7011 36.7946 12.9852C36.8229 12.6263 36.7781 12.2652 36.6629 11.9251C36.5477 11.585 36.3648 11.2733 36.1258 11.0099C35.8868 10.7464 35.597 10.5371 35.2748 10.3951C34.9526 10.2532 34.6052 10.1818 34.2546 10.1855C33.9041 10.1892 33.5581 10.2679 33.2388 10.4166C32.9195 10.5653 32.6339 10.7807 32.4003 11.0492C32.1666 11.3176 31.9899 11.6331 31.8816 11.9756C31.7733 12.318 31.7356 12.6799 31.7711 13.0382C31.7484 13.7548 32.003 14.4514 32.4792 14.9756C32.9554 15.4998 33.6144 15.8089 34.312 15.8351L34.3115 15.8362Z" fill="white"/>
<path id="Path 24" d="M45.548 8.93266C46.4284 8.10582 47.5788 7.64829 48.7718 7.65049C48.8031 7.64492 48.8351 7.64706 48.8654 7.65672C48.8957 7.66638 48.9233 7.68328 48.946 7.70605C48.9686 7.72881 48.9857 7.75678 48.9958 7.78765C49.0059 7.81852 49.0087 7.85141 49.0039 7.88361V10.4056C49.0042 10.4501 48.9952 10.4942 48.9774 10.5348C48.9596 10.5754 48.9334 10.6115 48.9008 10.6408C48.8678 10.6705 48.8292 10.6927 48.7873 10.706C48.7455 10.7193 48.7013 10.7235 48.6578 10.7182C44.2888 10.146 45.5578 16.0376 45.5062 18.602C45.5104 18.6389 45.5062 18.6764 45.4942 18.7115C45.4821 18.7466 45.4624 18.7785 45.4365 18.8045C45.4106 18.8306 45.3792 18.8502 45.3448 18.862C45.3104 18.8737 45.2739 18.8772 45.2379 18.8722H42.6232C42.5791 18.8786 42.5341 18.8744 42.4918 18.86C42.4495 18.8455 42.4111 18.8211 42.3796 18.7887C42.348 18.7563 42.3243 18.7168 42.3102 18.6734C42.2961 18.6299 42.292 18.5837 42.2983 18.5384V8.14322C42.2933 8.10724 42.2965 8.07055 42.3077 8.03607C42.3189 8.00159 42.3378 7.97026 42.3628 7.94455C42.3878 7.91885 42.4183 7.89948 42.4519 7.88799C42.4854 7.87649 42.5212 7.87318 42.5562 7.87831H44.9135C45.0007 7.87827 45.0844 7.91309 45.147 7.9754C45.2096 8.03771 45.2461 8.12261 45.2488 8.2121L45.2694 8.8161C45.2797 9.05629 45.3726 9.09514 45.548 8.93266Z" fill="white"/>
<path id="Path 25" d="M61.6407 13.3503C61.6407 16.4991 58.9873 19.0512 55.7139 19.0512C52.4405 19.0512 49.7871 16.4991 49.7871 13.3503C49.7871 10.2016 52.4405 7.64941 55.7139 7.64941C58.9873 7.64941 61.6407 10.2016 61.6407 13.3503ZM55.7804 16.338C56.5163 16.2863 57.2024 15.9374 57.6886 15.3676C58.1748 14.7978 58.4216 14.0535 58.375 13.2973C58.4061 12.9179 58.3594 12.536 58.2379 12.1762C58.1165 11.8164 57.923 11.4868 57.67 11.2085C57.417 10.9302 57.11 10.7094 56.7688 10.5604C56.4277 10.4114 56.0599 10.3375 55.6892 10.3434C55.3185 10.3494 54.9532 10.435 54.6167 10.5948C54.2802 10.7546 53.98 10.985 53.7355 11.2712C53.491 11.5575 53.3076 11.8931 53.1971 12.2566C53.0867 12.6201 53.0515 13.0033 53.094 13.3816C53.0705 14.1391 53.3399 14.8754 53.8435 15.4294C54.347 15.9834 55.0431 16.3101 55.7804 16.338Z" fill="white"/>
<path id="Path 26" d="M66.7989 18.2355V22.5111C66.8052 22.5565 66.8011 22.6027 66.787 22.6461C66.7729 22.6896 66.7492 22.7291 66.7176 22.7614C66.6861 22.7938 66.6477 22.8182 66.6054 22.8327C66.5631 22.8472 66.5181 22.8514 66.4739 22.8449H63.9C63.8573 22.8449 63.8151 22.8363 63.7757 22.8195C63.7362 22.8027 63.7004 22.7782 63.6702 22.7472C63.64 22.7162 63.6161 22.6794 63.5998 22.6389C63.5834 22.5984 63.575 22.555 63.575 22.5111V8.1423C63.57 8.10631 63.5733 8.06963 63.5845 8.03515C63.5957 8.00066 63.6145 7.96933 63.6395 7.94363C63.6646 7.91793 63.6951 7.89856 63.7286 7.88706C63.7622 7.87556 63.7979 7.87225 63.8329 7.87739H66.2831C66.4146 7.87633 66.5419 7.9252 66.6406 8.01461C66.7226 8.09726 66.7236 8.18945 66.6442 8.24296C66.6003 8.27422 66.5662 8.31791 66.5461 8.3687C66.5259 8.4195 66.5206 8.47521 66.5307 8.52907C66.5616 8.75866 66.6717 8.80988 66.8608 8.68272C72.2976 4.94216 77.9561 12.0312 73.9224 17.1228C72.2202 19.2739 69.899 19.6095 66.9588 18.1295C66.8522 18.0765 66.7989 18.1118 66.7989 18.2355ZM69.3883 16.344C70.1225 16.2989 70.8094 15.9574 71.2994 15.394C71.7893 14.8306 72.0424 14.0911 72.0035 13.3367C72.0396 12.9583 71.9978 12.5764 71.8811 12.2156C71.7644 11.8549 71.5752 11.5233 71.3258 11.2423C71.0765 10.9614 70.7725 10.7373 70.4335 10.5846C70.0945 10.432 69.7281 10.3541 69.358 10.356C68.9879 10.358 68.6223 10.4397 68.2848 10.5959C67.9474 10.7521 67.6456 10.9793 67.3991 11.2629C67.1525 11.5464 66.9666 11.88 66.8535 12.242C66.7403 12.6039 66.7024 12.9863 66.7422 13.3642C66.7108 14.1193 66.9715 14.8564 67.4674 15.4147C67.9632 15.9729 68.6535 16.307 69.3883 16.344Z" fill="white"/>
<path id="Path 27" d="M96.9861 17.9916C92.0342 21.6156 86.8141 14.8285 92.4571 12.6192C93.1036 12.3684 94.5445 12.2448 96.7797 12.2483C97.0032 12.2483 97.0823 12.137 97.017 11.9145C96.3 9.42962 93.3753 10.182 91.7711 11.1568C91.741 11.1751 91.7075 11.1866 91.6728 11.1909C91.638 11.1951 91.6028 11.1919 91.5694 11.1814C91.5359 11.171 91.5049 11.1535 91.4784 11.1301C91.4519 11.1067 91.4303 11.0779 91.4152 11.0456L90.5589 9.21239C90.5407 9.18326 90.529 9.15035 90.5247 9.11603C90.5204 9.08171 90.5235 9.04683 90.5339 9.0139C90.5442 8.98097 90.5615 8.9508 90.5846 8.92557C90.6077 8.90035 90.6359 8.88068 90.6673 8.868C94.2367 6.84407 100.071 6.89176 100.184 12.4337C100.222 14.4365 100.28 16.4427 100.36 18.4525C100.369 18.504 100.366 18.5571 100.352 18.6073C100.337 18.6575 100.311 18.7034 100.276 18.7412C100.24 18.779 100.197 18.8076 100.149 18.8247C100.1 18.8418 100.049 18.8468 99.9984 18.8393L97.8372 18.8658C97.7522 18.866 97.6694 18.8383 97.6007 18.7869C97.5321 18.7354 97.4812 18.6629 97.4554 18.5797L97.3059 18.1028C97.2508 17.9121 97.1442 17.875 96.9861 17.9916ZM96.6662 14.2245L93.2876 14.5954C93.2351 14.602 93.1872 14.6297 93.1544 14.6723C93.1216 14.715 93.1064 14.7692 93.1122 14.8232L93.1638 15.3584C93.1879 15.5712 93.2551 15.7765 93.3612 15.9611C93.4673 16.1456 93.6098 16.3052 93.7797 16.4297C94.1421 16.6964 94.5882 16.815 95.0311 16.7624L95.4076 16.72C95.851 16.6744 96.2619 16.461 96.5605 16.1213C96.7006 15.9626 96.8068 15.7754 96.8721 15.5719C96.9374 15.3683 96.9604 15.153 96.9396 14.9398L96.888 14.41C96.8855 14.3828 96.8777 14.3564 96.8651 14.3323C96.8525 14.3082 96.8354 14.287 96.8148 14.2697C96.7942 14.2525 96.7704 14.2396 96.7449 14.2318C96.7194 14.2241 96.6927 14.2216 96.6662 14.2245Z" fill="white"/>
<path id="Path 28" d="M110.143 13.0434C110.533 13.2405 110.872 13.5301 111.131 13.8883C111.39 14.2466 111.562 14.6631 111.633 15.1033C111.704 15.5435 111.672 15.9948 111.54 16.4198C111.407 16.8447 111.178 17.2311 110.871 17.5469C108.864 19.698 104.619 19.1947 102.251 18.029C102.209 18.0148 102.169 17.9909 102.137 17.9592C102.104 17.9274 102.078 17.8885 102.062 17.8454C102.046 17.8023 102.039 17.756 102.042 17.7098C102.046 17.6637 102.059 17.6189 102.081 17.5787L102.793 15.8091C102.81 15.7664 102.836 15.7279 102.868 15.6959C102.9 15.6639 102.939 15.6392 102.981 15.6232C103.023 15.6073 103.068 15.6005 103.113 15.6033C103.158 15.6061 103.202 15.6185 103.242 15.6395C104.693 16.4178 106.357 16.6734 107.967 16.3654C108.126 16.3339 108.269 16.2473 108.374 16.12C108.478 15.9927 108.537 15.8325 108.54 15.6662C108.543 15.4998 108.49 15.3375 108.39 15.2063C108.291 15.0751 108.15 14.983 107.992 14.9455C105.857 14.4633 100.89 14.0554 102.375 10.2141C103.618 6.9928 108.524 7.2948 110.989 8.52399C111.061 8.56019 111.117 8.62286 111.146 8.69948C111.174 8.7761 111.174 8.86102 111.144 8.93726L110.458 10.6592C110.442 10.6982 110.419 10.7336 110.39 10.7631C110.361 10.7926 110.326 10.8157 110.287 10.8309C110.249 10.8462 110.207 10.8535 110.166 10.8522C110.124 10.8509 110.083 10.8412 110.045 10.8234C108.723 10.1835 107.232 10.0139 105.805 10.3413C105.662 10.3731 105.532 10.449 105.432 10.559C105.332 10.669 105.268 10.8078 105.247 10.9566C105.226 11.1054 105.25 11.2572 105.316 11.3916C105.382 11.526 105.486 11.6365 105.615 11.7082C106.95 12.4553 108.622 12.2328 110.143 13.0434Z" fill="white"/>
<path id="Path 29" d="M116.004 14.3626C115.976 14.3623 115.948 14.3701 115.924 14.3849C115.899 14.3998 115.879 14.4212 115.866 14.4469C115.853 14.4726 115.846 14.5015 115.848 14.5306C115.85 14.5596 115.859 14.5877 115.875 14.6116C117.34 16.6956 119.171 16.9853 121.369 15.4806C121.395 15.4581 121.426 15.4416 121.459 15.4318C121.493 15.422 121.527 15.4193 121.562 15.4237C121.596 15.4282 121.629 15.4398 121.659 15.4577C121.688 15.4757 121.714 15.4997 121.735 15.5282L122.921 16.8846C123.21 17.2131 123.17 17.4904 122.803 17.7164C118.815 20.1907 113.28 19.0039 112.667 13.8275C111.79 6.45764 124.139 4.88406 123.999 13.8646C123.996 13.9997 123.941 14.1282 123.847 14.2223C123.752 14.3164 123.625 14.3687 123.494 14.3679L116.004 14.3626ZM115.932 12.238L120.853 12.2645C120.866 12.2646 120.878 12.2597 120.887 12.2509C120.897 12.2421 120.903 12.2299 120.904 12.2168V12.1691C120.897 11.9037 120.829 11.6437 120.705 11.4104C120.582 11.177 120.406 10.9768 120.194 10.826C119.689 10.4531 119.081 10.2554 118.459 10.2618H118.346C116.991 10.2544 115.887 11.0936 115.88 12.1374V12.185C115.88 12.1991 115.886 12.2126 115.895 12.2225C115.905 12.2324 115.918 12.238 115.932 12.238Z" fill="white"/>
</g>
<g id="Group 167">
<path id="Path 20" d="M13.6331 0.602919C18.389 3.78893 21.5321 5.9983 23.0623 7.23102C24.3777 8.29067 23.8515 18.7494 23.8412 20.8369C23.8258 23.8463 22.8921 25.3616 19.8952 25.3616C14.2521 25.3581 8.60904 25.3599 2.96597 25.3669C1.06775 25.3669 0.0103164 23.5708 0.00515821 21.6476C-0.0017194 17.3207 -0.0017194 12.9955 0.00515821 8.67215C0.00515821 8.1176 0.395462 7.55422 1.17607 6.98201C5.78407 3.60526 8.96668 1.39059 10.7239 0.338007C11.6146 -0.188286 12.5843 -0.0999815 13.6331 0.602919ZM21.4942 8.8258L12.6995 2.7646C12.4967 2.6252 12.2594 2.54815 12.0154 2.54252C11.7714 2.53689 11.531 2.6029 11.3223 2.73281C8.90134 4.22692 6.45807 5.85878 3.99245 7.62839C2.75964 8.5132 2.06328 8.8099 2.05297 10.2616C2.03921 14.1364 2.05125 18.0112 2.08907 21.886C2.09939 22.882 2.70806 23.3748 3.6778 23.3748C9.33463 23.3783 14.8728 23.3765 20.2924 23.3695C20.4715 23.3698 20.649 23.3339 20.8147 23.2638C20.9803 23.1937 21.1309 23.0908 21.2579 22.9609C21.3848 22.831 21.4856 22.6767 21.5545 22.5068C21.6233 22.3369 21.659 22.1548 21.6593 21.9707C21.6662 17.7321 21.6679 13.4883 21.6645 9.23906C21.6728 9.16098 21.6616 9.082 21.6318 9.00966C21.602 8.93731 21.5546 8.87401 21.4942 8.8258Z" fill="white"/>
<path id="Path 30" d="M14.7263 11.6808L13.9526 11.0397C13.9063 11.0017 13.8685 10.9539 13.8418 10.8996C13.8151 10.8453 13.8001 10.7858 13.7978 10.725C13.7957 10.6646 13.8066 10.6046 13.8297 10.5491C13.8528 10.4936 13.8875 10.444 13.9314 10.4039L14.8702 9.54028C14.9014 9.5037 14.9399 9.47438 14.9831 9.4543C15.0262 9.43422 15.073 9.42383 15.1204 9.42383C15.1678 9.42383 15.2146 9.43422 15.2577 9.4543C15.3009 9.47438 15.3393 9.5037 15.3706 9.54028L18.2282 12.2212C18.3845 12.3685 18.494 12.5608 18.5424 12.7729C18.5908 12.9851 18.5759 13.2073 18.4995 13.4106C18.4233 13.6137 18.2887 13.7881 18.1136 13.9106C17.9386 14.0332 17.7313 14.0981 17.5195 14.0968L5.69944 14.0915C5.62 14.0916 5.54221 14.0682 5.47542 14.024C5.40863 13.9798 5.35566 13.9168 5.3229 13.8425C5.21303 13.6199 5.15321 13.3749 5.14786 13.1255C5.1425 12.8761 5.19174 12.6286 5.29195 12.4013C5.327 12.3127 5.38806 12.2376 5.46665 12.1863C5.54523 12.135 5.63742 12.1102 5.73039 12.1152H14.5767C14.6261 12.1156 14.6744 12.1002 14.7148 12.0711C14.7553 12.042 14.7858 12.0006 14.8023 11.9528C14.8188 11.905 14.8203 11.853 14.8067 11.8043C14.7931 11.7555 14.765 11.7123 14.7263 11.6808Z" fill="white"/>
<path id="Path 33" d="M9.00121 17.4512L9.45513 17.9227C9.49191 17.9498 9.52171 17.9857 9.54193 18.0272C9.56216 18.0688 9.57219 18.1148 9.57118 18.1613C9.57016 18.2077 9.55812 18.2532 9.5361 18.2938C9.51408 18.3344 9.48274 18.3689 9.44481 18.3943L8.62982 19.1572C8.54566 19.2347 8.43688 19.278 8.32388 19.2789C8.21087 19.2799 8.1014 19.2385 8.01599 19.1625C7.11503 18.3642 6.24329 17.5359 5.40078 16.6776C5.282 16.5571 5.20268 16.4015 5.17382 16.2326C4.95718 15.014 5.8186 14.7544 6.80897 14.765C10.4885 14.8003 14.1164 14.8568 17.6928 14.9345C17.782 14.9366 17.8699 14.9567 17.9514 14.9939C18.033 15.031 18.1066 15.0843 18.168 15.1508C18.2294 15.2173 18.2773 15.2957 18.3091 15.3813C18.3408 15.4669 18.3558 15.5582 18.353 15.6498C18.3324 16.4728 18.059 16.8913 17.5329 16.9054C14.8678 16.9796 12.0807 17.0202 9.17143 17.0273C8.77941 17.0273 8.72267 17.1686 9.00121 17.4512Z" fill="white"/>
</g>
</g>
</svg>
