<svg xmlns="http://www.w3.org/2000/svg" width="15.5" height="15.5" viewBox="0 0 15.5 15.5">
  <g id="layer1" transform="translate(-0.529 -291.179)">
    <path id="path52" d="M8.271,291.179a.777.777,0,0,0-.768.788V298.2a.776.776,0,1,0,1.552,0v-6.229a.777.777,0,0,0-.784-.788Zm4.522,1.562c-.025,0-.051,0-.076,0a.779.779,0,0,0-.43,1.374,6.2,6.2,0,1,1-8.038.023.781.781,0,0,0,.086-1.1.773.773,0,0,0-1.093-.087,7.808,7.808,0,0,0,5.041,13.724,7.808,7.808,0,0,0,5.006-13.747.774.774,0,0,0-.5-.192Z" transform="translate(0 0)" fill="#d0d6e4"/>
  </g>
</svg>
