<svg width="27" height="28" viewBox="0 0 27 28" fill="none" xmlns="http://www.w3.org/2000/svg">
<path d="M15.1725 0.648138C20.4653 4.0731 23.9633 6.44817 25.6663 7.77335C27.1302 8.91247 26.5446 20.1556 26.5332 22.3997C26.5159 25.6348 25.4769 27.2637 22.1416 27.2637C15.8613 27.2599 9.5811 27.2618 3.30086 27.2694C1.18831 27.2694 0.0114812 25.3386 0.00574062 23.2711C-0.00191354 18.6197 -0.00191354 13.9702 0.00574062 9.32256C0.00574062 8.72642 0.440114 8.12078 1.30886 7.50566C6.43715 3.87565 9.97912 1.49489 11.9348 0.363357C12.926 -0.202407 14.0052 -0.10748 15.1725 0.648138ZM23.9212 9.48773L14.1334 2.97195C13.9077 2.82209 13.6436 2.73926 13.3721 2.73321C13.1005 2.72715 12.8329 2.79812 12.6007 2.93777C9.9064 4.54394 7.18726 6.29819 4.44324 8.20052C3.07123 9.15169 2.29625 9.47064 2.28477 11.0312C2.26946 15.1966 2.28285 19.362 2.32495 23.5274C2.33643 24.5982 3.01383 25.1279 4.09306 25.1279C10.3886 25.1317 16.5521 25.1298 22.5836 25.1222C22.783 25.1226 22.9805 25.084 23.1649 25.0086C23.3493 24.9332 23.5169 24.8226 23.6581 24.683C23.7994 24.5433 23.9115 24.3775 23.9882 24.1948C24.0649 24.0122 24.1045 23.8164 24.1049 23.6185C24.1125 19.0621 24.1144 14.4999 24.1106 9.93199C24.1199 9.84805 24.1074 9.76315 24.0742 9.68538C24.0411 9.60761 23.9884 9.53957 23.9212 9.48773Z" fill="#fff"/>
<path d="M16.3894 12.5576L15.5283 11.8684C15.4768 11.8276 15.4348 11.7762 15.4051 11.7178C15.3753 11.6595 15.3586 11.5954 15.3561 11.5301C15.3537 11.4652 15.3659 11.4007 15.3916 11.341C15.4173 11.2813 15.4559 11.228 15.5048 11.1849L16.5496 10.2565C16.5843 10.2172 16.6271 10.1857 16.6751 10.1641C16.7232 10.1425 16.7753 10.1313 16.828 10.1313C16.8807 10.1313 16.9328 10.1425 16.9808 10.1641C17.0288 10.1857 17.0717 10.2172 17.1064 10.2565L20.2867 13.1385C20.4607 13.2969 20.5826 13.5036 20.6364 13.7317C20.6903 13.9597 20.6736 14.1986 20.5887 14.4172C20.5038 14.6354 20.354 14.8229 20.1592 14.9547C19.9644 15.0864 19.7337 15.1562 19.498 15.1548L6.34331 15.1491C6.2549 15.1492 6.16833 15.124 6.09399 15.0765C6.01966 15.029 5.96072 14.9613 5.92425 14.8814C5.80198 14.6422 5.7354 14.3788 5.72944 14.1107C5.72348 13.8425 5.77828 13.5765 5.8898 13.3322C5.92881 13.2369 5.99677 13.1561 6.08423 13.101C6.17169 13.0459 6.27429 13.0192 6.37776 13.0246H16.2229C16.2779 13.025 16.3316 13.0084 16.3766 12.9771C16.4216 12.9458 16.4557 12.9014 16.474 12.85C16.4923 12.7986 16.494 12.7428 16.4789 12.6903C16.4637 12.6379 16.4324 12.5915 16.3894 12.5576Z" fill="#fff"/>
<path d="M10.0172 18.7601L10.5224 19.267C10.5634 19.2961 10.5965 19.3346 10.619 19.3793C10.6415 19.424 10.6527 19.4735 10.6516 19.5234C10.6504 19.5734 10.637 19.6223 10.6125 19.666C10.588 19.7096 10.5532 19.7467 10.5109 19.7739L9.60392 20.5941C9.51026 20.6773 9.3892 20.7239 9.26344 20.7249C9.13767 20.726 9.01584 20.6815 8.92079 20.5998C7.91809 19.7416 6.94793 18.8512 6.01029 17.9285C5.8781 17.7989 5.78982 17.6317 5.7577 17.4501C5.5166 16.1401 6.47528 15.861 7.57748 15.8724C11.6725 15.9104 15.71 15.9711 19.6902 16.0547C19.7895 16.0569 19.8873 16.0786 19.9781 16.1185C20.0688 16.1584 20.1507 16.2157 20.2191 16.2872C20.2874 16.3587 20.3407 16.4429 20.3761 16.535C20.4114 16.627 20.4281 16.7251 20.425 16.8236C20.402 17.7083 20.0978 18.1582 19.5122 18.1734C16.5463 18.2532 13.4444 18.2968 10.2067 18.3044C9.7704 18.3044 9.70725 18.4563 10.0172 18.7601Z" fill="#fff"/>
</svg>
