<svg width="42" height="42" viewBox="0 0 42 42" fill="none" xmlns="http://www.w3.org/2000/svg">
<g id="Group 59906">
<g id="Group 59902">
<path id="Vector" d="M41.0338 20.5169C41.0338 25.9583 38.8722 31.1769 35.0245 35.0245C31.1769 38.8722 25.9583 41.0338 20.5169 41.0338C15.0755 41.0338 9.85693 38.8722 6.00926 35.0245C2.1616 31.1769 0 25.9583 0 20.5169C0 15.0755 2.1616 9.85692 6.00926 6.00926C9.85693 2.1616 15.0755 0 20.5169 0C25.9583 0 31.1769 2.1616 35.0245 6.00926C38.8722 9.85692 41.0338 15.0755 41.0338 20.5169ZM8.51222 8.30954C5.65793 11.1349 3.98106 14.5803 3.48162 18.6458C3.47856 18.6747 3.48152 18.7039 3.49032 18.7315C3.49913 18.7592 3.51357 18.7846 3.5327 18.8061C3.55184 18.8276 3.57523 18.8448 3.60136 18.8564C3.62748 18.8681 3.65574 18.874 3.68429 18.8738H6.48912C6.60976 18.8738 6.67008 18.9353 6.67008 19.0584L6.66284 22.0406C6.66284 22.1612 6.60373 22.2215 6.4855 22.2215H3.68067C3.55521 22.2215 3.49729 22.2854 3.50695 22.4133C4.17287 30.0388 10.9009 36.9478 18.6024 37.5124C18.7278 37.522 18.7906 37.4629 18.7906 37.335V34.5266C18.7906 34.4059 18.8509 34.3456 18.9715 34.3456H22.0478C22.1684 34.3456 22.2288 34.4059 22.2288 34.5266V37.1613C22.2286 37.2277 22.2431 37.2933 22.2714 37.3534C22.2996 37.4135 22.3408 37.4666 22.3921 37.5088C22.4433 37.5511 22.5033 37.5814 22.5677 37.5977C22.6321 37.6139 22.6992 37.6157 22.7644 37.6028C29.9544 36.1793 34.6991 32.08 36.9985 25.305C37.2349 24.6077 37.4062 23.6438 37.5124 22.4133C37.522 22.2854 37.4629 22.2215 37.335 22.2215H34.5338C34.4132 22.2215 34.3529 22.1612 34.3529 22.0406V19.0548C34.3529 18.9341 34.4132 18.8738 34.5338 18.8738H37.4219C37.4421 18.874 37.462 18.8698 37.4805 18.8615C37.4989 18.8532 37.5153 18.8409 37.5287 18.8254C37.5421 18.81 37.5521 18.7918 37.558 18.772C37.5639 18.7523 37.5656 18.7315 37.563 18.7109C36.6329 10.633 30.4804 4.5384 22.4495 3.48161C22.3023 3.46231 22.2288 3.52625 22.2288 3.67343V6.47464C22.2288 6.59045 22.1708 6.64956 22.055 6.65197L20.6074 6.67007L18.9679 6.65197C18.8497 6.65197 18.7906 6.59287 18.7906 6.47464V3.67343C18.7906 3.5359 18.7218 3.47558 18.5843 3.49247C14.7118 3.95813 11.3545 5.56382 8.51222 8.30954Z" fill="#5F728A"/>
<path id="Vector_2" d="M8.51224 8.30956L14.1183 13.8179L13.2026 14.7661C13.1085 14.8626 13.1098 14.9579 13.2063 15.052L17.9184 19.7641C18.0125 19.8582 18.0535 19.9716 18.0414 20.1043C17.6904 23.8682 23.1806 24.1759 23.0069 20.0356C23.0021 19.9246 23.0395 19.8293 23.1191 19.7497L30.3501 12.5186C30.4249 12.4438 30.4249 12.369 30.3501 12.2942L28.8048 10.7489C28.7034 10.6451 28.6021 10.6451 28.5007 10.7489C26.0904 13.1592 23.6921 15.5563 21.3059 17.9401C21.1249 18.121 20.9198 18.1548 20.6906 18.0414L20.6074 6.67009L22.055 6.65199C22.1709 6.64958 22.2288 6.59047 22.2288 6.47466V3.67344C22.2288 3.52626 22.3024 3.46233 22.4495 3.48163C30.4804 4.53842 36.6329 10.633 37.5631 18.711C37.5657 18.7315 37.5639 18.7523 37.558 18.7721C37.5521 18.7918 37.5421 18.81 37.5287 18.8254C37.5153 18.8409 37.4989 18.8532 37.4805 18.8615C37.4621 18.8699 37.4421 18.8741 37.4219 18.8738H34.5338C34.4132 18.8738 34.3529 18.9341 34.3529 19.0548V22.0406C34.3529 22.1612 34.4132 22.2215 34.5338 22.2215H37.3351C37.4629 22.2215 37.522 22.2855 37.5124 22.4133C37.4062 23.6438 37.2349 24.6077 36.9985 25.305C34.6991 32.0801 29.9544 36.1793 22.7644 37.6029C22.6993 37.6157 22.6321 37.6139 22.5677 37.5977C22.5033 37.5814 22.4433 37.5511 22.3921 37.5089C22.3409 37.4666 22.2996 37.4135 22.2714 37.3534C22.2431 37.2933 22.2286 37.2277 22.2288 37.1613V34.5266C22.2288 34.406 22.1685 34.3456 22.0478 34.3456H18.9715C18.8509 34.3456 18.7906 34.406 18.7906 34.5266V37.335C18.7906 37.4629 18.7279 37.522 18.6024 37.5124C10.9009 36.9478 4.17289 30.0389 3.50697 22.4133C3.49731 22.2855 3.55522 22.2215 3.68069 22.2215H6.48552C6.60375 22.2215 6.66285 22.1612 6.66285 22.0406L6.6701 19.0584C6.6701 18.9353 6.60978 18.8738 6.48914 18.8738H3.68431C3.65576 18.874 3.6275 18.8681 3.60138 18.8565C3.57525 18.8448 3.55186 18.8276 3.53272 18.8061C3.51359 18.7846 3.49915 18.7592 3.49034 18.7315C3.48154 18.7039 3.47858 18.6747 3.48164 18.6458C3.98108 14.5803 5.65795 11.1349 8.51224 8.30956Z" fill="#5DEBB2"/>
<path id="Vector_3" d="M14.1181 13.8185L14.7587 13.1851C14.8552 13.091 14.9517 13.0922 15.0483 13.1887L19.8147 17.9515C19.8943 18.0336 19.992 18.0722 20.1078 18.0673L20.6905 18.042C20.9197 18.1554 21.1248 18.1216 21.3057 17.9407C23.692 15.5569 26.0902 13.1598 28.5006 10.7494C28.6019 10.6457 28.7033 10.6457 28.8046 10.7494L30.35 12.2948C30.4248 12.3696 30.4248 12.4444 30.35 12.5192L23.1189 19.7502C23.0393 19.8299 23.0019 19.9252 23.0067 20.0362C23.1805 24.1764 17.6902 23.8688 18.0413 20.1049C18.0533 19.9722 18.0123 19.8588 17.9182 19.7647L13.2061 15.0526C13.1096 14.9585 13.1084 14.8632 13.2025 14.7667L14.1181 13.8185Z" fill="#5F728A"/>
</g>
</g>
</svg>
