<svg width="527" height="290" viewBox="0 0 527 290" fill="none" xmlns="http://www.w3.org/2000/svg">
<path opacity="0.5" d="M152.394 157.847H86.0938V272.931H152.394H170.523H248.468V72.2479H152.394V157.847Z" fill="#1E273D"/>
<path opacity="0.5" d="M357.752 164.821V0H261.678V272.931H353.963H357.752H428.278V164.821H357.752Z" fill="#1E273D"/>
<path d="M527 269.287H0V271.716H527V269.287Z" fill="#2549A5"/>
<path d="M347.055 100.421H115.467V282.516H347.055V100.421Z" fill="#21283E"/>
<path d="M347.055 121.049H115.467V282.516H347.055V121.049Z" fill="#141825"/>
<path d="M127.376 113.755C129.24 113.755 130.751 112.243 130.751 110.377C130.751 108.512 129.24 107 127.376 107C125.511 107 124 108.512 124 110.377C124 112.243 125.511 113.755 127.376 113.755Z" fill="#0F141F"/>
<path d="M143.751 110.377C143.751 112.248 142.234 113.755 140.376 113.755C138.518 113.755 137 112.236 137 110.377C137 108.519 138.518 107 140.376 107C142.234 107 143.751 108.519 143.751 110.377Z" fill="#0F141F"/>
<path d="M156.751 110.377C156.751 112.248 155.234 113.755 153.376 113.755C151.518 113.755 150 112.236 150 110.377C150 108.519 151.518 107 153.376 107C155.234 107 156.751 108.519 156.751 110.377Z" fill="#0F141F"/>
<path d="M267.386 116.42H172.065C168.883 116.42 166.297 113.833 166.297 110.65C166.297 107.467 168.883 104.879 172.065 104.879H267.386C270.568 104.879 273.154 107.467 273.154 110.65C273.154 113.833 270.568 116.42 267.386 116.42Z" fill="#0F141F"/>
<path d="M332.945 116.42H287.823C284.641 116.42 282.055 113.833 282.055 110.65C282.055 107.467 284.641 104.879 287.823 104.879H332.945C336.127 104.879 338.713 107.467 338.713 110.65C338.713 113.833 336.127 116.42 332.945 116.42Z" fill="#0F141F"/>
<path d="M216.337 192.993H133.947V239.51H216.337V192.993Z" fill="#2549A5"/>
<path d="M216.337 135.895H133.947V182.412H216.337V135.895Z" fill="#2549A5"/>
<path d="M215.62 251.27H134.664V254.915H215.62V251.27Z" fill="#2549A5"/>
<path d="M215.62 263.419H134.664V267.063H215.62V263.419Z" fill="#2549A5"/>
<path d="M325.781 251.27H244.824V254.915H325.781V251.27Z" fill="#2966FF"/>
<path d="M325.781 263.419H244.824V267.063H325.781V263.419Z" fill="#2966FF"/>
<path d="M348.269 283.743H114.252V99.2057H348.269V283.731V283.743ZM116.681 281.314H345.841V101.635H116.681V281.302V281.314Z" fill="#2549A5"/>
<path d="M403.762 256.336H379.998V56.2847H403.762V256.336ZM382.427 253.906H401.333V58.7144H382.427V253.906Z" fill="#112C92"/>
<path d="M407.004 244.759H376.744V266.456H407.004V244.759Z" fill="#36405F"/>
<path d="M402.67 233.254H381.626C381.141 233.254 380.703 232.962 380.509 232.525C380.315 232.087 380.4 231.565 380.728 231.213L400.97 209.345L402.755 210.997L384.407 230.824H402.67V233.254Z" fill="#112C92"/>
<path d="M402.67 211.338H381.626C381.141 211.338 380.703 211.046 380.509 210.609C380.315 210.171 380.4 209.649 380.728 209.297L400.97 187.429L402.755 189.081L384.407 208.908H402.67V211.338Z" fill="#112C92"/>
<path d="M402.67 189.434H381.626C381.141 189.434 380.703 189.142 380.509 188.705C380.315 188.267 380.4 187.745 380.728 187.393L400.97 165.525L402.755 167.177L384.407 187.004H402.67V189.434Z" fill="#112C92"/>
<path d="M402.67 167.53H381.626C381.141 167.53 380.703 167.238 380.509 166.801C380.315 166.363 380.4 165.841 380.728 165.489L400.97 143.621L402.755 145.273L384.407 165.1H402.67V167.53Z" fill="#112C92"/>
<path d="M402.67 145.613H381.626C381.141 145.613 380.703 145.322 380.509 144.885C380.315 144.447 380.4 143.925 380.728 143.572L400.97 121.705L402.755 123.357L384.407 143.184H402.67V145.613Z" fill="#112C92"/>
<path d="M402.67 123.71H381.626C381.141 123.71 380.703 123.418 380.509 122.981C380.315 122.543 380.4 122.021 380.728 121.669L400.97 99.801L402.755 101.453L384.407 121.28H402.67V123.71Z" fill="#112C92"/>
<path d="M402.67 101.793H381.626C381.141 101.793 380.703 101.502 380.509 101.064C380.315 100.627 380.4 100.105 380.728 99.7524L400.97 77.8849L402.755 79.5371L384.407 99.3637H402.67V101.793Z" fill="#112C92"/>
<path d="M402.67 79.8895H381.626C381.141 79.8895 380.703 79.5979 380.509 79.1605C380.315 78.7232 380.4 78.2008 380.728 77.8485L400.97 55.981L402.755 57.6332L384.407 77.4597H402.67V79.8895Z" fill="#112C92"/>
<path d="M403.726 47.8413H365.209V80.3268H403.726V47.8413Z" fill="#117EED"/>
<path d="M461.599 47.8413H423.082V66.5016H461.599V47.8413Z" fill="#117EED"/>
<path d="M460.954 50.2102H270.712C270.044 50.2102 269.498 49.6636 269.498 48.9954C269.498 48.3272 270.044 47.7805 270.712 47.7805H460.954C461.622 47.7805 462.169 48.3272 462.169 48.9954C462.169 49.6636 461.622 50.2102 460.954 50.2102Z" fill="#112C92"/>
<path d="M280.779 54.6688H279.564V133.635H280.779V54.6688Z" fill="#112C92"/>
<path d="M417.327 262.581H366.424V272.129H417.327V262.581Z" fill="#112C92"/>
<path d="M384.6 49.8944C384.442 49.8944 384.284 49.8337 384.175 49.7122L374.036 39.5681H281.033L271.501 49.1048C271.258 49.3477 270.882 49.3477 270.639 49.1048C270.396 48.8618 270.396 48.4852 270.639 48.2422L280.536 38.3411H374.533L385.037 48.8496C385.28 49.0926 385.28 49.4692 385.037 49.7122C384.916 49.8337 384.758 49.8944 384.612 49.8944H384.6Z" fill="#112C92"/>
<path d="M461.769 49.8944C461.551 49.8944 461.344 49.7729 461.235 49.5664L451.084 30.1651H426.47L416.926 48.9468C416.768 49.2506 416.404 49.3599 416.112 49.2141C415.809 49.0683 415.699 48.6917 415.845 48.4002L425.729 28.9502H451.824L462.316 49.0076C462.474 49.2992 462.352 49.6758 462.061 49.8215C461.976 49.8701 461.879 49.8944 461.782 49.8944H461.769Z" fill="#112C92"/>
<path d="M284.616 54.6689C284.616 57.135 282.625 59.1274 280.16 59.1274C277.695 59.1274 275.703 57.135 275.703 54.6689C275.703 52.2027 277.695 50.2103 280.16 50.2103C282.625 50.2103 284.616 52.2027 284.616 54.6689Z" fill="#3A5EBA"/>
<path d="M327.668 132.032L225.992 141.433L230.834 193.85L332.51 184.449L327.668 132.032Z" fill="#2549A5"/>
<path d="M306.486 39.556C306.231 39.556 305.988 39.3859 305.903 39.1308C305.806 38.8149 305.988 38.4748 306.304 38.3776L396.197 10.9581C396.331 10.9217 396.477 10.9217 396.61 10.9824L439.22 28.9745C439.523 29.1082 439.669 29.4605 439.547 29.7642C439.414 30.0679 439.062 30.2137 438.758 30.0922L396.355 12.1851L306.668 39.5438C306.668 39.5438 306.547 39.5681 306.486 39.5681V39.556Z" fill="#112C92"/>
<path d="M382.245 49.9795C382.099 49.9795 381.953 49.9552 381.808 49.8945C381.176 49.6515 380.861 48.959 381.103 48.3273L395.262 11.0675C395.456 10.5572 395.954 10.2414 396.501 10.2899C397.035 10.3385 397.484 10.7273 397.593 11.2618L404.915 47.6105C405.049 48.2666 404.624 48.9104 403.968 49.0441C403.313 49.1777 402.669 48.7525 402.536 48.0965L396.051 15.8783L383.386 49.2142C383.204 49.7001 382.743 49.9917 382.257 49.9917L382.245 49.9795Z" fill="#112C92"/>
<path d="M398.845 11.4926C398.845 12.8411 397.752 13.9466 396.392 13.9466C395.032 13.9466 393.939 12.8532 393.939 11.4926C393.939 10.132 395.032 9.03857 396.392 9.03857C397.752 9.03857 398.845 10.132 398.845 11.4926Z" fill="#3A5EBA"/>
<path d="M293.687 50.0038C293.553 50.0038 293.42 49.9552 293.31 49.8701L281.386 40.2241V49.2384C281.386 49.5786 281.119 49.8458 280.779 49.8458C280.439 49.8458 280.172 49.5786 280.172 49.2384V38.9485C280.172 38.7177 280.305 38.499 280.512 38.4018C280.718 38.3046 280.973 38.3289 281.155 38.4747L294.063 48.9225C294.318 49.1291 294.367 49.5178 294.148 49.7729C294.027 49.9187 293.857 50.0038 293.675 50.0038H293.687Z" fill="#112C92"/>
<path d="M305.222 50.0038C305.088 50.0038 304.955 49.9552 304.846 49.8701L292.921 40.2241V49.2384C292.921 49.5786 292.654 49.8458 292.314 49.8458C291.974 49.8458 291.707 49.5786 291.707 49.2384V38.9485C291.707 38.7177 291.841 38.499 292.047 38.4018C292.253 38.3046 292.508 38.3289 292.691 38.4747L305.598 48.9225C305.853 49.1291 305.902 49.5178 305.683 49.7729C305.562 49.9187 305.392 50.0038 305.21 50.0038H305.222Z" fill="#112C92"/>
<path d="M316.759 50.0038C316.626 50.0038 316.492 49.9552 316.383 49.8701L304.458 40.2241V49.2384C304.458 49.5786 304.191 49.8458 303.851 49.8458C303.511 49.8458 303.244 49.5786 303.244 49.2384V38.9485C303.244 38.7177 303.378 38.499 303.584 38.4018C303.791 38.3046 304.046 38.3289 304.228 38.4747L317.136 48.9225C317.391 49.1291 317.439 49.5178 317.221 49.7729C317.099 49.9187 316.929 50.0038 316.747 50.0038H316.759Z" fill="#112C92"/>
<path d="M328.283 50.0038C328.149 50.0038 328.015 49.9552 327.906 49.8701L315.982 40.2241V49.2384C315.982 49.5786 315.715 49.8458 315.375 49.8458C315.035 49.8458 314.768 49.5786 314.768 49.2384V38.9485C314.768 38.7177 314.901 38.499 315.108 38.4018C315.314 38.3046 315.569 38.3289 315.751 38.4747L328.659 48.9225C328.914 49.1291 328.963 49.5178 328.744 49.7729C328.623 49.9187 328.453 50.0038 328.27 50.0038H328.283Z" fill="#112C92"/>
<path d="M339.818 50.0038C339.684 50.0038 339.551 49.9552 339.441 49.8701L327.517 40.2241V49.2384C327.517 49.5786 327.25 49.8458 326.91 49.8458C326.57 49.8458 326.303 49.5786 326.303 49.2384V38.9485C326.303 38.7177 326.436 38.499 326.643 38.4018C326.849 38.3046 327.104 38.3289 327.286 38.4747L340.194 48.9225C340.449 49.1291 340.498 49.5178 340.279 49.7729C340.158 49.9187 339.988 50.0038 339.806 50.0038H339.818Z" fill="#112C92"/>
<path d="M351.341 50.0038C351.208 50.0038 351.074 49.9552 350.965 49.8701L339.04 40.2241V49.2384C339.04 49.5786 338.773 49.8458 338.433 49.8458C338.093 49.8458 337.826 49.5786 337.826 49.2384V38.9485C337.826 38.7177 337.96 38.499 338.166 38.4018C338.373 38.3046 338.628 38.3289 338.81 38.4747L351.718 48.9225C351.973 49.1291 352.021 49.5178 351.803 49.7729C351.681 49.9187 351.511 50.0038 351.329 50.0038H351.341Z" fill="#112C92"/>
<path d="M362.876 50.0038C362.743 50.0038 362.609 49.9552 362.5 49.8701L350.576 40.2241V49.2384C350.576 49.5786 350.308 49.8458 349.968 49.8458C349.628 49.8458 349.361 49.5786 349.361 49.2384V38.9485C349.361 38.7177 349.495 38.499 349.701 38.4018C349.908 38.3046 350.163 38.3289 350.345 38.4747L363.253 48.9225C363.508 49.1291 363.556 49.5178 363.338 49.7729C363.216 49.9187 363.046 50.0038 362.864 50.0038H362.876Z" fill="#112C92"/>
<path d="M374.402 50.0038C374.268 50.0038 374.135 49.9552 374.025 49.8701L362.101 40.2241V49.2384C362.101 49.5786 361.834 49.8458 361.494 49.8458C361.154 49.8458 360.887 49.5786 360.887 49.2384V38.9485C360.887 38.7177 361.02 38.499 361.227 38.4018C361.433 38.3046 361.688 38.3289 361.87 38.4747L374.778 48.9225C375.033 49.1291 375.082 49.5178 374.863 49.7729C374.742 49.9187 374.572 50.0038 374.39 50.0038H374.402Z" fill="#112C92"/>
<path d="M442.57 50.0038C442.4 50.0038 442.23 49.9309 442.109 49.7851L426.626 31.5015V49.2385C426.626 49.5786 426.359 49.8459 426.019 49.8459C425.679 49.8459 425.412 49.5786 425.412 49.2385V29.8492C425.412 29.5941 425.57 29.3633 425.813 29.2783C426.056 29.1932 426.323 29.2661 426.481 29.4605L443.031 49.0076C443.25 49.2628 443.214 49.6515 442.959 49.858C442.849 49.9552 442.704 50.0038 442.57 50.0038Z" fill="#112C92"/>
<path d="M454.482 50.0038C454.288 50.0038 454.094 49.9066 453.972 49.7365L442.169 31.878V49.2506C442.169 49.5907 441.902 49.858 441.562 49.858C441.222 49.858 440.955 49.5907 440.955 49.2506V29.8613C440.955 29.5941 441.125 29.3511 441.392 29.2782C441.647 29.2053 441.926 29.3025 442.072 29.5212L454.98 49.0683C455.162 49.3477 455.089 49.7244 454.81 49.9066C454.701 49.9795 454.591 50.0038 454.47 50.0038H454.482Z" fill="#112C92"/>
<path d="M283.986 135.251C283.986 137.365 282.274 139.078 280.161 139.078C278.048 139.078 276.336 137.365 276.336 135.251C276.336 133.137 278.048 131.424 280.161 131.424C282.274 131.424 283.986 133.137 283.986 135.251Z" fill="#117EED"/>
<path d="M75.4305 211.581H73.002V269.894H75.4305V211.581Z" fill="#2966FF"/>
<path d="M29.2879 211.581H26.8594V269.894H29.2879V211.581Z" fill="#2966FF"/>
<path d="M81.7705 217.047H20.7891V239.522H81.7705V217.047Z" fill="#2549A5"/>
<path d="M81.7586 239.522V218.262L70.5508 239.522H81.7586Z" fill="#2966FF"/>
<path d="M43.2285 239.522H56.2699L68.1214 217.047H55.0799L43.2285 239.522Z" fill="#2966FF"/>
<path d="M27.7591 217.047L20.7891 230.277V239.522H28.9491L40.8005 217.047H27.7591Z" fill="#2966FF"/>
<path d="M84.5377 252.898H17.752V255.328H84.5377V252.898Z" fill="#2966FF"/>
<path d="M497.991 211.581H495.562V269.894H497.991V211.581Z" fill="#2966FF"/>
<path d="M451.848 211.581H449.42V269.894H451.848V211.581Z" fill="#2966FF"/>
<path d="M504.329 217.047H443.348V239.522H504.329V217.047Z" fill="#2549A5"/>
<path d="M504.329 239.522V218.262L493.121 239.522H504.329Z" fill="#2966FF"/>
<path d="M465.801 239.522H478.842L490.694 217.047H477.652L465.801 239.522Z" fill="#2966FF"/>
<path d="M450.33 217.047L443.348 230.277V239.522H451.52L463.371 217.047H450.33Z" fill="#2966FF"/>
<path d="M507.098 252.898H440.312V255.328H507.098V252.898Z" fill="#2966FF"/>
<path d="M111.108 286.696H83.4464C82.5356 286.696 81.7949 287.437 81.7949 288.348C81.7949 289.259 82.5356 290 83.4464 290H111.108C112.018 290 112.759 289.259 112.759 288.348C112.759 287.437 112.018 286.696 111.108 286.696Z" fill="#2966FF"/>
<path d="M99.5228 263.176C99.3892 262.824 99.0492 262.581 98.6728 262.581H95.5035C95.1149 262.581 94.7749 262.824 94.6535 263.188L85.7285 288.737H108.824L99.5228 263.176Z" fill="#2966FF"/>
<path d="M93.0023 267.914L91.5938 271.947H102.717L101.247 267.914H93.0023Z" fill="#2549A5"/>
<path d="M89.4086 278.192L88 282.225H106.457L104.988 278.192H89.4086Z" fill="#2549A5"/>
<path opacity="0.5" d="M106.966 71.6041C104.938 71.6041 103.068 72.2479 101.526 73.3292V70.6565C101.526 62.9421 95.2723 56.6855 87.5616 56.6855C79.8508 56.6855 73.5973 62.9421 73.5973 70.6565V75.9411C72.3344 74.7384 70.6344 73.9973 68.7523 73.9973C64.8544 73.9973 61.6973 77.156 61.6973 81.0557H116.413C116.413 75.8318 112.187 71.6041 106.966 71.6041Z" fill="#1E273D"/>
<path opacity="0.5" d="M219.725 33.5302C218.256 33.5302 216.884 34.004 215.767 34.7936V32.8377C215.767 27.225 211.213 22.6693 205.603 22.6693C199.993 22.6693 195.44 27.225 195.44 32.8377V36.6767C194.517 35.802 193.278 35.2674 191.906 35.2674C189.065 35.2674 186.77 37.5635 186.77 40.4063H226.598C226.598 36.6038 223.526 33.5302 219.725 33.5302Z" fill="#1E273D"/>
</svg>
