<svg width="34" height="34" viewBox="0 0 34 34" fill="none" xmlns="http://www.w3.org/2000/svg">
<path d="M24.08 33.997C19.2722 33.997 14.1641 32.5068 14.1641 29.7473C14.1641 29.3564 14.4814 29.0391 14.8723 29.0391C15.2633 29.0391 15.5806 29.3564 15.5806 29.7473C15.5806 30.9302 18.8132 32.5805 24.08 32.5805C29.3468 32.5805 32.5794 30.9302 32.5794 29.7473C32.5794 29.3564 32.8967 29.0391 33.2877 29.0391C33.6786 29.0391 33.9959 29.3564 33.9959 29.7473C33.9959 32.5068 28.8878 33.997 24.08 33.997Z" fill="#2966FF"/>
<path d="M24.08 29.747C19.2722 29.747 14.1641 28.2568 14.1641 25.4973C14.1641 25.1064 14.4814 24.7891 14.8723 24.7891C15.2633 24.7891 15.5806 25.1064 15.5806 25.4973C15.5806 26.6802 18.8132 28.3305 24.08 28.3305C29.3468 28.3305 32.5794 26.6802 32.5794 25.4973C32.5794 25.1064 32.8967 24.7891 33.2877 24.7891C33.6786 24.7891 33.9959 25.1064 33.9959 25.4973C33.9959 28.2568 28.8878 29.747 24.08 29.747Z" fill="#2966FF"/>
<path d="M24.08 25.4994C19.2722 25.4994 14.1641 24.0092 14.1641 21.2497C14.1641 18.4902 19.2722 17 24.08 17C28.8878 17 33.9959 18.4902 33.9959 21.2497C33.9959 24.0092 28.8878 25.4994 24.08 25.4994ZM24.08 18.4166C18.8132 18.4166 15.5806 20.0669 15.5806 21.2497C15.5806 22.4325 18.8132 24.0828 24.08 24.0828C29.3468 24.0828 32.5794 22.4325 32.5794 21.2497C32.5794 20.0669 29.3468 18.4166 24.08 18.4166Z" fill="#2966FF"/>
<path d="M33.2864 30.455C32.8954 30.455 32.5781 30.1377 32.5781 29.7467V21.2473C32.5781 20.8564 32.8954 20.5391 33.2864 20.5391C33.6774 20.5391 33.9947 20.8564 33.9947 21.2473V29.7467C33.9947 30.1377 33.6774 30.455 33.2864 30.455Z" fill="#2966FF"/>
<path d="M14.8723 30.455C14.4814 30.455 14.1641 30.1377 14.1641 29.7467V21.2473C14.1641 20.8564 14.4814 20.5391 14.8723 20.5391C15.2633 20.5391 15.5806 20.8564 15.5806 21.2473V29.7467C15.5806 30.1377 15.2633 30.455 14.8723 30.455Z" fill="#2966FF"/>
<path d="M9.91594 16.997C5.10813 16.997 0 15.5068 0 12.7473C0 12.3564 0.31731 12.0391 0.708282 12.0391C1.09925 12.0391 1.41656 12.3564 1.41656 12.7473C1.41656 13.9302 4.64916 15.5805 9.91594 15.5805C15.1827 15.5805 18.4153 13.9302 18.4153 12.7473C18.4153 12.3564 18.7326 12.0391 19.1236 12.0391C19.5146 12.0391 19.8319 12.3564 19.8319 12.7473C19.8319 15.5068 14.7238 16.997 9.91594 16.997Z" fill="#2966FF"/>
<path d="M9.91594 12.747C5.10813 12.747 0 11.2568 0 8.49734C0 8.10637 0.31731 7.78906 0.708282 7.78906C1.09925 7.78906 1.41656 8.10637 1.41656 8.49734C1.41656 9.68017 4.64916 11.3305 9.91594 11.3305C15.1827 11.3305 18.4153 9.68017 18.4153 8.49734C18.4153 8.10637 18.7326 7.78906 19.1236 7.78906C19.5146 7.78906 19.8319 8.10637 19.8319 8.49734C19.8319 11.2568 14.7238 12.747 9.91594 12.747Z" fill="#2966FF"/>
<path d="M9.91594 25.497C5.10813 25.497 0 24.0068 0 21.2473C0 20.8564 0.31731 20.5391 0.708282 20.5391C1.09925 20.5391 1.41656 20.8564 1.41656 21.2473C1.41656 22.4302 4.64916 24.0805 9.91594 24.0805C10.6866 24.0805 11.358 24.0493 11.9657 23.9856C12.3496 23.9431 12.7037 24.2264 12.7448 24.6145C12.7859 25.0027 12.504 25.3525 12.1159 25.3936C11.4557 25.4645 10.7361 25.497 9.91594 25.497Z" fill="#2966FF"/>
<path d="M9.91594 29.747C5.10813 29.747 0 28.2568 0 25.4973C0 25.1064 0.31731 24.7891 0.708282 24.7891C1.09925 24.7891 1.41656 25.1064 1.41656 25.4973C1.41656 26.6802 4.64916 28.3305 9.91594 28.3305C10.6866 28.3305 11.358 28.2993 11.9657 28.2356C12.3496 28.186 12.7037 28.4764 12.7448 28.8645C12.7859 29.2527 12.504 29.6025 12.1159 29.6436C11.4557 29.7145 10.7361 29.747 9.91594 29.747Z" fill="#2966FF"/>
<path d="M9.91594 21.247C5.10813 21.247 0 19.7568 0 16.9973C0 16.6064 0.31731 16.2891 0.708282 16.2891C1.09925 16.2891 1.41656 16.6064 1.41656 16.9973C1.41656 18.1802 4.64916 19.8305 9.91594 19.8305C10.6866 19.8305 11.358 19.7993 11.9657 19.7356C12.3496 19.6902 12.7037 19.975 12.7448 20.3645C12.7859 20.7527 12.504 21.1025 12.1159 21.1436C11.4557 21.2145 10.7361 21.247 9.91594 21.247Z" fill="#2966FF"/>
<path d="M9.91594 8.49938C5.10813 8.49938 0 7.00915 0 4.24969C0 1.49022 5.10813 0 9.91594 0C14.7238 0 19.8319 1.49022 19.8319 4.24969C19.8319 7.00915 14.7238 8.49938 9.91594 8.49938ZM9.91594 1.41656C4.64916 1.41656 1.41656 3.06686 1.41656 4.24969C1.41656 5.43252 4.64916 7.08281 9.91594 7.08281C15.1827 7.08281 18.4153 5.43252 18.4153 4.24969C18.4153 3.06686 15.1827 1.41656 9.91594 1.41656Z" fill="#2966FF"/>
<path d="M0.708281 26.2041C0.31731 26.2041 0 25.8868 0 25.4958V4.24734C0 3.85637 0.31731 3.53906 0.708281 3.53906C1.09925 3.53906 1.41656 3.85637 1.41656 4.24734V25.4958C1.41656 25.8868 1.09925 26.2041 0.708281 26.2041Z" fill="#2966FF"/>
<path d="M19.1223 13.455C18.7314 13.455 18.4141 13.1377 18.4141 12.7467V4.24734C18.4141 3.85637 18.7314 3.53906 19.1223 3.53906C19.5133 3.53906 19.8306 3.85637 19.8306 4.24734V12.7467C19.8306 13.1377 19.5133 13.455 19.1223 13.455Z" fill="#2966FF"/>
</svg>
