<svg width="45" height="41" viewBox="0 0 45 41" fill="none" xmlns="http://www.w3.org/2000/svg">
<path d="M5.61719 34.3047L22.0781 5.78906L38.6046 34.3047H5.61719Z" fill="#D9D9D9"/>
<path d="M43.3364 30.1585L27.8441 3.32465C25.3137 -1.10822 18.9147 -1.10822 16.3933 3.32465L0.891968 30.1585C-1.6385 34.5914 1.51093 40.0983 6.61737 40.0983H37.5564C42.6628 40.0983 45.8669 34.5367 43.3364 30.1585ZM22.1096 34.1453C20.7625 34.1453 19.6429 33.0257 19.6429 31.6786C19.6429 30.3314 20.7625 29.2118 22.1096 29.2118C23.4568 29.2118 24.5764 30.3314 24.5218 31.7423C24.5855 33.0257 23.4022 34.1453 22.1096 34.1453ZM24.3579 18.198C24.2487 20.1095 24.1304 22.0119 24.0211 23.9234C23.9665 24.5423 23.9665 25.1067 23.9665 25.7165C23.9119 26.7269 23.12 27.5097 22.1096 27.5097C21.0993 27.5097 20.3165 26.7815 20.2528 25.7711C20.0889 22.7947 19.916 19.8728 19.7521 16.8963C19.6975 16.1135 19.6429 15.3216 19.5792 14.5388C19.5792 13.2463 20.3074 12.1813 21.4907 11.8445C22.674 11.5623 23.8482 12.1267 24.3579 13.2463C24.5309 13.6377 24.5855 14.0291 24.5855 14.4842C24.5309 15.7312 24.4125 16.9691 24.3579 18.198Z" fill="#B90000"/>
</svg>
