<svg width="20" height="12" viewBox="0 0 20 12" fill="none" xmlns="http://www.w3.org/2000/svg">
<path d="M8.34038 1.03797C10.029 3.96973 11.6769 6.85076 13.3519 9.75184C13.8198 10.5619 14.3839 11.3478 15.1054 11.9072C15.1286 11.9249 15.1255 11.9337 15.096 11.9337C10.8538 11.9341 6.53435 11.9347 2.13759 11.9355C1.69744 11.9355 1.27913 11.834 0.92571 11.5844C0.152206 11.0381 -0.208291 10.051 0.123295 9.1518C0.164596 9.0397 0.310722 8.76534 0.561674 8.32873C1.94309 5.92464 3.30975 3.54689 4.66166 1.1955C4.91596 0.752992 5.17379 0.431436 5.60391 0.223752C6.61047 -0.262417 7.77692 0.0591393 8.34038 1.03797Z" fill="#4D6090"/>
<path d="M19.3093 9.36178C19.5217 10.3005 19.14 11.3171 18.2609 11.7407C17.9792 11.8764 17.6128 11.9327 17.1617 11.9095C15.5332 11.8257 14.7114 10.5029 13.9851 9.23729C12.7122 7.01964 11.4364 4.80415 10.1577 2.59082C10.1506 2.57863 10.1506 2.56643 10.1577 2.55424C10.4255 2.09639 10.705 1.61002 10.9961 1.09514C11.4409 0.308066 12.2546 -0.110842 13.1455 0.0254502C13.8523 0.133422 14.3332 0.53758 14.6848 1.14942C16.137 3.67821 17.5745 6.17986 18.9972 8.65436C19.164 8.94504 19.268 9.18085 19.3093 9.36178Z" fill="#4D6090"/>
</svg>
