<svg width="19" height="19" viewBox="0 0 19 19" fill="none" xmlns="http://www.w3.org/2000/svg">
<path id="Vector" d="M9.50568 1.72992e-06C4.25898 -0.0031305 0.00313406 4.24761 1.73002e-06 9.49431C-0.0031306 14.741 4.24761 18.9969 9.49432 19C12.015 19.0041 14.4334 18.0038 16.2147 16.2203C17.9966 14.4399 18.9985 12.0246 19 9.50568C19.0031 4.25898 14.7524 0.00313406 9.50568 1.72992e-06ZM9.50597 18.0496C4.78411 18.0528 0.953737 14.2277 0.950489 9.50579C0.947298 4.78399 4.77251 0.953563 9.49432 0.950372C11.7629 0.946312 13.9396 1.84645 15.5427 3.45159C17.1464 5.05378 18.0482 7.22726 18.0497 9.49419C18.053 14.216 14.2278 18.0464 9.50597 18.0496ZM10.1662 9.49999L13.1899 6.47626C13.371 6.29151 13.371 5.99585 13.1899 5.8111C13.0063 5.62368 12.7055 5.62067 12.5181 5.80432L9.49432 8.82805L6.47058 5.80437C6.28583 5.62334 5.99017 5.62334 5.80542 5.80437C5.618 5.98802 5.61499 6.28884 5.79863 6.47626L8.82237 9.49999L5.79863 12.5237C5.70954 12.6128 5.65954 12.7337 5.65948 12.8596C5.65948 13.1221 5.87219 13.3348 6.13461 13.3349C6.26065 13.3351 6.3816 13.2849 6.47058 13.1957L9.49432 10.1719L12.5181 13.1957C12.607 13.2849 12.728 13.3351 12.854 13.3349C12.98 13.3348 13.1008 13.2848 13.1899 13.1958C13.3755 13.0102 13.3755 12.7094 13.1899 12.5237L10.1662 9.49999Z" fill="#9B9ED0"/>
</svg>
