<svg width="19" height="16" viewBox="0 0 19 16" fill="none" xmlns="http://www.w3.org/2000/svg">
<path d="M18.3031 6.05015L13.8074 1.55451C13.5577 1.30475 13.1497 1.30475 12.9 1.55451C12.7793 1.67522 12.7127 1.83757 12.7127 2.00823V3.93553H8.21701C7.86318 3.93553 7.57596 4.22275 7.57596 4.57658C7.57596 4.9304 7.86318 5.21762 8.21701 5.21762H13.3579C13.7117 5.21762 13.9989 4.9304 13.9989 4.57658V3.55673L16.946 6.50388L13.9989 9.45102V8.43117C13.9989 8.07735 13.7117 7.79013 13.3579 7.79013H6.28555V5.86283C6.28555 5.50901 5.99832 5.22179 5.6445 5.22179C5.47383 5.22179 5.31149 5.28839 5.19077 5.4091L0.695131 9.90475C0.445373 10.1545 0.445373 10.5624 0.695131 10.8122L5.19077 15.3078C5.31149 15.4286 5.47383 15.4952 5.6445 15.4952C5.72775 15.4952 5.81101 15.4785 5.8901 15.4452C6.13153 15.3453 6.28555 15.1122 6.28555 14.85V12.9227H10.7812C11.135 12.9227 11.4222 12.6354 11.4222 12.2816C11.4222 11.9278 11.135 11.6406 10.7812 11.6406H5.64034C5.28651 11.6406 4.99929 11.9278 4.99929 12.2816V13.3015L2.05215 10.3543L4.99929 7.40717V8.42701C4.99929 8.78084 5.28651 9.06806 5.64034 9.06806H12.7085V10.9954C12.7085 11.3492 12.9957 11.6364 13.3495 11.6364C13.5202 11.6364 13.6825 11.5698 13.8033 11.4491L18.2989 6.95344C18.5487 6.70368 18.5487 6.29574 18.2989 6.04599L18.3031 6.05015Z" fill="#2E4276"/>
</svg>
