<svg width="17" height="17" viewBox="0 0 17 17" fill="none" xmlns="http://www.w3.org/2000/svg">
<g id="vuesax/outline/home">
<g id="home">
<path id="Vector" d="M8.50049 13.1362C8.35988 13.1352 8.22529 13.0796 8.12586 12.9812C8.02644 12.8829 7.97017 12.7498 7.96924 12.6107V10.5089C7.97017 10.3698 8.02644 10.2367 8.12586 10.1383C8.22529 10.04 8.35988 9.98432 8.50049 9.9834C8.6411 9.98432 8.77568 10.04 8.87511 10.1383C8.97454 10.2367 9.03081 10.3698 9.03174 10.5089V12.6107C9.03081 12.7498 8.97454 12.8829 8.87511 12.9812C8.77568 13.0796 8.6411 13.1352 8.50049 13.1362Z" fill="white"/>
<path id="Vector_2" d="M12.467 15.8054H4.53369C3.89545 15.7948 3.28048 15.5667 2.79265 15.1595C2.30482 14.7523 1.97404 14.191 1.85619 13.5705L0.914105 7.98659C0.854129 7.51696 0.911927 7.03996 1.0824 6.59765C1.25287 6.15534 1.53078 5.76133 1.8916 5.45037L6.80035 1.56197C7.28973 1.19489 7.88737 0.996787 8.50155 0.998053C9.11573 0.999319 9.71253 1.19988 10.2004 1.56897L15.1091 5.45037C15.4659 5.76445 15.741 6.15889 15.9112 6.60034C16.0813 7.0418 16.1415 7.51728 16.0866 7.98659L15.1445 13.5635C15.0205 14.1816 14.6881 14.7399 14.2018 15.1472C13.7155 15.5544 13.1039 15.7864 12.467 15.8054ZM8.49327 2.0524C8.12346 2.04645 7.76215 2.16229 7.46619 2.38169L2.55744 6.27709C2.34598 6.47212 2.18244 6.7124 2.07931 6.97955C1.97618 7.24671 1.9362 7.53366 1.96244 7.81844L2.90452 13.3953C2.98469 13.7688 3.18838 14.1051 3.48342 14.3513C3.77846 14.5974 4.14802 14.7393 4.53369 14.7545H12.467C12.8537 14.7392 13.2242 14.5964 13.5194 14.3488C13.8146 14.1013 14.0176 13.7632 14.0962 13.3883L15.0383 7.81144C15.0612 7.52692 15.0197 7.24093 14.9168 6.97429C14.8139 6.70764 14.6521 6.46707 14.4433 6.27009L9.53452 2.38869C9.23501 2.16498 8.86854 2.04663 8.49327 2.0524Z" fill="white"/>
</g>
</g>
</svg>
