<svg width="15" height="19" viewBox="0 0 15 19" fill="none" xmlns="http://www.w3.org/2000/svg">
<g id="XMLID_484_">
<path id="XMLID_581_" d="M13.2311 7.27672H6.46956C6.78223 6.91624 6.97221 6.44601 6.97221 5.93181C6.97221 4.80026 6.05441 3.8797 4.92626 3.8797C3.79811 3.8797 2.88032 4.80026 2.88032 5.93181C2.88032 6.44601 3.0703 6.91624 3.38292 7.27672H1.76887C0.793514 7.27672 0 8.07263 0 9.05092V11.1444C0 11.3404 0.158384 11.4993 0.353774 11.4993C0.549163 11.4993 0.707547 11.3404 0.707547 11.1444V9.05092C0.707547 8.46394 1.18366 7.9864 1.76887 7.9864H11.6745C12.2597 7.9864 12.7358 8.46394 12.7358 9.05092V10.9671H9.0566C8.08125 10.9671 7.28774 11.763 7.28774 12.7412C7.28774 13.7195 8.08125 14.5154 9.0566 14.5154H12.7358V16.4316C12.7358 17.0186 12.2597 17.4961 11.6745 17.4961H1.76887C1.18366 17.4961 0.707547 17.0186 0.707547 16.4316V14.3353C0.707547 14.1393 0.549163 13.9804 0.353774 13.9804C0.158384 13.9804 0 14.1393 0 14.3353V16.4316C0 17.4099 0.793514 18.2058 1.76887 18.2058H13.2311C14.2065 18.2058 15 17.4099 15 16.4316V9.05092C15 8.07263 14.2065 7.27672 13.2311 7.27672ZM4.92626 4.58941C5.66427 4.58941 6.26466 5.19161 6.26466 5.93184C6.26466 6.67207 5.66427 7.27427 4.92626 7.27427C4.18829 7.27427 3.58787 6.67207 3.58787 5.93184C3.58787 5.19161 4.18825 4.58941 4.92626 4.58941ZM13.0887 7.9864H13.2311C13.8163 7.9864 14.2925 8.46394 14.2925 9.05092V10.9671H13.4434V9.05092C13.4434 8.65183 13.3113 8.28315 13.0887 7.9864ZM7.99528 12.7412C7.99528 12.1543 8.47139 11.6767 9.0566 11.6767H14.2925V13.8058H9.0566C8.47139 13.8058 7.99528 13.3282 7.99528 12.7412ZM13.2311 17.4961H13.0887C13.3113 17.1993 13.4434 16.8307 13.4434 16.4316V14.5154H14.2925V16.4316C14.2925 17.0186 13.8163 17.4961 13.2311 17.4961Z" fill="white"/>
<path id="XMLID_1260_" d="M8.9651 12.3857C8.87171 12.3857 8.78043 12.4237 8.71463 12.4897C8.64883 12.5557 8.61133 12.6473 8.61133 12.7406C8.61133 12.8339 8.64883 12.9255 8.71463 12.9915C8.78079 13.0575 8.87171 13.0954 8.9651 13.0954C9.05814 13.0954 9.14906 13.0575 9.21522 12.9915C9.28102 12.9255 9.31888 12.8339 9.31888 12.7406C9.31888 12.6473 9.28102 12.5557 9.21522 12.4897C9.14942 12.4237 9.05814 12.3857 8.9651 12.3857Z" fill="white"/>
<path id="XMLID_1711_" d="M10.0743 4.88449C11.2024 4.88449 12.1202 3.96393 12.1202 2.83238C12.1202 1.70087 11.2024 0.780273 10.0743 0.780273C8.94612 0.780273 8.02832 1.70083 8.02832 2.83238C8.02832 3.96393 8.94612 4.88449 10.0743 4.88449ZM10.0743 1.48999C10.8122 1.48999 11.4127 2.09219 11.4127 2.83242C11.4127 3.57265 10.8123 4.17485 10.0743 4.17485C9.33626 4.17485 8.73587 3.57265 8.73587 2.83242C8.73587 2.09219 9.33626 1.48999 10.0743 1.48999Z" fill="white"/>
<path id="XMLID_1712_" d="M6.61745 3.49804C6.81283 3.49804 6.97122 3.33918 6.97122 3.1432V0.35484C6.97122 0.158862 6.81283 0 6.61745 0C6.42206 0 6.26367 0.158862 6.26367 0.35484V3.1432C6.26367 3.33918 6.42206 3.49804 6.61745 3.49804Z" fill="white"/>
<path id="XMLID_1757_" d="M4.92018 2.27097C5.11557 2.27097 5.27395 2.11211 5.27395 1.91613V0.35484C5.27395 0.158862 5.11557 0 4.92018 0C4.72479 0 4.56641 0.158862 4.56641 0.35484V1.91613C4.56641 2.11211 4.72479 2.27097 4.92018 2.27097Z" fill="white"/>
<path id="XMLID_1760_" d="M0.353774 13.0952C0.446816 13.0952 0.53809 13.0573 0.603891 12.9913C0.669693 12.9253 0.707547 12.8337 0.707547 12.7404C0.707547 12.6471 0.669693 12.5555 0.603891 12.4895C0.53809 12.4235 0.44717 12.3856 0.353774 12.3856C0.260731 12.3856 0.169458 12.4235 0.103656 12.4895C0.0378538 12.5555 0 12.6471 0 12.7404C0 12.8337 0.0378538 12.9253 0.103656 12.9913C0.169458 13.0573 0.260696 13.0952 0.353774 13.0952Z" fill="white"/>
</g>
</svg>
