<svg width="18" height="17" viewBox="0 0 18 17" fill="none" xmlns="http://www.w3.org/2000/svg">
<g id="vuesax/outline/briefcase">
<g id="briefcase">
<path id="Vector" d="M11.9987 15.9393H5.9987C2.5337 15.9393 1.8887 14.433 1.7237 12.9687L1.1627 7.35676C1.07083 6.89801 1.08345 6.42632 1.19976 5.97243C1.31606 5.51854 1.53343 5.09263 1.8377 4.72245C2.5127 4.02184 3.6302 3.68555 5.2487 3.68555H12.7487C14.3762 3.68555 15.4937 4.02885 16.1612 4.72245C16.4659 5.09377 16.6835 5.52088 16.7998 5.97596C16.9161 6.43105 16.9285 6.90391 16.8362 7.36377L16.2737 12.9617C16.1102 14.433 15.4652 15.9393 11.9987 15.9393ZM5.2487 4.72946C3.9812 4.72946 3.1112 4.96066 2.6687 5.42307C2.46864 5.68462 2.3304 5.98292 2.26316 6.29818C2.19592 6.61345 2.20122 6.93846 2.2787 7.25167L2.8412 12.8636C2.9687 13.9705 3.2912 14.8883 5.9987 14.8883H11.9987C14.6987 14.8883 15.0287 13.9705 15.1562 12.8566L15.7187 7.25867C15.7966 6.94436 15.8021 6.61817 15.7349 6.30171C15.6677 5.98526 15.5292 5.68576 15.3287 5.42307C14.8862 4.96066 14.0162 4.72946 12.7487 4.72946H5.2487Z" fill="white"/>
<path id="Vector_2" d="M12.0005 4.72935C11.8516 4.72843 11.7091 4.67277 11.6038 4.57443C11.4985 4.47609 11.439 4.34297 11.438 4.20389V3.6434C11.438 2.39631 11.438 1.9269 9.60049 1.9269H8.40049C6.56299 1.9269 6.56299 2.39631 6.56299 3.6434V4.20389C6.56201 4.34297 6.50243 4.47609 6.39715 4.57443C6.29187 4.67277 6.14937 4.72843 6.00049 4.72935C5.85161 4.72843 5.7091 4.67277 5.60383 4.57443C5.49855 4.47609 5.43897 4.34297 5.43799 4.20389V3.6434C5.43799 2.41032 5.43799 0.875977 8.40049 0.875977H9.60049C12.563 0.875977 12.563 2.41032 12.563 3.6434V4.20389C12.562 4.34297 12.5024 4.47609 12.3972 4.57443C12.2919 4.67277 12.1494 4.72843 12.0005 4.72935Z" fill="white"/>
<path id="Vector_3" d="M9.00049 11.7352C6.93799 11.7352 6.93799 10.5442 6.93799 9.82954V9.10791C6.93799 8.12004 7.19299 7.88184 8.25049 7.88184H9.75049C10.808 7.88184 11.063 8.12004 11.063 9.10791V9.80852C11.063 10.5372 11.063 11.7352 9.00049 11.7352ZM8.06299 8.93276V9.82954C8.06299 10.5512 8.06299 10.6843 9.00049 10.6843C9.93799 10.6843 9.93799 10.5722 9.93799 9.82253V8.93276H8.06299Z" fill="white"/>
<path id="Vector_4" d="M10.5012 10.348C10.3642 10.3478 10.2319 10.3006 10.1296 10.2154C10.0273 10.1302 9.96205 10.0128 9.94625 9.88561C9.92775 9.74724 9.96865 9.60766 10.06 9.49738C10.1514 9.3871 10.2857 9.31509 10.4337 9.29709C12.4116 9.06606 14.2948 8.37199 15.9087 7.27932C15.9686 7.23819 16.0366 7.20862 16.1088 7.19232C16.181 7.17603 16.2559 7.17335 16.3293 7.18444C16.4026 7.19553 16.4728 7.22017 16.5358 7.25691C16.5988 7.29365 16.6534 7.34176 16.6962 7.39843C16.7834 7.51189 16.8189 7.65298 16.795 7.79083C16.7711 7.92869 16.6898 8.0521 16.5687 8.13407C14.7992 9.33044 12.7359 10.0918 10.5687 10.348H10.5012Z" fill="white"/>
<path id="Vector_5" d="M7.50023 10.3543H7.43273C5.35523 10.1291 3.36784 9.43411 1.64273 8.32955C1.52249 8.25032 1.44033 8.13018 1.41392 7.99496C1.3875 7.85973 1.41893 7.72023 1.50145 7.60643C1.58398 7.49263 1.71101 7.41362 1.85524 7.38638C1.99946 7.35915 2.14937 7.38586 2.27273 7.46079C3.84712 8.4664 5.65872 9.10101 7.55273 9.31041C7.70083 9.32641 7.83609 9.3966 7.92887 9.5056C8.02166 9.6146 8.0644 9.75352 8.04773 9.89191C8.03599 10.0194 7.97297 10.138 7.87138 10.2238C7.76979 10.3096 7.63717 10.3562 7.50023 10.3543Z" fill="white"/>
</g>
</g>
</svg>
