<svg width="129" height="129" viewBox="0 0 129 129" fill="none" xmlns="http://www.w3.org/2000/svg">
<g id="Clip path group">
<mask id="mask0_150_1724" style="mask-type:luminance" maskUnits="userSpaceOnUse" x="0" y="0" width="129" height="129">
<g id="clip-path">
<path id="Vector" d="M129 0H0V129H129V0Z" fill="white"/>
</g>
</mask>
<g mask="url(#mask0_150_1724)">
<g id="Group">
<path id="Vector_2" d="M64.4999 115.671C74.7054 115.671 84.6817 112.644 93.1673 106.975C101.653 101.305 108.267 93.2459 112.172 83.8172C116.078 74.3885 117.099 64.0135 115.108 54.0041C113.117 43.9946 108.203 34.8004 100.987 27.584C93.7702 20.3676 84.576 15.4532 74.5666 13.4622C64.5571 11.4712 54.1821 12.4931 44.7534 16.3985C35.3248 20.304 27.266 26.9177 21.5961 35.4033C15.9262 43.8889 12.8999 53.8652 12.8999 64.0707C12.8999 77.7559 18.3363 90.8806 28.0132 100.557C37.6901 110.234 50.8147 115.671 64.4999 115.671Z" fill="url(#paint0_linear_150_1724)"/>
<path id="Vector_3" d="M84.9422 27.3306H45.15C41.3503 27.3306 38.27 30.4108 38.27 34.2106V87.1135C38.27 90.9132 41.3503 93.9935 45.15 93.9935H84.9422C88.7419 93.9935 91.8222 90.9132 91.8222 87.1135V34.2106C91.8222 30.4108 88.7419 27.3306 84.9422 27.3306Z" fill="url(#paint1_linear_150_1724)"/>
<path id="Vector_4" d="M62.393 35.9307H45.107C43.9433 35.9307 43 36.874 43 38.0377C43 39.2013 43.9433 40.1447 45.107 40.1447H62.393C63.5567 40.1447 64.5 39.2013 64.5 38.0377C64.5 36.874 63.5567 35.9307 62.393 35.9307Z" fill="#697F9B"/>
<path id="Vector_5" d="M83.893 47.8857H45.107C43.9433 47.8857 43 48.8291 43 49.9927C43 51.1564 43.9433 52.0997 45.107 52.0997H83.893C85.0567 52.0997 86 51.1564 86 49.9927C86 48.8291 85.0567 47.8857 83.893 47.8857Z" fill="#E3E4F3"/>
<path id="Vector_6" d="M83.893 59.8398H45.107C43.9433 59.8398 43 60.7832 43 61.9468C43 63.1105 43.9433 64.0538 45.107 64.0538H83.893C85.0567 64.0538 86 63.1105 86 61.9468C86 60.7832 85.0567 59.8398 83.893 59.8398Z" fill="#E3E4F3"/>
<path id="Vector_7" d="M83.893 71.793H45.107C43.9433 71.793 43 72.7363 43 73.9C43 75.0636 43.9433 76.007 45.107 76.007H83.893C85.0567 76.007 86 75.0636 86 73.9C86 72.7363 85.0567 71.793 83.893 71.793Z" fill="#E3E4F3"/>
<path id="Vector_8" d="M45.107 83.7471H83.893C84.4518 83.7471 84.9877 83.9691 85.3829 84.3642C85.778 84.7593 86 85.2953 86 85.8541C86 86.4129 85.778 86.9488 85.3829 87.3439C84.9877 87.7391 84.4518 87.9611 83.893 87.9611H45.107C44.5482 87.9611 44.0123 87.7391 43.6171 87.3439C43.222 86.9488 43 86.4129 43 85.8541C43 85.2953 43.222 84.7593 43.6171 84.3642C44.0123 83.9691 44.5482 83.7471 45.107 83.7471Z" fill="#E3E4F3"/>
<path id="Vector_9" d="M123.904 19.9609H98.07C97.4765 19.9767 96.9136 20.2274 96.5048 20.6579C96.096 21.0885 95.8749 21.6636 95.8899 22.2571V35.0367C95.876 35.6295 96.0977 36.2036 96.5063 36.6332C96.915 37.0628 97.4773 37.3129 98.07 37.3286H123.904C124.497 37.3129 125.059 37.0628 125.468 36.6332C125.877 36.2036 126.098 35.6295 126.084 35.0367V22.2571C126.1 21.6636 125.878 21.0885 125.47 20.6579C125.061 20.2274 124.498 19.9767 123.904 19.9609Z" fill="white"/>
<path id="Vector_10" d="M102.34 31.3905C102.85 31.3905 103.349 31.2392 103.773 30.9557C104.198 30.6722 104.528 30.2692 104.724 29.7978C104.919 29.3264 104.97 28.8076 104.87 28.3071C104.771 27.8067 104.525 27.3469 104.164 26.9861C103.804 26.6253 103.344 26.3796 102.843 26.28C102.343 26.1805 101.824 26.2316 101.353 26.4269C100.881 26.6221 100.478 26.9528 100.195 27.3771C99.9113 27.8014 99.76 28.3002 99.76 28.8105C99.76 29.4947 100.032 30.151 100.516 30.6348C101 31.1186 101.656 31.3905 102.34 31.3905Z" fill="#697F9B"/>
<path id="Vector_11" d="M110.94 26.2305H119.54C120.224 26.2305 120.881 26.5023 121.364 26.9861C121.848 27.47 122.12 28.1262 122.12 28.8105C122.12 29.4947 121.848 30.151 121.364 30.6348C120.881 31.1187 120.224 31.3905 119.54 31.3905H110.94C110.256 31.3905 109.6 31.1187 109.116 30.6348C108.632 30.151 108.36 29.4947 108.36 28.8105C108.36 28.1262 108.632 27.47 109.116 26.9861C109.6 26.5023 110.256 26.2305 110.94 26.2305Z" fill="#E3E4F3"/>
<path id="Vector_12" fill-rule="evenodd" clip-rule="evenodd" d="M79.5971 96.9916C84.9248 97.0028 90.1343 95.4215 94.5568 92.4508L112.058 109.156L118.405 101.795L101.519 85.674C105.005 80.7613 106.741 74.8196 106.446 68.8024C106.152 62.7852 103.844 57.0414 99.8942 52.4927C95.9442 47.944 90.5806 44.8541 84.6642 43.7189C78.7477 42.5837 72.6214 43.4689 67.2683 46.2326C61.9152 48.9962 57.6457 53.4781 55.145 58.9589C52.6442 64.4397 52.0572 70.6018 53.478 76.4562C54.8989 82.3106 58.2453 87.518 62.9803 91.2427C67.7152 94.9675 73.5641 96.9936 79.5885 96.9959L79.5971 96.9916ZM102.52 70.1166C102.521 74.6176 101.187 79.0178 98.6872 82.7606C96.1871 86.5034 92.6332 89.4207 88.475 91.1435C84.3168 92.8664 79.741 93.3174 75.3265 92.4395C70.9119 91.5616 66.8569 89.3943 63.6742 86.2116C60.4915 83.0289 58.3242 78.9738 57.4463 74.5593C56.5684 70.1447 57.0194 65.569 58.7422 61.4108C60.4651 57.2525 63.3824 53.6987 67.1252 51.1986C70.868 48.6985 75.2681 47.3645 79.7691 47.3653C85.8032 47.3653 91.59 49.7623 95.8567 54.029C100.123 58.2957 102.52 64.0826 102.52 70.1166Z" fill="#292D32"/>
<path id="Vector_13" d="M79.7651 93.3106C92.7081 93.3106 103.2 82.9132 103.2 70.0906C103.2 57.268 92.7081 46.8706 79.7651 46.8706C66.8221 46.8706 56.3301 57.268 56.3301 70.0906C56.3301 82.9132 66.8221 93.3106 79.7651 93.3106Z" fill="white" fill-opacity="0.3"/>
<path id="Vector_14" d="M83.8156 70.0909L89.4873 64.4407C89.8827 64.0237 90.1477 63.5004 90.2497 62.9349C90.3518 62.3694 90.2864 61.7864 90.0617 61.2575C89.837 60.7286 89.4628 60.2769 88.9849 59.9578C88.507 59.6387 87.9463 59.4662 87.3717 59.4613C86.5984 59.4482 85.8505 59.7365 85.2862 60.2654L79.6016 65.9156L73.9299 60.2654C73.658 59.9773 73.3303 59.7476 72.9667 59.5903C72.6019 59.43 72.2084 59.3452 71.81 59.3409C71.4123 59.3331 71.0171 59.4051 70.6478 59.5528C70.2785 59.7006 69.9426 59.921 69.66 60.2009C69.3787 60.4798 69.1578 60.8135 69.0107 61.1813C68.8607 61.5463 68.7861 61.9379 68.7913 62.3325C68.7964 62.7271 68.8813 63.1165 69.0408 63.4775C69.2021 63.8387 69.4329 64.1645 69.7202 64.4364L75.4134 70.0909L69.7288 75.7411C69.4415 76.013 69.2107 76.3388 69.0494 76.7C68.8899 77.061 68.805 77.4504 68.7999 77.845C68.7947 78.2396 68.8693 78.6312 69.0193 78.9962C69.1633 79.3648 69.3813 79.6999 69.66 79.9809C69.9426 80.2609 70.2785 80.4812 70.6478 80.629C71.0171 80.7767 71.4123 80.8488 71.81 80.8409C72.207 80.8361 72.5989 80.7512 72.9624 80.5915C73.326 80.4343 73.6537 80.2046 73.9256 79.9164L79.6102 74.2662L85.2948 79.9164C85.8634 80.4141 86.5998 80.6771 87.355 80.6524C88.1102 80.6276 88.8278 80.3169 89.3626 79.7831C89.8976 79.2536 90.2085 78.5386 90.2309 77.7862C90.2533 77.0338 89.9855 76.3016 89.483 75.7411L83.8156 70.0909Z" fill="#292D32"/>
<path id="Vector_15" d="M112.058 109.152L118.405 101.79L119.359 102.702C120.29 103.614 120.841 104.845 120.902 106.146C120.962 107.448 120.528 108.724 119.686 109.719C119.28 110.197 118.781 110.588 118.219 110.867C117.657 111.147 117.045 111.309 116.418 111.345C115.793 111.373 115.169 111.274 114.584 111.052C113.999 110.83 113.466 110.491 113.017 110.055L112.062 109.143L112.058 109.152Z" fill="#697F9B"/>
<path id="Vector_16" fill-rule="evenodd" clip-rule="evenodd" d="M24.2132 39.2037C24.2079 38.5788 24.1285 37.9567 23.9767 37.3504C23.4349 35.166 21.0312 33.7599 18.4684 33.4331C15.9056 33.1063 13.2439 33.8631 12.2162 35.7551C11.9572 36.17 11.7855 36.6334 11.7115 37.1169C11.6376 37.6004 11.663 38.0939 11.7862 38.5673C12.0646 39.3808 12.6222 40.0694 13.36 40.5109C15.51 41.9256 19.2596 42.2309 20.9753 41.6203C21.7703 41.3456 22.546 41.0181 23.2973 40.6399C22.8673 43.1124 21.2591 45.4516 19.1134 47.5629C14.4565 52.1467 7.22389 55.6254 3.28509 56.9068C3.18405 56.9448 3.10097 57.0194 3.05238 57.1158C3.00379 57.2121 2.99323 57.3233 3.02279 57.4271C3.03663 57.479 3.06078 57.5276 3.0938 57.57C3.12682 57.6123 3.16804 57.6476 3.21499 57.6737C3.26195 57.6998 3.31368 57.7161 3.36709 57.7218C3.42051 57.7274 3.47452 57.7223 3.52589 57.7066C7.54209 56.4166 14.9123 52.8476 19.6638 48.1735C22.1191 45.7569 23.8692 43.0393 24.1659 40.1798C29.7172 37.0838 34.2709 31.468 38.1667 26.738C38.2366 26.6534 38.2716 26.5453 38.2644 26.4358C38.2572 26.3262 38.2084 26.2236 38.128 26.1489C38.0886 26.113 38.0423 26.0855 37.9919 26.0682C37.9415 26.0508 37.8881 26.044 37.8349 26.048C37.7818 26.052 37.73 26.0669 37.6828 26.0916C37.6356 26.1164 37.5939 26.1505 37.5604 26.1919C33.828 30.7284 29.4893 36.1206 24.2132 39.2037ZM23.4091 39.6552C23.4407 38.9492 23.3697 38.2424 23.1984 37.5568C22.734 35.6691 20.5883 34.5468 18.3695 34.263C17.0598 34.0619 15.72 34.2286 14.4995 34.7446C13.8259 35.0307 13.2642 35.529 12.8999 36.1636C12.6971 36.4788 12.5605 36.8319 12.4984 37.2015C12.4363 37.5711 12.45 37.9495 12.5387 38.3136C12.762 38.9394 13.199 39.4663 13.7728 39.8014C15.7293 41.0914 19.1478 41.3666 20.7087 40.8248C21.6385 40.5073 22.5415 40.1162 23.4091 39.6552Z" fill="#292D32"/>
<path id="Vector_17" d="M122.55 81.7C123.975 81.7 125.13 80.5449 125.13 79.12C125.13 77.6951 123.975 76.54 122.55 76.54C121.125 76.54 119.97 77.6951 119.97 79.12C119.97 80.5449 121.125 81.7 122.55 81.7Z" fill="#697F9B"/>
<path id="Vector_18" fill-rule="evenodd" clip-rule="evenodd" d="M25.1034 96.9177C25.5841 96.756 26.0314 96.5083 26.4235 96.1867C26.8198 95.7989 27.0806 95.2938 27.1674 94.7462C27.3265 94.0582 27.3867 93.3272 27.5759 92.6392C27.6107 92.4791 27.7043 92.3379 27.8382 92.2435C27.9606 92.149 28.1142 92.1045 28.2682 92.1189C28.3827 92.1245 28.4935 92.1615 28.5883 92.226C28.6832 92.2905 28.7584 92.3799 28.8057 92.4843C28.8374 92.5454 28.8605 92.6105 28.8745 92.6779C28.8745 92.7424 28.8745 92.9401 28.9132 93.0218C28.9476 93.2254 28.9777 93.4275 29.0035 93.6281C29.0463 94.2692 29.1915 94.8992 29.4335 95.4943C29.8334 96.3543 30.2376 96.8488 30.7794 97.081C31.418 97.279 32.1016 97.279 32.7402 97.081L32.9681 97.0295C33.1425 97.0022 33.3207 97.0454 33.4634 97.1494C33.6061 97.2534 33.7017 97.4097 33.7292 97.5842C33.7646 97.7588 33.7318 97.9404 33.6374 98.0916C33.543 98.2428 33.3943 98.352 33.2218 98.3968L33.0068 98.4442C31.9189 98.728 30.6633 99.7342 29.9323 100.62C29.7044 100.895 29.3776 101.656 29.0422 102.142C28.8594 102.439 28.5932 102.675 28.2768 102.822C28.1483 102.864 28.0096 102.864 27.8812 102.822C27.7203 102.783 27.5802 102.685 27.4899 102.546C27.4231 102.451 27.3776 102.343 27.3566 102.228C27.3566 102.164 27.3566 102 27.3566 101.923C27.2878 101.678 27.2061 101.433 27.1459 101.183C26.9865 100.646 26.7235 100.145 26.3719 99.7084C26.0904 99.2714 25.6887 98.925 25.2152 98.7108C24.9519 98.6485 24.6921 98.5724 24.4369 98.4829C24.2496 98.402 24.0972 98.2572 24.0069 98.0743C23.9422 97.9332 23.9169 97.7772 23.9338 97.6229C23.9564 97.4388 24.045 97.2692 24.1832 97.1456C24.2943 97.0469 24.4291 96.9788 24.5745 96.9477C24.6949 96.9391 25.0561 96.922 25.1034 96.9177ZM28.1865 95.9459L28.2639 96.1179C28.853 97.352 29.5066 98.0399 30.3021 98.371H30.3322C29.8242 98.7629 29.36 99.2083 28.9476 99.6997C28.7334 100.003 28.5422 100.322 28.3757 100.654C28.1663 100.025 27.8538 99.4353 27.4512 98.9085C27.1763 98.4871 26.8248 98.121 26.4149 97.8293C26.7229 97.6643 27.0114 97.4653 27.2749 97.2359C27.6732 96.881 27.985 96.4398 28.1865 95.9459Z" fill="#697F9B"/>
</g>
</g>
</g>
<defs>
<linearGradient id="paint0_linear_150_1724" x1="64.1" y1="-4.32937" x2="65.1578" y2="176.881" gradientUnits="userSpaceOnUse">
<stop stop-color="#F3F4FA"/>
<stop offset="1" stop-color="#E2E3F1"/>
</linearGradient>
<linearGradient id="paint1_linear_150_1724" x1="65.0461" y1="27.3306" x2="65.0461" y2="93.9935" gradientUnits="userSpaceOnUse">
<stop stop-color="white"/>
<stop offset="0.72" stop-color="#FAFAFA"/>
</linearGradient>
</defs>
</svg>
