<svg width="40" height="40" viewBox="0 0 40 40" fill="none" xmlns="http://www.w3.org/2000/svg">
<g id="Group 59733">
<path id="Vector" d="M27.4851 28.9149H17.1422L6.14209 39.915C6.44212 39.9721 6.75637 40.0007 7.0707 40.0007H32.9279C35.6423 40.0007 37.8566 37.7864 37.8566 35.0721V12.8291H33.228L27.4851 18.572C28.2708 18.572 28.9136 19.2149 28.9136 20.0006C28.9136 20.7863 28.2708 21.4292 27.4851 21.4292H24.6279L19.9993 26.0578H27.4851C28.2708 26.0578 28.9136 26.7006 28.9136 27.4863C28.9136 28.272 28.2708 28.9149 27.4851 28.9149Z" fill="#ADC3DF"/>
<path id="Vector_2" d="M37.5616 0.418529L32.2901 5.68999L30.1859 3.75717L26.943 0.785701V7.91429C26.943 8.751 27.4546 9.47576 28.1844 9.79567L26.1207 11.8595C25.332 11.2811 24.7083 10.496 24.3858 9.5572C24.1858 9.04284 24.0858 8.48576 24.0858 7.91429V0H7.07148C4.35715 0 2.14287 2.21428 2.14287 4.92861V35.0716C2.14287 35.3081 2.19353 35.528 2.22588 35.7542L0.418529 37.5616C-0.13951 38.1196 -0.13951 39.0236 0.418529 39.5817C0.697548 39.8607 1.06306 40.0002 1.42858 40.0002C1.79409 40.0002 2.15961 39.8607 2.43863 39.5817L39.5817 2.43863C40.1397 1.88059 40.1397 0.976568 39.5817 0.418529C39.0236 -0.13951 38.1196 -0.13951 37.5616 0.418529ZM15.6144 21.4287H12.5144C11.7287 21.4287 11.0858 20.7858 11.0858 20.0001C11.0858 19.2144 11.7287 18.5715 12.5144 18.5715H15.6144C16.4001 18.5715 17.0429 19.2144 17.0429 20.0001C17.0429 20.7858 16.4001 21.4287 15.6144 21.4287ZM20.0001 13.9429H12.5144C11.7287 13.9429 11.0858 13.3001 11.0858 12.5144C11.0858 11.7286 11.7287 11.0858 12.5144 11.0858H20.0001C20.7858 11.0858 21.4287 11.7286 21.4287 12.5144C21.4287 13.3001 20.7858 13.9429 20.0001 13.9429Z" fill="#ADC3DF"/>
</g>
</svg>
