<svg xmlns="http://www.w3.org/2000/svg" width="123.078" height="103.2" viewBox="0 0 123.078 103.2">
  <g id="Clip_path_group" data-name="Clip path group" transform="translate(-3.006 -12.471)">
    <g id="Group_55774" data-name="Group 55774">
      <g id="Group">
        <path id="Vector_2" d="M64.5,115.671a51.6,51.6,0,1,0-36.487-15.114A51.607,51.607,0,0,0,64.5,115.671Z" fill="#2b2c2e"/>
        <path id="Vector_3" d="M84.942,27.331H45.15a6.88,6.88,0,0,0-6.88,6.88v52.9a6.88,6.88,0,0,0,6.88,6.88H84.942a6.88,6.88,0,0,0,6.88-6.88v-52.9A6.88,6.88,0,0,0,84.942,27.331Z" fill="#191818"/>
        <path id="Vector_4" d="M62.393,35.931H45.107a2.107,2.107,0,0,0,0,4.214H62.393a2.107,2.107,0,0,0,0-4.214Z" fill="#4e4e4e"/>
        <path id="Vector_5" d="M83.893,47.886H45.107a2.107,2.107,0,0,0,0,4.214H83.893a2.107,2.107,0,1,0,0-4.214Z" fill="#4e4e4e"/>
        <path id="Vector_6" d="M83.893,59.84H45.107a2.107,2.107,0,0,0,0,4.214H83.893a2.107,2.107,0,1,0,0-4.214Z" fill="#4e4e4e"/>
        <path id="Vector_7" d="M83.893,71.793H45.107a2.107,2.107,0,0,0,0,4.214H83.893a2.107,2.107,0,0,0,0-4.214Z" fill="#4e4e4e"/>
        <path id="Vector_8" d="M45.107,83.747H83.893a2.107,2.107,0,0,1,0,4.214H45.107a2.107,2.107,0,1,1,0-4.214Z" fill="#4e4e4e"/>
        <path id="Vector_9" d="M123.9,19.961H98.07a2.24,2.24,0,0,0-2.18,2.3v12.78a2.24,2.24,0,0,0,2.18,2.292H123.9a2.239,2.239,0,0,0,2.18-2.292V22.257a2.239,2.239,0,0,0-2.18-2.3Z" fill="#393939"/>
        <path id="Vector_10" d="M102.34,31.39a2.581,2.581,0,1,0-1.824-.756A2.579,2.579,0,0,0,102.34,31.39Z" fill="#4e4e4e"/>
        <path id="Vector_11" d="M110.94,26.23h8.6a2.58,2.58,0,0,1,0,5.16h-8.6a2.58,2.58,0,0,1,0-5.16Z" fill="#4e4e4e"/>
        <path id="Vector_12" d="M79.6,96.992a26.728,26.728,0,0,0,14.96-4.541l17.5,16.705,6.347-7.361L101.519,85.674A26.88,26.88,0,1,0,79.589,97ZM102.52,70.117a22.751,22.751,0,1,1-6.663-16.088A22.756,22.756,0,0,1,102.52,70.117Z" fill="#8d8d8d" fill-rule="evenodd"/>
        <path id="Vector_13" d="M79.765,93.311A23.221,23.221,0,1,0,56.33,70.091,23.329,23.329,0,0,0,79.765,93.311Z" fill="rgba(157,157,157,0.3)"/>
        <path id="Vector_14" d="M83.816,70.091l5.672-5.65a2.963,2.963,0,0,0-4.2-4.175L79.6,65.916l-5.672-5.65a2.917,2.917,0,0,0-.963-.675,2.992,2.992,0,0,0-3.307.611,2.894,2.894,0,0,0-.649.98,2.929,2.929,0,0,0,.03,2.3,3.01,3.01,0,0,0,.679.959l5.693,5.654-5.685,5.65a3.01,3.01,0,0,0-.679.959,2.929,2.929,0,0,0-.03,2.3,2.893,2.893,0,0,0,.641.985,3,3,0,0,0,3.3.611,2.914,2.914,0,0,0,.963-.675l5.685-5.65,5.685,5.65a2.98,2.98,0,0,0,4.068-.133,2.933,2.933,0,0,0,.12-4.042Z" fill="#8d8d8d"/>
        <path id="Vector_15" d="M112.058,109.152l6.347-7.362.954.912a5.157,5.157,0,0,1,.327,7.017,4.557,4.557,0,0,1-6.669.336l-.955-.912Z" fill="#a09b9b"/>
        <path id="Vector_16" d="M24.213,39.2a7.907,7.907,0,0,0-.236-1.853c-.542-2.184-2.945-3.59-5.508-3.917s-5.224.43-6.252,2.322a3.6,3.6,0,0,0-.43,2.812,3.638,3.638,0,0,0,1.574,1.944,10.485,10.485,0,0,0,7.615,1.109,18.87,18.87,0,0,0,2.322-.98,13.451,13.451,0,0,1-4.184,6.923c-4.657,4.584-11.89,8.063-15.828,9.344a.43.43,0,0,0-.262.52.4.4,0,0,0,.5.279c4.016-1.29,11.386-4.859,16.138-9.533,2.455-2.417,4.205-5.134,4.5-7.994,5.551-3.1,10.105-8.712,14-13.442a.43.43,0,0,0-.039-.589.391.391,0,0,0-.568.043C33.828,30.728,29.489,36.121,24.213,39.2Zm-.8.451a7.308,7.308,0,0,0-.211-2.1c-.464-1.888-2.61-3.01-4.829-3.294a7.151,7.151,0,0,0-3.87.482,3.358,3.358,0,0,0-1.6,1.419,2.764,2.764,0,0,0-.361,2.15A2.821,2.821,0,0,0,13.773,39.8a9.625,9.625,0,0,0,6.936,1.023A18.486,18.486,0,0,0,23.409,39.655Z" fill="#4e4e4e" fill-rule="evenodd"/>
        <path id="Vector_17" d="M122.55,81.7a2.58,2.58,0,1,0-2.58-2.58A2.58,2.58,0,0,0,122.55,81.7Z" fill="#8d8d8d"/>
        <path id="Vector_18" d="M25.1,96.918a4.186,4.186,0,0,0,1.32-.731,2.581,2.581,0,0,0,.744-1.44c.159-.688.219-1.419.408-2.107a.654.654,0,0,1,.262-.4.61.61,0,0,1,.43-.125.623.623,0,0,1,.538.365.752.752,0,0,1,.069.194,1.1,1.1,0,0,0,.039.344q.052.305.09.606a6.018,6.018,0,0,0,.43,1.866,2.851,2.851,0,0,0,1.346,1.587,3.311,3.311,0,0,0,1.961,0l.228-.051a.666.666,0,0,1,.761.555.7.7,0,0,1-.507.813l-.215.047a6.909,6.909,0,0,0-3.075,2.176c-.228.275-.555,1.036-.89,1.522a1.777,1.777,0,0,1-.765.68.637.637,0,0,1-.4,0,.647.647,0,0,1-.391-.276.8.8,0,0,1-.133-.318v-.305c-.069-.245-.15-.49-.211-.74a4.3,4.3,0,0,0-.774-1.475,2.7,2.7,0,0,0-1.157-1,7.731,7.731,0,0,1-.778-.228.823.823,0,0,1-.5-.86.765.765,0,0,1,.249-.477.86.86,0,0,1,.391-.2C24.695,96.939,25.056,96.922,25.1,96.918Zm3.083-.972.077.172A4.132,4.132,0,0,0,30.3,98.371h.03A8.922,8.922,0,0,0,28.948,99.7a7.422,7.422,0,0,0-.572.954,5.991,5.991,0,0,0-.924-1.745,4.021,4.021,0,0,0-1.036-1.079,4.664,4.664,0,0,0,.86-.593A3.5,3.5,0,0,0,28.187,95.946Z" fill="#4e4e4e" fill-rule="evenodd"/>
      </g>
    </g>
  </g>
</svg>
