<svg width="130" height="137" viewBox="0 0 130 137" fill="none" xmlns="http://www.w3.org/2000/svg">
<g id="Group">
<g id="Illustration">
<path id="Vector" d="M56.0337 16.0835C50.1827 27.6908 16.4876 11.395 7.30784 25.3149C-1.6926 38.9622 12.9978 50.4962 6.83458 81.6491C3.52033 98.4034 -2.5424 104.235 1.15778 114.55C4.97486 125.192 16.2979 132.563 26.467 135.143C47.4441 140.465 56.583 123.637 80.1597 129.462C88.2728 131.467 91.0349 134.409 99.5555 134.433C101.596 134.439 117.498 134.498 125.811 125.202C138.707 110.781 117.387 91.6848 121.434 47.43C122.111 40.0334 123.512 31.7549 118.951 23.1245C112.63 11.1648 99.3203 7.08712 94.1909 5.40276C81.7138 1.30532 62.711 0.718499 57.6248 9.50489C55.9806 12.345 57.3497 13.4722 56.0332 16.0835H56.0337Z" fill="#1D2635"/>
<path id="Vector_2" d="M46.8085 84.3052C44.0075 84.1257 41.3623 82.3497 40.2247 79.6148L24.1788 41.0465C22.7177 37.5344 24.3661 33.5601 27.8785 32.1506C31.4158 30.7312 36.9297 32.4029 38.4283 35.952L54.8892 74.9385C56.4409 78.6145 54.6911 82.6335 51.0003 83.8983C50.0913 84.2098 47.733 84.3644 46.809 84.3052H46.8085Z" fill="url(#paint0_linear_33_5593)"/>
<path id="Vector_3" style="mix-blend-mode:multiply" opacity="0.3" d="M27.8785 32.1506C31.4158 30.7312 36.9297 32.4029 38.4283 35.952L53.4793 71.5994C50.9604 70.952 47.9785 71.0098 45.116 68.4985C40.3509 64.3174 42.6952 58.9589 38.918 54.1859C37.1916 52.004 33.9971 49.7074 27.4945 49.0163L24.1788 41.0469C22.7177 37.5349 24.3661 33.5606 27.8785 32.1511V32.1506Z" fill="url(#paint1_linear_33_5593)"/>
<path id="Vector_4" d="M12.6695 60.1218L3.35123 119.943C3.17423 121.096 3.99634 122.138 5.04521 122.088L51.6836 119.886L12.6695 60.1218Z" fill="url(#paint2_linear_33_5593)"/>
<path id="Vector_5" d="M97.9754 61.3684L14.4601 58.7833C13.2422 58.7457 12.4436 59.6788 12.6802 60.868L26.2273 128.953C26.464 130.142 27.626 131.036 28.8195 130.95L110.643 125.033C111.569 124.966 112.149 124.066 111.941 123.023L100.06 63.3092C99.8525 62.2662 98.9205 61.397 97.9754 61.3679V61.3684Z" fill="url(#paint3_linear_33_5593)"/>
<path id="Vector_6" d="M98.4261 61.3684L14.9108 58.7833C13.6929 58.7457 12.8943 59.6788 13.1309 60.868L26.678 128.953C26.9147 130.142 28.0767 131.036 29.2702 130.95L111.094 125.033C112.02 124.966 112.6 124.066 112.392 123.023L100.511 63.3092C100.303 62.2662 99.3712 61.397 98.4261 61.3679V61.3684Z" fill="url(#paint4_linear_33_5593)"/>
<g id="Group_2" style="mix-blend-mode:multiply" opacity="0.3">
<path id="Vector_7" d="M76.6317 97.4427C60.1938 88.505 44.6165 95.453 33.4005 83.9885C26.494 76.9292 25.2264 66.9339 25.4334 59.1065L14.9118 58.7809C13.6939 58.7433 12.8952 59.6764 13.1319 60.8655L26.679 128.951C26.9156 130.14 28.0777 131.034 29.2711 130.947L100.266 125.813C92.5061 108.958 83.7578 101.316 76.6326 97.4422L76.6317 97.4427Z" fill="url(#paint5_linear_33_5593)"/>
</g>
<path id="Vector_8" d="M108.299 122.767L30.7894 128.061C29.5016 128.149 28.2466 127.178 27.9907 125.892L15.922 65.2374C15.6661 63.951 16.5258 62.9352 17.8376 62.9686L96.7959 64.9546C97.8269 64.9804 98.8439 65.9215 99.0697 67.0566L109.72 120.587C109.946 121.722 109.311 122.698 108.299 122.767H108.299Z" fill="#283D61"/>
<path id="Vector_9" d="M108.646 122.742L31.2294 128.029C29.9434 128.117 28.6898 127.147 28.4339 125.861L16.3732 65.2448C16.1174 63.9593 16.9761 62.944 18.286 62.9774L97.1495 64.961C98.1796 64.9868 99.1951 65.9275 99.4209 67.0621L110.066 120.562C110.292 121.697 109.658 122.672 108.646 122.741V122.742Z" fill="#3A475D"/>
<path id="Vector_10" d="M57.5731 84.8514L49.1224 84.9035C48.8689 84.905 48.6215 84.6959 48.5698 84.4361L47.1721 77.4106C47.1204 77.1508 47.2848 76.9417 47.5388 76.9431L56.0091 76.9906C56.2566 76.992 56.4984 77.2006 56.5495 77.4567L57.928 84.3848C57.9792 84.6409 57.82 84.85 57.5731 84.8514ZM49.3943 83.9615L56.9406 83.9253L55.7453 77.9166L48.1853 77.8847L49.3943 83.9615Z" fill="#8E9CAB"/>
<path id="Vector_11" d="M68.2524 84.7849L60.0722 84.8356C59.8271 84.837 59.5867 84.6312 59.536 84.3757L58.1608 77.4644C58.1101 77.2088 58.2683 77.003 58.5139 77.0044L66.7134 77.0504C66.9533 77.0519 67.188 77.2572 67.2383 77.509L68.5947 84.3263C68.6449 84.5781 68.4918 84.7839 68.2524 84.7853V84.7849ZM60.3318 83.9086L67.6369 83.8734L66.4603 77.961L59.1421 77.93L60.3318 83.9082V83.9086Z" fill="#8E9CAB"/>
<path id="Vector_12" d="M78.5944 84.7231L70.6719 84.7719C70.4344 84.7733 70.201 84.5708 70.1513 84.3195L68.7981 77.5186C68.7479 77.2672 68.9005 77.0643 69.139 77.0657L77.0802 77.1103C77.3126 77.1117 77.5403 77.3138 77.5901 77.5618L78.9254 84.2715C78.9747 84.5196 78.8273 84.7216 78.5953 84.7231H78.5944ZM70.9208 83.86L77.9958 83.8261L76.838 78.0072L69.7503 77.9776L70.9208 83.8604V83.86Z" fill="#8E9CAB"/>
<path id="Vector_13" d="M88.6158 84.6562L80.9389 84.7037C80.7089 84.7051 80.4821 84.5059 80.4328 84.2583L79.1008 77.564C79.0515 77.3164 79.1989 77.1172 79.4295 77.1182L87.1247 77.1614C87.3496 77.1628 87.5712 77.3615 87.62 77.6059L88.9341 84.2113C88.983 84.4556 88.8403 84.6543 88.6158 84.6557V84.6562ZM81.177 83.8058L88.0327 83.7729L86.8927 78.0442L80.0248 78.0156L81.177 83.8058Z" fill="#8E9CAB"/>
<path id="Vector_14" d="M98.3297 84.5927L90.8871 84.6387C90.6641 84.6401 90.4439 84.4437 90.3955 84.1999L89.0842 77.6095C89.0358 77.3656 89.1776 77.1693 89.4016 77.1707L96.8615 77.2125C97.0799 77.2139 97.2954 77.4098 97.3433 77.6499L98.6377 84.1548C98.6856 84.3953 98.548 84.5912 98.3302 84.5927H98.3297ZM91.1153 83.7549L97.7616 83.723L96.639 78.0821L89.9805 78.054L91.1148 83.7549H91.1153Z" fill="#8E9CAB"/>
<path id="Vector_15" d="M37.0412 94.5614L28.0328 94.7427C27.7624 94.7484 27.4999 94.535 27.4464 94.2663L26.0008 87.0008C25.9473 86.732 26.1238 86.5126 26.3947 86.5103L35.4242 86.4351C35.6881 86.4327 35.9444 86.6456 35.997 86.9106L37.422 94.0718C37.4746 94.3363 37.3041 94.5552 37.0412 94.5609V94.5614ZM28.3286 93.7617L36.3731 93.6109L35.1374 87.3997L27.0783 87.4776L28.3286 93.7617Z" fill="#9CCEFD"/>
<path id="Vector_16" d="M48.4142 94.3382L39.7039 94.5139C39.4424 94.5191 39.1879 94.3095 39.1353 94.0455L37.7141 86.9021C37.6616 86.638 37.8315 86.4224 38.0935 86.42L46.8244 86.3477C47.0794 86.3458 47.3282 86.5549 47.3799 86.8152L48.7813 93.858C48.833 94.1183 48.6691 94.3335 48.4147 94.3386L48.4142 94.3382ZM39.9865 93.5493L47.7653 93.4037L46.5498 87.2953L38.7569 87.371L39.9861 93.5498L39.9865 93.5493Z" fill="#8E9CAB"/>
<path id="Vector_17" d="M59.4164 94.112L50.9892 94.2817C50.7366 94.2868 50.4897 94.0806 50.438 93.8208L49.0403 86.7953C48.9886 86.5355 49.152 86.3231 49.4056 86.3212L57.8525 86.2512C58.0994 86.2494 58.3407 86.4551 58.3915 86.7112L59.7699 93.6394C59.8211 93.8955 59.6629 94.1074 59.4164 94.112ZM51.2597 93.3335L58.7854 93.1926L57.59 87.1839L50.0507 87.2571L51.2597 93.334V93.3335Z" fill="#8E9CAB"/>
<path id="Vector_18" d="M70.0663 93.899L61.9087 94.0634C61.6641 94.0681 61.4246 93.8651 61.3734 93.6095L59.9983 86.6983C59.9475 86.4427 60.1053 86.2341 60.3504 86.2317L68.5273 86.1636C68.7663 86.1617 69.0006 86.3642 69.0508 86.6165L70.4072 93.4338C70.4574 93.6857 70.3049 93.8943 70.0663 93.899ZM62.1669 93.1308L69.4518 92.9941L68.2752 87.0816L60.9772 87.1526L62.1664 93.1308H62.1669Z" fill="url(#paint6_linear_33_5593)"/>
<path id="Vector_19" d="M80.3795 93.6894L72.4786 93.8487C72.2415 93.8534 72.0091 93.6537 71.9589 93.4019L70.6058 86.601C70.5555 86.3496 70.7077 86.1443 70.9452 86.142L78.8644 86.0762C79.0959 86.0743 79.3236 86.274 79.3729 86.5221L80.7082 93.2318C80.7575 93.4799 80.6105 93.6847 80.3795 93.6894ZM72.7265 92.9306L79.7823 92.7981L78.6245 86.9792L71.5561 87.0478L72.7265 92.9306Z" fill="url(#paint7_linear_33_5593)"/>
<path id="Vector_20" d="M90.3731 93.4926L82.7173 93.6467C82.4877 93.6514 82.2619 93.4546 82.2126 93.207L80.8806 86.5127C80.8313 86.2651 80.9783 86.0631 81.2083 86.0612L88.8819 85.9973C89.1064 85.9954 89.3275 86.1918 89.3763 86.4362L90.6905 93.0416C90.7388 93.2859 90.597 93.4874 90.3731 93.4917V93.4926ZM82.9544 92.7437L89.7914 92.6154L88.6514 86.8867L81.8023 86.953L82.9544 92.7432V92.7437Z" fill="url(#paint8_linear_33_5593)"/>
<path id="Vector_21" d="M100.06 93.2899L92.6381 93.4393C92.4156 93.444 92.1958 93.2499 92.1475 93.0061L90.8361 86.4157C90.7878 86.1719 90.9291 85.9731 91.1521 85.9712L98.5914 85.9097C98.8088 85.9078 99.0243 86.1014 99.0718 86.3419L100.366 92.8468C100.414 93.0874 100.277 93.2856 100.06 93.2903V93.2899ZM92.8654 92.5499L99.4934 92.4258L98.3708 86.785L91.731 86.8494L92.8654 92.5503V92.5499Z" fill="url(#paint9_linear_33_5593)"/>
<path id="Vector_22" d="M38.9471 104.141L29.9635 104.448C29.694 104.457 29.4321 104.247 29.3785 103.978L27.9329 96.7125C27.8794 96.4437 28.0555 96.2215 28.3254 96.2154L37.3301 96.0148C37.593 96.0091 37.8489 96.2187 37.9015 96.4837L39.3264 103.645C39.379 103.91 39.2091 104.132 38.9466 104.141H38.9471ZM30.2579 103.46L38.2804 103.197L37.0446 96.9854L29.0081 97.1757L30.2584 103.46H30.2579Z" fill="#9CCEFD"/>
<path id="Vector_23" d="M50.2878 103.752L41.6014 104.049C41.3409 104.058 41.0869 103.851 41.0343 103.587L39.6131 96.4435C39.5605 96.1795 39.73 95.9605 39.991 95.9549L48.698 95.7609C48.9525 95.7552 49.2004 95.9615 49.2525 96.2222L50.654 103.265C50.7056 103.525 50.5422 103.743 50.2882 103.752L50.2878 103.752ZM41.8827 103.078L49.6399 102.823L48.4243 96.7151L40.653 96.8993L41.8822 103.078L41.8827 103.078Z" fill="#5E6D87"/>
<path id="Vector_24" d="M61.2597 103.377L52.856 103.664C52.6038 103.673 52.3574 103.469 52.3057 103.209L50.908 96.1838C50.8563 95.924 51.0193 95.7088 51.2719 95.7032L59.6957 95.5157C59.9418 95.5101 60.1826 95.7135 60.2338 95.9696L61.6123 102.898C61.6634 103.154 61.5057 103.369 61.2601 103.377H61.2597ZM53.125 102.709L60.6301 102.463L59.4347 96.4545L51.9165 96.6325L53.1255 102.709H53.125Z" fill="#5E6D87"/>
<path id="Vector_25" d="M71.8803 103.015L63.7452 103.293C63.501 103.301 63.2621 103.1 63.2114 102.845L61.8362 95.9336C61.7855 95.678 61.9423 95.4666 62.1869 95.461L70.3413 95.2792C70.5798 95.274 70.8136 95.4737 70.8634 95.726L72.2198 102.543C72.27 102.795 72.1179 103.006 71.8803 103.015ZM64.0025 102.353L71.2672 102.115L70.0906 96.2028L62.8128 96.3753L64.002 102.353H64.0025Z" fill="#5E6D87"/>
<path id="Vector_26" d="M82.1646 102.664L74.2858 102.934C74.0497 102.942 73.8173 102.744 73.7675 102.493L72.4144 95.692C72.3642 95.4406 72.5158 95.2325 72.7529 95.2273L80.6505 95.0516C80.8815 95.0464 81.1082 95.2433 81.158 95.4914L82.4928 102.201C82.5421 102.449 82.3956 102.657 82.1651 102.664H82.1646ZM74.5323 102.01L81.5684 101.779L80.4106 95.9603L73.3619 96.1271L74.5323 102.01Z" fill="#5E6D87"/>
<path id="Vector_27" d="M92.1304 102.319L84.4957 102.58C84.2671 102.588 84.0412 102.393 83.992 102.146L82.66 95.4515C82.6107 95.2039 82.7567 94.9991 82.9863 94.9944L90.6387 94.8238C90.8627 94.8187 91.0834 95.0127 91.1317 95.257L92.4459 101.862C92.4942 102.107 92.3529 102.311 92.1299 102.319H92.1304ZM84.7314 101.67L91.5491 101.447L90.4092 95.7179L83.5793 95.8796L84.7314 101.67V101.67Z" fill="#5E6D87"/>
<path id="Vector_28" d="M101.791 101.994L94.3896 102.247C94.168 102.255 93.9488 102.064 93.8999 101.82L92.5886 95.2293C92.5402 94.9855 92.6811 94.7844 92.9036 94.7792L100.322 94.6139C100.539 94.6092 100.754 94.7999 100.802 95.0405L102.096 101.545C102.144 101.786 102.007 101.987 101.791 101.994ZM94.6155 101.352L101.225 101.136L100.103 95.4948L93.4811 95.6517L94.6155 101.353V101.352Z" fill="#5E6D87"/>
<path id="Vector_29" d="M40.852 113.712L31.8938 114.144C31.6248 114.157 31.3637 113.95 31.3102 113.681L29.8646 106.416C29.8111 106.147 29.9862 105.922 30.2557 105.912L39.235 105.586C39.4975 105.576 39.7524 105.783 39.8055 106.048L41.2304 113.209C41.283 113.474 41.114 113.699 40.852 113.712ZM32.1863 113.149L40.1862 112.774L38.9505 106.563L30.936 106.866L32.1863 113.15V113.149Z" fill="#5E6D87"/>
<path id="Vector_30" d="M52.1614 113.173L43.499 113.592C43.2389 113.605 42.9858 113.401 42.9332 113.137L41.512 105.993C41.4595 105.729 41.628 105.508 41.8886 105.498L50.5712 105.183C50.8247 105.174 51.0726 105.377 51.1243 105.638L52.5257 112.681C52.5774 112.941 52.4145 113.162 52.1614 113.174V113.173ZM43.7793 112.614L51.5149 112.251L50.2993 106.143L42.5497 106.435L43.7788 112.614H43.7793Z" fill="#5E6D87"/>
<path id="Vector_31" d="M63.1029 112.64L54.7223 113.045C54.4711 113.058 54.225 112.857 54.1734 112.597L52.7757 105.572C52.724 105.312 52.8865 105.094 53.1386 105.085L61.539 104.78C61.7846 104.771 62.025 104.972 62.0757 105.228L63.4541 112.156C63.5053 112.412 63.348 112.629 63.1029 112.641V112.64ZM54.9903 112.084L62.4743 111.733L61.2789 105.724L53.7814 106.007L54.9903 112.084Z" fill="#5E6D87"/>
<path id="Vector_32" d="M73.6938 112.13L65.5812 112.522C65.338 112.533 65.0995 112.335 65.0483 112.08L63.6731 105.169C63.6224 104.913 63.7788 104.699 64.0229 104.69L72.1543 104.395C72.3919 104.386 72.6252 104.584 72.6754 104.836L74.0318 111.653C74.0821 111.905 73.9304 112.118 73.6933 112.13H73.6938ZM65.8375 111.576L73.082 111.237L71.9054 105.324L64.6478 105.598L65.8371 111.576H65.8375Z" fill="#5E6D87"/>
<path id="Vector_33" d="M83.9498 111.631L76.093 112.011C75.8573 112.022 75.6259 111.827 75.5756 111.576L74.2225 104.775C74.1723 104.524 74.3235 104.313 74.5596 104.304L82.4351 104.018C82.6652 104.01 82.892 104.204 82.9413 104.452L84.2765 111.162C84.3258 111.41 84.1798 111.62 83.9502 111.632L83.9498 111.631ZM76.3381 111.081L83.3544 110.752L82.1966 104.933L75.1676 105.199L76.3381 111.081V111.081Z" fill="#5E6D87"/>
<path id="Vector_34" d="M93.8877 111.154L86.2746 111.522C86.0464 111.533 85.8215 111.342 85.7722 111.094L84.4403 104.4C84.391 104.152 84.5365 103.945 84.7656 103.937L92.397 103.659C92.62 103.651 92.8402 103.843 92.889 104.087L94.2032 110.692C94.2515 110.937 94.1107 111.143 93.8881 111.154H93.8877ZM86.5089 110.607L93.3078 110.288L92.1679 104.559L85.3567 104.816L86.5089 110.606V110.607Z" fill="#5E6D87"/>
<path id="Vector_35" d="M103.522 110.689L96.1412 111.046C95.92 111.057 95.7013 110.868 95.6529 110.624L94.3416 104.034C94.2932 103.79 94.4336 103.586 94.6552 103.578L102.054 103.309C102.27 103.301 102.484 103.49 102.532 103.73L103.827 110.235C103.874 110.475 103.738 110.679 103.522 110.689H103.522ZM96.3656 110.145L102.957 109.836L101.834 104.195L95.2313 104.444L96.3656 110.145Z" fill="#5E6D87"/>
<path id="Vector_36" d="M42.7574 123.292L33.8241 123.85C33.556 123.867 33.2954 123.663 33.2419 123.394L31.7963 116.128C31.7427 115.86 31.9174 115.631 32.186 115.618L41.1404 115.166C41.4019 115.152 41.6564 115.356 41.7094 115.621L43.1344 122.782C43.187 123.047 43.0184 123.275 42.7574 123.291V123.292ZM34.1156 122.849L42.0935 122.362L40.8577 116.15L32.8658 116.565L34.1161 122.849H34.1156Z" fill="#5E6D87"/>
<path id="Vector_37" d="M54.0355 122.587L45.3975 123.127C45.1383 123.143 44.8858 122.943 44.8332 122.679L43.412 115.535C43.3594 115.271 43.5275 115.047 43.7871 115.033L52.4457 114.597C52.6988 114.584 52.9458 114.784 52.9974 115.045L54.3989 122.088C54.4505 122.348 54.2881 122.572 54.036 122.587H54.0355ZM45.6764 122.143L53.3904 121.672L52.1748 115.563L44.4468 115.964L45.6759 122.143H45.6764Z" fill="#5E6D87"/>
<path id="Vector_38" d="M64.9463 121.906L56.589 122.428C56.3383 122.444 56.0932 122.246 56.0416 121.986L54.6439 114.961C54.5922 114.701 54.7542 114.48 55.0054 114.468L63.3823 114.045C63.6269 114.033 63.8669 114.23 63.9176 114.486L65.296 121.414C65.3472 121.67 65.1904 121.89 64.9463 121.906V121.906ZM56.8557 121.461L64.319 121.005L63.1236 114.996L55.6472 115.384L56.8562 121.461H56.8557Z" fill="#5E6D87"/>
<path id="Vector_39" d="M75.5068 121.245L67.4172 121.751C67.1745 121.766 66.9364 121.571 66.8857 121.316L65.5105 114.405C65.4598 114.149 65.6157 113.932 65.8589 113.92L73.9678 113.511C74.2049 113.499 74.4373 113.693 74.4875 113.945L75.8439 120.762C75.8941 121.014 75.743 121.231 75.5068 121.245ZM67.6721 120.8L74.8964 120.358L73.7199 114.446L66.4824 114.821L67.6717 120.8H67.6721Z" fill="#5E6D87"/>
<path id="Vector_40" d="M32.9151 75.6855L23.7358 75.6183L23.3442 73.6506L32.5287 73.7432L32.9151 75.6855Z" fill="url(#paint10_linear_33_5593)"/>
<path id="Vector_41" d="M44.4995 75.7719L35.6272 75.7075L35.2427 73.7732L44.1196 73.8625L44.4995 75.7719Z" fill="url(#paint11_linear_33_5593)"/>
<path id="Vector_42" d="M55.7018 75.8516L47.1216 75.7891L46.7432 73.8872L55.3281 73.9737L55.7018 75.8516Z" fill="url(#paint12_linear_33_5593)"/>
<path id="Vector_43" d="M66.5403 75.932L58.238 75.8719L57.8657 74.001L66.1727 74.0846L66.5403 75.932Z" fill="url(#paint13_linear_33_5593)"/>
<path id="Vector_44" d="M77.0326 76.005L68.9951 75.9463L68.6289 74.106L76.6711 74.1872L77.0326 76.005Z" fill="url(#paint14_linear_33_5593)"/>
<path id="Vector_45" d="M87.1957 76.0792L79.4104 76.0224L79.0498 74.2112L86.8399 74.2896L87.1957 76.0792Z" fill="url(#paint15_linear_33_5593)"/>
<path id="Vector_46" d="M97.044 76.1542L89.499 76.0992L89.1445 74.3162L96.6937 74.3923L97.044 76.1542Z" fill="url(#paint16_linear_33_5593)"/>
<path id="Vector_47" d="M96.2177 71.9987L22.8127 70.9778L22.0723 67.2585L95.5552 68.6685L96.2177 71.9987Z" fill="#4F5F7A"/>
<g id="Group_3" style="mix-blend-mode:multiply" opacity="0.3">
<path id="Vector_48" d="M76.6313 97.4405C60.1934 88.5028 44.6161 95.4508 33.4001 83.9863C27.6482 78.1072 25.8039 70.1713 25.4715 63.1538L18.2416 62.972C16.9561 62.9395 16.1143 63.9356 16.365 65.1962L28.4435 125.901C28.6942 127.162 29.9239 128.114 31.1859 128.028L99.1122 123.388C91.6508 108.215 83.4067 101.124 76.6313 97.4405Z" fill="#9CCEFD"/>
</g>
<path id="Vector_49" d="M18.2187 24.493C18.3567 24.493 18.4934 24.5033 18.6291 24.5221L28.5478 24.4131V50.2212L18.9699 50.0901C18.7234 50.1526 18.4732 50.1854 18.2187 50.1854C14.8195 50.1854 12.0635 44.4342 12.0635 37.3392C12.0635 30.2442 14.8195 24.493 18.2187 24.493Z" fill="url(#paint17_linear_33_5593)"/>
<path id="Vector_50" d="M28.5477 24.4127C24.7907 33.0064 24.7907 41.5696 28.5477 50.2207L102.329 73.9592L103.091 1.52368L28.5477 24.4127Z" fill="url(#paint18_linear_33_5593)"/>
<path id="Vector_51" style="mix-blend-mode:multiply" opacity="0.3" d="M82.4127 52.6651C75.3978 50.0054 73.2178 39.8212 65.0733 39.4783C58.6829 39.2095 56.7574 45.4189 50.4956 44.7489C44.0859 44.0634 43.0093 37.1479 35.8311 34.7104C32.5675 33.602 29.1533 33.8069 25.839 34.7437C25.3939 39.8762 26.2926 45.0256 28.5481 50.2187L102.33 73.9571L97.9646 49.3631C90.6896 53.6095 85.8128 53.9548 82.4122 52.6656L82.4127 52.6651Z" fill="url(#paint19_linear_33_5593)"/>
<path id="Vector_52" d="M105.907 74.9134C115.819 74.9134 123.854 58.1435 123.854 37.4567C123.854 16.7699 115.819 0 105.907 0C95.9948 0 87.9595 16.7699 87.9595 37.4567C87.9595 58.1435 95.9948 74.9134 105.907 74.9134Z" fill="url(#paint20_linear_33_5593)"/>
<path id="Vector_53" d="M105.907 73.6414C108.011 73.6414 110.079 72.7581 112.053 71.0154C114.061 69.2423 115.878 66.6775 117.453 63.3919C120.762 56.4853 122.584 47.2742 122.584 37.4556C122.584 27.6369 120.762 18.4258 117.453 11.5192C115.878 8.23368 114.061 5.66885 112.053 3.89569C110.079 2.15354 108.011 1.26978 105.907 1.26978C103.803 1.26978 101.735 2.15307 99.7612 3.89569C97.7526 5.66885 95.9357 8.23368 94.3614 11.5192C92.9778 14.4068 91.8538 17.6976 91.0148 21.2674C89.8466 26.235 93.2228 31.4205 93.2228 37.1337C93.2228 43.2087 89.9274 49.3734 91.2434 54.5811C92.0542 57.7905 93.0998 60.7585 94.3614 63.3919C95.9357 66.6775 97.7526 69.2423 99.7612 71.0154C101.735 72.7576 103.803 73.6414 105.907 73.6414Z" fill="url(#paint21_linear_33_5593)"/>
<g id="Clip path group">
<mask id="mask0_33_5593" style="mask-type:luminance" maskUnits="userSpaceOnUse" x="89" y="1" width="34" height="73">
<g id="clippath">
<path id="Vector_54" d="M105.907 73.6426C108.011 73.6426 110.079 72.7593 112.053 71.0167C114.061 69.2435 115.878 66.6787 117.452 63.3931C120.762 56.4865 122.584 47.2754 122.584 37.4568C122.584 27.6382 120.762 18.427 117.452 11.5205C115.878 8.2349 114.061 5.67007 112.053 3.89691C110.079 2.15476 108.011 1.271 105.907 1.271C103.802 1.271 101.735 2.15429 99.761 3.89691C97.7524 5.67007 95.9355 8.2349 94.3612 11.5205C91.0521 18.427 89.2295 27.6382 89.2295 37.4568C89.2295 47.2754 91.0521 56.4865 94.3612 63.3931C95.9355 66.6787 97.7524 69.2435 99.761 71.0167C101.735 72.7588 103.802 73.6426 105.907 73.6426Z" fill="white"/>
</g>
</mask>
<g mask="url(#mask0_33_5593)">
<g id="Group_4">
<path id="Vector_55" d="M107.384 37.9411C107.384 47.4308 101.105 54.966 93.4678 54.7739C85.9491 54.5845 79.939 46.9544 79.939 37.7287C79.939 28.503 85.9491 20.9659 93.4678 20.8931C101.104 20.8193 107.384 28.4514 107.384 37.9411Z" fill="url(#paint22_linear_33_5593)"/>
<path id="Vector_56" style="mix-blend-mode:multiply" opacity="0.3" d="M106.178 37.7822C106.178 44.8292 103.118 50.4245 99.397 50.2817C95.7335 50.1412 92.8052 44.4755 92.8052 37.6243C92.8052 30.7732 95.7335 25.177 99.397 25.1225C103.118 25.0675 106.178 30.7351 106.178 37.7817V37.7822Z" fill="url(#paint23_linear_33_5593)"/>
</g>
</g>
</g>
<path id="Vector_57" d="M30.5756 76.3419C30.5756 76.3419 21.8846 61.2823 10.131 86.8925C0.978425 106.835 6.8942 129.021 28.0675 135.108C49.2413 141.196 82.312 128.901 71.9316 120.237C49.9123 101.857 33.2006 85.5657 30.5756 76.3419Z" fill="url(#paint24_linear_33_5593)"/>
<g id="Group_5" style="mix-blend-mode:multiply" opacity="0.35">
<path id="Vector_58" d="M19.6699 89.8836C19.0511 91.7075 18.9112 96.9039 19.1723 102.88C19.4051 108.211 18.9215 110.998 27.3966 114.875C30.3014 116.204 32.3105 120.422 36.7586 122.93C38.7751 124.068 46.3717 128.183 56.1825 126.52C62.6739 125.42 67.507 122.234 70.7616 119.265C49.324 101.288 33.1537 85.4103 30.5756 76.351C30.5756 76.351 27.3999 70.8529 22.2931 72.1544C23.5321 73.5366 23.9528 77.2587 19.6699 89.8841V89.8836Z" fill="url(#paint25_linear_33_5593)"/>
</g>
<path id="Vector_59" d="M87.7117 129.27C87.1595 128.675 86.1707 126.116 87.9746 125.59C89.7883 125.061 90.7963 124.391 93.2936 122.388C95.7909 120.385 96.4323 122.105 92.9049 125.359C89.3775 128.612 88.4962 130.115 87.7117 129.27Z" fill="url(#paint26_linear_33_5593)"/>
<path id="Vector_60" d="M85.3486 125.535L86.8342 126.833C87.1445 127.104 87.5962 127.139 87.9441 126.919C88.1065 126.816 88.2103 126.642 88.2239 126.451C88.2375 126.259 88.1596 126.072 88.014 125.947L85.8426 124.088L85.3486 125.535Z" fill="url(#paint27_linear_33_5593)"/>
<path id="Vector_61" d="M40.8537 113.038C38.2287 115.339 43.7078 122.885 52.4608 120.439C63.0679 117.475 76.5573 118.807 85.6507 126.217C86.1784 125.747 87.4846 125.01 86.8874 124.405C78.6729 116.093 71.0646 111.321 64.7624 110.041C55.2347 108.105 48.3283 106.486 40.8542 113.038H40.8537Z" fill="url(#paint28_linear_33_5593)"/>
<g id="Group_6" style="mix-blend-mode:multiply" opacity="0.24">
<path id="Vector_62" d="M71.6251 116.202C73.1637 117.098 73.4919 115.278 74.2858 114.081C70.8786 111.987 67.6785 110.637 64.7614 110.044C55.2337 108.109 48.3273 106.49 40.8532 113.042C38.2282 115.343 43.7074 122.889 52.4604 120.443C55.6258 119.558 59.0499 119.067 62.536 118.995C65.3399 117.23 67.6339 113.182 71.6256 116.202H71.6251Z" fill="#383B44"/>
</g>
<path id="Vector_63" d="M39.3045 120.898L38.7655 121.104C38.7655 121.104 35.2804 117.811 34.6592 116.972C33.9015 115.949 42.4357 113.338 45.2072 109.922C48.119 106.333 45.8185 114.183 45.8185 114.183L39.3045 120.898V120.898Z" fill="url(#paint29_linear_33_5593)"/>
<path id="Vector_64" d="M36.1436 88.5891C36.1436 88.5891 39.2376 89.0134 42.6303 95.0338C45.1811 99.5602 50.7194 103.31 50.7194 103.31L51.288 106.872L46.6915 107.68L45.0473 106.597L40.5621 97.0466L36.1436 88.5891Z" fill="url(#paint30_linear_33_5593)"/>
<path id="Vector_65" d="M30.1447 88.2109C30.1447 88.2109 22.5181 89.152 22.3542 97.9341C22.203 106.038 25.1252 109.178 32.2951 115.936C33.0162 116.616 34.1853 116.616 34.2717 116.714C34.7374 117.24 35.2097 117.788 35.6868 118.36C42.1035 112.198 49.3386 110.111 49.3386 110.111C49.3386 110.111 42.6472 96.2582 39.7067 91.6665C36.6751 86.932 32.103 87.7406 30.1447 88.2114V88.2109Z" fill="url(#paint31_linear_33_5593)"/>
<g id="Group_7" style="mix-blend-mode:multiply" opacity="0.2">
<path id="Vector_66" d="M42.8073 108.661C39.5879 110.385 35.0248 110.19 33.3472 108.057C32.0838 106.45 31.8786 105.851 30.3405 103.329C29.1029 101.299 28.5005 100.974 25.7966 99.265C24.7764 98.6199 23.6181 97.6868 22.4824 96.2876C22.4106 96.8016 22.3655 97.3457 22.3547 97.9259C22.2035 106.031 25.1257 109.17 32.2955 115.928C33.0167 116.608 34.1858 116.608 34.2722 116.706C34.7379 117.231 35.2102 117.779 35.6873 118.352C42.104 112.19 49.3391 110.103 49.3391 110.103C49.3391 110.103 48.2287 107.924 46.7577 104.861C45.691 106.649 44.8731 107.556 42.8078 108.661L42.8073 108.661Z" fill="url(#paint32_linear_33_5593)"/>
</g>
<path id="Vector_67" d="M37.5483 108.918C37.5483 108.918 38.994 108.985 40.0203 108.571C41.0466 108.157 40.9626 108.062 42.1439 107.912C43.2923 107.766 45.5548 107.084 44.274 105.918C42.8486 104.621 40.4048 104.985 39.7024 105.846C39.0254 106.676 37.8526 107.204 37.8526 107.204L37.5483 108.918Z" fill="white"/>
<path id="Vector_68" d="M24.6566 92.5879C24.6566 92.5879 20.4207 93.0813 22.8926 106.731C24.1744 113.811 30.5113 112.814 38.1633 109.889C38.6812 108.805 38.0145 106.506 38.0145 106.506C38.0145 106.506 28.5079 110.429 28.2619 104.706C27.9863 98.2903 27.1281 91.9104 24.6566 92.5879Z" fill="url(#paint33_linear_33_5593)"/>
<path id="Vector_69" d="M31.9188 91.11C30.1056 91.11 28.2642 89.7667 28.1754 89.7014C28.1449 89.6789 28.1383 89.6357 28.1609 89.6051C28.1834 89.5746 28.2266 89.568 28.2571 89.5906C28.2815 89.6084 30.7023 91.375 32.662 90.8845C33.2048 90.7487 33.5766 90.4828 33.7668 90.0942C34.1288 89.3547 33.7184 88.4061 33.7147 88.3967C33.6992 88.3619 33.7147 88.3211 33.7499 88.306C33.7851 88.291 33.8255 88.3065 33.8405 88.3413C33.8588 88.3826 34.2804 89.3585 33.8907 90.1548C33.6818 90.5814 33.2799 90.8718 32.6958 91.0179C32.4409 91.0818 32.1803 91.1095 31.9188 91.1095V91.11Z" fill="#6A81A6"/>
<path id="Vector_70" d="M34.6143 116.432C34.5956 116.432 34.5768 116.424 34.5632 116.409C34.5378 116.381 34.5397 116.337 34.5683 116.312C34.6364 116.25 41.464 110.134 47.6281 108.626C47.6657 108.616 47.7023 108.64 47.7112 108.677C47.7201 108.714 47.6976 108.751 47.661 108.76C41.5311 110.259 34.7289 116.352 34.6608 116.414C34.6477 116.426 34.6312 116.432 34.6148 116.432L34.6143 116.432Z" fill="#7E92B3"/>
<path id="Vector_71" d="M29.8746 84.0801C29.8746 84.0801 30.1619 87.3877 29.9023 88.014C29.6427 88.6403 30.4629 89.4944 32.0832 89.8233C33.7034 90.1522 32.4207 86.5246 32.4207 86.5246L29.8746 84.0796V84.0801Z" fill="#E9E9E9"/>
<path id="Vector_72" d="M34.5432 84.3274C36.2274 83.4084 36.1922 79.0934 35.2395 78.765C34.6926 78.5761 34.4235 79.9062 32.6187 80.6758C31.2135 81.2753 30.2139 80.9647 29.7012 81.7921C29.4604 82.1807 29.3683 82.7544 29.4468 83.2369C29.4871 83.4854 29.5989 83.8073 29.866 84.4331C30.1031 84.9884 30.0839 84.9673 30.1581 85.1294C30.3365 85.5198 30.698 86.1893 31.4398 87.0322C31.5398 86.7949 31.6802 86.5036 31.8783 86.195C31.9544 86.0766 32.2586 85.6138 32.6643 85.2548C33.4023 84.6013 34.0601 84.5909 34.5432 84.3274Z" fill="url(#paint34_linear_33_5593)"/>
<path id="Vector_73" d="M30.4519 86.1531C30.4519 86.1531 31.0825 87.6974 32.806 87.8609C34.3493 88.0075 35.124 84.6162 34.2653 83.7315C33.9789 83.4365 33.3432 83.2311 32.7896 83.2941C32.4624 83.3317 32.3356 83.4445 31.7999 83.4952C31.306 83.5417 31.1801 83.4679 31.0177 83.5652C30.8144 83.6874 30.6238 84.036 30.7618 85.0861C30.5181 84.744 30.1862 84.5744 29.92 84.6515C29.8773 84.6637 29.7613 84.7182 29.6848 84.8168C29.4082 85.1739 29.6848 85.7311 30.4524 86.1526L30.4519 86.1531Z" fill="white"/>
<path id="Vector_74" d="M38.5644 110.759C38.4949 110.769 38.4311 110.82 38.4132 110.886C38.4109 110.896 38.4376 111.241 38.4367 111.252C38.4297 111.332 38.4794 111.407 38.556 111.432L45.0413 113.54L57.1611 108.79L51.4026 109.231L38.5644 110.759V110.759Z" fill="#192438"/>
<path id="Vector_75" d="M38.5616 110.71C38.4818 110.721 38.4203 110.786 38.4137 110.866C38.4067 110.947 38.4565 111.022 38.533 111.046L45.0183 113.155L57.1381 108.405L51.3796 108.846L38.5616 110.71Z" fill="#3C4A61"/>
<path id="Vector_76" d="M44.731 113.061L45.6972 100.41C45.7127 100.207 45.8653 100.041 46.0662 100.01L60.5801 97.7362C60.7101 97.716 60.8421 97.755 60.9402 97.8428C61.0383 97.9307 61.0914 98.058 61.0853 98.1896L60.5406 109.982C60.5312 110.185 60.3829 110.355 60.1829 110.393L45.1047 113.186L44.731 113.061Z" fill="url(#paint35_linear_33_5593)"/>
<path id="Vector_77" d="M45.041 113.541L46.0373 100.61C46.0528 100.408 46.2059 100.243 46.4063 100.211L60.9207 97.9376C61.0507 97.9174 61.1826 97.9564 61.2808 98.0443C61.3789 98.1321 61.432 98.2594 61.4258 98.391L60.8812 110.185C60.8718 110.387 60.7249 110.557 60.5253 110.595L45.041 113.541V113.541Z" fill="#192438"/>
<path id="Vector_78" d="M45.041 113.54L60.5253 110.595C60.7244 110.557 60.8718 110.387 60.8812 110.185L61.0455 106.627C56.4326 109.249 50.6521 109.582 45.265 110.634L45.041 113.541V113.54Z" fill="#141D2F"/>
<path id="Vector_79" d="M71.2674 110.889C71.0557 110.153 70.588 109.341 72.2576 108.748C73.4699 108.317 75.5756 108.179 77.4898 108.081C80.1721 107.943 80.7885 109.549 76.8691 110.57C74.3023 111.239 71.5684 111.935 71.2674 110.889Z" fill="url(#paint36_linear_33_5593)"/>
<path id="Vector_80" d="M73.3576 109.762C73.383 110.174 73.121 110.497 72.7787 110.546C71.9853 110.659 72.1341 110.25 72.1087 109.839C72.0834 109.427 71.7627 109.142 72.6876 109.055C73.0318 109.023 73.3323 109.351 73.3576 109.762Z" fill="url(#paint37_linear_33_5593)"/>
<path id="Vector_81" d="M65.2134 107.39L65.997 107.267C65.997 107.267 67.5229 107.41 71.7287 108.57C72.6292 108.72 73.8565 111.349 71.2184 111.452C68.5802 111.556 65.3697 113.521 65.3697 113.521L65.2138 107.39H65.2134Z" fill="url(#paint38_linear_33_5593)"/>
<path id="Vector_82" d="M37.8241 119.632C37.8241 119.632 38.2082 123.044 46.1367 122.734C54.0653 122.423 68.2293 114.187 68.1401 109.865C68.0509 105.543 62.7802 107.269 57.3232 109.767C52.7168 111.876 45.6019 113.097 44.1437 113.323C42.2769 113.613 37.3729 117.993 37.8241 119.632Z" fill="url(#paint39_linear_33_5593)"/>
<g id="Group_8" style="mix-blend-mode:multiply" opacity="0.2">
<path id="Vector_83" d="M48.1984 115.356C51.8686 114.982 52.6925 112.346 57.2594 111.584C60.2187 111.091 61.2638 111.965 62.7724 110.954C63.9635 110.156 64.5711 108.764 64.864 107.253C62.84 107.424 60.1084 108.493 57.3238 109.767C52.8498 111.816 46.0091 113.026 44.2837 113.302C44.2325 113.31 43.0756 112.896 43.0756 112.896C43.0756 112.896 42.2146 113.389 41.5972 113.777C44.0029 115.068 46.858 115.492 48.1984 115.356Z" fill="url(#paint40_linear_33_5593)"/>
</g>
</g>
</g>
<defs>
<linearGradient id="paint0_linear_33_5593" x1="50.3425" y1="45.2811" x2="28.635" y2="70.8637" gradientUnits="userSpaceOnUse">
<stop stop-color="#1B212B"/>
<stop offset="1" stop-color="#425068"/>
</linearGradient>
<linearGradient id="paint1_linear_33_5593" x1="47.671" y1="43.0141" x2="25.9636" y2="68.5967" gradientUnits="userSpaceOnUse">
<stop stop-color="#1B212B"/>
<stop offset="1" stop-color="#425068"/>
</linearGradient>
<linearGradient id="paint2_linear_33_5593" x1="-10.9204" y1="112.07" x2="6.38223" y2="103.223" gradientUnits="userSpaceOnUse">
<stop stop-color="#254AA6"/>
<stop offset="1" stop-color="#8594BC"/>
</linearGradient>
<linearGradient id="paint3_linear_33_5593" x1="12.6384" y1="94.869" x2="111.983" y2="94.869" gradientUnits="userSpaceOnUse">
<stop stop-color="#C3EAF9"/>
<stop offset="1" stop-color="white"/>
</linearGradient>
<linearGradient id="paint4_linear_33_5593" x1="27.2865" y1="68.4662" x2="84.6833" y2="174.143" gradientUnits="userSpaceOnUse">
<stop stop-color="#5F718C"/>
<stop offset="1" stop-color="#8999B2"/>
</linearGradient>
<linearGradient id="paint5_linear_33_5593" x1="9.83218" y1="78.3063" x2="68.1013" y2="185.59" gradientUnits="userSpaceOnUse">
<stop stop-color="#7286A8"/>
<stop offset="1" stop-color="#8999B2"/>
</linearGradient>
<linearGradient id="paint6_linear_33_5593" x1="40.625" y1="90.114" x2="49.8527" y2="90.114" gradientUnits="userSpaceOnUse">
<stop stop-color="#1D83DD"/>
<stop offset="1" stop-color="#8999B2"/>
</linearGradient>
<linearGradient id="paint7_linear_33_5593" x1="51.257" y1="89.9627" x2="60.1959" y2="89.9627" gradientUnits="userSpaceOnUse">
<stop stop-color="#1D83DD"/>
<stop offset="1" stop-color="#8999B2"/>
</linearGradient>
<linearGradient id="paint8_linear_33_5593" x1="61.5539" y1="89.8227" x2="70.2186" y2="89.8227" gradientUnits="userSpaceOnUse">
<stop stop-color="#1D83DD"/>
<stop offset="1" stop-color="#8999B2"/>
</linearGradient>
<linearGradient id="paint9_linear_33_5593" x1="71.5319" y1="89.6745" x2="79.9342" y2="89.6745" gradientUnits="userSpaceOnUse">
<stop stop-color="#1D83DD"/>
<stop offset="1" stop-color="#8999B2"/>
</linearGradient>
<linearGradient id="paint10_linear_33_5593" x1="11.0366" y1="67.1349" x2="14.2107" y2="111.191" gradientUnits="userSpaceOnUse">
<stop stop-color="#9DA8B1"/>
<stop offset="1" stop-color="#6B809B"/>
</linearGradient>
<linearGradient id="paint11_linear_33_5593" x1="22.7064" y1="66.5612" x2="25.8127" y2="109.673" gradientUnits="userSpaceOnUse">
<stop stop-color="#9DA8B1"/>
<stop offset="1" stop-color="#6B809B"/>
</linearGradient>
<linearGradient id="paint12_linear_33_5593" x1="33.989" y1="66.0081" x2="37.03" y2="108.213" gradientUnits="userSpaceOnUse">
<stop stop-color="#9DA8B1"/>
<stop offset="1" stop-color="#6B809B"/>
</linearGradient>
<linearGradient id="paint13_linear_33_5593" x1="44.9041" y1="65.4829" x2="47.8821" y2="106.817" gradientUnits="userSpaceOnUse">
<stop stop-color="#9DA8B1"/>
<stop offset="1" stop-color="#6B809B"/>
</linearGradient>
<linearGradient id="paint14_linear_33_5593" x1="55.4682" y1="64.9752" x2="58.386" y2="105.472" gradientUnits="userSpaceOnUse">
<stop stop-color="#A1B8CB"/>
<stop offset="1" stop-color="#6B809B"/>
</linearGradient>
<linearGradient id="paint15_linear_33_5593" x1="65.6994" y1="64.4917" x2="68.5589" y2="104.183" gradientUnits="userSpaceOnUse">
<stop stop-color="#9DA8B1"/>
<stop offset="1" stop-color="#6B809B"/>
</linearGradient>
<linearGradient id="paint16_linear_33_5593" x1="75.612" y1="64.0315" x2="78.416" y2="102.948" gradientUnits="userSpaceOnUse">
<stop stop-color="#9DA8B1"/>
<stop offset="1" stop-color="#6B809B"/>
</linearGradient>
<linearGradient id="paint17_linear_33_5593" x1="13.9335" y1="27.1038" x2="31.4557" y2="47.7541" gradientUnits="userSpaceOnUse">
<stop stop-color="#9DA8B1"/>
<stop offset="1" stop-color="#6B809B"/>
</linearGradient>
<linearGradient id="paint18_linear_33_5593" x1="60.3572" y1="-1.69328" x2="80.4014" y2="109.096" gradientUnits="userSpaceOnUse">
<stop stop-color="#738AB3"/>
<stop offset="1" stop-color="#697175"/>
</linearGradient>
<linearGradient id="paint19_linear_33_5593" x1="53.5089" y1="-1.49233" x2="73.8022" y2="110.676" gradientUnits="userSpaceOnUse">
<stop stop-color="#738AB3"/>
<stop offset="1" stop-color="#697175"/>
</linearGradient>
<linearGradient id="paint20_linear_33_5593" x1="85.9706" y1="13.9283" x2="125.876" y2="60.9575" gradientUnits="userSpaceOnUse">
<stop stop-color="#9DA8B1"/>
<stop offset="1" stop-color="#6B809B"/>
</linearGradient>
<linearGradient id="paint21_linear_33_5593" x1="83.1782" y1="36.8763" x2="121.616" y2="37.855" gradientUnits="userSpaceOnUse">
<stop stop-color="#1B212B"/>
<stop offset="1" stop-color="#425068"/>
</linearGradient>
<linearGradient id="paint22_linear_33_5593" x1="87.1534" y1="1.80181" x2="100.24" y2="74.1378" gradientUnits="userSpaceOnUse">
<stop stop-color="#B7C5E0"/>
<stop offset="1" stop-color="#8693A2"/>
</linearGradient>
<linearGradient id="paint23_linear_33_5593" x1="94.6898" y1="11.1162" x2="104.346" y2="64.489" gradientUnits="userSpaceOnUse">
<stop stop-color="#B7C5E0"/>
<stop offset="1" stop-color="#8693A2"/>
</linearGradient>
<linearGradient id="paint24_linear_33_5593" x1="22.5729" y1="80.8129" x2="74.2164" y2="191.058" gradientUnits="userSpaceOnUse">
<stop stop-color="#5A739E"/>
<stop offset="1" stop-color="#3A475D"/>
</linearGradient>
<linearGradient id="paint25_linear_33_5593" x1="28.4948" y1="78.0471" x2="80.1383" y2="188.292" gradientUnits="userSpaceOnUse">
<stop stop-color="#B7C5E0"/>
<stop offset="1" stop-color="#8693A2"/>
</linearGradient>
<linearGradient id="paint26_linear_33_5593" x1="87.3191" y1="128.941" x2="94.3609" y2="120.861" gradientUnits="userSpaceOnUse">
<stop stop-color="#2A405D"/>
<stop offset="1" stop-color="#2C3951"/>
</linearGradient>
<linearGradient id="paint27_linear_33_5593" x1="68.6146" y1="102.838" x2="145.725" y2="200.341" gradientUnits="userSpaceOnUse">
<stop stop-color="#B7C5E0"/>
<stop offset="1" stop-color="#8693A2"/>
</linearGradient>
<linearGradient id="paint28_linear_33_5593" x1="38.1358" y1="107.145" x2="92.7423" y2="131.984" gradientUnits="userSpaceOnUse">
<stop stop-color="#1B212B"/>
<stop offset="1" stop-color="#3F475A"/>
</linearGradient>
<linearGradient id="paint29_linear_33_5593" x1="18.8842" y1="120.959" x2="66.2889" y2="109.126" gradientUnits="userSpaceOnUse">
<stop stop-color="#1B212B"/>
<stop offset="1" stop-color="#425068"/>
</linearGradient>
<linearGradient id="paint30_linear_33_5593" x1="58.8536" y1="127.087" x2="44.7068" y2="98.602" gradientUnits="userSpaceOnUse">
<stop stop-color="#738AB3"/>
<stop offset="1" stop-color="#5D6E88"/>
</linearGradient>
<linearGradient id="paint31_linear_33_5593" x1="38.6562" y1="114.746" x2="32.1542" y2="94.56" gradientUnits="userSpaceOnUse">
<stop stop-color="#738AB3"/>
<stop offset="1" stop-color="#5C6D87"/>
</linearGradient>
<linearGradient id="paint32_linear_33_5593" x1="38.6562" y1="114.737" x2="32.1542" y2="94.5518" gradientUnits="userSpaceOnUse">
<stop stop-color="#738AB3"/>
<stop offset="1" stop-color="#697175"/>
</linearGradient>
<linearGradient id="paint33_linear_33_5593" x1="33.9436" y1="117.644" x2="27.1026" y2="96.4053" gradientUnits="userSpaceOnUse">
<stop offset="0.28" stop-color="#738AB3"/>
<stop offset="1" stop-color="#5D6E88"/>
</linearGradient>
<linearGradient id="paint34_linear_33_5593" x1="26.8359" y1="92.3122" x2="34.4294" y2="79.3838" gradientUnits="userSpaceOnUse">
<stop stop-color="#1B212B"/>
<stop offset="1" stop-color="#3F475A"/>
</linearGradient>
<linearGradient id="paint35_linear_33_5593" x1="44.2941" y1="105.989" x2="61.4967" y2="104.938" gradientUnits="userSpaceOnUse">
<stop stop-color="#2A405D"/>
<stop offset="1" stop-color="#2C3951"/>
</linearGradient>
<linearGradient id="paint36_linear_33_5593" x1="71.3228" y1="111.034" x2="79.2538" y2="107.811" gradientUnits="userSpaceOnUse">
<stop stop-color="#2A405D"/>
<stop offset="1" stop-color="#2C3951"/>
</linearGradient>
<linearGradient id="paint37_linear_33_5593" x1="69.681" y1="107.112" x2="161.266" y2="191.155" gradientUnits="userSpaceOnUse">
<stop stop-color="#B7C5E0"/>
<stop offset="1" stop-color="#8693A2"/>
</linearGradient>
<linearGradient id="paint38_linear_33_5593" x1="34.3415" y1="115.405" x2="73.5244" y2="109.156" gradientUnits="userSpaceOnUse">
<stop stop-color="#1B212B"/>
<stop offset="1" stop-color="#3F475A"/>
</linearGradient>
<linearGradient id="paint39_linear_33_5593" x1="19.659" y1="124.067" x2="67.0642" y2="112.234" gradientUnits="userSpaceOnUse">
<stop stop-color="#1B212B"/>
<stop offset="1" stop-color="#425068"/>
</linearGradient>
<linearGradient id="paint40_linear_33_5593" x1="36.3787" y1="116.768" x2="65.0097" y2="108.798" gradientUnits="userSpaceOnUse">
<stop stop-color="#1B212B"/>
<stop offset="1" stop-color="#3F475A"/>
</linearGradient>
</defs>
</svg>
