<svg width="20" height="20" viewBox="0 0 20 20" fill="none" xmlns="http://www.w3.org/2000/svg">
<g id="Group 64045">
<path id="Path 20" d="M11.7735 0.460311C15.5509 2.89274 18.0473 4.57953 19.2627 5.52068C20.3074 6.32969 19.8896 14.3146 19.8814 15.9084C19.8691 18.206 19.1275 19.3629 16.7472 19.3629C12.2652 19.3602 7.7831 19.3615 3.30105 19.3669C1.79338 19.3669 0.953506 17.9956 0.949409 16.5273C0.943947 13.2238 0.943947 9.9217 0.949409 6.62094C0.949409 6.19755 1.25941 5.76743 1.87941 5.33056C5.53935 2.75251 8.06716 1.06168 9.46285 0.258058C10.1703 -0.143751 10.9405 -0.076333 11.7735 0.460311ZM18.0173 6.73824L11.032 2.1107C10.8709 2.00426 10.6824 1.94544 10.4886 1.94114C10.2948 1.93684 10.1039 1.98724 9.93809 2.08643C8.01526 3.22713 6.07468 4.47301 4.11634 5.82406C3.13717 6.49958 2.58409 6.72611 2.57589 7.83445C2.56497 10.7927 2.57453 13.751 2.60457 16.7093C2.61277 17.4698 3.0962 17.846 3.86643 17.846C8.35941 17.8487 12.7582 17.8473 17.0627 17.8419C17.205 17.8422 17.3459 17.8148 17.4775 17.7613C17.6091 17.7077 17.7287 17.6292 17.8295 17.53C17.9303 17.4308 18.0104 17.313 18.0651 17.1833C18.1198 17.0536 18.1481 16.9145 18.1484 16.774C18.1538 13.538 18.1552 10.2979 18.1525 7.05376C18.1591 6.99414 18.1501 6.93385 18.1265 6.87861C18.1028 6.82338 18.0652 6.77506 18.0173 6.73824Z" fill="#BFC6D7"/>
<path id="Path 30" d="M12.6432 8.91647L12.0287 8.42702C11.9919 8.39802 11.9619 8.36156 11.9407 8.3201C11.9195 8.27864 11.9076 8.23316 11.9058 8.18674C11.9041 8.14069 11.9127 8.09484 11.9311 8.05247C11.9494 8.0101 11.977 7.97224 12.0119 7.94161L12.7575 7.28227C12.7823 7.25434 12.8129 7.23196 12.8471 7.21662C12.8814 7.20129 12.9186 7.19336 12.9562 7.19336C12.9938 7.19336 13.031 7.20129 13.0653 7.21662C13.0996 7.23196 13.1301 7.25434 13.1549 7.28227L15.4246 9.32907C15.5488 9.44154 15.6358 9.58833 15.6742 9.75032C15.7126 9.9123 15.7008 10.082 15.6401 10.2372C15.5796 10.3922 15.4727 10.5253 15.3336 10.6189C15.1946 10.7125 15.03 10.762 14.8617 10.761L5.47357 10.757C5.41048 10.7571 5.34869 10.7392 5.29564 10.7055C5.24259 10.6717 5.20052 10.6236 5.1745 10.5669C5.08723 10.397 5.03972 10.2099 5.03547 10.0195C5.03122 9.82906 5.07033 9.64011 5.14991 9.4666C5.17775 9.39896 5.22626 9.34157 5.28867 9.30242C5.35109 9.26327 5.42431 9.24431 5.49815 9.24817H12.5244C12.5636 9.24847 12.602 9.23669 12.6341 9.21446C12.6662 9.19223 12.6905 9.16065 12.7036 9.12414C12.7167 9.08763 12.7179 9.048 12.7071 9.01077C12.6962 8.97354 12.6739 8.94058 12.6432 8.91647Z" fill="#BFC6D7"/>
<path id="Path 33" d="M8.09403 13.3245L8.45456 13.6845C8.48377 13.7052 8.50744 13.7326 8.5235 13.7643C8.53956 13.7961 8.54753 13.8312 8.54673 13.8667C8.54592 13.9021 8.53636 13.9369 8.51887 13.9679C8.50138 13.9989 8.47649 14.0252 8.44636 14.0445L7.79905 14.627C7.73221 14.6862 7.64581 14.7192 7.55605 14.72C7.4663 14.7207 7.37935 14.6891 7.31151 14.6311C6.59591 14.0216 5.90353 13.3892 5.23436 12.7339C5.14002 12.6419 5.07702 12.5231 5.0541 12.3942C4.88203 11.4638 5.56622 11.2656 6.35283 11.2737C9.27531 11.3006 12.1568 11.3438 14.9974 11.4031C15.0682 11.4047 15.138 11.4201 15.2028 11.4484C15.2676 11.4768 15.326 11.5175 15.3748 11.5683C15.4236 11.6191 15.4616 11.6789 15.4869 11.7442C15.5121 11.8096 15.524 11.8793 15.5218 11.9492C15.5054 12.5775 15.2883 12.8971 14.8704 12.9079C12.7536 12.9645 10.5399 12.9955 8.22923 13.0009C7.91786 13.0009 7.87279 13.1088 8.09403 13.3245Z" fill="#BFC6D7"/>
</g>
</svg>
