<svg width="13" height="13" viewBox="0 0 13 13" fill="none" xmlns="http://www.w3.org/2000/svg">
<path id="Vector" d="M6.50389 1.18363e-06C2.91404 -0.00214192 0.00214436 2.90626 1.1837e-06 6.49611C-0.00214199 10.086 2.90626 12.9978 6.49611 13C8.22077 13.0028 9.87549 12.3184 11.0942 11.0981C12.3135 9.87993 12.999 8.22739 13 6.50389C13.0021 2.91404 10.0937 0.00214435 6.50389 1.18363e-06ZM6.50409 12.3497C3.27334 12.3519 0.652557 9.73471 0.650334 6.50397C0.648152 3.27326 3.2654 0.652438 6.49611 0.650255C8.04832 0.647476 9.53763 1.26336 10.6345 2.36162C11.7318 3.45785 12.3488 4.94497 12.3498 6.49603C12.352 9.72674 9.7348 12.3475 6.50409 12.3497ZM6.95582 6.5L9.0247 4.43112C9.1486 4.30472 9.1486 4.10242 9.0247 3.97602C8.89904 3.84778 8.69322 3.84572 8.56499 3.97137L6.49611 6.04025L4.42724 3.97141C4.30083 3.84755 4.09854 3.84755 3.97213 3.97141C3.8439 4.09707 3.84183 4.30289 3.96749 4.43112L6.03636 6.5L3.96749 8.56887C3.90653 8.62983 3.87231 8.7125 3.87227 8.79871C3.87227 8.97825 4.01781 9.12383 4.19736 9.12387C4.2836 9.12399 4.36635 9.0897 4.42724 9.02862L6.49611 6.95975L8.56499 9.02862C8.62587 9.0897 8.70862 9.12399 8.79486 9.12387C8.88106 9.12383 8.96369 9.08962 9.02466 9.0287C9.15166 8.90174 9.15166 8.69587 9.0247 8.56887L6.95582 6.5Z" fill="#697F9B"/>
</svg>
