<svg xmlns="http://www.w3.org/2000/svg" width="16.108" height="17.373" viewBox="0 0 16.108 17.373">
  <g id="notification" transform="translate(0 -0.121)">
    <path id="Path_24488" data-name="Path 24488" d="M13.641,6.941a.621.621,0,0,1-.621-.621A4.965,4.965,0,0,0,5.74,1.926,6.874,6.874,0,0,0,4.422,3,6.973,6.973,0,0,0,3.409,4.559S2.156,4.5,2.266,4.137A5.443,5.443,0,0,1,3.409,2.253,8.045,8.045,0,0,1,5.162.828a6.207,6.207,0,0,1,9.1,5.492A.621.621,0,0,1,13.641,6.941Z" fill="#4D6090"/>
    <path id="Path_24489" data-name="Path 24489" d="M2.466,6.941a.621.621,0,0,1-.621-.621,6.185,6.185,0,0,1,.406-2.209.621.621,0,0,1,1.16.441A4.959,4.959,0,0,0,3.087,6.32.621.621,0,0,1,2.466,6.941Z" fill="#4D6090"/>
    <path id="Path_24490" data-name="Path 24490" d="M13.641,14.39a.621.621,0,1,1,0-1.241,1.256,1.256,0,0,0,.828-2.167.621.621,0,1,1,.827-.925,2.5,2.5,0,0,1-1.655,4.333Z" fill="#4D6090"/>
    <path id="Path_24491" data-name="Path 24491" d="M13.641,8.364a.621.621,0,0,1-.621-.621V6.32a.621.621,0,1,1,1.241,0V7.743A.621.621,0,0,1,13.641,8.364Z" fill="#4D6090"/>
    <path id="Path_24492" data-name="Path 24492" d="M14.882,11.139a.617.617,0,0,1-.413-.158,4.35,4.35,0,0,1-1.449-3.239.621.621,0,1,1,1.241,0A3.107,3.107,0,0,0,15.3,10.055a.621.621,0,0,1-.414,1.084Z" fill="#4D6090"/>
    <path id="Path_24493" data-name="Path 24493" d="M2.466,8.36a.621.621,0,0,1-.621-.621V6.316a.621.621,0,1,1,1.242,0V7.739A.621.621,0,0,1,2.466,8.36Z" fill="#4D6090"/>
    <path id="Path_24494" data-name="Path 24494" d="M1.226,11.143a.621.621,0,0,1-.414-1.084A3.107,3.107,0,0,0,1.847,7.746a.621.621,0,0,1,1.242,0A4.35,4.35,0,0,1,1.64,10.985.618.618,0,0,1,1.226,11.143Z" fill="#4D6090"/>
    <path id="Path_24495" data-name="Path 24495" d="M8.053,17.494a3.774,3.774,0,0,1-3.725-3.725.621.621,0,1,1,1.242,0,2.483,2.483,0,0,0,4.966,0,.621.621,0,1,1,1.241,0A3.774,3.774,0,0,1,8.053,17.494Z" fill="#4D6090"/>
    <path id="Path_24496" data-name="Path 24496" d="M2.466,14.39A2.5,2.5,0,0,1,.811,10.057a.621.621,0,1,1,.827.925,1.256,1.256,0,0,0,.828,2.167.621.621,0,1,1,0,1.241Z" fill="#4D6090"/>
    <path id="Path_24497" data-name="Path 24497" d="M13.64,14.39H2.466a.621.621,0,0,1,0-1.242H13.64a.621.621,0,1,1,0,1.242Z" fill="#4D6090"/>
  </g>
</svg>
