<svg width="18" height="19" viewBox="0 0 18 19" fill="none" xmlns="http://www.w3.org/2000/svg">
<path d="M12.177 0.0460317C12.2068 0.0473122 12.2358 0.0502806 12.264 0.054937C12.3677 0.0721658 12.4746 0.0925377 12.5846 0.116053C12.7966 0.161278 13.0032 0.264651 13.1947 0.376755C13.2545 0.411678 13.3102 0.449919 13.3616 0.491478C13.4125 0.532571 13.4635 0.575584 13.5146 0.620519C13.6137 0.707594 13.7129 0.817544 13.8123 0.950369C13.861 1.0155 13.8913 1.08744 13.9361 1.15362C13.9827 1.22225 14.0199 1.30135 14.0526 1.37713C14.0685 1.4138 14.0753 1.45257 14.0928 1.48976C14.1488 1.60989 14.1771 1.73457 14.2152 1.85977C14.2352 1.92554 14.2479 1.98817 14.2532 2.04766C14.2582 2.10132 14.266 2.15516 14.2766 2.20918C14.2908 2.28007 14.2789 2.35079 14.2915 2.42465C14.3033 2.49427 14.3092 2.56225 14.3089 2.62861C14.3081 2.79135 14.3078 2.94839 14.3079 3.09972C14.308 3.16014 14.3055 3.22061 14.3004 3.28115C14.2937 3.36112 14.3006 3.44022 14.2916 3.52212C14.2644 3.77566 14.2382 3.95697 14.2131 4.06605C14.1897 4.16791 14.1742 4.24998 14.1666 4.31225C14.1511 4.44042 14.1017 4.55567 14.0779 4.68122C14.0673 4.7371 14.0584 4.79332 14.0426 4.8478C14.0201 4.9265 13.9978 5.00566 13.9759 5.08528C13.9626 5.13429 13.9486 5.17777 13.9342 5.21572C13.9113 5.27561 13.889 5.32974 13.8771 5.39488C13.8551 5.51658 13.8013 5.62781 13.7725 5.75109C13.75 5.84783 13.7025 5.93322 13.678 6.0296C13.6683 6.0679 13.6532 6.10533 13.6328 6.14188C13.6134 6.17663 13.5757 6.26813 13.6035 6.3041C13.6113 6.31411 13.6215 6.32284 13.6342 6.33029C13.7093 6.37482 13.7863 6.40363 13.8609 6.44676C13.8926 6.46516 13.9255 6.48279 13.9595 6.49967C14.0308 6.53506 14.1028 6.57231 14.1757 6.61143C14.2405 6.64623 14.3087 6.6861 14.3802 6.73104C14.5419 6.83266 14.7048 6.93115 14.8557 7.04587C14.9058 7.08417 14.9573 7.12317 15.0102 7.16286C15.1003 7.23062 15.1857 7.30378 15.2735 7.37345C15.3647 7.44574 15.4571 7.5274 15.5508 7.61844C15.5729 7.63986 15.5965 7.66087 15.6215 7.68147C15.6557 7.70976 15.6809 7.74311 15.7127 7.7735C15.8784 7.9324 16.0134 8.07966 16.1174 8.21528C16.1777 8.29409 16.2407 8.37819 16.3062 8.4676C16.408 8.60677 16.5007 8.75711 16.5961 8.90606C16.6216 8.94605 16.6394 8.989 16.6638 9.02951C16.7157 9.11577 16.7636 9.20401 16.8075 9.29423C16.8669 9.41623 16.9221 9.53602 16.9731 9.65359C16.989 9.69038 17.0027 9.72862 17.0141 9.76831C17.0401 9.85911 17.0902 9.96284 17.1087 10.0374C17.1279 10.1148 17.153 10.1968 17.1838 10.2833C17.2043 10.3405 17.2189 10.406 17.2275 10.4795C17.2355 10.548 17.2528 10.6258 17.2795 10.713C17.291 10.7505 17.2957 10.7872 17.3048 10.8253C17.3083 10.8405 17.3099 10.8555 17.3095 10.8703C17.308 10.936 17.3275 10.9981 17.3347 11.0627C17.3405 11.115 17.3467 11.1662 17.3534 11.2164C17.3597 11.2629 17.3539 11.3093 17.3593 11.3545C17.3675 11.4246 17.374 11.4938 17.3789 11.562C17.3829 11.6165 17.3736 11.6702 17.3741 11.7237C17.3754 11.8594 17.3723 11.9775 17.3647 12.078C17.3584 12.161 17.3555 12.2504 17.356 12.3462C17.3565 12.4383 17.3514 12.5377 17.341 12.6444C17.339 12.6647 17.334 12.683 17.326 12.6994C17.3172 12.717 17.311 12.735 17.3073 12.7534C17.2736 12.9189 17.243 13.0765 17.2154 13.2261C17.2041 13.2872 17.1902 13.3429 17.1737 13.3933C17.1363 13.5068 17.1051 13.6217 17.0637 13.7323C17.0424 13.7893 17.0216 13.8471 17.0013 13.9055C16.9622 14.019 16.9059 14.1494 16.8325 14.2966C16.818 14.3256 16.814 14.3604 16.7951 14.3874C16.7594 14.4391 16.7327 14.4933 16.7151 14.5498C16.7085 14.5714 16.6973 14.5902 16.6816 14.6062C16.6451 14.6436 16.6338 14.6946 16.6046 14.7381C16.5627 14.8008 16.5302 14.8666 16.4864 14.9279C16.426 15.012 16.3769 15.1041 16.3107 15.187C16.2798 15.2259 16.2505 15.2648 16.2231 15.3036C16.1536 15.4022 16.0832 15.4898 16.012 15.5663C15.9921 15.5876 15.9734 15.6088 15.9559 15.63C15.938 15.6518 15.9192 15.6723 15.8995 15.6916C15.854 15.7366 15.8098 15.7812 15.7668 15.8256C15.7506 15.8423 15.7396 15.865 15.7212 15.879C15.6753 15.9139 15.6477 15.9602 15.599 15.992C15.5646 16.0143 15.5464 16.0473 15.5162 16.0749C15.3828 16.1968 15.2466 16.3077 15.1076 16.4076C15.0909 16.4197 15.0761 16.4334 15.0633 16.4486C15.0437 16.4722 15.0187 16.4802 14.9953 16.4975C14.9271 16.5477 14.858 16.5968 14.7881 16.6449C14.7634 16.6618 14.7413 16.6753 14.7219 16.6854C14.6821 16.7063 14.6566 16.7416 14.617 16.7613C14.5424 16.7987 14.4767 16.8467 14.4027 16.8858C14.3679 16.9041 14.3337 16.9254 14.3 16.9496C14.2737 16.9683 14.2433 16.9754 14.2167 16.9915C14.1548 17.0291 14.0944 17.0608 14.0355 17.0867C14.0013 17.1017 13.977 17.1308 13.9435 17.1446C13.8857 17.1684 13.83 17.1918 13.776 17.2251C13.7268 17.2555 13.67 17.2669 13.6188 17.2937C13.5645 17.3226 13.5115 17.3573 13.4523 17.3739C13.3819 17.3936 13.3222 17.4333 13.2525 17.4537C13.1867 17.4729 13.1201 17.4985 13.0527 17.5305C13.0098 17.5509 12.9646 17.5677 12.9172 17.581C12.8533 17.5988 12.7927 17.6301 12.7269 17.6468C12.6402 17.6689 12.5599 17.6956 12.4859 17.7268C12.4004 17.7629 12.3089 17.7773 12.2186 17.8061C12.0899 17.8471 11.9603 17.8639 11.8301 17.8976C11.7558 17.9169 11.6824 17.9332 11.6097 17.9465C11.4313 17.9793 11.2423 18.0171 11.0427 18.0598C10.951 18.0795 10.8083 18.0987 10.6146 18.1176C10.4599 18.1327 10.3045 18.1483 10.1484 18.1644C10.1167 18.1677 10.0933 18.1867 10.0619 18.1841C10.0578 18.1839 10.0543 18.185 10.0513 18.1874C10.0501 18.1884 10.0489 18.1894 10.0478 18.1904C10.0472 18.191 10.0465 18.1913 10.0457 18.1914L9.97042 18.1976C9.96833 18.1977 9.96632 18.1984 9.96457 18.1996C9.96283 18.2007 9.96142 18.2023 9.96047 18.2042C9.95802 18.209 9.95459 18.2111 9.95016 18.2105C9.94143 18.2093 9.93352 18.2111 9.92642 18.2157C9.9249 18.2168 9.92403 18.2182 9.9238 18.2201C9.92289 18.2263 9.9196 18.2319 9.9146 18.2357C9.9096 18.2396 9.90327 18.2414 9.89691 18.2409C9.86431 18.238 9.83404 18.2416 9.8061 18.2519C9.80052 18.2538 9.79487 18.2541 9.78917 18.2527C9.77741 18.2498 9.76571 18.249 9.75407 18.2501C9.69633 18.2561 9.63841 18.2604 9.58033 18.263C9.18849 18.281 8.77849 18.2784 8.40324 18.2765C8.36447 18.2763 8.32484 18.2833 8.28502 18.2798C8.23764 18.2756 8.1905 18.2745 8.14358 18.2765C8.12909 18.277 8.12018 18.2714 8.10761 18.2709C7.96722 18.2659 7.8305 18.2576 7.69744 18.2461C7.63434 18.2406 7.63423 18.2342 7.69709 18.2269C7.71374 18.2249 7.73946 18.2235 7.77427 18.2225C7.77858 18.2224 7.78044 18.2201 7.77986 18.2157L7.77811 18.2042C7.77776 18.2019 7.77637 18.2007 7.77392 18.2007C7.63225 18.1995 7.49005 18.1916 7.34733 18.1768C7.20904 18.1625 7.0786 18.1498 6.95602 18.1387C6.65812 18.1118 6.34987 18.0649 6.03125 17.998C5.88492 17.9674 5.74174 17.941 5.60501 17.9098C5.49186 17.8839 5.37848 17.8582 5.26486 17.8326C5.12726 17.8015 5.003 17.7663 4.89206 17.727C4.78263 17.6883 4.70621 17.6625 4.66278 17.6494C4.52577 17.6083 4.37537 17.5542 4.21158 17.4869C4.16041 17.4659 4.1089 17.4528 4.05809 17.4284C3.98353 17.3928 3.90408 17.3678 3.82812 17.3311C3.73138 17.2847 3.63307 17.244 3.53826 17.1935C3.4864 17.1659 3.43314 17.1431 3.38163 17.1137C3.27843 17.0552 3.16999 17.0046 3.06924 16.9422C3.00934 16.9051 2.94404 16.8755 2.88659 16.835C2.85149 16.8102 2.81342 16.7982 2.78042 16.7699C2.74608 16.7406 2.70813 16.7141 2.66657 16.6906C2.56966 16.636 2.48095 16.5714 2.38876 16.5068C2.31542 16.4552 2.25046 16.395 2.17869 16.3419C2.07532 16.2658 1.97998 16.1779 1.87905 16.0913C1.80519 16.0278 1.7453 15.9576 1.6737 15.8956C1.646 15.8716 1.61899 15.8459 1.59268 15.8184C1.45951 15.6791 1.34205 15.5464 1.24031 15.4205C1.21819 15.3932 1.19508 15.3637 1.17098 15.3319C1.14933 15.3036 1.12989 15.276 1.11266 15.249C1.08682 15.2088 1.05259 15.1791 1.02815 15.139C0.992876 15.0808 0.950619 15.0262 0.917966 14.9666C0.898059 14.9305 0.868549 14.9046 0.84777 14.8675C0.788516 14.7612 0.727983 14.6541 0.666169 14.5462C0.632992 14.4882 0.611339 14.429 0.580432 14.3707C0.543064 14.3003 0.514602 14.2298 0.476361 14.1618C0.461693 14.1358 0.448597 14.1081 0.437072 14.0789C0.393884 13.9689 0.357506 13.8651 0.327937 13.7675C0.314317 13.7225 0.287775 13.6836 0.276425 13.638C0.253725 13.5464 0.230152 13.4624 0.205706 13.386C0.182424 13.3134 0.166359 13.2463 0.157512 13.1849C0.146802 13.1102 0.13196 13.0397 0.112985 12.9732C0.0941263 12.9072 0.0797495 12.8353 0.0698546 12.7576C0.0463396 12.5738 0.0271899 12.3856 0.0124057 12.1932C0.00600313 12.1109 0.00303475 12.0275 0.00350039 11.943C0.00402424 11.8311 -0.00173806 11.7237 0.000531947 11.6121C0.00705095 11.3078 0.0374923 11.0095 0.0918561 10.7174C0.0965708 10.6915 0.10827 10.6665 0.114032 10.641C0.132193 10.5598 0.149654 10.4778 0.166417 10.395C0.179805 10.3288 0.198081 10.2583 0.221247 10.1837C0.243016 10.1138 0.265716 10.0437 0.289347 9.97366C0.298078 9.94764 0.314667 9.92564 0.323048 9.8991C0.363792 9.77035 0.398599 9.67501 0.427469 9.61308C0.476536 9.50779 0.528921 9.40459 0.573971 9.29755C0.587475 9.26553 0.602958 9.2341 0.620419 9.20325C0.687705 9.08428 0.755223 8.96729 0.822974 8.85228C0.878153 8.75851 0.942761 8.67242 1.0058 8.58127C1.14014 8.38721 1.25532 8.23338 1.35136 8.11976C1.44379 8.01045 1.5524 7.8973 1.6772 7.78031C1.69617 7.7625 1.71358 7.74323 1.72941 7.72251C1.75088 7.6944 1.78162 7.67641 1.80729 7.65144C1.8787 7.58177 1.94907 7.5114 2.02625 7.45011C2.11775 7.37747 2.2078 7.3039 2.29639 7.22939C2.31943 7.21007 2.34359 7.19214 2.36885 7.17561C2.40377 7.15274 2.42752 7.11869 2.46297 7.09721C2.49068 7.08045 2.51728 7.06229 2.54277 7.04273C2.60528 6.99488 2.6746 6.95856 2.73834 6.90967C2.77396 6.88243 2.81214 6.85647 2.85289 6.83179C2.93472 6.78232 3.0161 6.73331 3.097 6.68477C3.17977 6.63517 3.26225 6.58972 3.34443 6.54839C3.46212 6.48937 3.58447 6.4293 3.71148 6.36819C3.72482 6.36181 3.73545 6.35089 3.74147 6.33739C3.74748 6.32388 3.74849 6.30868 3.7443 6.2945C3.68389 6.09142 3.60583 5.85516 3.53581 5.6355C3.51707 5.57648 3.50007 5.51879 3.48482 5.46245C3.46789 5.39907 3.43576 5.34127 3.41917 5.27683C3.39833 5.19605 3.37604 5.11566 3.35229 5.03569C3.32645 4.94856 3.30986 4.87242 3.29309 4.78878C3.28646 4.75561 3.27872 4.7226 3.26987 4.68978C3.18897 4.39141 3.13099 4.0888 3.09595 3.78195C3.08815 3.71454 3.07756 3.64406 3.06417 3.57049C3.04927 3.48865 3.04281 3.40588 3.04479 3.32218C3.04619 3.26013 3.04537 3.19331 3.04235 3.12172C3.042 3.11555 3.04246 3.10932 3.04374 3.10304C3.04502 3.0971 3.0438 3.09204 3.04008 3.08785C3.03647 3.08377 3.03472 3.079 3.03484 3.07353C3.03676 2.95601 3.02523 2.83954 3.03222 2.72237C3.03629 2.65229 3.03833 2.59374 3.03833 2.54671C3.03821 2.42483 3.04566 2.32087 3.06068 2.23485C3.07907 2.13008 3.0913 2.06128 3.09735 2.02845C3.13728 1.80983 3.1867 1.63428 3.2456 1.50181C3.26562 1.45676 3.28477 1.41246 3.30305 1.36892C3.32447 1.31817 3.34525 1.27428 3.36539 1.23726C3.41474 1.14623 3.46498 1.06492 3.51608 0.993325C3.55275 0.941755 3.58727 0.890941 3.61963 0.840884C3.63127 0.822841 3.66212 0.788092 3.71217 0.736639C3.84896 0.595898 3.99761 0.475587 4.15814 0.375707C4.20028 0.349631 4.24324 0.326 4.28701 0.304813C4.34603 0.276176 4.40488 0.240903 4.46687 0.219775C4.57984 0.181534 4.68496 0.129673 4.80405 0.106798C4.88891 0.0905006 4.97471 0.0724568 5.06143 0.0526669C5.17051 0.0276386 5.24787 0.0170454 5.2935 0.0208869C5.31119 0.0224003 5.32871 0.0212362 5.34606 0.0173947C5.45083 -0.00565468 5.55437 -0.00524738 5.6567 0.0186168C5.70862 0.0307236 5.76112 0.0409679 5.8142 0.0493495C6.05133 0.0868337 6.25272 0.147018 6.41838 0.229903C6.53444 0.288108 6.65859 0.364008 6.79083 0.457602C6.8225 0.480069 6.85107 0.502886 6.87657 0.526051C6.92529 0.570753 6.97505 0.612487 7.02115 0.660331C7.05136 0.691937 7.08838 0.712542 7.11614 0.747639C7.16015 0.803051 7.20508 0.858405 7.25095 0.9137C7.28924 0.959915 7.32801 1.01352 7.36724 1.07452C7.45967 1.21794 7.54564 1.36572 7.62515 1.51787C7.64587 1.55733 7.66397 1.59563 7.67945 1.63277C7.70041 1.68323 7.72939 1.7309 7.74878 1.78311C7.78754 1.88736 7.84447 1.98654 7.86821 2.09585C7.88777 2.18595 7.93282 2.26488 7.9536 2.34922C7.9756 2.43839 8.00017 2.52331 8.02729 2.60398C8.04172 2.64717 8.05284 2.68827 8.06064 2.72726C8.07915 2.81824 8.08002 2.91847 8.11372 3.00962C8.13619 3.07015 8.14975 3.12219 8.15441 3.16572C8.16687 3.28225 8.18625 3.39826 8.21256 3.51373C8.22711 3.57718 8.23648 3.63841 8.24067 3.69743C8.24859 3.80802 8.26174 3.92414 8.28013 4.04579C8.29108 4.1182 8.29608 4.19678 8.29515 4.28152C8.29492 4.29328 8.29864 4.3037 8.30633 4.31278C8.31028 4.31744 8.31215 4.32279 8.31191 4.32884C8.31139 4.35224 8.32064 4.3704 8.31872 4.3938C8.31488 4.44176 8.31523 4.49065 8.31977 4.54048C8.32187 4.56271 8.32693 4.58372 8.33496 4.60351C8.34637 4.63122 8.34922 4.65893 8.34352 4.68663C8.34201 4.69385 8.34235 4.70089 8.34457 4.70776C8.34561 4.71102 8.34759 4.71358 8.3505 4.71544C8.35679 4.71929 8.3604 4.72481 8.36133 4.73203C8.38065 4.87405 8.39142 4.98622 8.39363 5.06852C8.39561 5.14395 8.39876 5.21485 8.40306 5.2812C8.40353 5.2883 8.40731 5.29232 8.41441 5.29325C8.44468 5.29697 8.4746 5.29901 8.50417 5.29936C8.65003 5.30157 8.79787 5.30041 8.94769 5.29587C8.95224 5.29574 8.95672 5.29469 8.96086 5.2928C8.96499 5.29091 8.96871 5.2882 8.97179 5.28485C8.97487 5.2815 8.97724 5.27756 8.97877 5.27328C8.9803 5.26899 8.98095 5.26444 8.98069 5.2599C8.97813 5.21415 8.97842 5.16671 8.98157 5.11758C8.99239 4.94664 8.99658 4.77569 9.00182 4.60439C9.00194 4.60159 9.00322 4.59944 9.00566 4.59793C9.00776 4.59665 9.00898 4.59478 9.00933 4.59234C9.02586 4.42785 9.04187 4.25888 9.05735 4.08543C9.06713 3.9742 9.09 3.86157 9.10118 3.75139C9.11177 3.64767 9.12464 3.54039 9.13977 3.42957C9.15217 3.33894 9.1733 3.25268 9.18796 3.16188C9.2003 3.08529 9.21596 3.01503 9.23493 2.95112C9.25635 2.87848 9.27335 2.81172 9.28592 2.75084C9.29838 2.69007 9.31206 2.62651 9.32696 2.56016C9.35525 2.43408 9.39785 2.31325 9.43959 2.18997C9.44465 2.17478 9.45652 2.16081 9.46194 2.14509C9.48615 2.07513 9.5117 2.0036 9.53859 1.93049C9.58504 1.80424 9.64563 1.69354 9.69959 1.57357C9.75779 1.44436 9.81926 1.33237 9.88398 1.23761C9.92019 1.18465 9.9554 1.12848 9.98963 1.06911C10.0603 0.946178 10.1726 0.837392 10.2634 0.723193C10.2929 0.686 10.33 0.662427 10.3612 0.628726C10.3811 0.60719 10.4031 0.588099 10.427 0.571452C10.4613 0.547355 10.4836 0.513654 10.5175 0.487461C10.5942 0.427743 10.6668 0.378559 10.7354 0.339911C10.8205 0.291891 10.9055 0.238808 10.9954 0.205805C11.0799 0.174898 11.1522 0.13299 11.2423 0.111338C11.3289 0.0906169 11.4115 0.0700123 11.4901 0.049524C11.5523 0.0332265 11.6261 0.0232732 11.7117 0.0196645C11.7538 0.0179183 11.7959 0.0133783 11.8379 0.00604445C11.8784 -0.000940202 11.9216 -0.00187155 11.9675 0.00325052C12.0028 0.00720849 12.0386 0.0103517 12.0749 0.0126799C12.0934 0.0139605 12.1105 0.0187915 12.1261 0.0271731C12.1421 0.0357875 12.159 0.040211 12.1767 0.0404439C12.1801 0.0404439 12.1804 0.0415498 12.1777 0.0437616C12.1773 0.0439944 12.1769 0.0443436 12.1765 0.0448093C12.1761 0.0455077 12.1762 0.0459153 12.177 0.0460317ZM7.50955 3.62654C7.50618 3.57974 7.49931 3.53393 7.48895 3.48911C7.46153 3.37003 7.44721 3.25059 7.42556 3.1308C7.41683 3.08331 7.40321 3.03703 7.38959 2.99024C7.35292 2.86538 7.3414 2.73722 7.28866 2.61656C7.25304 2.53466 7.2368 2.44718 7.20258 2.36493C7.17266 2.29323 7.14676 2.22134 7.12487 2.14928C7.10252 2.07542 7.0566 2.01396 7.02848 1.94044C6.99583 1.8554 6.94624 1.7777 6.90643 1.69493C6.89246 1.6663 6.86714 1.64709 6.85055 1.6202C6.81144 1.55652 6.76982 1.49313 6.7257 1.43004C6.69357 1.38412 6.64869 1.35618 6.62303 1.30711C6.60033 1.26346 6.55685 1.24285 6.52769 1.20286C6.50324 1.16934 6.46535 1.16113 6.43933 1.1283C6.42222 1.10688 6.4015 1.08704 6.37717 1.06876C6.31349 1.02115 6.26762 0.989308 6.23957 0.973244C6.1678 0.932209 6.10319 0.880872 6.02409 0.85433C5.91909 0.819058 5.82526 0.793273 5.74261 0.776975C5.56695 0.742285 5.36887 0.74438 5.14839 0.783261C5.0548 0.799792 4.95498 0.822084 4.84893 0.850139C4.78798 0.866378 4.73263 0.908985 4.67012 0.934654C4.60324 0.961894 4.55365 1.00083 4.49585 1.03384C4.45552 1.05688 4.43089 1.09181 4.39492 1.1187C4.34848 1.15362 4.30884 1.19343 4.26571 1.2315C4.2341 1.25944 4.21577 1.29593 4.18608 1.3251C4.16781 1.34326 4.15232 1.36293 4.13963 1.38412C4.12427 1.40996 4.10605 1.43493 4.08498 1.45903C4.04429 1.50547 4.02194 1.56414 3.99069 1.6181C3.97614 1.64336 3.96316 1.6702 3.95175 1.6986C3.89948 1.82956 3.86741 1.92129 3.85553 1.97379C3.82631 2.10266 3.8028 2.23549 3.78499 2.37227C3.77195 2.47331 3.76398 2.59153 3.76107 2.72691C3.75594 2.95974 3.75612 3.12551 3.76159 3.22422C3.76729 3.32759 3.7819 3.45477 3.80542 3.60576C3.81275 3.65232 3.81916 3.70477 3.82463 3.76309C3.83545 3.87973 3.84907 3.99026 3.88085 4.10551C3.89797 4.16767 3.91211 4.23071 3.92328 4.29462C3.94144 4.39846 3.96787 4.50241 4.00256 4.60648C4.02998 4.68855 4.03417 4.77411 4.06228 4.85688C4.08719 4.93057 4.10913 5.00548 4.12811 5.08161C4.14505 5.14884 4.16967 5.21205 4.19446 5.27718C4.21239 5.32433 4.22752 5.3759 4.23986 5.43189C4.25837 5.51501 4.29993 5.59114 4.3263 5.67513C4.34737 5.74254 4.37432 5.81407 4.40715 5.88974C4.42426 5.92903 4.42967 5.97285 4.44626 6.01179C4.47455 6.07792 4.50208 6.14491 4.52885 6.21278C4.55505 6.27913 4.59154 6.34217 4.60883 6.41254C4.62943 6.49618 4.6689 6.57057 4.70661 6.64513C4.71488 6.66154 4.7193 6.68092 4.71988 6.70327C4.72 6.70933 4.71791 6.71457 4.7136 6.71899C4.68519 6.74751 4.65533 6.76544 4.62402 6.77277C4.57338 6.78465 4.52973 6.81189 4.47839 6.82673C4.43229 6.84012 4.38619 6.85868 4.34009 6.88243C4.26024 6.92352 4.17194 6.9645 4.0752 7.00536C3.9908 7.0411 3.91339 7.07847 3.84296 7.11746C3.76555 7.16042 3.68924 7.20029 3.61404 7.23708C3.54996 7.26851 3.49757 7.3153 3.43191 7.34342C3.38023 7.36542 3.33937 7.40349 3.28908 7.43003C3.24216 7.45482 3.19816 7.48329 3.15707 7.51541C3.13402 7.5334 3.10294 7.54213 3.08338 7.55802C3.03391 7.59818 2.98565 7.63182 2.93862 7.65895C2.89864 7.682 2.87 7.71535 2.82984 7.7377C2.78409 7.76337 2.75091 7.80336 2.70534 7.82972C2.67094 7.8498 2.64509 7.88001 2.61139 7.90219C2.57775 7.92454 2.54545 7.94928 2.51448 7.9764C2.44062 8.04101 2.36484 8.10143 2.29132 8.16813C2.27665 8.18158 2.27019 8.19834 2.25308 8.21143C2.20646 8.24723 2.16542 8.29263 2.12177 8.33576C1.96834 8.4871 1.82143 8.65292 1.68104 8.83324C1.66602 8.8528 1.65869 8.87707 1.63878 8.89279C1.59321 8.92911 1.5843 8.9794 1.54449 9.01834C1.51015 9.05186 1.48419 9.08958 1.46661 9.13149C1.44793 9.17619 1.41038 9.20151 1.38943 9.24412C1.358 9.30855 1.30893 9.36216 1.28187 9.42851C1.25218 9.50115 1.20503 9.55773 1.18111 9.63298C1.15771 9.70632 1.11092 9.76674 1.08752 9.84008C1.06307 9.91674 1.02256 9.98536 0.999686 10.0641C0.975938 10.146 0.953762 10.2276 0.925299 10.3081C0.892821 10.3999 0.88828 10.4961 0.866279 10.5878C0.852892 10.6435 0.842473 10.6962 0.835023 10.7456C0.81372 10.8879 0.801729 11.0392 0.799052 11.1995C0.795559 11.401 0.803883 11.5695 0.824022 11.705C0.83089 11.752 0.840552 11.7966 0.853008 11.8387C0.866512 11.8846 0.87664 11.9298 0.883391 11.9742C0.891424 12.0272 0.905277 12.0796 0.92495 12.1314C0.952307 12.2036 0.978325 12.2764 1.003 12.35C1.02291 12.409 1.05696 12.4604 1.08088 12.5168C1.1193 12.6072 1.16976 12.6949 1.21743 12.7813C1.28157 12.898 1.35747 13.0122 1.44513 13.1241C1.47569 13.163 1.49752 13.2044 1.53122 13.2432C1.56754 13.2852 1.60427 13.3282 1.6414 13.372C1.71195 13.4555 1.7893 13.5299 1.86421 13.6085C1.93388 13.6813 2.01281 13.7445 2.08073 13.8171C2.11025 13.8487 2.14779 13.8711 2.17904 13.901C2.21816 13.9385 2.26443 13.9643 2.30354 14.0022C2.3479 14.0452 2.40185 14.0798 2.4504 14.1184C2.47927 14.1413 2.51093 14.1645 2.54539 14.188C2.74236 14.3229 2.92914 14.4424 3.10573 14.5463C3.18582 14.5935 3.26428 14.6364 3.34111 14.6752C3.41725 14.7136 3.49629 14.7555 3.57824 14.8009C3.6808 14.8576 3.78895 14.9084 3.90268 14.9534C3.92945 14.9638 3.95966 14.9773 3.99331 14.9939C4.08969 15.0413 4.21315 15.0913 4.36367 15.144C4.49131 15.1887 4.61546 15.2436 4.74555 15.2844C4.94322 15.3466 5.1442 15.4213 5.34798 15.4727C5.42656 15.4925 5.58476 15.5293 5.82258 15.5832C5.89313 15.5993 5.96222 15.6141 6.02985 15.6277C6.09807 15.6415 6.166 15.6581 6.23363 15.6775C6.25616 15.6841 6.27554 15.6801 6.29719 15.6845C6.36518 15.6982 6.43229 15.7099 6.49852 15.7194C6.61657 15.7363 6.73705 15.7542 6.85998 15.773C6.90061 15.7792 6.94164 15.7859 6.98308 15.7933C7.07319 15.8091 7.16463 15.8146 7.25741 15.8099C7.27871 15.8088 7.30036 15.8184 7.32271 15.8189C7.50559 15.8232 7.68626 15.8237 7.86472 15.8203C7.94435 15.8188 8.02403 15.8181 8.10377 15.8181H9.16823C9.17405 15.8181 9.1797 15.8188 9.18517 15.8202C9.19006 15.8214 9.19506 15.8221 9.20019 15.8221C9.32684 15.8223 9.46921 15.8237 9.6273 15.8263C9.67957 15.8271 9.72962 15.8285 9.77747 15.8306C9.87921 15.8349 9.97048 15.8317 10.0513 15.8209C10.1105 15.8129 10.1705 15.8085 10.2311 15.8076C10.2906 15.8067 10.3499 15.8005 10.4091 15.7891C10.5695 15.7582 10.7279 15.7412 10.8858 15.7196C10.9458 15.7113 11.0072 15.6982 11.07 15.6801C11.1854 15.6471 11.309 15.6366 11.4239 15.6115C11.6585 15.56 11.8615 15.5109 12.0328 15.4641C12.142 15.4343 12.2522 15.4032 12.3635 15.3709C12.4227 15.3536 12.4762 15.3354 12.5242 15.3162C12.6288 15.2743 12.7358 15.2472 12.8385 15.2027C12.8888 15.1808 12.9417 15.1626 12.9972 15.1481C13.0573 15.1322 13.1102 15.102 13.1699 15.0812C13.2102 15.0672 13.2526 15.0498 13.2972 15.0288C13.4222 14.9702 13.5504 14.9132 13.6817 14.8577C13.7715 14.8198 13.8764 14.7485 13.9789 14.7009C14.0344 14.6751 14.0771 14.6533 14.1069 14.6352C14.217 14.5687 14.3246 14.5051 14.4298 14.4444C14.4846 14.4127 14.5384 14.3779 14.5911 14.3399C14.6455 14.3008 14.7021 14.2646 14.7608 14.2313C14.7947 14.2119 14.8251 14.1873 14.8585 14.1658C14.8795 14.1523 14.9021 14.135 14.9262 14.1138C15.007 14.0426 15.0911 13.9729 15.1785 13.9048C15.2597 13.8417 15.3597 13.7539 15.4785 13.6415C15.5007 13.6205 15.515 13.5947 15.5382 13.5763C15.5793 13.5442 15.6051 13.4995 15.6451 13.4656C15.6758 13.4398 15.6945 13.4061 15.7228 13.3785C15.7428 13.3588 15.7609 13.3374 15.7771 13.3142C15.8174 13.2568 15.8676 13.2077 15.9095 13.1501C15.9625 13.077 16.0156 13.0051 16.0685 12.9345C16.1071 12.8829 16.1331 12.8234 16.1668 12.7689C16.217 12.6881 16.2566 12.5997 16.2996 12.5115C16.3416 12.4253 16.377 12.3443 16.4057 12.2686C16.4362 12.1882 16.4622 12.1067 16.4836 12.0242C16.5001 11.9606 16.5177 11.8929 16.5363 11.8211C16.5477 11.7772 16.5572 11.7329 16.5646 11.688C16.5756 11.6227 16.581 11.577 16.5809 11.551C16.5798 11.3432 16.5799 11.1248 16.5812 10.896C16.5817 10.816 16.57 10.7231 16.5461 10.6171C16.5317 10.553 16.5183 10.4909 16.506 10.4308C16.4901 10.3534 16.475 10.2926 16.4606 10.2485C16.4325 10.1629 16.4065 10.0814 16.3825 10.0039C16.3561 9.91831 16.3111 9.84479 16.2826 9.76569C16.2522 9.68153 16.207 9.60906 16.174 9.52682C16.1435 9.45092 16.1004 9.37153 16.0446 9.28864C16.0033 9.22718 15.9651 9.16868 15.9299 9.11315C15.8925 9.0539 15.8532 8.99878 15.8119 8.94779C15.7825 8.91147 15.7647 8.86799 15.7308 8.83621C15.7124 8.81898 15.6975 8.79925 15.6861 8.77702C15.6708 8.74722 15.6478 8.72166 15.6172 8.70036C15.5924 8.68307 15.5772 8.64221 15.5538 8.61829C15.4954 8.55875 15.4446 8.49274 15.3847 8.43285C15.339 8.38721 15.2932 8.34129 15.2475 8.29508C15.167 8.21388 15.0729 8.136 14.9871 8.05445C14.9596 8.02826 14.9272 8.01307 14.9019 7.98531C14.8838 7.96552 14.8639 7.94707 14.8424 7.92995C14.7418 7.84963 14.6379 7.77402 14.5316 7.69632C14.4495 7.63642 14.3625 7.58264 14.2791 7.52502C14.2224 7.4859 14.1659 7.44964 14.1095 7.41623C14.0525 7.38247 13.9943 7.34877 13.9351 7.31513C13.9194 7.30622 13.9082 7.2926 13.8937 7.28457C13.8191 7.24336 13.7471 7.20524 13.6779 7.1702C13.6381 7.15006 13.5971 7.12713 13.5551 7.1014C13.4764 7.05321 13.387 7.02754 13.3037 6.9858C13.237 6.95245 13.1619 6.92643 13.0953 6.88907C13.0653 6.8723 13.0344 6.85851 13.0026 6.84768C12.9127 6.81712 12.8256 6.77818 12.7369 6.74344C12.6947 6.72702 12.6703 6.69972 12.6637 6.66154C12.6594 6.63628 12.6654 6.60456 12.6819 6.56638C12.7078 6.50607 12.7324 6.44345 12.7557 6.37849C12.8026 6.24788 12.8582 6.10469 12.9225 5.94893C12.9546 5.8714 12.9705 5.78462 13 5.71023C13.0559 5.56972 13.1059 5.4312 13.1502 5.29465C13.1671 5.24209 13.1757 5.18761 13.194 5.13697C13.2204 5.06398 13.2314 4.98697 13.2635 4.91555C13.2735 4.89355 13.2696 4.86718 13.2803 4.84553C13.2985 4.80886 13.3108 4.77505 13.3171 4.74408C13.3402 4.63023 13.3698 4.52284 13.3936 4.41231C13.4523 4.14008 13.5059 3.88462 13.5467 3.61239C13.5556 3.55285 13.5511 3.49261 13.5623 3.43481C13.5881 3.30152 13.5998 3.16805 13.5972 3.03441C13.597 3.01823 13.5977 2.99198 13.5995 2.95566C13.6031 2.88512 13.6041 2.81422 13.6024 2.74298C13.6009 2.67174 13.5955 2.60125 13.5862 2.53152C13.5736 2.43653 13.5616 2.33799 13.5501 2.23589C13.5397 2.14323 13.5208 2.0533 13.4933 1.96611C13.452 1.83457 13.3974 1.69971 13.3295 1.56153C13.3137 1.5294 13.2915 1.49412 13.263 1.45571C13.2374 1.42148 13.2134 1.38749 13.191 1.35373C13.1718 1.32498 13.116 1.26514 13.0234 1.17423C12.9944 1.14559 12.9612 1.129 12.9349 1.09984C12.9172 1.08052 12.8958 1.06294 12.8708 1.04711C12.8097 1.00881 12.7543 0.976794 12.7046 0.951068C12.6769 0.936749 12.649 0.922139 12.6209 0.907239C12.5632 0.876623 12.5003 0.852933 12.4322 0.83617C12.3014 0.803924 12.1625 0.780118 12.0153 0.764752C11.8867 0.751306 11.7697 0.761958 11.6427 0.778547C11.5593 0.789547 11.4861 0.81801 11.4058 0.836519C11.3188 0.856425 11.2495 0.910731 11.1732 0.953337C11.1206 0.982906 11.0639 1.01806 11.0031 1.05881C10.968 1.0822 10.9437 1.11206 10.9114 1.13651C10.8641 1.17231 10.8339 1.21596 10.7892 1.25263C10.7537 1.28162 10.7345 1.32073 10.7033 1.35443C10.6539 1.40804 10.6188 1.46915 10.5751 1.52643C10.5308 1.58457 10.4955 1.65145 10.4506 1.711C10.4281 1.74103 10.4222 1.77945 10.4017 1.81088C10.3718 1.85686 10.347 1.90453 10.3273 1.95389C10.3024 2.0171 10.254 2.06913 10.2397 2.13514C10.2322 2.16948 10.222 2.20283 10.2089 2.2352C10.1782 2.31063 10.1504 2.38746 10.1255 2.46569C10.0961 2.55736 10.0527 2.64327 10.0359 2.73495C10.0094 2.88197 9.95889 3.02481 9.93637 3.16887C9.91227 3.32375 9.87193 3.47776 9.85273 3.63352C9.83655 3.76402 9.81705 3.88689 9.79423 4.00214C9.77386 4.10469 9.75785 4.21755 9.74621 4.34072C9.69208 4.91229 9.67101 5.48789 9.683 6.0675C9.68307 6.07023 9.68258 6.07295 9.68157 6.07549C9.68055 6.07803 9.67903 6.08034 9.67708 6.08228C9.67514 6.08423 9.67283 6.08576 9.67027 6.08679C9.66772 6.08782 9.66498 6.08832 9.66222 6.08828C9.01777 6.07477 8.40999 6.07419 7.83888 6.08653C7.80931 6.08711 7.77869 6.08985 7.74703 6.09474C7.70885 6.10044 7.68947 6.0849 7.68888 6.04811C7.68702 5.93205 7.68551 5.80453 7.68434 5.66553C7.68353 5.55215 7.67986 5.44691 7.67334 5.34982C7.66682 5.25053 7.66083 5.14843 7.65536 5.04355C7.65477 5.03389 7.65344 5.02376 7.65134 5.01316C7.6496 5.00455 7.64989 4.99559 7.65221 4.98627C7.65447 4.97748 7.65354 4.96814 7.64959 4.95991C7.64098 4.9421 7.63661 4.92423 7.6365 4.9063C7.63638 4.88127 7.6372 4.85554 7.63894 4.82912C7.64051 4.80537 7.62777 4.78704 7.62707 4.76713C7.62253 4.62511 7.61816 4.48187 7.61397 4.3374C7.61246 4.28862 7.60897 4.24084 7.6035 4.19404C7.59779 4.14561 7.59284 4.09754 7.58865 4.04981C7.58807 4.0441 7.58633 4.03881 7.58342 4.03392C7.57911 4.02658 7.5773 4.01855 7.578 4.00982C7.58045 3.97979 7.57922 3.94795 7.57433 3.9143C7.57364 3.90907 7.57073 3.90575 7.5656 3.90435C7.55594 3.90156 7.55035 3.89515 7.54884 3.88514C7.54267 3.84195 7.5354 3.799 7.52701 3.75628C7.51828 3.71123 7.51246 3.66798 7.50955 3.62654Z" fill="#4D6090"/>
<path d="M6.54227 10.4568C6.54995 10.4905 6.56532 10.5195 6.56654 10.5549C6.56846 10.6122 6.5613 10.6684 6.56444 10.7248C6.56968 10.8202 6.56974 10.8976 6.56462 10.9571C6.55996 11.0093 6.55583 11.0616 6.55222 11.1139C6.54861 11.167 6.54087 11.2194 6.529 11.2712C6.51305 11.3408 6.49727 11.4045 6.48168 11.4624C6.46648 11.5186 6.42737 11.5639 6.40816 11.6185C6.37627 11.7091 6.33174 11.7851 6.27458 11.8466C6.25095 11.8721 6.22941 11.8972 6.20997 11.922C6.191 11.946 6.17313 11.9652 6.15637 11.9796C6.12703 12.0048 6.11219 12.0378 6.07953 12.0582C6.05229 12.0751 6.02692 12.0924 6.0034 12.1102C5.9821 12.1263 5.95241 12.1414 5.91435 12.1555C5.66523 12.247 5.43601 12.2152 5.22671 12.0603C5.19958 12.0403 5.17607 12.0192 5.15616 11.9971C5.12648 11.9642 5.09138 11.9402 5.06501 11.9044C5.03481 11.8633 4.99918 11.8286 4.97299 11.7833C4.9372 11.7214 4.8986 11.6578 4.87398 11.5925C4.82789 11.4703 4.79436 11.3458 4.77341 11.219C4.75909 11.1326 4.74599 11.0466 4.73412 10.9611C4.71404 10.8161 4.73813 10.6396 4.75821 10.4828C4.76706 10.4148 4.77952 10.351 4.79558 10.2914C4.83586 10.1424 4.88592 10.0161 4.94575 9.91251C4.97765 9.85721 5.02194 9.79499 5.07863 9.72584C5.1532 9.63469 5.24557 9.57009 5.34597 9.51561C5.39044 9.49139 5.43241 9.47597 5.47187 9.46933C5.56372 9.45379 5.65033 9.45763 5.73868 9.45519C5.78001 9.45403 5.82262 9.462 5.8665 9.47911C5.97639 9.52218 6.06411 9.57346 6.12965 9.63295C6.20404 9.70058 6.27732 9.79569 6.34949 9.91827C6.39542 9.99632 6.42772 10.0836 6.46474 10.1673C6.48162 10.2053 6.50746 10.3018 6.54227 10.4568Z" fill="#4D6090"/>
<path d="M11.1311 11.8791C11.1185 11.8665 11.1074 11.8534 11.0981 11.8398C11.047 11.7656 11.0086 11.6981 10.9827 11.6374C10.9452 11.5498 10.898 11.4618 10.8781 11.3687C10.8518 11.2435 10.82 11.1181 10.8137 10.9887C10.8055 10.8203 10.8072 10.6781 10.8186 10.5622C10.8286 10.4602 10.8446 10.3718 10.8666 10.2971C10.875 10.2689 10.8836 10.2404 10.8924 10.2115C10.9013 10.1834 10.9114 10.1561 10.9228 10.1296C10.9594 10.0452 10.9971 9.96869 11.036 9.90001C11.0823 9.81829 11.1416 9.73931 11.2137 9.66306C11.2696 9.60404 11.358 9.54327 11.479 9.48076C11.49 9.47505 11.5021 9.47086 11.5151 9.46819C11.6082 9.44886 11.7184 9.44293 11.8455 9.45038C11.8852 9.4527 11.9223 9.4619 11.9569 9.47796C11.9853 9.49112 12.014 9.50398 12.043 9.51655C12.1004 9.54152 12.1401 9.58064 12.1907 9.61329C12.2181 9.63099 12.2452 9.65619 12.2721 9.6889C12.3418 9.77376 12.3943 9.84582 12.4296 9.90508C12.4886 10.0044 12.5369 10.1211 12.5743 10.2554C12.5876 10.303 12.6059 10.394 12.6292 10.5285C12.6398 10.5898 12.6442 10.6507 12.6424 10.7113C12.6395 10.813 12.637 10.917 12.6348 11.0233C12.6334 11.0887 12.6187 11.1939 12.5908 11.3387C12.5733 11.4288 12.5363 11.5028 12.5078 11.5858C12.4945 11.6242 12.4755 11.6607 12.4505 11.6952C12.4165 11.742 12.3973 11.7941 12.3615 11.8396C12.2656 11.9619 12.1626 12.0686 12.0267 12.1341C12.0011 12.1465 11.951 12.1626 11.8762 12.1822C11.6773 12.2346 11.4736 12.1812 11.3068 12.0584C11.2647 12.0274 11.2384 11.986 11.1961 11.9552C11.1682 11.9348 11.1552 11.903 11.1311 11.8791Z" fill="#4D6090"/>
</svg>
