<svg width="16" height="17" viewBox="0 0 16 17" fill="none" xmlns="http://www.w3.org/2000/svg">
<g id="Group 59842">
<path id="Vector" d="M2.61189 2.175H2.66189V2.125V1.59375C2.66189 0.750573 3.48559 0.05 4.51748 0.05H13.9856C15.0175 0.05 15.8412 0.750574 15.8412 1.59375V13.2812C15.8412 14.1244 15.0175 14.825 13.9856 14.825H13.2793H13.2293V14.875V15.8464C13.2293 16.4494 12.6734 16.95 11.9771 16.95H1.30222C0.6059 16.95 0.05 16.4494 0.05 15.8464V3.27864C0.05 2.67564 0.6059 2.175 1.30222 2.175H2.61189ZM13.2293 13.8125V13.8625H13.2793H13.9856C14.1901 13.8625 14.3775 13.8 14.5148 13.6967C14.6521 13.5934 14.7419 13.447 14.7419 13.2812V1.59375C14.7419 1.42804 14.6521 1.28161 14.5148 1.17832C14.3775 1.07503 14.1901 1.0125 13.9856 1.0125H4.51748C4.31293 1.0125 4.12559 1.07503 3.98827 1.17832C3.85095 1.28161 3.76122 1.42804 3.76122 1.59375V2.125V2.175H3.81122H11.9771C12.6734 2.175 13.2293 2.67564 13.2293 3.27864V13.8125ZM11.9771 15.9875C12.0556 15.9875 12.13 15.9298 12.13 15.8464V3.27864C12.13 3.19524 12.0556 3.1375 11.9771 3.1375H1.30222C1.22372 3.1375 1.14934 3.19524 1.14934 3.27864V15.8464C1.14934 15.9298 1.22372 15.9875 1.30222 15.9875H11.9771Z" fill="white" stroke="black" stroke-width="0.1"/>
<path id="Vector_2" d="M9.59534 7.12242H3.8985C3.58908 7.12242 3.34883 6.90142 3.34883 6.64117C3.34883 6.38093 3.58908 6.15992 3.8985 6.15992H9.59534C9.90476 6.15992 10.145 6.38093 10.145 6.64117C10.145 6.90142 9.90476 7.12242 9.59534 7.12242Z" fill="white" stroke="black" stroke-width="0.1"/>
<path id="Vector_3" d="M9.59534 9.24718H3.8985C3.58908 9.24718 3.34883 9.02618 3.34883 8.76593C3.34883 8.50568 3.58908 8.28468 3.8985 8.28468H9.59534C9.90476 8.28468 10.145 8.50568 10.145 8.76593C10.145 9.02618 9.90476 9.24718 9.59534 9.24718Z" fill="white" stroke="black" stroke-width="0.1"/>
<path id="Vector_4" d="M9.59534 11.3719H3.8985C3.58908 11.3719 3.34883 11.1509 3.34883 10.8907C3.34883 10.6304 3.58908 10.4094 3.8985 10.4094H9.59534C9.90476 10.4094 10.145 10.6304 10.145 10.8907C10.145 11.1509 9.90476 11.3719 9.59534 11.3719Z" fill="white" stroke="black" stroke-width="0.1"/>
</g>
</svg>
