<svg width="17" height="19" viewBox="0 0 17 19" fill="none" xmlns="http://www.w3.org/2000/svg">
<path id="Union 18" d="M2.68555 18.1221C2.04601 18.1215 1.43269 17.8673 0.980469 17.415C0.528246 16.9628 0.273967 16.3495 0.273438 15.71V9.89453C0.273702 9.25482 0.528217 8.64189 0.980469 8.18945C1.43272 7.73701 2.04583 7.48198 2.68555 7.48145H3.59668V4.9043C3.59668 3.60368 4.11352 2.3562 5.0332 1.43652C5.95288 0.516845 7.19938 0 8.5 0C9.80062 0 11.0481 0.516845 11.9678 1.43652C12.8875 2.3562 13.4043 3.60368 13.4043 4.9043V7.47656H14.3164C14.956 7.47736 15.5693 7.73219 16.0215 8.18457C16.4737 8.63695 16.728 9.25002 16.7285 9.88965V15.7051C16.7277 16.3445 16.4736 16.957 16.0215 17.4092C15.5693 17.8613 14.9559 18.1164 14.3164 18.1172L2.68555 18.1221ZM1.77344 9.89355V15.709C1.77397 15.9506 1.87007 16.1818 2.04102 16.3525C2.21196 16.5233 2.44392 16.6199 2.68555 16.6201H14.3164C14.5579 16.6199 14.7892 16.5233 14.96 16.3525C15.1307 16.1818 15.2273 15.9505 15.2275 15.709V9.89355C15.2277 9.77384 15.2039 9.65557 15.1582 9.54492C15.1125 9.43428 15.0455 9.33372 14.9609 9.24902C14.8763 9.16432 14.7756 9.0976 14.665 9.05176C14.5544 9.00591 14.4361 8.98145 14.3164 8.98145H2.68555C2.56561 8.98131 2.44677 9.00495 2.33594 9.05078C2.22511 9.09662 2.12485 9.16422 2.04004 9.24902C1.95523 9.33383 1.88763 9.43409 1.8418 9.54492C1.79596 9.65575 1.77233 9.7746 1.77246 9.89453L1.77344 9.89355ZM11.9043 7.48047V4.9043C11.9043 4.00123 11.5458 3.13465 10.9072 2.49609C10.2687 1.85753 9.40209 1.49902 8.49902 1.49902C7.59596 1.49902 6.73036 1.85753 6.0918 2.49609C5.45324 3.13465 5.09473 4.00123 5.09473 4.9043V7.47656L11.9043 7.48047Z" fill="#D0D6E4"/>
</svg>
