<svg width="15" height="16" viewBox="0 0 15 16" fill="none" xmlns="http://www.w3.org/2000/svg">
<g id="Group">
<g id="layer1">
<path id="rect828" fill-rule="evenodd" clip-rule="evenodd" d="M1.39187 0C0.627163 0 2.60804e-06 0.626485 2.60804e-06 1.39119V2.4339C-0.000738199 2.6273 0.156435 2.78417 0.349837 2.78305H2.08746V3.12949C2.07695 3.60362 2.79357 3.60362 2.78305 3.12949V1.39119C2.78305 1.13711 2.70924 0.901294 2.58878 0.695593H11.8258C12.2171 0.695593 12.5214 0.999805 12.5214 1.39119V2.4339C12.5214 2.89773 13.217 2.89773 13.217 2.4339V1.39119C13.217 0.626472 12.5905 0 11.8258 0H1.39187ZM1.39187 0.695593C1.78324 0.695593 2.08746 0.999818 2.08746 1.39119V2.08746H0.696275V1.39119C0.696275 0.999818 1.0005 0.695593 1.39187 0.695593ZM12.8658 3.47321C12.6736 3.47585 12.5192 3.63294 12.5214 3.82508V13.2169H4.52136C4.33022 13.2176 4.1756 13.3722 4.17492 13.5634V14.6081C4.17492 14.9995 3.8707 15.3044 3.47933 15.3044C3.08795 15.3044 2.78305 14.9995 2.78305 14.6081V12.1722C2.78305 11.7084 2.08746 11.7084 2.08746 12.1722V14.6081C2.08746 15.3728 2.71463 16 3.47933 16H13.217C13.9817 16 14.6088 15.3728 14.6088 14.6081V13.5634C14.6081 13.3724 14.4534 13.2177 14.2624 13.2169H13.217V3.82508C13.2192 3.62992 13.0609 3.47102 12.8658 3.47321ZM4.87051 13.9125H13.9132V14.6081C13.9132 14.9995 13.6083 15.3044 13.217 15.3044H4.67556C4.79622 15.0985 4.87051 14.8625 4.87051 14.6081V13.9125Z" fill="#8393BA"/>
<path id="path870" fill-rule="evenodd" clip-rule="evenodd" d="M2.43661 4.17188C1.09615 4.17188 0 5.2653 0 6.60577C0 7.2655 0.26682 7.86485 0.696272 8.304V11.4736C0.695925 11.533 0.710826 11.5916 0.739552 11.6436C0.768278 11.6957 0.809871 11.7395 0.860357 11.7709C0.910844 11.8023 0.968539 11.8203 1.02793 11.8231C1.08733 11.8258 1.14644 11.8133 1.19963 11.7867L2.43661 11.1679L3.67156 11.7867C3.72475 11.8133 3.78386 11.8258 3.84326 11.8231C3.90265 11.8203 3.96035 11.8023 4.01083 11.7709C4.06132 11.7395 4.10291 11.6957 4.13164 11.6436C4.16036 11.5916 4.17526 11.533 4.17492 11.4736V8.30536C4.6045 7.86609 4.87051 7.26617 4.87051 6.60577C4.87051 5.2653 3.77707 4.17188 2.43661 4.17188ZM2.43661 4.86815C3.40115 4.86815 4.17492 5.64124 4.17492 6.60577C4.17492 7.5703 3.40115 8.34408 2.43661 8.34408C1.47208 8.34408 0.696272 7.5703 0.696272 6.60577C0.696272 5.64124 1.47208 4.86815 2.43661 4.86815ZM1.39187 8.80056C1.70927 8.95236 2.06268 9.03967 2.43661 9.03967C2.80979 9.03967 3.1627 8.95246 3.47932 8.80124V10.9118L2.59081 10.4675C2.5426 10.4435 2.48947 10.431 2.43559 10.431C2.38172 10.431 2.32859 10.4435 2.28038 10.4675L1.39187 10.9118V8.80056Z" fill="#8393BA"/>
<path id="path881" fill-rule="evenodd" clip-rule="evenodd" d="M8.2918 4.08594C8.09704 4.08594 7.95759 4.25256 7.95759 4.44732V4.78153H7.59621C7.03974 4.78153 6.56641 5.25421 6.56641 5.83851C6.56641 6.39498 7.03974 6.86831 7.59621 6.86831H7.95759V7.5639H7.59621C7.40145 7.5639 7.262 7.42445 7.262 7.22969C7.262 6.75668 6.56641 6.75668 6.56641 7.22969C6.56641 7.78616 7.03974 8.2595 7.59621 8.2595H7.95759V8.62088C7.90195 9.12171 8.70883 9.12171 8.65319 8.62088V8.2595H8.9874C9.57169 8.2595 10.0444 7.78616 10.0444 7.22969C10.0444 6.64539 9.57169 6.17272 8.9874 6.17272H8.65319V5.47712H8.9874C9.20998 5.47712 9.34878 5.64374 9.34878 5.83851C9.34878 6.28368 10.0444 6.28368 10.0444 5.83851C10.0444 5.25421 9.57169 4.78153 8.9874 4.78153H8.65319V4.44732C8.65319 4.25256 8.48657 4.08594 8.2918 4.08594ZM7.59621 5.47712H7.95759V6.17272H7.59621C7.40145 6.17272 7.262 6.03328 7.262 5.83851C7.262 5.64374 7.40145 5.47712 7.59621 5.47712ZM8.65319 6.86831H8.9874C9.20998 6.86831 9.34878 7.03492 9.34878 7.22969C9.34878 7.42445 9.20998 7.5639 8.9874 7.5639H8.65319V6.86831Z" fill="#8393BA"/>
</g>
</g>
</svg>
