<svg width="99" height="27" viewBox="0 0 99 27" fill="none" xmlns="http://www.w3.org/2000/svg">
<path d="M0.338868 3.04092L8.51058 0.0230913C8.56567 0.00227291 8.62498 -0.0046132 8.68345 0.00302122C8.74191 0.0106556 8.7978 0.0325837 8.84634 0.0669345C8.89488 0.101285 8.93463 0.147039 8.9622 0.200293C8.98977 0.253547 9.00435 0.31272 9.00468 0.372765L9.01989 26.1574C9.01932 26.23 9.00344 26.3018 8.97328 26.3679C8.94311 26.434 8.89934 26.493 8.84482 26.5411C8.7903 26.5892 8.72626 26.6252 8.65688 26.6468C8.5875 26.6685 8.51434 26.6752 8.44217 26.6667C4.87449 26.246 2.37103 24.523 0.931793 21.4976C0.267921 20.0938 -0.0412115 18.0997 0.00439805 15.5151C0.080414 11.3545 0.085482 7.3865 0.0196016 3.61104C0.01749 3.48075 0.047095 3.35585 0.104307 3.25368C0.161519 3.15152 0.243499 3.07716 0.338868 3.04092Z" fill="#2E4276"/>
<path d="M11.1252 0.0394124L19.0688 2.96603C19.3324 3.06231 19.4768 3.24982 19.5021 3.52854C19.9886 8.5836 18.9624 12.8709 13.8769 15.0602C13.0256 15.425 12.1032 15.5973 11.11 15.5771C10.7958 15.572 10.6387 15.4124 10.6387 15.0982L10.6539 0.366281C10.654 0.309967 10.6678 0.254523 10.694 0.204666C10.7202 0.154809 10.758 0.112014 10.8043 0.0799201C10.8505 0.0478264 10.9039 0.0273837 10.9598 0.0203311C11.0156 0.0132786 11.0724 0.0198245 11.1252 0.0394124Z" fill="#2E4276"/>
<path d="M32.8953 16.0579L32.9181 22.9069C32.9181 23.4188 32.6597 23.6722 32.1428 23.6671L30.2196 23.6443C30.0246 23.6403 29.839 23.5601 29.7026 23.4208C29.5662 23.2815 29.4898 23.0943 29.4898 22.8993L29.4746 1.85054C29.4746 1.59208 29.6064 1.46032 29.8699 1.45526C32.2669 1.42485 34.6082 1.43245 36.8938 1.47806C41.9716 1.58448 45.9625 5.36247 44.4041 10.676C43.0282 15.3434 37.5247 15.7691 33.5339 15.465C33.1031 15.4295 32.8903 15.6272 32.8953 16.0579ZM32.9181 5.11162L32.8725 11.877C32.8715 11.9659 32.888 12.0541 32.9211 12.1365C32.9542 12.219 33.0032 12.2941 33.0653 12.3577C33.1274 12.4212 33.2014 12.4719 33.2831 12.5068C33.3648 12.5417 33.4526 12.5602 33.5415 12.5612L36.3769 12.5764C37.6465 12.5859 38.8675 12.1813 39.7712 11.4515C40.675 10.7216 41.1875 9.72631 41.1963 8.68437V8.42591C41.2006 7.90964 41.081 7.39743 40.8441 6.91856C40.6073 6.43969 40.258 6.00355 39.8161 5.63505C39.3742 5.26655 38.8483 4.97293 38.2687 4.77094C37.689 4.56896 37.0668 4.46258 36.4377 4.45788L33.6023 4.44268C33.5134 4.44168 33.4253 4.45818 33.3428 4.49126C33.2603 4.52433 33.1852 4.57333 33.1216 4.63545C33.0581 4.69757 33.0074 4.77159 32.9725 4.85329C32.9376 4.93499 32.9191 5.02277 32.9181 5.11162Z" fill="#2E4276"/>
<path d="M62.45 9.21695C62.5666 9.2279 62.6842 9.21376 62.7949 9.17548C62.9057 9.1372 63.0069 9.07567 63.0919 8.99503C63.1768 8.91438 63.2436 8.81648 63.2876 8.70791C63.3315 8.59934 63.3518 8.48262 63.3469 8.36557L63.2785 6.28274C63.2684 5.89759 63.4534 5.67461 63.8335 5.61379C64.6342 5.47697 65.4247 5.4947 66.2051 5.66701C66.3679 5.70165 66.5118 5.79638 66.6087 5.93272C66.7057 6.06905 66.7488 6.23721 66.7297 6.40436L66.5016 8.31996C66.4883 8.43579 66.5003 8.55312 66.5367 8.66387C66.5732 8.77461 66.6332 8.87613 66.7127 8.96141C66.7922 9.04669 66.8893 9.1137 66.9972 9.15782C67.1051 9.20194 67.2213 9.22211 67.3378 9.21695L69.9679 9.10292C70.6014 9.07759 70.9409 9.38165 70.9866 10.0151L71.055 11.0717C71.1006 11.69 70.8142 11.9915 70.196 11.9763L67.2542 11.9003C67.1734 11.8983 67.093 11.9124 67.0179 11.9417C66.9427 11.9711 66.8743 12.0151 66.8169 12.0712C66.7594 12.1273 66.7139 12.1942 66.6833 12.268C66.6526 12.3419 66.6374 12.421 66.6384 12.5008L66.646 19.2739C66.647 19.4785 66.6883 19.6809 66.7676 19.8696C66.8468 20.0583 66.9624 20.2295 67.1078 20.3735C67.2532 20.5175 67.4256 20.6315 67.615 20.7089C67.8045 20.7863 68.0073 20.8256 68.212 20.8246L70.2568 20.817C70.718 20.8119 70.9561 21.0425 70.9713 21.5087L71.0018 22.801C71.0077 23.0255 70.9305 23.2446 70.7849 23.4169C70.6393 23.5891 70.4352 23.7026 70.2112 23.736C61.819 24.9827 63.3926 17.9892 63.2861 12.8353C63.2842 12.7039 63.2559 12.5742 63.2029 12.4539C63.1499 12.3337 63.0733 12.2253 62.9775 12.1352C62.8818 12.0452 62.769 11.9753 62.6457 11.9297C62.5224 11.8841 62.3912 11.8638 62.2599 11.8699L60.7548 11.9459C60.4001 11.9611 60.1974 11.7939 60.1467 11.4442C60.0504 10.7702 60.0808 10.1114 60.2379 9.4678C60.3088 9.1688 60.4989 9.03451 60.808 9.06492L62.45 9.21695Z" fill="#2E4276"/>
<path d="M47.9855 18.7921L48.3656 19.3546C48.6271 19.7458 48.9662 20.0796 49.3622 20.3358C49.7582 20.592 50.2029 20.7651 50.6689 20.8445C52.9139 21.2246 55.0677 20.8394 57.1303 19.6891C57.6573 19.3951 57.9234 19.5522 57.9284 20.1604L57.9512 21.5819C57.9536 21.8865 57.867 22.1849 57.7021 22.4402C57.5373 22.6956 57.3015 22.8966 57.0238 23.0186C53.185 24.7061 47.5827 24.4249 45.2262 20.4644C42.7785 16.3368 44.4812 10.818 49.027 9.27488C54.3329 7.4733 59.8288 10.9776 59.0078 16.9677C58.9876 17.1231 58.9109 17.2658 58.792 17.3692C58.6731 17.4727 58.5202 17.5299 58.3617 17.5302L48.7077 17.4542C47.6232 17.4491 47.3825 17.8951 47.9855 18.7921ZM48.0616 14.9305H55.3591C55.3741 14.9305 55.3889 14.9275 55.4027 14.9218C55.4166 14.9161 55.4291 14.9077 55.4397 14.8971C55.4503 14.8865 55.4587 14.8739 55.4644 14.8601C55.4702 14.8462 55.4731 14.8314 55.4731 14.8164V14.7556C55.4731 13.9754 55.0895 13.2271 54.4066 12.6754C53.7238 12.1238 52.7976 11.8138 51.832 11.8138H51.5887C50.623 11.8138 49.6969 12.1238 49.014 12.6754C48.3312 13.2271 47.9475 13.9754 47.9475 14.7556V14.8164C47.9475 14.8467 47.9595 14.8757 47.9809 14.8971C48.0023 14.9185 48.0313 14.9305 48.0616 14.9305Z" fill="#2E4276"/>
<path d="M77.7911 10.5505C78.9263 9.24814 80.4188 8.68309 82.2685 8.85539C82.4676 8.87296 82.6542 8.96131 82.7948 9.10471C82.9354 9.2481 83.021 9.43722 83.0362 9.63836L83.1655 11.3107C83.206 11.8682 82.9476 12.1317 82.3901 12.1013C79.0454 11.9239 77.335 13.6773 77.259 17.3616C77.2236 19.3228 77.2286 21.2029 77.2742 23.002C77.2844 23.4124 77.0817 23.6202 76.6661 23.6253L74.5605 23.6633C74.0892 23.6684 73.8535 23.4352 73.8535 22.9639L73.8763 9.75238C73.8763 9.44325 74.0284 9.24814 74.3324 9.16706C75.9136 8.74137 76.9246 9.17466 77.3655 10.4669C77.4617 10.7355 77.6036 10.7634 77.7911 10.5505Z" fill="#2E4276"/>
<path d="M95.7621 10.0477C96.35 9.18614 97.2647 8.86941 98.5063 9.09746C98.6452 9.12247 98.7709 9.19561 98.8612 9.30403C98.9516 9.41246 99.0009 9.54924 99.0004 9.69038V22.8943C99.0001 23.072 98.9399 23.2444 98.8296 23.3837C98.7192 23.523 98.5652 23.6211 98.3923 23.6621C97.2723 23.9307 96.4285 23.657 95.861 22.8411C95.6633 22.5624 95.415 22.5067 95.116 22.6739C91.6598 24.6706 88.566 24.3944 85.8345 21.8453C83.0067 19.2 82.8546 14.0613 85.5456 11.2639C88.2822 8.42092 91.4774 8.06364 95.1312 10.1921C95.3846 10.3391 95.5949 10.2909 95.7621 10.0477ZM91.2789 21.0155C91.8408 21.0283 92.3999 20.9216 92.9243 20.7016C93.4486 20.4815 93.928 20.1524 94.335 19.7331C94.7421 19.3138 95.0688 18.8124 95.2965 18.2576C95.5242 17.7028 95.6485 17.1054 95.6622 16.4997C95.69 15.2762 95.2658 14.0927 94.4831 13.2094C93.7003 12.3261 92.623 11.8154 91.4883 11.7896C90.9264 11.7769 90.3673 11.8836 89.843 12.1036C89.3186 12.3237 88.8392 12.6527 88.4322 13.0721C88.0252 13.4914 87.6985 13.9928 87.4707 14.5476C87.243 15.1024 87.1187 15.6997 87.105 16.3055C87.0772 17.529 87.5014 18.7125 88.2842 19.5958C89.0669 20.4791 90.1442 20.9898 91.2789 21.0155Z" fill="#2E4276"/>
</svg>
