<svg width="527" height="500" viewBox="0 0 527 500" fill="none" xmlns="http://www.w3.org/2000/svg">
<path d="M268.745 48V141.913C266.084 141.913 263.442 142.053 260.833 142.328L243.637 49.8663C251.829 48.6354 260.213 48 268.745 48Z" fill="#0A37C4"/>
<path d="M260.831 142.329C249.713 143.508 239.135 147.157 229.751 153.015L190.848 67.1431C207.061 58.627 224.836 52.6886 243.635 49.8672L260.831 142.329Z" fill="#154EFF"/>
<path d="M229.752 153.013C225.016 155.97 220.584 159.487 216.536 163.535C214.462 165.609 212.524 167.787 210.729 170.057L146.713 100.649C159.413 87.186 174.319 75.8245 190.848 67.1406L229.752 153.013Z" fill="#4370FF"/>
<path d="M210.729 170.056C207.54 174.092 204.803 178.416 202.545 182.96L120.965 136.307C127.974 123.295 136.654 111.311 146.713 100.648L210.729 170.056Z" fill="#7697FF"/>
<path d="M209.639 260.009L142.949 326.703C116.837 297.131 101 258.283 101 215.739C101 187.005 108.225 159.955 120.965 136.312L202.546 182.965C197.554 193.024 194.913 204.181 194.913 215.739C194.913 231.92 200.084 247.305 209.639 260.009Z" fill="#76FE83"/>
<path d="M290.024 286.471V382.146C283.055 383.025 275.954 383.481 268.744 383.481C218.647 383.481 173.681 361.521 142.949 326.702L209.639 260.008C211.729 262.789 214.031 265.443 216.537 267.948C230.484 281.891 249.023 289.568 268.744 289.568C276.057 289.568 283.211 288.513 290.024 286.471Z" fill="#22AA30"/>
<path d="M436.483 215.742C436.483 301.179 372.615 371.689 290.023 382.147V286.472C301.581 283.012 312.175 276.721 320.947 267.95C334.894 254.003 342.571 235.468 342.571 215.742H436.483Z" fill="#0B6C15"/>
<path d="M436.484 215.736V215.74H342.571V215.736C342.571 196.018 334.895 177.48 320.948 163.537C307.005 149.59 288.462 141.913 268.744 141.913V48C361.386 48 436.484 123.098 436.484 215.736Z" fill="#003806"/>
<path d="M406.474 87V77.965H408.073L411.245 85.05L414.404 77.965H415.99V87H414.508V80.812L411.752 87H410.725L407.956 80.812V87H406.474ZM417.443 83.386C417.443 81.176 418.938 79.72 420.823 79.72C422.032 79.72 422.864 80.292 423.306 80.877V79.837H424.801V87H423.306V85.934C422.851 86.545 421.993 87.117 420.797 87.117C418.938 87.117 417.443 85.596 417.443 83.386ZM423.306 83.412C423.306 81.878 422.253 81.007 421.135 81.007C420.03 81.007 418.964 81.839 418.964 83.386C418.964 84.933 420.03 85.83 421.135 85.83C422.253 85.83 423.306 84.959 423.306 83.412ZM428.23 83.23V87H426.748V79.837H428.23V80.877C428.646 80.162 429.361 79.72 430.375 79.72V81.254H429.998C428.906 81.254 428.23 81.709 428.23 83.23ZM431.737 87V77.38H433.219V82.97L435.819 79.837H437.873L434.571 83.425L437.873 87H435.871L433.219 83.919V87H431.737ZM441.951 80.968C440.95 80.968 440.144 81.644 439.988 82.775H443.953C443.927 81.67 443.056 80.968 441.951 80.968ZM445.305 84.868C444.902 86.116 443.771 87.117 442.016 87.117C439.962 87.117 438.441 85.661 438.441 83.412C438.441 81.163 439.897 79.72 442.016 79.72C444.057 79.72 445.5 81.137 445.5 83.243C445.5 83.49 445.487 83.724 445.448 83.971H439.975C440.079 85.154 440.924 85.869 442.016 85.869C442.926 85.869 443.433 85.427 443.706 84.868H445.305ZM447.193 85.011V81.046H446.348V79.837H447.193V78.056H448.688V79.837H450.43V81.046H448.688V85.011C448.688 85.544 448.896 85.765 449.52 85.765H450.43V87H449.26C447.986 87 447.193 86.467 447.193 85.011ZM451.796 87V79.837H453.278V87H451.796ZM452.55 78.888C452.017 78.888 451.601 78.472 451.601 77.939C451.601 77.406 452.017 76.99 452.55 76.99C453.07 76.99 453.486 77.406 453.486 77.939C453.486 78.472 453.07 78.888 452.55 78.888ZM460.307 87V82.996C460.307 81.683 459.592 81.007 458.513 81.007C457.421 81.007 456.706 81.683 456.706 82.996V87H455.224V79.837H456.706V80.656C457.187 80.071 457.98 79.72 458.838 79.72C460.515 79.72 461.776 80.773 461.776 82.775V87H460.307ZM463.172 83.386C463.172 81.176 464.667 79.72 466.552 79.72C467.722 79.72 468.593 80.266 469.035 80.877V79.837H470.53V87.117C470.53 89.067 469.269 90.536 467.033 90.536C465.122 90.536 463.705 89.587 463.523 88.001H464.992C465.213 88.742 466.006 89.249 467.033 89.249C468.177 89.249 469.035 88.547 469.035 87.117V85.921C468.58 86.532 467.722 87.117 466.552 87.117C464.667 87.117 463.172 85.596 463.172 83.386ZM469.035 83.412C469.035 81.878 467.982 81.007 466.864 81.007C465.759 81.007 464.693 81.839 464.693 83.386C464.693 84.933 465.759 85.83 466.864 85.83C467.982 85.83 469.035 84.959 469.035 83.412ZM426.1 106.87V105.791C428.336 103.828 430.689 102.112 430.689 100.253C430.689 99.265 430.26 98.589 429.155 98.589C428.115 98.589 427.556 99.317 427.517 100.383H426.087C426.139 98.329 427.465 97.328 429.142 97.328C431.066 97.328 432.158 98.485 432.158 100.188C432.158 102.489 429.818 104.244 428.297 105.635H432.418V106.87H426.1ZM434.109 97.497H439.829V98.797H435.474V101.384C435.825 100.916 436.592 100.526 437.437 100.526C439.764 100.526 440.479 102.255 440.479 103.685C440.479 105.57 439.4 107 437.203 107C435.253 107 434.122 105.921 433.901 104.439H435.344C435.539 105.245 436.215 105.765 437.216 105.765C438.49 105.765 439.062 104.894 439.062 103.724C439.062 102.489 438.451 101.787 437.216 101.787C436.345 101.787 435.76 102.268 435.513 102.97H434.109V97.497ZM441.788 99.811C441.788 98.524 442.633 97.783 443.764 97.783C444.895 97.783 445.74 98.524 445.74 99.811C445.74 101.111 444.895 101.852 443.764 101.852C442.633 101.852 441.788 101.111 441.788 99.811ZM443.764 98.68C443.257 98.68 442.945 99.005 442.945 99.811C442.945 100.617 443.257 100.955 443.764 100.955C444.258 100.955 444.583 100.617 444.583 99.811C444.583 99.005 444.258 98.68 443.764 98.68ZM443.075 107L448.262 97.952H449.718L444.531 107H443.075ZM447.079 105.128C447.079 103.828 447.924 103.1 449.055 103.1C450.173 103.1 451.018 103.828 451.018 105.128C451.018 106.428 450.173 107.169 449.055 107.169C447.924 107.169 447.079 106.428 447.079 105.128ZM449.042 103.997C448.548 103.997 448.223 104.322 448.223 105.128C448.223 105.934 448.548 106.259 449.042 106.259C449.536 106.259 449.861 105.934 449.861 105.128C449.861 104.322 449.536 103.997 449.042 103.997Z" fill="white"/>
<path d="M422.556 327V317.965H424.038V327H422.556ZM434.719 322.463C434.719 325.18 432.678 327.091 430.104 327.091C427.556 327.091 425.489 325.18 425.489 322.463C425.489 319.759 427.556 317.848 430.104 317.848C432.678 317.848 434.719 319.759 434.719 322.463ZM427.01 322.463C427.01 324.504 428.31 325.804 430.104 325.804C431.898 325.804 433.198 324.504 433.198 322.463C433.198 320.422 431.898 319.148 430.104 319.148C428.31 319.148 427.01 320.422 427.01 322.463ZM439.129 317.965C442.028 317.965 443.926 319.72 443.926 322.515C443.926 325.297 442.028 327 439.129 327H436.178V317.965H439.129ZM437.66 325.791H439.129C441.261 325.791 442.405 324.569 442.405 322.515C442.405 320.448 441.261 319.174 439.129 319.174H437.66V325.791ZM420.892 346.87V345.791C423.128 343.828 425.481 342.112 425.481 340.253C425.481 339.265 425.052 338.589 423.947 338.589C422.907 338.589 422.348 339.317 422.309 340.383H420.879C420.931 338.329 422.257 337.328 423.934 337.328C425.858 337.328 426.95 338.485 426.95 340.188C426.95 342.489 424.61 344.244 423.089 345.635H427.21V346.87H420.892ZM428.485 339.863C428.589 338.225 429.863 337.302 431.592 337.302C433.477 337.302 434.504 338.394 434.504 339.772C434.504 340.903 433.789 341.67 433.048 341.917V341.969C434.036 342.268 434.673 343.087 434.673 344.4C434.673 345.908 433.607 347.052 431.631 347.052C429.837 347.052 428.446 346.116 428.355 344.257H429.785C429.85 345.141 430.5 345.817 431.618 345.817C432.723 345.817 433.269 345.141 433.269 344.257C433.269 343.009 432.463 342.58 430.916 342.58H430.578V341.358H430.929C432.268 341.345 433.087 340.955 433.087 339.941C433.087 339.122 432.554 338.576 431.54 338.576C430.5 338.576 430.019 339.2 429.928 339.863H428.485ZM435.996 339.811C435.996 338.524 436.841 337.783 437.972 337.783C439.103 337.783 439.948 338.524 439.948 339.811C439.948 341.111 439.103 341.852 437.972 341.852C436.841 341.852 435.996 341.111 435.996 339.811ZM437.972 338.68C437.465 338.68 437.153 339.005 437.153 339.811C437.153 340.617 437.465 340.955 437.972 340.955C438.466 340.955 438.791 340.617 438.791 339.811C438.791 339.005 438.466 338.68 437.972 338.68ZM437.283 347L442.47 337.952H443.926L438.739 347H437.283ZM441.287 345.128C441.287 343.828 442.132 343.1 443.263 343.1C444.381 343.1 445.226 343.828 445.226 345.128C445.226 346.428 444.381 347.169 443.263 347.169C442.132 347.169 441.287 346.428 441.287 345.128ZM443.25 343.997C442.756 343.997 442.431 344.322 442.431 345.128C442.431 345.934 442.756 346.259 443.25 346.259C443.744 346.259 444.069 345.934 444.069 345.128C444.069 344.322 443.744 343.997 443.25 343.997Z" fill="white"/>
<path d="M176.012 390.669C176.012 389.759 175.492 389.174 174.335 389.174H172.697V392.203H174.335C175.492 392.203 176.012 391.566 176.012 390.669ZM171.215 387.965H174.335C176.48 387.965 177.533 389.2 177.533 390.669C177.533 391.735 176.961 392.879 175.44 393.256L177.676 397H175.908L173.828 393.386H172.697V397H171.215V387.965ZM182.445 390.968C181.444 390.968 180.638 391.644 180.482 392.775H184.447C184.421 391.67 183.55 390.968 182.445 390.968ZM185.799 394.868C185.396 396.116 184.265 397.117 182.51 397.117C180.456 397.117 178.935 395.661 178.935 393.412C178.935 391.163 180.391 389.72 182.51 389.72C184.551 389.72 185.994 391.137 185.994 393.243C185.994 393.49 185.981 393.724 185.942 393.971H180.469C180.573 395.154 181.418 395.869 182.51 395.869C183.42 395.869 183.927 395.427 184.2 394.868H185.799ZM188.844 397L186.608 389.837H188.116L189.611 395.596L191.132 389.837H192.679L194.135 395.57L195.617 389.837H197.073L194.85 397H193.29L191.847 391.709L190.404 397H188.844ZM197.686 393.386C197.686 391.176 199.181 389.72 201.066 389.72C202.275 389.72 203.107 390.292 203.549 390.877V389.837H205.044V397H203.549V395.934C203.094 396.545 202.236 397.117 201.04 397.117C199.181 397.117 197.686 395.596 197.686 393.386ZM203.549 393.412C203.549 391.878 202.496 391.007 201.378 391.007C200.273 391.007 199.207 391.839 199.207 393.386C199.207 394.933 200.273 395.83 201.378 395.83C202.496 395.83 203.549 394.959 203.549 393.412ZM208.473 393.23V397H206.991V389.837H208.473V390.877C208.889 390.162 209.604 389.72 210.618 389.72V391.254H210.241C209.149 391.254 208.473 391.709 208.473 393.23ZM211.486 393.386C211.486 391.176 212.981 389.72 214.879 389.72C215.815 389.72 216.803 390.162 217.349 390.838V387.38H218.844V397H217.349V395.921C216.894 396.571 216.036 397.117 214.866 397.117C212.981 397.117 211.486 395.596 211.486 393.386ZM217.349 393.412C217.349 391.878 216.296 391.007 215.178 391.007C214.073 391.007 213.007 391.839 213.007 393.386C213.007 394.933 214.073 395.83 215.178 395.83C216.296 395.83 217.349 394.959 217.349 393.412ZM226.133 394.998C226.133 396.207 225.08 397.117 223.39 397.117C221.674 397.117 220.465 396.103 220.4 394.803H221.934C221.986 395.388 222.545 395.869 223.364 395.869C224.222 395.869 224.677 395.505 224.677 395.011C224.677 393.607 220.517 394.413 220.517 391.787C220.517 390.643 221.583 389.72 223.273 389.72C224.898 389.72 225.964 390.591 226.042 392.021H224.56C224.508 391.397 224.027 390.968 223.221 390.968C222.428 390.968 222.012 391.293 222.012 391.774C222.012 393.217 226.055 392.411 226.133 394.998ZM188.71 417V408.875H187.501V407.523H190.205V417H188.71ZM192.63 407.497H198.35V408.797H193.995V411.384C194.346 410.916 195.113 410.526 195.958 410.526C198.285 410.526 199 412.255 199 413.685C199 415.57 197.921 417 195.724 417C193.774 417 192.643 415.921 192.422 414.439H193.865C194.06 415.245 194.736 415.765 195.737 415.765C197.011 415.765 197.583 414.894 197.583 413.724C197.583 412.489 196.972 411.787 195.737 411.787C194.866 411.787 194.281 412.268 194.034 412.97H192.63V407.497ZM200.309 409.811C200.309 408.524 201.154 407.783 202.285 407.783C203.416 407.783 204.261 408.524 204.261 409.811C204.261 411.111 203.416 411.852 202.285 411.852C201.154 411.852 200.309 411.111 200.309 409.811ZM202.285 408.68C201.778 408.68 201.466 409.005 201.466 409.811C201.466 410.617 201.778 410.955 202.285 410.955C202.779 410.955 203.104 410.617 203.104 409.811C203.104 409.005 202.779 408.68 202.285 408.68ZM201.596 417L206.783 407.952H208.239L203.052 417H201.596ZM205.6 415.128C205.6 413.828 206.445 413.1 207.576 413.1C208.694 413.1 209.539 413.828 209.539 415.128C209.539 416.428 208.694 417.169 207.576 417.169C206.445 417.169 205.6 416.428 205.6 415.128ZM207.563 413.997C207.069 413.997 206.744 414.322 206.744 415.128C206.744 415.934 207.069 416.259 207.563 416.259C208.057 416.259 208.382 415.934 208.382 415.128C208.382 414.322 208.057 413.997 207.563 413.997Z" fill="white"/>
<path d="M4.15371 237.965H5.63571V245.804H8.69071V247H4.15371V237.965ZM9.93008 247V239.837H11.4121V247H9.93008ZM10.6841 238.888C10.1511 238.888 9.73508 238.472 9.73508 237.939C9.73508 237.406 10.1511 236.99 10.6841 236.99C11.2041 236.99 11.6201 237.406 11.6201 237.939C11.6201 238.472 11.2041 238.888 10.6841 238.888ZM12.8638 243.386C12.8638 241.176 14.3588 239.72 16.2568 239.72C17.4398 239.72 18.3108 240.292 18.7268 240.877V239.837H20.2218V250.406H18.7268V245.96C18.3108 246.519 17.4138 247.117 16.2048 247.117C14.3588 247.117 12.8638 245.596 12.8638 243.386ZM18.7268 243.412C18.7268 241.878 17.6738 241.007 16.5558 241.007C15.4508 241.007 14.3848 241.839 14.3848 243.386C14.3848 244.933 15.4508 245.83 16.5558 245.83C17.6738 245.83 18.7268 244.959 18.7268 243.412ZM28.6554 239.837V247H27.1734V246.142C26.7054 246.753 25.8994 247.104 25.0544 247.104C23.3774 247.104 22.1034 246.051 22.1034 244.049V239.837H23.5724V243.828C23.5724 245.141 24.2874 245.817 25.3664 245.817C26.4584 245.817 27.1734 245.141 27.1734 243.828V239.837H28.6554ZM30.6107 247V239.837H32.0927V247H30.6107ZM31.3647 238.888C30.8317 238.888 30.4157 238.472 30.4157 237.939C30.4157 237.406 30.8317 236.99 31.3647 236.99C31.8847 236.99 32.3007 237.406 32.3007 237.939C32.3007 238.472 31.8847 238.888 31.3647 238.888ZM33.5445 243.386C33.5445 241.176 35.0395 239.72 36.9375 239.72C37.8735 239.72 38.8615 240.162 39.4075 240.838V237.38H40.9025V247H39.4075V245.921C38.9525 246.571 38.0945 247.117 36.9245 247.117C35.0395 247.117 33.5445 245.596 33.5445 243.386ZM39.4075 243.412C39.4075 241.878 38.3545 241.007 37.2365 241.007C36.1315 241.007 35.0655 241.839 35.0655 243.386C35.0655 244.933 36.1315 245.83 37.2365 245.83C38.3545 245.83 39.4075 244.959 39.4075 243.412ZM42.849 247V239.837H44.331V247H42.849ZM43.603 238.888C43.07 238.888 42.654 238.472 42.654 237.939C42.654 237.406 43.07 236.99 43.603 236.99C44.123 236.99 44.539 237.406 44.539 237.939C44.539 238.472 44.123 238.888 43.603 238.888ZM46.5108 245.011V241.046H45.6658V239.837H46.5108V238.056H48.0058V239.837H49.7478V241.046H48.0058V245.011C48.0058 245.544 48.2138 245.765 48.8378 245.765H49.7478V247H48.5778C47.3038 247 46.5108 246.467 46.5108 245.011ZM53.9347 245.297L56.0277 239.837H57.5617L53.1677 250.367H51.6337L53.0897 246.883L50.2687 239.837H51.9197L53.9347 245.297ZM63.539 242.125H65.177C66.334 242.125 66.854 241.566 66.854 240.656C66.854 239.72 66.334 239.174 65.177 239.174H63.539V242.125ZM68.375 240.656C68.375 241.943 67.53 243.334 65.177 243.334H63.539V247H62.057V237.965H65.177C67.322 237.965 68.375 239.187 68.375 240.656ZM76.6135 243.412C76.6135 245.661 74.9495 247.117 72.8955 247.117C70.8545 247.117 69.3075 245.661 69.3075 243.412C69.3075 241.163 70.9195 239.72 72.9605 239.72C75.0015 239.72 76.6135 241.163 76.6135 243.412ZM70.8155 243.412C70.8155 245.037 71.7775 245.83 72.8955 245.83C74.0005 245.83 75.0925 245.037 75.0925 243.412C75.0925 241.787 74.0395 241.007 72.9345 241.007C71.8165 241.007 70.8155 241.787 70.8155 243.412ZM84.9035 243.412C84.9035 245.661 83.2395 247.117 81.1855 247.117C79.1445 247.117 77.5975 245.661 77.5975 243.412C77.5975 241.163 79.2095 239.72 81.2505 239.72C83.2915 239.72 84.9035 241.163 84.9035 243.412ZM79.1055 243.412C79.1055 245.037 80.0675 245.83 81.1855 245.83C82.2905 245.83 83.3825 245.037 83.3825 243.412C83.3825 241.787 82.3295 241.007 81.2245 241.007C80.1065 241.007 79.1055 241.787 79.1055 243.412ZM86.3686 247V237.38H87.8506V247H86.3686ZM36.6094 267V258.875H35.4004V257.523H38.1044V267H36.6094ZM40.0234 266.87V265.791C42.2594 263.828 44.6124 262.112 44.6124 260.253C44.6124 259.265 44.1834 258.589 43.0784 258.589C42.0384 258.589 41.4794 259.317 41.4404 260.383H40.0104C40.0624 258.329 41.3884 257.328 43.0654 257.328C44.9894 257.328 46.0814 258.485 46.0814 260.188C46.0814 262.489 43.7414 264.244 42.2204 265.635H46.3414V266.87H40.0234ZM47.4093 259.811C47.4093 258.524 48.2543 257.783 49.3853 257.783C50.5163 257.783 51.3613 258.524 51.3613 259.811C51.3613 261.111 50.5163 261.852 49.3853 261.852C48.2543 261.852 47.4093 261.111 47.4093 259.811ZM49.3853 258.68C48.8783 258.68 48.5663 259.005 48.5663 259.811C48.5663 260.617 48.8783 260.955 49.3853 260.955C49.8793 260.955 50.2043 260.617 50.2043 259.811C50.2043 259.005 49.8793 258.68 49.3853 258.68ZM48.6963 267L53.8833 257.952H55.3393L50.1523 267H48.6963ZM52.7003 265.128C52.7003 263.828 53.5453 263.1 54.6763 263.1C55.7943 263.1 56.6393 263.828 56.6393 265.128C56.6393 266.428 55.7943 267.169 54.6763 267.169C53.5453 267.169 52.7003 266.428 52.7003 265.128ZM54.6633 263.997C54.1693 263.997 53.8443 264.322 53.8443 265.128C53.8443 265.934 54.1693 266.259 54.6633 266.259C55.1573 266.259 55.4823 265.934 55.4823 265.128C55.4823 264.322 55.1573 263.997 54.6633 263.997Z" fill="white"/>
<path d="M90.2204 107.439C90.2204 108.791 89.1154 110.091 87.1004 110.091C85.2934 110.091 83.9024 109.103 83.9024 107.504H85.4884C85.5534 108.245 86.0734 108.843 87.1004 108.843C88.1404 108.843 88.7254 108.284 88.7254 107.517C88.7254 105.333 83.9284 106.75 83.9284 103.422C83.9284 101.836 85.1894 100.848 87.0354 100.848C88.7644 100.848 89.9864 101.758 90.1164 103.305H88.4784C88.4264 102.694 87.8934 102.135 86.9574 102.109C86.0994 102.083 85.4364 102.499 85.4364 103.37C85.4364 105.411 90.2204 104.137 90.2204 107.439ZM94.9851 103.968C93.9841 103.968 93.1781 104.644 93.0221 105.775H96.9871C96.9611 104.67 96.0901 103.968 94.9851 103.968ZM98.3391 107.868C97.9361 109.116 96.8051 110.117 95.0501 110.117C92.9961 110.117 91.4751 108.661 91.4751 106.412C91.4751 104.163 92.9311 102.72 95.0501 102.72C97.0911 102.72 98.5341 104.137 98.5341 106.243C98.5341 106.49 98.5211 106.724 98.4821 106.971H93.0091C93.1131 108.154 93.9581 108.869 95.0501 108.869C95.9601 108.869 96.4671 108.427 96.7401 107.868H98.3391ZM103.009 103.968C102.008 103.968 101.202 104.644 101.046 105.775H105.011C104.985 104.67 104.114 103.968 103.009 103.968ZM106.363 107.868C105.96 109.116 104.829 110.117 103.074 110.117C101.02 110.117 99.4986 108.661 99.4986 106.412C99.4986 104.163 100.955 102.72 103.074 102.72C105.115 102.72 106.558 104.137 106.558 106.243C106.558 106.49 106.545 106.724 106.506 106.971H101.033C101.137 108.154 101.982 108.869 103.074 108.869C103.984 108.869 104.491 108.427 104.764 107.868H106.363ZM107.522 106.386C107.522 104.176 109.017 102.72 110.915 102.72C111.851 102.72 112.839 103.162 113.385 103.838V100.38H114.88V110H113.385V108.921C112.93 109.571 112.072 110.117 110.902 110.117C109.017 110.117 107.522 108.596 107.522 106.386ZM113.385 106.412C113.385 104.878 112.332 104.007 111.214 104.007C110.109 104.007 109.043 104.839 109.043 106.386C109.043 107.933 110.109 108.83 111.214 108.83C112.332 108.83 113.385 107.959 113.385 106.412ZM91.358 120.497H97.078V121.797H92.723V124.384C93.074 123.916 93.841 123.526 94.686 123.526C97.013 123.526 97.728 125.255 97.728 126.685C97.728 128.57 96.649 130 94.452 130C92.502 130 91.371 128.921 91.15 127.439H92.593C92.788 128.245 93.464 128.765 94.465 128.765C95.739 128.765 96.311 127.894 96.311 126.724C96.311 125.489 95.7 124.787 94.465 124.787C93.594 124.787 93.009 125.268 92.762 125.97H91.358V120.497ZM99.0367 122.811C99.0367 121.524 99.8817 120.783 101.013 120.783C102.144 120.783 102.989 121.524 102.989 122.811C102.989 124.111 102.144 124.852 101.013 124.852C99.8817 124.852 99.0367 124.111 99.0367 122.811ZM101.013 121.68C100.506 121.68 100.194 122.005 100.194 122.811C100.194 123.617 100.506 123.955 101.013 123.955C101.507 123.955 101.832 123.617 101.832 122.811C101.832 122.005 101.507 121.68 101.013 121.68ZM100.324 130L105.511 120.952H106.967L101.78 130H100.324ZM104.328 128.128C104.328 126.828 105.173 126.1 106.304 126.1C107.422 126.1 108.267 126.828 108.267 128.128C108.267 129.428 107.422 130.169 106.304 130.169C105.173 130.169 104.328 129.428 104.328 128.128ZM106.291 126.997C105.797 126.997 105.472 127.322 105.472 128.128C105.472 128.934 105.797 129.259 106.291 129.259C106.785 129.259 107.11 128.934 107.11 128.128C107.11 127.322 106.785 126.997 106.291 126.997Z" fill="white"/>
<path d="M113.092 63L112.442 61.154H108.659L108.009 63H106.462L109.699 53.952H111.415L114.652 63H113.092ZM112.026 59.945L110.557 55.746L109.075 59.945H112.026ZM115.565 59.386C115.565 57.176 117.06 55.72 118.958 55.72C119.894 55.72 120.882 56.162 121.428 56.838V53.38H122.923V63H121.428V61.921C120.973 62.571 120.115 63.117 118.945 63.117C117.06 63.117 115.565 61.596 115.565 59.386ZM121.428 59.412C121.428 57.878 120.375 57.007 119.257 57.007C118.152 57.007 117.086 57.839 117.086 59.386C117.086 60.933 118.152 61.83 119.257 61.83C120.375 61.83 121.428 60.959 121.428 59.412ZM124.025 55.837H125.611L127.639 61.674L129.667 55.837H131.24L128.51 63H126.742L124.025 55.837ZM132.36 63V55.837H133.842V63H132.36ZM133.114 54.888C132.581 54.888 132.165 54.472 132.165 53.939C132.165 53.406 132.581 52.99 133.114 52.99C133.634 52.99 134.05 53.406 134.05 53.939C134.05 54.472 133.634 54.888 133.114 54.888ZM141.131 60.998C141.131 62.207 140.078 63.117 138.388 63.117C136.672 63.117 135.463 62.103 135.398 60.803H136.932C136.984 61.388 137.543 61.869 138.362 61.869C139.22 61.869 139.675 61.505 139.675 61.011C139.675 59.607 135.515 60.413 135.515 57.787C135.515 56.643 136.581 55.72 138.271 55.72C139.896 55.72 140.962 56.591 141.04 58.021H139.558C139.506 57.397 139.025 56.968 138.219 56.968C137.426 56.968 137.01 57.293 137.01 57.774C137.01 59.217 141.053 58.411 141.131 60.998ZM149.557 59.412C149.557 61.661 147.893 63.117 145.839 63.117C143.798 63.117 142.251 61.661 142.251 59.412C142.251 57.163 143.863 55.72 145.904 55.72C147.945 55.72 149.557 57.163 149.557 59.412ZM143.759 59.412C143.759 61.037 144.721 61.83 145.839 61.83C146.944 61.83 148.036 61.037 148.036 59.412C148.036 57.787 146.983 57.007 145.878 57.007C144.76 57.007 143.759 57.787 143.759 59.412ZM152.504 59.23V63H151.022V55.837H152.504V56.877C152.92 56.162 153.635 55.72 154.649 55.72V57.254H154.272C153.18 57.254 152.504 57.709 152.504 59.23ZM161.354 60.998C161.354 62.207 160.301 63.117 158.611 63.117C156.895 63.117 155.686 62.103 155.621 60.803H157.155C157.207 61.388 157.766 61.869 158.585 61.869C159.443 61.869 159.898 61.505 159.898 61.011C159.898 59.607 155.738 60.413 155.738 57.787C155.738 56.643 156.804 55.72 158.494 55.72C160.119 55.72 161.185 56.591 161.263 58.021H159.781C159.729 57.397 159.248 56.968 158.442 56.968C157.649 56.968 157.233 57.293 157.233 57.774C157.233 59.217 161.276 58.411 161.354 60.998ZM127.073 78.047C126.267 77.644 125.721 76.968 125.721 75.915C125.721 74.537 126.748 73.354 128.841 73.354C130.934 73.354 131.961 74.55 131.961 75.915C131.961 76.929 131.376 77.67 130.609 78.047C131.571 78.411 132.208 79.256 132.208 80.387C132.208 82.116 130.804 83.234 128.841 83.234C126.891 83.234 125.487 82.116 125.487 80.387C125.487 79.243 126.124 78.398 127.073 78.047ZM128.841 77.579C129.829 77.579 130.544 76.955 130.544 76.097C130.544 75.122 129.881 74.589 128.841 74.589C127.827 74.589 127.151 75.109 127.151 76.11C127.151 76.968 127.853 77.579 128.841 77.579ZM128.841 78.697C127.749 78.697 126.904 79.23 126.904 80.335C126.904 81.297 127.632 81.999 128.841 81.999C130.037 81.999 130.752 81.284 130.752 80.335C130.752 79.269 129.959 78.697 128.841 78.697ZM133.53 75.811C133.53 74.524 134.375 73.783 135.506 73.783C136.637 73.783 137.482 74.524 137.482 75.811C137.482 77.111 136.637 77.852 135.506 77.852C134.375 77.852 133.53 77.111 133.53 75.811ZM135.506 74.68C134.999 74.68 134.687 75.005 134.687 75.811C134.687 76.617 134.999 76.955 135.506 76.955C136 76.955 136.325 76.617 136.325 75.811C136.325 75.005 136 74.68 135.506 74.68ZM134.817 83L140.004 73.952H141.46L136.273 83H134.817ZM138.821 81.128C138.821 79.828 139.666 79.1 140.797 79.1C141.915 79.1 142.76 79.828 142.76 81.128C142.76 82.428 141.915 83.169 140.797 83.169C139.666 83.169 138.821 82.428 138.821 81.128ZM140.784 79.997C140.29 79.997 139.965 80.322 139.965 81.128C139.965 81.934 140.29 82.259 140.784 82.259C141.278 82.259 141.603 81.934 141.603 81.128C141.603 80.322 141.278 79.997 140.784 79.997Z" fill="white"/>
<path d="M233.165 15V5.965H238.482V7.174H234.647V9.839H237.637V11.048H234.647V15H233.165ZM246.68 11.412C246.68 13.661 245.016 15.117 242.962 15.117C240.921 15.117 239.374 13.661 239.374 11.412C239.374 9.163 240.986 7.72 243.027 7.72C245.068 7.72 246.68 9.163 246.68 11.412ZM240.882 11.412C240.882 13.037 241.844 13.83 242.962 13.83C244.067 13.83 245.159 13.037 245.159 11.412C245.159 9.787 244.106 9.007 243.001 9.007C241.883 9.007 240.882 9.787 240.882 11.412ZM254.632 7.837V15H253.15V14.142C252.682 14.753 251.876 15.104 251.031 15.104C249.354 15.104 248.08 14.051 248.08 12.049V7.837H249.549V11.828C249.549 13.141 250.264 13.817 251.343 13.817C252.435 13.817 253.15 13.141 253.15 11.828V7.837H254.632ZM261.671 15V10.996C261.671 9.683 260.956 9.007 259.877 9.007C258.785 9.007 258.07 9.683 258.07 10.996V15H256.588V7.837H258.07V8.656C258.551 8.071 259.344 7.72 260.202 7.72C261.879 7.72 263.14 8.773 263.14 10.775V15H261.671ZM264.536 11.386C264.536 9.176 266.031 7.72 267.929 7.72C268.865 7.72 269.853 8.162 270.399 8.838V5.38H271.894V15H270.399V13.921C269.944 14.571 269.086 15.117 267.916 15.117C266.031 15.117 264.536 13.596 264.536 11.386ZM270.399 11.412C270.399 9.878 269.346 9.007 268.228 9.007C267.123 9.007 266.057 9.839 266.057 11.386C266.057 12.933 267.123 13.83 268.228 13.83C269.346 13.83 270.399 12.959 270.399 11.412ZM279.184 12.998C279.184 14.207 278.131 15.117 276.441 15.117C274.725 15.117 273.516 14.103 273.451 12.803H274.985C275.037 13.388 275.596 13.869 276.415 13.869C277.273 13.869 277.728 13.505 277.728 13.011C277.728 11.607 273.568 12.413 273.568 9.787C273.568 8.643 274.634 7.72 276.324 7.72C277.949 7.72 279.015 8.591 279.093 10.021H277.611C277.559 9.397 277.078 8.968 276.272 8.968C275.479 8.968 275.063 9.293 275.063 9.774C275.063 11.217 279.106 10.411 279.184 12.998ZM247.751 34.87V33.791C249.987 31.828 252.34 30.112 252.34 28.253C252.34 27.265 251.911 26.589 250.806 26.589C249.766 26.589 249.207 27.317 249.168 28.383H247.738C247.79 26.329 249.116 25.328 250.793 25.328C252.717 25.328 253.809 26.485 253.809 28.188C253.809 30.489 251.469 32.244 249.948 33.635H254.069V34.87H247.751ZM255.137 27.811C255.137 26.524 255.982 25.783 257.113 25.783C258.244 25.783 259.089 26.524 259.089 27.811C259.089 29.111 258.244 29.852 257.113 29.852C255.982 29.852 255.137 29.111 255.137 27.811ZM257.113 26.68C256.606 26.68 256.294 27.005 256.294 27.811C256.294 28.617 256.606 28.955 257.113 28.955C257.607 28.955 257.932 28.617 257.932 27.811C257.932 27.005 257.607 26.68 257.113 26.68ZM256.424 35L261.611 25.952H263.067L257.88 35H256.424ZM260.428 33.128C260.428 31.828 261.273 31.1 262.404 31.1C263.522 31.1 264.367 31.828 264.367 33.128C264.367 34.428 263.522 35.169 262.404 35.169C261.273 35.169 260.428 34.428 260.428 33.128ZM262.391 31.997C261.897 31.997 261.572 32.322 261.572 33.128C261.572 33.934 261.897 34.259 262.391 34.259C262.885 34.259 263.21 33.934 263.21 33.128C263.21 32.322 262.885 31.997 262.391 31.997Z" fill="white"/>
<path d="M153.551 25.463C153.551 22.759 155.618 20.848 158.166 20.848C160.051 20.848 161.676 21.797 162.365 23.565H160.584C160.103 22.603 159.245 22.148 158.166 22.148C156.372 22.148 155.072 23.422 155.072 25.463C155.072 27.504 156.372 28.791 158.166 28.791C159.245 28.791 160.103 28.336 160.584 27.374H162.365C161.676 29.142 160.051 30.078 158.166 30.078C155.618 30.078 153.551 28.18 153.551 25.463ZM170.925 26.412C170.925 28.661 169.261 30.117 167.207 30.117C165.166 30.117 163.619 28.661 163.619 26.412C163.619 24.163 165.231 22.72 167.272 22.72C169.313 22.72 170.925 24.163 170.925 26.412ZM165.127 26.412C165.127 28.037 166.089 28.83 167.207 28.83C168.312 28.83 169.404 28.037 169.404 26.412C169.404 24.787 168.351 24.007 167.246 24.007C166.128 24.007 165.127 24.787 165.127 26.412ZM182.543 30V25.996C182.543 24.683 181.828 24.007 180.749 24.007C179.657 24.007 178.942 24.683 178.942 25.996V30H177.473V25.996C177.473 24.683 176.758 24.007 175.679 24.007C174.587 24.007 173.872 24.683 173.872 25.996V30H172.39V22.837H173.872V23.656C174.353 23.071 175.133 22.72 175.991 22.72C177.122 22.72 178.071 23.201 178.565 24.137C179.007 23.266 180.021 22.72 181.061 22.72C182.738 22.72 184.012 23.773 184.012 25.775V30H182.543ZM187.38 23.89C187.835 23.292 188.706 22.72 189.876 22.72C191.761 22.72 193.243 24.176 193.243 26.386C193.243 28.596 191.761 30.117 189.876 30.117C188.693 30.117 187.848 29.519 187.38 28.96V33.406H185.898V22.837H187.38V23.89ZM191.735 26.386C191.735 24.839 190.669 24.007 189.551 24.007C188.446 24.007 187.38 24.878 187.38 26.412C187.38 27.959 188.446 28.83 189.551 28.83C190.669 28.83 191.735 27.933 191.735 26.386ZM194.214 26.386C194.214 24.176 195.709 22.72 197.594 22.72C198.803 22.72 199.635 23.292 200.077 23.877V22.837H201.572V30H200.077V28.934C199.622 29.545 198.764 30.117 197.568 30.117C195.709 30.117 194.214 28.596 194.214 26.386ZM200.077 26.412C200.077 24.878 199.024 24.007 197.906 24.007C196.801 24.007 195.735 24.839 195.735 26.386C195.735 27.933 196.801 28.83 197.906 28.83C199.024 28.83 200.077 27.959 200.077 26.412ZM208.602 30V25.996C208.602 24.683 207.887 24.007 206.808 24.007C205.716 24.007 205.001 24.683 205.001 25.996V30H203.519V22.837H205.001V23.656C205.482 23.071 206.275 22.72 207.133 22.72C208.81 22.72 210.071 23.773 210.071 25.775V30H208.602ZM214.782 28.297L216.875 22.837H218.409L214.015 33.367H212.481L213.937 29.883L211.116 22.837H212.767L214.782 28.297ZM177.697 50V41.875H176.488V40.523H179.192V50H177.697ZM181.228 45.138C181.228 42.434 181.956 40.354 184.608 40.354C187.26 40.354 187.988 42.434 187.988 45.138C187.988 47.894 187.26 49.974 184.608 49.974C181.956 49.974 181.228 47.894 181.228 45.138ZM186.532 45.138C186.532 43.37 186.337 41.706 184.608 41.706C182.879 41.706 182.684 43.37 182.684 45.138C182.684 46.997 182.879 48.622 184.608 48.622C186.337 48.622 186.532 46.997 186.532 45.138ZM189.322 42.811C189.322 41.524 190.167 40.783 191.298 40.783C192.429 40.783 193.274 41.524 193.274 42.811C193.274 44.111 192.429 44.852 191.298 44.852C190.167 44.852 189.322 44.111 189.322 42.811ZM191.298 41.68C190.791 41.68 190.479 42.005 190.479 42.811C190.479 43.617 190.791 43.955 191.298 43.955C191.792 43.955 192.117 43.617 192.117 42.811C192.117 42.005 191.792 41.68 191.298 41.68ZM190.609 50L195.796 40.952H197.252L192.065 50H190.609ZM194.613 48.128C194.613 46.828 195.458 46.1 196.589 46.1C197.707 46.1 198.552 46.828 198.552 48.128C198.552 49.428 197.707 50.169 196.589 50.169C195.458 50.169 194.613 49.428 194.613 48.128ZM196.576 46.997C196.082 46.997 195.757 47.322 195.757 48.128C195.757 48.934 196.082 49.259 196.576 49.259C197.07 49.259 197.395 48.934 197.395 48.128C197.395 47.322 197.07 46.997 196.576 46.997Z" fill="white"/>
<circle cx="25.5" cy="468.5" r="8.5" fill="#22AA30"/>
<path d="M54.516 455.812C54.516 453.304 56.352 451.528 58.692 451.528C60.504 451.528 61.944 452.44 62.568 454.06H61.26C60.804 453.052 59.916 452.488 58.692 452.488C56.94 452.488 55.632 453.76 55.632 455.812C55.632 457.852 56.94 459.124 58.692 459.124C59.916 459.124 60.804 458.56 61.26 457.564H62.568C61.944 459.172 60.504 460.072 58.692 460.072C56.352 460.072 54.516 458.32 54.516 455.812ZM70.4335 456.7C70.4335 458.788 68.9335 460.108 67.0615 460.108C65.2015 460.108 63.7855 458.788 63.7855 456.7C63.7855 454.624 65.2495 453.316 67.1095 453.316C68.9815 453.316 70.4335 454.624 70.4335 456.7ZM64.9015 456.7C64.9015 458.368 65.9215 459.148 67.0615 459.148C68.2015 459.148 69.3175 458.368 69.3175 456.7C69.3175 455.044 68.2255 454.264 67.0975 454.264C65.9455 454.264 64.9015 455.044 64.9015 456.7ZM81.3613 460V456.28C81.3613 454.936 80.6413 454.252 79.5613 454.252C78.4573 454.252 77.7013 454.96 77.7013 456.376V460H76.6213V456.28C76.6213 454.936 75.9013 454.252 74.8213 454.252C73.7173 454.252 72.9613 454.96 72.9613 456.376V460H71.8693V453.424H72.9613V454.372C73.3933 453.676 74.1733 453.304 75.0373 453.304C76.1173 453.304 77.0173 453.784 77.4493 454.768C77.8333 453.82 78.7693 453.304 79.7773 453.304C81.2773 453.304 82.4413 454.24 82.4413 456.124V460H81.3613ZM93.7246 460V456.28C93.7246 454.936 93.0046 454.252 91.9246 454.252C90.8206 454.252 90.0646 454.96 90.0646 456.376V460H88.9846V456.28C88.9846 454.936 88.2646 454.252 87.1846 454.252C86.0806 454.252 85.3246 454.96 85.3246 456.376V460H84.2326V453.424H85.3246V454.372C85.7566 453.676 86.5366 453.304 87.4006 453.304C88.4806 453.304 89.3806 453.784 89.8126 454.768C90.1966 453.82 91.1326 453.304 92.1406 453.304C93.6406 453.304 94.8046 454.24 94.8046 456.124V460H93.7246ZM102.428 453.424V460H101.336V459.028C100.916 459.712 100.112 460.096 99.2359 460.096C97.7239 460.096 96.5359 459.16 96.5359 457.276V453.424H97.6159V457.132C97.6159 458.464 98.3479 459.148 99.4519 459.148C100.58 459.148 101.336 458.452 101.336 457.036V453.424H102.428ZM109.084 460V456.28C109.084 454.936 108.352 454.252 107.248 454.252C106.132 454.252 105.364 454.948 105.364 456.364V460H104.272V453.424H105.364V454.36C105.796 453.676 106.588 453.304 107.476 453.304C109 453.304 110.164 454.24 110.164 456.124V460H109.084ZM111.947 460V453.424H113.039V460H111.947ZM112.511 452.356C112.091 452.356 111.767 452.032 111.767 451.612C111.767 451.192 112.091 450.868 112.511 450.868C112.907 450.868 113.231 451.192 113.231 451.612C113.231 452.032 112.907 452.356 112.511 452.356ZM115.141 458.2V454.324H114.289V453.424H115.141V451.768H116.233V453.424H117.949V454.324H116.233V458.2C116.233 458.848 116.473 459.076 117.145 459.076H117.949V460H116.965C115.801 460 115.141 459.52 115.141 458.2ZM121.768 458.752L123.808 453.424H124.936L120.976 463.096H119.848L121.144 459.928L118.492 453.424H119.704L121.768 458.752ZM134.849 460L134.177 458.14H130.529L129.857 460H128.705L131.729 451.684H132.989L136.001 460H134.849ZM133.865 457.252L132.353 453.028L130.841 457.252H133.865ZM137.319 460V451.12H138.411V460H137.319ZM140.272 460V451.12H141.364V460H140.272ZM149.465 456.7C149.465 458.788 147.965 460.108 146.093 460.108C144.233 460.108 142.817 458.788 142.817 456.7C142.817 454.624 144.281 453.316 146.141 453.316C148.013 453.316 149.465 454.624 149.465 456.7ZM143.933 456.7C143.933 458.368 144.953 459.148 146.093 459.148C147.233 459.148 148.349 458.368 148.349 456.7C148.349 455.044 147.257 454.264 146.129 454.264C144.977 454.264 143.933 455.044 143.933 456.7ZM150.493 456.7C150.493 454.636 151.825 453.316 153.697 453.316C155.329 453.316 156.397 454.156 156.733 455.536H155.557C155.329 454.744 154.669 454.24 153.697 454.24C152.497 454.24 151.609 455.092 151.609 456.7C151.609 458.332 152.497 459.184 153.697 459.184C154.669 459.184 155.317 458.716 155.557 457.888H156.733C156.397 459.196 155.329 460.108 153.697 460.108C151.825 460.108 150.493 458.788 150.493 456.7ZM157.782 456.688C157.782 454.636 159.138 453.316 160.902 453.316C162.126 453.316 162.966 453.94 163.35 454.624V453.424H164.454V460H163.35V458.776C162.954 459.484 162.102 460.108 160.89 460.108C159.138 460.108 157.782 458.728 157.782 456.688ZM163.35 456.7C163.35 455.176 162.318 454.264 161.118 454.264C159.918 454.264 158.898 455.14 158.898 456.688C158.898 458.236 159.918 459.148 161.118 459.148C162.318 459.148 163.35 458.248 163.35 456.7ZM166.539 458.2V454.324H165.687V453.424H166.539V451.768H167.631V453.424H169.347V454.324H167.631V458.2C167.631 458.848 167.871 459.076 168.543 459.076H169.347V460H168.363C167.199 460 166.539 459.52 166.539 458.2ZM170.67 460V453.424H171.762V460H170.67ZM171.234 452.356C170.814 452.356 170.49 452.032 170.49 451.612C170.49 451.192 170.814 450.868 171.234 450.868C171.63 450.868 171.954 451.192 171.954 451.612C171.954 452.032 171.63 452.356 171.234 452.356ZM179.863 456.7C179.863 458.788 178.363 460.108 176.491 460.108C174.631 460.108 173.215 458.788 173.215 456.7C173.215 454.624 174.679 453.316 176.539 453.316C178.411 453.316 179.863 454.624 179.863 456.7ZM174.331 456.7C174.331 458.368 175.351 459.148 176.491 459.148C177.631 459.148 178.747 458.368 178.747 456.7C178.747 455.044 177.655 454.264 176.527 454.264C175.375 454.264 174.331 455.044 174.331 456.7ZM186.111 460V456.28C186.111 454.936 185.379 454.252 184.275 454.252C183.159 454.252 182.391 454.948 182.391 456.364V460H181.299V453.424H182.391V454.36C182.823 453.676 183.615 453.304 184.503 453.304C186.027 453.304 187.191 454.24 187.191 456.124V460H186.111Z" fill="white"/>
<path d="M63.198 473.164L58.68 484H55.53L60.102 473.506H54.504V470.878H63.198V473.164ZM73.6948 473.542H68.0788V476.026C68.3188 475.762 68.6548 475.546 69.0868 475.378C69.5188 475.21 69.9868 475.126 70.4908 475.126C71.3908 475.126 72.1348 475.33 72.7228 475.738C73.3228 476.146 73.7608 476.674 74.0368 477.322C74.3128 477.97 74.4508 478.672 74.4508 479.428C74.4508 480.832 74.0548 481.948 73.2628 482.776C72.4708 483.592 71.3548 484 69.9148 484C68.9548 484 68.1208 483.838 67.4128 483.514C66.7048 483.178 66.1588 482.716 65.7748 482.128C65.3908 481.54 65.1808 480.862 65.1448 480.094H68.1508C68.2228 480.466 68.3968 480.778 68.6728 481.03C68.9488 481.27 69.3268 481.39 69.8068 481.39C70.3708 481.39 70.7908 481.21 71.0668 480.85C71.3428 480.49 71.4808 480.01 71.4808 479.41C71.4808 478.822 71.3368 478.372 71.0488 478.06C70.7608 477.748 70.3408 477.592 69.7888 477.592C69.3808 477.592 69.0448 477.694 68.7808 477.898C68.5168 478.09 68.3428 478.348 68.2588 478.672H65.2888V470.842H73.6948V473.542ZM75.8978 474.172C75.8978 473.2 76.1738 472.45 76.7258 471.922C77.2898 471.394 78.0158 471.13 78.9038 471.13C79.7918 471.13 80.5118 471.394 81.0638 471.922C81.6158 472.45 81.8918 473.2 81.8918 474.172C81.8918 475.144 81.6158 475.894 81.0638 476.422C80.5118 476.95 79.7918 477.214 78.9038 477.214C78.0158 477.214 77.2898 476.95 76.7258 476.422C76.1738 475.894 75.8978 475.144 75.8978 474.172ZM88.1198 471.328L81.1898 484H78.2198L85.1498 471.328H88.1198ZM78.8858 472.93C78.3098 472.93 78.0218 473.344 78.0218 474.172C78.0218 474.988 78.3098 475.396 78.8858 475.396C79.1618 475.396 79.3778 475.294 79.5338 475.09C79.6898 474.886 79.7678 474.58 79.7678 474.172C79.7678 473.344 79.4738 472.93 78.8858 472.93ZM84.4658 481.156C84.4658 480.184 84.7418 479.434 85.2938 478.906C85.8458 478.378 86.5658 478.114 87.4538 478.114C88.3418 478.114 89.0618 478.378 89.6138 478.906C90.1658 479.434 90.4418 480.184 90.4418 481.156C90.4418 482.128 90.1658 482.878 89.6138 483.406C89.0618 483.934 88.3418 484.198 87.4538 484.198C86.5658 484.198 85.8458 483.934 85.2938 483.406C84.7418 482.878 84.4658 482.128 84.4658 481.156ZM87.4358 479.914C87.1598 479.914 86.9438 480.016 86.7878 480.22C86.6438 480.424 86.5718 480.736 86.5718 481.156C86.5718 481.972 86.8598 482.38 87.4358 482.38C87.7118 482.38 87.9278 482.278 88.0838 482.074C88.2398 481.87 88.3178 481.564 88.3178 481.156C88.3178 480.748 88.2398 480.442 88.0838 480.238C87.9278 480.022 87.7118 479.914 87.4358 479.914Z" fill="white"/>
<circle cx="240.5" cy="468.5" r="8.5" fill="#154EFF"/>
<path d="M265.516 454.812C265.516 452.304 267.352 450.528 269.692 450.528C271.504 450.528 272.944 451.44 273.568 453.06H272.26C271.804 452.052 270.916 451.488 269.692 451.488C267.94 451.488 266.632 452.76 266.632 454.812C266.632 456.852 267.94 458.124 269.692 458.124C270.916 458.124 271.804 457.56 272.26 456.564H273.568C272.944 458.172 271.504 459.072 269.692 459.072C267.352 459.072 265.516 457.32 265.516 454.812ZM281.434 455.7C281.434 457.788 279.934 459.108 278.062 459.108C276.202 459.108 274.786 457.788 274.786 455.7C274.786 453.624 276.25 452.316 278.11 452.316C279.982 452.316 281.434 453.624 281.434 455.7ZM275.902 455.7C275.902 457.368 276.922 458.148 278.062 458.148C279.202 458.148 280.318 457.368 280.318 455.7C280.318 454.044 279.226 453.264 278.098 453.264C276.946 453.264 275.902 454.044 275.902 455.7ZM292.361 459V455.28C292.361 453.936 291.641 453.252 290.561 453.252C289.457 453.252 288.701 453.96 288.701 455.376V459H287.621V455.28C287.621 453.936 286.901 453.252 285.821 453.252C284.717 453.252 283.961 453.96 283.961 455.376V459H282.869V452.424H283.961V453.372C284.393 452.676 285.173 452.304 286.037 452.304C287.117 452.304 288.017 452.784 288.449 453.768C288.833 452.82 289.769 452.304 290.777 452.304C292.277 452.304 293.441 453.24 293.441 455.124V459H292.361ZM296.325 453.636C296.721 452.94 297.585 452.316 298.785 452.316C300.549 452.316 301.905 453.636 301.905 455.688C301.905 457.728 300.549 459.108 298.785 459.108C297.585 459.108 296.733 458.46 296.325 457.788V462.12H295.233V452.424H296.325V453.636ZM300.789 455.688C300.789 454.14 299.769 453.264 298.557 453.264C297.369 453.264 296.325 454.176 296.325 455.7C296.325 457.248 297.369 458.148 298.557 458.148C299.769 458.148 300.789 457.236 300.789 455.688ZM302.934 455.688C302.934 453.636 304.29 452.316 306.054 452.316C307.278 452.316 308.118 452.94 308.502 453.624V452.424H309.606V459H308.502V457.776C308.106 458.484 307.254 459.108 306.042 459.108C304.29 459.108 302.934 457.728 302.934 455.688ZM308.502 455.7C308.502 454.176 307.47 453.264 306.27 453.264C305.07 453.264 304.05 454.14 304.05 455.688C304.05 457.236 305.07 458.148 306.27 458.148C307.47 458.148 308.502 457.248 308.502 455.7ZM316.263 459V455.28C316.263 453.936 315.531 453.252 314.427 453.252C313.311 453.252 312.543 453.948 312.543 455.364V459H311.451V452.424H312.543V453.36C312.975 452.676 313.767 452.304 314.655 452.304C316.179 452.304 317.343 453.24 317.343 455.124V459H316.263ZM321.623 457.752L323.663 452.424H324.791L320.831 462.096H319.703L320.999 458.928L318.347 452.424H319.559L321.623 457.752ZM324.941 460.716L325.817 457.488H327.017L325.673 460.716H324.941ZM331.467 459V450.636H336.195V451.524H332.559V454.344H335.511V455.232H332.559V459H331.467ZM343.754 455.7C343.754 457.788 342.254 459.108 340.382 459.108C338.522 459.108 337.106 457.788 337.106 455.7C337.106 453.624 338.57 452.316 340.43 452.316C342.302 452.316 343.754 453.624 343.754 455.7ZM338.222 455.7C338.222 457.368 339.242 458.148 340.382 458.148C341.522 458.148 342.638 457.368 342.638 455.7C342.638 454.044 341.546 453.264 340.418 453.264C339.266 453.264 338.222 454.044 338.222 455.7ZM351.022 452.424V459H349.93V458.028C349.51 458.712 348.706 459.096 347.83 459.096C346.318 459.096 345.13 458.16 345.13 456.276V452.424H346.21V456.132C346.21 457.464 346.942 458.148 348.046 458.148C349.174 458.148 349.93 457.452 349.93 456.036V452.424H351.022ZM357.677 459V455.28C357.677 453.936 356.945 453.252 355.841 453.252C354.725 453.252 353.957 453.948 353.957 455.364V459H352.865V452.424H353.957V453.36C354.389 452.676 355.181 452.304 356.069 452.304C357.593 452.304 358.757 453.24 358.757 455.124V459H357.677ZM360.133 455.688C360.133 453.636 361.489 452.316 363.265 452.316C364.297 452.316 365.245 452.844 365.701 453.6V450.12H366.805V459H365.701V457.764C365.305 458.496 364.453 459.108 363.253 459.108C361.489 459.108 360.133 457.728 360.133 455.688ZM365.701 455.7C365.701 454.176 364.669 453.264 363.469 453.264C362.269 453.264 361.249 454.14 361.249 455.688C361.249 457.236 362.269 458.148 363.469 458.148C364.669 458.148 365.701 457.248 365.701 455.7ZM368.243 455.688C368.243 453.636 369.599 452.316 371.363 452.316C372.587 452.316 373.427 452.94 373.811 453.624V452.424H374.915V459H373.811V457.776C373.415 458.484 372.563 459.108 371.351 459.108C369.599 459.108 368.243 457.728 368.243 455.688ZM373.811 455.7C373.811 454.176 372.779 453.264 371.579 453.264C370.379 453.264 369.359 454.14 369.359 455.688C369.359 457.236 370.379 458.148 371.579 458.148C372.779 458.148 373.811 457.248 373.811 455.7ZM377 457.2V453.324H376.148V452.424H377V450.768H378.092V452.424H379.808V453.324H378.092V457.2C378.092 457.848 378.332 458.076 379.004 458.076H379.808V459H378.824C377.66 459 377 458.52 377 457.2ZM381.131 459V452.424H382.223V459H381.131ZM381.695 451.356C381.275 451.356 380.951 451.032 380.951 450.612C380.951 450.192 381.275 449.868 381.695 449.868C382.091 449.868 382.415 450.192 382.415 450.612C382.415 451.032 382.091 451.356 381.695 451.356ZM390.324 455.7C390.324 457.788 388.824 459.108 386.952 459.108C385.092 459.108 383.676 457.788 383.676 455.7C383.676 453.624 385.14 452.316 387 452.316C388.872 452.316 390.324 453.624 390.324 455.7ZM384.792 455.7C384.792 457.368 385.812 458.148 386.952 458.148C388.092 458.148 389.208 457.368 389.208 455.7C389.208 454.044 388.116 453.264 386.988 453.264C385.836 453.264 384.792 454.044 384.792 455.7ZM396.572 459V455.28C396.572 453.936 395.84 453.252 394.736 453.252C393.62 453.252 392.852 453.948 392.852 455.364V459H391.76V452.424H392.852V453.36C393.284 452.676 394.076 452.304 394.964 452.304C396.488 452.304 397.652 453.24 397.652 455.124V459H396.572ZM398.488 460.716L399.364 457.488H400.564L399.22 460.716H398.488ZM410.63 459L409.958 457.14H406.31L405.638 459H404.486L407.51 450.684H408.77L411.782 459H410.63ZM409.646 456.252L408.134 452.028L406.622 456.252H409.646ZM412.692 455.688C412.692 453.636 414.048 452.316 415.824 452.316C416.856 452.316 417.804 452.844 418.26 453.6V450.12H419.364V459H418.26V457.764C417.864 458.496 417.012 459.108 415.812 459.108C414.048 459.108 412.692 457.728 412.692 455.688ZM418.26 455.7C418.26 454.176 417.228 453.264 416.028 453.264C414.828 453.264 413.808 454.14 413.808 455.688C413.808 457.236 414.828 458.148 416.028 458.148C417.228 458.148 418.26 457.248 418.26 455.7ZM420.429 452.424H421.605L423.657 457.992L425.697 452.424H426.861L424.281 459H423.009L420.429 452.424ZM427.936 459V452.424H429.028V459H427.936ZM428.5 451.356C428.08 451.356 427.756 451.032 427.756 450.612C427.756 450.192 428.08 449.868 428.5 449.868C428.896 449.868 429.22 450.192 429.22 450.612C429.22 451.032 428.896 451.356 428.5 451.356ZM435.617 457.212C435.617 458.292 434.669 459.108 433.217 459.108C431.681 459.108 430.601 458.268 430.529 457.068H431.657C431.717 457.704 432.281 458.184 433.205 458.184C434.069 458.184 434.549 457.752 434.549 457.212C434.549 455.748 430.661 456.6 430.661 454.152C430.661 453.144 431.609 452.316 433.073 452.316C434.525 452.316 435.485 453.096 435.557 454.38H434.465C434.417 453.72 433.913 453.24 433.037 453.24C432.233 453.24 431.753 453.624 431.753 454.152C431.753 455.712 435.569 454.86 435.617 457.212ZM443.398 455.7C443.398 457.788 441.898 459.108 440.026 459.108C438.166 459.108 436.75 457.788 436.75 455.7C436.75 453.624 438.214 452.316 440.074 452.316C441.946 452.316 443.398 453.624 443.398 455.7ZM437.866 455.7C437.866 457.368 438.886 458.148 440.026 458.148C441.166 458.148 442.282 457.368 442.282 455.7C442.282 454.044 441.19 453.264 440.062 453.264C438.91 453.264 437.866 454.044 437.866 455.7ZM445.926 455.424V459H444.834V452.424H445.926V453.492C446.298 452.76 447.006 452.304 448.05 452.304V453.432H447.762C446.718 453.432 445.926 453.9 445.926 455.424ZM454.039 457.212C454.039 458.292 453.091 459.108 451.639 459.108C450.103 459.108 449.023 458.268 448.951 457.068H450.079C450.139 457.704 450.703 458.184 451.627 458.184C452.491 458.184 452.971 457.752 452.971 457.212C452.971 455.748 449.083 456.6 449.083 454.152C449.083 453.144 450.031 452.316 451.495 452.316C452.947 452.316 453.907 453.096 453.979 454.38H452.887C452.839 453.72 452.335 453.24 451.459 453.24C450.655 453.24 450.175 453.624 450.175 454.152C450.175 455.712 453.991 454.86 454.039 457.212ZM454.632 460.716L455.508 457.488H456.708L455.364 460.716H454.632ZM466.594 456.72C466.594 457.908 465.622 459.084 463.81 459.084C462.13 459.084 460.942 458.148 460.918 456.768H462.082C462.154 457.464 462.646 458.16 463.81 458.16C464.866 458.16 465.49 457.56 465.49 456.768C465.49 454.512 460.966 455.952 460.966 452.844C460.966 451.464 462.082 450.528 463.738 450.528C465.334 450.528 466.378 451.404 466.51 452.676H465.31C465.238 452.112 464.71 451.476 463.69 451.464C462.79 451.44 462.082 451.908 462.082 452.808C462.082 454.968 466.594 453.624 466.594 456.72ZM470.997 453.24C469.929 453.24 469.041 453.948 468.921 455.232H473.073C473.085 453.948 472.125 453.24 470.997 453.24ZM474.069 456.972C473.733 458.172 472.677 459.108 471.045 459.108C469.173 459.108 467.793 457.788 467.793 455.7C467.793 453.624 469.125 452.316 471.045 452.316C472.953 452.316 474.201 453.66 474.201 455.46C474.201 455.7 474.189 455.892 474.165 456.12H468.909C468.993 457.452 469.929 458.184 471.045 458.184C472.029 458.184 472.653 457.68 472.893 456.972H474.069ZM478.439 453.24C477.371 453.24 476.483 453.948 476.363 455.232H480.515C480.527 453.948 479.567 453.24 478.439 453.24ZM481.511 456.972C481.175 458.172 480.119 459.108 478.487 459.108C476.615 459.108 475.235 457.788 475.235 455.7C475.235 453.624 476.567 452.316 478.487 452.316C480.395 452.316 481.643 453.66 481.643 455.46C481.643 455.7 481.631 455.892 481.607 456.12H476.351C476.435 457.452 477.371 458.184 478.487 458.184C479.471 458.184 480.095 457.68 480.335 456.972H481.511ZM482.676 455.688C482.676 453.636 484.032 452.316 485.808 452.316C486.84 452.316 487.788 452.844 488.244 453.6V450.12H489.348V459H488.244V457.764C487.848 458.496 486.996 459.108 485.796 459.108C484.032 459.108 482.676 457.728 482.676 455.688ZM488.244 455.7C488.244 454.176 487.212 453.264 486.012 453.264C484.812 453.264 483.792 454.14 483.792 455.688C483.792 457.236 484.812 458.148 486.012 458.148C487.212 458.148 488.244 457.248 488.244 455.7ZM492.262 458.328C492.262 458.748 491.938 459.072 491.542 459.072C491.122 459.072 490.798 458.748 490.798 458.328C490.798 457.908 491.122 457.584 491.542 457.584C491.938 457.584 492.262 457.908 492.262 458.328Z" fill="white"/>
<path d="M265.702 481.534C266.11 481.21 266.296 481.06 266.26 481.084C267.436 480.112 268.36 479.314 269.032 478.69C269.716 478.066 270.292 477.412 270.76 476.728C271.228 476.044 271.462 475.378 271.462 474.73C271.462 474.238 271.348 473.854 271.12 473.578C270.892 473.302 270.55 473.164 270.094 473.164C269.638 473.164 269.278 473.338 269.014 473.686C268.762 474.022 268.636 474.502 268.636 475.126H265.666C265.69 474.106 265.906 473.254 266.314 472.57C266.734 471.886 267.28 471.382 267.952 471.058C268.636 470.734 269.392 470.572 270.22 470.572C271.648 470.572 272.722 470.938 273.442 471.67C274.174 472.402 274.54 473.356 274.54 474.532C274.54 475.816 274.102 477.01 273.226 478.114C272.35 479.206 271.234 480.274 269.878 481.318H274.738V483.82H265.702V481.534ZM285.345 473.542H279.729V476.026C279.969 475.762 280.305 475.546 280.737 475.378C281.169 475.21 281.637 475.126 282.141 475.126C283.041 475.126 283.785 475.33 284.373 475.738C284.973 476.146 285.411 476.674 285.687 477.322C285.963 477.97 286.101 478.672 286.101 479.428C286.101 480.832 285.705 481.948 284.913 482.776C284.121 483.592 283.005 484 281.565 484C280.605 484 279.771 483.838 279.063 483.514C278.355 483.178 277.809 482.716 277.425 482.128C277.041 481.54 276.831 480.862 276.795 480.094H279.801C279.873 480.466 280.047 480.778 280.323 481.03C280.599 481.27 280.977 481.39 281.457 481.39C282.021 481.39 282.441 481.21 282.717 480.85C282.993 480.49 283.131 480.01 283.131 479.41C283.131 478.822 282.987 478.372 282.699 478.06C282.411 477.748 281.991 477.592 281.439 477.592C281.031 477.592 280.695 477.694 280.431 477.898C280.167 478.09 279.993 478.348 279.909 478.672H276.939V470.842H285.345V473.542ZM287.548 474.172C287.548 473.2 287.824 472.45 288.376 471.922C288.94 471.394 289.666 471.13 290.554 471.13C291.442 471.13 292.162 471.394 292.714 471.922C293.266 472.45 293.542 473.2 293.542 474.172C293.542 475.144 293.266 475.894 292.714 476.422C292.162 476.95 291.442 477.214 290.554 477.214C289.666 477.214 288.94 476.95 288.376 476.422C287.824 475.894 287.548 475.144 287.548 474.172ZM299.77 471.328L292.84 484H289.87L296.8 471.328H299.77ZM290.536 472.93C289.96 472.93 289.672 473.344 289.672 474.172C289.672 474.988 289.96 475.396 290.536 475.396C290.812 475.396 291.028 475.294 291.184 475.09C291.34 474.886 291.418 474.58 291.418 474.172C291.418 473.344 291.124 472.93 290.536 472.93ZM296.116 481.156C296.116 480.184 296.392 479.434 296.944 478.906C297.496 478.378 298.216 478.114 299.104 478.114C299.992 478.114 300.712 478.378 301.264 478.906C301.816 479.434 302.092 480.184 302.092 481.156C302.092 482.128 301.816 482.878 301.264 483.406C300.712 483.934 299.992 484.198 299.104 484.198C298.216 484.198 297.496 483.934 296.944 483.406C296.392 482.878 296.116 482.128 296.116 481.156ZM299.086 479.914C298.81 479.914 298.594 480.016 298.438 480.22C298.294 480.424 298.222 480.736 298.222 481.156C298.222 481.972 298.51 482.38 299.086 482.38C299.362 482.38 299.578 482.278 299.734 482.074C299.89 481.87 299.968 481.564 299.968 481.156C299.968 480.748 299.89 480.442 299.734 480.238C299.578 480.022 299.362 479.914 299.086 479.914Z" fill="white"/>
<rect x="0.5" y="437.5" width="526" height="62" rx="12.5" stroke="#092E63"/>
</svg>
