<svg width="527" height="500" viewBox="0 0 527 500" fill="none" xmlns="http://www.w3.org/2000/svg">
<path d="M271.745 48V141.913C269.084 141.913 266.442 142.053 263.833 142.328L246.637 49.8663C254.829 48.6354 263.213 48 271.745 48Z" fill="#154EFF"/>
<path d="M263.831 142.329C252.713 143.508 242.135 147.157 232.751 153.015L193.848 67.1431C210.061 58.627 227.836 52.6886 246.635 49.8672L263.831 142.329Z" fill="#3F6DFC"/>
<path d="M232.752 153.013C228.016 155.97 223.584 159.487 219.536 163.535C217.462 165.609 215.524 167.787 213.729 170.057L149.713 100.649C162.413 87.186 177.319 75.8245 193.848 67.1406L232.752 153.013Z" fill="#678CFF"/>
<path d="M213.729 170.056C210.54 174.092 207.803 178.416 205.545 182.96L123.965 136.307C130.974 123.295 139.654 111.311 149.713 100.648L213.729 170.056Z" fill="#A2B9FF"/>
<path d="M212.639 260.009L145.949 326.703C119.837 297.131 104 258.283 104 215.739C104 187.005 111.225 159.955 123.965 136.312L205.546 182.965C200.554 193.024 197.913 204.181 197.913 215.739C197.913 231.92 203.084 247.305 212.639 260.009Z" fill="#B4EFBA"/>
<path d="M293.024 286.471V382.146C286.055 383.025 278.954 383.481 271.744 383.481C221.647 383.481 176.681 361.521 145.949 326.702L212.639 260.008C214.729 262.789 217.031 265.443 219.537 267.948C233.484 281.891 252.023 289.568 271.744 289.568C279.057 289.568 286.211 288.513 293.024 286.471Z" fill="#78F084"/>
<path d="M439.483 215.742C439.483 301.179 375.615 371.689 293.023 382.147V286.472C304.581 283.012 315.175 276.721 323.947 267.95C337.894 254.003 345.571 235.468 345.571 215.742H439.483Z" fill="#43D952"/>
<path d="M439.484 215.736V215.74H345.571V215.736C345.571 196.018 337.895 177.48 323.948 163.537C310.005 149.59 291.462 141.913 271.744 141.913V48C364.386 48 439.484 123.098 439.484 215.736Z" fill="#1AD12C"/>
<path d="M409.474 87V77.965H411.073L414.245 85.05L417.404 77.965H418.99V87H417.508V80.812L414.752 87H413.725L410.956 80.812V87H409.474ZM420.443 83.386C420.443 81.176 421.938 79.72 423.823 79.72C425.032 79.72 425.864 80.292 426.306 80.877V79.837H427.801V87H426.306V85.934C425.851 86.545 424.993 87.117 423.797 87.117C421.938 87.117 420.443 85.596 420.443 83.386ZM426.306 83.412C426.306 81.878 425.253 81.007 424.135 81.007C423.03 81.007 421.964 81.839 421.964 83.386C421.964 84.933 423.03 85.83 424.135 85.83C425.253 85.83 426.306 84.959 426.306 83.412ZM431.23 83.23V87H429.748V79.837H431.23V80.877C431.646 80.162 432.361 79.72 433.375 79.72V81.254H432.998C431.906 81.254 431.23 81.709 431.23 83.23ZM434.737 87V77.38H436.219V82.97L438.819 79.837H440.873L437.571 83.425L440.873 87H438.871L436.219 83.919V87H434.737ZM444.951 80.968C443.95 80.968 443.144 81.644 442.988 82.775H446.953C446.927 81.67 446.056 80.968 444.951 80.968ZM448.305 84.868C447.902 86.116 446.771 87.117 445.016 87.117C442.962 87.117 441.441 85.661 441.441 83.412C441.441 81.163 442.897 79.72 445.016 79.72C447.057 79.72 448.5 81.137 448.5 83.243C448.5 83.49 448.487 83.724 448.448 83.971H442.975C443.079 85.154 443.924 85.869 445.016 85.869C445.926 85.869 446.433 85.427 446.706 84.868H448.305ZM450.193 85.011V81.046H449.348V79.837H450.193V78.056H451.688V79.837H453.43V81.046H451.688V85.011C451.688 85.544 451.896 85.765 452.52 85.765H453.43V87H452.26C450.986 87 450.193 86.467 450.193 85.011ZM454.796 87V79.837H456.278V87H454.796ZM455.55 78.888C455.017 78.888 454.601 78.472 454.601 77.939C454.601 77.406 455.017 76.99 455.55 76.99C456.07 76.99 456.486 77.406 456.486 77.939C456.486 78.472 456.07 78.888 455.55 78.888ZM463.307 87V82.996C463.307 81.683 462.592 81.007 461.513 81.007C460.421 81.007 459.706 81.683 459.706 82.996V87H458.224V79.837H459.706V80.656C460.187 80.071 460.98 79.72 461.838 79.72C463.515 79.72 464.776 80.773 464.776 82.775V87H463.307ZM466.172 83.386C466.172 81.176 467.667 79.72 469.552 79.72C470.722 79.72 471.593 80.266 472.035 80.877V79.837H473.53V87.117C473.53 89.067 472.269 90.536 470.033 90.536C468.122 90.536 466.705 89.587 466.523 88.001H467.992C468.213 88.742 469.006 89.249 470.033 89.249C471.177 89.249 472.035 88.547 472.035 87.117V85.921C471.58 86.532 470.722 87.117 469.552 87.117C467.667 87.117 466.172 85.596 466.172 83.386ZM472.035 83.412C472.035 81.878 470.982 81.007 469.864 81.007C468.759 81.007 467.693 81.839 467.693 83.386C467.693 84.933 468.759 85.83 469.864 85.83C470.982 85.83 472.035 84.959 472.035 83.412ZM429.1 106.87V105.791C431.336 103.828 433.689 102.112 433.689 100.253C433.689 99.265 433.26 98.589 432.155 98.589C431.115 98.589 430.556 99.317 430.517 100.383H429.087C429.139 98.329 430.465 97.328 432.142 97.328C434.066 97.328 435.158 98.485 435.158 100.188C435.158 102.489 432.818 104.244 431.297 105.635H435.418V106.87H429.1ZM437.109 97.497H442.829V98.797H438.474V101.384C438.825 100.916 439.592 100.526 440.437 100.526C442.764 100.526 443.479 102.255 443.479 103.685C443.479 105.57 442.4 107 440.203 107C438.253 107 437.122 105.921 436.901 104.439H438.344C438.539 105.245 439.215 105.765 440.216 105.765C441.49 105.765 442.062 104.894 442.062 103.724C442.062 102.489 441.451 101.787 440.216 101.787C439.345 101.787 438.76 102.268 438.513 102.97H437.109V97.497ZM444.788 99.811C444.788 98.524 445.633 97.783 446.764 97.783C447.895 97.783 448.74 98.524 448.74 99.811C448.74 101.111 447.895 101.852 446.764 101.852C445.633 101.852 444.788 101.111 444.788 99.811ZM446.764 98.68C446.257 98.68 445.945 99.005 445.945 99.811C445.945 100.617 446.257 100.955 446.764 100.955C447.258 100.955 447.583 100.617 447.583 99.811C447.583 99.005 447.258 98.68 446.764 98.68ZM446.075 107L451.262 97.952H452.718L447.531 107H446.075ZM450.079 105.128C450.079 103.828 450.924 103.1 452.055 103.1C453.173 103.1 454.018 103.828 454.018 105.128C454.018 106.428 453.173 107.169 452.055 107.169C450.924 107.169 450.079 106.428 450.079 105.128ZM452.042 103.997C451.548 103.997 451.223 104.322 451.223 105.128C451.223 105.934 451.548 106.259 452.042 106.259C452.536 106.259 452.861 105.934 452.861 105.128C452.861 104.322 452.536 103.997 452.042 103.997Z" fill="#4D6090"/>
<path d="M425.556 327V317.965H427.038V327H425.556ZM437.719 322.463C437.719 325.18 435.678 327.091 433.104 327.091C430.556 327.091 428.489 325.18 428.489 322.463C428.489 319.759 430.556 317.848 433.104 317.848C435.678 317.848 437.719 319.759 437.719 322.463ZM430.01 322.463C430.01 324.504 431.31 325.804 433.104 325.804C434.898 325.804 436.198 324.504 436.198 322.463C436.198 320.422 434.898 319.148 433.104 319.148C431.31 319.148 430.01 320.422 430.01 322.463ZM442.129 317.965C445.028 317.965 446.926 319.72 446.926 322.515C446.926 325.297 445.028 327 442.129 327H439.178V317.965H442.129ZM440.66 325.791H442.129C444.261 325.791 445.405 324.569 445.405 322.515C445.405 320.448 444.261 319.174 442.129 319.174H440.66V325.791ZM423.892 346.87V345.791C426.128 343.828 428.481 342.112 428.481 340.253C428.481 339.265 428.052 338.589 426.947 338.589C425.907 338.589 425.348 339.317 425.309 340.383H423.879C423.931 338.329 425.257 337.328 426.934 337.328C428.858 337.328 429.95 338.485 429.95 340.188C429.95 342.489 427.61 344.244 426.089 345.635H430.21V346.87H423.892ZM431.485 339.863C431.589 338.225 432.863 337.302 434.592 337.302C436.477 337.302 437.504 338.394 437.504 339.772C437.504 340.903 436.789 341.67 436.048 341.917V341.969C437.036 342.268 437.673 343.087 437.673 344.4C437.673 345.908 436.607 347.052 434.631 347.052C432.837 347.052 431.446 346.116 431.355 344.257H432.785C432.85 345.141 433.5 345.817 434.618 345.817C435.723 345.817 436.269 345.141 436.269 344.257C436.269 343.009 435.463 342.58 433.916 342.58H433.578V341.358H433.929C435.268 341.345 436.087 340.955 436.087 339.941C436.087 339.122 435.554 338.576 434.54 338.576C433.5 338.576 433.019 339.2 432.928 339.863H431.485ZM438.996 339.811C438.996 338.524 439.841 337.783 440.972 337.783C442.103 337.783 442.948 338.524 442.948 339.811C442.948 341.111 442.103 341.852 440.972 341.852C439.841 341.852 438.996 341.111 438.996 339.811ZM440.972 338.68C440.465 338.68 440.153 339.005 440.153 339.811C440.153 340.617 440.465 340.955 440.972 340.955C441.466 340.955 441.791 340.617 441.791 339.811C441.791 339.005 441.466 338.68 440.972 338.68ZM440.283 347L445.47 337.952H446.926L441.739 347H440.283ZM444.287 345.128C444.287 343.828 445.132 343.1 446.263 343.1C447.381 343.1 448.226 343.828 448.226 345.128C448.226 346.428 447.381 347.169 446.263 347.169C445.132 347.169 444.287 346.428 444.287 345.128ZM446.25 343.997C445.756 343.997 445.431 344.322 445.431 345.128C445.431 345.934 445.756 346.259 446.25 346.259C446.744 346.259 447.069 345.934 447.069 345.128C447.069 344.322 446.744 343.997 446.25 343.997Z" fill="#4D6090"/>
<path d="M179.012 390.669C179.012 389.759 178.492 389.174 177.335 389.174H175.697V392.203H177.335C178.492 392.203 179.012 391.566 179.012 390.669ZM174.215 387.965H177.335C179.48 387.965 180.533 389.2 180.533 390.669C180.533 391.735 179.961 392.879 178.44 393.256L180.676 397H178.908L176.828 393.386H175.697V397H174.215V387.965ZM185.445 390.968C184.444 390.968 183.638 391.644 183.482 392.775H187.447C187.421 391.67 186.55 390.968 185.445 390.968ZM188.799 394.868C188.396 396.116 187.265 397.117 185.51 397.117C183.456 397.117 181.935 395.661 181.935 393.412C181.935 391.163 183.391 389.72 185.51 389.72C187.551 389.72 188.994 391.137 188.994 393.243C188.994 393.49 188.981 393.724 188.942 393.971H183.469C183.573 395.154 184.418 395.869 185.51 395.869C186.42 395.869 186.927 395.427 187.2 394.868H188.799ZM191.844 397L189.608 389.837H191.116L192.611 395.596L194.132 389.837H195.679L197.135 395.57L198.617 389.837H200.073L197.85 397H196.29L194.847 391.709L193.404 397H191.844ZM200.686 393.386C200.686 391.176 202.181 389.72 204.066 389.72C205.275 389.72 206.107 390.292 206.549 390.877V389.837H208.044V397H206.549V395.934C206.094 396.545 205.236 397.117 204.04 397.117C202.181 397.117 200.686 395.596 200.686 393.386ZM206.549 393.412C206.549 391.878 205.496 391.007 204.378 391.007C203.273 391.007 202.207 391.839 202.207 393.386C202.207 394.933 203.273 395.83 204.378 395.83C205.496 395.83 206.549 394.959 206.549 393.412ZM211.473 393.23V397H209.991V389.837H211.473V390.877C211.889 390.162 212.604 389.72 213.618 389.72V391.254H213.241C212.149 391.254 211.473 391.709 211.473 393.23ZM214.486 393.386C214.486 391.176 215.981 389.72 217.879 389.72C218.815 389.72 219.803 390.162 220.349 390.838V387.38H221.844V397H220.349V395.921C219.894 396.571 219.036 397.117 217.866 397.117C215.981 397.117 214.486 395.596 214.486 393.386ZM220.349 393.412C220.349 391.878 219.296 391.007 218.178 391.007C217.073 391.007 216.007 391.839 216.007 393.386C216.007 394.933 217.073 395.83 218.178 395.83C219.296 395.83 220.349 394.959 220.349 393.412ZM229.133 394.998C229.133 396.207 228.08 397.117 226.39 397.117C224.674 397.117 223.465 396.103 223.4 394.803H224.934C224.986 395.388 225.545 395.869 226.364 395.869C227.222 395.869 227.677 395.505 227.677 395.011C227.677 393.607 223.517 394.413 223.517 391.787C223.517 390.643 224.583 389.72 226.273 389.72C227.898 389.72 228.964 390.591 229.042 392.021H227.56C227.508 391.397 227.027 390.968 226.221 390.968C225.428 390.968 225.012 391.293 225.012 391.774C225.012 393.217 229.055 392.411 229.133 394.998ZM191.71 417V408.875H190.501V407.523H193.205V417H191.71ZM195.63 407.497H201.35V408.797H196.995V411.384C197.346 410.916 198.113 410.526 198.958 410.526C201.285 410.526 202 412.255 202 413.685C202 415.57 200.921 417 198.724 417C196.774 417 195.643 415.921 195.422 414.439H196.865C197.06 415.245 197.736 415.765 198.737 415.765C200.011 415.765 200.583 414.894 200.583 413.724C200.583 412.489 199.972 411.787 198.737 411.787C197.866 411.787 197.281 412.268 197.034 412.97H195.63V407.497ZM203.309 409.811C203.309 408.524 204.154 407.783 205.285 407.783C206.416 407.783 207.261 408.524 207.261 409.811C207.261 411.111 206.416 411.852 205.285 411.852C204.154 411.852 203.309 411.111 203.309 409.811ZM205.285 408.68C204.778 408.68 204.466 409.005 204.466 409.811C204.466 410.617 204.778 410.955 205.285 410.955C205.779 410.955 206.104 410.617 206.104 409.811C206.104 409.005 205.779 408.68 205.285 408.68ZM204.596 417L209.783 407.952H211.239L206.052 417H204.596ZM208.6 415.128C208.6 413.828 209.445 413.1 210.576 413.1C211.694 413.1 212.539 413.828 212.539 415.128C212.539 416.428 211.694 417.169 210.576 417.169C209.445 417.169 208.6 416.428 208.6 415.128ZM210.563 413.997C210.069 413.997 209.744 414.322 209.744 415.128C209.744 415.934 210.069 416.259 210.563 416.259C211.057 416.259 211.382 415.934 211.382 415.128C211.382 414.322 211.057 413.997 210.563 413.997Z" fill="#4D6090"/>
<path d="M7.15371 237.965H8.63571V245.804H11.6907V247H7.15371V237.965ZM12.9301 247V239.837H14.4121V247H12.9301ZM13.6841 238.888C13.1511 238.888 12.7351 238.472 12.7351 237.939C12.7351 237.406 13.1511 236.99 13.6841 236.99C14.2041 236.99 14.6201 237.406 14.6201 237.939C14.6201 238.472 14.2041 238.888 13.6841 238.888ZM15.8638 243.386C15.8638 241.176 17.3588 239.72 19.2568 239.72C20.4398 239.72 21.3108 240.292 21.7268 240.877V239.837H23.2218V250.406H21.7268V245.96C21.3108 246.519 20.4138 247.117 19.2048 247.117C17.3588 247.117 15.8638 245.596 15.8638 243.386ZM21.7268 243.412C21.7268 241.878 20.6738 241.007 19.5558 241.007C18.4508 241.007 17.3848 241.839 17.3848 243.386C17.3848 244.933 18.4508 245.83 19.5558 245.83C20.6738 245.83 21.7268 244.959 21.7268 243.412ZM31.6554 239.837V247H30.1734V246.142C29.7054 246.753 28.8994 247.104 28.0544 247.104C26.3774 247.104 25.1034 246.051 25.1034 244.049V239.837H26.5724V243.828C26.5724 245.141 27.2874 245.817 28.3664 245.817C29.4584 245.817 30.1734 245.141 30.1734 243.828V239.837H31.6554ZM33.6107 247V239.837H35.0927V247H33.6107ZM34.3647 238.888C33.8317 238.888 33.4157 238.472 33.4157 237.939C33.4157 237.406 33.8317 236.99 34.3647 236.99C34.8847 236.99 35.3007 237.406 35.3007 237.939C35.3007 238.472 34.8847 238.888 34.3647 238.888ZM36.5445 243.386C36.5445 241.176 38.0395 239.72 39.9375 239.72C40.8735 239.72 41.8615 240.162 42.4075 240.838V237.38H43.9025V247H42.4075V245.921C41.9525 246.571 41.0945 247.117 39.9245 247.117C38.0395 247.117 36.5445 245.596 36.5445 243.386ZM42.4075 243.412C42.4075 241.878 41.3545 241.007 40.2365 241.007C39.1315 241.007 38.0655 241.839 38.0655 243.386C38.0655 244.933 39.1315 245.83 40.2365 245.83C41.3545 245.83 42.4075 244.959 42.4075 243.412ZM45.849 247V239.837H47.331V247H45.849ZM46.603 238.888C46.07 238.888 45.654 238.472 45.654 237.939C45.654 237.406 46.07 236.99 46.603 236.99C47.123 236.99 47.539 237.406 47.539 237.939C47.539 238.472 47.123 238.888 46.603 238.888ZM49.5108 245.011V241.046H48.6658V239.837H49.5108V238.056H51.0058V239.837H52.7478V241.046H51.0058V245.011C51.0058 245.544 51.2138 245.765 51.8378 245.765H52.7478V247H51.5778C50.3038 247 49.5108 246.467 49.5108 245.011ZM56.9347 245.297L59.0277 239.837H60.5617L56.1677 250.367H54.6337L56.0897 246.883L53.2687 239.837H54.9197L56.9347 245.297ZM66.539 242.125H68.177C69.334 242.125 69.854 241.566 69.854 240.656C69.854 239.72 69.334 239.174 68.177 239.174H66.539V242.125ZM71.375 240.656C71.375 241.943 70.53 243.334 68.177 243.334H66.539V247H65.057V237.965H68.177C70.322 237.965 71.375 239.187 71.375 240.656ZM79.6135 243.412C79.6135 245.661 77.9495 247.117 75.8955 247.117C73.8545 247.117 72.3075 245.661 72.3075 243.412C72.3075 241.163 73.9195 239.72 75.9605 239.72C78.0015 239.72 79.6135 241.163 79.6135 243.412ZM73.8155 243.412C73.8155 245.037 74.7775 245.83 75.8955 245.83C77.0005 245.83 78.0925 245.037 78.0925 243.412C78.0925 241.787 77.0395 241.007 75.9345 241.007C74.8165 241.007 73.8155 241.787 73.8155 243.412ZM87.9035 243.412C87.9035 245.661 86.2395 247.117 84.1855 247.117C82.1445 247.117 80.5975 245.661 80.5975 243.412C80.5975 241.163 82.2095 239.72 84.2505 239.72C86.2915 239.72 87.9035 241.163 87.9035 243.412ZM82.1055 243.412C82.1055 245.037 83.0675 245.83 84.1855 245.83C85.2905 245.83 86.3825 245.037 86.3825 243.412C86.3825 241.787 85.3295 241.007 84.2245 241.007C83.1065 241.007 82.1055 241.787 82.1055 243.412ZM89.3686 247V237.38H90.8506V247H89.3686ZM39.6094 267V258.875H38.4004V257.523H41.1044V267H39.6094ZM43.0234 266.87V265.791C45.2594 263.828 47.6124 262.112 47.6124 260.253C47.6124 259.265 47.1834 258.589 46.0784 258.589C45.0384 258.589 44.4794 259.317 44.4404 260.383H43.0104C43.0624 258.329 44.3884 257.328 46.0654 257.328C47.9894 257.328 49.0814 258.485 49.0814 260.188C49.0814 262.489 46.7414 264.244 45.2204 265.635H49.3414V266.87H43.0234ZM50.4093 259.811C50.4093 258.524 51.2543 257.783 52.3853 257.783C53.5163 257.783 54.3613 258.524 54.3613 259.811C54.3613 261.111 53.5163 261.852 52.3853 261.852C51.2543 261.852 50.4093 261.111 50.4093 259.811ZM52.3853 258.68C51.8783 258.68 51.5663 259.005 51.5663 259.811C51.5663 260.617 51.8783 260.955 52.3853 260.955C52.8793 260.955 53.2043 260.617 53.2043 259.811C53.2043 259.005 52.8793 258.68 52.3853 258.68ZM51.6963 267L56.8833 257.952H58.3393L53.1523 267H51.6963ZM55.7003 265.128C55.7003 263.828 56.5453 263.1 57.6763 263.1C58.7943 263.1 59.6393 263.828 59.6393 265.128C59.6393 266.428 58.7943 267.169 57.6763 267.169C56.5453 267.169 55.7003 266.428 55.7003 265.128ZM57.6633 263.997C57.1693 263.997 56.8443 264.322 56.8443 265.128C56.8443 265.934 57.1693 266.259 57.6633 266.259C58.1573 266.259 58.4823 265.934 58.4823 265.128C58.4823 264.322 58.1573 263.997 57.6633 263.997Z" fill="#4D6090"/>
<path d="M93.2204 107.439C93.2204 108.791 92.1154 110.091 90.1004 110.091C88.2934 110.091 86.9024 109.103 86.9024 107.504H88.4884C88.5534 108.245 89.0734 108.843 90.1004 108.843C91.1404 108.843 91.7254 108.284 91.7254 107.517C91.7254 105.333 86.9284 106.75 86.9284 103.422C86.9284 101.836 88.1894 100.848 90.0354 100.848C91.7644 100.848 92.9864 101.758 93.1164 103.305H91.4784C91.4264 102.694 90.8934 102.135 89.9574 102.109C89.0994 102.083 88.4364 102.499 88.4364 103.37C88.4364 105.411 93.2204 104.137 93.2204 107.439ZM97.9851 103.968C96.9841 103.968 96.1781 104.644 96.0221 105.775H99.9871C99.9611 104.67 99.0901 103.968 97.9851 103.968ZM101.339 107.868C100.936 109.116 99.8051 110.117 98.0501 110.117C95.9961 110.117 94.4751 108.661 94.4751 106.412C94.4751 104.163 95.9311 102.72 98.0501 102.72C100.091 102.72 101.534 104.137 101.534 106.243C101.534 106.49 101.521 106.724 101.482 106.971H96.0091C96.1131 108.154 96.9581 108.869 98.0501 108.869C98.9601 108.869 99.4671 108.427 99.7401 107.868H101.339ZM106.009 103.968C105.008 103.968 104.202 104.644 104.046 105.775H108.011C107.985 104.67 107.114 103.968 106.009 103.968ZM109.363 107.868C108.96 109.116 107.829 110.117 106.074 110.117C104.02 110.117 102.499 108.661 102.499 106.412C102.499 104.163 103.955 102.72 106.074 102.72C108.115 102.72 109.558 104.137 109.558 106.243C109.558 106.49 109.545 106.724 109.506 106.971H104.033C104.137 108.154 104.982 108.869 106.074 108.869C106.984 108.869 107.491 108.427 107.764 107.868H109.363ZM110.522 106.386C110.522 104.176 112.017 102.72 113.915 102.72C114.851 102.72 115.839 103.162 116.385 103.838V100.38H117.88V110H116.385V108.921C115.93 109.571 115.072 110.117 113.902 110.117C112.017 110.117 110.522 108.596 110.522 106.386ZM116.385 106.412C116.385 104.878 115.332 104.007 114.214 104.007C113.109 104.007 112.043 104.839 112.043 106.386C112.043 107.933 113.109 108.83 114.214 108.83C115.332 108.83 116.385 107.959 116.385 106.412ZM94.358 120.497H100.078V121.797H95.723V124.384C96.074 123.916 96.841 123.526 97.686 123.526C100.013 123.526 100.728 125.255 100.728 126.685C100.728 128.57 99.649 130 97.452 130C95.502 130 94.371 128.921 94.15 127.439H95.593C95.788 128.245 96.464 128.765 97.465 128.765C98.739 128.765 99.311 127.894 99.311 126.724C99.311 125.489 98.7 124.787 97.465 124.787C96.594 124.787 96.009 125.268 95.762 125.97H94.358V120.497ZM102.037 122.811C102.037 121.524 102.882 120.783 104.013 120.783C105.144 120.783 105.989 121.524 105.989 122.811C105.989 124.111 105.144 124.852 104.013 124.852C102.882 124.852 102.037 124.111 102.037 122.811ZM104.013 121.68C103.506 121.68 103.194 122.005 103.194 122.811C103.194 123.617 103.506 123.955 104.013 123.955C104.507 123.955 104.832 123.617 104.832 122.811C104.832 122.005 104.507 121.68 104.013 121.68ZM103.324 130L108.511 120.952H109.967L104.78 130H103.324ZM107.328 128.128C107.328 126.828 108.173 126.1 109.304 126.1C110.422 126.1 111.267 126.828 111.267 128.128C111.267 129.428 110.422 130.169 109.304 130.169C108.173 130.169 107.328 129.428 107.328 128.128ZM109.291 126.997C108.797 126.997 108.472 127.322 108.472 128.128C108.472 128.934 108.797 129.259 109.291 129.259C109.785 129.259 110.11 128.934 110.11 128.128C110.11 127.322 109.785 126.997 109.291 126.997Z" fill="#4D6090"/>
<path d="M116.092 63L115.442 61.154H111.659L111.009 63H109.462L112.699 53.952H114.415L117.652 63H116.092ZM115.026 59.945L113.557 55.746L112.075 59.945H115.026ZM118.565 59.386C118.565 57.176 120.06 55.72 121.958 55.72C122.894 55.72 123.882 56.162 124.428 56.838V53.38H125.923V63H124.428V61.921C123.973 62.571 123.115 63.117 121.945 63.117C120.06 63.117 118.565 61.596 118.565 59.386ZM124.428 59.412C124.428 57.878 123.375 57.007 122.257 57.007C121.152 57.007 120.086 57.839 120.086 59.386C120.086 60.933 121.152 61.83 122.257 61.83C123.375 61.83 124.428 60.959 124.428 59.412ZM127.025 55.837H128.611L130.639 61.674L132.667 55.837H134.24L131.51 63H129.742L127.025 55.837ZM135.36 63V55.837H136.842V63H135.36ZM136.114 54.888C135.581 54.888 135.165 54.472 135.165 53.939C135.165 53.406 135.581 52.99 136.114 52.99C136.634 52.99 137.05 53.406 137.05 53.939C137.05 54.472 136.634 54.888 136.114 54.888ZM144.131 60.998C144.131 62.207 143.078 63.117 141.388 63.117C139.672 63.117 138.463 62.103 138.398 60.803H139.932C139.984 61.388 140.543 61.869 141.362 61.869C142.22 61.869 142.675 61.505 142.675 61.011C142.675 59.607 138.515 60.413 138.515 57.787C138.515 56.643 139.581 55.72 141.271 55.72C142.896 55.72 143.962 56.591 144.04 58.021H142.558C142.506 57.397 142.025 56.968 141.219 56.968C140.426 56.968 140.01 57.293 140.01 57.774C140.01 59.217 144.053 58.411 144.131 60.998ZM152.557 59.412C152.557 61.661 150.893 63.117 148.839 63.117C146.798 63.117 145.251 61.661 145.251 59.412C145.251 57.163 146.863 55.72 148.904 55.72C150.945 55.72 152.557 57.163 152.557 59.412ZM146.759 59.412C146.759 61.037 147.721 61.83 148.839 61.83C149.944 61.83 151.036 61.037 151.036 59.412C151.036 57.787 149.983 57.007 148.878 57.007C147.76 57.007 146.759 57.787 146.759 59.412ZM155.504 59.23V63H154.022V55.837H155.504V56.877C155.92 56.162 156.635 55.72 157.649 55.72V57.254H157.272C156.18 57.254 155.504 57.709 155.504 59.23ZM164.354 60.998C164.354 62.207 163.301 63.117 161.611 63.117C159.895 63.117 158.686 62.103 158.621 60.803H160.155C160.207 61.388 160.766 61.869 161.585 61.869C162.443 61.869 162.898 61.505 162.898 61.011C162.898 59.607 158.738 60.413 158.738 57.787C158.738 56.643 159.804 55.72 161.494 55.72C163.119 55.72 164.185 56.591 164.263 58.021H162.781C162.729 57.397 162.248 56.968 161.442 56.968C160.649 56.968 160.233 57.293 160.233 57.774C160.233 59.217 164.276 58.411 164.354 60.998ZM130.073 78.047C129.267 77.644 128.721 76.968 128.721 75.915C128.721 74.537 129.748 73.354 131.841 73.354C133.934 73.354 134.961 74.55 134.961 75.915C134.961 76.929 134.376 77.67 133.609 78.047C134.571 78.411 135.208 79.256 135.208 80.387C135.208 82.116 133.804 83.234 131.841 83.234C129.891 83.234 128.487 82.116 128.487 80.387C128.487 79.243 129.124 78.398 130.073 78.047ZM131.841 77.579C132.829 77.579 133.544 76.955 133.544 76.097C133.544 75.122 132.881 74.589 131.841 74.589C130.827 74.589 130.151 75.109 130.151 76.11C130.151 76.968 130.853 77.579 131.841 77.579ZM131.841 78.697C130.749 78.697 129.904 79.23 129.904 80.335C129.904 81.297 130.632 81.999 131.841 81.999C133.037 81.999 133.752 81.284 133.752 80.335C133.752 79.269 132.959 78.697 131.841 78.697ZM136.53 75.811C136.53 74.524 137.375 73.783 138.506 73.783C139.637 73.783 140.482 74.524 140.482 75.811C140.482 77.111 139.637 77.852 138.506 77.852C137.375 77.852 136.53 77.111 136.53 75.811ZM138.506 74.68C137.999 74.68 137.687 75.005 137.687 75.811C137.687 76.617 137.999 76.955 138.506 76.955C139 76.955 139.325 76.617 139.325 75.811C139.325 75.005 139 74.68 138.506 74.68ZM137.817 83L143.004 73.952H144.46L139.273 83H137.817ZM141.821 81.128C141.821 79.828 142.666 79.1 143.797 79.1C144.915 79.1 145.76 79.828 145.76 81.128C145.76 82.428 144.915 83.169 143.797 83.169C142.666 83.169 141.821 82.428 141.821 81.128ZM143.784 79.997C143.29 79.997 142.965 80.322 142.965 81.128C142.965 81.934 143.29 82.259 143.784 82.259C144.278 82.259 144.603 81.934 144.603 81.128C144.603 80.322 144.278 79.997 143.784 79.997Z" fill="#4D6090"/>
<path d="M236.165 15V5.965H241.482V7.174H237.647V9.839H240.637V11.048H237.647V15H236.165ZM249.68 11.412C249.68 13.661 248.016 15.117 245.962 15.117C243.921 15.117 242.374 13.661 242.374 11.412C242.374 9.163 243.986 7.72 246.027 7.72C248.068 7.72 249.68 9.163 249.68 11.412ZM243.882 11.412C243.882 13.037 244.844 13.83 245.962 13.83C247.067 13.83 248.159 13.037 248.159 11.412C248.159 9.787 247.106 9.007 246.001 9.007C244.883 9.007 243.882 9.787 243.882 11.412ZM257.632 7.837V15H256.15V14.142C255.682 14.753 254.876 15.104 254.031 15.104C252.354 15.104 251.08 14.051 251.08 12.049V7.837H252.549V11.828C252.549 13.141 253.264 13.817 254.343 13.817C255.435 13.817 256.15 13.141 256.15 11.828V7.837H257.632ZM264.671 15V10.996C264.671 9.683 263.956 9.007 262.877 9.007C261.785 9.007 261.07 9.683 261.07 10.996V15H259.588V7.837H261.07V8.656C261.551 8.071 262.344 7.72 263.202 7.72C264.879 7.72 266.14 8.773 266.14 10.775V15H264.671ZM267.536 11.386C267.536 9.176 269.031 7.72 270.929 7.72C271.865 7.72 272.853 8.162 273.399 8.838V5.38H274.894V15H273.399V13.921C272.944 14.571 272.086 15.117 270.916 15.117C269.031 15.117 267.536 13.596 267.536 11.386ZM273.399 11.412C273.399 9.878 272.346 9.007 271.228 9.007C270.123 9.007 269.057 9.839 269.057 11.386C269.057 12.933 270.123 13.83 271.228 13.83C272.346 13.83 273.399 12.959 273.399 11.412ZM282.184 12.998C282.184 14.207 281.131 15.117 279.441 15.117C277.725 15.117 276.516 14.103 276.451 12.803H277.985C278.037 13.388 278.596 13.869 279.415 13.869C280.273 13.869 280.728 13.505 280.728 13.011C280.728 11.607 276.568 12.413 276.568 9.787C276.568 8.643 277.634 7.72 279.324 7.72C280.949 7.72 282.015 8.591 282.093 10.021H280.611C280.559 9.397 280.078 8.968 279.272 8.968C278.479 8.968 278.063 9.293 278.063 9.774C278.063 11.217 282.106 10.411 282.184 12.998ZM250.751 34.87V33.791C252.987 31.828 255.34 30.112 255.34 28.253C255.34 27.265 254.911 26.589 253.806 26.589C252.766 26.589 252.207 27.317 252.168 28.383H250.738C250.79 26.329 252.116 25.328 253.793 25.328C255.717 25.328 256.809 26.485 256.809 28.188C256.809 30.489 254.469 32.244 252.948 33.635H257.069V34.87H250.751ZM258.137 27.811C258.137 26.524 258.982 25.783 260.113 25.783C261.244 25.783 262.089 26.524 262.089 27.811C262.089 29.111 261.244 29.852 260.113 29.852C258.982 29.852 258.137 29.111 258.137 27.811ZM260.113 26.68C259.606 26.68 259.294 27.005 259.294 27.811C259.294 28.617 259.606 28.955 260.113 28.955C260.607 28.955 260.932 28.617 260.932 27.811C260.932 27.005 260.607 26.68 260.113 26.68ZM259.424 35L264.611 25.952H266.067L260.88 35H259.424ZM263.428 33.128C263.428 31.828 264.273 31.1 265.404 31.1C266.522 31.1 267.367 31.828 267.367 33.128C267.367 34.428 266.522 35.169 265.404 35.169C264.273 35.169 263.428 34.428 263.428 33.128ZM265.391 31.997C264.897 31.997 264.572 32.322 264.572 33.128C264.572 33.934 264.897 34.259 265.391 34.259C265.885 34.259 266.21 33.934 266.21 33.128C266.21 32.322 265.885 31.997 265.391 31.997Z" fill="#4D6090"/>
<path d="M156.551 25.463C156.551 22.759 158.618 20.848 161.166 20.848C163.051 20.848 164.676 21.797 165.365 23.565H163.584C163.103 22.603 162.245 22.148 161.166 22.148C159.372 22.148 158.072 23.422 158.072 25.463C158.072 27.504 159.372 28.791 161.166 28.791C162.245 28.791 163.103 28.336 163.584 27.374H165.365C164.676 29.142 163.051 30.078 161.166 30.078C158.618 30.078 156.551 28.18 156.551 25.463ZM173.925 26.412C173.925 28.661 172.261 30.117 170.207 30.117C168.166 30.117 166.619 28.661 166.619 26.412C166.619 24.163 168.231 22.72 170.272 22.72C172.313 22.72 173.925 24.163 173.925 26.412ZM168.127 26.412C168.127 28.037 169.089 28.83 170.207 28.83C171.312 28.83 172.404 28.037 172.404 26.412C172.404 24.787 171.351 24.007 170.246 24.007C169.128 24.007 168.127 24.787 168.127 26.412ZM185.543 30V25.996C185.543 24.683 184.828 24.007 183.749 24.007C182.657 24.007 181.942 24.683 181.942 25.996V30H180.473V25.996C180.473 24.683 179.758 24.007 178.679 24.007C177.587 24.007 176.872 24.683 176.872 25.996V30H175.39V22.837H176.872V23.656C177.353 23.071 178.133 22.72 178.991 22.72C180.122 22.72 181.071 23.201 181.565 24.137C182.007 23.266 183.021 22.72 184.061 22.72C185.738 22.72 187.012 23.773 187.012 25.775V30H185.543ZM190.38 23.89C190.835 23.292 191.706 22.72 192.876 22.72C194.761 22.72 196.243 24.176 196.243 26.386C196.243 28.596 194.761 30.117 192.876 30.117C191.693 30.117 190.848 29.519 190.38 28.96V33.406H188.898V22.837H190.38V23.89ZM194.735 26.386C194.735 24.839 193.669 24.007 192.551 24.007C191.446 24.007 190.38 24.878 190.38 26.412C190.38 27.959 191.446 28.83 192.551 28.83C193.669 28.83 194.735 27.933 194.735 26.386ZM197.214 26.386C197.214 24.176 198.709 22.72 200.594 22.72C201.803 22.72 202.635 23.292 203.077 23.877V22.837H204.572V30H203.077V28.934C202.622 29.545 201.764 30.117 200.568 30.117C198.709 30.117 197.214 28.596 197.214 26.386ZM203.077 26.412C203.077 24.878 202.024 24.007 200.906 24.007C199.801 24.007 198.735 24.839 198.735 26.386C198.735 27.933 199.801 28.83 200.906 28.83C202.024 28.83 203.077 27.959 203.077 26.412ZM211.602 30V25.996C211.602 24.683 210.887 24.007 209.808 24.007C208.716 24.007 208.001 24.683 208.001 25.996V30H206.519V22.837H208.001V23.656C208.482 23.071 209.275 22.72 210.133 22.72C211.81 22.72 213.071 23.773 213.071 25.775V30H211.602ZM217.782 28.297L219.875 22.837H221.409L217.015 33.367H215.481L216.937 29.883L214.116 22.837H215.767L217.782 28.297ZM180.697 50V41.875H179.488V40.523H182.192V50H180.697ZM184.228 45.138C184.228 42.434 184.956 40.354 187.608 40.354C190.26 40.354 190.988 42.434 190.988 45.138C190.988 47.894 190.26 49.974 187.608 49.974C184.956 49.974 184.228 47.894 184.228 45.138ZM189.532 45.138C189.532 43.37 189.337 41.706 187.608 41.706C185.879 41.706 185.684 43.37 185.684 45.138C185.684 46.997 185.879 48.622 187.608 48.622C189.337 48.622 189.532 46.997 189.532 45.138ZM192.322 42.811C192.322 41.524 193.167 40.783 194.298 40.783C195.429 40.783 196.274 41.524 196.274 42.811C196.274 44.111 195.429 44.852 194.298 44.852C193.167 44.852 192.322 44.111 192.322 42.811ZM194.298 41.68C193.791 41.68 193.479 42.005 193.479 42.811C193.479 43.617 193.791 43.955 194.298 43.955C194.792 43.955 195.117 43.617 195.117 42.811C195.117 42.005 194.792 41.68 194.298 41.68ZM193.609 50L198.796 40.952H200.252L195.065 50H193.609ZM197.613 48.128C197.613 46.828 198.458 46.1 199.589 46.1C200.707 46.1 201.552 46.828 201.552 48.128C201.552 49.428 200.707 50.169 199.589 50.169C198.458 50.169 197.613 49.428 197.613 48.128ZM199.576 46.997C199.082 46.997 198.757 47.322 198.757 48.128C198.757 48.934 199.082 49.259 199.576 49.259C200.07 49.259 200.395 48.934 200.395 48.128C200.395 47.322 200.07 46.997 199.576 46.997Z" fill="#4D6090"/>
<circle cx="25.5" cy="468.5" r="8.5" fill="#22AA30"/>
<path d="M54.516 455.812C54.516 453.304 56.352 451.528 58.692 451.528C60.504 451.528 61.944 452.44 62.568 454.06H61.26C60.804 453.052 59.916 452.488 58.692 452.488C56.94 452.488 55.632 453.76 55.632 455.812C55.632 457.852 56.94 459.124 58.692 459.124C59.916 459.124 60.804 458.56 61.26 457.564H62.568C61.944 459.172 60.504 460.072 58.692 460.072C56.352 460.072 54.516 458.32 54.516 455.812ZM70.4335 456.7C70.4335 458.788 68.9335 460.108 67.0615 460.108C65.2015 460.108 63.7855 458.788 63.7855 456.7C63.7855 454.624 65.2495 453.316 67.1095 453.316C68.9815 453.316 70.4335 454.624 70.4335 456.7ZM64.9015 456.7C64.9015 458.368 65.9215 459.148 67.0615 459.148C68.2015 459.148 69.3175 458.368 69.3175 456.7C69.3175 455.044 68.2255 454.264 67.0975 454.264C65.9455 454.264 64.9015 455.044 64.9015 456.7ZM81.3613 460V456.28C81.3613 454.936 80.6413 454.252 79.5613 454.252C78.4573 454.252 77.7013 454.96 77.7013 456.376V460H76.6213V456.28C76.6213 454.936 75.9013 454.252 74.8213 454.252C73.7173 454.252 72.9613 454.96 72.9613 456.376V460H71.8693V453.424H72.9613V454.372C73.3933 453.676 74.1733 453.304 75.0373 453.304C76.1173 453.304 77.0173 453.784 77.4493 454.768C77.8333 453.82 78.7693 453.304 79.7773 453.304C81.2773 453.304 82.4413 454.24 82.4413 456.124V460H81.3613ZM93.7246 460V456.28C93.7246 454.936 93.0046 454.252 91.9246 454.252C90.8206 454.252 90.0646 454.96 90.0646 456.376V460H88.9846V456.28C88.9846 454.936 88.2646 454.252 87.1846 454.252C86.0806 454.252 85.3246 454.96 85.3246 456.376V460H84.2326V453.424H85.3246V454.372C85.7566 453.676 86.5366 453.304 87.4006 453.304C88.4806 453.304 89.3806 453.784 89.8126 454.768C90.1966 453.82 91.1326 453.304 92.1406 453.304C93.6406 453.304 94.8046 454.24 94.8046 456.124V460H93.7246ZM102.428 453.424V460H101.336V459.028C100.916 459.712 100.112 460.096 99.2359 460.096C97.7239 460.096 96.5359 459.16 96.5359 457.276V453.424H97.6159V457.132C97.6159 458.464 98.3479 459.148 99.4519 459.148C100.58 459.148 101.336 458.452 101.336 457.036V453.424H102.428ZM109.084 460V456.28C109.084 454.936 108.352 454.252 107.248 454.252C106.132 454.252 105.364 454.948 105.364 456.364V460H104.272V453.424H105.364V454.36C105.796 453.676 106.588 453.304 107.476 453.304C109 453.304 110.164 454.24 110.164 456.124V460H109.084ZM111.947 460V453.424H113.039V460H111.947ZM112.511 452.356C112.091 452.356 111.767 452.032 111.767 451.612C111.767 451.192 112.091 450.868 112.511 450.868C112.907 450.868 113.231 451.192 113.231 451.612C113.231 452.032 112.907 452.356 112.511 452.356ZM115.141 458.2V454.324H114.289V453.424H115.141V451.768H116.233V453.424H117.949V454.324H116.233V458.2C116.233 458.848 116.473 459.076 117.145 459.076H117.949V460H116.965C115.801 460 115.141 459.52 115.141 458.2ZM121.768 458.752L123.808 453.424H124.936L120.976 463.096H119.848L121.144 459.928L118.492 453.424H119.704L121.768 458.752ZM134.849 460L134.177 458.14H130.529L129.857 460H128.705L131.729 451.684H132.989L136.001 460H134.849ZM133.865 457.252L132.353 453.028L130.841 457.252H133.865ZM137.319 460V451.12H138.411V460H137.319ZM140.272 460V451.12H141.364V460H140.272ZM149.465 456.7C149.465 458.788 147.965 460.108 146.093 460.108C144.233 460.108 142.817 458.788 142.817 456.7C142.817 454.624 144.281 453.316 146.141 453.316C148.013 453.316 149.465 454.624 149.465 456.7ZM143.933 456.7C143.933 458.368 144.953 459.148 146.093 459.148C147.233 459.148 148.349 458.368 148.349 456.7C148.349 455.044 147.257 454.264 146.129 454.264C144.977 454.264 143.933 455.044 143.933 456.7ZM150.493 456.7C150.493 454.636 151.825 453.316 153.697 453.316C155.329 453.316 156.397 454.156 156.733 455.536H155.557C155.329 454.744 154.669 454.24 153.697 454.24C152.497 454.24 151.609 455.092 151.609 456.7C151.609 458.332 152.497 459.184 153.697 459.184C154.669 459.184 155.317 458.716 155.557 457.888H156.733C156.397 459.196 155.329 460.108 153.697 460.108C151.825 460.108 150.493 458.788 150.493 456.7ZM157.782 456.688C157.782 454.636 159.138 453.316 160.902 453.316C162.126 453.316 162.966 453.94 163.35 454.624V453.424H164.454V460H163.35V458.776C162.954 459.484 162.102 460.108 160.89 460.108C159.138 460.108 157.782 458.728 157.782 456.688ZM163.35 456.7C163.35 455.176 162.318 454.264 161.118 454.264C159.918 454.264 158.898 455.14 158.898 456.688C158.898 458.236 159.918 459.148 161.118 459.148C162.318 459.148 163.35 458.248 163.35 456.7ZM166.539 458.2V454.324H165.687V453.424H166.539V451.768H167.631V453.424H169.347V454.324H167.631V458.2C167.631 458.848 167.871 459.076 168.543 459.076H169.347V460H168.363C167.199 460 166.539 459.52 166.539 458.2ZM170.67 460V453.424H171.762V460H170.67ZM171.234 452.356C170.814 452.356 170.49 452.032 170.49 451.612C170.49 451.192 170.814 450.868 171.234 450.868C171.63 450.868 171.954 451.192 171.954 451.612C171.954 452.032 171.63 452.356 171.234 452.356ZM179.863 456.7C179.863 458.788 178.363 460.108 176.491 460.108C174.631 460.108 173.215 458.788 173.215 456.7C173.215 454.624 174.679 453.316 176.539 453.316C178.411 453.316 179.863 454.624 179.863 456.7ZM174.331 456.7C174.331 458.368 175.351 459.148 176.491 459.148C177.631 459.148 178.747 458.368 178.747 456.7C178.747 455.044 177.655 454.264 176.527 454.264C175.375 454.264 174.331 455.044 174.331 456.7ZM186.111 460V456.28C186.111 454.936 185.379 454.252 184.275 454.252C183.159 454.252 182.391 454.948 182.391 456.364V460H181.299V453.424H182.391V454.36C182.823 453.676 183.615 453.304 184.503 453.304C186.027 453.304 187.191 454.24 187.191 456.124V460H186.111Z" fill="#4D6090"/>
<path d="M54.504 470.878H63.198V473.164L58.68 484H55.53L60.102 473.506H54.504V470.878ZM65.2888 470.842H73.6948V473.542H68.0788V476.026C68.5468 475.504 69.4468 475.126 70.4908 475.126C73.3528 475.126 74.4508 477.304 74.4508 479.428C74.4508 482.2 72.8308 484 69.9148 484C66.9628 484 65.2528 482.362 65.1448 480.094H68.1508C68.2768 480.778 68.7988 481.39 69.8068 481.39C70.9768 481.39 71.4808 480.544 71.4808 479.41C71.4808 478.222 70.8868 477.592 69.7888 477.592C68.9248 477.592 68.4208 478.06 68.2588 478.672H65.2888V470.842ZM75.8978 474.172C75.8978 472.174 77.1938 471.13 78.9038 471.13C80.6138 471.13 81.8918 472.174 81.8918 474.172C81.8918 476.17 80.6138 477.214 78.9038 477.214C77.1938 477.214 75.8978 476.17 75.8978 474.172ZM78.8858 472.93C78.3458 472.93 78.0218 473.308 78.0218 474.172C78.0218 475.018 78.3458 475.396 78.8858 475.396C79.4258 475.396 79.7678 475.018 79.7678 474.172C79.7678 473.308 79.4258 472.93 78.8858 472.93ZM78.2198 484L85.1498 471.328H88.1198L81.1898 484H78.2198ZM84.4658 481.156C84.4658 479.14 85.7438 478.114 87.4538 478.114C89.1638 478.114 90.4418 479.14 90.4418 481.156C90.4418 483.154 89.1638 484.198 87.4538 484.198C85.7438 484.198 84.4658 483.154 84.4658 481.156ZM87.4358 479.914C86.8958 479.914 86.5718 480.31 86.5718 481.156C86.5718 482.002 86.8958 482.38 87.4358 482.38C87.9758 482.38 88.3178 482.002 88.3178 481.156C88.3178 480.31 87.9758 479.914 87.4358 479.914Z" fill="black"/>
<circle cx="240.5" cy="468.5" r="8.5" fill="#154EFF"/>
<path d="M265.516 454.812C265.516 452.304 267.352 450.528 269.692 450.528C271.504 450.528 272.944 451.44 273.568 453.06H272.26C271.804 452.052 270.916 451.488 269.692 451.488C267.94 451.488 266.632 452.76 266.632 454.812C266.632 456.852 267.94 458.124 269.692 458.124C270.916 458.124 271.804 457.56 272.26 456.564H273.568C272.944 458.172 271.504 459.072 269.692 459.072C267.352 459.072 265.516 457.32 265.516 454.812ZM281.434 455.7C281.434 457.788 279.934 459.108 278.062 459.108C276.202 459.108 274.786 457.788 274.786 455.7C274.786 453.624 276.25 452.316 278.11 452.316C279.982 452.316 281.434 453.624 281.434 455.7ZM275.902 455.7C275.902 457.368 276.922 458.148 278.062 458.148C279.202 458.148 280.318 457.368 280.318 455.7C280.318 454.044 279.226 453.264 278.098 453.264C276.946 453.264 275.902 454.044 275.902 455.7ZM292.361 459V455.28C292.361 453.936 291.641 453.252 290.561 453.252C289.457 453.252 288.701 453.96 288.701 455.376V459H287.621V455.28C287.621 453.936 286.901 453.252 285.821 453.252C284.717 453.252 283.961 453.96 283.961 455.376V459H282.869V452.424H283.961V453.372C284.393 452.676 285.173 452.304 286.037 452.304C287.117 452.304 288.017 452.784 288.449 453.768C288.833 452.82 289.769 452.304 290.777 452.304C292.277 452.304 293.441 453.24 293.441 455.124V459H292.361ZM296.325 453.636C296.721 452.94 297.585 452.316 298.785 452.316C300.549 452.316 301.905 453.636 301.905 455.688C301.905 457.728 300.549 459.108 298.785 459.108C297.585 459.108 296.733 458.46 296.325 457.788V462.12H295.233V452.424H296.325V453.636ZM300.789 455.688C300.789 454.14 299.769 453.264 298.557 453.264C297.369 453.264 296.325 454.176 296.325 455.7C296.325 457.248 297.369 458.148 298.557 458.148C299.769 458.148 300.789 457.236 300.789 455.688ZM302.934 455.688C302.934 453.636 304.29 452.316 306.054 452.316C307.278 452.316 308.118 452.94 308.502 453.624V452.424H309.606V459H308.502V457.776C308.106 458.484 307.254 459.108 306.042 459.108C304.29 459.108 302.934 457.728 302.934 455.688ZM308.502 455.7C308.502 454.176 307.47 453.264 306.27 453.264C305.07 453.264 304.05 454.14 304.05 455.688C304.05 457.236 305.07 458.148 306.27 458.148C307.47 458.148 308.502 457.248 308.502 455.7ZM316.263 459V455.28C316.263 453.936 315.531 453.252 314.427 453.252C313.311 453.252 312.543 453.948 312.543 455.364V459H311.451V452.424H312.543V453.36C312.975 452.676 313.767 452.304 314.655 452.304C316.179 452.304 317.343 453.24 317.343 455.124V459H316.263ZM321.623 457.752L323.663 452.424H324.791L320.831 462.096H319.703L320.999 458.928L318.347 452.424H319.559L321.623 457.752ZM324.941 460.716L325.817 457.488H327.017L325.673 460.716H324.941ZM331.467 459V450.636H336.195V451.524H332.559V454.344H335.511V455.232H332.559V459H331.467ZM343.754 455.7C343.754 457.788 342.254 459.108 340.382 459.108C338.522 459.108 337.106 457.788 337.106 455.7C337.106 453.624 338.57 452.316 340.43 452.316C342.302 452.316 343.754 453.624 343.754 455.7ZM338.222 455.7C338.222 457.368 339.242 458.148 340.382 458.148C341.522 458.148 342.638 457.368 342.638 455.7C342.638 454.044 341.546 453.264 340.418 453.264C339.266 453.264 338.222 454.044 338.222 455.7ZM351.022 452.424V459H349.93V458.028C349.51 458.712 348.706 459.096 347.83 459.096C346.318 459.096 345.13 458.16 345.13 456.276V452.424H346.21V456.132C346.21 457.464 346.942 458.148 348.046 458.148C349.174 458.148 349.93 457.452 349.93 456.036V452.424H351.022ZM357.677 459V455.28C357.677 453.936 356.945 453.252 355.841 453.252C354.725 453.252 353.957 453.948 353.957 455.364V459H352.865V452.424H353.957V453.36C354.389 452.676 355.181 452.304 356.069 452.304C357.593 452.304 358.757 453.24 358.757 455.124V459H357.677ZM360.133 455.688C360.133 453.636 361.489 452.316 363.265 452.316C364.297 452.316 365.245 452.844 365.701 453.6V450.12H366.805V459H365.701V457.764C365.305 458.496 364.453 459.108 363.253 459.108C361.489 459.108 360.133 457.728 360.133 455.688ZM365.701 455.7C365.701 454.176 364.669 453.264 363.469 453.264C362.269 453.264 361.249 454.14 361.249 455.688C361.249 457.236 362.269 458.148 363.469 458.148C364.669 458.148 365.701 457.248 365.701 455.7ZM368.243 455.688C368.243 453.636 369.599 452.316 371.363 452.316C372.587 452.316 373.427 452.94 373.811 453.624V452.424H374.915V459H373.811V457.776C373.415 458.484 372.563 459.108 371.351 459.108C369.599 459.108 368.243 457.728 368.243 455.688ZM373.811 455.7C373.811 454.176 372.779 453.264 371.579 453.264C370.379 453.264 369.359 454.14 369.359 455.688C369.359 457.236 370.379 458.148 371.579 458.148C372.779 458.148 373.811 457.248 373.811 455.7ZM377 457.2V453.324H376.148V452.424H377V450.768H378.092V452.424H379.808V453.324H378.092V457.2C378.092 457.848 378.332 458.076 379.004 458.076H379.808V459H378.824C377.66 459 377 458.52 377 457.2ZM381.131 459V452.424H382.223V459H381.131ZM381.695 451.356C381.275 451.356 380.951 451.032 380.951 450.612C380.951 450.192 381.275 449.868 381.695 449.868C382.091 449.868 382.415 450.192 382.415 450.612C382.415 451.032 382.091 451.356 381.695 451.356ZM390.324 455.7C390.324 457.788 388.824 459.108 386.952 459.108C385.092 459.108 383.676 457.788 383.676 455.7C383.676 453.624 385.14 452.316 387 452.316C388.872 452.316 390.324 453.624 390.324 455.7ZM384.792 455.7C384.792 457.368 385.812 458.148 386.952 458.148C388.092 458.148 389.208 457.368 389.208 455.7C389.208 454.044 388.116 453.264 386.988 453.264C385.836 453.264 384.792 454.044 384.792 455.7ZM396.572 459V455.28C396.572 453.936 395.84 453.252 394.736 453.252C393.62 453.252 392.852 453.948 392.852 455.364V459H391.76V452.424H392.852V453.36C393.284 452.676 394.076 452.304 394.964 452.304C396.488 452.304 397.652 453.24 397.652 455.124V459H396.572ZM398.488 460.716L399.364 457.488H400.564L399.22 460.716H398.488ZM410.63 459L409.958 457.14H406.31L405.638 459H404.486L407.51 450.684H408.77L411.782 459H410.63ZM409.646 456.252L408.134 452.028L406.622 456.252H409.646ZM412.692 455.688C412.692 453.636 414.048 452.316 415.824 452.316C416.856 452.316 417.804 452.844 418.26 453.6V450.12H419.364V459H418.26V457.764C417.864 458.496 417.012 459.108 415.812 459.108C414.048 459.108 412.692 457.728 412.692 455.688ZM418.26 455.7C418.26 454.176 417.228 453.264 416.028 453.264C414.828 453.264 413.808 454.14 413.808 455.688C413.808 457.236 414.828 458.148 416.028 458.148C417.228 458.148 418.26 457.248 418.26 455.7ZM420.429 452.424H421.605L423.657 457.992L425.697 452.424H426.861L424.281 459H423.009L420.429 452.424ZM427.936 459V452.424H429.028V459H427.936ZM428.5 451.356C428.08 451.356 427.756 451.032 427.756 450.612C427.756 450.192 428.08 449.868 428.5 449.868C428.896 449.868 429.22 450.192 429.22 450.612C429.22 451.032 428.896 451.356 428.5 451.356ZM435.617 457.212C435.617 458.292 434.669 459.108 433.217 459.108C431.681 459.108 430.601 458.268 430.529 457.068H431.657C431.717 457.704 432.281 458.184 433.205 458.184C434.069 458.184 434.549 457.752 434.549 457.212C434.549 455.748 430.661 456.6 430.661 454.152C430.661 453.144 431.609 452.316 433.073 452.316C434.525 452.316 435.485 453.096 435.557 454.38H434.465C434.417 453.72 433.913 453.24 433.037 453.24C432.233 453.24 431.753 453.624 431.753 454.152C431.753 455.712 435.569 454.86 435.617 457.212ZM443.398 455.7C443.398 457.788 441.898 459.108 440.026 459.108C438.166 459.108 436.75 457.788 436.75 455.7C436.75 453.624 438.214 452.316 440.074 452.316C441.946 452.316 443.398 453.624 443.398 455.7ZM437.866 455.7C437.866 457.368 438.886 458.148 440.026 458.148C441.166 458.148 442.282 457.368 442.282 455.7C442.282 454.044 441.19 453.264 440.062 453.264C438.91 453.264 437.866 454.044 437.866 455.7ZM445.926 455.424V459H444.834V452.424H445.926V453.492C446.298 452.76 447.006 452.304 448.05 452.304V453.432H447.762C446.718 453.432 445.926 453.9 445.926 455.424ZM454.039 457.212C454.039 458.292 453.091 459.108 451.639 459.108C450.103 459.108 449.023 458.268 448.951 457.068H450.079C450.139 457.704 450.703 458.184 451.627 458.184C452.491 458.184 452.971 457.752 452.971 457.212C452.971 455.748 449.083 456.6 449.083 454.152C449.083 453.144 450.031 452.316 451.495 452.316C452.947 452.316 453.907 453.096 453.979 454.38H452.887C452.839 453.72 452.335 453.24 451.459 453.24C450.655 453.24 450.175 453.624 450.175 454.152C450.175 455.712 453.991 454.86 454.039 457.212ZM454.632 460.716L455.508 457.488H456.708L455.364 460.716H454.632ZM466.594 456.72C466.594 457.908 465.622 459.084 463.81 459.084C462.13 459.084 460.942 458.148 460.918 456.768H462.082C462.154 457.464 462.646 458.16 463.81 458.16C464.866 458.16 465.49 457.56 465.49 456.768C465.49 454.512 460.966 455.952 460.966 452.844C460.966 451.464 462.082 450.528 463.738 450.528C465.334 450.528 466.378 451.404 466.51 452.676H465.31C465.238 452.112 464.71 451.476 463.69 451.464C462.79 451.44 462.082 451.908 462.082 452.808C462.082 454.968 466.594 453.624 466.594 456.72ZM470.997 453.24C469.929 453.24 469.041 453.948 468.921 455.232H473.073C473.085 453.948 472.125 453.24 470.997 453.24ZM474.069 456.972C473.733 458.172 472.677 459.108 471.045 459.108C469.173 459.108 467.793 457.788 467.793 455.7C467.793 453.624 469.125 452.316 471.045 452.316C472.953 452.316 474.201 453.66 474.201 455.46C474.201 455.7 474.189 455.892 474.165 456.12H468.909C468.993 457.452 469.929 458.184 471.045 458.184C472.029 458.184 472.653 457.68 472.893 456.972H474.069ZM478.439 453.24C477.371 453.24 476.483 453.948 476.363 455.232H480.515C480.527 453.948 479.567 453.24 478.439 453.24ZM481.511 456.972C481.175 458.172 480.119 459.108 478.487 459.108C476.615 459.108 475.235 457.788 475.235 455.7C475.235 453.624 476.567 452.316 478.487 452.316C480.395 452.316 481.643 453.66 481.643 455.46C481.643 455.7 481.631 455.892 481.607 456.12H476.351C476.435 457.452 477.371 458.184 478.487 458.184C479.471 458.184 480.095 457.68 480.335 456.972H481.511ZM482.676 455.688C482.676 453.636 484.032 452.316 485.808 452.316C486.84 452.316 487.788 452.844 488.244 453.6V450.12H489.348V459H488.244V457.764C487.848 458.496 486.996 459.108 485.796 459.108C484.032 459.108 482.676 457.728 482.676 455.688ZM488.244 455.7C488.244 454.176 487.212 453.264 486.012 453.264C484.812 453.264 483.792 454.14 483.792 455.688C483.792 457.236 484.812 458.148 486.012 458.148C487.212 458.148 488.244 457.248 488.244 455.7ZM492.262 458.328C492.262 458.748 491.938 459.072 491.542 459.072C491.122 459.072 490.798 458.748 490.798 458.328C490.798 457.908 491.122 457.584 491.542 457.584C491.938 457.584 492.262 457.908 492.262 458.328Z" fill="#4D6090"/>
<path d="M265.702 483.82V481.534C268.492 479.23 271.462 476.944 271.462 474.73C271.462 473.776 271.03 473.164 270.094 473.164C269.176 473.164 268.636 473.884 268.636 475.126H265.666C265.756 471.94 267.826 470.572 270.22 470.572C273.208 470.572 274.54 472.318 274.54 474.532C274.54 477.412 271.966 479.716 269.878 481.318H274.738V483.82H265.702ZM276.939 470.842H285.345V473.542H279.729V476.026C280.197 475.504 281.097 475.126 282.141 475.126C285.003 475.126 286.101 477.304 286.101 479.428C286.101 482.2 284.481 484 281.565 484C278.613 484 276.903 482.362 276.795 480.094H279.801C279.927 480.778 280.449 481.39 281.457 481.39C282.627 481.39 283.131 480.544 283.131 479.41C283.131 478.222 282.537 477.592 281.439 477.592C280.575 477.592 280.071 478.06 279.909 478.672H276.939V470.842ZM287.548 474.172C287.548 472.174 288.844 471.13 290.554 471.13C292.264 471.13 293.542 472.174 293.542 474.172C293.542 476.17 292.264 477.214 290.554 477.214C288.844 477.214 287.548 476.17 287.548 474.172ZM290.536 472.93C289.996 472.93 289.672 473.308 289.672 474.172C289.672 475.018 289.996 475.396 290.536 475.396C291.076 475.396 291.418 475.018 291.418 474.172C291.418 473.308 291.076 472.93 290.536 472.93ZM289.87 484L296.8 471.328H299.77L292.84 484H289.87ZM296.116 481.156C296.116 479.14 297.394 478.114 299.104 478.114C300.814 478.114 302.092 479.14 302.092 481.156C302.092 483.154 300.814 484.198 299.104 484.198C297.394 484.198 296.116 483.154 296.116 481.156ZM299.086 479.914C298.546 479.914 298.222 480.31 298.222 481.156C298.222 482.002 298.546 482.38 299.086 482.38C299.626 482.38 299.968 482.002 299.968 481.156C299.968 480.31 299.626 479.914 299.086 479.914Z" fill="black"/>
<rect x="0.5" y="437.5" width="526" height="62" rx="12.5" stroke="#EFEFFF"/>
</svg>
