<svg width="17" height="17" viewBox="0 0 17 17" fill="none" xmlns="http://www.w3.org/2000/svg">
<path d="M15.4821 10.0179H10.3214C10.1538 10.0179 10.0179 10.1538 10.0179 10.3214V15.4821C10.0179 16.3204 9.33823 17 8.5 17C7.66177 17 6.98214 16.3204 6.98214 15.4821V10.3214C6.98214 10.1538 6.84622 10.0179 6.67857 10.0179H1.51786C0.679626 10.0179 0 9.33823 0 8.5C0 7.66177 0.679626 6.98214 1.51786 6.98214H6.67857C6.84622 6.98214 6.98214 6.84622 6.98214 6.67857V1.51786C6.98214 0.679626 7.66177 0 8.5 0C9.33823 0 10.0179 0.679626 10.0179 1.51786V6.67857C10.0179 6.84622 10.1538 6.98214 10.3214 6.98214H15.4821C16.3204 6.98214 17 7.66177 17 8.5C17 9.33823 16.3204 10.0179 15.4821 10.0179Z" fill="white"/>
</svg>
