<svg width="147" height="41" viewBox="0 0 147 41" fill="none" xmlns="http://www.w3.org/2000/svg">
<path d="M22.4582 0.00548665C23.3654 0.190763 24.2753 0.363689 25.1784 0.564062C35.09 2.75993 42.0838 12.6317 40.85 22.6778C39.6985 32.0542 32.7843 39.3129 23.6303 40.7553C12.8252 42.4585 2.37429 35.0872 0.381536 24.359C0.258018 23.692 0.127635 23.0278 0 22.3608V18.6292C0.0747473 18.3954 0.134349 18.157 0.178421 17.9155C1.16519 9.85258 7.05558 2.98501 14.9072 0.794627C16.0957 0.463874 17.3199 0.262132 18.5276 0L22.4582 0.00548665ZM37.3284 28.6698C40.5357 23.0305 40.3903 13.2109 33.2921 6.73171C26.0828 0.144102 15.4589 -0.0150988 8.29763 6.15666C0.886576 12.5439 0.231925 22.531 3.62317 28.63C6.01255 27.8065 8.37449 26.9309 10.7721 26.1747C11.4405 25.9648 11.6408 25.7177 11.6367 25.0439C11.6093 20.2624 11.6202 15.4809 11.623 10.6994C11.623 9.45458 11.9057 9.17873 13.1683 9.17735C17.9398 9.17735 22.7117 9.17735 27.484 9.17735C28.8908 9.17735 29.1186 9.39832 29.1186 10.7831C29.1186 15.3779 29.1474 19.9783 29.0966 24.569C29.087 25.5215 29.2613 26.0855 30.3112 26.1775C30.7669 26.2173 31.2156 26.4067 31.6534 26.5673C33.5515 27.259 35.4399 27.9616 37.3284 28.6698ZM17.0537 27.2425C17.3281 26.8088 17.5299 26.5398 17.6754 26.2434C18.2243 25.1084 19.0862 24.6623 20.3749 24.8051C21.7857 24.9602 23.2158 24.9506 24.6431 25.0137C24.6771 24.9091 24.701 24.8016 24.7145 24.6925C24.7145 22.3594 24.742 20.0346 24.7145 17.7069C24.6857 15.1982 22.7533 13.2823 20.3406 13.3152C17.9992 13.3481 16.0587 15.3066 16.0518 17.7234C16.0339 24.4908 16.0518 31.2596 16.0353 38.0269C16.0353 38.5869 16.1726 38.8504 16.7709 38.9629C19.1346 39.413 21.5608 39.4269 23.9295 39.0041C24.5567 38.8902 24.7406 38.6596 24.7337 38.0434C24.7035 35.3741 24.7461 32.7033 24.7021 30.034C24.6925 29.3807 24.9052 29.0925 25.5132 28.921C26.3367 28.689 27.1299 28.372 28.1661 28.011C24.4126 27.0723 20.8374 27.0874 17.0592 27.2425H17.0537ZM29.1666 37.1884C32.0562 35.6725 34.5086 33.4407 36.2894 30.7065L29.1721 28.081L29.1666 37.1884ZM11.5791 37.0608V28.0275L4.61954 30.5884C6.49015 33.417 8.69562 35.477 11.5846 37.0608H11.5791Z" fill="#2E4276"/>
<path d="M146.725 21.055H143.582V11.9106L143.349 11.8008C142.038 13.7799 140.728 15.7589 139.358 17.8244C138.012 15.7918 136.739 13.8691 135.466 11.9477L135.249 12.0108V21.0098H132.195V6.52389C133.21 6.52389 134.228 6.49095 135.241 6.54859C135.471 6.56231 135.744 6.85327 135.893 7.08384C137.044 8.88719 138.171 10.7056 139.387 12.6531C139.753 12.0835 140.073 11.6046 140.372 11.1174C141.196 9.80122 142.031 8.49605 142.815 7.15657C143.106 6.66113 143.448 6.47997 144.013 6.50879C144.915 6.55408 145.821 6.52252 146.725 6.52389V21.055Z" fill="#2E4276"/>
<path d="M95.4288 6.5733H98.5373V21.0701C97.7139 21.0701 96.8795 21.1154 96.067 21.0427C95.8296 21.0221 95.5825 20.6982 95.4027 20.4649C93.4164 17.8784 91.4374 15.2859 89.4657 12.6874C89.3023 12.4747 89.1225 12.2757 88.7794 11.864V21.0194H85.6641V6.52801C86.5767 6.52801 87.4482 6.47998 88.3032 6.55683C88.5708 6.58016 88.8522 6.89994 89.0512 7.14972C90.9465 9.61183 92.8212 12.0904 94.7042 14.5608C94.884 14.7955 95.0802 15.0178 95.4357 15.4487L95.4288 6.5733Z" fill="#2E4276"/>
<path d="M74.0453 21.3251C69.5932 21.277 66.3597 18.0217 66.4188 13.6615C66.4833 9.43307 69.8882 6.22435 74.2635 6.27101C78.6388 6.31767 81.96 9.60736 81.9188 13.8509C81.8777 18.1205 78.4535 21.3717 74.0453 21.3251ZM69.7634 13.7768C69.7716 16.4296 71.6683 18.4169 74.1894 18.4142C76.6598 18.4142 78.5811 16.4008 78.5811 13.8262C78.5811 11.2309 76.6049 9.17505 74.1194 9.1874C71.634 9.19975 69.7551 11.1609 69.7634 13.774V13.7768Z" fill="#2E4276"/>
<path d="M120.52 15.1166V18.2307H128.327V21.0235H117.355V6.59668H128.198V9.2825H120.542V12.3018H127.248V15.1166H120.52Z" fill="#2E4276"/>
<path d="M52.3223 6.53852C54.6293 6.53852 56.843 6.45206 59.0471 6.56048C61.8427 6.69772 63.7394 8.67538 63.8094 11.3269C63.8862 14.1582 62.1804 16.199 59.3312 16.5627C58.1056 16.7191 56.8609 16.6999 55.5145 16.7726V21.0011H52.3223V6.53852ZM55.5282 13.7616C56.6879 13.7616 57.8078 13.8631 58.8989 13.7314C59.9158 13.6092 60.5458 12.7034 60.5925 11.6837C60.6323 10.6901 60.0737 9.71979 59.1349 9.56333C57.967 9.36845 56.7634 9.38355 55.5282 9.30532V13.7616Z" fill="#2E4276"/>
<path d="M106.36 9.47143H101.949V6.58936H113.914V9.46045H109.517V21.0217H106.36V9.47143Z" fill="#2E4276"/>
<path d="M96.1508 33.3961C96.708 31.7354 97.187 30.3054 97.6605 28.8753C97.7291 28.6694 97.7565 28.4375 97.8704 28.2618C98.0236 28.0625 98.196 27.8786 98.3851 27.7129C98.5333 27.8872 98.7502 28.0368 98.8202 28.2371C99.3184 29.6727 99.7809 31.1192 100.267 32.5589C100.334 32.7593 100.42 32.9541 100.569 33.3288C101.185 31.5447 101.726 29.9293 102.32 28.3263C102.421 28.0519 102.745 27.8638 102.966 27.6401L103.241 27.846C102.493 29.965 101.753 32.0854 100.986 34.1976C100.928 34.3581 100.648 34.5832 100.543 34.5516C100.438 34.5118 100.342 34.4509 100.262 34.3728C100.181 34.2947 100.118 34.201 100.075 34.0974C99.634 32.8732 99.2305 31.6366 98.8092 30.4056C98.6802 30.0281 98.5347 29.6562 98.3192 29.0743C97.7456 30.7514 97.2542 32.2418 96.7204 33.7186C96.6065 34.0329 96.3457 34.2936 96.1522 34.5777C95.9285 34.284 95.6183 34.0205 95.4962 33.6898C94.7812 31.7505 94.11 29.7948 93.4238 27.8446C94.0579 27.5701 94.2473 27.8803 94.4078 28.362C94.9458 29.965 95.5182 31.5598 96.1508 33.3961Z" fill="#2E4276"/>
<path d="M57.9774 27.8097V34.6882C57.5574 34.3904 57.2184 34.2436 57.0167 33.9897C55.7321 32.4031 54.4764 30.7919 53.0216 28.9488V34.4384L52.6799 34.5757C52.5344 34.3575 52.2682 34.1406 52.2682 33.9197C52.2352 31.9077 52.2489 29.8957 52.2489 27.5791C52.7279 27.8536 53.13 27.9579 53.3469 28.2186C54.6205 29.775 55.8515 31.367 57.3035 32.9151C57.3035 31.4205 57.3035 29.9259 57.3035 28.4314C57.2871 27.9702 57.3214 27.5983 57.9774 27.8097Z" fill="#2E4276"/>
<path d="M111.13 31.0361C111.168 29.0516 112.691 27.5625 114.657 27.5872C116.597 27.6119 118.102 29.1778 118.081 31.1555C118.081 31.6233 117.987 32.0864 117.804 32.5173C117.622 32.9481 117.355 33.3381 117.02 33.664C116.684 33.9899 116.286 34.2452 115.85 34.4147C115.414 34.5843 114.949 34.6646 114.481 34.651C112.538 34.6085 111.091 33.0494 111.13 31.0361ZM114.618 33.9346C116.161 33.9346 117.312 32.7132 117.299 31.0979C117.286 29.5045 116.105 28.2954 114.566 28.3009C113.028 28.3064 111.886 29.499 111.902 31.1335C111.919 32.7681 113.066 33.9388 114.618 33.9346Z" fill="#2E4276"/>
<path d="M130.362 31.8045C131.031 32.7062 131.636 33.5214 132.24 34.338C132.193 34.4176 132.147 34.4972 132.103 34.5768C131.784 34.4107 131.416 34.2954 131.158 34.0635C130.857 33.7924 130.61 33.4664 130.431 33.1028C129.842 31.8896 128.869 31.6439 127.539 31.9637V34.3709L127.265 34.5631C127.093 34.3901 126.775 34.22 126.772 34.0457C126.738 31.9774 126.75 29.9092 126.75 27.8025C128.08 27.8025 129.323 27.7092 130.544 27.8341C131.389 27.9206 132.004 28.5052 132.129 29.4289C132.266 30.4115 131.891 31.0758 130.972 31.5328C130.804 31.6151 130.633 31.6851 130.362 31.8045ZM127.576 31.1252C128.537 31.1252 129.37 31.1842 130.196 31.1073C130.873 31.0428 131.323 30.605 131.389 29.8872C131.452 29.2093 131.142 28.6521 130.496 28.5533C129.542 28.4009 128.558 28.4242 127.576 28.3721V31.1252Z" fill="#2E4276"/>
<path d="M67.8061 31.4476V33.8713C68.9479 33.8713 70.0582 33.8493 71.1644 33.8878C71.4389 33.896 71.7134 34.0977 71.9878 34.2117C71.7024 34.3118 71.4183 34.493 71.1301 34.4999C69.7988 34.5314 68.4662 34.5136 67.0801 34.5136V27.7325C68.5746 27.7325 70.0555 27.7242 71.5363 27.7462C71.6598 27.7462 71.7806 27.9452 71.9027 28.0522C71.7435 28.1552 71.5885 28.3418 71.4265 28.3473C70.588 28.3789 69.7467 28.3652 68.9054 28.3665H67.8335V30.7353H71.4416L71.5651 31.0633C71.3304 31.1923 71.1013 31.4202 70.8611 31.4298C69.873 31.4723 68.8821 31.4476 67.8061 31.4476Z" fill="#2E4276"/>
<path d="M146.437 28.0298L143.526 30.5413L146.519 34.3608L146.352 34.601C146.022 34.4198 145.61 34.3114 145.378 34.052C144.604 33.1668 143.895 32.2253 143.12 31.255C142.325 32.0345 141.36 32.6274 141.628 33.9491C141.665 34.1316 141.396 34.3745 141.268 34.5914L140.979 34.4651V27.8253L141.206 27.6757C141.355 27.8898 141.618 28.0998 141.63 28.3208C141.676 29.3926 141.651 30.4672 141.651 31.7999C142.909 30.4823 143.973 29.3295 145.082 28.2316C145.369 27.9475 145.807 27.8198 146.18 27.6099L146.437 28.0298Z" fill="#2E4276"/>
<path d="M83.0978 28.3913C83.0978 30.2894 83.0978 32.0488 83.0978 33.8096C83.0978 34.2474 83.0978 34.6605 82.3745 34.4176V28.3927C81.713 28.3927 81.1311 28.416 80.5533 28.3776C80.3955 28.3666 80.2486 28.1704 80.0977 28.0592C80.2472 27.9494 80.3941 27.7449 80.5451 27.7422C82.009 27.7175 83.4702 27.7175 84.9286 27.7422C85.0796 27.7422 85.2278 27.9521 85.3774 28.0633C85.2223 28.1731 85.0741 28.3666 84.9121 28.3762C84.3343 28.4146 83.7497 28.3913 83.0978 28.3913Z" fill="#2E4276"/>
</svg>
