<svg width="20" height="17" viewBox="0 0 20 17" fill="none" xmlns="http://www.w3.org/2000/svg">
<g id="Group">
<path id="Vector" d="M1 14.4344L4.76548 10.6512C5.2569 10.1575 5.92338 9.88014 6.61833 9.88014H11.5347C11.715 9.88014 11.8611 10.027 11.8611 10.2081C11.8611 11.4675 10.8449 12.1606 9.59132 12.1606H8.49967H12.7828C13.5133 12.1606 14.1982 11.8039 14.6194 11.2042L15.9832 9.26231C16.6476 8.3163 17.9777 8.14911 18.8535 8.90153L19 9.02734L15.8298 13.7C15.2072 14.6177 14.1732 15.1668 13.0678 15.1668H7.92796C7.38628 15.1668 6.86682 15.383 6.4837 15.7677L5.82595 16.4303H1V14.4344Z" stroke="#697F9B" stroke-miterlimit="10" stroke-linecap="round" stroke-linejoin="round"/>
<g id="Group_2">
<path id="Vector_2" d="M9.99857 7.48487C11.7841 7.48487 13.2315 6.03318 13.2315 4.24243C13.2315 2.45169 11.7841 1 9.99857 1C8.21307 1 6.76562 2.45169 6.76562 4.24243C6.76562 6.03318 8.21307 7.48487 9.99857 7.48487Z" stroke="#697F9B" stroke-miterlimit="10" stroke-linecap="round" stroke-linejoin="round"/>
</g>
</g>
</svg>
