<svg width="24" height="21" viewBox="0 0 24 21" fill="none" xmlns="http://www.w3.org/2000/svg">
<g id="Group 64020">
<path id="Vector" d="M21.154 2.92215C21.0275 1.28979 19.6598 0 17.9956 0H3.16896C1.42159 0 0 1.42159 0 3.16896V17.831C0 19.5784 1.42159 21 3.16896 21H20.2974C22.0448 21 23.4664 19.5784 23.4664 17.831V5.9725C23.4663 4.52199 22.4864 3.29688 21.154 2.92215ZM3.16896 1.48039H17.9956C18.8013 1.48039 19.4764 2.04761 19.6439 2.80358H3.16896C2.54854 2.80358 1.96966 2.9835 1.48039 3.2929V3.16896C1.48039 2.23789 2.23789 1.48039 3.16896 1.48039ZM20.2974 19.5196H3.16896C2.23789 19.5196 1.48039 18.7621 1.48039 17.831V5.9725C1.48039 5.04143 2.23789 4.28393 3.16896 4.28393H20.2974C21.2285 4.28393 21.986 5.04143 21.986 5.9725V8.55569H17.266C15.3957 8.55569 13.874 10.0774 13.874 11.9478C13.874 13.8182 15.3957 15.3399 17.266 15.3399H21.9859V17.831C21.9859 18.7621 21.2284 19.5196 20.2974 19.5196ZM21.9859 13.8595H17.266C16.212 13.8595 15.3544 13.0019 15.3544 11.9478C15.3544 10.8936 16.212 10.0361 17.266 10.0361H21.9859V13.8595Z" fill="#292D32"/>
<path id="Vector_2" d="M17.5407 12.7744C17.9663 12.7744 18.3113 12.4294 18.3113 12.0038C18.3113 11.5782 17.9663 11.2332 17.5407 11.2332C17.115 11.2332 16.77 11.5782 16.77 12.0038C16.77 12.4294 17.115 12.7744 17.5407 12.7744Z" fill="#292D32"/>
</g>
</svg>
