<svg width="31" height="31" viewBox="0 0 31 31" fill="none" xmlns="http://www.w3.org/2000/svg">
<g id="Group 64416">
<circle id="Ellipse 851" cx="15.5" cy="15.5" r="15.5" fill=""/>
<g id="Group 64415">
<path id="Vector" d="M11.0049 13.1094C11.0042 13.4458 11.2375 13.7907 11.6842 13.7984H18.8924L17.6599 15.0311C17.4577 15.2194 17.3987 15.5149 17.5103 15.7841C17.6195 16.0473 17.8595 16.2141 18.1208 16.2139C18.3133 16.2164 18.496 16.147 18.6312 16.0115L21.0503 13.5923C21.2374 13.3924 21.2944 13.1079 21.1886 12.8285C21.1518 12.7599 21.1073 12.6935 21.0463 12.6204L18.6292 10.2032C18.3082 9.89293 17.8986 9.97247 17.6603 10.2108C17.4219 10.449 17.343 10.8581 17.6555 11.1812L18.8924 12.4183H11.6845C11.2388 12.425 11.0052 12.7709 11.0049 13.1094Z" fill="white"/>
<path id="Vector_2" d="M21.2402 17.9374C21.2405 17.6007 21.0072 17.2559 20.5609 17.2481H13.3526L14.5912 16.0092C14.902 15.689 14.8231 15.2795 14.5845 15.0405C14.3454 14.8013 13.9365 14.7223 13.6135 15.0351L11.1947 17.4546C10.9945 17.6692 10.9429 17.982 11.067 18.235C11.0987 18.2979 11.1418 18.3554 11.1988 18.4262L13.6156 20.8431C13.7636 20.9862 13.9304 21.0464 14.0906 21.0464C14.278 21.0464 14.4563 20.9642 14.5848 20.8356C14.8231 20.5972 14.9017 20.1883 14.5895 19.8653L13.3526 18.6283H20.5605C21.0062 18.6217 21.2398 18.2757 21.2402 17.9374Z" fill="white"/>
</g>
</g>
</svg>
