<svg width="13" height="9" viewBox="0 0 13 9" fill="none" xmlns="http://www.w3.org/2000/svg">
<path d="M9.4362 8.84466C9.16428 9.06644 8.76344 9.0508 8.50997 8.79734C8.25651 8.54388 8.24087 8.14303 8.46265 7.87112L8.50998 7.81838L10.0974 6.23096L2.07645 6.23096C1.6941 6.23096 1.38415 5.92101 1.38415 5.53866C1.38415 5.15631 1.6941 4.84636 2.07645 4.84636L11.7687 4.84636C12.0486 4.84636 12.301 5.01499 12.4082 5.27364C12.5154 5.53233 12.4561 5.83014 12.2581 6.02814L9.48893 8.79734L9.4362 8.84466Z" fill="white"/>
<path d="M0.693614 4.15625C0.413636 4.15625 0.161223 3.98761 0.0540467 3.72897C-0.0397424 3.50254 -0.00609771 3.24609 0.136528 3.05289L0.204136 2.97447L2.97334 0.205268C3.2437 -0.0650923 3.68194 -0.0650923 3.9523 0.205268C4.22266 0.475628 4.22266 0.913864 3.9523 1.18422L2.36487 2.77165L10.3858 2.77165C10.7682 2.77165 11.0781 3.0816 11.0781 3.46395C11.0781 3.8463 10.7682 4.15625 10.3858 4.15625L0.693614 4.15625Z" fill="white"/>
</svg>
