<svg width="17" height="20" viewBox="0 0 17 20" fill="none" xmlns="http://www.w3.org/2000/svg">
<path d="M15.7106 7.62328L9.30515 1.21786C8.64298 0.555653 7.5654 0.555616 6.90316 1.21786C6.30785 1.81313 6.25658 2.72101 6.69619 3.36929L6.68728 3.41387C6.22547 5.72311 5.10118 7.82391 3.43588 9.48917L0.497888 12.4272C-0.165906 13.091 -0.166019 14.1653 0.497888 14.8292L2.0992 16.4305C2.76295 17.0943 3.83736 17.0943 4.50119 16.4305L4.90154 16.0301L7.70388 18.8325C8.36768 19.4963 9.44201 19.4963 10.1058 18.8325C10.7681 18.1703 10.7681 17.0927 10.1058 16.4305L8.90485 15.2295L9.30519 14.8292C9.96899 14.1654 9.96906 13.0911 9.30519 12.4272L9.03313 12.1551C10.3715 11.2181 11.8914 10.5657 13.5146 10.2411L13.5598 10.2321C14.2225 10.6795 15.1282 10.6076 15.7106 10.0252H15.7106C16.3727 9.36303 16.3727 8.28553 15.7106 7.62328ZM3.70054 15.6298C3.4793 15.851 3.12109 15.8511 2.89985 15.6298L1.29854 14.0285C1.07726 13.8072 1.07726 13.4491 1.29854 13.2278L4.10085 10.4255L6.50285 12.8275C6.22868 13.1016 3.98147 15.3489 3.70054 15.6298ZM9.30515 17.2311C9.52587 17.4518 9.52587 17.811 9.30515 18.0318C9.08444 18.2525 8.72521 18.2525 8.5045 18.0318L5.70216 15.2294L6.50285 14.4288L9.30515 17.2311ZM7.3035 13.6281C7.4737 13.4579 7.72846 13.1972 8.13054 12.8538L8.5045 13.2278C8.72578 13.4491 8.72578 13.8072 8.5045 14.0285L8.10415 14.4288L7.3035 13.6281ZM7.32755 12.0509L4.87738 9.60073C6.19043 8.08456 7.13074 6.29482 7.63381 4.35048L12.5778 9.29447C10.6335 9.79751 8.84376 10.7378 7.32755 12.0509ZM14.9098 9.22451C14.6885 9.44575 14.3304 9.44575 14.1092 9.22451L7.70381 2.81917C7.48253 2.59785 7.48253 2.23979 7.70381 2.01852C7.92509 1.79724 8.28322 1.79724 8.5045 2.01852L14.9098 8.42382C15.1305 8.64457 15.1305 9.00373 14.9098 9.22451Z" fill="white"/>
<path d="M4.50052 12.4275C4.27947 12.2064 3.92096 12.2064 3.69987 12.4275L2.89921 13.2282C2.67813 13.4493 2.67813 13.8078 2.89921 14.0288C3.12027 14.2499 3.47882 14.2499 3.69987 14.0288L4.50052 13.2282C4.72161 13.0071 4.72161 12.6486 4.50052 12.4275Z" fill="white"/>
<path d="M11.905 0C11.5923 0 11.3389 0.253482 11.3389 0.566162V1.69849C11.3389 2.01117 11.5923 2.26465 11.905 2.26465C12.2177 2.26465 12.4712 2.01117 12.4712 1.69849V0.566162C12.4712 0.253482 12.2177 0 11.905 0Z" fill="white"/>
<path d="M16.4338 4.52979H15.3015C14.9888 4.52979 14.7354 4.78327 14.7354 5.09595C14.7354 5.40863 14.9888 5.66211 15.3015 5.66211H16.4338C16.7465 5.66211 17 5.40863 17 5.09595C17 4.78327 16.7465 4.52979 16.4338 4.52979Z" fill="white"/>
<path d="M15.7023 1.29912C15.4813 1.07803 15.1227 1.07803 14.9017 1.29912L13.7693 2.43144C13.5482 2.65253 13.5482 3.01101 13.7693 3.2321C13.9904 3.45318 14.3489 3.45322 14.57 3.2321L15.7023 2.09977C15.9234 1.87868 15.9234 1.52024 15.7023 1.29912Z" fill="white"/>
</svg>
