<svg xmlns="http://www.w3.org/2000/svg" width="19.214" height="19.099" viewBox="0 0 19.214 19.099">
  <g id="Group_59311" data-name="Group 59311" transform="translate(-2.718 -3.991)">
    <g id="Group_59312" data-name="Group 59312">
      <g id="Group_59313" data-name="Group 59313" transform="translate(-1 1)">
        <path id="Union_4" data-name="Union 4" d="M-2265.65-2684.954l-5.486-5.486a1.988,1.988,0,0,1-.007-2.815c.567-.581,1.121-1.173,1.679-1.76s1.119-1.174,1.677-1.761l1.665-1.75c.5-.52.983-1.048,1.488-1.558a2.7,2.7,0,0,1,1.979-.819q1.713,0,3.426,0a.168.168,0,0,0,.159-.084,5.1,5.1,0,0,1,3.371-2.2,4.237,4.237,0,0,1,1-.072,1.988,1.988,0,0,1,1.807,1.495,2.678,2.678,0,0,1,.04.916,5.816,5.816,0,0,1-.089.6.4.4,0,0,1-.481.309.417.417,0,0,1-.322-.482,7.361,7.361,0,0,0,.084-.82,1.146,1.146,0,0,0-1.183-1.194,4.235,4.235,0,0,0-2.92,1.172c-.1.094-.193.2-.288.3-.015.017-.028.037-.05.067h.169c.282,0,.563-.005.842,0a1.98,1.98,0,0,1,1.86,1.588,2.253,2.253,0,0,1,.037.394q0,2.755,0,5.51a2.678,2.678,0,0,1-.859,1.992q-1.3,1.245-2.6,2.479-1.551,1.478-3.1,2.954c-.384.365-.761.736-1.152,1.094a1.974,1.974,0,0,1-1.338.527A1.991,1.991,0,0,1-2265.65-2684.954Zm2.953-15.125a1.875,1.875,0,0,0-1.075.34,4.5,4.5,0,0,0-.663.637c-.663.692-1.322,1.389-1.984,2.083l-1.826,1.915q-1.157,1.215-2.313,2.429a1.157,1.157,0,0,0,.013,1.66l5.453,5.453a1.182,1.182,0,0,0,1.69.016q.375-.36.752-.719,1.543-1.469,3.085-2.937,1.462-1.393,2.924-2.785a1.949,1.949,0,0,0,.633-1.472c0-.564,0-1.129,0-1.694q0-1.875,0-3.752a1.161,1.161,0,0,0-1.157-1.176c-.257,0-.515,0-.772,0h-.643a.1.1,0,0,0-.1.066,4.062,4.062,0,0,0-.328.942c-.04.187-.066.378-.1.566.035.012.052.018.069.022a1.983,1.983,0,0,1,1.478,2.174,1.982,1.982,0,0,1-2.225,1.713,1.977,1.977,0,0,1-1.669-2.425,1.937,1.937,0,0,1,1.441-1.463c.043-.012.09-.01.094-.081a4.578,4.578,0,0,1,.2-1.065c.046-.146.1-.289.149-.444-.031,0-.052,0-.073,0h-1.67Q-2262-2700.082-2262.7-2700.079Zm2.022,3.677a1.165,1.165,0,0,0,1.2,1,1.161,1.161,0,0,0,1.113-1.13,1.134,1.134,0,0,0-.749-1.1v.085c0,.32,0,.641,0,.962a.408.408,0,0,1-.409.431.408.408,0,0,1-.412-.43c0-.23,0-.461,0-.691v-.364A1.156,1.156,0,0,0-2260.675-2696.4Zm-1.549,6.143c-.325-.312-.653-.621-.976-.935-.541-.527-1.077-1.058-1.618-1.585a.67.67,0,0,0-.151-.085,1.157,1.157,0,0,0-.036.163c-.005.087,0,.175,0,.262a.119.119,0,0,1-.14.132c-.153-.006-.307-.013-.46-.022a.2.2,0,0,1-.214-.2c-.025-.34-.045-.681-.067-1.022h-.005c0-.161,0-.323,0-.484a.46.46,0,0,1,.691-.408,1.42,1.42,0,0,1,.285.226q.99,1,1.973,2.018.672.693,1.341,1.39a.294.294,0,0,1-.02.464,1.148,1.148,0,0,1-.237.157.332.332,0,0,1-.139.032A.323.323,0,0,1-2262.224-2690.259Zm1.422-1.467c-.186-.177-.364-.363-.545-.544l-3.064-3.064a.223.223,0,0,1-.056-.324.688.688,0,0,1,.337-.334.211.211,0,0,1,.286.051l2.653,2.653c.017.017.031.042.051.049a.208.208,0,0,0,.122.021.128.128,0,0,0,.051-.1c-.008-.132-.025-.264-.042-.4a.182.182,0,0,1,.2-.224l.509.031c.119.008.167.06.172.182.024.476.049.953.072,1.428h.012c0,.077,0,.154,0,.23a.439.439,0,0,1-.27.43.5.5,0,0,1-.192.041A.426.426,0,0,1-2260.8-2691.726Z" transform="translate(2275.66 2706.353)" fill="#fff" stroke="#fff" stroke-miterlimit="10" stroke-width="0.2"/>
      </g>
    </g>
  </g>
</svg>
