<svg width="14" height="14" viewBox="0 0 14 14" fill="none" xmlns="http://www.w3.org/2000/svg">
<path d="M7.52158 0.319745C10.1455 2.00938 11.8795 3.18107 12.7238 3.83482C13.4495 4.39678 13.1592 9.94335 13.1535 11.0504C13.145 12.6464 12.6299 13.45 10.9764 13.45C7.86308 13.4481 4.74972 13.4491 1.63636 13.4528C0.589091 13.4528 0.0056917 12.5003 0.00284585 11.4803C-0.000948616 9.18564 -0.000948616 6.8919 0.00284585 4.59909C0.00284585 4.305 0.218182 4.00622 0.648853 3.70276C3.19114 1.91197 4.94703 0.737471 5.91652 0.179255C6.4079 -0.0998533 6.94292 -0.0530231 7.52158 0.319745ZM11.8587 4.68057L7.00648 1.46615C6.89459 1.39222 6.76365 1.35136 6.62905 1.34837C6.49445 1.34538 6.36178 1.3804 6.24664 1.44929C4.91099 2.24166 3.563 3.10708 2.20269 4.04556C1.52253 4.51479 1.13834 4.67214 1.13265 5.44203C1.12506 7.49694 1.1317 9.55185 1.15257 11.6068C1.15826 12.135 1.49407 12.3963 2.02909 12.3963C5.15004 12.3982 8.20553 12.3973 11.1956 12.3935C11.2944 12.3937 11.3923 12.3747 11.4837 12.3375C11.5751 12.3003 11.6582 12.2457 11.7282 12.1768C11.7983 12.1079 11.8539 12.0261 11.8919 11.936C11.9299 11.8459 11.9495 11.7493 11.9497 11.6517C11.9535 9.40387 11.9545 7.15321 11.9526 4.89974C11.9572 4.85833 11.951 4.81645 11.9345 4.77808C11.9181 4.73971 11.892 4.70614 11.8587 4.68057Z" fill="white"/>
<path d="M8.12852 6.18911L7.70164 5.84912C7.67612 5.82898 7.65528 5.80365 7.64055 5.77485C7.62581 5.74605 7.61753 5.71446 7.61627 5.68222C7.61511 5.65023 7.62111 5.61838 7.63385 5.58895C7.64659 5.55952 7.66576 5.53322 7.68998 5.51194L8.20792 5.05395C8.22515 5.03454 8.24637 5.019 8.27018 5.00835C8.29398 4.9977 8.31981 4.99219 8.34594 4.99219C8.37208 4.99219 8.39791 4.9977 8.42171 5.00835C8.44551 5.019 8.46674 5.03454 8.48397 5.05395L10.0606 6.47571C10.1468 6.55384 10.2072 6.6558 10.2339 6.76832C10.2606 6.88084 10.2524 6.99869 10.2103 7.10651C10.1682 7.21419 10.0939 7.30667 9.99735 7.37167C9.90077 7.43667 9.78643 7.4711 9.66955 7.47038L3.14829 7.46757C3.10446 7.46764 3.06154 7.45522 3.02469 7.43179C2.98784 7.40836 2.95862 7.37493 2.94054 7.33551C2.87993 7.21751 2.84692 7.08757 2.84397 6.9553C2.84101 6.82302 2.86818 6.69177 2.92346 6.57124C2.9428 6.52426 2.97649 6.4844 3.01985 6.4572C3.0632 6.43001 3.11407 6.41683 3.16536 6.41951H8.04599C8.07324 6.41973 8.09987 6.41154 8.12218 6.3961C8.14449 6.38066 8.16137 6.35872 8.17045 6.33336C8.17954 6.308 8.18038 6.28047 8.17286 6.25461C8.16535 6.22875 8.14985 6.20586 8.12852 6.18911Z" fill="white"/>
<path d="M4.96614 9.26067L5.21658 9.51075C5.23687 9.5251 5.25331 9.54413 5.26447 9.56618C5.27562 9.58822 5.28116 9.61263 5.2806 9.63727C5.28004 9.66191 5.2734 9.68604 5.26125 9.70757C5.2491 9.7291 5.23181 9.74738 5.21088 9.76082L4.76124 10.1654C4.71481 10.2065 4.6548 10.2295 4.59245 10.23C4.5301 10.2305 4.46971 10.2086 4.42258 10.1682C3.92551 9.7449 3.44456 9.30563 2.97974 8.85044C2.91421 8.7865 2.87044 8.70402 2.85452 8.61442C2.735 7.96816 3.21025 7.83048 3.75666 7.8361C5.7867 7.85483 7.78827 7.8848 9.7614 7.92601C9.8106 7.9271 9.85911 7.9378 9.9041 7.9575C9.9491 7.97719 9.9897 8.00548 10.0236 8.04075C10.0574 8.07601 10.0839 8.11755 10.1014 8.16296C10.1189 8.20838 10.1272 8.25676 10.1257 8.30534C10.1143 8.7418 9.96345 8.96377 9.67318 8.97126C8.20282 9.0106 6.66511 9.03214 5.06005 9.03589C4.84377 9.03589 4.81247 9.11082 4.96614 9.26067Z" fill="white"/>
</svg>
