<svg width="21" height="21" viewBox="0 0 21 21" fill="none" xmlns="http://www.w3.org/2000/svg">
<path d="M8.73913 4.85449L8.73891 4.85472L2.18822 11.7323C2.18815 11.7324 2.18808 11.7325 2.18801 11.7326C1.99738 11.9349 1.89167 12.2 1.89167 12.4792C1.89167 12.7701 2.00462 13.0423 2.20992 13.2476L7.75159 18.7893C8.15347 19.1912 8.85622 19.2005 9.26729 18.8105L8.73913 4.85449ZM8.73913 4.85449C9.09789 4.47542 9.58226 4.26667 10.1042 4.26667H15.6458C16.2453 4.26667 16.7333 4.75469 16.7333 5.35417V10.8958C16.7333 11.4177 16.5246 11.9021 16.1448 12.2608L16.1448 12.2608L16.1428 12.2627L16.1427 12.2628L9.26741 18.8104L8.73913 4.85449ZM1.46908 11.0501L1.46887 11.0503C1.10217 11.4378 0.9 11.9453 0.9 12.4792C0.9 13.0345 1.11635 13.5571 1.50879 13.9495L7.05046 19.4912C7.44289 19.8836 7.9655 20.1 8.52083 20.1C9.05469 20.1 9.56219 19.8978 9.95045 19.5303L9.95068 19.5301L16.8268 12.9809C16.8269 12.9809 16.8269 12.9809 16.8269 12.9808C17.3978 12.441 17.725 11.6817 17.725 10.8958V5.35417C17.725 4.20802 16.792 3.275 15.6458 3.275H10.1042C9.31838 3.275 8.55829 3.60209 8.01925 4.17221C8.01919 4.17227 8.01914 4.17233 8.01908 4.17239L1.46908 11.0501ZM16.2133 12.3334L16.2127 12.3343L16.2133 12.3334Z" fill="white" stroke="white" stroke-width="0.2"/>
<path d="M11.2486 11.652L11.1997 11.2203C11.1967 11.1946 11.1992 11.1686 11.2071 11.1441C11.2151 11.1196 11.2282 11.0971 11.2456 11.0782C11.263 11.0596 11.2843 11.045 11.308 11.0356C11.3318 11.0262 11.3574 11.0222 11.383 11.0239L11.9324 11.0576C11.953 11.0564 11.9737 11.0596 11.9931 11.067C12.0125 11.0744 12.0302 11.0858 12.0449 11.1006C12.0596 11.1153 12.071 11.1329 12.0785 11.1523C12.0859 11.1717 12.0891 11.1924 12.0878 11.213L12.175 12.9011C12.1796 12.9936 12.1562 13.085 12.1079 13.1634C12.0596 13.2418 11.9886 13.3035 11.9041 13.3405C11.8198 13.3774 11.726 13.3877 11.635 13.3699C11.544 13.3521 11.4603 13.3071 11.3949 13.2409L7.72512 9.56797C7.70041 9.54334 7.68324 9.51218 7.67568 9.47825C7.66812 9.44431 7.67049 9.40904 7.68251 9.37667C7.71482 9.27611 7.76939 9.18438 7.8422 9.10824C7.915 9.03211 8.00419 8.97352 8.10316 8.93679C8.1405 8.92122 8.18191 8.91775 8.22163 8.92685C8.26135 8.93594 8.2974 8.95716 8.32477 8.98755L11.0725 11.7353C11.0877 11.7507 11.1073 11.7611 11.1285 11.765C11.1498 11.7688 11.1716 11.766 11.191 11.7568C11.2104 11.7477 11.2264 11.7326 11.2367 11.7138C11.2471 11.6951 11.2512 11.6734 11.2486 11.652Z" fill="white"/>
<path d="M7.7458 11.5976L7.746 11.8793C7.74934 11.8988 7.74789 11.9188 7.74176 11.9375C7.73563 11.9562 7.725 11.973 7.71082 11.9866C7.69663 12.0002 7.6793 12.01 7.66034 12.0153C7.64138 12.0206 7.62136 12.0211 7.60201 12.0169L7.12108 11.9916C7.07181 11.9886 7.0251 11.9677 6.98971 11.9329C6.95432 11.8981 6.93268 11.8517 6.92884 11.8025C6.88733 11.2843 6.86387 10.7662 6.85844 10.2483C6.85755 10.1754 6.87935 10.1043 6.92083 10.0449C7.21737 9.6138 7.56244 9.80385 7.86689 10.1146C8.99922 11.268 10.1092 12.4118 11.1968 13.5458C11.2239 13.5741 11.2452 13.6075 11.2594 13.6439C11.2737 13.6803 11.2806 13.7191 11.2798 13.758C11.279 13.7969 11.2706 13.8352 11.2548 13.8706C11.2391 13.9061 11.2165 13.9379 11.1883 13.9644C10.9362 14.2037 10.7263 14.2438 10.5587 14.0846C9.70877 13.279 8.83094 12.4254 7.92522 11.5239C7.80345 11.4021 7.74365 11.4267 7.7458 11.5976Z" fill="white"/>
<path d="M11.192 7.72917C11.192 8.87531 12.125 9.80833 13.2712 9.80833C14.4173 9.80833 15.3503 8.87531 15.3503 7.72917C15.3503 6.58302 14.4173 5.65 13.2712 5.65C12.125 5.65 11.192 6.58302 11.192 7.72917ZM12.1837 7.72917C12.1837 7.12969 12.6717 6.64167 13.2712 6.64167C13.8706 6.64167 14.3587 7.12969 14.3587 7.72917C14.3587 8.32865 13.8706 8.81667 13.2712 8.81667C12.6717 8.81667 12.1837 8.32865 12.1837 7.72917Z" fill="white" stroke="white" stroke-width="0.2"/>
<path d="M12.775 7.72917C12.775 8.0029 12.9971 8.225 13.2708 8.225C13.5446 8.225 13.7667 8.0029 13.7667 7.72917V6.14583C13.7667 3.79994 15.6749 1.89167 18.0208 1.89167C18.6203 1.89167 19.1083 2.37969 19.1083 2.97917C19.1083 3.27115 19.0797 3.55402 19.0242 3.81922C18.9678 4.08677 19.1382 4.34951 19.4067 4.40617C19.6727 4.46376 19.9377 4.29084 19.9941 4.02345C20.0645 3.69009 20.1 3.33877 20.1 2.97917C20.1 1.83302 19.167 0.9 18.0208 0.9C15.1283 0.9 12.775 3.25327 12.775 6.14583V7.72917Z" fill="white" stroke="white" stroke-width="0.2"/>
</svg>
