<svg width="25" height="27" viewBox="0 0 25 27" fill="none" xmlns="http://www.w3.org/2000/svg">
<path d="M14.1829 0.61891C19.1305 3.88942 22.4003 6.15739 23.9923 7.42281C25.3606 8.51056 24.8133 19.2467 24.8026 21.3896C24.7865 24.4788 23.8152 26.0343 20.6974 26.0343C14.8268 26.0307 8.95618 26.0325 3.08556 26.0397C1.1108 26.0397 0.0107324 24.196 0.0053662 22.2217C-0.00178873 17.78 -0.00178873 13.3402 0.0053662 8.90215C0.0053662 8.3329 0.411408 7.75457 1.22349 7.16719C6.0173 3.70088 9.32824 1.42747 11.1563 0.346972C12.0829 -0.193279 13.0917 -0.102633 14.1829 0.61891ZM22.3609 9.05988L13.2116 2.83793C13.0006 2.69482 12.7537 2.61573 12.4999 2.60995C12.2461 2.60417 11.9959 2.67194 11.7788 2.80529C9.26027 4.33903 6.71848 6.01417 4.15344 7.83072C2.87092 8.73899 2.14648 9.04356 2.13575 10.5338C2.12144 14.5113 2.13396 18.4889 2.17331 22.4664C2.18404 23.4889 2.81725 23.9947 3.8261 23.9947C9.71103 23.9984 15.4725 23.9966 21.1106 23.9893C21.297 23.9897 21.4816 23.9528 21.654 23.8808C21.8263 23.8089 21.983 23.7032 22.115 23.5699C22.2471 23.4366 22.3519 23.2782 22.4236 23.1038C22.4952 22.9294 22.5323 22.7424 22.5327 22.5535C22.5398 18.2024 22.5416 13.846 22.538 9.4841C22.5467 9.40395 22.535 9.32288 22.504 9.24862C22.473 9.17435 22.4237 9.10938 22.3609 9.05988Z" fill="white"/>
<path d="M15.3166 11.9887L14.5117 11.3306C14.4636 11.2916 14.4243 11.2426 14.3965 11.1868C14.3687 11.1311 14.3531 11.0699 14.3507 11.0075C14.3485 10.9456 14.3599 10.884 14.3839 10.827C14.4079 10.77 14.444 10.7191 14.4897 10.6779L15.4664 9.79142C15.4988 9.75386 15.5389 9.72377 15.5838 9.70315C15.6286 9.68254 15.6773 9.67187 15.7266 9.67188C15.7759 9.67187 15.8246 9.68254 15.8695 9.70315C15.9144 9.72377 15.9544 9.75386 15.9869 9.79142L18.9598 12.5434C19.1224 12.6947 19.2363 12.892 19.2866 13.1098C19.337 13.3276 19.3214 13.5557 19.242 13.7644C19.1627 13.9729 19.0227 14.1519 18.8406 14.2777C18.6584 14.4035 18.4428 14.4701 18.2224 14.4688L5.9258 14.4633C5.84316 14.4634 5.76223 14.4394 5.69275 14.3941C5.62326 14.3487 5.56816 14.284 5.53407 14.2077C5.41978 13.9793 5.35755 13.7278 5.35197 13.4717C5.3464 13.2157 5.39763 12.9616 5.50187 12.7284C5.53834 12.6374 5.60187 12.5602 5.68362 12.5076C5.76537 12.455 5.86128 12.4295 5.958 12.4347H15.161C15.2124 12.4351 15.2626 12.4192 15.3047 12.3893C15.3468 12.3594 15.3786 12.317 15.3957 12.2679C15.4128 12.2188 15.4144 12.1655 15.4003 12.1155C15.3861 12.0654 15.3569 12.0211 15.3166 11.9887Z" fill="white"/>
<path d="M9.36051 17.914L9.83274 18.3981C9.871 18.4259 9.902 18.4627 9.92304 18.5054C9.94408 18.548 9.95452 18.5953 9.95346 18.643C9.9524 18.6907 9.93988 18.7374 9.91697 18.7791C9.89406 18.8207 9.86146 18.8561 9.822 18.8821L8.97414 19.6653C8.8866 19.7448 8.77343 19.7893 8.65587 19.7903C8.53831 19.7913 8.42442 19.7488 8.33557 19.6707C7.39827 18.8513 6.49138 18.001 5.61491 17.12C5.49133 16.9962 5.40882 16.8365 5.37879 16.6631C5.15341 15.4122 6.04957 15.1457 7.07988 15.1566C10.9078 15.1928 14.682 15.2508 18.4026 15.3306C18.4953 15.3327 18.5868 15.3534 18.6716 15.3915C18.7565 15.4297 18.8331 15.4844 18.8969 15.5527C18.9608 15.621 19.0107 15.7014 19.0437 15.7893C19.0767 15.8772 19.0923 15.9708 19.0894 16.0648C19.068 16.9097 18.7836 17.3393 18.2362 17.3538C15.4637 17.43 12.5641 17.4717 9.5376 17.4789C9.12977 17.4789 9.07074 17.624 9.36051 17.914Z" fill="white"/>
</svg>
