<svg width="52" height="52" viewBox="0 0 52 52" fill="none" xmlns="http://www.w3.org/2000/svg">
<circle cx="26.001" cy="26.001" r="26.001" fill="#2966FF"/>
<path d="M42 26C42 34.8366 34.8366 42 26 42C17.1634 42 10 34.8366 10 26C10 17.1634 17.1634 10 26 10C34.8366 10 42 17.1634 42 26Z" fill="#628FFF"/>
<path d="M27.1914 16.5707C30.6125 18.7737 32.8734 20.3014 33.9742 21.1538C34.9204 21.8865 34.5419 29.1182 34.5345 30.5616C34.5233 32.6425 33.8517 33.6903 31.6959 33.6903C27.6367 33.6878 23.5774 33.689 19.5181 33.6939C18.1527 33.6939 17.392 32.452 17.3883 31.1221C17.3834 28.1303 17.3834 25.1397 17.3883 22.1502C17.3883 21.7668 17.6691 21.3772 18.2306 20.9816C21.5453 18.6467 23.8347 17.1154 25.0987 16.3876C25.7394 16.0237 26.437 16.0847 27.1914 16.5707ZM32.8462 22.2565L26.5198 18.0654C26.3739 17.9691 26.2032 17.9158 26.0277 17.9119C25.8522 17.908 25.6792 17.9536 25.5291 18.0435C23.7877 19.0766 22.0301 20.2049 20.2565 21.4285C19.3697 22.0403 18.8688 22.2455 18.8614 23.2493C18.8515 25.9285 18.8602 28.6078 18.8874 31.287C18.8948 31.9757 19.3326 32.3164 20.0302 32.3164C24.0994 32.3189 28.0832 32.3177 31.9817 32.3128C32.1105 32.313 32.2382 32.2882 32.3574 32.2397C32.4765 32.1912 32.5849 32.1201 32.6762 32.0303C32.7675 31.9405 32.84 31.8338 32.8895 31.7163C32.9391 31.5988 32.9647 31.4729 32.9649 31.3456C32.9699 28.4148 32.9711 25.4804 32.9686 22.5422C32.9746 22.4882 32.9665 22.4336 32.9451 22.3836C32.9237 22.3336 32.8896 22.2898 32.8462 22.2565Z" fill="white"/>
<path d="M27.9781 24.2292L27.4215 23.7859C27.3882 23.7597 27.3611 23.7267 27.3419 23.6891C27.3226 23.6516 27.3118 23.6104 27.3102 23.5683C27.3087 23.5266 27.3165 23.4851 27.3331 23.4467C27.3497 23.4083 27.3747 23.3741 27.4063 23.3463L28.0816 22.7492C28.1041 22.7239 28.1317 22.7036 28.1628 22.6897C28.1938 22.6758 28.2275 22.6686 28.2616 22.6686C28.2956 22.6686 28.3293 22.6758 28.3604 22.6897C28.3914 22.7036 28.4191 22.7239 28.4415 22.7492L30.4971 24.6029C30.6096 24.7048 30.6884 24.8377 30.7232 24.9844C30.758 25.1311 30.7472 25.2848 30.6923 25.4254C30.6375 25.5657 30.5406 25.6863 30.4147 25.7711C30.2888 25.8558 30.1397 25.9007 29.9873 25.8998L21.4847 25.8961C21.4276 25.8962 21.3716 25.88 21.3236 25.8495C21.2755 25.8189 21.2374 25.7753 21.2139 25.7239C21.1348 25.5701 21.0918 25.4007 21.088 25.2282C21.0841 25.0557 21.1195 24.8846 21.1916 24.7275C21.2168 24.6662 21.2608 24.6142 21.3173 24.5788C21.3738 24.5433 21.4401 24.5261 21.507 24.5296H27.8705C27.906 24.5299 27.9407 24.5192 27.9698 24.4991C27.9989 24.479 28.0209 24.4504 28.0328 24.4173C28.0446 24.3842 28.0457 24.3483 28.0359 24.3146C28.0261 24.2809 28.0059 24.2511 27.9781 24.2292Z" fill="white"/>
<path d="M23.8597 28.2212L24.1862 28.5473C24.2127 28.566 24.2341 28.5908 24.2486 28.6195C24.2632 28.6483 24.2704 28.6801 24.2697 28.7122C24.269 28.7444 24.2603 28.7758 24.2445 28.8039C24.2286 28.832 24.2061 28.8558 24.1788 28.8733L23.5925 29.4009C23.532 29.4544 23.4537 29.4844 23.3725 29.485C23.2912 29.4857 23.2124 29.4571 23.151 29.4045C22.5029 28.8526 21.8758 28.2798 21.2698 27.6863C21.1843 27.603 21.1273 27.4954 21.1065 27.3786C20.9507 26.536 21.5703 26.3565 22.2827 26.3638C24.9295 26.3882 27.5392 26.4273 30.1118 26.4811C30.176 26.4825 30.2392 26.4964 30.2979 26.5221C30.3566 26.5478 30.4095 26.5847 30.4537 26.6306C30.4978 26.6766 30.5323 26.7308 30.5552 26.79C30.578 26.8492 30.5888 26.9123 30.5868 26.9756C30.5719 27.5447 30.3753 27.8341 29.9968 27.8439C28.0797 27.8952 26.0748 27.9232 23.9821 27.9281C23.7001 27.9281 23.6593 28.0258 23.8597 28.2212Z" fill="white"/>
</svg>
