<svg width="20" height="20" viewBox="0 0 20 20" fill="none" xmlns="http://www.w3.org/2000/svg">
<circle cx="10" cy="10" r="10" fill="#5F728A"/>
<path d="M10.7234 4.25327C12.8018 5.59162 14.1753 6.51971 14.8441 7.03754C15.4189 7.48267 15.189 11.8761 15.1845 12.753C15.1777 14.0171 14.7697 14.6537 13.46 14.6537C10.9939 14.6522 8.52786 14.6529 6.06178 14.6559C5.23224 14.6559 4.77013 13.9014 4.76788 13.0935C4.76487 11.2759 4.76487 9.45904 4.76788 7.64292C4.76788 7.40997 4.93845 7.17331 5.27958 6.93294C7.29332 5.51446 8.68415 4.58415 9.45207 4.14199C9.8413 3.92091 10.2651 3.958 10.7234 4.25327ZM14.1588 7.70746L10.3154 5.16133C10.2268 5.10277 10.1231 5.0704 10.0165 5.06804C9.90985 5.06567 9.80476 5.0934 9.71356 5.14798C8.6556 5.77561 7.58786 6.4611 6.51036 7.20447C5.97161 7.57615 5.6673 7.70078 5.66279 8.31061C5.65678 9.93829 5.66204 11.566 5.67857 13.1937C5.68308 13.6121 5.94907 13.8191 6.37286 13.8191C8.84495 13.8206 11.2652 13.8198 13.6336 13.8168C13.7119 13.817 13.7894 13.8019 13.8618 13.7725C13.9342 13.743 14 13.6998 14.0555 13.6452C14.111 13.5906 14.155 13.5258 14.1851 13.4545C14.2152 13.3831 14.2308 13.3066 14.2309 13.2293C14.2339 11.4488 14.2347 9.66602 14.2332 7.88106C14.2368 7.84826 14.2319 7.81508 14.2189 7.7847C14.2059 7.75431 14.1852 7.72772 14.1588 7.70746Z" fill="white"/>
<path d="M11.2017 8.90511L10.8635 8.63581C10.8433 8.61985 10.8268 8.59979 10.8151 8.57698C10.8035 8.55416 10.7969 8.52914 10.7959 8.5036C10.795 8.47826 10.7997 8.45304 10.8098 8.42972C10.8199 8.40641 10.8351 8.38558 10.8543 8.36873L11.2646 8.00595C11.2782 7.99058 11.295 7.97827 11.3139 7.96983C11.3327 7.9614 11.3532 7.95703 11.3739 7.95703C11.3946 7.95703 11.415 7.9614 11.4339 7.96983C11.4528 7.97827 11.4696 7.99058 11.4832 8.00595L12.732 9.13212C12.8004 9.19401 12.8482 9.27477 12.8694 9.3639C12.8905 9.45302 12.884 9.54637 12.8506 9.63178C12.8173 9.71707 12.7585 9.79033 12.682 9.84181C12.6055 9.89329 12.5149 9.92057 12.4223 9.92L7.25685 9.91777C7.22213 9.91783 7.18814 9.90798 7.15895 9.88943C7.12976 9.87087 7.10661 9.84439 7.09229 9.81317C7.04428 9.7197 7.01814 9.61678 7.0158 9.512C7.01346 9.40722 7.03498 9.30326 7.07877 9.2078C7.09408 9.17058 7.12077 9.139 7.15511 9.11746C7.18945 9.09592 7.22974 9.08549 7.27037 9.08761H11.1363C11.1579 9.08778 11.179 9.0813 11.1966 9.06906C11.2143 9.05683 11.2277 9.03946 11.2349 9.01937C11.2421 8.99928 11.2427 8.97747 11.2368 8.95699C11.2308 8.93651 11.2186 8.91837 11.2017 8.90511Z" fill="white"/>
<path d="M8.69904 11.3317L8.89741 11.5297C8.91349 11.5411 8.92651 11.5562 8.93534 11.5736C8.94418 11.5911 8.94857 11.6104 8.94813 11.63C8.94768 11.6495 8.94242 11.6686 8.9328 11.6856C8.92317 11.7027 8.90948 11.7172 8.8929 11.7278L8.53674 12.0483C8.49997 12.0809 8.45243 12.099 8.40304 12.0994C8.35366 12.0999 8.30582 12.0825 8.26849 12.0505C7.87476 11.7152 7.49381 11.3673 7.12562 11.0067C7.07371 10.9561 7.03905 10.8907 7.02644 10.8198C6.93176 10.3079 7.30821 10.1988 7.74102 10.2033C9.349 10.2181 10.9344 10.2418 12.4973 10.2745C12.5363 10.2753 12.5747 10.2838 12.6104 10.2994C12.646 10.315 12.6782 10.3374 12.705 10.3654C12.7318 10.3933 12.7528 10.4262 12.7667 10.4622C12.7806 10.4981 12.7871 10.5365 12.7859 10.5749C12.7769 10.9207 12.6574 11.0965 12.4275 11.1024C11.2628 11.1336 10.0448 11.1506 8.77343 11.1536C8.60211 11.1536 8.57732 11.213 8.69904 11.3317Z" fill="white"/>
</svg>
