<svg width="20" height="21" viewBox="0 0 20 21" fill="none" xmlns="http://www.w3.org/2000/svg">
<g id="XMLID_90_">
<g id="Group 64021">
<path id="Vector" d="M5.52177 5.59418L5.52293 18.8169C5.52293 18.9207 5.47526 18.9517 5.37994 18.9099C5.31638 18.882 5.23811 18.8409 5.1451 18.7867C2.32711 17.1421 0.63794 14.7375 0.0775966 11.5731C-0.0340071 10.9465 0.0101694 10.2234 0.00203167 9.53984C-0.016569 7.86927 0.622827 6.01386 1.49124 4.66299C3.18739 2.02635 6.1879 0.0581702 9.4093 0.0105061C10.3277 -0.00228179 11.2577 -0.0452957 12.1494 0.220926C12.1882 0.232551 12.2075 0.258127 12.2075 0.297653V5.47095C12.2075 5.51048 12.1882 5.53024 12.1494 5.53024L5.58919 5.52675C5.54424 5.52675 5.52177 5.54923 5.52177 5.59418Z" fill="#5F728A"/>
<path id="Vector_2" d="M14.4771 14.4209L14.4737 1.17032C14.4737 1.15397 14.478 1.1379 14.4861 1.1237C14.4942 1.10949 14.5058 1.09764 14.5198 1.08931C14.5337 1.08097 14.5496 1.07645 14.5658 1.07618C14.5819 1.07592 14.5979 1.07991 14.612 1.08778C17.5331 2.67426 19.2959 5.08653 19.9004 8.32458C19.9686 8.69195 20.0004 9.13526 19.9957 9.65453C19.9911 10.2509 20.0259 10.8705 19.9399 11.4344C19.5702 13.8633 18.51 15.8636 16.7592 17.4354C14.2644 19.6744 11.2902 20.4623 7.83673 19.7988C7.80495 19.7926 7.78906 19.7733 7.78906 19.7407V14.5384C7.78906 14.4996 7.80844 14.4802 7.84719 14.4802L14.4167 14.4814C14.457 14.4814 14.4771 14.4612 14.4771 14.4209Z" fill="#5F728A"/>
<path id="Vector_3" d="M12.18 7.79688H7.82045C7.80312 7.79688 7.78906 7.81093 7.78906 7.82826V12.1831C7.78906 12.2005 7.80312 12.2145 7.82045 12.2145H12.18C12.1973 12.2145 12.2114 12.2005 12.2114 12.1831V7.82826C12.2114 7.81093 12.1973 7.79688 12.18 7.79688Z" fill="#5F728A"/>
</g>
</g>
</svg>
