<svg xmlns="http://www.w3.org/2000/svg" width="38" height="38" viewBox="0 0 38 38">
  <g id="bitget" transform="translate(-0.098 0)">
    <circle id="Ellipse_27" data-name="Ellipse 27" cx="19" cy="19" r="19" transform="translate(0.098 0)" fill="#00e4ff"/>
    <path id="Path_91" data-name="Path 91" d="M11.411,4.881a1.523,1.523,0,0,1,1.044-.474h2.751a.376.376,0,0,1,.285.664l-5.407,5.882h3.036l3.036,3.225H10.082l6.072,6.546h-3.7a1.75,1.75,0,0,1-1.138-.474L5.149,13.608a1.591,1.591,0,0,1,.095-2.087Z" transform="translate(3.429 3.21)"/>
    <path id="Path_92" data-name="Path 92" d="M15.509,23.981a1.571,1.571,0,0,1-1.138.474H11.619a.376.376,0,0,1-.285-.664l5.5-5.882H13.8l-3.036-3.226h6.072L10.766,8.139h3.7a1.75,1.75,0,0,1,1.138.474l6.166,6.641a1.489,1.489,0,0,1,0,2.087Z" transform="translate(7.772 5.929)"/>
  </g>
</svg>
