<svg width="137" height="137" viewBox="0 0 137 137" fill="none" xmlns="http://www.w3.org/2000/svg">
<g id="Group 59834">
<g id="Group">
<g id="Group_2">
<path id="Vector" d="M27.4002 13.6992H13.7002V27.3992H27.4002V13.6992Z" fill="#292D32"/>
</g>
</g>
<g id="Group_3">
<g id="Group_4">
<path id="Vector_2" d="M95.8978 0V6.84999H89.0479V13.7H95.8978V41.1H102.748V47.95H95.8978V54.8H102.748H109.598V41.1H130.148V47.95H136.998V41.1V0H95.8978ZM130.148 34.25H102.748V6.84999H130.148V34.25Z" fill="#292D32"/>
</g>
</g>
<g id="Group_5">
<g id="Group_6">
<path id="Vector_3" d="M123.301 13.6992H109.601V27.3992H123.301V13.6992Z" fill="#292D32"/>
</g>
</g>
<g id="Group_7">
<g id="Group_8">
<path id="Vector_4" d="M27.4012 109.596H13.7012V123.296H27.4012V109.596Z" fill="#292D32"/>
</g>
</g>
<g id="Group_9">
<g id="Group_10">
<path id="Vector_5" d="M102.748 95.9004H95.8984V102.75H102.748V95.9004Z" fill="#292D32"/>
</g>
</g>
<g id="Group_11">
<g id="Group_12">
<path id="Vector_6" d="M68.4984 130.15H61.6484V137H68.4984V130.15Z" fill="#292D32"/>
</g>
</g>
<g id="Group_13">
<g id="Group_14">
<path id="Vector_7" d="M75.35 102.75H68.5V109.6H75.35V102.75Z" fill="#292D32"/>
</g>
</g>
<g id="Group_15">
<g id="Group_16">
<path id="Vector_8" d="M75.35 116.451H68.5V123.301H75.35V116.451Z" fill="#292D32"/>
</g>
</g>
<g id="Group_17">
<g id="Group_18">
<path id="Vector_9" d="M136.998 82.2012H130.148V89.0512H136.998V82.2012Z" fill="#292D32"/>
</g>
</g>
<g id="Group_19">
<g id="Group_20">
<path id="Vector_10" d="M6.84999 82.2012H0V89.0512H6.84999V82.2012Z" fill="#292D32"/>
</g>
</g>
<g id="Group_21">
<g id="Group_22">
<path id="Vector_11" d="M6.84999 47.9492H0V54.7992H6.84999V47.9492Z" fill="#292D32"/>
</g>
</g>
<g id="Group_23">
<g id="Group_24">
<path id="Vector_12" d="M75.3484 6.8457V13.6957H61.6484V20.5457H82.1984V13.6957V6.8457H75.3484Z" fill="#292D32"/>
</g>
</g>
<g id="Group_25">
<g id="Group_26">
<path id="Vector_13" d="M130.15 54.8008V61.6508H116.45V68.5008H95.9001V61.6508H89.0502V68.5008H75.3502V75.3508H95.9001V82.2008H82.2002H75.3502V75.3508H68.5002V82.2008H61.6502V75.3508H54.8002V82.2008H47.9502V89.0507H61.6502V95.9007H68.5002V89.0507H82.2002V95.9007H75.3502V102.751H82.2002V116.451H89.0502V123.301H95.9001V116.451H116.45V102.751H123.3V95.9007H116.45V82.2008H102.75V75.3508H116.45V82.2008H123.3V75.3508H130.15V68.5008H137V61.6508V54.8008H130.15ZM109.6 89.0507V109.601H89.0502V89.0507H109.6Z" fill="#292D32"/>
</g>
</g>
<g id="Group_27">
<g id="Group_28">
<path id="Vector_14" d="M89.0506 41.0957H82.2006V47.9457H75.3506V54.7957V61.6457H82.2006V54.7957H89.0506V47.9457H95.9006V41.0957H89.0506Z" fill="#292D32"/>
</g>
</g>
<g id="Group_29">
<g id="Group_30">
<path id="Vector_15" d="M89.0506 130.15H75.3506V137H89.0506V130.15Z" fill="#292D32"/>
</g>
</g>
<g id="Group_31">
<g id="Group_32">
<path id="Vector_16" d="M61.6478 6.8457H54.7979V13.6957H61.6478V6.8457Z" fill="#292D32"/>
</g>
</g>
<g id="Group_33">
<g id="Group_34">
<path id="Vector_17" d="M116.451 54.8008H109.601V61.6508H116.451V54.8008Z" fill="#292D32"/>
</g>
</g>
<g id="Group_35">
<g id="Group_36">
<path id="Vector_18" d="M123.3 47.9492H116.45V54.7992H123.3V47.9492Z" fill="#292D32"/>
</g>
</g>
<g id="Group_37">
<g id="Group_38">
<path id="Vector_19" d="M34.2494 82.2012H27.3994V89.0512H34.2494V82.2012Z" fill="#292D32"/>
</g>
</g>
<g id="Group_39">
<g id="Group_40">
<path id="Vector_20" d="M41.1 130.147V102.747H47.95V95.8969V89.0469H41.1V95.8969H20.55V89.0469H13.7H6.84999V95.8969H0V136.997H41.1H54.8V130.147H41.1ZM34.25 130.147H6.84999V102.747H34.25V130.147Z" fill="#292D32"/>
</g>
</g>
<g id="Group_41">
<g id="Group_42">
<path id="Vector_21" d="M47.9506 41.0957H41.1006V47.9457H47.9506V41.0957Z" fill="#292D32"/>
</g>
</g>
<g id="Group_43">
<g id="Group_44">
<path id="Vector_22" d="M47.95 0H41.1H0V41.1H6.84999V47.95H13.7V41.1H20.55V47.95H27.4V41.1H41.1V27.4H47.95V20.55H41.1V6.84999H47.95H54.8V0H47.95ZM34.25 34.25H6.84999V6.84999H34.25V34.25Z" fill="#292D32"/>
</g>
</g>
<g id="Group_45">
<g id="Group_46">
<path id="Vector_23" d="M89.0502 20.5508H82.2002V27.4008H89.0502V20.5508Z" fill="#292D32"/>
</g>
</g>
<g id="Group_47">
<g id="Group_48">
<path id="Vector_24" d="M75.35 0H68.5V6.84999H75.35V0Z" fill="#292D32"/>
</g>
</g>
<g id="Group_49">
<g id="Group_50">
<path id="Vector_25" d="M82.1999 41.1043V34.2543H75.3499V27.4043H68.4999V34.2543H54.7999V27.4043H47.95V34.2543V41.1043H54.7999V54.8043H34.25V47.9543H27.4V54.8043H6.84999V61.6543H20.55V68.5043H0V75.3543H20.55V82.2043H27.4V75.3543H34.25V82.2043H41.1V75.3543H54.7999V68.5043H47.95V61.6543H54.7999H61.6499V68.5043H68.4999H75.3499V61.6543H68.4999V54.8043H61.6499V41.1043H82.1999ZM41.1 68.5043H27.4V61.6543H41.1V68.5043Z" fill="#292D32"/>
</g>
</g>
<g id="Group_51">
<g id="Group_52">
<path id="Vector_26" d="M61.6502 109.6V102.75V95.9004H54.8002V102.75H47.9502V109.6H54.8002V116.45H47.9502V123.3H61.6502V116.45H68.5002V109.6H61.6502Z" fill="#292D32"/>
</g>
</g>
<g id="Group_53">
<g id="Group_54">
<path id="Vector_27" d="M123.299 123.301V116.451H116.449V123.301H95.8994V130.151H109.599V137.001H116.449V130.151H130.149V137.001H136.999V130.151V123.301H123.299Z" fill="#292D32"/>
</g>
</g>
<g id="Group_55">
<g id="Group_56">
<path id="Vector_28" d="M130.148 95.9004V102.75H123.298V109.6H136.998V102.75V95.9004H130.148Z" fill="#292D32"/>
</g>
</g>
</g>
</svg>
