<svg width="23" height="23" viewBox="0 0 23 23" fill="none" xmlns="http://www.w3.org/2000/svg">
<g id="Group">
<path id="Vector" d="M1 19.6717L5.39306 15.258C5.96638 14.682 6.74395 14.3584 7.55471 14.3584H13.2904C13.5008 14.3584 13.6713 14.5297 13.6713 14.741C13.6713 16.2104 12.4857 17.0189 11.0232 17.0189H9.74961H14.7466C15.5989 17.0189 16.398 16.6028 16.8893 15.9032L18.4804 13.6376C19.2555 12.5339 20.8073 12.3389 21.8291 13.2167L22 13.3635L18.3015 18.8148C17.575 19.8855 16.3687 20.5262 15.079 20.5262H9.08262C8.45066 20.5262 7.84462 20.7783 7.39765 21.2272L6.63028 22.0003H1V19.6717Z" stroke="#2A2E32" stroke-width="1.5" stroke-miterlimit="10" stroke-linecap="round" stroke-linejoin="round"/>
<g id="Group_2">
<path id="Vector_2" d="M11.4981 8.56568C13.5812 8.56568 15.2699 6.87204 15.2699 4.78284C15.2699 2.69363 13.5812 1 11.4981 1C9.415 1 7.72632 2.69363 7.72632 4.78284C7.72632 6.87204 9.415 8.56568 11.4981 8.56568Z" stroke="#2A2E32" stroke-width="1.5" stroke-miterlimit="10" stroke-linecap="round" stroke-linejoin="round"/>
</g>
<g id="Group_3">
<path id="Vector_3" d="M8.39162 6.93073L6.99878 10.9723L8.83846 10.9613L10.2175 12.0821L11.4297 8.56476" stroke="#2A2E32" stroke-width="1.5" stroke-miterlimit="10" stroke-linecap="round" stroke-linejoin="round"/>
<path id="Vector_4" d="M14.5998 6.93073L15.9926 10.9723L14.1529 10.9613L12.7739 12.0821L11.5615 8.56415" stroke="#2A2E32" stroke-width="1.5" stroke-miterlimit="10" stroke-linecap="round" stroke-linejoin="round"/>
</g>
<path id="Vector_5" d="M10.2905 4.64145L11.1744 5.52554L12.7029 4.04016" stroke="#2A2E32" stroke-width="1.5" stroke-miterlimit="10" stroke-linecap="round" stroke-linejoin="round"/>
</g>
</svg>
