<svg width="23" height="23" viewBox="0 0 23 23" fill="none" xmlns="http://www.w3.org/2000/svg">
<g id="Group">
<path id="Vector" d="M1 19.6715L5.39306 15.2578C5.96638 14.6818 6.74395 14.3582 7.55471 14.3582H13.2904C13.5008 14.3582 13.6713 14.5295 13.6713 14.7408C13.6713 16.2102 12.4857 17.0187 11.0232 17.0187H9.74961H14.7466C15.5989 17.0187 16.398 16.6026 16.8893 15.903L18.4804 13.6374C19.2555 12.5337 20.8073 12.3387 21.8291 13.2165L22 13.3633L18.3015 18.8147C17.575 19.8854 16.3687 20.526 15.079 20.526H9.08262C8.45066 20.526 7.84462 20.7782 7.39765 21.227L6.63028 22.0001H1V19.6715Z" stroke="#8393BA" stroke-miterlimit="10" stroke-linecap="round" stroke-linejoin="round"/>
<g id="Group_2">
<path id="Vector_2" d="M11.4983 8.56568C13.5814 8.56568 15.2701 6.87205 15.2701 4.78284C15.2701 2.69364 13.5814 1 11.4983 1C9.41524 1 7.72656 2.69364 7.72656 4.78284C7.72656 6.87205 9.41524 8.56568 11.4983 8.56568Z" stroke="#8393BA" stroke-miterlimit="10" stroke-linecap="round" stroke-linejoin="round"/>
</g>
<g id="Group_3">
<path id="Vector_3" d="M8.39187 6.93164L6.99902 10.9732L8.83871 10.9622L10.2177 12.0831L11.4299 8.56568" stroke="#8393BA" stroke-miterlimit="10" stroke-linecap="round" stroke-linejoin="round"/>
<path id="Vector_4" d="M14.6008 6.93164L15.9936 10.9732L14.1539 10.9622L12.7749 12.0831L11.5625 8.56507" stroke="#8393BA" stroke-miterlimit="10" stroke-linecap="round" stroke-linejoin="round"/>
</g>
<path id="Vector_5" d="M10.291 4.64231L11.1749 5.5264L12.7034 4.04102" stroke="#5DEBB2" stroke-miterlimit="10" stroke-linecap="round" stroke-linejoin="round"/>
</g>
</svg>
