<svg width="23" height="23" viewBox="0 0 23 23" fill="none" xmlns="http://www.w3.org/2000/svg">
<g id="Group 64344">
<path id="Vector" d="M1 19.6735L5.39306 15.2598C5.96638 14.6837 6.74395 14.3602 7.55471 14.3602H13.2904C13.5008 14.3602 13.6713 14.5315 13.6713 14.7428C13.6713 16.2121 12.4857 17.0207 11.0232 17.0207H9.74961H14.7466C15.5989 17.0207 16.398 16.6046 16.8893 15.9049L18.4804 13.6394C19.2555 12.5357 20.8073 12.3406 21.8291 13.2184L22 13.3652L18.3015 18.8166C17.575 19.8873 16.3687 20.5279 15.079 20.5279H9.08262C8.45066 20.5279 7.84462 20.7801 7.39765 21.229L6.63028 22.002H1V19.6735Z" stroke="#2E4276" stroke-width="1.5" stroke-miterlimit="10" stroke-linecap="round" stroke-linejoin="round"/>
<g id="Group 64343">
<path id="Vector_2" d="M11.4983 8.56568C13.5814 8.56568 15.2701 6.87204 15.2701 4.78284C15.2701 2.69363 13.5814 1 11.4983 1C9.41524 1 7.72656 2.69363 7.72656 4.78284C7.72656 6.87204 9.41524 8.56568 11.4983 8.56568Z" stroke="#2E4276" stroke-width="1.5" stroke-miterlimit="10" stroke-linecap="round" stroke-linejoin="round"/>
<path id="Vector_3" d="M8.39284 6.92969L7 10.9712L8.83968 10.9603L10.2187 12.0811L11.4309 8.56373" stroke="#2E4276" stroke-width="1.5" stroke-miterlimit="10" stroke-linecap="round" stroke-linejoin="round"/>
<path id="Vector_4" d="M14.6008 6.92969L15.9936 10.9712L14.1539 10.9603L12.7749 12.0811L11.5625 8.56312" stroke="#2E4276" stroke-width="1.5" stroke-miterlimit="10" stroke-linecap="round" stroke-linejoin="round"/>
</g>
</g>
</svg>
