<svg width="21" height="19" viewBox="0 0 21 19" fill="none" xmlns="http://www.w3.org/2000/svg">
<g id="XMLID_90_">
<path id="XMLID_91_" d="M6.77158 5.80411C10.6473 5.80411 13.5432 4.27199 13.5432 2.90202C13.5432 1.53219 10.6472 0 6.77158 0C2.89596 0 0 1.53219 0 2.90202C0 4.27199 2.89589 5.80411 6.77158 5.80411Z" fill="#5F728A"/>
<path id="XMLID_92_" d="M6.77158 17.4121C7.33726 17.4121 7.88173 17.3792 8.39962 17.3193C7.96306 16.7583 7.60205 16.1357 7.33159 15.4671C7.14576 15.4733 6.95928 15.4776 6.77151 15.4776C4.55696 15.4776 2.45973 15.0388 0.86633 14.2421C0.552591 14.0852 0.263879 13.9167 0 13.7383V14.5101C0 15.88 2.89589 17.4121 6.77158 17.4121Z" fill="#5F728A"/>
<path id="XMLID_93_" d="M6.77164 13.543C6.79151 13.543 6.81105 13.5427 6.83086 13.5426C6.79119 13.2255 6.77048 12.9026 6.77048 12.5749C6.77048 12.2473 6.79112 11.9246 6.83086 11.6077C6.81105 11.6077 6.79144 11.6084 6.77164 11.6084C4.55709 11.6084 2.45992 11.1696 0.866459 10.3729C0.552656 10.216 0.263879 10.0475 0 9.86914V10.6409C6.45023e-05 12.0108 2.89596 13.543 6.77164 13.543Z" fill="#5F728A"/>
<path id="XMLID_102_" d="M6.77164 9.67379C6.9636 9.67379 7.15298 9.66992 7.33997 9.66257C7.64029 8.92576 8.05072 8.2452 8.55113 7.64165C7.97177 7.7055 7.37635 7.73937 6.77164 7.73937C4.55709 7.73937 2.45992 7.30056 0.866459 6.50383C0.552656 6.34689 0.263879 6.17841 0 6V6.77183C6.45023e-05 8.14173 2.89596 9.67379 6.77164 9.67379Z" fill="#5F728A"/>
<path id="XMLID_103_" d="M9.67566 9.36788C9.25704 9.99723 8.95795 10.7125 8.81082 11.4811C8.7429 11.8354 8.70703 12.2009 8.70703 12.5747C8.70703 12.8558 8.72754 13.1321 8.76631 13.4026C8.86158 14.067 9.06973 14.6952 9.3707 15.2676C9.6865 15.8682 10.1043 16.4071 10.6011 16.8608C11.6337 17.8039 13.0069 18.3799 14.5122 18.3799C17.7132 18.3799 20.3174 15.7757 20.3174 12.5747C20.3174 9.37368 17.7132 6.76953 14.5122 6.76953C14.1814 6.76953 13.857 6.79778 13.5411 6.85119C11.9319 7.12333 10.5459 8.05984 9.67566 9.36788Z" fill="#5DEAB1"/>
</g>
</svg>
