<svg width="40" height="40" viewBox="0 0 40 40" fill="none" xmlns="http://www.w3.org/2000/svg">
<circle cx="20" cy="20" r="20" fill="#0C15F9"/>
<path d="M21.0599 12.2803C24.2579 14.3397 26.3714 15.7677 27.4004 16.5645C28.2849 17.2495 27.9311 24.0097 27.9242 25.359C27.9138 27.3042 27.286 28.2836 25.2708 28.2836C21.4762 28.2813 17.6816 28.2825 13.887 28.287C12.6106 28.287 11.8995 27.1261 11.896 25.8829C11.8914 23.0862 11.8914 20.2905 11.896 17.496C11.896 17.1376 12.1585 16.7734 12.6834 16.4036C15.782 14.221 17.9221 12.7895 19.1037 12.1091C19.7026 11.7689 20.3547 11.826 21.0599 12.2803ZM26.346 17.5953L20.4321 13.6776C20.2958 13.5875 20.1362 13.5377 19.9721 13.534C19.8081 13.5304 19.6464 13.5731 19.506 13.657C17.8781 14.6228 16.2352 15.6776 14.5772 16.8214C13.7482 17.3933 13.28 17.5851 13.2731 18.5234C13.2638 21.028 13.2719 23.5325 13.2973 26.037C13.3043 26.6809 13.7136 26.9994 14.3657 26.9994C18.1695 27.0016 21.8936 27.0005 25.5378 26.9959C25.6583 26.9962 25.7777 26.973 25.8891 26.9276C26.0004 26.8823 26.1017 26.8158 26.1871 26.7318C26.2724 26.6479 26.3402 26.5482 26.3865 26.4383C26.4328 26.3285 26.4568 26.2108 26.457 26.0918C26.4616 23.3521 26.4628 20.609 26.4605 17.8625C26.4661 17.812 26.4585 17.761 26.4385 17.7142C26.4184 17.6674 26.3866 17.6265 26.346 17.5953Z" fill="white"/>
<path d="M21.7946 19.4395L21.2744 19.0251C21.2432 19.0005 21.2178 18.9697 21.1999 18.9346C21.1819 18.8995 21.1718 18.8609 21.1703 18.8217C21.1689 18.7827 21.1762 18.7438 21.1917 18.708C21.2073 18.6721 21.2306 18.6401 21.2601 18.6141L21.8914 18.0559C21.9124 18.0323 21.9383 18.0133 21.9673 18.0003C21.9963 17.9874 22.0278 17.9806 22.0596 17.9806C22.0915 17.9806 22.123 17.9874 22.152 18.0003C22.181 18.0133 22.2069 18.0323 22.2279 18.0559L24.1494 19.7888C24.2546 19.884 24.3282 20.0083 24.3607 20.1454C24.3933 20.2825 24.3832 20.4262 24.3319 20.5576C24.2806 20.6888 24.1901 20.8016 24.0724 20.8808C23.9547 20.96 23.8153 21.002 23.6729 21.0011L15.7247 20.9977C15.6713 20.9977 15.619 20.9826 15.574 20.954C15.5291 20.9255 15.4935 20.8847 15.4715 20.8367C15.3976 20.6929 15.3574 20.5345 15.3538 20.3733C15.3502 20.2121 15.3833 20.0521 15.4507 19.9052C15.4742 19.8479 15.5153 19.7994 15.5681 19.7662C15.621 19.7331 15.683 19.717 15.7455 19.7203H21.6941C21.7273 19.7205 21.7597 19.7106 21.7869 19.6917C21.8141 19.6729 21.8347 19.6462 21.8457 19.6153C21.8568 19.5844 21.8578 19.5508 21.8487 19.5193C21.8395 19.4878 21.8206 19.4599 21.7946 19.4395Z" fill="white"/>
<path d="M17.9459 23.1712L18.2512 23.476C18.2759 23.4935 18.2959 23.5166 18.3095 23.5435C18.3231 23.5704 18.3299 23.6001 18.3292 23.6302C18.3285 23.6602 18.3204 23.6896 18.3056 23.7159C18.2908 23.7421 18.2697 23.7644 18.2442 23.7808L17.6962 24.2739C17.6396 24.324 17.5665 24.352 17.4905 24.3526C17.4145 24.3532 17.3409 24.3265 17.2834 24.2773C16.6776 23.7614 16.0914 23.226 15.5249 22.6712C15.445 22.5932 15.3917 22.4927 15.3723 22.3835C15.2266 21.5958 15.8058 21.428 16.4718 21.4349C18.946 21.4577 21.3856 21.4943 23.7904 21.5445C23.8504 21.5458 23.9095 21.5588 23.9644 21.5828C24.0192 21.6068 24.0687 21.6413 24.11 21.6843C24.1512 21.7273 24.1835 21.7779 24.2048 21.8333C24.2262 21.8886 24.2362 21.9476 24.2344 22.0068C24.2205 22.5388 24.0367 22.8093 23.6829 22.8184C21.8908 22.8664 20.0166 22.8926 18.0604 22.8972C17.7968 22.8972 17.7586 22.9885 17.9459 23.1712Z" fill="white"/>
</svg>
