<svg width="29" height="29" viewBox="0 0 29 29" fill="none" xmlns="http://www.w3.org/2000/svg">
<g id="Group">
<path id="Vector" d="M1 25.0061L6.64822 19.3313C7.38535 18.5907 8.38508 18.1747 9.42749 18.1747H16.802C17.0724 18.1747 17.2916 18.395 17.2916 18.6666C17.2916 20.5558 15.7673 21.5954 13.887 21.5954H12.2495H18.6742C19.77 21.5954 20.7974 21.0603 21.4291 20.1608L23.4748 17.248C24.4713 15.8289 26.4665 15.5782 27.7803 16.7068L28 16.8955L23.2447 23.9044C22.3108 25.281 20.7598 26.1047 19.1016 26.1047H11.3919C10.5794 26.1047 9.80023 26.4289 9.22555 27.006L8.23893 28H1V25.0061Z" stroke="#5F728A" stroke-width="1.5" stroke-miterlimit="10" stroke-linecap="round" stroke-linejoin="round"/>
<g id="Group_2">
<path id="Vector_2" d="M14.4974 10.7273C17.1756 10.7273 19.3468 8.54977 19.3468 5.86365C19.3468 3.17753 17.1756 1 14.4974 1C11.8191 1 9.64795 3.17753 9.64795 5.86365C9.64795 8.54977 11.8191 10.7273 14.4974 10.7273Z" stroke="#5F728A" stroke-width="1.5" stroke-miterlimit="10" stroke-linecap="round" stroke-linejoin="round"/>
</g>
<g id="Group_3">
<path id="Vector_3" d="M10.5037 8.625L8.71289 13.8213L11.0782 13.8072L12.8512 15.2482L14.4098 10.7259" stroke="#5F728A" stroke-width="1.5" stroke-miterlimit="10" stroke-linecap="round" stroke-linejoin="round"/>
<path id="Vector_4" d="M18.4854 8.625L20.2762 13.8213L17.9109 13.8072L16.1379 15.2482L14.5791 10.7251" stroke="#5F728A" stroke-width="1.5" stroke-miterlimit="10" stroke-linecap="round" stroke-linejoin="round"/>
</g>
<path id="Vector_5" d="M12.9453 5.68227L14.0817 6.81896L16.047 4.90918" stroke="#5DEBB2" stroke-width="1.5" stroke-miterlimit="10" stroke-linecap="round" stroke-linejoin="round"/>
</g>
</svg>
