<svg width="18" height="20" viewBox="0 0 18 20" fill="none" xmlns="http://www.w3.org/2000/svg">
<g id="Group 59905">
<g id="Group 59901">
<g id="Group 64285">
<g id="Group">
<path id="Vector" d="M9.2237 0.171875C6.54568 0.171875 4.36719 2.35037 4.36719 5.02839C4.36719 7.70641 6.54568 9.8849 9.2237 9.8849C11.9017 9.8849 14.0802 7.70641 14.0802 5.02839C14.0802 2.35037 11.9017 0.171875 9.2237 0.171875ZM9.2237 8.49732C7.31231 8.49732 5.75476 6.93977 5.75476 5.02839C5.75476 3.117 7.31231 1.55945 9.2237 1.55945C11.1351 1.55945 12.6926 3.117 12.6926 5.02839C12.6926 6.93977 11.1351 8.49732 9.2237 8.49732Z" fill="#3072F3"/>
<path id="Vector_2" d="M9.22437 2.26562C7.69457 2.26562 6.44922 3.51097 6.44922 5.04077C6.44922 6.57058 7.69457 7.81592 9.22437 7.81592C10.7542 7.81592 11.9995 6.57058 11.9995 5.04077C11.9995 3.51097 10.7542 2.26562 9.22437 2.26562ZM10.6952 5.48133L10.2963 5.69987C10.1228 5.79353 9.9806 5.93576 9.88347 6.11268L9.66492 6.5116C9.57473 6.67118 9.40822 6.77177 9.22437 6.77177C9.04051 6.77177 8.87401 6.67118 8.78381 6.5116L8.56527 6.11268C8.46814 5.93576 8.32591 5.79353 8.15247 5.69987L7.75354 5.48133C7.5905 5.39461 7.4899 5.22463 7.4899 5.04077C7.4899 4.85692 7.5905 4.68694 7.75354 4.60022L8.15247 4.38168C8.32591 4.28802 8.46814 4.14579 8.56527 3.96887L8.78381 3.56995C8.87401 3.41037 9.04051 3.30978 9.22437 3.30978C9.40822 3.30978 9.57473 3.41037 9.66492 3.56995L9.88347 3.96887C9.9806 4.14232 10.1228 4.28802 10.2963 4.38168L10.6952 4.60022C10.8582 4.68694 10.9588 4.85692 10.9588 5.04077C10.9588 5.22463 10.8582 5.39461 10.6952 5.48133Z" fill="#3072F3"/>
</g>
<path id="Vector_3" fill-rule="evenodd" clip-rule="evenodd" d="M5.34157 12.3145C5.98457 11.9455 6.63839 11.6838 7.34512 11.9109C8.1331 12.1641 9.41976 12.7077 10.732 12.9421C11.2191 13.0985 11.5227 13.5817 11.3902 14.0716C11.2854 14.459 10.9191 14.8056 10.4949 14.6943L8.31571 14.1222C8.14156 14.0768 7.96324 14.1799 7.91741 14.3524C7.87157 14.5249 7.97562 14.7016 8.14977 14.747L10.3289 15.319C10.8851 15.4651 11.4102 15.2472 11.6877 14.7514C11.8542 14.7044 12.017 14.6356 12.1772 14.5432L15.4712 12.6425C18.0318 11.1651 18.4078 13.438 17.5565 13.9572L11.5787 17.6038C11.0289 17.9391 10.4273 18.0174 9.80364 17.8518L5.46776 16.7008L5.11938 16.9L3.20153 13.5429L5.34157 12.3145ZM2.31334 13.3028C2.18196 13.0728 1.88452 12.9912 1.6524 13.1213L0.728184 13.6395C0.496026 13.7697 0.413587 14.0644 0.544965 14.2943L3.26211 19.0506C3.39349 19.2806 3.69093 19.3623 3.92305 19.2321L4.84727 18.7139C5.07942 18.5837 5.16186 18.2891 5.03048 18.0591L2.31334 13.3028ZM1.63598 13.9207C1.8163 13.8945 1.98387 14.0182 2.01022 14.1969C2.03657 14.3755 1.91177 14.5415 1.73145 14.5676C1.55113 14.5938 1.38356 14.4701 1.35721 14.2914C1.33082 14.1128 1.45566 13.9468 1.63598 13.9207Z" fill="#5F728A"/>
</g>
</g>
</g>
</svg>
