<svg width="16" height="17" viewBox="0 0 16 17" fill="none" xmlns="http://www.w3.org/2000/svg">
<path d="M15.5787 13.7216L14.314 12.4569C14.05 12.1929 13.9945 11.7843 14.184 11.4627C15.0491 9.9945 15.4395 8.21573 15.1274 6.33264C14.585 3.05989 11.885 0.47267 8.59322 0.0611402C3.63059 -0.559255 -0.559255 3.63059 0.0611402 8.59322C0.47267 11.885 3.05989 14.585 6.33264 15.1274C8.21573 15.4395 9.9945 15.0491 11.4627 14.184C11.7844 13.9945 12.1929 14.05 12.4569 14.314L13.7802 15.6373C14.0365 15.8938 14.3728 16.022 14.7088 16.022C15.0767 16.022 15.4449 15.8683 15.7081 15.5607C16.1632 15.0288 16.0737 14.2166 15.5787 13.7216ZM2.69664 8.46358C2.13282 5.05345 5.05345 2.13287 8.46352 2.69669C10.5295 3.03825 12.1958 4.70454 12.5374 6.77054C13.1012 10.1807 10.1806 13.1012 6.77049 12.5374C4.70454 12.1958 3.03825 10.5295 2.69664 8.46358Z" fill="#2966FF"/>
</svg>
