<svg width="15" height="17" viewBox="0 0 15 17" fill="none" xmlns="http://www.w3.org/2000/svg">
<path fill-rule="evenodd" clip-rule="evenodd" d="M14.3888 10.0445C13.8714 9.72699 13.55 9.13544 13.55 8.50003C13.55 7.86494 13.8713 7.27339 14.3873 6.95617C14.9168 6.63188 15.137 5.95807 14.9107 5.35414C14.6271 4.59128 14.2409 3.87875 13.7657 3.23608C13.3871 2.72439 12.7294 2.59038 12.1999 2.91676C11.684 3.23608 11.0413 3.23704 10.5239 2.91916C10.008 2.60129 9.68816 2.00878 9.68967 1.37224C9.68967 0.721063 9.25219 0.180643 8.64728 0.0874406C7.88696 -0.0298678 7.1146 -0.0292162 6.35126 0.0898409C5.74783 0.183694 5.31038 0.723806 5.31186 1.37368C5.31186 2.00943 4.99202 2.6016 4.47612 2.91916C3.95867 3.23669 3.31755 3.23604 2.80014 2.91707C2.27065 2.59069 1.61292 2.72535 1.23427 3.23704C0.998936 3.55587 0.781689 3.89672 0.590129 4.25074C0.398536 4.60414 0.231086 4.97454 0.0892907 5.35106C-0.138515 5.95594 0.0817584 6.63071 0.611245 6.95582C1.12869 7.27305 1.45001 7.8649 1.45001 8.5C1.45001 9.1351 1.12869 9.72647 0.612758 10.0442C0.0832713 10.3685 -0.13697 11.042 0.0892907 11.6457C0.372913 12.4091 0.759092 13.1216 1.23427 13.7639C1.61292 14.2756 2.27065 14.4096 2.80014 14.0832C3.31607 13.7639 3.9587 13.7633 4.47612 14.0808C4.99202 14.3987 5.31186 14.9912 5.31186 15.6278C5.31035 16.2788 5.74931 16.8192 6.35274 16.9126C6.73139 16.9709 7.11155 17 7.49167 17C7.87788 17 8.26406 16.9701 8.64873 16.9102C9.25215 16.8161 9.68961 16.2765 9.68961 15.6266C9.6881 14.9906 10.0079 14.3984 10.5238 14.0808C11.0413 13.7633 11.6824 13.764 12.1998 14.0829C12.7293 14.4093 13.387 14.275 13.7657 13.763C14.001 13.444 14.2183 13.1031 14.4098 12.7496C14.5999 12.3962 14.7704 12.0258 14.9107 11.6489C15.1385 11.0441 14.9183 10.3691 14.3888 10.0445ZM9.55239 9.76265C9.23709 10.3467 8.72569 10.7646 8.11325 10.9392C7.5023 11.1137 6.86266 11.0242 6.31505 10.6867C5.18365 9.99051 4.79444 8.44345 5.44763 7.23738C5.88512 6.4284 6.68465 5.97556 7.50378 5.97556C7.90656 5.97556 8.31238 6.08419 8.68497 6.31335C9.81637 7.00935 10.2056 8.55689 9.55239 9.76265Z" fill="#F4F4F4"/>
</svg>
