<svg width="449" height="387" viewBox="0 0 449 387" fill="none" xmlns="http://www.w3.org/2000/svg">
<g style="mix-blend-mode:screen">
<mask id="mask0_15_565" style="mask-type:alpha" maskUnits="userSpaceOnUse" x="64" y="66" width="365" height="282">
<rect x="64" y="66" width="365" height="282" fill="#D9D9D9"/>
</mask>
<g mask="url(#mask0_15_565)">
<path d="M336 217.983L216.274 313.997L135 212.768L235.937 156.282L285.313 124.997L293.178 163.234L303.665 178.007L329.009 212.768L336 217.983Z" fill="url(#paint0_linear_15_565)" fill-opacity="0.15"/>
<path opacity="0.3" d="M252.293 196.862C276.815 227.357 294.567 258.516 303.452 284.227C307.895 297.085 310.112 308.554 309.866 317.883C309.621 327.215 306.916 334.334 301.597 338.611C296.278 342.889 288.744 344.003 279.577 342.24C270.412 340.478 259.686 335.852 248.081 328.753C224.876 314.557 198.252 290.534 173.73 260.039C149.207 229.544 131.456 198.385 122.571 172.674C118.128 159.816 115.911 148.347 116.157 139.018C116.402 129.686 119.107 122.567 124.426 118.289C129.745 114.012 137.279 112.898 146.446 114.661C155.611 116.423 166.337 121.049 177.941 128.148C201.147 142.344 227.771 166.367 252.293 196.862Z" stroke="url(#paint1_linear_15_565)"/>
<path opacity="0.3" d="M327.672 150.171C360.923 191.521 384.997 233.776 397.05 268.653C403.077 286.094 406.088 301.663 405.755 314.338C405.421 327.016 401.746 336.728 394.479 342.571C387.212 348.414 376.938 349.92 364.484 347.526C352.033 345.132 337.472 338.849 321.731 329.22C290.253 309.964 254.148 277.383 220.897 236.034C187.646 194.684 163.572 152.429 151.519 117.552C145.492 100.111 142.481 84.5419 142.814 71.8668C143.148 59.1889 146.824 49.4775 154.09 43.634C161.357 37.7906 171.631 36.2847 184.085 38.6793C196.536 41.0734 211.097 47.3557 226.838 56.9849C258.316 76.241 294.421 108.822 327.672 150.171Z" stroke="url(#paint2_linear_15_565)"/>
<path opacity="0.3" d="M196.937 241.877C216.113 265.724 229.991 290.087 236.936 310.184C240.41 320.235 242.14 329.193 241.948 336.472C241.756 343.755 239.646 349.287 235.52 352.605C231.394 355.923 225.538 356.797 218.384 355.421C211.233 354.046 202.855 350.434 193.784 344.885C175.645 333.789 154.828 315.006 135.652 291.159C116.475 267.312 102.597 242.95 95.6519 222.853C92.1786 212.802 90.4486 203.844 90.6402 196.564C90.8319 189.282 92.9418 183.75 97.0681 180.432C101.194 177.114 107.05 176.24 114.204 177.616C121.355 178.991 129.733 182.602 138.804 188.152C156.943 199.248 177.76 218.03 196.937 241.877Z" stroke="url(#paint3_linear_15_565)"/>
<path d="M288.279 125.739C301.589 132.527 310.634 137.365 315.415 140.252C319.525 142.735 343.999 178.627 348.996 185.711C356.2 195.924 358.725 201.847 355.156 204.374C348.427 209.121 341.711 213.885 335.008 218.668C332.747 220.269 327.177 215.073 322.555 208.558C312.163 193.899 301.782 179.24 291.415 164.58C290.084 162.701 289.196 160.462 288.753 157.865C286.137 142.534 284.612 132.344 284.178 127.294C283.976 124.759 285.343 124.241 288.279 125.739ZM317.375 146.98L292.355 133.853C291.779 133.551 291.311 133.49 291.007 133.677C290.703 133.864 290.575 134.29 290.638 134.907C291.341 142.012 292.348 149.603 293.658 157.68C294.314 161.719 294.196 163.312 297.668 168.241C306.951 181.385 316.265 194.508 325.609 207.609C328.012 210.977 329.919 212.133 331.074 211.316C337.819 206.557 344.411 201.881 350.848 197.287C351.062 197.137 351.187 196.866 351.216 196.488C351.246 196.111 351.178 195.635 351.017 195.088C350.857 194.541 350.606 193.933 350.281 193.299C349.955 192.665 349.56 192.017 349.119 191.393C338.955 177.022 328.772 162.636 318.57 148.237C318.392 147.965 318.189 147.707 317.98 147.487C317.771 147.267 317.563 147.092 317.375 146.98Z" fill="white"/>
<path d="M316.158 162.358L313.698 160.837C313.552 160.747 313.392 160.617 313.23 160.456C313.068 160.294 312.907 160.105 312.759 159.901C312.611 159.698 312.48 159.486 312.374 159.278C312.269 159.07 312.191 158.873 312.147 158.7L311.192 154.981C311.142 154.831 311.117 154.699 311.12 154.595C311.124 154.49 311.154 154.416 311.211 154.376C311.267 154.336 311.348 154.332 311.448 154.363C311.547 154.395 311.663 154.462 311.788 154.559L321.626 161.236C322.165 161.604 322.757 162.163 323.324 162.841C323.891 163.52 324.406 164.285 324.803 165.039C325.2 165.791 325.458 166.496 325.544 167.059C325.629 167.622 325.538 168.017 325.283 168.191L311.194 178.14C311.099 178.208 310.95 178.194 310.765 178.101C310.579 178.007 310.365 177.838 310.147 177.614C309.483 176.952 308.823 176.172 308.218 175.332C307.613 174.491 307.078 173.61 306.652 172.756C306.481 172.426 306.373 172.119 306.344 171.879C306.314 171.639 306.365 171.477 306.487 171.416L317.023 163.956C317.082 163.916 317.103 163.823 317.081 163.69C317.059 163.557 316.997 163.391 316.901 163.215C316.806 163.039 316.684 162.862 316.55 162.708C316.417 162.555 316.28 162.432 316.158 162.358Z" fill="white"/>
<path d="M323.198 186.752L324.87 187.968C324.979 188.029 325.101 188.125 325.225 188.249C325.348 188.373 325.471 188.52 325.581 188.679C325.691 188.837 325.786 189.001 325.857 189.157C325.929 189.314 325.974 189.457 325.99 189.575L326.85 192.848C326.936 193.181 326.91 193.42 326.778 193.518C326.646 193.617 326.416 193.569 326.132 193.384C323.143 191.438 320.117 189.365 317.054 187.167C316.623 186.858 316.155 186.398 315.715 185.85C312.533 181.902 312.936 180.296 314.141 179.497C318.607 176.513 323.063 173.646 327.509 170.893C327.62 170.825 327.773 170.819 327.96 170.876C328.146 170.933 328.362 171.052 328.594 171.226C328.827 171.399 329.072 171.624 329.315 171.888C329.559 172.151 329.795 172.448 330.012 172.761C331.963 175.567 332.642 177.217 332.049 177.708C329.053 180.207 325.831 182.695 322.384 185.172C321.917 185.503 322.188 186.03 323.198 186.752Z" fill="white"/>
</g>
</g>
<g style="mix-blend-mode:screen">
<path d="M92.5412 166.066L0 228.496V138.391L23.5718 123.35L57.6047 101.692L63.0259 128.163L70.2541 138.391L87.7224 162.456L92.5412 166.066Z" fill="url(#paint4_linear_15_565)" fill-opacity="0.15"/>
<path d="M60.4425 101.51C69.7522 106.257 76.0791 109.641 79.4231 111.661C82.2976 113.397 99.4159 138.502 102.911 143.457C107.95 150.6 109.716 154.743 107.22 156.511C102.513 159.831 97.8157 163.163 93.127 166.509C91.5458 167.628 87.65 163.994 84.4172 159.438C77.1481 149.184 69.8877 138.931 62.636 128.677C61.7051 127.363 61.0845 125.797 60.7742 123.98C58.9442 113.257 57.8776 106.129 57.5745 102.597C57.4329 100.825 58.3889 100.462 60.4425 101.51ZM80.794 116.367L63.2935 107.185C62.8905 106.974 62.5635 106.931 62.3508 107.062C62.1382 107.192 62.0487 107.491 62.0929 107.922C62.5844 112.892 63.2885 118.202 64.2053 123.851C64.6636 126.676 64.5816 127.79 67.01 131.237C73.5029 140.431 80.0174 149.61 86.5533 158.774C88.2339 161.129 89.5681 161.938 90.3759 161.366C95.0938 158.038 99.7041 154.767 104.207 151.554C104.356 151.449 104.444 151.259 104.464 150.995C104.485 150.731 104.437 150.398 104.325 150.016C104.213 149.633 104.038 149.208 103.81 148.764C103.582 148.321 103.306 147.868 102.997 147.432C95.8879 137.379 88.7653 127.317 81.6295 117.246C81.5054 117.056 81.3634 116.875 81.2172 116.721C81.0709 116.567 80.9252 116.445 80.794 116.367Z" fill="white"/>
<path d="M79.9434 127.127L78.2227 126.063C78.1205 126.001 78.0088 125.91 77.8954 125.797C77.782 125.684 77.6695 125.551 77.5656 125.408C77.4625 125.267 77.3708 125.118 77.2969 124.973C77.2229 124.828 77.1686 124.69 77.1379 124.569L76.4702 121.967C76.4348 121.862 76.4176 121.77 76.4198 121.697C76.422 121.624 76.4436 121.572 76.4831 121.544C76.5225 121.516 76.579 121.513 76.6486 121.535C76.7183 121.557 76.7995 121.604 76.8869 121.672L83.7676 126.342C84.1451 126.599 84.5591 126.991 84.9556 127.465C85.352 127.94 85.7126 128.475 85.9903 129.002C86.2676 129.528 86.4483 130.021 86.5082 130.415C86.5681 130.809 86.5044 131.085 86.3257 131.207L76.4709 138.166C76.405 138.213 76.3008 138.204 76.171 138.138C76.0413 138.073 75.8913 137.955 75.7392 137.798C75.2742 137.335 74.8131 136.79 74.3899 136.201C73.9668 135.613 73.5924 134.997 73.2943 134.4C73.1748 134.169 73.0995 133.955 73.0789 133.787C73.0583 133.619 73.0933 133.506 73.1793 133.463L80.5481 128.245C80.5899 128.217 80.6042 128.152 80.589 128.059C80.5738 127.966 80.5299 127.85 80.4633 127.727C80.3968 127.604 80.3109 127.48 80.2177 127.372C80.1245 127.265 80.0286 127.179 79.9434 127.127Z" fill="white"/>
<path d="M84.8666 144.189L86.0362 145.04C86.1123 145.082 86.1973 145.15 86.284 145.236C86.3706 145.323 86.4562 145.426 86.5334 145.537C86.6105 145.648 86.6769 145.762 86.7267 145.872C86.7765 145.981 86.8082 146.081 86.8192 146.164L87.421 148.453C87.481 148.686 87.463 148.853 87.3705 148.922C87.278 148.991 87.1174 148.957 86.9186 148.828C84.8281 147.467 82.7116 146.017 80.569 144.479C80.2676 144.264 79.9405 143.942 79.6328 143.558C77.4068 140.797 77.6885 139.673 78.5313 139.114C81.6555 137.028 84.7724 135.022 87.8819 133.097C87.9596 133.049 88.0667 133.045 88.197 133.085C88.3273 133.125 88.4781 133.208 88.6409 133.329C88.8037 133.451 88.9751 133.608 89.1453 133.792C89.3155 133.977 89.4811 134.184 89.6325 134.403C90.9969 136.366 91.4718 137.52 91.0572 137.864C88.9618 139.611 86.7083 141.352 84.2968 143.084C83.9703 143.315 84.1602 143.684 84.8666 144.189Z" fill="white"/>
</g>
<g style="mix-blend-mode:screen">
<path d="M97.0002 298.7L46.9653 339.002L13 296.511L55.1827 272.8L75.8175 259.668L79.1045 275.719L83.4871 281.92L94.0784 296.511L97.0002 298.7Z" fill="url(#paint5_linear_15_565)" fill-opacity="0.15"/>
<path d="M77.5401 259.558C83.1848 262.437 87.0209 264.488 89.0485 265.713C90.7913 266.766 101.17 281.987 103.29 284.991C106.345 289.323 107.416 291.834 105.902 292.906C103.049 294.919 100.2 296.94 97.3574 298.968C96.3987 299.647 94.0366 297.444 92.0765 294.681C87.6691 288.464 83.267 282.247 78.8701 276.03C78.3057 275.233 77.9294 274.284 77.7413 273.182C76.6317 266.681 75.985 262.359 75.8012 260.218C75.7154 259.143 76.295 258.923 77.5401 259.558ZM89.8796 268.566L79.2688 262.999C79.0244 262.871 78.8262 262.845 78.6972 262.924C78.5683 263.004 78.514 263.185 78.5408 263.446C78.8388 266.459 79.2657 269.679 79.8216 273.104C80.0995 274.817 80.0498 275.492 81.5221 277.583C85.4589 283.157 89.4088 288.722 93.3716 294.278C94.3906 295.706 95.1995 296.197 95.6893 295.85C98.5499 293.832 101.345 291.849 104.075 289.901C104.166 289.837 104.219 289.722 104.231 289.562C104.244 289.402 104.215 289.2 104.147 288.968C104.079 288.736 103.973 288.478 103.835 288.209C103.696 287.941 103.529 287.666 103.342 287.401C99.0314 281.306 94.7128 275.206 90.3862 269.099C90.311 268.984 90.2249 268.875 90.1362 268.781C90.0475 268.688 89.9592 268.614 89.8796 268.566Z" fill="white"/>
<path d="M89.3654 275.088L88.3221 274.444C88.2601 274.406 88.1924 274.351 88.1237 274.282C88.0549 274.213 87.9867 274.133 87.9237 274.047C87.8612 273.961 87.8056 273.871 87.7608 273.782C87.7159 273.694 87.683 273.611 87.6644 273.537L87.2595 271.96C87.238 271.897 87.2276 271.841 87.229 271.796C87.2303 271.752 87.2434 271.72 87.2673 271.703C87.2913 271.687 87.3255 271.685 87.3677 271.698C87.4099 271.712 87.4592 271.74 87.5122 271.781L91.6841 274.613C91.913 274.769 92.164 275.006 92.4044 275.294C92.6448 275.581 92.8634 275.906 93.0318 276.226C93.1999 276.545 93.3094 276.843 93.3457 277.082C93.3821 277.321 93.3435 277.488 93.2351 277.562L87.26 281.782C87.22 281.81 87.1568 281.805 87.0782 281.765C86.9995 281.725 86.9085 281.654 86.8163 281.559C86.5344 281.278 86.2548 280.947 85.9982 280.591C85.7417 280.234 85.5146 279.861 85.3339 279.498C85.2615 279.358 85.2158 279.228 85.2033 279.127C85.1908 279.025 85.2121 278.956 85.2642 278.93L89.7321 275.766C89.7574 275.749 89.7661 275.71 89.7569 275.654C89.7477 275.597 89.721 275.527 89.6806 275.452C89.6403 275.378 89.5882 275.302 89.5317 275.237C89.4752 275.172 89.4171 275.12 89.3654 275.088Z" fill="white"/>
<path d="M92.3484 285.438L93.0576 285.954C93.1038 285.979 93.1553 286.02 93.2079 286.073C93.2604 286.125 93.3123 286.188 93.3591 286.255C93.4058 286.322 93.4461 286.392 93.4763 286.458C93.5065 286.524 93.5257 286.585 93.5324 286.635L93.8973 288.023C93.9336 288.165 93.9227 288.266 93.8667 288.308C93.8106 288.35 93.7131 288.329 93.5926 288.25C92.3251 287.425 91.0418 286.546 89.7427 285.614C89.56 285.483 89.3617 285.288 89.1751 285.055C87.8254 283.381 87.9962 282.7 88.5072 282.361C90.4015 281.096 92.2914 279.88 94.1767 278.713C94.2238 278.684 94.2888 278.681 94.3678 278.705C94.4467 278.73 94.5382 278.78 94.6369 278.854C94.7356 278.927 94.8395 279.023 94.9427 279.134C95.0459 279.246 95.1463 279.372 95.2382 279.505C96.0654 280.695 96.3533 281.394 96.102 281.603C94.8315 282.662 93.4651 283.718 92.003 284.768C91.805 284.908 91.9202 285.132 92.3484 285.438Z" fill="white"/>
</g>
<defs>
<linearGradient id="paint0_linear_15_565" x1="331.63" y1="164.972" x2="177.492" y2="269.609" gradientUnits="userSpaceOnUse">
<stop stop-color="#1877FF"/>
<stop offset="1" stop-color="#1877FF" stop-opacity="0"/>
</linearGradient>
<linearGradient id="paint1_linear_15_565" x1="174.5" y1="272.497" x2="250.5" y2="213.497" gradientUnits="userSpaceOnUse">
<stop stop-color="#2966FF"/>
<stop offset="1" stop-color="#2966FF" stop-opacity="0"/>
</linearGradient>
<linearGradient id="paint2_linear_15_565" x1="222.08" y1="252.81" x2="301.979" y2="157.92" gradientUnits="userSpaceOnUse">
<stop stop-color="#2966FF"/>
<stop offset="1" stop-color="#2966FF" stop-opacity="0"/>
</linearGradient>
<linearGradient id="paint3_linear_15_565" x1="132.091" y1="289.948" x2="198.459" y2="242.163" gradientUnits="userSpaceOnUse">
<stop stop-color="#2966FF"/>
<stop offset="1" stop-color="#2966FF" stop-opacity="0"/>
</linearGradient>
<linearGradient id="paint4_linear_15_565" x1="89.5294" y1="129.367" x2="0.0466807" y2="171.097" gradientUnits="userSpaceOnUse">
<stop stop-color="#1877FF"/>
<stop offset="1" stop-color="#1877FF" stop-opacity="0"/>
</linearGradient>
<linearGradient id="paint5_linear_15_565" x1="95.1741" y1="276.448" x2="30.5793" y2="320.106" gradientUnits="userSpaceOnUse">
<stop stop-color="#1877FF"/>
<stop offset="1" stop-color="#1877FF" stop-opacity="0"/>
</linearGradient>
</defs>
</svg>
