<svg xmlns="http://www.w3.org/2000/svg" width="34" height="34"><path style="stroke:none;fill-rule:nonzero;fill:#2966ff;fill-opacity:.101961" d="M34 17c0 9.39-7.61 17-17 17S0 26.39 0 17 7.61 0 17 0s17 7.61 17 17Zm0 0"/><path style="fill:none;stroke-width:1;stroke-linecap:butt;stroke-linejoin:miter;stroke:#2966ff;stroke-opacity:.501961;stroke-miterlimit:4" d="M33.5 17c0 9.113-7.387 16.5-16.5 16.5S.5 26.113.5 17 7.887.5 17 .5 33.5 7.887 33.5 17Zm0 0"/><path style="fill-rule:nonzero;fill:#2966ff;fill-opacity:1;stroke-width:.3;stroke-linecap:butt;stroke-linejoin:miter;stroke:none;stroke-opacity:1;stroke-miterlimit:4" d="m20.621 13.762-1-.782a.523.523 0 0 1-.2-.378.48.48 0 0 1 0-.211.425.425 0 0 1 .13-.18l1.18-1.05a.479.479 0 0 1 .148-.102c.11-.051.234-.051.34 0 .058.023.11.058.152.101L25 14.41c.2.18.336.41.398.668.063.262.043.535-.058.781a1.275 1.275 0 0 1-.48.602 1.38 1.38 0 0 1-.75.23H9.23a.558.558 0 0 1-.421-.312 1.915 1.915 0 0 1-.22-.867c-.01-.305.052-.606.18-.883a.555.555 0 0 1 .55-.34h11.11a.27.27 0 0 0 .18-.059.263.263 0 0 0 .11-.14.283.283 0 0 0 0-.18.23.23 0 0 0-.098-.148ZM13.398 20.762l.57.566a.33.33 0 0 1 .11.133.28.28 0 0 1 0 .16.28.28 0 0 1 0 .16.318.318 0 0 1-.11.13l-1 .917a.596.596 0 0 1-.39.152.59.59 0 0 1-.379-.14 63.434 63.434 0 0 1-3.3-3 1.014 1.014 0 0 1-.29-.54c-.27-1.472.813-1.788 2.063-1.78 4.648.05 9.219.109 13.738.21.11.004.219.028.32.07a.895.895 0 0 1 .27.2c.07.082.129.18.172.281.039.106.058.215.058.328 0 1-.37 1.5-1 1.52-3.332.086-6.851.137-10.55.152-.532-.02-.625.14-.282.48Zm0 0"/></svg>