<svg width="224" height="170" viewBox="0 0 224 170" fill="none" xmlns="http://www.w3.org/2000/svg">
<rect width="224" height="170" fill="#F5F5F5"/>
<g id="06_Staking">
<rect width="1920" height="1329" transform="translate(-390 -147)" fill="#F3F4FA"/>
<g id="Group 64169">
<g id="Group 64168">
<rect id="Rectangle 7429" x="-70" y="-50" width="1115" height="282" rx="9" fill="white"/>
<g id="Group 64207">
<g id="Frame">
<g id="Group">
<g id="OBJECTS">
<g id="Group_2" filter="url(#filter0_d_0_1)">
<g id="Group_3" opacity="0.7">
<path id="Vector" d="M43.9922 147.78L61.4072 137.742L79.2625 135.906L93.3887 144.05L105.909 143.546L116.753 137.289" stroke="#173D82" stroke-width="0.53" stroke-miterlimit="10"/>
<path id="Vector_2" d="M78.7246 139.593L92.4495 147.504L107.145 146.916L125.959 136.07" stroke="#173D82" stroke-width="0.53" stroke-miterlimit="10"/>
<path id="Vector_3" d="M155.027 161.893L137.606 151.855L119.757 150.02L105.624 158.157L93.1037 157.66L82.2598 151.403" stroke="#173D82" stroke-width="0.53" stroke-miterlimit="10"/>
<path id="Vector_4" d="M120.288 153.702L106.563 161.614L91.8675 161.019L73.0605 150.18" stroke="#173D82" stroke-width="0.53" stroke-miterlimit="10"/>
<path id="Vector_5" d="M92.4571 137.432L75.0356 127.394L57.1868 125.559L43.0606 133.703L30.5399 133.199L19.6895 126.948" stroke="#173D82" stroke-width="0.53" stroke-miterlimit="10"/>
<path id="Vector_6" d="M57.716 129.245L43.9912 137.157L29.3017 136.569L10.4883 125.723" stroke="#173D82" stroke-width="0.53" stroke-miterlimit="10"/>
</g>
<g id="Group_4" opacity="0.7">
<path id="Vector_7" d="M215.981 103.853L198.559 93.8083L180.71 91.9727L166.578 100.117L154.057 99.6127L143.213 93.3623" stroke="#163A7A" stroke-width="0.53" stroke-miterlimit="10"/>
<path id="Vector_8" d="M181.239 95.6594L167.515 103.571L152.819 102.983L134.012 92.1367" stroke="#163A7A" stroke-width="0.53" stroke-miterlimit="10"/>
<path id="Vector_9" d="M142.39 93.7132C142.785 93.9394 143.419 93.9394 143.814 93.7132C144.209 93.487 144.209 93.1186 143.814 92.8923C143.419 92.6661 142.785 92.6661 142.39 92.8923C141.995 93.1186 141.995 93.487 142.39 93.7132Z" fill="#2A49F9"/>
<path id="Vector_10" d="M133.191 92.4827C133.586 92.709 134.22 92.709 134.615 92.4827C135.01 92.2565 135.01 91.8881 134.615 91.6619C134.22 91.4356 133.586 91.4356 133.191 91.6619C132.796 91.8881 132.796 92.2565 133.191 92.4827Z" fill="#2A49F9"/>
<path id="Vector_11" d="M152.056 103.358C152.451 103.584 153.085 103.584 153.48 103.358C153.875 103.132 153.875 102.763 153.48 102.537C153.085 102.311 152.451 102.311 152.056 102.537C151.661 102.763 151.661 103.132 152.056 103.358Z" fill="#2A49F9"/>
<path id="Vector_12" d="M153.343 100.03C153.738 100.256 154.372 100.256 154.767 100.03C155.162 99.8034 155.162 99.435 154.767 99.2087C154.372 98.9825 153.738 98.9825 153.343 99.2087C152.948 99.435 152.948 99.8034 153.343 100.03Z" fill="#2A49F9"/>
<path id="Vector_13" d="M180.036 92.4398C180.431 92.666 181.066 92.666 181.461 92.4398C181.856 92.2135 181.856 91.8451 181.461 91.6189C181.066 91.3927 180.431 91.3927 180.036 91.6189C179.642 91.8451 179.642 92.2135 180.036 92.4398Z" fill="#2A49F9"/>
<path id="Vector_14" d="M180.529 96.0726C180.924 96.2988 181.558 96.2988 181.953 96.0726C182.348 95.8464 182.348 95.4779 181.953 95.2517C181.558 95.0255 180.924 95.0255 180.529 95.2517C180.134 95.4779 180.134 95.8464 180.529 96.0726Z" fill="#2A49F9"/>
<path id="Vector_15" d="M215.267 104.264C215.662 104.49 216.296 104.49 216.691 104.264C217.086 104.038 217.086 103.669 216.691 103.443C216.296 103.217 215.662 103.217 215.267 103.443C214.872 103.669 214.872 104.038 215.267 104.264Z" fill="#2A49F9"/>
<path id="Vector_16" d="M130.82 119.06L148.242 109.015L166.091 107.18L180.217 115.324" stroke="#163A7A" stroke-width="0.53" stroke-miterlimit="10"/>
<path id="Vector_17" d="M165.561 110.859L179.285 118.771" stroke="#163A7A" stroke-width="0.53" stroke-miterlimit="10"/>
<path id="Vector_18" d="M166.758 107.643C166.363 107.869 165.728 107.869 165.333 107.643C164.938 107.417 164.938 107.048 165.333 106.822C165.728 106.596 166.363 106.596 166.758 106.822C167.152 107.048 167.152 107.417 166.758 107.643Z" fill="#2A49F9"/>
<path id="Vector_19" d="M166.271 111.276C165.876 111.502 165.242 111.502 164.847 111.276C164.452 111.049 164.452 110.681 164.847 110.455C165.242 110.229 165.876 110.229 166.271 110.455C166.666 110.681 166.666 111.049 166.271 111.276Z" fill="#2A49F9"/>
<path id="Vector_20" d="M131.533 119.467C131.138 119.693 130.504 119.693 130.109 119.467C129.714 119.241 129.714 118.872 130.109 118.646C130.504 118.42 131.138 118.42 131.533 118.646C131.928 118.872 131.928 119.241 131.533 119.467Z" fill="#2A49F9"/>
<path id="Vector_21" d="M132.848 129.056L150.269 119.011L168.118 117.176L182.244 125.32" stroke="#163A7A" stroke-width="0.53" stroke-miterlimit="10"/>
<path id="Vector_22" d="M167.586 120.859L181.311 128.771" stroke="#163A7A" stroke-width="0.53" stroke-miterlimit="10"/>
<path id="Vector_23" d="M168.785 117.639C168.39 117.865 167.756 117.865 167.361 117.639C166.966 117.413 166.966 117.044 167.361 116.818C167.756 116.592 168.39 116.592 168.785 116.818C169.18 117.044 169.18 117.413 168.785 117.639Z" fill="#2A49F9"/>
<path id="Vector_24" d="M168.299 121.272C167.904 121.498 167.269 121.498 166.874 121.272C166.479 121.046 166.479 120.677 166.874 120.451C167.269 120.225 167.904 120.225 168.299 120.451C168.693 120.677 168.693 121.046 168.299 121.272Z" fill="#2A49F9"/>
<path id="Vector_25" d="M133.56 129.463C133.165 129.689 132.531 129.689 132.136 129.463C131.741 129.237 131.741 128.869 132.136 128.642C132.531 128.416 133.165 128.416 133.56 128.642C133.955 128.869 133.955 129.237 133.56 129.463Z" fill="#2A49F9"/>
</g>
<g id="Group_5" opacity="0.7">
<path id="Vector_26" d="M41.5449 71.4844L58.96 81.5289L76.8152 83.3645L90.9415 75.2204L103.462 75.7245L114.313 81.9749" stroke="#16356F" stroke-width="0.53" stroke-miterlimit="10"/>
<path id="Vector_27" d="M76.2832 79.6771L90.0016 71.7656L104.698 72.3538L123.511 83.1998" stroke="#16356F" stroke-width="0.53" stroke-miterlimit="10"/>
<path id="Vector_28" d="M115.135 81.6228C114.74 81.3966 114.105 81.3966 113.71 81.6228C113.315 81.849 113.315 82.2175 113.71 82.4437C114.105 82.6699 114.74 82.6699 115.135 82.4437C115.529 82.2175 115.529 81.849 115.135 81.6228Z" fill="#2A49F9"/>
<path id="Vector_29" d="M124.334 82.8533C123.939 82.627 123.304 82.627 122.909 82.8533C122.515 83.0795 122.515 83.4479 122.909 83.6741C123.304 83.9004 123.939 83.9004 124.334 83.6741C124.729 83.4479 124.729 83.0795 124.334 82.8533Z" fill="#2A49F9"/>
<path id="Vector_30" d="M105.469 71.9744C105.074 71.7481 104.439 71.7481 104.044 71.9744C103.649 72.2006 103.649 72.569 104.044 72.7952C104.439 73.0215 105.074 73.0215 105.469 72.7952C105.863 72.569 105.863 72.2006 105.469 71.9744Z" fill="#2A49F9"/>
<path id="Vector_31" d="M104.174 75.3103C103.779 75.0841 103.144 75.0841 102.749 75.3103C102.354 75.5365 102.354 75.9049 102.749 76.1312C103.144 76.3574 103.779 76.3574 104.174 76.1312C104.568 75.9049 104.568 75.5365 104.174 75.3103Z" fill="#2A49F9"/>
<path id="Vector_32" d="M77.4822 82.8962C77.0873 82.67 76.4528 82.67 76.0579 82.8962C75.663 83.1225 75.663 83.4909 76.0579 83.7171C76.4528 83.9433 77.0873 83.9433 77.4822 83.7171C77.8771 83.4909 77.8771 83.1225 77.4822 82.8962Z" fill="#2A49F9"/>
<path id="Vector_33" d="M76.9959 79.2634C76.6009 79.0372 75.9665 79.0372 75.5716 79.2634C75.1767 79.4896 75.1767 79.8581 75.5716 80.0843C75.9665 80.3105 76.6009 80.3105 76.9959 80.0843C77.3908 79.8581 77.3908 79.4896 76.9959 79.2634Z" fill="#2A49F9"/>
<path id="Vector_34" d="M42.2556 71.0759C41.8607 70.8497 41.2263 70.8497 40.8313 71.0759C40.4364 71.3021 40.4364 71.6706 40.8313 71.8968C41.2263 72.123 41.8607 72.123 42.2556 71.8968C42.6505 71.6706 42.6505 71.3021 42.2556 71.0759Z" fill="#2A49F9"/>
<path id="Vector_35" d="M152.58 57.375L135.159 67.4195L117.31 69.2552L103.184 61.111L90.6629 61.6151L79.8125 67.8655" stroke="#16356F" stroke-width="0.53" stroke-miterlimit="10"/>
<path id="Vector_36" d="M117.841 65.5677L104.116 57.6562L89.4267 58.2444L70.6133 69.0904" stroke="#16356F" stroke-width="0.53" stroke-miterlimit="10"/>
<path id="Vector_37" d="M78.9895 67.5134C79.3845 67.2872 80.0189 67.2872 80.4138 67.5134C80.8087 67.7396 80.8087 68.1081 80.4138 68.3343C80.0189 68.5605 79.3845 68.5605 78.9895 68.3343C78.5946 68.1081 78.5946 67.7396 78.9895 67.5134Z" fill="#2A49F9"/>
<path id="Vector_38" d="M69.7903 68.7439C70.1852 68.5177 70.8197 68.5177 71.2146 68.7439C71.6095 68.9701 71.6095 69.3385 71.2146 69.5648C70.8197 69.791 70.1852 69.791 69.7903 69.5648C69.3954 69.3385 69.3954 68.9701 69.7903 68.7439Z" fill="#2A49F9"/>
<path id="Vector_39" d="M88.6556 57.8728C89.0505 57.6466 89.6849 57.6466 90.0798 57.8728C90.4747 58.099 90.4747 58.4675 90.0798 58.6937C89.6849 58.9199 89.0505 58.9199 88.6556 58.6937C88.2606 58.4675 88.2606 58.099 88.6556 57.8728Z" fill="#2A49F9"/>
<path id="Vector_40" d="M89.9505 61.2009C90.3454 60.9747 90.9798 60.9747 91.3748 61.2009C91.7697 61.4271 91.7697 61.7956 91.3748 62.0218C90.9798 62.248 90.3454 62.248 89.9505 62.0218C89.5556 61.7956 89.5556 61.4271 89.9505 61.2009Z" fill="#2A49F9"/>
<path id="Vector_41" d="M116.644 68.7869C117.039 68.5606 117.673 68.5606 118.068 68.7869C118.463 69.0131 118.463 69.3815 118.068 69.6077C117.673 69.834 117.039 69.834 116.644 69.6077C116.249 69.3815 116.249 69.0131 116.644 68.7869Z" fill="#2A49F9"/>
<path id="Vector_42" d="M117.128 65.154C117.523 64.9278 118.158 64.9278 118.552 65.154C118.947 65.3803 118.947 65.7487 118.552 65.9749C118.158 66.2012 117.523 66.2012 117.128 65.9749C116.733 65.7487 116.733 65.3803 117.128 65.154Z" fill="#2A49F9"/>
<path id="Vector_43" d="M151.866 56.9665C152.261 56.7403 152.896 56.7403 153.291 56.9665C153.686 57.1928 153.686 57.5612 153.291 57.7874C152.896 58.0137 152.261 58.0137 151.866 57.7874C151.472 57.5612 151.472 57.1928 151.866 56.9665Z" fill="#2A49F9"/>
<path id="Vector_44" d="M90.0079 81.832L72.5928 91.8765L54.7376 93.7122L40.6113 85.568L28.0906 86.0722L17.2402 92.3225" stroke="#16356F" stroke-width="0.53" stroke-miterlimit="10"/>
<path id="Vector_45" d="M55.2688 90.0287L41.5504 82.1172L26.8544 82.7054L8.04102 93.5513" stroke="#16356F" stroke-width="0.53" stroke-miterlimit="10"/>
<path id="Vector_46" d="M16.4251 91.9744C16.82 91.7481 17.4545 91.7481 17.8494 91.9744C18.2443 92.2006 18.2443 92.569 17.8494 92.7952C17.4545 93.0215 16.82 93.0215 16.4251 92.7952C16.0302 92.569 16.0302 92.2006 16.4251 91.9744Z" fill="#2A49F9"/>
<path id="Vector_47" d="M7.22587 93.2009C7.62079 92.9747 8.25524 92.9747 8.65015 93.2009C9.04506 93.4271 9.04506 93.7956 8.65015 94.0218C8.25524 94.248 7.62079 94.248 7.22587 94.0218C6.83096 93.7956 6.83096 93.4271 7.22587 93.2009Z" fill="#2A49F9"/>
<path id="Vector_48" d="M26.0852 82.3259C26.4802 82.0997 27.1146 82.0997 27.5095 82.3259C27.9044 82.5521 27.9044 82.9206 27.5095 83.1468C27.1146 83.373 26.4802 83.373 26.0852 83.1468C25.6903 82.9206 25.6903 82.5521 26.0852 82.3259Z" fill="#2A49F9"/>
<path id="Vector_49" d="M27.3782 85.658C27.7731 85.4317 28.4076 85.4317 28.8025 85.658C29.1974 85.8842 29.1974 86.2526 28.8025 86.4788C28.4076 86.7051 27.7731 86.7051 27.3782 86.4788C26.9833 86.2526 26.9833 85.8842 27.3782 85.658Z" fill="#2A49F9"/>
<path id="Vector_50" d="M54.0716 93.2478C54.4665 93.0216 55.1009 93.0216 55.4959 93.2478C55.8908 93.474 55.8908 93.8425 55.4959 94.0687C55.1009 94.2949 54.4665 94.2949 54.0716 94.0687C53.6767 93.8425 53.6767 93.474 54.0716 93.2478Z" fill="#2A49F9"/>
<path id="Vector_51" d="M54.5579 89.615C54.9528 89.3888 55.5873 89.3888 55.9822 89.615C56.3771 89.8412 56.3771 90.2096 55.9822 90.4359C55.5873 90.6621 54.9528 90.6621 54.5579 90.4359C54.163 90.2096 54.163 89.8412 54.5579 89.615Z" fill="#2A49F9"/>
<path id="Vector_52" d="M89.2962 81.4275C89.6911 81.2013 90.3256 81.2013 90.7205 81.4275C91.1154 81.6537 91.1154 82.0221 90.7205 82.2484C90.3256 82.4746 89.6911 82.4746 89.2962 82.2484C88.9013 82.0221 88.9013 81.6537 89.2962 81.4275Z" fill="#2A49F9"/>
</g>
</g>
<path id="Vector_53" d="M103.707 55.5066C95.7378 55.5066 89.2832 48.138 89.2832 39.0502C89.2832 29.9623 95.7442 22.5938 103.707 22.5938C111.67 22.5938 118.131 29.9623 118.131 39.0502C118.131 48.138 111.67 55.5066 103.707 55.5066Z" fill="url(#paint0_linear_0_1)"/>
<path id="Vector_54" d="M89.2848 39.0488C89.2848 30.6396 94.8071 23.7106 101.941 22.7152C101.365 22.6312 100.776 22.5859 100.174 22.5859C92.2046 22.5859 85.75 29.9545 85.75 39.0423C85.75 48.1302 92.211 55.4988 100.174 55.4988C100.77 55.4988 101.359 55.4535 101.941 55.3695C94.8071 54.3741 89.2848 47.4451 89.2848 39.0359" fill="url(#paint1_linear_0_1)"/>
<g id="Group_6" style="mix-blend-mode:overlay" opacity="0.5">
<path id="Vector_55" d="M89.2842 39.6328H85.7559C85.7688 40.0271 85.7882 40.4214 85.8271 40.8092H89.3619C89.323 40.4214 89.3036 40.0271 89.2907 39.6328" fill="url(#paint2_linear_0_1)"/>
<path id="Vector_56" d="M89.4196 36.6953H85.8913C85.8395 37.0831 85.8071 37.4774 85.7812 37.8717H89.3161C89.3419 37.4774 89.3743 37.0831 89.4261 36.6953" fill="url(#paint3_linear_0_1)"/>
<path id="Vector_57" d="M89.609 42.5781H86.0742C86.1519 42.9724 86.2361 43.3667 86.3397 43.7545H89.8745C89.7709 43.3667 89.6867 42.9789 89.609 42.5781Z" fill="url(#paint4_linear_0_1)"/>
<path id="Vector_58" d="M90.4293 45.5156H86.8945C87.0434 45.9164 87.2118 46.3107 87.3866 46.692H90.9214C90.7466 46.3107 90.5782 45.9164 90.4293 45.5156Z" fill="url(#paint5_linear_0_1)"/>
<path id="Vector_59" d="M90.0344 33.7578H86.5061C86.3895 34.1456 86.2859 34.5334 86.1953 34.9342H89.7301C89.8208 34.5399 89.9179 34.1456 90.0344 33.7578Z" fill="url(#paint6_linear_0_1)"/>
<path id="Vector_60" d="M91.2075 30.8203H87.6727C87.4785 31.2017 87.2972 31.5959 87.1289 31.9967H90.6637C90.832 31.5959 91.0133 31.2017 91.2075 30.8203Z" fill="url(#paint7_linear_0_1)"/>
<path id="Vector_61" d="M93.6082 27.2891H90.0734C89.7367 27.664 89.4195 28.0518 89.1152 28.4654H92.65C92.9543 28.0582 93.2715 27.664 93.6082 27.2891Z" fill="url(#paint8_linear_0_1)"/>
<path id="Vector_62" d="M97.2093 24.3555H93.668C93.0659 24.7045 92.4897 25.0923 91.9395 25.5318H95.4743C96.0245 25.0988 96.6007 24.7045 97.2028 24.3555" fill="url(#paint9_linear_0_1)"/>
<path id="Vector_63" d="M92.2418 49.0391H88.707C88.9789 49.4463 89.2703 49.8406 89.5745 50.2154H93.1093C92.8051 49.8406 92.5137 49.4463 92.2418 49.0391Z" fill="url(#paint10_linear_0_1)"/>
<path id="Vector_64" d="M91.2461 51.9805C91.7187 52.4071 92.2172 52.8013 92.7351 53.1568H96.2764C95.7585 52.8013 95.2535 52.4071 94.7809 51.9805H91.2526H91.2461Z" fill="url(#paint11_linear_0_1)"/>
</g>
<path id="Vector_65" opacity="0.6" d="M104.265 52.1708C110.7 52.1708 115.918 46.2992 115.918 39.0561C115.918 31.8131 110.7 25.9414 104.265 25.9414C97.8286 25.9414 92.6113 31.8131 92.6113 39.0561C92.6113 46.2992 97.8286 52.1708 104.265 52.1708Z" stroke="url(#paint12_linear_0_1)" stroke-width="1.08" stroke-miterlimit="10"/>
<path id="Vector_66" opacity="0.6" d="M104.355 51.0124C110.2 51.0124 114.939 45.6791 114.939 39.1C114.939 32.5209 110.2 27.1875 104.355 27.1875C98.5086 27.1875 93.7695 32.5209 93.7695 39.1C93.7695 45.6791 98.5086 51.0124 104.355 51.0124Z" stroke="url(#paint13_linear_0_1)" stroke-width="0.32" stroke-miterlimit="10"/>
<path id="Vector_67" d="M75.0607 24.5652C72.9502 26.3815 69.5578 25.9032 67.4732 23.4987C65.3886 21.0943 65.4145 17.6685 67.525 15.8523C69.6355 14.036 73.0279 14.5143 75.1125 16.9188C77.1971 19.3232 77.1712 22.749 75.0607 24.5652Z" fill="url(#paint14_linear_0_1)"/>
<path id="Vector_68" d="M75.1125 16.9195C77.0352 19.143 77.1582 22.239 75.5009 24.1329C75.6757 24.023 75.8375 23.9002 75.9994 23.7645C78.1099 21.9482 78.1293 18.5224 76.0512 16.118C73.973 13.7135 70.5742 13.2352 68.4637 15.0515C68.3083 15.1872 68.1594 15.3359 68.0234 15.491C70.1404 14.1272 73.1897 14.7024 75.1125 16.9259" fill="url(#paint15_linear_0_1)"/>
<g id="Group_7" style="mix-blend-mode:overlay" opacity="0.5">
<path id="Vector_69" d="M75.248 17.0736C75.3387 17.1835 75.4164 17.2933 75.5005 17.4032L76.4393 16.5953C76.3616 16.4854 76.2774 16.3755 76.1868 16.2656L75.2545 17.0736" fill="url(#paint16_linear_0_1)"/>
<path id="Vector_70" d="M74.5352 16.3236C74.6387 16.4141 74.7358 16.511 74.833 16.608L75.7652 15.8C75.6681 15.7031 75.571 15.6061 75.4674 15.5156L74.5352 16.3236Z" fill="url(#paint17_linear_0_1)"/>
<path id="Vector_71" d="M75.832 17.9277C75.9032 18.0505 75.968 18.1733 76.0327 18.2961L76.965 17.4882C76.9002 17.3654 76.8355 17.2361 76.7643 17.1133L75.832 17.9212" fill="url(#paint18_linear_0_1)"/>
<path id="Vector_72" d="M76.2916 18.8925C76.3434 19.0347 76.3887 19.1769 76.4276 19.3127L77.3598 18.5047C77.321 18.3625 77.2757 18.2203 77.2239 18.0781L76.2852 18.8861" fill="url(#paint19_linear_0_1)"/>
<path id="Vector_73" d="M73.7012 15.6908C73.8177 15.7683 73.9342 15.8459 74.0508 15.9299L74.9895 15.122C74.873 15.0379 74.7564 14.9604 74.6399 14.8828L73.7076 15.6908" fill="url(#paint20_linear_0_1)"/>
<path id="Vector_74" d="M72.7168 15.179C72.8528 15.2372 72.9952 15.2954 73.1311 15.3665L74.0699 14.5585C73.9339 14.4874 73.798 14.4293 73.6555 14.3711L72.7233 15.179" fill="url(#paint21_linear_0_1)"/>
<path id="Vector_75" d="M71.2734 14.7923C71.4482 14.8117 71.623 14.844 71.7978 14.8828L72.7366 14.0749C72.5618 14.0361 72.387 14.0038 72.2122 13.9844L71.2734 14.7923Z" fill="url(#paint22_linear_0_1)"/>
<path id="Vector_76" d="M69.6484 14.8373C69.888 14.792 70.1275 14.7662 70.3735 14.7533L71.3123 13.9453C71.0662 13.9582 70.8267 13.9841 70.5872 14.0293L69.6484 14.8373Z" fill="url(#paint23_linear_0_1)"/>
<path id="Vector_77" d="M76.6133 20.2337C76.6327 20.4018 76.6457 20.5763 76.6521 20.7444L77.5909 19.9364C77.5909 19.7684 77.5714 19.6003 77.552 19.4258L76.6198 20.2337" fill="url(#paint24_linear_0_1)"/>
<path id="Vector_78" d="M76.6217 21.5892C76.5958 21.809 76.5505 22.0287 76.4922 22.242L77.4309 21.4341C77.4892 21.2208 77.528 21.0075 77.5539 20.7812L76.6217 21.5892Z" fill="url(#paint25_linear_0_1)"/>
</g>
<path id="Vector_79" d="M74.3094 23.7266C74.2253 23.7977 74.1023 23.7847 74.0246 23.7007C73.9533 23.6167 73.9663 23.481 74.0505 23.4034C74.1476 23.3194 74.2382 23.2289 74.3224 23.1384C74.4001 23.0544 74.5295 23.0479 74.6137 23.1255C74.6979 23.203 74.7043 23.3323 74.6266 23.4163C74.5295 23.5197 74.426 23.6231 74.3159 23.7201L74.3029 23.733M73.2542 24.3471C73.2542 24.3471 73.2153 24.3729 73.1894 24.3859C73.0535 24.4376 72.9175 24.4763 72.7751 24.5087C72.665 24.5345 72.555 24.4699 72.5291 24.36C72.5032 24.2501 72.5679 24.1402 72.678 24.1144C72.801 24.0821 72.924 24.0498 73.047 24.0045C73.1506 23.9657 73.2736 24.0174 73.3124 24.1273C73.3448 24.2113 73.3124 24.3018 73.2542 24.3535M75.2611 22.4144C75.2028 22.4662 75.1251 22.4791 75.0475 22.4468C74.9439 22.4015 74.8921 22.2852 74.9374 22.1818C74.9827 22.0654 75.028 21.9426 75.0604 21.8198C75.0928 21.7099 75.2028 21.6453 75.3129 21.6776C75.4229 21.7099 75.4877 21.8198 75.4553 21.9297C75.4165 22.0654 75.3712 22.2012 75.3129 22.3369C75.2999 22.3692 75.2805 22.3951 75.2546 22.4144M71.6421 24.5604C71.6033 24.5927 71.5515 24.6121 71.4932 24.6121C71.3508 24.5992 71.2084 24.5798 71.0659 24.5604C70.9559 24.541 70.8782 24.4311 70.8976 24.3212C70.9171 24.2113 71.0271 24.1338 71.1372 24.1532C71.2666 24.1726 71.3961 24.1919 71.5191 24.2049C71.6292 24.2113 71.7198 24.3148 71.7069 24.4246C71.7069 24.4828 71.6745 24.5281 71.6357 24.5668M75.533 20.8244C75.5006 20.8567 75.4553 20.8761 75.4035 20.8761C75.287 20.8761 75.1964 20.7921 75.1899 20.6757C75.1899 20.5465 75.1769 20.4172 75.164 20.2879C75.151 20.178 75.2287 20.0746 75.3453 20.0617C75.4553 20.0488 75.5589 20.1263 75.5718 20.2427C75.5913 20.3849 75.5977 20.5271 75.6042 20.6693C75.6042 20.7339 75.5783 20.7921 75.533 20.8309M70.069 24.1467C70.0107 24.1984 69.9201 24.2113 69.8424 24.179C69.7129 24.1209 69.5899 24.0498 69.4669 23.9787C69.3698 23.9205 69.3374 23.7977 69.3957 23.6943C69.4539 23.5973 69.5769 23.565 69.6805 23.6232C69.7906 23.6878 69.9071 23.7524 70.0236 23.8041C70.1272 23.8558 70.1725 23.9787 70.1207 24.0756C70.1078 24.1015 70.0884 24.1273 70.069 24.1402M75.1964 19.2408C75.1964 19.2408 75.1575 19.2667 75.1381 19.2731C75.0345 19.3184 74.9115 19.2667 74.8727 19.1568C74.8273 19.034 74.7691 18.9176 74.7108 18.8013C74.659 18.6979 74.6979 18.5751 74.8014 18.5233C74.905 18.4716 75.028 18.5104 75.0798 18.6138C75.1446 18.7366 75.2028 18.8724 75.2546 19.0017C75.287 19.0857 75.2611 19.1762 75.1964 19.2343M68.7418 23.1966C68.6641 23.2677 68.5411 23.2612 68.4634 23.1836C68.3663 23.0867 68.2757 22.9897 68.185 22.8863V22.8734C68.1009 22.7893 68.1138 22.6601 68.2044 22.589C68.2886 22.5179 68.4246 22.5308 68.5023 22.6148C68.5864 22.7118 68.6706 22.8023 68.7612 22.8928C68.8389 22.9703 68.8454 23.1061 68.7612 23.1836C68.7612 23.1836 68.7547 23.1901 68.7483 23.1966M74.3483 17.8511C74.2641 17.9222 74.1281 17.9158 74.0569 17.8253C73.9728 17.7283 73.8821 17.6314 73.7915 17.5409C73.7138 17.4633 73.7073 17.3276 73.7915 17.25C73.8692 17.1724 73.9987 17.166 74.0828 17.25C74.1799 17.347 74.2771 17.4504 74.3677 17.5538C74.4389 17.6443 74.4324 17.7736 74.3418 17.8447M67.7836 21.878C67.7836 21.878 67.7577 21.8974 67.7448 21.9038C67.6412 21.9555 67.5182 21.9168 67.4664 21.8133C67.4017 21.6905 67.3434 21.5548 67.2916 21.4255C67.2463 21.3221 67.2981 21.1993 67.4082 21.1605C67.5117 21.1153 67.6347 21.167 67.6736 21.2769C67.7189 21.3997 67.7772 21.516 67.8354 21.6324C67.8807 21.7164 67.8549 21.8198 67.7836 21.878ZM73.0988 16.804C73.034 16.8622 72.9369 16.8687 72.8592 16.8234C72.7492 16.7588 72.6327 16.6941 72.5161 16.6424C72.4125 16.5907 72.3672 16.4679 72.419 16.371C72.4708 16.2675 72.5873 16.2223 72.6909 16.274C72.8204 16.3322 72.9434 16.4033 73.0664 16.4744C73.1635 16.5325 73.1959 16.6554 73.1376 16.7588C73.1247 16.7782 73.1117 16.7976 73.0923 16.8105M67.3046 20.3332C67.3046 20.3332 67.2398 20.3784 67.1945 20.3784C67.0844 20.3913 66.9809 20.3138 66.9679 20.1974C66.9485 20.0552 66.942 19.913 66.9355 19.7708C66.9355 19.6545 67.0197 19.564 67.1362 19.5575C67.2528 19.5575 67.3434 19.6416 67.3499 19.7579C67.3499 19.8872 67.3628 20.0164 67.3758 20.1457C67.3823 20.2168 67.3564 20.2815 67.3046 20.3267M71.5709 16.2352C71.5256 16.274 71.4673 16.2934 71.4026 16.2805C71.2731 16.2611 71.1436 16.2417 71.0206 16.2288C70.9041 16.2223 70.8199 16.1189 70.8329 16.009C70.8394 15.8991 70.9429 15.8086 71.053 15.8215C71.1954 15.8345 71.3379 15.8474 71.4803 15.8733C71.5903 15.8926 71.668 15.9961 71.6486 16.1124C71.6421 16.1641 71.6162 16.2029 71.5774 16.2352M67.4405 18.7108C67.3887 18.756 67.3175 18.7754 67.2463 18.756C67.1362 18.7237 67.0715 18.6074 67.1039 18.504C67.1427 18.3682 67.1945 18.226 67.2463 18.0967C67.2916 17.9933 67.4081 17.9416 67.5117 17.9869C67.6153 18.0321 67.6671 18.1485 67.6218 18.2583C67.57 18.3747 67.5312 18.4975 67.4923 18.6203C67.4794 18.6591 67.4599 18.6914 67.4276 18.7173M69.946 16.2869C69.946 16.2869 69.8942 16.3257 69.8618 16.3322C69.7388 16.3645 69.6158 16.4033 69.4928 16.4421C69.3892 16.4808 69.2662 16.4291 69.2273 16.3192C69.1885 16.2158 69.2403 16.093 69.3503 16.0542C69.4863 16.0025 69.6223 15.9637 69.7647 15.9314C69.8747 15.9056 69.9848 15.9702 70.0107 16.0801C70.0301 16.1577 70.0042 16.2352 69.946 16.2869ZM68.2109 17.3082C68.1332 17.3728 68.0167 17.3728 67.939 17.3082C67.8549 17.2306 67.8484 17.1013 67.9261 17.0173C68.0232 16.9139 68.1203 16.8169 68.2303 16.7265H68.2368C68.321 16.6489 68.4505 16.6618 68.5217 16.7458C68.5929 16.8299 68.5799 16.9656 68.4958 17.0367C68.3987 17.1207 68.308 17.2048 68.2239 17.2953C68.2239 17.2953 68.2109 17.3082 68.2044 17.3146" fill="url(#paint26_linear_0_1)"/>
<path id="Vector_80" d="M121.557 16.9111C118.366 14.2352 118.262 9.11597 121.324 5.47695C124.386 1.83792 129.455 1.05582 132.647 3.7253C135.839 6.40125 135.942 11.5204 132.88 15.1595C129.818 18.7985 124.749 19.5806 121.557 16.9111Z" fill="url(#paint27_linear_0_1)"/>
<path id="Vector_81" d="M132.881 15.1654C130.051 18.5329 125.5 19.4507 122.309 17.4535C122.516 17.6797 122.736 17.8995 122.975 18.0998C126.167 20.7758 131.236 19.9937 134.298 16.3482C137.361 12.7092 137.257 7.58998 134.065 4.91404C133.826 4.71367 133.573 4.53268 133.314 4.37109C135.839 7.16338 135.716 11.7978 132.881 15.1654Z" fill="url(#paint28_linear_0_1)"/>
<g id="Group_8" style="mix-blend-mode:overlay" opacity="0.5">
<path id="Vector_82" d="M132.679 15.3984C132.543 15.5536 132.401 15.7022 132.252 15.8444L133.67 17.0337C133.812 16.8915 133.955 16.7429 134.097 16.5877L132.686 15.4049" fill="url(#paint29_linear_0_1)"/>
<path id="Vector_83" d="M133.618 14.1783C133.508 14.3529 133.385 14.5209 133.262 14.6825L134.68 15.8653C134.803 15.6973 134.919 15.5292 135.029 15.3547L133.618 14.1719" fill="url(#paint30_linear_0_1)"/>
<path id="Vector_84" d="M131.56 16.4713C131.398 16.607 131.229 16.7299 131.055 16.8527L132.472 18.0355C132.641 17.9127 132.809 17.7899 132.977 17.6542L131.56 16.4648" fill="url(#paint31_linear_0_1)"/>
<path id="Vector_85" d="M130.244 17.3672C130.05 17.4771 129.849 17.5805 129.648 17.671L131.066 18.8603C131.267 18.7633 131.468 18.6664 131.662 18.5565L130.244 17.3672Z" fill="url(#paint32_linear_0_1)"/>
<path id="Vector_86" d="M134.362 12.793C134.278 12.9869 134.187 13.1743 134.09 13.3682L135.508 14.5575C135.605 14.3701 135.695 14.1762 135.78 13.9823L134.368 12.7994" fill="url(#paint33_linear_0_1)"/>
<path id="Vector_87" d="M134.88 11.2227C134.829 11.4424 134.77 11.6557 134.699 11.8755L136.117 13.0648C136.188 12.845 136.247 12.6317 136.298 12.412L134.88 11.2227Z" fill="url(#paint34_linear_0_1)"/>
<path id="Vector_88" d="M135.107 9.00781C135.113 9.27282 135.107 9.53137 135.094 9.80284L136.512 10.9921C136.531 10.7271 136.531 10.4621 136.525 10.2036L135.107 9.01428" fill="url(#paint35_linear_0_1)"/>
<path id="Vector_89" d="M134.652 6.62109C134.775 6.96367 134.879 7.3127 134.95 7.67467L136.368 8.86397C136.297 8.50201 136.193 8.15297 136.07 7.8104L134.652 6.62109Z" fill="url(#paint36_linear_0_1)"/>
<path id="Vector_90" d="M128.328 18.1797C128.082 18.2508 127.836 18.309 127.584 18.3607L129.002 19.55C129.248 19.5047 129.5 19.4401 129.746 19.369L128.328 18.1797Z" fill="url(#paint37_linear_0_1)"/>
<path id="Vector_91" d="M126.321 18.5011C125.985 18.514 125.654 18.5011 125.324 18.4688L126.742 19.6581C127.072 19.6904 127.402 19.6968 127.733 19.6839L126.321 18.5011Z" fill="url(#paint38_linear_0_1)"/>
</g>
<path id="Vector_92" d="M122.625 15.6052C122.495 15.4953 122.489 15.3079 122.599 15.1786C122.709 15.0493 122.91 15.0429 123.046 15.1463C123.194 15.2691 123.35 15.3854 123.505 15.4888C123.648 15.5858 123.686 15.7732 123.596 15.9154C123.505 16.0576 123.311 16.0964 123.169 16.0059C122.987 15.8896 122.812 15.7603 122.651 15.6181L122.631 15.5987M121.472 14.1961C121.472 14.1961 121.421 14.1444 121.401 14.1121C121.298 13.9246 121.2 13.7307 121.116 13.5304C121.052 13.3752 121.123 13.1943 121.278 13.1296C121.433 13.065 121.615 13.1361 121.68 13.2912C121.751 13.4657 121.841 13.6402 121.932 13.8083C122.016 13.957 121.964 14.1444 121.815 14.2284C121.699 14.2931 121.563 14.2737 121.466 14.1961M124.806 16.6911C124.722 16.62 124.677 16.5036 124.703 16.3873C124.742 16.2192 124.904 16.1158 125.072 16.1546C125.26 16.1998 125.447 16.2322 125.642 16.2516C125.81 16.2709 125.933 16.4261 125.914 16.5941C125.894 16.7622 125.739 16.885 125.57 16.8656C125.357 16.8397 125.143 16.801 124.936 16.7557C124.891 16.7428 124.845 16.7234 124.806 16.6911ZM120.767 11.8757C120.708 11.824 120.663 11.7529 120.657 11.6624C120.637 11.4555 120.631 11.2358 120.637 11.0225C120.637 10.8544 120.78 10.7187 120.948 10.7187C121.116 10.7187 121.252 10.8609 121.252 11.0289C121.252 11.2228 121.252 11.4168 121.272 11.6107C121.285 11.7787 121.162 11.9274 120.987 11.9403C120.903 11.9468 120.825 11.9209 120.767 11.8692M127.228 16.7234C127.176 16.6782 127.137 16.62 127.124 16.5424C127.092 16.3744 127.202 16.2128 127.37 16.1805C127.558 16.1481 127.746 16.1029 127.933 16.0447C128.095 15.9995 128.27 16.09 128.315 16.258C128.361 16.4196 128.27 16.5941 128.102 16.6394C127.895 16.6975 127.687 16.7493 127.48 16.788C127.383 16.8074 127.292 16.7816 127.228 16.7234ZM121.026 9.45827C120.935 9.38071 120.89 9.2579 120.929 9.13509C120.987 8.93472 121.058 8.72788 121.136 8.53397C121.2 8.37885 121.375 8.30128 121.537 8.35946C121.692 8.42409 121.77 8.59861 121.712 8.7602C121.641 8.94118 121.576 9.12863 121.524 9.30961C121.479 9.4712 121.304 9.56816 121.142 9.51645C121.103 9.50352 121.064 9.48413 121.032 9.45827M129.5 15.8508C129.5 15.8508 129.455 15.8056 129.435 15.7732C129.345 15.631 129.397 15.4371 129.539 15.3531C129.707 15.2497 129.869 15.1463 130.024 15.0299C130.16 14.933 130.355 14.9588 130.452 15.101C130.549 15.2368 130.523 15.4307 130.387 15.5276C130.219 15.6504 130.037 15.7668 129.856 15.8767C129.74 15.9478 129.597 15.9284 129.5 15.8508ZM122.107 7.28003C121.984 7.17661 121.958 6.99563 122.055 6.86636C122.172 6.70477 122.301 6.53671 122.43 6.38158L122.443 6.36866C122.553 6.23939 122.741 6.22646 122.871 6.33634C123 6.44622 123.013 6.64659 122.903 6.77587C122.78 6.91807 122.664 7.07319 122.553 7.22186C122.456 7.35759 122.262 7.38991 122.126 7.29296C122.126 7.29296 122.113 7.28003 122.107 7.28003ZM131.352 14.2672C131.222 14.1573 131.209 13.9634 131.319 13.8342C131.442 13.6855 131.559 13.5304 131.675 13.3752C131.772 13.2395 131.967 13.2072 132.103 13.3041C132.239 13.4011 132.271 13.595 132.174 13.7307C132.051 13.8988 131.921 14.0668 131.792 14.2284C131.682 14.3642 131.488 14.3771 131.358 14.2672M123.829 5.5607C123.829 5.5607 123.79 5.52839 123.777 5.50253C123.68 5.36679 123.706 5.17289 123.848 5.07593C124.017 4.95312 124.198 4.83678 124.379 4.72689C124.528 4.6364 124.716 4.68811 124.8 4.83031C124.884 4.97251 124.839 5.16642 124.696 5.25045C124.528 5.3474 124.366 5.45729 124.211 5.57363C124.094 5.65766 123.939 5.65119 123.835 5.5607M132.608 12.1859C132.51 12.1019 132.472 11.9662 132.517 11.8369C132.588 11.6559 132.653 11.4685 132.705 11.2875C132.75 11.1259 132.925 11.0289 133.087 11.0806C133.249 11.1259 133.346 11.3004 133.294 11.462C133.236 11.6624 133.164 11.8692 133.087 12.0631C133.022 12.2182 132.847 12.3023 132.685 12.2376C132.653 12.2247 132.627 12.2053 132.601 12.1859M126.011 4.4942C125.965 4.45542 125.933 4.40371 125.914 4.34554C125.868 4.18395 125.959 4.00943 126.127 3.96419C126.334 3.90601 126.541 3.8543 126.749 3.81552C126.917 3.7832 127.079 3.89309 127.105 4.06114C127.137 4.2292 127.027 4.39079 126.859 4.41664C126.671 4.44896 126.477 4.4942 126.295 4.55238C126.192 4.58469 126.088 4.55238 126.011 4.4942ZM133.074 9.80731C133.003 9.74914 132.964 9.66511 132.964 9.56816C132.964 9.37425 132.964 9.18034 132.944 8.98643C132.931 8.81837 133.054 8.66971 133.223 8.65678C133.391 8.64386 133.54 8.76666 133.553 8.93472C133.572 9.14156 133.579 9.36132 133.572 9.57462C133.572 9.74267 133.43 9.87841 133.261 9.87841C133.19 9.87841 133.119 9.85256 133.067 9.80731M128.425 4.29383C128.348 4.22919 128.302 4.12578 128.315 4.02236C128.335 3.8543 128.49 3.7315 128.658 3.75735C128.872 3.7832 129.086 3.82199 129.293 3.86723C129.461 3.90601 129.558 4.07407 129.52 4.23566C129.481 4.40371 129.312 4.50067 129.15 4.46189C128.963 4.41664 128.775 4.38432 128.581 4.35847C128.523 4.352 128.464 4.32615 128.419 4.28737M132.614 7.42223C132.575 7.38991 132.549 7.35113 132.53 7.30588C132.452 7.13137 132.368 6.95685 132.277 6.78879C132.193 6.64013 132.245 6.45268 132.394 6.36866C132.543 6.28463 132.731 6.33634 132.815 6.485C132.918 6.67245 133.015 6.86636 133.1 7.06027C133.164 7.21539 133.093 7.39637 132.938 7.46101C132.828 7.50626 132.705 7.48687 132.621 7.41577M130.704 5.10179C130.588 5.00483 130.555 4.83031 130.646 4.69458C130.737 4.55238 130.931 4.51359 131.073 4.60409C131.248 4.72043 131.416 4.84324 131.578 4.97898H131.591C131.721 5.09532 131.734 5.28923 131.624 5.4185C131.513 5.54778 131.313 5.5607 131.183 5.45082C131.041 5.32801 130.892 5.21813 130.737 5.11471C130.724 5.10825 130.717 5.10179 130.711 5.09532" fill="url(#paint39_linear_0_1)"/>
<path id="Vector_93" d="M99.1246 136.578L51.1329 108.998C48.99 107.763 48.9382 101.274 49.8057 99.0825L94.8064 75.7876C97.2859 74.3591 101.067 74.204 103.21 75.4385L152.289 100.395C154.089 103.239 153.079 109.974 150.599 111.396L107.528 136.223C105.048 137.651 101.267 137.806 99.1246 136.572V136.578Z" fill="url(#paint40_linear_0_1)"/>
<path id="Vector_94" d="M99.1246 129.458L51.1329 101.878C48.99 100.643 49.262 98.4647 51.735 97.0362L94.8065 72.2094C97.286 70.781 101.067 70.6258 103.21 71.8604L151.201 99.4407C153.344 100.675 153.072 102.854 150.599 104.282L107.528 129.109C105.048 130.537 101.267 130.692 99.1246 129.458Z" fill="url(#paint41_linear_0_1)"/>
<path id="Vector_95" d="M99.0521 126.257L56.6798 101.915C54.5369 100.68 54.8088 98.5019 57.2819 97.0734L94.8763 75.4008C97.3559 73.9724 101.137 73.8172 103.28 75.0518L145.652 99.3938C147.795 100.628 147.523 102.807 145.05 104.235L107.455 125.908C104.976 127.336 101.195 127.491 99.0521 126.257Z" fill="url(#paint42_linear_0_1)"/>
<path id="Vector_96" d="M99.442 117.126L63.466 96.4489C61.8605 95.5246 61.8216 93.3141 62.4755 91.6723L96.2115 74.2075C98.0695 73.1346 100.905 73.0182 102.511 73.949L139.302 92.6548C140.655 94.7878 139.891 97.1793 138.033 98.2523L105.741 116.868C103.883 117.94 101.048 118.057 99.442 117.126Z" fill="url(#paint43_linear_0_1)"/>
<path id="Vector_97" d="M99.4426 114.435L63.4666 93.764C61.8611 92.8397 62.0618 91.2044 63.9198 90.1314L96.2121 71.5161C98.0701 70.4432 100.906 70.3268 102.511 71.2576L138.487 91.9283C140.093 92.8526 139.892 94.4879 138.034 95.5609L105.742 114.176C103.884 115.249 101.048 115.365 99.4426 114.435Z" fill="url(#paint44_linear_0_1)"/>
<path id="Vector_98" d="M99.3907 112.037L67.6229 93.7903C66.0173 92.866 66.218 91.2306 68.0761 90.1577L96.2573 73.9146C98.1154 72.8416 100.951 72.7253 102.557 73.656L134.324 91.9029C135.93 92.8272 135.729 94.4625 133.871 95.5354L105.69 111.779C103.832 112.851 100.996 112.968 99.3907 112.037Z" fill="url(#paint45_linear_0_1)"/>
<path id="Vector_99" d="M99.3694 106.376L65.6658 87.0043C64.1574 86.1382 64.125 84.0634 64.7336 82.525L96.3396 66.1656C98.0811 65.1637 100.735 65.0538 102.237 65.92L136.705 83.4493C137.967 85.4466 137.255 87.6895 135.52 88.6913L105.267 106.13C103.526 107.132 100.871 107.242 99.3694 106.376Z" fill="url(#paint46_linear_0_1)"/>
<path id="Vector_100" d="M99.3708 103.852L65.6672 84.4809C64.1588 83.6148 64.353 82.0829 66.088 81.081L96.341 63.6421C98.0825 62.6403 100.737 62.5304 102.239 63.3965L135.942 82.768C137.451 83.6342 137.257 85.166 135.522 86.1679L105.269 103.607C103.527 104.609 100.873 104.719 99.3708 103.852Z" fill="url(#paint47_linear_0_1)"/>
<path id="Vector_101" d="M99.3188 101.602L69.5578 84.5061C68.0494 83.6399 68.2436 82.108 69.9786 81.1062L96.3796 65.8843C98.1211 64.8825 100.775 64.7726 102.277 65.6387L132.038 82.735C133.547 83.6011 133.353 85.133 131.617 86.1349L105.217 101.357C103.475 102.359 100.821 102.468 99.3188 101.602Z" fill="url(#paint48_linear_0_1)"/>
<path id="Vector_102" d="M99.4601 96.6114L67.8088 78.4228C66.3975 77.6084 66.3586 75.6628 66.9348 74.215L96.618 58.8509C98.2495 57.9072 100.748 57.8038 102.16 58.6247L134.53 75.0875C135.721 76.962 135.048 79.0691 133.416 80.0128L105.002 96.3917C103.37 97.3354 100.871 97.4388 99.4601 96.6179V96.6114Z" fill="url(#paint49_linear_0_1)"/>
<path id="Vector_103" d="M99.4604 94.2482L67.809 76.0595C66.3977 75.2451 66.5725 73.8037 68.204 72.8665L96.6183 56.4876C98.2497 55.5439 100.749 55.4405 102.16 56.2614L133.811 74.4501C135.229 75.2645 135.048 76.7059 133.416 77.6431L105.002 94.0219C103.371 94.9656 100.872 95.069 99.4604 94.2482Z" fill="url(#paint50_linear_0_1)"/>
<path id="Vector_104" d="M99.4155 92.1368L71.4672 76.0811C70.0559 75.2667 70.2307 73.8253 71.8622 72.8881L96.6575 58.597C98.289 57.6533 100.788 57.5499 102.199 58.3708L130.147 74.4264C131.565 75.2409 131.384 76.6822 129.753 77.6195L104.957 91.9106C103.326 92.8542 100.827 92.9577 99.4155 92.1368Z" fill="url(#paint51_linear_0_1)"/>
<path id="Vector_105" d="M100.451 85.6555L81.9681 75.0358C81.1394 74.5575 81.12 70.5694 81.4566 69.7227L98.7875 60.7512C99.7392 60.2018 101.196 60.1436 102.024 60.6154L120.929 70.2268C121.621 71.3192 121.233 75.4107 120.281 75.9601L103.688 85.5263C102.737 86.0757 101.28 86.1338 100.451 85.662V85.6555Z" fill="url(#paint52_linear_0_1)"/>
<path id="Vector_106" d="M100.451 81.4223L81.9674 70.8025C81.1388 70.3242 81.2488 69.4839 82.2005 68.9345L98.7933 59.3683C99.745 58.8189 101.202 58.7608 102.03 59.2326L120.514 69.8524C121.342 70.3307 121.232 71.1709 120.281 71.7204L103.688 81.2865C102.736 81.8359 101.279 81.8941 100.451 81.4223Z" fill="url(#paint53_linear_0_1)"/>
<path id="Vector_107" d="M100.425 80.1875L84.1042 70.8153C83.2755 70.3369 83.3855 69.4967 84.3372 68.9473L98.8195 60.6027C99.7712 60.0533 101.228 59.9951 102.057 60.467L118.377 69.8393C119.206 70.3176 119.096 71.1578 118.144 71.7072L103.662 80.0518C102.71 80.6012 101.254 80.6594 100.425 80.1875Z" fill="#B7D2FF"/>
<g id="Group_9" opacity="0.5">
<path id="Vector_108" d="M126.663 39.9375H126.527C126.484 39.9375 126.449 39.9722 126.449 40.0151V40.1508C126.449 40.1936 126.484 40.2284 126.527 40.2284H126.663C126.706 40.2284 126.741 40.1936 126.741 40.1508V40.0151C126.741 39.9722 126.706 39.9375 126.663 39.9375Z" fill="white"/>
<path id="Vector_109" d="M125.214 60.0469H125.078C125.035 60.0469 125 60.0816 125 60.1244V60.2602C125 60.303 125.035 60.3377 125.078 60.3377H125.214C125.257 60.3377 125.291 60.303 125.291 60.2602V60.1244C125.291 60.0816 125.257 60.0469 125.214 60.0469Z" fill="white"/>
<path id="Vector_110" d="M115.995 55.6836H115.859C115.816 55.6836 115.781 55.7183 115.781 55.7612V55.8969C115.781 55.9397 115.816 55.9745 115.859 55.9745H115.995C116.038 55.9745 116.073 55.9397 116.073 55.8969V55.7612C116.073 55.7183 116.038 55.6836 115.995 55.6836Z" fill="white"/>
<path id="Vector_111" d="M109.805 57.1133H109.669C109.627 57.1133 109.592 57.148 109.592 57.1908V57.3266C109.592 57.3694 109.627 57.4041 109.669 57.4041H109.805C109.848 57.4041 109.883 57.3694 109.883 57.3266V57.1908C109.883 57.148 109.848 57.1133 109.805 57.1133Z" fill="white"/>
<path id="Vector_112" d="M106.607 51.0275L106.484 50.9757C106.445 50.9564 106.426 50.9111 106.445 50.8723L106.497 50.7495C106.516 50.7107 106.562 50.6913 106.6 50.7107L106.724 50.7624C106.762 50.7818 106.782 50.8271 106.762 50.8659L106.711 50.9887C106.691 51.0274 106.646 51.0468 106.607 51.0275Z" fill="white"/>
<path id="Vector_113" d="M101.726 63.1954L101.603 63.1437C101.564 63.1243 101.545 63.0791 101.564 63.0403L101.616 62.9175C101.635 62.8787 101.681 62.8593 101.72 62.8787L101.843 62.9304C101.881 62.9498 101.901 62.995 101.881 63.0338L101.83 63.1566C101.81 63.1954 101.765 63.2148 101.726 63.1954Z" fill="white"/>
<path id="Vector_114" d="M94.2554 45.6681L94.1324 45.6164C94.0936 45.597 94.0741 45.5517 94.0936 45.5129L94.1454 45.3901C94.1648 45.3514 94.2101 45.332 94.2489 45.3514L94.3719 45.4031C94.4108 45.4225 94.4302 45.4677 94.4108 45.5065L94.359 45.6293C94.3396 45.6681 94.2943 45.6875 94.2554 45.6681Z" fill="white"/>
<path id="Vector_115" d="M81.7593 51.1954L81.6363 51.1437C81.5975 51.1243 81.578 51.0791 81.5975 51.0403L81.6493 50.9175C81.6687 50.8787 81.714 50.8593 81.7528 50.8787L81.8758 50.9304C81.9147 50.9498 81.9341 50.995 81.9147 51.0338L81.8629 51.1566C81.8435 51.1954 81.7982 51.2148 81.7593 51.1954Z" fill="white"/>
<path id="Vector_116" d="M87.898 69.4649L87.775 69.4132C87.7361 69.3938 87.7167 69.3486 87.7361 69.3098L87.7879 69.187C87.8074 69.1482 87.8527 69.1288 87.8915 69.1482L88.0145 69.1999C88.0534 69.2193 88.0728 69.2646 88.0534 69.3034L88.0016 69.4262C87.9821 69.465 87.9368 69.4843 87.898 69.4649Z" fill="white"/>
<path id="Vector_117" d="M90.3405 56.7373L90.2158 56.6832C90.1764 56.6662 90.1307 56.6842 90.1136 56.7235L90.0594 56.848C90.0424 56.8873 90.0604 56.933 90.0998 56.95L90.2245 57.0041C90.2638 57.0212 90.3096 57.0031 90.3267 56.9638L90.3808 56.8393C90.3979 56.8 90.3799 56.7544 90.3405 56.7373Z" fill="white"/>
<path id="Vector_118" d="M81.7593 41.9415L81.6363 41.8898C81.5975 41.8704 81.578 41.8252 81.5975 41.7864L81.6493 41.6636C81.6687 41.6248 81.714 41.6054 81.7528 41.6248L81.8758 41.6765C81.9147 41.6959 81.9341 41.7411 81.9147 41.7799L81.8629 41.9027C81.8435 41.9415 81.7982 41.9609 81.7593 41.9415Z" fill="white"/>
<path id="Vector_119" d="M71.855 54.1056L71.732 54.0539C71.6932 54.0345 71.6737 53.9892 71.6932 53.9504L71.745 53.8276C71.7644 53.7889 71.8097 53.7695 71.8485 53.7889L71.9715 53.8406C72.0104 53.86 72.0298 53.9052 72.0104 53.944L71.9586 54.0668C71.9392 54.1056 71.8939 54.125 71.855 54.1056Z" fill="white"/>
<path id="Vector_120" d="M71.855 44.8517L71.732 44.8C71.6932 44.7806 71.6737 44.7353 71.6932 44.6965L71.745 44.5737C71.7644 44.5349 71.8097 44.5156 71.8485 44.535L71.9715 44.5867C72.0104 44.6061 72.0298 44.6513 72.0104 44.6901L71.9586 44.8129C71.9392 44.8517 71.8939 44.8711 71.855 44.8517Z" fill="white"/>
<path id="Vector_121" d="M132.828 51.0275L132.705 50.9757C132.666 50.9564 132.646 50.9111 132.666 50.8723L132.718 50.7495C132.737 50.7107 132.782 50.6913 132.821 50.7107L132.944 50.7624C132.983 50.7818 133.002 50.8271 132.983 50.8659L132.931 50.9887C132.912 51.0274 132.867 51.0468 132.828 51.0275Z" fill="white"/>
<path id="Vector_122" d="M133.739 44.6201L133.614 44.566C133.575 44.549 133.529 44.567 133.512 44.6063L133.458 44.7308C133.441 44.7701 133.459 44.8158 133.498 44.8329L133.623 44.8869C133.662 44.904 133.708 44.8859 133.725 44.8466L133.779 44.7221C133.796 44.6828 133.778 44.6371 133.739 44.6201Z" fill="white"/>
<path id="Vector_123" d="M121.581 53.3271L121.456 53.2731C121.417 53.256 121.371 53.274 121.354 53.3133L121.3 53.4378C121.283 53.4771 121.301 53.5228 121.34 53.5399L121.465 53.5939C121.504 53.611 121.55 53.593 121.567 53.5537L121.621 53.4292C121.638 53.3899 121.62 53.3442 121.581 53.3271Z" fill="white"/>
<path id="Vector_124" d="M116.351 42.8399L116.228 42.7882C116.189 42.7689 116.17 42.7236 116.189 42.6848L116.241 42.562C116.26 42.5232 116.306 42.5038 116.345 42.5232L116.468 42.5749C116.506 42.5943 116.526 42.6396 116.506 42.6784L116.455 42.8012C116.435 42.84 116.39 42.8593 116.351 42.8399Z" fill="white"/>
<path id="Vector_125" d="M102.852 73.9219H102.716C102.673 73.9219 102.639 73.9566 102.639 73.9994V74.1352C102.639 74.178 102.673 74.2127 102.716 74.2127H102.852C102.895 74.2127 102.93 74.178 102.93 74.1352V73.9994C102.93 73.9566 102.895 73.9219 102.852 73.9219Z" fill="white"/>
<path id="Vector_126" d="M118.312 64.1954L118.189 64.1437C118.15 64.1243 118.131 64.0791 118.15 64.0403L118.202 63.9175C118.221 63.8787 118.267 63.8593 118.306 63.8787L118.429 63.9304C118.467 63.9498 118.487 63.995 118.467 64.0338L118.416 64.1566C118.396 64.1954 118.351 64.2148 118.312 64.1954Z" fill="white"/>
<path id="Vector_127" d="M82.064 59.2228L81.941 59.1711C81.9021 59.1517 81.8827 59.1064 81.9022 59.0676L81.9539 58.9448C81.9734 58.906 82.0187 58.8867 82.0575 58.906L82.1805 58.9578C82.2194 58.9771 82.2388 59.0224 82.2194 59.0612L82.1676 59.184C82.1482 59.2228 82.1028 59.2422 82.064 59.2228Z" fill="white"/>
<path id="Vector_128" d="M108.913 70.1319L108.788 70.0778C108.749 70.0607 108.703 70.0787 108.686 70.118L108.632 70.2425C108.615 70.2818 108.633 70.3275 108.672 70.3446L108.797 70.3986C108.836 70.4157 108.882 70.3977 108.899 70.3584L108.953 70.2339C108.97 70.1946 108.952 70.1489 108.913 70.1319Z" fill="white"/>
<path id="Vector_129" d="M111.96 47.0587L111.837 47.007C111.799 46.9876 111.779 46.9424 111.799 46.9036L111.85 46.7808C111.87 46.742 111.915 46.7226 111.954 46.742L112.077 46.7937C112.116 46.8131 112.135 46.8583 112.116 46.8971L112.064 47.0199C112.045 47.0587 111.999 47.0781 111.96 47.0587Z" fill="white"/>
</g>
<g id="Group_10" opacity="0.5">
<path id="Vector_130" d="M108.946 6.50391H108.81C108.767 6.50391 108.732 6.53863 108.732 6.58147V6.71721C108.732 6.76004 108.767 6.79477 108.81 6.79477H108.946C108.989 6.79477 109.024 6.76004 109.024 6.71721V6.58147C109.024 6.53863 108.989 6.50391 108.946 6.50391Z" fill="white"/>
<path id="Vector_131" d="M107.495 26.6094H107.359C107.316 26.6094 107.281 26.6441 107.281 26.6869V26.8227C107.281 26.8655 107.316 26.9002 107.359 26.9002H107.495C107.538 26.9002 107.573 26.8655 107.573 26.8227V26.6869C107.573 26.6441 107.538 26.6094 107.495 26.6094Z" fill="white"/>
<path id="Vector_132" d="M98.8797 16.5039H98.7437C98.7008 16.5039 98.666 16.5386 98.666 16.5815V16.7172C98.666 16.76 98.7008 16.7948 98.7437 16.7948H98.8797C98.9226 16.7948 98.9574 16.76 98.9574 16.7172V16.5815C98.9574 16.5386 98.9226 16.5039 98.8797 16.5039Z" fill="white"/>
<path id="Vector_133" d="M92.0886 23.6797H91.9527C91.9098 23.6797 91.875 23.7144 91.875 23.7573V23.893C91.875 23.9358 91.9098 23.9706 91.9527 23.9706H92.0886C92.1315 23.9706 92.1663 23.9358 92.1663 23.893V23.7573C92.1663 23.7144 92.1315 23.6797 92.0886 23.6797Z" fill="white"/>
<path id="Vector_134" d="M86.3902 11.422L86.2672 11.3703C86.2283 11.3509 86.2089 11.3056 86.2283 11.2669L86.2801 11.144C86.2995 11.1053 86.3448 11.0859 86.3837 11.1053L86.5067 11.157C86.5455 11.1764 86.565 11.2216 86.5455 11.2604L86.4938 11.3832C86.4743 11.422 86.429 11.4414 86.3902 11.422Z" fill="white"/>
<path id="Vector_135" d="M84.1237 29.499L83.999 29.445C83.9596 29.4279 83.9139 29.4459 83.8968 29.4852L83.8426 29.6097C83.8256 29.649 83.8436 29.6947 83.883 29.7118L84.0077 29.7658C84.047 29.7829 84.0928 29.7649 84.1099 29.7256L84.164 29.601C84.1811 29.5618 84.1631 29.5161 84.1237 29.499Z" fill="white"/>
<path id="Vector_136" d="M76.651 11.9834L76.5263 11.9293C76.487 11.9123 76.4412 11.9303 76.4241 11.9696L76.37 12.0941C76.3529 12.1334 76.371 12.1791 76.4103 12.1961L76.535 12.2502C76.5744 12.2672 76.6201 12.2492 76.6372 12.2099L76.6914 12.0854C76.7085 12.0461 76.6904 12.0004 76.651 11.9834Z" fill="white"/>
<path id="Vector_137" d="M70.1812 36.0353L70.0582 35.9836C70.0193 35.9642 69.9999 35.9189 70.0193 35.8801L70.0711 35.7573C70.0906 35.7185 70.1359 35.6992 70.1747 35.7185L70.2977 35.7703C70.3366 35.7896 70.356 35.8349 70.3366 35.8737L70.2848 35.9965C70.2653 36.0353 70.22 36.0547 70.1812 36.0353Z" fill="white"/>
<path id="Vector_138" d="M72.5171 23.5665L72.3941 23.5148C72.3553 23.4954 72.3359 23.4502 72.3553 23.4114L72.4071 23.2886C72.4265 23.2498 72.4718 23.2304 72.5107 23.2498L72.6337 23.3015C72.6725 23.3209 72.6919 23.3661 72.6725 23.4049L72.6207 23.5277C72.6013 23.5665 72.556 23.5859 72.5171 23.5665Z" fill="white"/>
<path id="Vector_139" d="M115.109 17.6017L114.986 17.55C114.947 17.5306 114.928 17.4853 114.947 17.4465L114.999 17.3237C115.018 17.285 115.064 17.2656 115.102 17.285L115.225 17.3367C115.264 17.3561 115.284 17.4013 115.264 17.4401L115.213 17.5629C115.193 17.6017 115.148 17.6211 115.109 17.6017Z" fill="white"/>
<path id="Vector_140" d="M120.652 30.0275L120.529 29.9757C120.49 29.9563 120.471 29.9111 120.49 29.8723L120.542 29.7495C120.561 29.7107 120.607 29.6913 120.645 29.7107L120.768 29.7624C120.807 29.7818 120.827 29.8271 120.807 29.8659L120.755 29.9887C120.736 30.0275 120.691 30.0468 120.652 30.0275Z" fill="white"/>
<path id="Vector_141" d="M133.669 28.8673L133.546 28.8156C133.508 28.7962 133.488 28.7509 133.508 28.7122L133.559 28.5894C133.579 28.5506 133.624 28.5312 133.663 28.5506L133.786 28.6023C133.825 28.6217 133.844 28.6669 133.825 28.7057L133.773 28.8285C133.754 28.8673 133.708 28.8867 133.669 28.8673Z" fill="white"/>
<path id="Vector_142" d="M142.267 25.0196L142.144 24.9679C142.105 24.9485 142.086 24.9033 142.105 24.8645L142.157 24.7417C142.176 24.7029 142.222 24.6835 142.261 24.7029L142.384 24.7546C142.422 24.774 142.442 24.8193 142.423 24.858L142.371 24.9809C142.351 25.0196 142.306 25.039 142.267 25.0196Z" fill="white"/>
<path id="Vector_143" d="M85.1414 40.4961H85.0054C84.9625 40.4961 84.9277 40.5308 84.9277 40.5737V40.7094C84.9277 40.7522 84.9625 40.787 85.0054 40.787H85.1414C85.1843 40.787 85.2191 40.7522 85.2191 40.7094V40.5737C85.2191 40.5308 85.1843 40.4961 85.1414 40.4961Z" fill="white"/>
<path id="Vector_144" d="M100.71 30.5068L100.585 30.4528C100.546 30.4357 100.5 30.4537 100.483 30.493L100.429 30.6175C100.411 30.6568 100.43 30.7025 100.469 30.7196L100.594 30.7736C100.633 30.7907 100.679 30.7727 100.696 30.7334L100.75 30.6089C100.767 30.5696 100.749 30.5239 100.71 30.5068Z" fill="white"/>
<path id="Vector_145" d="M64.4616 25.5303L64.3369 25.4762C64.2975 25.4591 64.2518 25.4772 64.2347 25.5165L64.1805 25.641C64.1635 25.6803 64.1815 25.7259 64.2209 25.743L64.3456 25.7971C64.3849 25.8141 64.4307 25.7961 64.4478 25.7568L64.5019 25.6323C64.519 25.593 64.5009 25.5473 64.4616 25.5303Z" fill="white"/>
<path id="Vector_146" d="M91.0835 36.9806L90.9605 36.9289C90.9217 36.9095 90.9023 36.8642 90.9217 36.8254L90.9735 36.7026C90.9929 36.6639 91.0382 36.6445 91.0771 36.6639L91.2001 36.7156C91.2389 36.735 91.2583 36.7802 91.2389 36.819L91.1871 36.9418C91.1677 36.9806 91.1224 37 91.0835 36.9806Z" fill="white"/>
<path id="Vector_147" d="M106.388 14.5704L106.265 14.5187C106.226 14.4993 106.207 14.4541 106.226 14.4153L106.278 14.2925C106.298 14.2537 106.343 14.2343 106.382 14.2537L106.505 14.3054C106.544 14.3248 106.563 14.37 106.544 14.4088L106.492 14.5316C106.472 14.5704 106.427 14.5898 106.388 14.5704Z" fill="white"/>
</g>
<path id="Vector_148" opacity="0.15" d="M43.8438 55.4024L11.4609 74.0694V44.7568L43.8438 26.0898V55.4024Z" fill="url(#paint54_linear_0_1)"/>
<g id="Group_11" opacity="0.2">
<path id="Vector_149" d="M12.9551 56.4263L41.855 39.7695" stroke="#E2F4FF" stroke-width="0.14" stroke-miterlimit="10"/>
<path id="Vector_150" d="M12.9551 50.0396L41.855 33.3828" stroke="#E2F4FF" stroke-width="0.14" stroke-miterlimit="10"/>
<path id="Vector_151" d="M12.9551 62.813L41.855 46.1562" stroke="#E2F4FF" stroke-width="0.14" stroke-miterlimit="10"/>
<path id="Vector_152" d="M12.9551 69.1998L41.855 52.543" stroke="#E2F4FF" stroke-width="0.14" stroke-miterlimit="10"/>
</g>
<path id="Vector_153" d="M38.8066 54.2957L39.8036 53.7204V35.4219L38.8066 35.9907V54.2957Z" fill="url(#paint55_linear_0_1)"/>
<path id="Vector_154" d="M35.7891 56.0373L36.7861 55.4685V42.6641L35.7891 43.2393V56.0373Z" fill="url(#paint56_linear_0_1)"/>
<path id="Vector_155" d="M32.7734 57.7731L33.764 57.2043V36.3203L32.7734 36.8956V57.7731Z" fill="url(#paint57_linear_0_1)"/>
<path id="Vector_156" d="M29.7559 59.5202L30.7464 58.945V51.6992L29.7559 52.268V59.5202Z" fill="url(#paint58_linear_0_1)"/>
<path id="Vector_157" d="M26.7324 61.2569L27.7294 60.6816V49.7969L26.7324 50.3721V61.2569Z" fill="url(#paint59_linear_0_1)"/>
<path id="Vector_158" d="M23.7148 62.9967L24.7118 62.4214V45.0859L23.7148 45.6547V62.9967Z" fill="url(#paint60_linear_0_1)"/>
<path id="Vector_159" d="M20.6992 64.7342L21.6962 64.159V55.8984L20.6992 56.4737V64.7342Z" fill="url(#paint61_linear_0_1)"/>
<path id="Vector_160" d="M17.6816 66.4754L18.6786 65.9001V56.9609L17.6816 57.5362V66.4754Z" fill="url(#paint62_linear_0_1)"/>
<path id="Vector_161" d="M14.6641 68.2118L15.6611 67.6366V55.5625L14.6641 56.1378V68.2118Z" fill="url(#paint63_linear_0_1)"/>
<path id="Vector_162" opacity="0.15" d="M158.381 56.3321L190.764 74.9991V45.6865L158.381 27.0195V56.3321Z" fill="url(#paint64_linear_0_1)"/>
<g id="Group_12" opacity="0.2">
<path id="Vector_163" d="M189.267 57.3625L160.367 40.6992" stroke="#E2F4FF" stroke-width="0.14" stroke-miterlimit="10"/>
<path id="Vector_164" d="M189.267 50.9693L160.367 34.3125" stroke="#E2F4FF" stroke-width="0.14" stroke-miterlimit="10"/>
<path id="Vector_165" d="M189.267 63.7505L160.367 47.0938" stroke="#E2F4FF" stroke-width="0.14" stroke-miterlimit="10"/>
<path id="Vector_166" d="M189.267 70.1333L160.367 53.4766" stroke="#E2F4FF" stroke-width="0.14" stroke-miterlimit="10"/>
</g>
<path id="Vector_167" opacity="0.6" d="M163.651 39.7883C165.076 40.6092 165.529 48.4043 167.335 49.4126C169.148 50.421 168.358 42.9296 169.782 43.828C171.556 44.9527 170.643 54.6352 173.032 56.0766C175.421 57.518 176.185 44.3581 178.749 45.7219C181.306 47.0857 180.6 56.2447 182.445 57.3112C184.297 58.3777 184.187 55.4949 185.462 56.2318C186.608 56.891 187.767 61.6677 188.214 63.8976L188.007 69.7537L159.793 53.4912L160.525 48.2298C161.528 43.5243 162.564 39.1678 163.651 39.7947V39.7883Z" fill="url(#paint65_linear_0_1)"/>
<g id="Group 167">
<g id="Group 64259">
<path id="Path 20" d="M105.226 32.2858C107.456 33.7961 108.932 34.8434 109.654 35.4277C110.274 35.93 110.239 40.8877 110.276 41.8772C110.328 43.3038 109.932 44.0221 108.566 44.0221C105.994 44.0204 103.422 44.0212 100.85 44.0246C99.9844 44.0246 99.4671 43.1732 99.4271 42.2615C99.339 40.2104 99.2542 38.1602 99.1725 36.1108C99.1616 35.848 99.3285 35.5809 99.673 35.3097C101.707 33.709 103.114 32.6592 103.895 32.1602C104.29 31.9107 104.734 31.9526 105.226 32.2858ZM108.97 36.1837L104.843 33.3105C104.747 33.2444 104.638 33.2079 104.526 33.2052C104.415 33.2026 104.307 33.2338 104.214 33.2954C103.14 34.0037 102.059 34.7772 100.969 35.6161C100.425 36.0355 100.113 36.1761 100.137 36.8643C100.207 38.701 100.288 40.5378 100.382 42.3745C100.406 42.8467 100.693 43.0803 101.135 43.0803C103.713 43.0819 106.238 43.0811 108.708 43.0777C108.789 43.0779 108.87 43.0609 108.944 43.0277C109.018 42.9944 109.084 42.9456 109.14 42.8841C109.195 42.8225 109.238 42.7494 109.266 42.6688C109.294 42.5883 109.307 42.5019 109.303 42.4147C109.223 40.4055 109.141 38.3938 109.056 36.3796C109.058 36.3425 109.051 36.3051 109.036 36.2708C109.021 36.2365 108.999 36.2065 108.97 36.1837Z" fill="white"/>
<path id="Path 30" d="M105.942 37.5347L105.576 37.2308C105.554 37.2128 105.536 37.1902 105.523 37.1644C105.51 37.1387 105.502 37.1104 105.5 37.0816C105.497 37.053 105.501 37.0246 105.511 36.9983C105.52 36.9719 105.535 36.9484 105.554 36.9294L105.965 36.52C105.979 36.5027 105.996 36.4888 106.015 36.4793C106.034 36.4698 106.055 36.4648 106.077 36.4648C106.098 36.4648 106.12 36.4698 106.14 36.4793C106.16 36.4888 106.178 36.5027 106.193 36.52L107.548 37.7909C107.622 37.8607 107.676 37.9518 107.702 38.0524C107.729 38.153 107.726 38.2583 107.695 38.3547C107.665 38.4509 107.607 38.5336 107.529 38.5917C107.452 38.6498 107.359 38.6806 107.262 38.6799L101.874 38.6774C101.838 38.6775 101.802 38.6664 101.771 38.6454C101.74 38.6245 101.714 38.5946 101.698 38.5594C101.643 38.4539 101.611 38.3378 101.604 38.2195C101.597 38.1013 101.614 37.984 101.656 37.8763C101.67 37.8343 101.696 37.7986 101.731 37.7743C101.766 37.75 101.807 37.7382 101.85 37.7406H105.882C105.904 37.7408 105.926 37.7335 105.944 37.7197C105.962 37.7059 105.975 37.6863 105.982 37.6636C105.988 37.641 105.988 37.6164 105.981 37.5932C105.973 37.5701 105.96 37.5497 105.942 37.5347Z" fill="white"/>
<path id="Path 33" d="M103.445 40.2735L103.662 40.497C103.679 40.5098 103.693 40.5268 103.703 40.5465C103.713 40.5663 103.719 40.5881 103.719 40.6101C103.72 40.6321 103.715 40.6537 103.706 40.6729C103.696 40.6922 103.683 40.7085 103.666 40.7205L103.31 41.0822C103.273 41.1189 103.224 41.1394 103.173 41.1399C103.121 41.1404 103.07 41.1207 103.03 41.0847C102.604 40.7063 102.19 40.3137 101.789 39.9068C101.733 39.8496 101.693 39.7759 101.677 39.6958C101.554 39.1182 101.942 38.9951 102.393 39.0001C104.071 39.0169 105.726 39.0437 107.358 39.0805C107.398 39.0815 107.439 39.0911 107.477 39.1087C107.515 39.1263 107.549 39.1515 107.578 39.1831C107.608 39.2146 107.631 39.2517 107.647 39.2923C107.663 39.3329 107.672 39.3761 107.673 39.4196C107.679 39.8097 107.563 40.0081 107.323 40.0148C106.11 40.05 104.841 40.0692 103.515 40.0726C103.336 40.0726 103.313 40.1395 103.445 40.2735Z" fill="white"/>
</g>
</g>
<g id="Group 168">
<path id="Path 20_2" d="M127.858 7.1409C128.836 7.88548 129.48 8.40181 129.788 8.6899C130.053 8.93754 129.608 11.3818 129.541 11.8696C129.444 12.5729 129.185 12.927 128.507 12.927C127.229 12.9262 125.95 12.9266 124.672 12.9283C124.242 12.9283 124.058 12.5085 124.117 12.059C124.25 11.0478 124.385 10.0371 124.521 9.02669C124.538 8.89709 124.644 8.76543 124.838 8.6317C125.987 7.84255 126.777 7.32498 127.208 7.07899C127.426 6.956 127.643 6.97663 127.858 7.1409ZM129.383 9.0626L127.58 7.64609C127.538 7.61351 127.487 7.5955 127.431 7.59419C127.376 7.59287 127.32 7.6083 127.269 7.63866C126.674 7.98783 126.07 8.3692 125.456 8.78276C125.149 8.98954 124.982 9.05888 124.935 9.39815C124.811 10.3037 124.694 11.2092 124.582 12.1148C124.553 12.3476 124.676 12.4627 124.895 12.4627C126.176 12.4635 127.431 12.4631 128.659 12.4615C128.699 12.4615 128.74 12.4532 128.78 12.4368C128.82 12.4204 128.857 12.3963 128.89 12.366C128.923 12.3356 128.95 12.2996 128.971 12.2599C128.992 12.2202 129.006 12.1776 129.012 12.1346C129.145 11.144 129.277 10.1522 129.409 9.15918C129.413 9.14093 129.413 9.12247 129.408 9.10556C129.404 9.08866 129.395 9.07386 129.383 9.0626Z" fill="white"/>
<path id="Path 30_2" d="M127.762 9.73057L127.606 9.58075C127.597 9.57188 127.59 9.56071 127.586 9.54802C127.581 9.53533 127.58 9.52141 127.581 9.5072C127.582 9.49311 127.587 9.47907 127.594 9.4661C127.601 9.45313 127.61 9.44154 127.621 9.43217L127.861 9.23034C127.869 9.22179 127.879 9.21494 127.889 9.21025C127.899 9.20555 127.91 9.20312 127.921 9.20312C127.932 9.20312 127.942 9.20555 127.951 9.21025C127.96 9.21494 127.968 9.22179 127.974 9.23034L128.538 9.85687C128.569 9.8913 128.588 9.93623 128.592 9.98582C128.596 10.0354 128.586 10.0873 128.562 10.1348C128.539 10.1823 128.503 10.2231 128.459 10.2517C128.416 10.2803 128.367 10.2955 128.319 10.2952L125.642 10.294C125.624 10.294 125.607 10.2885 125.593 10.2782C125.58 10.2679 125.57 10.2531 125.564 10.2358C125.546 10.1838 125.541 10.1265 125.547 10.0682C125.554 10.0099 125.572 9.95208 125.602 9.89897C125.613 9.87827 125.629 9.8607 125.648 9.84872C125.668 9.83673 125.69 9.83093 125.71 9.83211H127.714C127.725 9.8322 127.737 9.82859 127.747 9.82179C127.757 9.81498 127.765 9.80532 127.77 9.79414C127.776 9.78297 127.777 9.77083 127.776 9.75944C127.774 9.74804 127.769 9.73795 127.762 9.73057Z" fill="white"/>
<path id="Path 33_2" d="M126.285 11.081L126.373 11.1912C126.381 11.1975 126.386 11.2059 126.39 11.2156C126.393 11.2253 126.394 11.2361 126.392 11.2469C126.39 11.2578 126.386 11.2684 126.38 11.2779C126.374 11.2874 126.366 11.2954 126.356 11.3014L126.148 11.4797C126.126 11.4978 126.1 11.5079 126.075 11.5081C126.049 11.5083 126.026 11.4987 126.009 11.4809C125.83 11.2944 125.658 11.1008 125.494 10.9002C125.471 10.872 125.457 10.8357 125.456 10.7962C125.445 10.5114 125.648 10.4507 125.872 10.4532C126.704 10.4615 127.524 10.4747 128.332 10.4928C128.352 10.4933 128.371 10.498 128.389 10.5067C128.406 10.5154 128.421 10.5278 128.433 10.5434C128.445 10.5589 128.453 10.5772 128.458 10.5972C128.462 10.6172 128.463 10.6386 128.459 10.66C128.429 10.8523 128.354 10.9501 128.235 10.9534C127.629 10.9708 126.996 10.9803 126.337 10.9819C126.248 10.9819 126.231 11.0149 126.285 11.081Z" fill="white"/>
</g>
<g id="Group 169">
<path id="Path 20_3" d="M71.0871 18.1562C71.9191 18.6183 72.4727 18.9397 72.7476 19.1204C72.984 19.2757 73.2698 20.8889 73.3412 21.2103C73.444 21.6736 73.3554 21.9125 72.9013 21.9303C72.046 21.9634 71.1909 21.9972 70.336 22.0319C70.0483 22.0432 69.8253 21.773 69.7573 21.477C69.605 20.8109 69.4539 20.1451 69.3038 19.4795C69.2845 19.3941 69.3239 19.3051 69.4222 19.2124C70.0025 18.6651 70.4074 18.3052 70.6369 18.1327C70.7535 18.0464 70.9036 18.0542 71.0871 18.1562ZM72.5657 19.3752L71.0211 18.4945C70.9855 18.4743 70.9469 18.4638 70.9097 18.4644C70.8725 18.465 70.8384 18.4766 70.8113 18.4978C70.4967 18.7422 70.1834 19.008 69.8716 19.2951C69.7157 19.4386 69.6206 19.4885 69.6697 19.712C69.803 20.3086 69.9403 20.905 70.0814 21.5013C70.1178 21.6546 70.2273 21.7268 70.3742 21.721C71.2316 21.6879 72.0708 21.6546 72.8919 21.6213C72.919 21.6203 72.9447 21.6137 72.9673 21.6019C72.99 21.5901 73.0092 21.5734 73.0239 21.5526C73.0386 21.5319 73.0485 21.5075 73.053 21.481C73.0575 21.4544 73.0565 21.4261 73.0501 21.3978C72.903 20.7453 72.755 20.0919 72.606 19.4378C72.6045 19.4258 72.6 19.4137 72.593 19.4027C72.586 19.3917 72.5766 19.3823 72.5657 19.3752Z" fill="white"/>
<path id="Path 30_3" d="M71.6399 19.8529L71.5002 19.7588C71.4919 19.7533 71.4845 19.7461 71.4785 19.7379C71.4726 19.7297 71.4682 19.7206 71.4657 19.7113C71.4633 19.702 71.4629 19.6927 71.4644 19.684C71.466 19.6754 71.4695 19.6675 71.4748 19.6611L71.5869 19.5225C71.5903 19.5167 71.5951 19.512 71.601 19.5086C71.6068 19.5053 71.6135 19.5034 71.6207 19.5031C71.6279 19.5028 71.6353 19.5042 71.6426 19.507C71.6498 19.5098 71.6567 19.5141 71.6627 19.5196L72.1894 19.9152C72.2183 19.937 72.2416 19.9659 72.2563 19.9983C72.2711 20.0307 72.2766 20.065 72.2721 20.0967C72.2677 20.1285 72.2534 20.1561 72.2311 20.176C72.2089 20.1959 72.1797 20.2071 72.1476 20.2082L70.3561 20.2778C70.3441 20.2783 70.3315 20.2751 70.3198 20.2687C70.3082 20.2623 70.2979 20.2529 70.2904 20.2417C70.266 20.2081 70.2483 20.1707 70.2388 20.1323C70.2293 20.094 70.2281 20.0556 70.2353 20.02C70.2375 20.0062 70.2442 19.9942 70.2543 19.9859C70.2644 19.9775 70.2775 19.9731 70.2918 19.9734L71.6324 19.9207C71.6399 19.9204 71.6466 19.9178 71.6518 19.9131C71.6569 19.9083 71.6601 19.9018 71.6609 19.8943C71.6617 19.8869 71.6601 19.8789 71.6564 19.8714C71.6526 19.864 71.6468 19.8575 71.6399 19.8529Z" fill="white"/>
<path id="Path 33_3" d="M70.9739 20.7773L71.0592 20.8472C71.0657 20.8511 71.0715 20.8565 71.076 20.8628C71.0805 20.869 71.0836 20.8761 71.0851 20.8832C71.0866 20.8904 71.0864 20.8975 71.0844 20.9038C71.0825 20.9102 71.079 20.9157 71.0741 20.9198L70.9773 21.0421C70.9672 21.0546 70.9522 21.0619 70.9352 21.0627C70.9181 21.0635 70.9 21.0578 70.8844 21.0466C70.72 20.9291 70.5589 20.8068 70.4013 20.6797C70.3791 20.6618 70.3616 20.6383 70.3513 20.6125C70.2759 20.4262 70.3974 20.3811 70.5478 20.3768C71.1067 20.3604 71.6584 20.3475 72.2031 20.3381C72.2167 20.3379 72.2307 20.3405 72.2444 20.3457C72.2581 20.351 72.2711 20.3587 72.2827 20.3686C72.2943 20.3785 72.3043 20.3902 72.3121 20.4032C72.3199 20.4162 72.3254 20.4302 72.3282 20.4443C72.3538 20.5711 72.327 20.6372 72.2478 20.6425C71.8465 20.6698 71.4255 20.6926 70.9849 20.711C70.9255 20.7134 70.9218 20.7355 70.9739 20.7773Z" fill="white"/>
</g>
</g>
</g>
</g>
</g>
</g>
</g>
<g id="Group 59865">
<g id="Rectangle 2" filter="url(#filter1_d_0_1)">
<path d="M-390 -147H-107C-98.1634 -147 -91 -139.837 -91 -131V1182H-390V-147Z" fill="#1E2A3A"/>
</g>
</g>
</g>
<defs>
<filter id="filter0_d_0_1" x="0.149687" y="50.0169" width="223.619" height="118.886" filterUnits="userSpaceOnUse" color-interpolation-filters="sRGB">
<feFlood flood-opacity="0" result="BackgroundImageFix"/>
<feColorMatrix in="SourceAlpha" type="matrix" values="0 0 0 0 0 0 0 0 0 0 0 0 0 0 0 0 0 0 127 0" result="hardAlpha"/>
<feOffset/>
<feGaussianBlur stdDeviation="3.39"/>
<feColorMatrix type="matrix" values="0 0 0 0 0.490196 0 0 0 0 0.541176 0 0 0 0 0.980392 0 0 0 0.75 0"/>
<feBlend mode="normal" in2="BackgroundImageFix" result="effect1_dropShadow_0_1"/>
<feBlend mode="normal" in="SourceGraphic" in2="effect1_dropShadow_0_1" result="shape"/>
</filter>
<filter id="filter1_d_0_1" x="-502" y="-255" width="523" height="1553" filterUnits="userSpaceOnUse" color-interpolation-filters="sRGB">
<feFlood flood-opacity="0" result="BackgroundImageFix"/>
<feColorMatrix in="SourceAlpha" type="matrix" values="0 0 0 0 0 0 0 0 0 0 0 0 0 0 0 0 0 0 127 0" result="hardAlpha"/>
<feOffset dy="4"/>
<feGaussianBlur stdDeviation="56"/>
<feComposite in2="hardAlpha" operator="out"/>
<feColorMatrix type="matrix" values="0 0 0 0 0 0 0 0 0 0 0 0 0 0 0 0 0 0 0.08 0"/>
<feBlend mode="normal" in2="BackgroundImageFix" result="effect1_dropShadow_0_1"/>
<feBlend mode="normal" in="SourceGraphic" in2="effect1_dropShadow_0_1" result="shape"/>
</filter>
<linearGradient id="paint0_linear_0_1" x1="99.5963" y1="26.905" x2="108.595" y2="53.5633" gradientUnits="userSpaceOnUse">
<stop stop-color="#184BA4"/>
<stop offset="1" stop-color="#6090D9"/>
</linearGradient>
<linearGradient id="paint1_linear_0_1" x1="101.294" y1="38.0728" x2="83.936" y2="47.0088" gradientUnits="userSpaceOnUse">
<stop offset="0.0104167" stop-color="#355792"/>
<stop offset="0.97" stop-color="#5689E1"/>
</linearGradient>
<linearGradient id="paint2_linear_0_1" x1="85.7559" y1="40.221" x2="89.3554" y2="40.221" gradientUnits="userSpaceOnUse">
<stop stop-color="#70C5A3"/>
<stop offset="0.49" stop-color="#0A11AB"/>
<stop offset="1"/>
</linearGradient>
<linearGradient id="paint3_linear_0_1" x1="85.7812" y1="37.2835" x2="89.4196" y2="37.2835" gradientUnits="userSpaceOnUse">
<stop stop-color="#70C5A3"/>
<stop offset="0.49" stop-color="#0A11AB"/>
<stop offset="1"/>
</linearGradient>
<linearGradient id="paint4_linear_0_1" x1="86.0742" y1="43.1663" x2="89.8745" y2="43.1663" gradientUnits="userSpaceOnUse">
<stop stop-color="#70C5A3"/>
<stop offset="0.49" stop-color="#7AA5F8"/>
<stop offset="1"/>
</linearGradient>
<linearGradient id="paint5_linear_0_1" x1="86.8945" y1="46.0974" x2="90.9214" y2="46.0974" gradientUnits="userSpaceOnUse">
<stop stop-color="#70C5A3"/>
<stop offset="0.49" stop-color="#7AA5F8"/>
<stop offset="1"/>
</linearGradient>
<linearGradient id="paint6_linear_0_1" x1="86.1953" y1="34.346" x2="90.0344" y2="34.346" gradientUnits="userSpaceOnUse">
<stop stop-color="#70C5A3"/>
<stop offset="0.49" stop-color="#0A11AB"/>
<stop offset="1"/>
</linearGradient>
<linearGradient id="paint7_linear_0_1" x1="87.1289" y1="31.4085" x2="91.2075" y2="31.4085" gradientUnits="userSpaceOnUse">
<stop stop-color="#70C5A3"/>
<stop offset="0.49" stop-color="#0A11AB"/>
<stop offset="1"/>
</linearGradient>
<linearGradient id="paint8_linear_0_1" x1="89.1152" y1="27.8773" x2="93.6082" y2="27.8773" gradientUnits="userSpaceOnUse">
<stop stop-color="#70C5A3"/>
<stop offset="0.49" stop-color="#7AA5F8"/>
<stop offset="1"/>
</linearGradient>
<linearGradient id="paint9_linear_0_1" x1="91.9395" y1="24.9437" x2="97.2093" y2="24.9437" gradientUnits="userSpaceOnUse">
<stop stop-color="#7FF8C7"/>
<stop offset="0.49" stop-color="#7AA5F8"/>
<stop offset="1"/>
</linearGradient>
<linearGradient id="paint10_linear_0_1" x1="88.707" y1="49.6273" x2="93.1093" y2="49.6273" gradientUnits="userSpaceOnUse">
<stop stop-color="#70C5A3"/>
<stop offset="0.49" stop-color="#7AA5F8"/>
<stop offset="1"/>
</linearGradient>
<linearGradient id="paint11_linear_0_1" x1="91.2461" y1="52.5687" x2="96.2764" y2="52.5687" gradientUnits="userSpaceOnUse">
<stop stop-color="#70C5A3"/>
<stop offset="0.49" stop-color="#7AA5F8"/>
<stop offset="1"/>
</linearGradient>
<linearGradient id="paint12_linear_0_1" x1="111.062" y1="27.8676" x2="97.4986" y2="50.2639" gradientUnits="userSpaceOnUse">
<stop stop-color="#5A90E2"/>
<stop offset="0.49" stop-color="#0A11AB"/>
<stop offset="1" stop-color="#000067"/>
</linearGradient>
<linearGradient id="paint13_linear_0_1" x1="110.421" y1="29.1201" x2="98.3232" y2="49.0905" gradientUnits="userSpaceOnUse">
<stop stop-color="#70C5A3"/>
<stop offset="0.49" stop-color="#0A11AB"/>
<stop offset="1" stop-color="#000067"/>
</linearGradient>
<linearGradient id="paint14_linear_0_1" x1="69.6041" y1="16.0194" x2="73.3046" y2="25.1305" gradientUnits="userSpaceOnUse">
<stop stop-color="#5384D0"/>
<stop offset="1" stop-color="#4475C4"/>
</linearGradient>
<linearGradient id="paint15_linear_0_1" x1="71.7137" y1="19.3594" x2="78.3482" y2="17.7502" gradientUnits="userSpaceOnUse">
<stop offset="0.09" stop-color="#699FF0"/>
<stop offset="0.97" stop-color="#6E81ED"/>
</linearGradient>
<linearGradient id="paint16_linear_0_1" x1="76.3153" y1="16.3817" x2="75.366" y2="17.2027" gradientUnits="userSpaceOnUse">
<stop stop-color="#70C5A3"/>
<stop offset="0.49" stop-color="#0A11AB"/>
<stop offset="1"/>
</linearGradient>
<linearGradient id="paint17_linear_0_1" x1="75.6369" y1="15.6078" x2="74.6729" y2="16.4416" gradientUnits="userSpaceOnUse">
<stop stop-color="#70C5A3"/>
<stop offset="0.49" stop-color="#0A11AB"/>
<stop offset="1"/>
</linearGradient>
<linearGradient id="paint18_linear_0_1" x1="76.9061" y1="17.2323" x2="75.9029" y2="18.0999" gradientUnits="userSpaceOnUse">
<stop stop-color="#7092C5"/>
<stop offset="0.49" stop-color="#0A11AB"/>
<stop offset="1"/>
</linearGradient>
<linearGradient id="paint19_linear_0_1" x1="77.3583" y1="18.202" x2="76.2964" y2="19.1204" gradientUnits="userSpaceOnUse">
<stop stop-color="#70C5A3"/>
<stop offset="0.49" stop-color="#0A11AB"/>
<stop offset="1"/>
</linearGradient>
<linearGradient id="paint20_linear_0_1" x1="74.8526" y1="14.9278" x2="73.8397" y2="15.8038" gradientUnits="userSpaceOnUse">
<stop stop-color="#70C5A3"/>
<stop offset="0.49" stop-color="#0A11AB"/>
<stop offset="1"/>
</linearGradient>
<linearGradient id="paint21_linear_0_1" x1="73.9346" y1="14.36" x2="72.858" y2="15.2911" gradientUnits="userSpaceOnUse">
<stop stop-color="#7092C5"/>
<stop offset="0.49" stop-color="#0A11AB"/>
<stop offset="1"/>
</linearGradient>
<linearGradient id="paint22_linear_0_1" x1="72.5975" y1="13.883" x2="71.4134" y2="14.9071" gradientUnits="userSpaceOnUse">
<stop stop-color="#70C5A3"/>
<stop offset="0.49" stop-color="#0A11AB"/>
<stop offset="1"/>
</linearGradient>
<linearGradient id="paint23_linear_0_1" x1="71.18" y1="13.7469" x2="69.7854" y2="14.953" gradientUnits="userSpaceOnUse">
<stop stop-color="#7092C5"/>
<stop offset="0.49" stop-color="#0A11AB"/>
<stop offset="1"/>
</linearGradient>
<linearGradient id="paint24_linear_0_1" x1="77.689" y1="19.5429" x2="76.5244" y2="20.5502" gradientUnits="userSpaceOnUse">
<stop stop-color="#70C5A3"/>
<stop offset="0.49" stop-color="#0A11AB"/>
<stop offset="1"/>
</linearGradient>
<linearGradient id="paint25_linear_0_1" x1="77.6875" y1="20.9019" x2="76.3614" y2="22.0488" gradientUnits="userSpaceOnUse">
<stop stop-color="#70C5A3"/>
<stop offset="0.49" stop-color="#0A11AB"/>
<stop offset="1"/>
</linearGradient>
<linearGradient id="paint26_linear_0_1" x1="62.768" y1="17.4137" x2="81.3963" y2="23.4593" gradientUnits="userSpaceOnUse">
<stop offset="0.09" stop-color="#84AAE4"/>
<stop offset="0.97" stop-color="#3C53D7"/>
</linearGradient>
<linearGradient id="paint27_linear_0_1" x1="132.836" y1="6.88712" x2="120.257" y2="14.5471" gradientUnits="userSpaceOnUse">
<stop stop-color="#17418A"/>
<stop offset="1" stop-color="#4C80E4"/>
</linearGradient>
<linearGradient id="paint28_linear_0_1" x1="128.394" y1="10.7919" x2="132.337" y2="20.1969" gradientUnits="userSpaceOnUse">
<stop offset="0.09" stop-color="#84BCE4"/>
<stop offset="0.97" stop-color="#3C53D7"/>
</linearGradient>
<linearGradient id="paint29_linear_0_1" x1="133.891" y1="16.8699" x2="132.45" y2="15.6581" gradientUnits="userSpaceOnUse">
<stop stop-color="#70C5A3"/>
<stop offset="0.49" stop-color="#0A11AB"/>
<stop offset="1"/>
</linearGradient>
<linearGradient id="paint30_linear_0_1" x1="134.872" y1="15.6851" x2="133.416" y2="14.4608" gradientUnits="userSpaceOnUse">
<stop stop-color="#70C5A3"/>
<stop offset="0.49" stop-color="#0A11AB"/>
<stop offset="1"/>
</linearGradient>
<linearGradient id="paint31_linear_0_1" x1="132.772" y1="17.9399" x2="131.256" y2="16.6656" gradientUnits="userSpaceOnUse">
<stop stop-color="#70C5A3"/>
<stop offset="0.49" stop-color="#0A11AB"/>
<stop offset="1"/>
</linearGradient>
<linearGradient id="paint32_linear_0_1" x1="131.452" y1="18.8411" x2="129.843" y2="17.4877" gradientUnits="userSpaceOnUse">
<stop stop-color="#70C5A3"/>
<stop offset="0.49" stop-color="#0A11AB"/>
<stop offset="1"/>
</linearGradient>
<linearGradient id="paint33_linear_0_1" x1="135.698" y1="14.3677" x2="134.163" y2="13.0767" gradientUnits="userSpaceOnUse">
<stop stop-color="#70C5A3"/>
<stop offset="0.49" stop-color="#0A11AB"/>
<stop offset="1"/>
</linearGradient>
<linearGradient id="paint34_linear_0_1" x1="136.309" y1="12.879" x2="134.68" y2="11.5089" gradientUnits="userSpaceOnUse">
<stop stop-color="#70C5A3"/>
<stop offset="0.49" stop-color="#0A11AB"/>
<stop offset="1"/>
</linearGradient>
<linearGradient id="paint35_linear_0_1" x1="136.706" y1="10.8004" x2="134.909" y2="9.28879" gradientUnits="userSpaceOnUse">
<stop stop-color="#70C5A3"/>
<stop offset="0.49" stop-color="#0A11AB"/>
<stop offset="1"/>
</linearGradient>
<linearGradient id="paint36_linear_0_1" x1="136.565" y1="8.67301" x2="134.456" y2="6.89904" gradientUnits="userSpaceOnUse">
<stop stop-color="#70C5A3"/>
<stop offset="0.49" stop-color="#0A11AB"/>
<stop offset="1"/>
</linearGradient>
<linearGradient id="paint37_linear_0_1" x1="129.543" y1="19.6495" x2="127.78" y2="18.167" gradientUnits="userSpaceOnUse">
<stop stop-color="#70C5A3"/>
<stop offset="0.49" stop-color="#0A11AB"/>
<stop offset="1"/>
</linearGradient>
<linearGradient id="paint38_linear_0_1" x1="127.535" y1="19.9737" x2="125.52" y2="18.2789" gradientUnits="userSpaceOnUse">
<stop stop-color="#70A6C5"/>
<stop offset="0.49" stop-color="#0A11AB"/>
<stop offset="1"/>
</linearGradient>
<linearGradient id="paint39_linear_0_1" x1="129.141" y1="-2.85278" x2="124.688" y2="26.0511" gradientUnits="userSpaceOnUse">
<stop offset="0.09" stop-color="#57D0F7"/>
<stop offset="0.97" stop-color="#3C53D7"/>
</linearGradient>
<linearGradient id="paint40_linear_0_1" x1="158.627" y1="124.026" x2="57.7395" y2="92.2938" gradientUnits="userSpaceOnUse">
<stop stop-color="#183873"/>
<stop offset="0.54" stop-color="#163977"/>
<stop offset="1" stop-color="#174CA5"/>
</linearGradient>
<linearGradient id="paint41_linear_0_1" x1="924.546" y1="553.015" x2="980.04" y2="642.402" gradientUnits="userSpaceOnUse">
<stop offset="0.03" stop-color="#2E5BAB"/>
<stop offset="0.97" stop-color="#17489E"/>
</linearGradient>
<linearGradient id="paint42_linear_0_1" x1="58.881" y1="77.6308" x2="120.507" y2="111.299" gradientUnits="userSpaceOnUse">
<stop offset="0.09" stop-color="#5D8FE6"/>
<stop offset="0.82" stop-color="#2A61C2"/>
<stop offset="1" stop-color="#184799"/>
</linearGradient>
<linearGradient id="paint43_linear_0_1" x1="111.885" y1="117.591" x2="97.7765" y2="87.2274" gradientUnits="userSpaceOnUse">
<stop stop-color="#153269"/>
<stop offset="0.54" stop-color="#163570"/>
<stop offset="1" stop-color="#17489D"/>
</linearGradient>
<linearGradient id="paint44_linear_0_1" x1="923.087" y1="550.044" x2="964.686" y2="617.046" gradientUnits="userSpaceOnUse">
<stop offset="0.03" stop-color="#2E5BAB"/>
<stop offset="0.97" stop-color="#223DBA"/>
</linearGradient>
<linearGradient id="paint45_linear_0_1" x1="924.835" y1="552.851" x2="961.948" y2="612.627" gradientUnits="userSpaceOnUse">
<stop offset="0.09" stop-color="#407BED"/>
<stop offset="0.97" stop-color="#3C53D7"/>
</linearGradient>
<linearGradient id="paint46_linear_0_1" x1="111.023" y1="106.809" x2="97.8052" y2="78.3657" gradientUnits="userSpaceOnUse">
<stop stop-color="#143165"/>
<stop offset="0.54" stop-color="#173D81"/>
<stop offset="1" stop-color="#173E83"/>
</linearGradient>
<linearGradient id="paint47_linear_0_1" x1="916.028" y1="537.906" x2="955.002" y2="600.678" gradientUnits="userSpaceOnUse">
<stop offset="0.03" stop-color="#2E5BAB"/>
<stop offset="0.97" stop-color="#223DBA"/>
</linearGradient>
<linearGradient id="paint48_linear_0_1" x1="917.662" y1="540.535" x2="952.432" y2="596.535" gradientUnits="userSpaceOnUse">
<stop offset="0.09" stop-color="#407BEE"/>
<stop offset="0.97" stop-color="#407BEE"/>
</linearGradient>
<linearGradient id="paint49_linear_0_1" x1="108.634" y1="93.231" x2="96.2235" y2="66.5145" gradientUnits="userSpaceOnUse">
<stop stop-color="#18428E"/>
<stop offset="0.5" stop-color="#153369"/>
<stop offset="1" stop-color="#184596"/>
</linearGradient>
<linearGradient id="paint50_linear_0_1" x1="905.099" y1="519.457" x2="941.7" y2="578.414" gradientUnits="userSpaceOnUse">
<stop offset="0.03" stop-color="#2E5BAB"/>
<stop offset="0.97" stop-color="#223DBA"/>
</linearGradient>
<linearGradient id="paint51_linear_0_1" x1="94.3139" y1="63.658" x2="108.432" y2="88.9372" gradientUnits="userSpaceOnUse">
<stop offset="0.09" stop-color="#83A4F8"/>
<stop offset="0.97" stop-color="#527BCC"/>
</linearGradient>
<linearGradient id="paint52_linear_0_1" x1="102.523" y1="75.0552" x2="94.4195" y2="57.6128" gradientUnits="userSpaceOnUse">
<stop stop-color="#163672"/>
<stop offset="0.54" stop-color="#163672"/>
<stop offset="1" stop-color="#35498E"/>
</linearGradient>
<linearGradient id="paint53_linear_0_1" x1="911.56" y1="528.837" x2="932.936" y2="563.265" gradientUnits="userSpaceOnUse">
<stop stop-color="#6278A4"/>
<stop offset="1" stop-color="#2F3C9E"/>
</linearGradient>
<linearGradient id="paint54_linear_0_1" x1="-173.089" y1="149.973" x2="-137.628" y2="162.176" gradientUnits="userSpaceOnUse">
<stop offset="0.09" stop-color="#84E4A4"/>
<stop offset="0.97" stop-color="#3C53D7"/>
</linearGradient>
<linearGradient id="paint55_linear_0_1" x1="-139.431" y1="157.476" x2="-146.965" y2="144.407" gradientUnits="userSpaceOnUse">
<stop offset="0.09" stop-color="#184AA2"/>
<stop offset="0.97" stop-color="#3C53D7"/>
</linearGradient>
<linearGradient id="paint56_linear_0_1" x1="-142.448" y1="159.218" x2="-149.982" y2="146.148" gradientUnits="userSpaceOnUse">
<stop offset="0.09" stop-color="#184AA2"/>
<stop offset="0.97" stop-color="#3C53D7"/>
</linearGradient>
<linearGradient id="paint57_linear_0_1" x1="-145.499" y1="160.892" x2="-151.657" y2="150.209" gradientUnits="userSpaceOnUse">
<stop offset="0.09" stop-color="#184AA2"/>
<stop offset="0.97" stop-color="#3C53D7"/>
</linearGradient>
<linearGradient id="paint58_linear_0_1" x1="-148.481" y1="162.694" x2="-156.014" y2="149.625" gradientUnits="userSpaceOnUse">
<stop offset="0.09" stop-color="#184AA2"/>
<stop offset="0.97" stop-color="#3C53D7"/>
</linearGradient>
<linearGradient id="paint59_linear_0_1" x1="-151.497" y1="164.431" x2="-159.031" y2="151.361" gradientUnits="userSpaceOnUse">
<stop offset="0.09" stop-color="#184AA2"/>
<stop offset="0.97" stop-color="#3C53D7"/>
</linearGradient>
<linearGradient id="paint60_linear_0_1" x1="-154.519" y1="166.174" x2="-162.053" y2="153.104" gradientUnits="userSpaceOnUse">
<stop offset="0.09" stop-color="#184AA2"/>
<stop offset="0.97" stop-color="#3C53D7"/>
</linearGradient>
<linearGradient id="paint61_linear_0_1" x1="-157.534" y1="167.912" x2="-165.068" y2="154.842" gradientUnits="userSpaceOnUse">
<stop offset="0.09" stop-color="#184AA2"/>
<stop offset="0.97" stop-color="#3C53D7"/>
</linearGradient>
<linearGradient id="paint62_linear_0_1" x1="-160.552" y1="169.653" x2="-168.086" y2="156.583" gradientUnits="userSpaceOnUse">
<stop offset="0.09" stop-color="#184AA2"/>
<stop offset="0.97" stop-color="#3C53D7"/>
</linearGradient>
<linearGradient id="paint63_linear_0_1" x1="-163.569" y1="171.389" x2="-171.103" y2="158.32" gradientUnits="userSpaceOnUse">
<stop offset="0.09" stop-color="#184AA2"/>
<stop offset="0.97" stop-color="#3C53D7"/>
</linearGradient>
<linearGradient id="paint64_linear_0_1" x1="316.502" y1="117.016" x2="281.044" y2="129.213" gradientUnits="userSpaceOnUse">
<stop offset="0.09" stop-color="#65B4FD"/>
<stop offset="0.97" stop-color="#3C53D7"/>
</linearGradient>
<linearGradient id="paint65_linear_0_1" x1="177.493" y1="51.6878" x2="172.565" y2="59.5289" gradientUnits="userSpaceOnUse">
<stop offset="0.09" stop-color="#5B7FFF"/>
<stop offset="0.97" stop-color="#3C53D7"/>
</linearGradient>
</defs>
</svg>
