<?xml version="1.0" encoding="UTF-8"?><svg id="Layer_2" xmlns="http://www.w3.org/2000/svg" xmlns:xlink="http://www.w3.org/1999/xlink" viewBox="0 0 210.06 159.98"><defs><style>.cls-1{stroke:#e2f4ff;stroke-width:.14px;}.cls-1,.cls-2,.cls-3,.cls-4,.cls-5,.cls-6{fill:none;stroke-miterlimit:10;}.cls-7{fill:url(#linear-gradient);}.cls-7,.cls-8,.cls-9,.cls-10,.cls-11,.cls-12,.cls-13,.cls-14,.cls-15,.cls-16,.cls-17,.cls-18,.cls-19,.cls-20,.cls-21,.cls-22,.cls-23,.cls-24,.cls-25,.cls-26,.cls-27,.cls-28,.cls-29,.cls-30,.cls-31,.cls-32,.cls-33,.cls-34,.cls-35,.cls-36,.cls-37,.cls-38,.cls-39,.cls-40,.cls-41,.cls-42,.cls-43,.cls-44,.cls-45,.cls-46,.cls-47,.cls-48,.cls-49,.cls-50,.cls-51,.cls-52,.cls-53,.cls-54,.cls-55,.cls-56,.cls-57,.cls-58,.cls-59,.cls-60,.cls-61,.cls-62,.cls-63,.cls-64,.cls-65,.cls-66,.cls-67,.cls-68,.cls-69,.cls-70,.cls-71,.cls-72,.cls-73{stroke-width:0px;}.cls-8{fill:url(#linear-gradient-65);}.cls-8,.cls-9{opacity:.15;}.cls-8,.cls-9,.cls-62,.cls-5,.cls-6{isolation:isolate;}.cls-9{fill:url(#linear-gradient-55);}.cls-10{fill:url(#linear-gradient-38);}.cls-11{fill:url(#linear-gradient-33);}.cls-12{fill:url(#linear-gradient-29);}.cls-13{fill:url(#linear-gradient-32);}.cls-14{fill:url(#linear-gradient-30);}.cls-15{fill:url(#linear-gradient-31);}.cls-16{fill:url(#linear-gradient-36);}.cls-17{fill:url(#linear-gradient-39);}.cls-18{fill:url(#linear-gradient-34);}.cls-19{fill:url(#linear-gradient-37);}.cls-20{fill:url(#linear-gradient-35);}.cls-21{fill:url(#linear-gradient-28);}.cls-22{fill:url(#linear-gradient-25);}.cls-23{fill:url(#linear-gradient-11);}.cls-24{fill:url(#linear-gradient-12);}.cls-25{fill:url(#linear-gradient-10);}.cls-26{fill:url(#linear-gradient-17);}.cls-27{fill:url(#linear-gradient-16);}.cls-28{fill:url(#linear-gradient-19);}.cls-29{fill:url(#linear-gradient-15);}.cls-30{fill:url(#linear-gradient-23);}.cls-31{fill:url(#linear-gradient-21);}.cls-32{fill:url(#linear-gradient-18);}.cls-33{fill:url(#linear-gradient-22);}.cls-34{fill:url(#linear-gradient-20);}.cls-35{fill:url(#linear-gradient-27);}.cls-36{fill:url(#linear-gradient-24);}.cls-37{fill:url(#linear-gradient-26);}.cls-38{fill:url(#linear-gradient-45);}.cls-39{fill:url(#linear-gradient-46);}.cls-40{fill:url(#linear-gradient-44);}.cls-41{fill:url(#linear-gradient-48);}.cls-42{fill:url(#linear-gradient-49);}.cls-43{fill:url(#linear-gradient-47);}.cls-44{fill:url(#linear-gradient-42);}.cls-45{fill:url(#linear-gradient-43);}.cls-46{fill:url(#linear-gradient-40);}.cls-47{fill:url(#linear-gradient-41);}.cls-48{fill:url(#linear-gradient-59);}.cls-49{fill:url(#linear-gradient-57);}.cls-50{fill:url(#linear-gradient-58);}.cls-51{fill:url(#linear-gradient-56);}.cls-52{fill:url(#linear-gradient-53);}.cls-53{fill:url(#linear-gradient-51);}.cls-54{fill:url(#linear-gradient-52);}.cls-55{fill:url(#linear-gradient-50);}.cls-56{fill:url(#linear-gradient-54);}.cls-57{fill:url(#linear-gradient-60);}.cls-58{fill:url(#linear-gradient-61);}.cls-59{fill:url(#linear-gradient-62);}.cls-60{fill:url(#linear-gradient-63);}.cls-61{fill:url(#linear-gradient-64);}.cls-62{fill:url(#linear-gradient-66);}.cls-62,.cls-5,.cls-6{opacity:.6;}.cls-2{stroke:#163a7a;}.cls-2,.cls-3,.cls-4{stroke-width:.53px;}.cls-3{stroke:#16356f;}.cls-4{stroke:#173d82;}.cls-74{opacity:.2;}.cls-75{opacity:.5;}.cls-76{opacity:.7;}.cls-5{stroke:url(#linear-gradient-13);stroke-width:1.08px;}.cls-63{fill:url(#linear-gradient-4);}.cls-64{fill:url(#linear-gradient-2);}.cls-65{fill:url(#linear-gradient-3);}.cls-66{fill:url(#linear-gradient-8);}.cls-67{fill:url(#linear-gradient-9);}.cls-68{fill:url(#linear-gradient-7);}.cls-69{fill:url(#linear-gradient-5);}.cls-70{fill:url(#linear-gradient-6);}.cls-6{stroke:url(#linear-gradient-14);stroke-width:.32px;}.cls-71{fill:#2a49f9;}.cls-72{fill:#b7d2ff;}.cls-73{fill:#fff;}</style><linearGradient id="linear-gradient" x1="92.68" y1="60.36" x2="101.68" y2="33.7" gradientTransform="translate(0 85.12) scale(1 -1)" gradientUnits="userSpaceOnUse"><stop offset="0" stop-color="#184ba4"/><stop offset="1" stop-color="#6090d9"/></linearGradient><linearGradient id="linear-gradient-2" x1="94.36" y1="49.2" x2="77" y2="40.27" gradientTransform="translate(0 85.12) scale(1 -1)" gradientUnits="userSpaceOnUse"><stop offset=".01" stop-color="#355792"/><stop offset=".97" stop-color="#5689e1"/></linearGradient><linearGradient id="linear-gradient-3" x1="78.83" y1="47.03" x2="82.43" y2="47.03" gradientTransform="translate(0 85.12) scale(1 -1)" gradientUnits="userSpaceOnUse"><stop offset="0" stop-color="#70c5a3"/><stop offset=".49" stop-color="#0a11ab"/><stop offset="1" stop-color="#000"/></linearGradient><linearGradient id="linear-gradient-4" x1="78.85" y1="49.97" x2="82.49" y2="49.97" xlink:href="#linear-gradient-3"/><linearGradient id="linear-gradient-5" x1="79.14" y1="44.1" x2="82.94" y2="44.1" gradientTransform="translate(0 85.12) scale(1 -1)" gradientUnits="userSpaceOnUse"><stop offset="0" stop-color="#70c5a3"/><stop offset=".49" stop-color="#7aa5f8"/><stop offset="1" stop-color="#000"/></linearGradient><linearGradient id="linear-gradient-6" x1="79.96" y1="41.15" x2="83.99" y2="41.15" xlink:href="#linear-gradient-5"/><linearGradient id="linear-gradient-7" x1="79.27" y1="52.91" x2="83.1" y2="52.91" xlink:href="#linear-gradient-3"/><linearGradient id="linear-gradient-8" x1="80.2" y1="55.85" x2="84.28" y2="55.85" xlink:href="#linear-gradient-3"/><linearGradient id="linear-gradient-9" x1="82.19" y1="59.38" x2="86.68" y2="59.38" xlink:href="#linear-gradient-5"/><linearGradient id="linear-gradient-10" x1="85.01" y1="62.31" x2="90.28" y2="62.31" gradientTransform="translate(0 85.12) scale(1 -1)" gradientUnits="userSpaceOnUse"><stop offset="0" stop-color="#7ff8c7"/><stop offset=".49" stop-color="#7aa5f8"/><stop offset="1" stop-color="#000"/></linearGradient><linearGradient id="linear-gradient-11" x1="81.78" y1="37.63" x2="86.18" y2="37.63" xlink:href="#linear-gradient-5"/><linearGradient id="linear-gradient-12" x1="84.32" y1="34.69" x2="89.35" y2="34.69" xlink:href="#linear-gradient-5"/><linearGradient id="linear-gradient-13" x1="104.12" y1="59.41" x2="90.55" y2="37.01" gradientTransform="translate(0 85.12) scale(1 -1)" gradientUnits="userSpaceOnUse"><stop offset="0" stop-color="#5a90e2"/><stop offset=".49" stop-color="#0a11ab"/><stop offset="1" stop-color="#000067"/></linearGradient><linearGradient id="linear-gradient-14" x1="103.48" y1="58.15" x2="91.38" y2="38.18" gradientTransform="translate(0 85.12) scale(1 -1)" gradientUnits="userSpaceOnUse"><stop offset="0" stop-color="#70c5a3"/><stop offset=".49" stop-color="#0a11ab"/><stop offset="1" stop-color="#000067"/></linearGradient><linearGradient id="linear-gradient-15" x1="62.66" y1="71.24" x2="66.36" y2="62.13" gradientTransform="translate(0 85.12) scale(1 -1)" gradientUnits="userSpaceOnUse"><stop offset="0" stop-color="#5384d0"/><stop offset="1" stop-color="#4475c4"/></linearGradient><linearGradient id="linear-gradient-16" x1="64.79" y1="67.86" x2="71.43" y2="69.47" gradientTransform="translate(0 85.12) scale(1 -1)" gradientUnits="userSpaceOnUse"><stop offset=".09" stop-color="#699ff0"/><stop offset=".97" stop-color="#6e81ed"/></linearGradient><linearGradient id="linear-gradient-17" x1="69.41" y1="70.85" x2="68.46" y2="70.03" xlink:href="#linear-gradient-3"/><linearGradient id="linear-gradient-18" x1="68.72" y1="71.63" x2="67.76" y2="70.8" xlink:href="#linear-gradient-3"/><linearGradient id="linear-gradient-19" x1="69.99" y1="70.01" x2="68.99" y2="69.15" gradientTransform="translate(0 85.12) scale(1 -1)" gradientUnits="userSpaceOnUse"><stop offset="0" stop-color="#7092c5"/><stop offset=".49" stop-color="#0a11ab"/><stop offset="1" stop-color="#000"/></linearGradient><linearGradient id="linear-gradient-20" x1="70.44" y1="69.04" x2="69.38" y2="68.12" xlink:href="#linear-gradient-3"/><linearGradient id="linear-gradient-21" x1="67.94" y1="72.31" x2="66.93" y2="71.43" xlink:href="#linear-gradient-3"/><linearGradient id="linear-gradient-22" x1="67.03" y1="72.87" x2="65.95" y2="71.94" xlink:href="#linear-gradient-19"/><linearGradient id="linear-gradient-23" x1="65.69" y1="73.36" x2="64.5" y2="72.33" xlink:href="#linear-gradient-3"/><linearGradient id="linear-gradient-24" x1="64.27" y1="73.49" x2="62.88" y2="72.29" xlink:href="#linear-gradient-19"/><linearGradient id="linear-gradient-25" x1="70.78" y1="67.7" x2="69.61" y2="66.7" xlink:href="#linear-gradient-3"/><linearGradient id="linear-gradient-26" x1="70.78" y1="66.34" x2="69.45" y2="65.19" xlink:href="#linear-gradient-3"/><linearGradient id="linear-gradient-27" x1="55.82" y1="69.8" x2="74.45" y2="63.76" gradientTransform="translate(0 85.12) scale(1 -1)" gradientUnits="userSpaceOnUse"><stop offset=".09" stop-color="#84aae4"/><stop offset=".97" stop-color="#3c53d7"/></linearGradient><linearGradient id="linear-gradient-28" x1="125.88" y1="80.42" x2="113.3" y2="72.76" gradientTransform="translate(0 85.12) scale(1 -1)" gradientUnits="userSpaceOnUse"><stop offset="0" stop-color="#17418a"/><stop offset="1" stop-color="#4c80e4"/></linearGradient><linearGradient id="linear-gradient-29" x1="121.49" y1="76.48" x2="125.44" y2="67.07" gradientTransform="translate(0 85.12) scale(1 -1)" gradientUnits="userSpaceOnUse"><stop offset=".09" stop-color="#84bce4"/><stop offset=".97" stop-color="#3c53d7"/></linearGradient><linearGradient id="linear-gradient-30" x1="126.99" y1="70.43" x2="125.55" y2="71.64" xlink:href="#linear-gradient-3"/><linearGradient id="linear-gradient-31" x1="127.97" y1="71.62" x2="126.51" y2="72.84" xlink:href="#linear-gradient-3"/><linearGradient id="linear-gradient-32" x1="125.87" y1="69.36" x2="124.35" y2="70.63" xlink:href="#linear-gradient-3"/><linearGradient id="linear-gradient-33" x1="124.55" y1="68.45" x2="122.94" y2="69.81" xlink:href="#linear-gradient-3"/><linearGradient id="linear-gradient-34" x1="128.79" y1="72.93" x2="127.26" y2="74.22" xlink:href="#linear-gradient-3"/><linearGradient id="linear-gradient-35" x1="129.41" y1="74.42" x2="127.78" y2="75.79" xlink:href="#linear-gradient-3"/><linearGradient id="linear-gradient-36" x1="129.8" y1="76.5" x2="128" y2="78.01" xlink:href="#linear-gradient-3"/><linearGradient id="linear-gradient-37" x1="129.66" y1="78.62" x2="127.55" y2="80.39" xlink:href="#linear-gradient-3"/><linearGradient id="linear-gradient-38" x1="122.64" y1="67.65" x2="120.87" y2="69.13" xlink:href="#linear-gradient-3"/><linearGradient id="linear-gradient-39" x1="120.63" y1="67.32" x2="118.62" y2="69.01" gradientTransform="translate(0 85.12) scale(1 -1)" gradientUnits="userSpaceOnUse"><stop offset="0" stop-color="#70a6c5"/><stop offset=".49" stop-color="#0a11ab"/><stop offset="1" stop-color="#000"/></linearGradient><linearGradient id="linear-gradient-40" x1="122.21" y1="90.12" x2="117.75" y2="61.21" gradientTransform="translate(0 85.12) scale(1 -1)" gradientUnits="userSpaceOnUse"><stop offset=".09" stop-color="#57d0f7"/><stop offset=".97" stop-color="#3c53d7"/></linearGradient><linearGradient id="linear-gradient-41" x1="151.68" y1="-36.82" x2="50.79" y2="-5.08" gradientTransform="translate(0 85.12) scale(1 -1)" gradientUnits="userSpaceOnUse"><stop offset="0" stop-color="#183873"/><stop offset=".54" stop-color="#163977"/><stop offset="1" stop-color="#174ca5"/></linearGradient><linearGradient id="linear-gradient-42" x1="526.01" y1="-708.87" x2="581.5" y2="-798.26" gradientTransform="translate(0 85.12) scale(1 -1)" gradientUnits="userSpaceOnUse"><stop offset=".03" stop-color="#2e5bab"/><stop offset=".97" stop-color="#17489e"/></linearGradient><linearGradient id="linear-gradient-43" x1="51.98" y1="9.69" x2="113.61" y2="-23.98" gradientTransform="translate(0 85.12) scale(1 -1)" gradientUnits="userSpaceOnUse"><stop offset=".09" stop-color="#5d8fe6"/><stop offset=".82" stop-color="#2a61c2"/><stop offset="1" stop-color="#184799"/></linearGradient><linearGradient id="linear-gradient-44" x1="104.93" y1="-30.34" x2="90.82" y2=".02" gradientTransform="translate(0 85.12) scale(1 -1)" gradientUnits="userSpaceOnUse"><stop offset="0" stop-color="#153269"/><stop offset=".54" stop-color="#163570"/><stop offset="1" stop-color="#17489d"/></linearGradient><linearGradient id="linear-gradient-45" x1="527.66" y1="-703.98" x2="569.26" y2="-770.98" gradientTransform="translate(0 85.12) scale(1 -1)" gradientUnits="userSpaceOnUse"><stop offset=".03" stop-color="#2e5bab"/><stop offset=".97" stop-color="#223dba"/></linearGradient><linearGradient id="linear-gradient-46" x1="529.4" y1="-706.8" x2="566.52" y2="-766.58" gradientTransform="translate(0 85.12) scale(1 -1)" gradientUnits="userSpaceOnUse"><stop offset=".09" stop-color="#407bed"/><stop offset=".97" stop-color="#3c53d7"/></linearGradient><linearGradient id="linear-gradient-47" x1="104.07" y1="-19.56" x2="90.85" y2="8.88" gradientTransform="translate(0 85.12) scale(1 -1)" gradientUnits="userSpaceOnUse"><stop offset="0" stop-color="#143165"/><stop offset=".54" stop-color="#173d81"/><stop offset="1" stop-color="#173e83"/></linearGradient><linearGradient id="linear-gradient-48" x1="524.28" y1="-689.57" x2="563.25" y2="-752.35" xlink:href="#linear-gradient-45"/><linearGradient id="linear-gradient-49" x1="525.91" y1="-692.2" x2="560.68" y2="-748.2" gradientTransform="translate(0 85.12) scale(1 -1)" gradientUnits="userSpaceOnUse"><stop offset=".09" stop-color="#407bee"/><stop offset=".97" stop-color="#407bee"/></linearGradient><linearGradient id="linear-gradient-50" x1="101.69" y1="-5.98" x2="89.28" y2="20.74" gradientTransform="translate(0 85.12) scale(1 -1)" gradientUnits="userSpaceOnUse"><stop offset="0" stop-color="#18428e"/><stop offset=".5" stop-color="#153369"/><stop offset="1" stop-color="#184596"/></linearGradient><linearGradient id="linear-gradient-51" x1="516.67" y1="-669.03" x2="553.27" y2="-727.98" xlink:href="#linear-gradient-45"/><linearGradient id="linear-gradient-52" x1="87.4" y1="23.62" x2="101.52" y2="-1.66" gradientTransform="translate(0 85.12) scale(1 -1)" gradientUnits="userSpaceOnUse"><stop offset=".09" stop-color="#83a4f8"/><stop offset=".97" stop-color="#527bcc"/></linearGradient><linearGradient id="linear-gradient-53" x1="95.59" y1="12.2" x2="87.49" y2="29.65" gradientTransform="translate(0 85.12) scale(1 -1)" gradientUnits="userSpaceOnUse"><stop offset="0" stop-color="#163672"/><stop offset=".54" stop-color="#163672"/><stop offset="1" stop-color="#35498e"/></linearGradient><linearGradient id="linear-gradient-54" x1="525.25" y1="-677.13" x2="546.62" y2="-711.56" gradientTransform="translate(0 85.12) scale(1 -1)" gradientUnits="userSpaceOnUse"><stop offset="0" stop-color="#6278a4"/><stop offset="1" stop-color="#2f3c9e"/></linearGradient><linearGradient id="linear-gradient-55" x1="-128.03" y1="88.37" x2="-92.57" y2="76.16" gradientTransform="translate(0 85.12) scale(1 -1)" gradientUnits="userSpaceOnUse"><stop offset=".09" stop-color="#84e4a4"/><stop offset=".97" stop-color="#3c53d7"/></linearGradient><linearGradient id="linear-gradient-56" x1="36.52" y1="35.21" x2="28.99" y2="48.28" gradientTransform="translate(0 85.12) scale(1 -1)" gradientUnits="userSpaceOnUse"><stop offset=".09" stop-color="#184aa2"/><stop offset=".97" stop-color="#3c53d7"/></linearGradient><linearGradient id="linear-gradient-57" x1="32.32" y1="32.78" x2="24.78" y2="45.85" xlink:href="#linear-gradient-56"/><linearGradient id="linear-gradient-58" x1="31.01" y1="32.11" x2="24.85" y2="42.79" xlink:href="#linear-gradient-56"/><linearGradient id="linear-gradient-59" x1="25.08" y1="28.6" x2="17.55" y2="41.67" xlink:href="#linear-gradient-56"/><linearGradient id="linear-gradient-60" x1="22.84" y1="27.32" x2="15.31" y2="40.39" xlink:href="#linear-gradient-56"/><linearGradient id="linear-gradient-61" x1="21.22" y1="26.39" x2="13.69" y2="39.46" xlink:href="#linear-gradient-56"/><linearGradient id="linear-gradient-62" x1="16.24" y1="23.52" x2="8.71" y2="36.59" xlink:href="#linear-gradient-56"/><linearGradient id="linear-gradient-63" x1="13.37" y1="21.86" x2="5.84" y2="34.93" xlink:href="#linear-gradient-56"/><linearGradient id="linear-gradient-64" x1="11.03" y1="20.52" x2="3.5" y2="33.59" xlink:href="#linear-gradient-56"/><linearGradient id="linear-gradient-65" x1="274.25" y1="72.93" x2="238.79" y2="60.73" gradientTransform="translate(0 85.12) scale(1 -1)" gradientUnits="userSpaceOnUse"><stop offset=".09" stop-color="#65b4fd"/><stop offset=".97" stop-color="#3c53d7"/></linearGradient><linearGradient id="linear-gradient-66" x1="170.56" y1="35.58" x2="165.63" y2="27.73" gradientTransform="translate(0 85.12) scale(1 -1)" gradientUnits="userSpaceOnUse"><stop offset=".09" stop-color="#5b7fff"/><stop offset=".97" stop-color="#3c53d7"/></linearGradient></defs><g id="Layer_1-2"><g class="cls-76"><path class="cls-4" d="m37.06,145.64l17.42-10.04,17.86-1.84,14.13,8.14,12.52-.5,10.84-6.26"/><path class="cls-4" d="m71.79,137.44l13.72,7.91,14.7-.59,18.81-10.85"/><path class="cls-4" d="m148.1,159.75l-17.42-10.04-17.85-1.83-14.13,8.14-12.52-.5-10.84-6.26"/><path class="cls-4" d="m113.36,151.55l-13.72,7.91-14.7-.6-18.81-10.84"/><path class="cls-4" d="m85.53,135.29l-17.42-10.04-17.85-1.83-14.13,8.14-12.52-.5-10.85-6.25"/><path class="cls-4" d="m50.79,127.1l-13.72,7.91-14.69-.59-18.81-10.85"/></g><g class="cls-76"><path class="cls-2" d="m209.05,101.72l-17.42-10.04-17.85-1.84-14.13,8.14-12.52-.5-10.84-6.25"/><path class="cls-2" d="m174.31,93.52l-13.72,7.91-14.7-.59-18.81-10.85"/><path class="cls-71" d="m135.46,91.58c.4.23,1.03.23,1.42,0,.4-.23.4-.59,0-.82-.39-.23-1.03-.23-1.42,0-.4.23-.4.59,0,.82Z"/><path class="cls-71" d="m126.26,90.35c.4.23,1.03.23,1.42,0,.39-.23.39-.59,0-.82-.4-.23-1.03-.23-1.42,0-.39.23-.39.59,0,.82Z"/><path class="cls-71" d="m145.13,101.23c.4.23,1.03.23,1.42,0,.4-.23.4-.59,0-.82-.39-.23-1.03-.23-1.42,0-.4.23-.4.59,0,.82Z"/><path class="cls-71" d="m146.41,97.89c.4.23,1.03.23,1.42,0,.4-.23.4-.6,0-.82-.4-.23-1.03-.23-1.42,0-.4.23-.4.59,0,.82Z"/><path class="cls-71" d="m173.11,90.3c.4.23,1.03.23,1.43,0,.4-.23.4-.59,0-.82-.4-.23-1.03-.23-1.43,0-.39.23-.39.59,0,.82Z"/><path class="cls-71" d="m173.6,93.94c.39.23,1.03.23,1.42,0s.4-.59,0-.82-1.03-.23-1.42,0c-.4.23-.4.59,0,.82Z"/><path class="cls-71" d="m208.34,102.12c.4.23,1.03.23,1.42,0,.4-.23.4-.6,0-.82-.39-.23-1.03-.23-1.42,0s-.4.6,0,.82Z"/><path class="cls-2" d="m123.89,116.92l17.42-10.04,17.85-1.83,14.13,8.14"/><path class="cls-2" d="m158.63,108.73l13.72,7.91"/><path class="cls-71" d="m159.83,105.51c-.39.23-1.03.23-1.43,0-.39-.23-.39-.6,0-.82.4-.23,1.03-.23,1.43,0,.39.23.39.6,0,.82Z"/><path class="cls-71" d="m159.34,109.14c-.39.23-1.03.23-1.42,0-.4-.23-.4-.6,0-.82s1.03-.23,1.42,0c.4.23.4.59,0,.82Z"/><path class="cls-71" d="m124.6,117.33c-.4.23-1.03.23-1.42,0-.39-.23-.39-.6,0-.82.4-.23,1.03-.23,1.42,0,.39.23.39.59,0,.82Z"/><path class="cls-2" d="m125.92,126.92l17.42-10.04,17.85-1.83,14.13,8.14"/><path class="cls-2" d="m160.66,118.73l13.73,7.91"/><path class="cls-71" d="m161.86,115.51c-.4.23-1.03.23-1.42,0-.39-.23-.39-.6,0-.82.4-.23,1.03-.23,1.42,0,.39.23.39.6,0,.82Z"/><path class="cls-71" d="m161.37,119.14c-.39.23-1.03.23-1.43,0-.39-.23-.39-.6,0-.82.4-.23,1.03-.23,1.43,0,.39.23.39.59,0,.82Z"/><path class="cls-71" d="m126.63,127.33c-.4.23-1.03.23-1.42,0s-.4-.6,0-.82,1.03-.23,1.42,0,.4.6,0,.82Z"/></g><g class="cls-76"><path class="cls-3" d="m34.62,69.34l17.42,10.04,17.86,1.84,14.13-8.14,12.52.5,10.85,6.25"/><path class="cls-3" d="m69.35,77.54l13.72-7.91,14.7.59,18.81,10.85"/><path class="cls-71" d="m108.21,79.48c-.4-.23-1.03-.23-1.43,0-.39.23-.39.59,0,.82.4.23,1.03.23,1.43,0,.39-.23.39-.59,0-.82Z"/><path class="cls-71" d="m117.4,80.72c-.39-.23-1.03-.23-1.43,0-.39.23-.39.59,0,.82.4.23,1.03.23,1.43,0,.4-.23.4-.59,0-.82Z"/><path class="cls-71" d="m98.54,69.83c-.4-.23-1.03-.23-1.43,0-.39.23-.39.59,0,.82.4.23,1.03.23,1.43,0,.39-.23.39-.59,0-.82Z"/><path class="cls-71" d="m97.24,73.17c-.4-.23-1.03-.23-1.43,0-.4.23-.4.59,0,.82.39.23,1.03.23,1.43,0,.39-.23.39-.59,0-.82Z"/><path class="cls-71" d="m70.55,80.76c-.39-.23-1.03-.23-1.42,0-.39.23-.39.59,0,.82.39.23,1.03.23,1.42,0,.39-.23.39-.59,0-.82Z"/><path class="cls-71" d="m70.07,77.12c-.4-.23-1.03-.23-1.42,0-.39.23-.39.59,0,.82.39.23,1.03.23,1.42,0,.39-.23.39-.59,0-.82Z"/><path class="cls-71" d="m35.33,68.94c-.39-.23-1.03-.23-1.42,0-.39.23-.39.59,0,.82.4.23,1.03.23,1.42,0,.39-.23.39-.59,0-.82Z"/><path class="cls-3" d="m145.65,55.23l-17.42,10.04-17.85,1.84-14.13-8.14-12.52.5-10.85,6.25"/><path class="cls-3" d="m110.91,63.43l-13.73-7.91-14.69.59-18.81,10.85"/><path class="cls-71" d="m72.06,65.37c.39-.23,1.03-.23,1.42,0,.39.23.39.59,0,.82-.39.23-1.03.23-1.42,0-.39-.23-.39-.59,0-.82Z"/><path class="cls-71" d="m62.86,66.61c.39-.23,1.03-.23,1.42,0,.39.23.39.59,0,.82-.39.23-1.03.23-1.42,0-.39-.23-.39-.59,0-.82Z"/><path class="cls-71" d="m81.73,55.73c.39-.23,1.03-.23,1.42,0,.39.23.39.59,0,.82-.39.23-1.03.23-1.42,0-.4-.23-.4-.59,0-.82Z"/><path class="cls-71" d="m83.02,59.06c.39-.23,1.03-.23,1.42,0,.39.23.39.59,0,.82-.4.23-1.03.23-1.42,0s-.39-.59,0-.82Z"/><path class="cls-71" d="m109.71,66.65c.4-.23,1.03-.23,1.42,0,.39.23.39.59,0,.82-.4.23-1.03.23-1.42,0-.39-.23-.39-.59,0-.82Z"/><path class="cls-71" d="m110.2,63.01c.4-.23,1.03-.23,1.42,0,.39.23.39.59,0,.82-.39.23-1.03.23-1.42,0-.39-.23-.39-.59,0-.82Z"/><path class="cls-71" d="m144.94,54.83c.4-.23,1.03-.23,1.43,0,.4.23.4.59,0,.82-.4.23-1.03.23-1.43,0-.39-.23-.39-.59,0-.82Z"/><path class="cls-3" d="m83.08,79.7l-17.42,10.04-17.86,1.84-14.13-8.14-12.52.5-10.85,6.25"/><path class="cls-3" d="m48.34,87.89l-13.72-7.91-14.7.59L1.11,91.41"/><path class="cls-71" d="m9.5,89.83c.39-.23,1.03-.23,1.42,0,.39.23.39.59,0,.82-.39.23-1.03.23-1.42,0-.39-.23-.39-.59,0-.82Z"/><path class="cls-71" d="m.3,91.06c.39-.23,1.03-.23,1.42,0,.4.23.4.59,0,.82-.39.23-1.03.23-1.42,0-.39-.23-.39-.59,0-.82Z"/><path class="cls-71" d="m19.16,80.19c.4-.23,1.03-.23,1.42,0,.39.23.39.59,0,.82-.39.23-1.03.23-1.42,0-.39-.23-.39-.59,0-.82Z"/><path class="cls-71" d="m20.45,83.51c.39-.23,1.03-.23,1.42,0,.39.23.39.59,0,.82-.39.23-1.03.23-1.42,0-.39-.23-.39-.59,0-.82Z"/><path class="cls-71" d="m47.14,91.11c.39-.23,1.03-.23,1.42,0,.39.23.39.59,0,.82-.4.23-1.03.23-1.42,0-.39-.23-.39-.59,0-.82Z"/><path class="cls-71" d="m47.63,87.47c.39-.23,1.03-.23,1.42,0,.39.23.39.59,0,.82-.39.23-1.03.23-1.42,0-.39-.23-.39-.59,0-.82Z"/><path class="cls-71" d="m82.37,79.29c.39-.23,1.03-.23,1.42,0,.39.23.39.59,0,.82-.39.23-1.03.23-1.42,0-.39-.23-.39-.59,0-.82Z"/></g><path class="cls-7" d="m96.78,53.37c-7.97,0-14.42-7.37-14.42-16.46s6.46-16.46,14.42-16.46,14.42,7.37,14.42,16.46-6.46,16.46-14.42,16.46Z"/><path class="cls-64" d="m82.36,36.91c0-8.41,5.52-15.34,12.66-16.33-.58-.08-1.17-.13-1.77-.13-7.97,0-14.42,7.37-14.42,16.46s6.46,16.46,14.42,16.46c.6,0,1.18-.05,1.77-.13-7.13-1-12.66-7.92-12.66-16.33"/><g class="cls-75"><path class="cls-65" d="m82.35,37.5h-3.53c.01.39.03.79.07,1.18h3.53c-.04-.39-.06-.78-.07-1.18"/><path class="cls-63" d="m82.49,34.56h-3.53c-.05.39-.08.78-.11,1.18h3.53c.03-.39.06-.79.11-1.18"/><path class="cls-69" d="m82.68,40.44h-3.53c.08.39.16.79.27,1.18h3.53c-.1-.39-.19-.78-.27-1.18Z"/><path class="cls-70" d="m83.5,43.38h-3.53c.15.4.32.8.49,1.18h3.53c-.17-.38-.34-.78-.49-1.18Z"/><path class="cls-68" d="m83.1,31.62h-3.53c-.12.39-.22.78-.31,1.18h3.53c.09-.39.19-.79.3-1.18Z"/><path class="cls-66" d="m84.28,28.68h-3.53c-.19.38-.38.78-.54,1.18h3.53c.17-.4.35-.8.54-1.18Z"/><path class="cls-67" d="m86.68,25.16h-3.53c-.34.37-.65.76-.96,1.18h3.53c.3-.41.62-.8.96-1.18Z"/><path class="cls-25" d="m90.28,22.22h-3.54c-.6.35-1.18.74-1.73,1.18h3.53c.55-.43,1.13-.83,1.73-1.18"/><path class="cls-23" d="m85.31,46.91h-3.53c.27.41.56.8.87,1.18h3.53c-.3-.37-.6-.77-.87-1.18Z"/><path class="cls-24" d="m84.32,49.84c.47.43.97.82,1.49,1.18h3.54c-.52-.36-1.02-.75-1.5-1.18h-3.53Z"/></g><path class="cls-5" d="m97.34,50.03c6.43,0,11.65-5.87,11.65-13.11s-5.22-13.11-11.65-13.11-11.65,5.87-11.65,13.11,5.22,13.11,11.65,13.11Z"/><path class="cls-6" d="m97.43,48.87c5.84,0,10.58-5.33,10.58-11.91s-4.74-11.91-10.58-11.91-10.59,5.33-10.59,11.91,4.74,11.91,10.59,11.91Z"/><path class="cls-29" d="m68.13,22.42c-2.11,1.82-5.5,1.34-7.59-1.07-2.08-2.4-2.06-5.83.05-7.65,2.11-1.82,5.5-1.34,7.59,1.07,2.08,2.4,2.06,5.83-.05,7.65Z"/><path class="cls-27" d="m68.18,14.77c1.92,2.22,2.05,5.32.39,7.21.17-.11.34-.23.5-.37,2.11-1.82,2.13-5.24.05-7.65-2.08-2.4-5.48-2.88-7.59-1.07-.16.14-.3.28-.44.44,2.12-1.36,5.17-.79,7.09,1.43"/><g class="cls-75"><path class="cls-26" d="m68.32,14.93c.09.11.17.22.25.33l.94-.81c-.08-.11-.16-.22-.25-.33l-.93.81"/><path class="cls-32" d="m67.61,14.18c.1.09.2.19.3.28l.93-.81c-.1-.1-.19-.19-.3-.28l-.93.81Z"/><path class="cls-28" d="m68.9,15.78c.07.12.14.25.2.37l.93-.81c-.06-.12-.13-.25-.2-.37l-.93.81"/><path class="cls-34" d="m69.36,16.75c.05.14.1.28.14.42l.93-.81c-.04-.14-.08-.28-.14-.43l-.94.81"/><path class="cls-31" d="m66.77,13.55c.12.08.23.16.35.24l.94-.81c-.12-.08-.23-.16-.35-.24l-.93.81"/><path class="cls-33" d="m65.79,13.04c.14.06.28.12.41.19l.94-.81c-.14-.07-.27-.13-.41-.19l-.93.81"/><path class="cls-30" d="m64.34,12.65c.17.02.35.05.52.09l.94-.81c-.17-.04-.35-.07-.52-.09l-.94.81Z"/><path class="cls-36" d="m62.72,12.7c.24-.05.48-.07.73-.08l.94-.81c-.25.01-.49.04-.73.08l-.94.81Z"/><path class="cls-22" d="m69.68,18.09c.02.17.03.34.04.51l.94-.81c0-.17-.02-.34-.04-.51l-.93.81"/><path class="cls-37" d="m69.69,19.45c-.03.22-.07.44-.13.65l.94-.81c.06-.21.1-.43.12-.65l-.93.81Z"/></g><path class="cls-35" d="m67.38,21.59c-.08.07-.21.06-.28-.03-.07-.08-.06-.22.03-.3.1-.08.19-.17.27-.27.08-.08.21-.09.29-.01.08.08.09.21.01.29-.1.1-.2.21-.31.3h-.01m-1.05.63s-.04.03-.06.04c-.14.05-.27.09-.41.12-.11.03-.22-.04-.25-.15-.03-.11.04-.22.15-.25.12-.03.25-.06.37-.11.1-.04.23.01.27.12.03.08,0,.17-.06.23m2.01-1.94c-.06.05-.14.06-.21.03-.1-.05-.16-.16-.11-.26.05-.12.09-.24.12-.36.03-.11.14-.17.25-.14.11.03.17.14.14.25-.04.14-.08.27-.14.41-.01.03-.03.06-.06.08m-3.61,2.15s-.09.05-.15.05c-.14-.01-.28-.03-.43-.05-.11-.02-.19-.13-.17-.24.02-.11.13-.19.24-.17.13.02.26.04.38.05.11,0,.2.11.19.22,0,.06-.03.1-.07.14m3.9-3.74s-.08.05-.13.05c-.12,0-.21-.08-.21-.2,0-.13-.01-.26-.03-.39-.01-.11.06-.21.18-.23.11-.01.21.06.23.18.02.14.03.28.03.43,0,.06-.03.12-.07.16m-5.46,3.32c-.06.05-.15.06-.23.03-.13-.06-.25-.13-.38-.2-.1-.06-.13-.18-.07-.28.06-.1.18-.13.28-.07.11.06.23.13.34.18.1.05.15.17.1.27-.01.03-.03.05-.05.06m5.13-4.9s-.04.03-.06.03c-.1.05-.23,0-.27-.12-.05-.12-.1-.24-.16-.36-.05-.1-.01-.23.09-.28.1-.05.23-.01.28.09.06.12.12.26.17.39.03.08,0,.17-.06.23m-6.45,3.96c-.08.07-.2.06-.28-.01-.1-.1-.19-.19-.28-.3h0c-.08-.1-.07-.23.02-.3.08-.07.22-.06.3.03.08.1.17.19.26.28.08.08.08.21,0,.29,0,0,0,0-.01.01m5.6-5.35c-.08.07-.22.06-.29-.03-.08-.1-.17-.19-.27-.28-.08-.08-.08-.21,0-.29.08-.08.21-.08.29,0,.1.1.19.2.28.3.07.09.06.22-.03.29m-6.56,4.03s-.03.02-.04.03c-.1.05-.23.01-.28-.09-.06-.12-.12-.26-.17-.39-.05-.1,0-.23.12-.27.1-.05.23,0,.27.12.05.12.1.24.16.36.05.08.02.19-.05.25Zm5.32-5.07c-.06.06-.16.06-.24.02-.11-.06-.23-.13-.34-.18-.1-.05-.15-.17-.1-.27.05-.1.17-.15.27-.1.13.06.25.13.38.2.1.06.13.18.07.28-.01.02-.03.04-.05.05m-5.79,3.52s-.06.05-.11.05c-.11.01-.21-.06-.23-.18-.02-.14-.03-.28-.03-.43,0-.12.08-.21.2-.21.12,0,.21.08.21.2,0,.13.01.26.03.39,0,.07-.02.14-.07.18m4.27-4.09s-.1.06-.17.05c-.13-.02-.26-.04-.38-.05-.12,0-.2-.11-.19-.22,0-.11.11-.2.22-.19.14.01.28.03.43.05.11.02.19.12.17.24,0,.05-.03.09-.07.12m-4.14,2.48c-.05.05-.12.06-.19.05-.11-.03-.17-.15-.14-.25.04-.14.09-.28.14-.41.05-.1.16-.16.27-.11.1.05.16.16.11.27-.05.12-.09.24-.13.36-.01.04-.03.07-.06.1m2.52-2.43s-.05.04-.08.05c-.12.03-.25.07-.37.11-.1.04-.23-.01-.27-.12-.04-.1.01-.23.12-.27.14-.05.27-.09.41-.12.11-.03.22.04.25.15.02.08,0,.16-.06.21Zm-1.74,1.02c-.08.06-.19.06-.27,0-.08-.08-.09-.21-.01-.29.1-.1.19-.2.3-.29h0c.08-.08.21-.06.28.02.07.08.06.22-.03.29-.1.08-.19.17-.27.26,0,0-.01.01-.02.02"/><path class="cls-21" d="m114.63,14.77c-3.19-2.68-3.29-7.8-.23-11.43,3.06-3.64,8.13-4.42,11.32-1.75,3.19,2.68,3.29,7.8.23,11.43-3.06,3.64-8.13,4.42-11.32,1.75Z"/><path class="cls-12" d="m125.95,13.03c-2.83,3.37-7.38,4.29-10.57,2.29.21.23.43.45.67.65,3.19,2.68,8.26,1.89,11.32-1.75,3.06-3.64,2.96-8.76-.23-11.43-.24-.2-.49-.38-.75-.54,2.53,2.79,2.4,7.43-.43,10.79Z"/><g class="cls-75"><path class="cls-14" d="m125.75,13.25c-.14.16-.28.3-.43.45l1.42,1.19c.14-.14.29-.29.43-.45l-1.41-1.18"/><path class="cls-15" d="m126.69,12.03c-.11.17-.23.34-.36.5l1.42,1.18c.12-.17.24-.34.35-.51l-1.41-1.18"/><path class="cls-13" d="m124.63,14.33c-.16.14-.33.26-.51.38l1.42,1.18c.17-.12.34-.25.51-.38l-1.42-1.19"/><path class="cls-11" d="m123.31,15.23c-.19.11-.4.21-.6.3l1.42,1.19c.2-.1.4-.19.6-.3l-1.42-1.19Z"/><path class="cls-18" d="m127.43,10.65c-.08.19-.18.38-.27.58l1.42,1.19c.1-.19.19-.38.27-.58l-1.41-1.18"/><path class="cls-20" d="m127.95,9.08c-.05.22-.11.43-.18.65l1.42,1.19c.07-.22.13-.43.18-.65l-1.42-1.19Z"/><path class="cls-16" d="m128.18,6.86c0,.27,0,.52-.01.8l1.42,1.19c.02-.26.02-.53.01-.79l-1.42-1.19"/><path class="cls-19" d="m127.72,4.48c.12.34.23.69.3,1.05l1.42,1.19c-.07-.36-.18-.71-.3-1.05l-1.42-1.19Z"/><path class="cls-10" d="m121.4,16.03c-.25.07-.49.13-.74.18l1.42,1.19c.25-.05.5-.11.74-.18l-1.42-1.19Z"/><path class="cls-17" d="m119.39,16.36c-.34.01-.67,0-1-.03l1.42,1.19c.33.03.66.04.99.03l-1.41-1.18Z"/></g><path class="cls-46" d="m115.7,13.46c-.13-.11-.14-.3-.03-.43s.31-.14.45-.03c.15.12.3.24.46.34.14.1.18.28.09.43-.09.14-.29.18-.43.09-.18-.12-.36-.25-.52-.39l-.02-.02m-1.16-1.4s-.05-.05-.07-.08c-.1-.19-.2-.38-.29-.58-.06-.16,0-.34.16-.4s.34,0,.4.16c.07.17.16.35.25.52.08.15.03.34-.12.42-.12.06-.25.05-.35-.03m3.34,2.5c-.08-.07-.13-.19-.1-.3.04-.17.2-.27.37-.23.19.05.38.08.57.1.17.02.29.17.27.34-.02.17-.18.29-.34.27-.21-.03-.43-.06-.63-.11-.04-.01-.09-.03-.13-.06Zm-4.04-4.82c-.06-.05-.1-.12-.11-.21-.02-.21-.03-.43-.02-.64,0-.17.14-.3.31-.3s.3.14.3.31c0,.19,0,.39.02.58.01.17-.11.32-.29.33-.08,0-.16-.02-.22-.07m6.46,4.85c-.05-.05-.09-.1-.1-.18-.03-.17.08-.33.25-.36.19-.03.38-.08.56-.14.16-.05.34.05.38.21.05.16-.04.34-.21.38-.21.06-.42.11-.62.15-.1.02-.19,0-.25-.06Zm-6.2-7.27c-.09-.08-.14-.2-.1-.32.06-.2.13-.41.21-.6.06-.16.24-.23.4-.17.15.06.23.24.17.4-.07.18-.14.37-.19.55-.05.16-.22.26-.38.21-.04-.01-.08-.03-.11-.06m8.47,6.39s-.04-.05-.07-.08c-.09-.14-.04-.34.1-.42.17-.1.33-.21.49-.32.14-.1.33-.07.43.07.1.14.07.33-.07.43-.17.12-.35.24-.53.35-.12.07-.26.05-.36-.03Zm-7.39-8.57c-.12-.1-.15-.28-.05-.41.12-.16.25-.33.38-.48h.01c.11-.14.3-.16.43-.05.13.11.14.31.03.44-.12.14-.24.3-.35.45-.1.14-.29.17-.43.07,0,0-.01-.01-.02-.01Zm9.25,6.99c-.13-.11-.14-.3-.03-.43.12-.15.24-.3.36-.46.1-.14.29-.17.43-.07.14.1.17.29.07.43-.12.17-.25.34-.38.5-.11.14-.3.15-.43.04m-7.53-8.71s-.04-.03-.05-.06c-.1-.14-.07-.33.07-.43.17-.12.35-.24.53-.35.15-.09.34-.04.42.1s.04.34-.1.42c-.17.1-.33.21-.49.32-.12.08-.27.08-.38-.01m8.77,6.63c-.1-.08-.14-.22-.09-.35.07-.18.14-.37.19-.55.04-.16.22-.26.38-.21.16.05.26.22.21.38-.06.2-.13.41-.21.6-.07.16-.24.24-.4.17-.03-.01-.06-.03-.08-.05m-6.59-7.69s-.08-.09-.1-.15c-.05-.16.04-.34.21-.38.21-.06.41-.11.62-.15.17-.03.33.08.36.25.03.17-.08.33-.25.36-.19.03-.38.08-.56.14-.1.03-.21,0-.28-.06Zm7.06,5.31c-.07-.06-.11-.14-.11-.24,0-.19,0-.39-.02-.58-.01-.17.11-.32.28-.33.17-.01.32.11.33.28.02.21.03.43.02.64,0,.17-.14.3-.31.3-.07,0-.14-.03-.19-.07m-4.64-5.51c-.08-.06-.12-.17-.11-.27.02-.17.18-.29.34-.27.21.03.43.06.63.11.17.04.26.21.23.37-.04.17-.21.27-.37.23-.19-.05-.38-.08-.57-.1-.06,0-.12-.03-.16-.07m4.19,3.13s-.07-.07-.08-.12c-.08-.17-.16-.35-.25-.52-.08-.15-.03-.34.12-.42.15-.08.34-.03.42.12.1.19.2.38.29.58.06.16,0,.34-.16.4-.11.05-.23.03-.32-.05m-1.92-2.31c-.12-.1-.15-.27-.06-.41.09-.14.29-.18.43-.09.18.12.34.24.51.37h.01c.13.12.14.31.03.44-.11.13-.31.14-.44.03-.14-.12-.29-.23-.45-.34-.01,0-.02-.01-.03-.02"/><path class="cls-47" d="m92.2,134.44l-47.99-27.58c-2.14-1.24-2.19-7.72-1.33-9.92l45-23.29c2.48-1.43,6.26-1.58,8.4-.35l49.08,24.96c1.8,2.84.79,9.58-1.69,11l-43.07,24.83c-2.48,1.43-6.26,1.58-8.4.35h0Z"/><path class="cls-44" d="m92.2,127.31l-47.99-27.58c-2.14-1.24-1.87-3.41.6-4.84l43.07-24.83c2.48-1.43,6.26-1.58,8.4-.35l47.99,27.58c2.14,1.23,1.87,3.41-.6,4.84l-43.07,24.83c-2.48,1.43-6.26,1.58-8.4.35Z"/><path class="cls-45" d="m92.12,124.12l-42.37-24.34c-2.14-1.24-1.87-3.41.6-4.84l37.59-21.67c2.48-1.43,6.26-1.58,8.4-.35l42.37,24.34c2.14,1.23,1.87,3.41-.6,4.84l-37.6,21.67c-2.48,1.43-6.26,1.58-8.4.35Z"/><path class="cls-40" d="m92.51,114.99l-35.98-20.68c-1.61-.92-1.64-3.13-.99-4.78l33.74-17.46c1.86-1.07,4.69-1.19,6.3-.26l36.79,18.71c1.35,2.13.59,4.52-1.27,5.6l-32.29,18.62c-1.86,1.07-4.69,1.19-6.3.26Z"/><path class="cls-38" d="m92.51,112.29l-35.98-20.67c-1.61-.92-1.4-2.56.45-3.63l32.29-18.62c1.86-1.07,4.69-1.19,6.3-.26l35.98,20.67c1.61.92,1.4,2.56-.45,3.63l-32.29,18.62c-1.86,1.07-4.69,1.19-6.3.26Z"/><path class="cls-39" d="m92.46,109.9l-31.77-18.25c-1.61-.92-1.4-2.56.45-3.63l28.18-16.24c1.86-1.07,4.69-1.19,6.3-.26l31.77,18.25c1.61.92,1.4,2.56-.45,3.63l-28.18,16.24c-1.86,1.07-4.69,1.19-6.3.26Z"/><path class="cls-43" d="m92.44,104.24l-33.7-19.37c-1.51-.87-1.54-2.94-.93-4.48l31.61-16.36c1.74-1,4.4-1.11,5.9-.25l34.47,17.53c1.26,2,.55,4.24-1.18,5.24l-30.25,17.44c-1.74,1-4.4,1.11-5.9.25Z"/><path class="cls-41" d="m92.44,101.71l-33.7-19.37c-1.51-.87-1.31-2.4.42-3.4l30.25-17.44c1.74-1,4.4-1.11,5.9-.25l33.7,19.37c1.51.87,1.32,2.4-.42,3.4l-30.25,17.44c-1.74,1-4.4,1.11-5.9.24Z"/><path class="cls-42" d="m92.39,99.46l-29.76-17.1c-1.51-.87-1.31-2.4.42-3.4l26.4-15.22c1.74-1,4.4-1.11,5.9-.25l29.76,17.1c1.51.87,1.32,2.4-.42,3.4l-26.4,15.22c-1.74,1-4.4,1.11-5.9.24Z"/><path class="cls-55" d="m92.53,94.47l-31.65-18.19c-1.41-.81-1.45-2.76-.87-4.21l29.68-15.36c1.63-.94,4.13-1.05,5.54-.23l32.37,16.46c1.19,1.87.52,3.98-1.11,4.93l-28.41,16.38c-1.63.94-4.13,1.05-5.54.23h0Z"/><path class="cls-53" d="m92.53,92.1l-31.65-18.19c-1.41-.81-1.24-2.26.4-3.19l28.41-16.38c1.63-.94,4.13-1.05,5.54-.23l31.65,18.19c1.42.81,1.24,2.26-.4,3.19l-28.41,16.38c-1.63.94-4.13,1.05-5.54.23Z"/><path class="cls-54" d="m92.49,89.99l-27.95-16.06c-1.41-.81-1.24-2.26.39-3.19l24.8-14.29c1.63-.94,4.13-1.05,5.54-.23l27.95,16.06c1.42.81,1.24,2.26-.39,3.19l-24.8,14.29c-1.63.94-4.13,1.05-5.54.23Z"/><path class="cls-52" d="m93.52,83.51l-18.48-10.62c-.83-.48-.85-4.47-.51-5.31l17.33-8.97c.95-.55,2.41-.61,3.24-.14l18.9,9.61c.69,1.09.3,5.18-.65,5.73l-16.59,9.57c-.95.55-2.41.61-3.24.14h0Z"/><path class="cls-56" d="m93.52,79.28l-18.48-10.62c-.83-.48-.72-1.32.23-1.87l16.59-9.57c.95-.55,2.41-.61,3.24-.14l18.48,10.62c.83.48.72,1.32-.23,1.87l-16.59,9.57c-.95.55-2.41.61-3.24.14Z"/><path class="cls-72" d="m93.5,78.05l-16.32-9.37c-.83-.48-.72-1.32.23-1.87l14.48-8.34c.95-.55,2.41-.61,3.24-.14l16.32,9.37c.83.48.72,1.32-.23,1.87l-14.48,8.34c-.95.55-2.41.61-3.24.14Z"/><g class="cls-75"><path class="cls-73" d="m119.73,37.8h-.14s-.08.03-.08.08v.14s.03.08.08.08h.14s.08-.03.08-.08v-.14s-.04-.08-.08-.08Z"/><path class="cls-73" d="m118.28,57.91h-.14s-.08.03-.08.08v.14s.04.08.08.08h.14s.08-.03.08-.08v-.14s-.03-.08-.08-.08Z"/><path class="cls-73" d="m109.07,53.55h-.14s-.08.03-.08.08v.14s.04.08.08.08h.14s.08-.03.08-.08v-.14s-.03-.08-.08-.08Z"/><path class="cls-73" d="m102.88,54.97h-.14s-.08.03-.08.08v.14s.03.08.08.08h.14s.08-.03.08-.08v-.14s-.04-.08-.08-.08Z"/><path class="cls-73" d="m99.68,48.89l-.12-.05s-.06-.06-.04-.1l.05-.12s.06-.06.1-.04l.12.05s.06.06.04.1l-.05.12s-.06.06-.1.04Z"/><path class="cls-73" d="m94.8,61.05l-.12-.05s-.06-.06-.04-.1l.05-.12s.07-.06.1-.04l.12.05s.06.06.04.1l-.05.12s-.07.06-.1.04Z"/><path class="cls-73" d="m87.33,43.53l-.12-.05s-.06-.06-.04-.1l.05-.12s.06-.06.1-.04l.12.05s.06.06.04.1l-.05.12s-.06.06-.1.04Z"/><path class="cls-73" d="m74.83,49.06l-.12-.05s-.06-.06-.04-.1l.05-.12s.06-.06.1-.04l.12.05s.06.06.04.1l-.05.12s-.06.06-.1.04Z"/><path class="cls-73" d="m80.97,67.32l-.12-.05s-.06-.06-.04-.1l.05-.12s.06-.06.1-.04l.12.05s.06.06.04.1l-.05.12s-.06.06-.1.04Z"/><path class="cls-73" d="m83.41,54.59l-.12-.05s-.09,0-.1.04l-.05.12s0,.08.04.1l.12.05s.09,0,.1-.04l.05-.12s0-.08-.04-.1Z"/><path class="cls-73" d="m74.83,39.8l-.12-.05s-.06-.06-.04-.1l.05-.12s.06-.06.1-.04l.12.05s.06.06.04.1l-.05.12s-.06.06-.1.04Z"/><path class="cls-73" d="m64.93,51.96l-.12-.05s-.06-.06-.04-.1l.05-.12s.06-.06.1-.04l.12.05s.06.06.04.1l-.05.12s-.06.06-.1.04Z"/><path class="cls-73" d="m64.93,42.71l-.12-.05s-.06-.06-.04-.1l.05-.12s.06-.06.1-.04l.12.05s.06.06.04.1l-.05.12s-.06.06-.1.04Z"/><path class="cls-73" d="m125.9,48.89l-.12-.05s-.06-.06-.04-.1l.05-.12s.06-.06.1-.04l.12.05s.06.06.04.1l-.05.12s-.06.06-.1.04Z"/><path class="cls-73" d="m126.81,42.48l-.12-.05s-.08,0-.1.04l-.05.12s0,.09.04.1l.12.05s.08,0,.1-.04l.05-.12s0-.08-.04-.1Z"/><path class="cls-73" d="m114.65,51.19l-.12-.05s-.08,0-.1.04l-.05.12s0,.08.04.1l.12.05s.09,0,.1-.04l.05-.12s0-.08-.04-.1Z"/><path class="cls-73" d="m109.42,40.7l-.12-.05s-.06-.06-.04-.1l.05-.12s.07-.06.1-.04l.12.05s.06.06.04.1l-.05.12s-.07.06-.1.04Z"/><path class="cls-73" d="m95.92,71.78h-.14s-.08.03-.08.08v.14s.03.08.08.08h.14s.08-.03.08-.08v-.14s-.04-.08-.08-.08Z"/><path class="cls-73" d="m111.38,62.06l-.12-.05s-.06-.06-.04-.1l.05-.12s.06-.06.1-.04l.12.05s.06.06.04.1l-.05.12s-.07.06-.1.04Z"/><path class="cls-73" d="m75.13,57.08l-.12-.05s-.06-.06-.04-.1l.05-.12s.06-.06.1-.04l.12.05s.06.06.04.1l-.05.12s-.06.06-.1.04Z"/><path class="cls-73" d="m101.98,67.99l-.12-.05s-.08,0-.1.04l-.05.12s0,.08.04.1l.12.05s.09,0,.1-.04l.05-.12s0-.08-.04-.1Z"/><path class="cls-73" d="m105.03,44.92l-.12-.05s-.06-.06-.04-.1l.05-.12s.07-.06.1-.04l.12.05s.06.06.04.1l-.05.12s-.07.06-.1.04Z"/></g><g class="cls-75"><path class="cls-73" d="m102.02,4.36h-.14s-.08.03-.08.08v.14s.03.08.08.08h.14s.08-.03.08-.08v-.14s-.04-.08-.08-.08Z"/><path class="cls-73" d="m100.57,24.47h-.14s-.08.03-.08.08v.14s.04.08.08.08h.14s.08-.03.08-.08v-.14s-.03-.08-.08-.08Z"/><path class="cls-73" d="m91.95,14.36h-.14s-.08.03-.08.08v.14s.03.08.08.08h.14s.08-.03.08-.08v-.14s-.03-.08-.08-.08Z"/><path class="cls-73" d="m85.16,21.53h-.14s-.08.03-.08.08v.14s.03.08.08.08h.14s.08-.03.08-.08v-.14s-.03-.08-.08-.08Z"/><path class="cls-73" d="m79.46,9.28l-.12-.05s-.06-.06-.04-.1l.05-.12s.06-.06.1-.04l.12.05s.06.06.04.1l-.05.12s-.06.06-.1.04Z"/><path class="cls-73" d="m77.19,27.36l-.12-.05s-.09,0-.1.04l-.05.12s0,.09.04.1l.12.05s.09,0,.1-.04l.05-.12s0-.08-.04-.1Z"/><path class="cls-73" d="m69.72,9.83l-.12-.05s-.09,0-.1.04l-.05.12s0,.09.04.1l.12.05s.09,0,.1-.04l.05-.12s0-.08-.04-.1Z"/><path class="cls-73" d="m63.25,33.89l-.12-.05s-.06-.06-.04-.1l.05-.12s.06-.06.1-.04l.12.05s.06.06.04.1l-.05.12s-.06.06-.1.04Z"/><path class="cls-73" d="m65.59,21.43l-.12-.05s-.06-.06-.04-.1l.05-.12s.06-.06.1-.04l.12.05s.06.06.04.1l-.05.12s-.06.06-.1.04Z"/><path class="cls-73" d="m108.18,15.46l-.12-.05s-.06-.06-.04-.1l.05-.12s.07-.06.1-.04l.12.05s.06.06.04.1l-.05.12s-.06.06-.1.04Z"/><path class="cls-73" d="m113.72,27.88l-.12-.05s-.06-.06-.04-.1l.05-.12s.07-.06.1-.04l.12.05s.06.06.04.1l-.05.12s-.06.06-.1.04Z"/><path class="cls-73" d="m126.74,26.72l-.12-.05s-.06-.06-.04-.1l.05-.12s.06-.06.1-.04l.12.05s.06.06.04.1l-.05.12s-.07.06-.1.04Z"/><path class="cls-73" d="m135.34,22.88l-.12-.05s-.06-.06-.04-.1l.05-.12s.07-.06.1-.04l.12.05s.06.06.04.1l-.05.12s-.07.06-.1.04Z"/><path class="cls-73" d="m78.21,38.35h-.14s-.08.03-.08.08v.14s.03.08.08.08h.14s.08-.03.08-.08v-.14s-.03-.08-.08-.08Z"/><path class="cls-73" d="m93.78,28.36l-.12-.05s-.08,0-.1.04l-.05.12s0,.09.04.1l.12.05s.08,0,.1-.04l.05-.12s0-.09-.04-.1Z"/><path class="cls-73" d="m57.53,23.38l-.12-.05s-.09,0-.1.04l-.05.12s0,.08.04.1l.12.05s.09,0,.1-.04l.05-.12s0-.09-.04-.1Z"/><path class="cls-73" d="m84.15,34.84l-.12-.05s-.06-.06-.04-.1l.05-.12s.06-.06.1-.04l.12.05s.06.06.04.1l-.05.12s-.06.06-.1.04Z"/><path class="cls-73" d="m99.46,12.43l-.12-.05s-.06-.06-.04-.1l.05-.12s.07-.06.1-.04l.12.05s.06.06.04.1l-.05.12s-.06.06-.1.04Z"/></g><path class="cls-9" d="m36.91,53.27L4.53,71.93v-29.31l32.38-18.67v29.31Z"/><g class="cls-74"><path class="cls-1" d="m6.03,54.28l28.9-16.66"/><path class="cls-1" d="m6.03,47.9l28.9-16.66"/><path class="cls-1" d="m6.03,60.67l28.9-16.66"/><path class="cls-1" d="m6.03,67.06l28.9-16.66"/></g><path class="cls-51" d="m31.88,52.16l1-.58v-18.3l-1,.57v18.31Z"/><path class="cls-49" d="m28.86,53.9l1-.57v-12.8l-1,.58v12.8Z"/><path class="cls-50" d="m25.84,55.63l.99-.57v-20.88l-.99.58v20.88Z"/><path class="cls-48" d="m22.83,57.38l.99-.58v-7.25l-.99.57v7.25Z"/><path class="cls-57" d="m19.8,59.12l1-.58v-10.88l-1,.58v10.88Z"/><path class="cls-58" d="m16.79,60.86l1-.58v-17.34l-1,.57v17.34Z"/><path class="cls-59" d="m13.77,62.59l1-.58v-8.26l-1,.58v8.26Z"/><path class="cls-60" d="m10.75,64.33l1-.58v-8.94l-1,.58v8.94Z"/><path class="cls-61" d="m7.73,66.07l1-.58v-12.07l-1,.58v12.07Z"/><path class="cls-8" d="m151.45,54.19l32.38,18.67v-29.31l-32.38-18.67v29.31Z"/><g class="cls-74"><path class="cls-1" d="m182.34,55.23l-28.9-16.66"/><path class="cls-1" d="m182.34,48.83l-28.9-16.66"/><path class="cls-1" d="m182.34,61.61l-28.9-16.66"/><path class="cls-1" d="m182.34,67.99l-28.9-16.66"/></g><path class="cls-62" d="m156.72,37.65c1.43.82,1.88,8.62,3.68,9.62,1.81,1.01,1.02-6.48,2.45-5.58,1.77,1.12.86,10.81,3.25,12.25,2.39,1.44,3.15-11.72,5.72-10.35,2.56,1.36,1.85,10.52,3.7,11.59,1.85,1.07,1.74-1.82,3.02-1.08,1.15.66,2.3,5.44,2.75,7.67l-.21,5.86-28.21-16.26.73-5.26c1-4.71,2.04-9.06,3.13-8.44h0Z"/><path class="cls-73" d="m98.3,30.15c2.23,1.51,3.71,2.56,4.43,3.14.62.5.58,5.46.62,6.45.05,1.43-.34,2.14-1.71,2.14-2.57,0-5.14,0-7.72,0-.87,0-1.38-.85-1.42-1.76-.09-2.05-.17-4.1-.26-6.15,0-.26.16-.53.5-.8,2.03-1.6,3.44-2.65,4.22-3.15.4-.25.84-.21,1.33.13Zm3.74,3.9l-4.13-2.87c-.1-.07-.21-.1-.32-.11-.11,0-.22.03-.31.09-1.07.71-2.15,1.48-3.24,2.32-.54.42-.86.56-.83,1.25.07,1.84.15,3.67.25,5.51.02.47.31.71.75.71,2.58,0,5.1,0,7.57,0,.08,0,.16-.02.24-.05.07-.03.14-.08.2-.14.06-.06.1-.13.13-.22.03-.08.04-.17.04-.25-.08-2.01-.16-4.02-.25-6.04,0-.04,0-.07-.02-.11-.01-.03-.04-.06-.07-.09Z"/><path class="cls-73" d="m99.01,35.4l-.37-.3s-.04-.04-.05-.07c-.01-.03-.02-.05-.02-.08,0-.03,0-.06.01-.08,0-.03.02-.05.04-.07l.41-.41s.03-.03.05-.04.04-.01.06-.01.04,0,.06.01c.02,0,.04.02.05.04l1.35,1.27c.07.07.13.16.15.26.03.1.02.21,0,.3-.03.1-.09.18-.17.24-.08.06-.17.09-.27.09h-5.39s-.07-.01-.1-.03c-.03-.02-.06-.05-.07-.09-.06-.11-.09-.22-.09-.34,0-.12.01-.24.05-.34.01-.04.04-.08.08-.1.03-.02.08-.04.12-.03h4.03s.04,0,.06-.02c.02-.01.03-.03.04-.06,0-.02,0-.05,0-.07,0-.02-.02-.04-.04-.06Z"/><path class="cls-73" d="m96.52,38.13l.22.22s.03.03.04.05c0,.02.02.04.02.06,0,.02,0,.04-.01.06-.01.02-.02.04-.04.05l-.36.36s-.09.06-.14.06c-.05,0-.1-.02-.14-.06-.43-.38-.84-.77-1.24-1.18-.06-.06-.1-.13-.11-.21-.12-.58.26-.7.72-.7,1.68.02,3.33.04,4.97.08.04,0,.08.01.12.03.04.02.07.04.1.07.03.03.05.07.07.11.02.04.02.08.03.13,0,.39-.11.59-.35.6-1.21.04-2.48.05-3.81.06-.18,0-.2.07-.07.2Z"/><path class="cls-73" d="m120.93,5c.98.74,1.62,1.26,1.93,1.55.26.25-.18,2.69-.25,3.18-.1.7-.36,1.06-1.03,1.06-1.28,0-2.56,0-3.84,0-.43,0-.61-.42-.55-.87.13-1.01.27-2.02.4-3.03.02-.13.12-.26.32-.39,1.15-.79,1.94-1.31,2.37-1.55.22-.12.44-.1.65.06Zm1.52,1.92l-1.8-1.42s-.09-.05-.15-.05c-.05,0-.11.01-.16.04-.6.35-1.2.73-1.81,1.14-.31.21-.47.28-.52.62-.12.91-.24,1.81-.35,2.72-.03.23.09.35.31.35,1.28,0,2.54,0,3.76,0,.04,0,.08,0,.12-.02.04-.02.08-.04.11-.07.03-.03.06-.07.08-.11.02-.04.04-.08.04-.13.13-.99.26-1.98.4-2.98,0-.02,0-.04,0-.05,0-.02-.01-.03-.03-.04Z"/><path class="cls-73" d="m120.83,7.59l-.16-.15s-.02-.02-.02-.03c0-.01,0-.03,0-.04,0-.01,0-.03.01-.04,0-.01.02-.02.03-.03l.24-.2s.02-.02.03-.02c0,0,.02,0,.03,0s.02,0,.03,0c0,0,.02.01.02.02l.56.63s.05.08.05.13c0,.05,0,.1-.03.15-.02.05-.06.09-.1.12-.04.03-.09.04-.14.04h-2.68s-.04,0-.05-.02c-.01-.01-.02-.03-.03-.04-.02-.05-.02-.11-.02-.17,0-.06.03-.12.06-.17.01-.02.03-.04.05-.05.02-.01.04-.02.06-.02h2s.02,0,.03-.01c.01,0,.02-.02.02-.03,0-.01,0-.02,0-.03,0-.01,0-.02-.01-.03Z"/><path class="cls-73" d="m119.36,8.94l.09.11s.01.01.02.02c0,0,0,.02,0,.03,0,.01,0,.02-.01.03,0,0-.01.02-.02.02l-.21.18s-.05.03-.07.03c-.03,0-.05,0-.07-.03-.18-.19-.35-.38-.51-.58-.02-.03-.04-.06-.04-.1-.01-.28.19-.35.42-.34.83,0,1.65.02,2.46.04.02,0,.04,0,.06.01.02,0,.03.02.04.04.01.02.02.03.02.05,0,.02,0,.04,0,.06-.03.19-.1.29-.22.29-.61.02-1.24.03-1.9.03-.09,0-.11.03-.05.1Z"/><path class="cls-73" d="m64.16,16.01c.83.46,1.39.78,1.66.96.24.16.52,1.77.59,2.09.1.46.01.7-.44.72-.86.03-1.71.07-2.57.1-.29.01-.51-.26-.58-.55-.15-.67-.3-1.33-.45-2-.02-.09.02-.17.12-.27.58-.55.99-.91,1.21-1.08.12-.09.27-.08.45.02Zm1.48,1.22l-1.54-.88s-.07-.03-.11-.03c-.04,0-.07.01-.1.03-.31.24-.63.51-.94.8-.16.14-.25.19-.2.42.13.6.27,1.19.41,1.79.04.15.15.23.29.22.86-.03,1.7-.07,2.52-.1.03,0,.05,0,.08-.02.02-.01.04-.03.06-.05.01-.02.02-.05.03-.07,0-.03,0-.05,0-.08-.15-.65-.3-1.31-.44-1.96,0-.01,0-.02-.01-.04,0-.01-.02-.02-.03-.03Z"/><path class="cls-73" d="m64.71,17.71l-.14-.09s-.02-.01-.02-.02c0,0-.01-.02-.01-.03,0,0,0-.02,0-.03,0,0,0-.02.01-.02l.11-.14s0-.01.01-.01c0,0,.01,0,.02,0,0,0,.01,0,.02,0,0,0,.01,0,.02.01l.53.4s.05.05.07.08c.01.03.02.07.02.1,0,.03-.02.06-.04.08-.02.02-.05.03-.08.03l-1.79.07s-.02,0-.04,0c-.01,0-.02-.02-.03-.03-.02-.03-.04-.07-.05-.11,0-.04-.01-.08,0-.11,0-.01,0-.03.02-.03.01,0,.02-.01.04-.01l1.34-.05s.01,0,.02,0c0,0,0-.01,0-.02,0,0,0-.02,0-.02,0,0,0-.01-.02-.02Z"/><path class="cls-73" d="m64.04,18.63l.09.07s.01,0,.02.02c0,0,0,.01,0,.02,0,0,0,.01,0,.02,0,0,0,.01-.01.02l-.1.12s-.03.02-.04.02c-.02,0-.04,0-.05-.02-.16-.12-.33-.24-.48-.37-.02-.02-.04-.04-.05-.07-.08-.19.05-.23.2-.24.56-.02,1.11-.03,1.66-.04.01,0,.03,0,.04,0,.01,0,.03.01.04.02.01,0,.02.02.03.03,0,.01.01.03.02.04.03.13,0,.19-.08.2-.4.03-.82.05-1.26.07-.06,0-.06.02-.01.07Z"/></g></svg>