<svg width="70" height="70" viewBox="0 0 70 70" fill="none" xmlns="http://www.w3.org/2000/svg">
<circle cx="35" cy="34.9998" r="35" fill="url(#paint0_linear_279_2)"/>
<path d="M36.8321 22.5839C41.9782 25.8978 45.3792 28.1958 47.0351 29.478C48.4584 30.5801 47.8891 41.4586 47.8779 43.6298C47.8612 46.76 46.8509 48.3361 43.608 48.3361C37.5018 48.3324 31.3957 48.3343 25.2895 48.3416C23.2355 48.3416 22.0912 46.4734 22.0857 44.473C22.0782 39.9725 22.0782 35.4738 22.0857 30.9769C22.0857 30.4001 22.508 29.8141 23.3527 29.219C28.3388 25.7067 31.7826 23.4032 33.6841 22.3084C34.6478 21.7609 35.6972 21.8528 36.8321 22.5839ZM45.3383 31.1367L35.8218 24.8323C35.6024 24.6873 35.3455 24.6072 35.0816 24.6013C34.8176 24.5955 34.5574 24.6641 34.3315 24.7993C31.7119 26.3533 29.0682 28.0507 26.4002 29.8913C25.0662 30.8116 24.3127 31.1202 24.3015 32.6302C24.2866 36.6605 24.2997 40.6907 24.3406 44.721C24.3518 45.757 25.0104 46.2695 26.0597 46.2695C32.1808 46.2732 38.1735 46.2714 44.0378 46.264C44.2317 46.2644 44.4237 46.227 44.603 46.1541C44.7822 46.0812 44.9452 45.9741 45.0825 45.8391C45.2199 45.704 45.3289 45.5435 45.4035 45.3668C45.478 45.1901 45.5166 45.0006 45.5169 44.8092C45.5244 40.4005 45.5262 35.9863 45.5225 31.5666C45.5315 31.4854 45.5194 31.4032 45.4871 31.328C45.4549 31.2527 45.4036 31.1869 45.3383 31.1367Z" fill="white"/>
<path d="M38.0154 34.1041L37.1781 33.4373C37.1281 33.3978 37.0872 33.3481 37.0583 33.2916C37.0294 33.2351 37.0132 33.1732 37.0107 33.1099C37.0084 33.0472 37.0202 32.9847 37.0452 32.927C37.0701 32.8693 37.1077 32.8177 37.1552 32.776L38.1711 31.8777C38.2049 31.8397 38.2465 31.8092 38.2932 31.7883C38.3399 31.7674 38.3905 31.7566 38.4418 31.7566C38.493 31.7566 38.5437 31.7674 38.5904 31.7883C38.6371 31.8092 38.6787 31.8397 38.7125 31.8777L41.8047 34.6662C41.9738 34.8194 42.0923 35.0194 42.1447 35.2401C42.197 35.4608 42.1809 35.6919 42.0982 35.9034C42.0157 36.1146 41.8701 36.296 41.6807 36.4234C41.4912 36.5509 41.267 36.6185 41.0378 36.6171L28.2477 36.6115C28.1617 36.6117 28.0775 36.5873 28.0053 36.5414C27.933 36.4954 27.8757 36.4298 27.8402 36.3525C27.7213 36.1211 27.6566 35.8663 27.6508 35.6068C27.645 35.3474 27.6983 35.09 27.8067 34.8536C27.8447 34.7614 27.9107 34.6832 27.9958 34.6299C28.0808 34.5766 28.1806 34.5507 28.2812 34.556H37.8535C37.9069 34.5564 37.9592 34.5404 38.0029 34.5101C38.0467 34.4798 38.0798 34.4368 38.0976 34.387C38.1154 34.3373 38.1171 34.2833 38.1023 34.2326C38.0876 34.1819 38.0572 34.1369 38.0154 34.1041Z" fill="white"/>
<path d="M31.8205 40.1093L32.3117 40.5997C32.3515 40.6279 32.3837 40.6652 32.4056 40.7084C32.4275 40.7517 32.4384 40.7995 32.4373 40.8479C32.4362 40.8962 32.4231 40.9435 32.3993 40.9858C32.3755 41.028 32.3416 41.0638 32.3005 41.0902L31.4187 41.8838C31.3276 41.9643 31.2099 42.0094 31.0876 42.0104C30.9653 42.0114 30.8469 41.9683 30.7545 41.8893C29.7795 41.059 28.8363 40.1974 27.9246 39.3047C27.7961 39.1793 27.7103 39.0175 27.679 38.8418C27.4446 37.5743 28.3767 37.3042 29.4484 37.3153C33.4299 37.352 37.3555 37.4108 41.2254 37.4916C41.3219 37.4937 41.417 37.5147 41.5053 37.5534C41.5935 37.592 41.6732 37.6475 41.7396 37.7166C41.806 37.7858 41.8579 37.8673 41.8923 37.9563C41.9266 38.0454 41.9428 38.1403 41.9398 38.2356C41.9175 39.0916 41.6217 39.5269 41.0524 39.5416C38.1686 39.6188 35.1527 39.661 32.0047 39.6684C31.5805 39.6684 31.5191 39.8154 31.8205 40.1093Z" fill="white"/>
<defs>
<linearGradient id="paint0_linear_279_2" x1="35" y1="-0.000244141" x2="35" y2="69.9998" gradientUnits="userSpaceOnUse">
<stop stop-color="#0C15F9"/>
<stop offset="1" stop-color="#13174A"/>
</linearGradient>
</defs>
</svg>
