<svg width="22" height="34" viewBox="0 0 22 34" fill="none" xmlns="http://www.w3.org/2000/svg">
<path d="M20.75 18.1016V23.6516C20.75 28.3316 16.385 32.1266 11 32.1266C5.615 32.1266 1.25 28.3316 1.25 23.6516V18.1016C1.25 22.7816 5.615 26.1266 11 26.1266C16.385 26.1266 20.75 22.7816 20.75 18.1016Z" stroke="#2966FF" stroke-width="2.5" stroke-linecap="round" stroke-linejoin="round"/>
<path d="M20.7501 10.6086C20.7552 11.9156 20.3968 13.1984 19.7151 14.3136C18.7485 15.7142 17.4413 16.8456 15.9166 17.6014C14.3919 18.3572 12.7 18.7124 11.0001 18.6336C9.30015 18.7124 7.60817 18.3572 6.08348 17.6014C4.55879 16.8456 3.2516 15.7142 2.28505 14.3136C1.60327 13.1984 1.24493 11.9156 1.25005 10.6086C1.2659 9.46454 1.52878 8.33745 2.02068 7.30445C2.51258 6.27146 3.22189 5.35696 4.10005 4.62356C6.02404 2.9878 8.47488 2.10337 11.0001 2.13356C13.5223 2.10525 15.9709 2.98354 17.9001 4.60856C18.7773 5.34602 19.4858 6.26343 19.9775 7.29864C20.4693 8.33384 20.7327 9.46264 20.7501 10.6086Z" stroke="#2966FF" stroke-width="2.5" stroke-linecap="round" stroke-linejoin="round"/>
<path d="M20.75 10.6085V18.1085C20.75 22.7885 16.385 26.1335 11 26.1335C5.615 26.1335 1.25 22.7885 1.25 18.1085V10.6085C1.25 5.92848 5.615 2.13348 11 2.13348C13.5222 2.10517 15.9708 2.98346 17.9 4.60848C18.7773 5.34594 19.4858 6.26335 19.9775 7.29855C20.4692 8.33375 20.7327 9.46256 20.75 10.6085Z" stroke="#2966FF" stroke-width="2.5" stroke-linecap="round" stroke-linejoin="round"/>
</svg>
