<svg width="27" height="40" viewBox="0 0 27 40" fill="none" xmlns="http://www.w3.org/2000/svg">
<path d="M11.8622 38.4815L11.2536 37.9032C11.0997 37.757 10.9088 37.655 10.7012 37.6081C10.4936 37.5612 10.2771 37.5712 10.0747 37.6369L9.27626 37.8946C8.69609 38.0829 8.06511 38.041 7.51534 37.7775C6.96557 37.514 6.53959 37.0493 6.32652 36.4808L6.03289 35.7036C5.95772 35.5052 5.82997 35.3307 5.66318 35.1986C5.49638 35.0665 5.29676 34.9817 5.08544 34.9532L4.2533 34.8401C3.64903 34.7589 3.09968 34.4488 2.71988 33.9746C2.34008 33.5004 2.15918 32.8986 2.21494 32.295L2.29023 31.4678C2.30975 31.2564 2.27118 31.0438 2.17864 30.8525C2.0861 30.6613 1.94307 30.4985 1.76479 30.3818L1.06421 29.9205C0.555139 29.5871 0.195188 29.0712 0.0594208 28.4804C-0.0763465 27.8896 0.0225519 27.2695 0.335492 26.7494L0.764639 26.0305C0.874709 25.8493 0.932884 25.6416 0.932884 25.4298C0.932884 25.2181 0.874709 25.0104 0.764639 24.8291L0.335492 24.1118C0.0225624 23.592 -0.0763327 22.9722 0.0594506 22.3817C0.195234 21.7912 0.555201 21.2757 1.06421 20.9427L1.76321 20.4814C1.9413 20.365 2.08435 20.2028 2.17715 20.0121C2.26994 19.8214 2.30902 19.6092 2.29023 19.3981L2.21494 18.5642C2.16025 17.9606 2.34182 17.3593 2.72187 16.8855C3.10192 16.4116 3.65117 16.1017 4.25528 16.0203L5.08742 15.9084C5.29825 15.8805 5.49748 15.7962 5.66376 15.6643C5.83003 15.5325 5.95709 15.3581 6.03131 15.16L6.32731 14.3781C6.5414 13.8104 6.96771 13.3468 7.51731 13.0841C8.0669 12.8213 8.69732 12.7797 9.27705 12.9678L10.0755 13.2255C10.2783 13.2908 10.4951 13.3003 10.7029 13.2532C10.9107 13.206 11.1018 13.1039 11.256 12.9576L11.8622 12.3829C12.1897 12.0695 12.6015 11.8571 13.0478 11.7715V10.7867H9.09993L9.08368 10.7836H7.64091C7.48295 10.7836 7.33146 10.7212 7.21977 10.6102C7.10808 10.4991 7.04533 10.3485 7.04533 10.1915C7.04533 10.0345 7.10808 9.88389 7.21977 9.77286C7.33146 9.66182 7.48295 9.59945 7.64091 9.59945H7.86321L1.03013 1.092C0.960311 1.00493 0.91666 0.900022 0.904211 0.789362C0.891761 0.678701 0.91102 0.566796 0.959767 0.466543C1.00851 0.366291 1.08476 0.281771 1.17973 0.222726C1.2747 0.16368 1.38452 0.132513 1.49653 0.132815H8.56221C8.65129 0.132787 8.73925 0.152669 8.81957 0.190988C8.89989 0.229308 8.97051 0.285085 9.02622 0.354196L13.498 5.92577L17.9694 0.354196C18.0251 0.285085 18.0957 0.229308 18.176 0.190988C18.2563 0.152669 18.3443 0.132787 18.4334 0.132815H25.5026C25.6144 0.132958 25.7239 0.164449 25.8186 0.22367C25.9132 0.282891 25.9891 0.367441 26.0375 0.467609C26.086 0.567777 26.105 0.679501 26.0925 0.78995C26.08 0.900398 26.0363 1.00509 25.9667 1.092L19.1344 9.60063H19.644C19.8019 9.60063 19.9534 9.663 20.0651 9.77404C20.1768 9.88507 20.2395 10.0357 20.2395 10.1927C20.2395 10.3497 20.1768 10.5003 20.0651 10.6113C19.9534 10.7224 19.8019 10.7847 19.644 10.7847H17.9107L17.8949 10.7879H14.237V11.8554C14.5735 11.9612 14.8812 12.1419 15.1369 12.3837L15.7428 12.9584C15.897 13.1047 16.0881 13.2068 16.2959 13.254C16.5037 13.3011 16.7205 13.2915 16.9233 13.2262L17.7201 12.9686C18.2996 12.7803 18.9299 12.8218 19.4792 13.0846C20.0285 13.3474 20.4544 13.8112 20.6679 14.3788L20.9655 15.1608C21.0399 15.3592 21.1672 15.5337 21.3339 15.6656C21.5005 15.7974 21.7002 15.8817 21.9113 15.9092L22.7435 16.0211C23.3477 16.1024 23.897 16.4123 24.2771 16.8861C24.6573 17.36 24.8389 17.9614 24.7842 18.565L24.7085 19.3989C24.6901 19.6095 24.7292 19.8212 24.8218 20.0115C24.9143 20.2019 25.0569 20.3638 25.2344 20.4802L25.9365 20.9431C26.4456 21.276 26.8055 21.7917 26.9409 22.3824C27.0764 22.973 26.9769 23.5928 26.6633 24.1122L26.2321 24.8291C26.1221 25.0104 26.0639 25.2181 26.0639 25.4298C26.0639 25.6416 26.1221 25.8493 26.2321 26.0305L26.6613 26.7494C26.9751 27.2693 27.0745 27.8897 26.9387 28.4807C26.8029 29.0718 26.4424 29.5877 25.9326 29.9205L25.2332 30.3818C25.0548 30.4983 24.9116 30.6607 24.8187 30.8518C24.7258 31.0428 24.6868 31.2553 24.7058 31.4666L24.7814 32.2938C24.8367 32.8976 24.6553 33.4993 24.2751 33.9733C23.8948 34.4473 23.3451 34.757 22.7407 34.8378L21.9086 34.9508C21.6976 34.979 21.4983 35.0635 21.3317 35.1953C21.1652 35.3271 21.0377 35.5012 20.9627 35.6993L20.6651 36.4808C20.4522 37.049 20.0265 37.5133 19.4771 37.7765C18.9276 38.0397 18.2971 38.0815 17.7174 37.893L16.9205 37.6354C16.7179 37.5695 16.5011 37.5594 16.2932 37.6063C16.0854 37.6532 15.8942 37.7553 15.74 37.9016L15.1369 38.4815C14.6958 38.8996 14.1097 39.1328 13.5002 39.1328C12.8907 39.1328 12.3046 38.8996 11.8634 38.4815H11.8622ZM5.05215 25.4318C5.05231 27.0925 5.54785 28.7159 6.47611 30.0966C7.40437 31.4774 8.72365 32.5535 10.2671 33.1889C11.8106 33.8243 13.509 33.9904 15.1474 33.6663C16.7859 33.3421 18.2909 32.5423 19.472 31.3678C20.6532 30.1934 21.4575 28.6972 21.7833 27.0684C22.109 25.4395 21.9416 23.7512 21.3022 22.217C20.6627 20.6827 19.58 19.3714 18.1908 18.4489C16.8017 17.5264 15.1686 17.0341 13.498 17.0342C11.2585 17.0366 9.11141 17.9222 7.52799 19.4966C5.94456 21.0709 5.05414 23.2055 5.05215 25.4318ZM9.53264 31.0329C9.44235 30.9681 9.37218 30.8794 9.33015 30.7769C9.28811 30.6743 9.27589 30.5621 9.29489 30.4531L9.93207 26.7569L7.22959 24.1417C7.15119 24.0641 7.09584 23.9664 7.06962 23.8595C7.04341 23.7527 7.04734 23.6407 7.08099 23.5359C7.11541 23.4307 7.17882 23.3373 7.264 23.2662C7.34918 23.1951 7.45272 23.1492 7.56284 23.1337L11.2932 22.5936L12.9642 19.2299C13.0187 19.1377 13.0965 19.0612 13.1899 19.0081C13.2833 18.9549 13.389 18.927 13.4966 18.927C13.6042 18.927 13.7099 18.9549 13.8033 19.0081C13.8967 19.0612 13.9745 19.1377 14.029 19.2299L15.698 22.5936L19.4304 23.1337C19.5403 23.1493 19.6436 23.1952 19.7286 23.2662C19.8136 23.3371 19.877 23.4304 19.9114 23.5353C19.9458 23.6402 19.95 23.7527 19.9235 23.8598C19.897 23.967 19.8408 24.0647 19.7612 24.1417L17.0623 26.7617L17.6964 30.4542C17.7151 30.5629 17.7029 30.6745 17.6612 30.7766C17.6194 30.8787 17.5498 30.9671 17.4601 31.032C17.3705 31.0968 17.2644 31.1354 17.1538 31.1434C17.0433 31.1515 16.9327 31.1286 16.8345 31.0774L13.4964 29.3328L10.1564 31.0774C10.0584 31.1288 9.94798 31.152 9.83749 31.1444C9.72701 31.1367 9.62087 31.0985 9.53106 31.0341L9.53264 31.0329Z" fill="#2966FF"/>
</svg>
