<svg width="31" height="32" viewBox="0 0 31 32" fill="none" xmlns="http://www.w3.org/2000/svg">
<path d="M17.2952 0.868036C23.3285 4.75319 27.3158 7.44738 29.2571 8.95061C30.9258 10.2428 30.2583 22.9966 30.2452 25.5422C30.2256 29.212 29.0412 31.0598 25.2393 31.0598C18.0804 31.0555 10.9215 31.0576 3.76266 31.0663C1.35456 31.0663 0.0130875 28.876 0.00654376 26.5307C-0.00218125 21.2543 -0.00218125 15.9801 0.00654376 10.708C0.00654376 10.0317 0.501688 9.34473 1.49198 8.64695C7.33773 4.52921 11.3752 1.82856 13.6045 0.544992C14.7344 -0.0967906 15.9646 0.010891 17.2952 0.868036ZM27.2678 10.8953L16.1107 3.50408C15.8534 3.33408 15.5524 3.24013 15.2429 3.23326C14.9334 3.22639 14.6283 3.3069 14.3635 3.46532C11.2923 5.28729 8.19278 7.27724 5.06487 9.43518C3.50091 10.5142 2.6175 10.876 2.60441 12.6462C2.58696 17.3713 2.60223 22.0964 2.65022 26.8214C2.66331 28.0361 3.43547 28.637 4.6657 28.637C11.842 28.6413 18.8678 28.6391 25.7431 28.6305C25.9704 28.6309 26.1956 28.5871 26.4057 28.5016C26.6159 28.4162 26.807 28.2906 26.968 28.1323C27.129 27.9739 27.2569 27.7857 27.3442 27.5785C27.4316 27.3714 27.4768 27.1492 27.4772 26.9248C27.486 21.7561 27.4881 16.5809 27.4838 11.3993C27.4944 11.3041 27.4801 11.2078 27.4423 11.1195C27.4045 11.0313 27.3444 10.9541 27.2678 10.8953Z" fill="#2966FF"/>
<path d="M18.6831 14.385L17.7015 13.6033C17.6428 13.5569 17.5949 13.4987 17.561 13.4325C17.5272 13.3663 17.5081 13.2936 17.5052 13.2195C17.5025 13.1459 17.5163 13.0727 17.5456 13.005C17.5749 12.9373 17.619 12.8769 17.6747 12.8279L18.8656 11.7748C18.9053 11.7302 18.9541 11.6945 19.0088 11.67C19.0635 11.6455 19.1229 11.6328 19.183 11.6328C19.2431 11.6328 19.3025 11.6455 19.3572 11.67C19.412 11.6945 19.4608 11.7302 19.5004 11.7748L23.1256 15.044C23.324 15.2237 23.4629 15.4581 23.5243 15.7169C23.5857 15.9756 23.5667 16.2466 23.4698 16.4945C23.3731 16.7421 23.2024 16.9548 22.9803 17.1042C22.7582 17.2537 22.4953 17.3328 22.2265 17.3312L7.2315 17.3247C7.13072 17.3249 7.03204 17.2963 6.9473 17.2424C6.86257 17.1886 6.79538 17.1117 6.75381 17.0211C6.61443 16.7497 6.53855 16.451 6.53175 16.1468C6.52496 15.8426 6.58742 15.5408 6.71455 15.2637C6.75901 15.1557 6.83648 15.064 6.93617 15.0015C7.03587 14.9389 7.15282 14.9087 7.27077 14.9148H18.4933C18.556 14.9153 18.6172 14.8965 18.6685 14.861C18.7198 14.8255 18.7586 14.775 18.7795 14.7167C18.8004 14.6584 18.8023 14.5951 18.785 14.5356C18.7678 14.4762 18.7321 14.4235 18.6831 14.385Z" fill="#2966FF"/>
<path d="M11.4177 21.401L11.9936 21.9761C12.0402 22.0091 12.078 22.0528 12.1037 22.1035C12.1294 22.1542 12.1421 22.2103 12.1408 22.267C12.1395 22.3236 12.1242 22.3791 12.0963 22.4286C12.0684 22.4782 12.0286 22.5202 11.9805 22.5511L10.9466 23.4815C10.8398 23.5759 10.7018 23.6287 10.5585 23.6299C10.4151 23.6311 10.2762 23.5806 10.1679 23.4879C9.0249 22.5145 7.919 21.5044 6.85019 20.4578C6.6995 20.3107 6.59888 20.1211 6.56226 19.915C6.28743 18.429 7.38023 18.1125 8.63664 18.1254C13.3045 18.1684 17.907 18.2374 22.444 18.3321C22.5571 18.3346 22.6686 18.3592 22.7721 18.4045C22.8756 18.4498 22.9689 18.5149 23.0468 18.5959C23.1247 18.677 23.1855 18.7725 23.2258 18.877C23.2661 18.9814 23.2851 19.0927 23.2816 19.2043C23.2554 20.2079 22.9086 20.7183 22.2411 20.7356C18.8602 20.826 15.3244 20.8756 11.6337 20.8842C11.1364 20.8842 11.0644 21.0565 11.4177 21.401Z" fill="#2966FF"/>
</svg>
