<svg width="36" height="38" viewBox="0 0 36 38" fill="none" xmlns="http://www.w3.org/2000/svg">
<rect x="1.25" y="21.8828" width="5.64988" height="14.0087" rx="2.82494" stroke="#2966FF" stroke-width="2.5"/>
<path d="M14.3834 24.4948L13.6161 24.5767L16.8063 21.7698C17.0171 21.5844 17.3397 21.6115 17.5165 21.8295C17.6906 22.0441 17.6549 22.3598 17.4373 22.5301L15.5091 24.0385C15.1839 24.2928 14.7939 24.4509 14.3834 24.4948Z" stroke="#2966FF" stroke-width="2.5"/>
<path d="M16.6924 34.6774H11.3226C9.04318 34.6774 7.19531 32.8296 7.19531 30.5501C7.19531 28.2706 9.04318 26.4228 11.3226 26.4228H20.3538C21.178 26.4228 22.003 26.2928 22.7515 25.9475C26.225 24.3454 27.4795 22.1251 30.7943 20.4213C33.7504 18.9018 33.952 22.5721 31.3824 24.6802L21.1322 33.0893C19.8805 34.1162 18.3115 34.6774 16.6924 34.6774Z" stroke="#2966FF" stroke-width="2.5"/>
<path d="M14.2399 0.488406C17.1579 2.36747 19.0864 3.67053 20.0253 4.39757C20.8324 5.02254 20.5096 11.191 20.5032 12.4221C20.4937 14.1971 19.9209 15.0908 18.0821 15.0908C14.6197 15.0887 11.1572 15.0897 7.69482 15.0939C6.53014 15.0939 5.88133 14.0346 5.87816 12.9003C5.87395 10.3483 5.87395 7.79739 5.87816 5.24753C5.87816 4.92046 6.11764 4.58819 6.5966 4.25071C9.42392 2.25915 11.3767 0.952965 12.4549 0.332164C13.0013 0.0217641 13.5963 0.0738447 14.2399 0.488406ZM19.0632 5.33815L13.667 1.76334C13.5426 1.68112 13.397 1.63568 13.2473 1.63236C13.0976 1.62903 12.95 1.66797 12.822 1.74459C11.3366 2.62579 9.83747 3.58824 8.32464 4.63194C7.56823 5.15378 7.14096 5.32878 7.13463 6.18498C7.1262 8.47028 7.13358 10.7556 7.15679 13.0409C7.16312 13.6283 7.53658 13.9189 8.13158 13.9189C11.6024 13.921 15.0005 13.92 18.3258 13.9158C18.4357 13.916 18.5446 13.8949 18.6462 13.8535C18.7479 13.8122 18.8403 13.7514 18.9182 13.6748C18.996 13.5982 19.0579 13.5072 19.1001 13.407C19.1424 13.3068 19.1643 13.1994 19.1645 13.0909C19.1687 10.591 19.1697 8.088 19.1676 5.58189C19.1728 5.53584 19.1658 5.48926 19.1476 5.44659C19.1293 5.40392 19.1002 5.36659 19.0632 5.33815Z" fill="#2966FF"/>
<path d="M14.9105 7.02643L14.4357 6.64832C14.4074 6.62592 14.3842 6.59775 14.3678 6.56573C14.3514 6.5337 14.3422 6.49856 14.3408 6.46271C14.3395 6.42713 14.3462 6.39171 14.3603 6.35898C14.3745 6.32625 14.3958 6.29701 14.4228 6.27334L14.9988 5.76399C15.0179 5.74242 15.0415 5.72513 15.068 5.71328C15.0945 5.70144 15.1232 5.69531 15.1523 5.69531C15.1813 5.69531 15.2101 5.70144 15.2365 5.71328C15.263 5.72513 15.2866 5.74242 15.3058 5.76399L17.0591 7.34516C17.1551 7.43205 17.2222 7.54545 17.2519 7.67058C17.2816 7.79571 17.2725 7.92678 17.2256 8.04669C17.1788 8.16643 17.0962 8.26929 16.9888 8.34157C16.8814 8.41386 16.7543 8.45215 16.6243 8.45135L9.37188 8.44823C9.32314 8.4483 9.27541 8.43448 9.23443 8.40843C9.19345 8.38238 9.16095 8.3452 9.14084 8.30136C9.07343 8.17013 9.03673 8.02562 9.03345 7.87852C9.03016 7.73141 9.06037 7.58545 9.12185 7.45141C9.14336 7.39916 9.18083 7.35482 9.22905 7.32458C9.27726 7.29434 9.33383 7.27968 9.39087 7.28266H14.8187C14.849 7.2829 14.8786 7.2738 14.9034 7.25663C14.9282 7.23945 14.947 7.21506 14.9571 7.18685C14.9672 7.15865 14.9682 7.12803 14.9598 7.09927C14.9514 7.07052 14.9342 7.04505 14.9105 7.02643Z" fill="#2966FF"/>
<path d="M11.3983 10.4204L11.6768 10.6985C11.6994 10.7145 11.7177 10.7356 11.7301 10.7602C11.7425 10.7847 11.7487 10.8118 11.748 10.8392C11.7474 10.8666 11.74 10.8935 11.7265 10.9174C11.713 10.9414 11.6938 10.9617 11.6705 10.9766L11.1705 11.4266C11.1188 11.4723 11.0521 11.4978 10.9827 11.4984C10.9134 11.499 10.8462 11.4746 10.7938 11.4297C10.241 10.9589 9.70616 10.4704 9.18922 9.96418C9.11634 9.89308 9.06767 9.80134 9.04997 9.7017C8.91704 8.98299 9.44558 8.82987 10.0532 8.83612C12.3109 8.85695 14.5369 8.89028 16.7312 8.93611C16.7859 8.93733 16.8399 8.94922 16.8899 8.97112C16.94 8.99302 16.9851 9.02449 17.0228 9.06371C17.0604 9.10293 17.0899 9.14912 17.1093 9.19963C17.1288 9.25013 17.138 9.30395 17.1363 9.35797C17.1237 9.84336 16.9559 10.0902 16.6331 10.0986C14.9979 10.1423 13.2878 10.1663 11.5028 10.1704C11.2622 10.1704 11.2274 10.2538 11.3983 10.4204Z" fill="#2966FF"/>
</svg>
