<svg width="40" height="53" viewBox="0 0 40 53" fill="none" xmlns="http://www.w3.org/2000/svg">
<path d="M3.27351 27.8797L3.85526 26.7733L3.27351 27.8797C1.63457 27.0179 1.68012 24.6558 3.35104 23.8579L19.9955 15.9092C20.6349 15.6038 21.3809 15.6175 22.0087 15.9462L37.0784 23.8357C38.6995 24.6844 38.6835 27.0103 37.0509 27.8366L20.8338 36.0443C20.184 36.3732 19.4152 36.3672 18.7706 36.0283L3.27351 27.8797Z" stroke="#2966FF" stroke-width="2.5"/>
<path d="M19.35 36.8578L8.38319 30.7807C7.69039 30.3968 6.84677 30.4054 6.16199 30.8034L3.1417 32.5589C1.57585 33.469 1.67216 35.7618 3.3088 36.5374L18.8906 43.9214C19.4901 44.2055 20.1844 44.2106 20.7879 43.9353L36.9504 36.5629C38.6395 35.7924 38.7213 33.4231 37.0894 32.5379L33.7889 30.7478M19.35 36.8578L33.7889 30.7478M19.35 36.8578L31.7146 30.7109C32.3708 30.3847 33.1447 30.3984 33.7889 30.7478M19.35 36.8578L33.7889 30.7478" stroke="#2966FF" stroke-width="2.5"/>
<path d="M21.3962 9.3395C21.054 9.1603 20.6472 9.15283 20.2986 9.31933L2.12799 17.9969C1.21695 18.4319 1.19212 19.7198 2.08572 20.1897L18.9888 29.0776C19.3403 29.2624 19.7594 29.2656 20.1137 29.0863L37.8178 20.126C38.7079 19.6754 38.7167 18.4073 37.8328 17.9446L21.3962 9.3395Z" fill="#2966FF"/>
</svg>
