<svg width="38" height="39" viewBox="0 0 38 39" fill="none" xmlns="http://www.w3.org/2000/svg">
<path d="M19.0002 34.9594H26.9169C27.9731 35.0231 29.0309 34.862 30.0203 34.4867C31.0096 34.1114 31.9081 33.5305 32.6564 32.7822C33.4046 32.034 33.9856 31.1355 34.3609 30.1461C34.7362 29.1567 34.8973 28.099 34.8335 27.0427V19.126C34.9446 17.2071 34.3177 15.3183 33.0814 13.8465C31.8451 12.3747 30.0929 11.4312 28.1835 11.2094H11.0835C10.6552 11.1837 10.2257 11.2374 9.81687 11.3677C7.91029 11.525 6.14268 12.4279 4.89767 13.8804C3.65267 15.3329 3.03074 17.2178 3.16687 19.126V20.7094" stroke="#2966FF" stroke-width="2.5" stroke-linecap="round" stroke-linejoin="round"/>
<path d="M28.1831 11.2227H11.0831C10.6547 11.197 10.2253 11.2507 9.81641 11.381C10.0265 10.8885 10.3524 10.4539 10.7664 10.1144L15.8331 4.88938C16.349 4.36277 16.9649 3.9444 17.6446 3.6588C18.3243 3.37319 19.0541 3.22607 19.7914 3.22607C20.5287 3.22607 21.2585 3.37319 21.9382 3.6588C22.6179 3.9444 23.2338 4.36277 23.7497 4.88938L26.5997 7.73938C27.5006 8.69186 28.0578 9.91772 28.1831 11.2227Z" stroke="#2966FF" stroke-width="2.5" stroke-linecap="round" stroke-linejoin="round"/>
<path d="M34.8346 19.9214H30.0846C29.2448 19.9214 28.4393 20.255 27.8455 20.8489C27.2516 21.4427 26.918 22.2482 26.918 23.0881C26.918 23.9279 27.2516 24.7334 27.8455 25.3272C28.4393 25.9211 29.2448 26.2547 30.0846 26.2547H34.8346" stroke="#2966FF" stroke-width="2.5" stroke-linecap="round" stroke-linejoin="round"/>
<path d="M8.55859 23.5082C9.58477 23.4982 10.6026 23.693 11.5526 24.0811C12.5026 24.4693 13.3656 25.0429 14.0913 25.7686C14.8169 26.4942 15.3907 27.3573 15.7788 28.3073C16.1669 29.2573 16.3617 30.2752 16.3518 31.3014" stroke="#2966FF" stroke-width="2.5" stroke-linecap="round"/>
<path d="M6.50586 29.4216C7.00104 29.4167 7.49218 29.5107 7.95061 29.6979C8.40904 29.8852 8.82554 30.162 9.1757 30.5121C9.52587 30.8623 9.80263 31.2788 9.98989 31.7372C10.1771 32.1956 10.2711 32.6868 10.2663 33.182" stroke="#2966FF" stroke-width="2.5" stroke-linecap="round"/>
</svg>
