<svg width="50" height="50" viewBox="0 0 50 50" fill="none" xmlns="http://www.w3.org/2000/svg">
<path d="M47.3041 19.8852L44.8015 17.3871C44.4964 17.083 44.2544 16.7215 44.0896 16.3234C43.9248 15.9254 43.8404 15.4986 43.8412 15.0678V12.1412C43.8394 10.3606 43.1315 8.6535 41.8726 7.39423C40.6138 6.13496 38.9069 5.42641 37.1263 5.42398H34.1997C33.3315 5.42165 32.4991 5.07749 31.8827 4.46601L29.3823 1.96338C28.1218 0.706075 26.4141 0 24.6338 0C22.8534 0 21.1457 0.706075 19.8852 1.96338L17.3871 4.46601C16.77 5.07805 15.937 5.42294 15.0678 5.42627H12.1389C10.3584 5.4287 8.65145 6.13726 7.39261 7.39652C6.13377 8.65579 5.4258 10.3629 5.42398 12.1435V15.0678C5.42511 15.4985 5.34105 15.9251 5.17664 16.3232C5.01224 16.7212 4.77072 17.0828 4.46601 17.3871L1.96338 19.8852C0.706075 21.1457 0 22.8534 0 24.6338C0 26.4141 0.706075 28.1218 1.96338 29.3823L4.46601 31.8804C4.77114 32.1845 5.01307 32.546 5.17788 32.9441C5.34268 33.3421 5.4271 33.7689 5.42627 34.1997V37.1263C5.42809 38.9069 6.13607 40.614 7.3949 41.8733C8.65374 43.1326 10.3606 43.8411 12.1412 43.8435H15.0678C15.9364 43.8465 16.7688 44.1915 17.3848 44.8038L19.8852 47.3041C21.1454 48.562 22.8532 49.2685 24.6338 49.2685C26.4143 49.2685 28.1221 48.562 29.3823 47.3041L31.8804 44.8038C32.4975 44.1918 33.3305 43.8469 34.1997 43.8435H37.1286C38.9092 43.8411 40.6161 43.1326 41.8749 41.8733C43.1337 40.614 43.8417 38.9069 43.8435 37.1263V34.1997C43.8427 33.7689 43.9271 33.3421 44.0919 32.9441C44.2567 32.546 44.4987 32.1845 44.8038 31.8804L47.3041 29.3823C48.5614 28.1218 49.2675 26.4141 49.2675 24.6338C49.2675 22.8534 48.5614 21.1457 47.3041 19.8852ZM32.7238 21.2602L23.5566 30.4274C23.3973 30.5873 23.2081 30.7142 22.9996 30.8008C22.7912 30.8874 22.5677 30.932 22.342 30.932C22.1163 30.932 21.8928 30.8874 21.6843 30.8008C21.4759 30.7142 21.2866 30.5873 21.1273 30.4274L16.5437 25.8438C16.2401 25.518 16.0748 25.087 16.0827 24.6417C16.0905 24.1964 16.2709 23.7716 16.5859 23.4566C16.9008 23.1417 17.3256 22.9613 17.7709 22.9535C18.2162 22.9456 18.6472 23.1109 18.973 23.4145L22.342 26.7857L30.2945 18.8355C30.6203 18.5319 31.0513 18.3666 31.4966 18.3745C31.9419 18.3823 32.3667 18.5627 32.6817 18.8777C32.9966 19.1926 33.177 19.6174 33.1848 20.0627C33.1927 20.508 33.0274 20.939 32.7238 21.2648V21.2602Z" fill="#3EF66C"/>
</svg>
