<svg width="104" height="92" viewBox="0 0 104 92" fill="none" xmlns="http://www.w3.org/2000/svg">
<g id="Group 57125">
<g id="Screenshot 2023-03-24 at 11.06.43 AM">
<path id="Rectangle 3254" d="M24.9849 0.138947L20.7021 4.40965C20.625 4.48652 20.6248 4.61132 20.7017 4.6884L24.9765 8.97534C25.0534 9.05242 25.1782 9.0526 25.2553 8.97573L29.5381 4.70503C29.6151 4.62816 29.6153 4.50336 29.5385 4.42628L25.2636 0.139341C25.1868 0.0622577 25.062 0.062081 24.9849 0.138947Z" fill="#B3C9FF"/>
<path id="Rectangle 3255" d="M102.562 18.0939L100.539 16.0925C100.465 16.0188 100.345 16.0194 100.271 16.0939L98.2617 18.1242C98.1879 18.1987 98.1886 18.3189 98.2631 18.3926L100.286 20.394C100.36 20.4678 100.48 20.4671 100.554 20.3926L102.563 18.3624C102.637 18.2878 102.636 18.1676 102.562 18.0939Z" fill="#B3C9FF"/>
<path id="Rectangle 3256" d="M3.2322 45.8405L0.24911 48.7925C0.11153 48.9287 0.110368 49.1506 0.246515 49.2882L3.17439 52.2469C3.31053 52.3844 3.53243 52.3856 3.67001 52.2495L6.6531 49.2975C6.79068 49.1613 6.79184 48.9394 6.65569 48.8018L3.72782 45.8431C3.59168 45.7056 3.36978 45.7044 3.2322 45.8405Z" fill="#B3C9FF"/>
<path id="Rectangle 3257" d="M100.282 78.8402L97.1364 81.9773C97.0621 82.0513 97.062 82.1715 97.136 82.2458L100.265 85.3835C100.339 85.4577 100.459 85.4579 100.533 85.3839L103.679 82.2467C103.754 82.1727 103.754 82.0525 103.68 81.9783L100.551 78.8405C100.477 78.7663 100.357 78.7661 100.282 78.8402Z" fill="#B3C9FF"/>
</g>
<g id="Group 57124">
<path id="Ellipse 37" d="M55.3649 91.804C78.2262 91.804 96.7591 73.2712 96.7591 50.4098C96.7591 27.5484 78.2262 9.01562 55.3649 9.01562C32.5035 9.01562 13.9707 27.5484 13.9707 50.4098C13.9707 73.2712 32.5035 91.804 55.3649 91.804Z" fill="#779EFF"/>
<path id="Ellipse 38" d="M55.3656 85.7351C74.8748 85.7351 90.6902 69.9197 90.6902 50.4105C90.6902 30.9013 74.8748 15.0859 55.3656 15.0859C35.8564 15.0859 20.041 30.9013 20.041 50.4105C20.041 69.9197 35.8564 85.7351 55.3656 85.7351Z" fill="#2966FF"/>
<path id="Path 2546" d="M62.6017 52.8526L51.0305 64.6165C50.9755 64.6729 50.9003 64.7052 50.8215 64.7063C50.7426 64.7074 50.6666 64.6772 50.61 64.6223C45.7668 59.8122 41.053 54.969 36.4688 50.0927L41.0401 45.5147C41.0676 45.4864 41.1051 45.4699 41.1445 45.4687C41.1635 45.4681 41.1824 45.4713 41.2001 45.4782C41.2178 45.4851 41.2339 45.4956 41.2475 45.5089L50.6801 54.9444C50.6936 54.9581 50.7098 54.969 50.7276 54.9764C50.7454 54.9838 50.7645 54.9876 50.7837 54.9876C50.803 54.9876 50.8221 54.9838 50.8399 54.9764C50.8577 54.969 50.8738 54.9581 50.8874 54.9444L69.3028 36.1668C69.3161 36.1523 69.3321 36.1406 69.3499 36.1324C69.3678 36.1242 69.3871 36.1197 69.4067 36.1192C69.4264 36.1187 69.4459 36.1221 69.4642 36.1292C69.4825 36.1364 69.4991 36.1472 69.5131 36.161L74.186 40.744C74.2336 40.7917 74.2603 40.8563 74.2603 40.9236C74.2603 40.991 74.2336 41.0556 74.186 41.1033L62.6017 52.8526Z" fill="white"/>
</g>
</g>
</svg>
