<svg width="104" height="92" viewBox="0 0 104 92" fill="none" xmlns="http://www.w3.org/2000/svg">
<g id="Group 57125">
<g id="Screenshot 2023-03-24 at 11.06.43 AM">
<path id="Rectangle 3254" d="M24.9849 0.138947L20.7021 4.40965C20.625 4.48652 20.6248 4.61132 20.7017 4.6884L24.9765 8.97534C25.0534 9.05242 25.1782 9.0526 25.2553 8.97573L29.5381 4.70503C29.6151 4.62816 29.6153 4.50336 29.5385 4.42628L25.2636 0.139341C25.1868 0.0622577 25.062 0.062081 24.9849 0.138947Z" fill="#292D32"/>
<path id="Rectangle 3255" d="M102.562 18.0929L100.539 16.0915C100.465 16.0178 100.345 16.0184 100.271 16.0929L98.2617 18.1232C98.1879 18.1977 98.1886 18.3179 98.2631 18.3916L100.286 20.393C100.36 20.4668 100.48 20.4662 100.554 20.3916L102.563 18.3614C102.637 18.2869 102.636 18.1667 102.562 18.0929Z" fill="#292D32"/>
<path id="Rectangle 3256" d="M3.2322 45.8405L0.24911 48.7925C0.11153 48.9287 0.110368 49.1506 0.246515 49.2882L3.17439 52.2469C3.31053 52.3844 3.53243 52.3856 3.67001 52.2495L6.6531 49.2975C6.79068 49.1613 6.79184 48.9394 6.65569 48.8018L3.72782 45.8431C3.59168 45.7056 3.36978 45.7044 3.2322 45.8405Z" fill="#292D32"/>
<path id="Rectangle 3257" d="M100.282 78.8411L97.1364 81.9783C97.0621 82.0523 97.062 82.1725 97.136 82.2467L100.265 85.3845C100.339 85.4587 100.459 85.4589 100.533 85.3849L103.679 82.2477C103.754 82.1737 103.754 82.0535 103.68 81.9793L100.551 78.8415C100.477 78.7673 100.357 78.7671 100.282 78.8411Z" fill="#292D32"/>
</g>
<g id="Group 57124">
<path id="Ellipse 37" d="M55.3649 91.805C78.2262 91.805 96.7591 73.2721 96.7591 50.4108C96.7591 27.5494 78.2262 9.0166 55.3649 9.0166C32.5035 9.0166 13.9707 27.5494 13.9707 50.4108C13.9707 73.2721 32.5035 91.805 55.3649 91.805Z" fill="#54585C"/>
<path id="Ellipse 38" d="M55.3656 85.7361C74.8748 85.7361 90.6902 69.9207 90.6902 50.4115C90.6902 30.9023 74.8748 15.0869 55.3656 15.0869C35.8564 15.0869 20.041 30.9023 20.041 50.4115C20.041 69.9207 35.8564 85.7361 55.3656 85.7361Z" fill="#292D32"/>
<path id="Path 2546" d="M62.6017 52.8535L51.0305 64.6175C50.9755 64.6739 50.9003 64.7062 50.8215 64.7073C50.7426 64.7084 50.6666 64.6782 50.61 64.6233C45.7668 59.8132 41.053 54.9699 36.4688 50.0936L41.0401 45.5157C41.0676 45.4874 41.1051 45.4709 41.1445 45.4697C41.1635 45.4691 41.1824 45.4723 41.2001 45.4792C41.2178 45.4861 41.2339 45.4965 41.2475 45.5099L50.6801 54.9454C50.6936 54.9591 50.7098 54.9699 50.7276 54.9773C50.7454 54.9848 50.7645 54.9886 50.7837 54.9886C50.803 54.9886 50.8221 54.9848 50.8399 54.9773C50.8577 54.9699 50.8738 54.9591 50.8874 54.9454L69.3028 36.1678C69.3161 36.1533 69.3321 36.1416 69.3499 36.1334C69.3678 36.1252 69.3871 36.1207 69.4067 36.1202C69.4264 36.1196 69.4459 36.123 69.4642 36.1302C69.4825 36.1374 69.4991 36.1482 69.5131 36.162L74.186 40.745C74.2336 40.7927 74.2603 40.8573 74.2603 40.9246C74.2603 40.992 74.2336 41.0566 74.186 41.1042L62.6017 52.8535Z" fill="white"/>
</g>
</g>
</svg>
