<svg width="19" height="18" viewBox="0 0 19 18" fill="none" xmlns="http://www.w3.org/2000/svg">
<g id="Group">
<path id="Vector" fill-rule="evenodd" clip-rule="evenodd" d="M2.3427 8.65272C2.31252 8.68274 2.30027 8.71717 2.30027 8.74648V11.7375C2.30027 12.2593 2.73218 12.6892 3.25659 12.6892H4.44059C4.51874 12.6892 4.57727 12.6309 4.57727 12.5532V8.74648C4.57727 8.6729 4.51382 8.61052 4.44059 8.61052H2.43691C2.40744 8.61052 2.37287 8.62271 2.3427 8.65272ZM0.934082 8.74648C0.934082 7.92689 1.61339 7.25098 2.43691 7.25098H4.44059C5.27818 7.25098 5.94345 7.93178 5.94345 8.74648V12.5532C5.94345 13.3818 5.27326 14.0487 4.44059 14.0487H3.25659C1.97764 14.0487 0.934082 13.0102 0.934082 11.7375V8.74648Z" fill="white"/>
<path id="Vector_2" fill-rule="evenodd" clip-rule="evenodd" d="M9.81498 1.35955C6.66751 1.35955 4.12254 3.89214 4.12254 7.02432V7.93973C4.12254 8.31519 3.81671 8.61951 3.43944 8.61951C3.06218 8.61951 2.75635 8.31519 2.75635 7.93973V7.02432C2.75635 3.14127 5.91293 0 9.81498 0C13.717 0 16.8736 3.14127 16.8736 7.02432V7.93071C16.8736 8.3061 16.5678 8.61048 16.1905 8.61048C15.8133 8.61048 15.5075 8.3061 15.5075 7.93071V7.02432C15.5075 3.89214 12.9625 1.35955 9.81498 1.35955Z" fill="white"/>
<path id="Vector_3" fill-rule="evenodd" clip-rule="evenodd" d="M16.2323 12.7019C16.6022 12.7758 16.8418 13.1342 16.7675 13.5022C16.2857 15.8891 14.1706 17.6827 11.6349 17.6827H10.7241C10.3468 17.6827 10.041 17.3783 10.041 17.0029C10.041 16.6274 10.3468 16.3231 10.7241 16.3231H11.6349C13.5074 16.3231 15.072 14.9987 15.4281 13.2345C15.5024 12.8664 15.8625 12.628 16.2323 12.7019Z" fill="white"/>
<path id="Vector_4" fill-rule="evenodd" clip-rule="evenodd" d="M15.0937 8.65272C15.0635 8.68274 15.0512 8.71717 15.0512 8.74648V12.5532C15.0512 12.6268 15.1147 12.6892 15.1879 12.6892H16.3264C16.8781 12.6892 17.3282 12.2412 17.3282 11.6921V8.74648C17.3282 8.6729 17.2649 8.61052 17.1916 8.61052H15.1879C15.1585 8.61052 15.1239 8.62271 15.0937 8.65272ZM13.6851 8.74648C13.6851 7.92689 14.3644 7.25098 15.1879 7.25098H17.1916C18.0292 7.25098 18.6944 7.93178 18.6944 8.74648V11.6921C18.6944 12.9921 17.6327 14.0487 16.3264 14.0487H15.1879C14.3503 14.0487 13.6851 13.3679 13.6851 12.5532V8.74648Z" fill="white"/>
</g>
</svg>
