<svg width="19" height="17" viewBox="0 0 19 17" fill="none" xmlns="http://www.w3.org/2000/svg">
<path d="M13.8967 17C13.159 17 12.5602 16.4013 12.5602 15.6635L12.5602 5.12138L11.3734 6.30818C10.8495 6.83208 10.0049 6.83208 9.48098 6.30818C8.95708 5.78428 8.95708 4.93962 9.48098 4.41572L12.9451 0.951573C13.469 0.427674 14.3137 0.427674 14.8376 0.951573L18.3017 4.41572C18.8256 4.93962 18.8256 5.78428 18.3017 6.30818C17.7778 6.83208 16.9332 6.83208 16.4093 6.30818L15.2225 5.12138L15.2225 15.6635C15.2332 16.4013 14.6344 17 13.8967 17ZM3.47217 1.33648L3.47217 11.884L2.28538 10.6972C1.76148 10.1733 0.916824 10.1733 0.392925 10.6972C-0.130974 11.2211 -0.130974 12.0657 0.392925 12.5896L3.86242 16.0538C4.38632 16.5777 5.23098 16.5777 5.75487 16.0538L9.22437 12.5896C9.74827 12.0657 9.74827 11.2211 9.22437 10.6972C8.70047 10.1733 7.85582 10.1733 7.33192 10.6972L6.14513 11.884L6.14513 1.33648C6.14513 0.598742 5.54638 5.74723e-07 4.80865 6.0697e-07C4.07091 6.39218e-07 3.47217 0.598742 3.47217 1.33648Z" fill="white"/>
</svg>
