<svg width="13" height="16" viewBox="0 0 13 16" fill="none" xmlns="http://www.w3.org/2000/svg">
<path d="M6.45898 0.479492C6.4661 0.203488 6.78029 0.0584128 6.99316 0.213867L7.03418 0.249023L7.90723 1.12207L9.59082 2.80469C9.65852 2.87409 9.69135 2.96006 9.69141 3.04297C9.69141 3.12794 9.65815 3.21405 9.59082 3.2832L7.03418 5.83984C6.82322 6.04917 6.46595 5.90327 6.45898 5.6084L6.69727 4.375L6.73242 4.19629H3.47363C2.91061 4.19635 2.45428 4.65282 2.4541 5.21582V8.48438C2.4541 9.12425 1.96055 9.6717 1.33691 9.69043C0.684811 9.70962 0.15046 9.18672 0.150391 8.53906V4.17969C0.150399 2.91637 1.17445 1.89258 2.4375 1.89258H6.73242L6.69727 1.71387L6.45898 0.479492Z" fill="#697081" stroke="black" stroke-width="0.3"/>
<path d="M11.3867 5.37695C12.039 5.3575 12.5741 5.88054 12.5742 6.52832V10.8877C12.5742 12.151 11.5501 13.1747 10.2871 13.1748H5.99219L6.02637 13.3535L6.26367 14.5869C6.2573 14.8634 5.94457 15.0087 5.73145 14.8535L5.68945 14.8184L4.81641 13.9453L3.13379 12.2617C3.06617 12.1924 3.03332 12.1072 3.0332 12.0244C3.0332 11.939 3.06567 11.8516 3.13379 11.7822L4.81641 10.1006L5.68945 9.22754C5.90019 9.01803 6.2561 9.16354 6.26367 9.45801L6.02637 10.6924L5.99219 10.8711H9.25C9.81319 10.8711 10.2705 10.4138 10.2705 9.85059V6.58301C10.2705 5.94317 10.7629 5.39547 11.3867 5.37695Z" fill="#697081" stroke="black" stroke-width="0.3"/>
</svg>
