<svg width="24" height="24" viewBox="0 0 24 24" fill="none" xmlns="http://www.w3.org/2000/svg">
<circle cx="12" cy="12" r="12" fill="#2B4821"/>
<path d="M12.0279 7C10.4875 7 9.23438 8.25309 9.23438 9.7935C9.23438 11.3339 10.4875 12.587 12.0279 12.587C13.5683 12.587 14.8214 11.3339 14.8214 9.7935C14.8214 8.25309 13.5683 7 12.0279 7ZM12.0279 11.7889C10.9284 11.7889 10.0325 10.8929 10.0325 9.7935C10.0325 8.69406 10.9284 7.79814 12.0279 7.79814C13.1273 7.79814 14.0232 8.69406 14.0232 9.7935C14.0232 10.8929 13.1273 11.7889 12.0279 11.7889Z" fill="#5D972E"/>
<path d="M12.0279 8.20508C11.148 8.20508 10.4316 8.92141 10.4316 9.80136C10.4316 10.6813 11.148 11.3977 12.0279 11.3977C12.9079 11.3977 13.6242 10.6813 13.6242 9.80136C13.6242 8.92141 12.9079 8.20508 12.0279 8.20508ZM12.874 10.0548L12.6445 10.1805C12.5447 10.2344 12.4629 10.3162 12.407 10.4179L12.2813 10.6474C12.2295 10.7392 12.1337 10.797 12.0279 10.797C11.9222 10.797 11.8264 10.7392 11.7745 10.6474L11.6488 10.4179C11.5929 10.3162 11.5111 10.2344 11.4114 10.1805L11.1819 10.0548C11.0881 10.0049 11.0302 9.90712 11.0302 9.80136C11.0302 9.69561 11.0881 9.59784 11.1819 9.54795L11.4114 9.42225C11.5111 9.36837 11.5929 9.28656 11.6488 9.1848L11.7745 8.95533C11.8264 8.86355 11.9222 8.80568 12.0279 8.80568C12.1337 8.80568 12.2295 8.86355 12.2813 8.95533L12.407 9.1848C12.4629 9.28457 12.5447 9.36837 12.6445 9.42225L12.874 9.54795C12.9677 9.59784 13.0256 9.69561 13.0256 9.80136C13.0256 9.90712 12.9677 10.0049 12.874 10.0548Z" fill="#5D972E"/>
<path fill-rule="evenodd" clip-rule="evenodd" d="M9.79502 13.986C10.1649 13.7737 10.541 13.6232 10.9475 13.7538C11.4007 13.8994 12.1408 14.2121 12.8956 14.347C13.1758 14.4369 13.3505 14.7149 13.2742 14.9967C13.214 15.2195 13.0032 15.4189 12.7592 15.3548L11.5058 15.0258C11.4056 14.9996 11.303 15.0589 11.2767 15.1582C11.2503 15.2574 11.3101 15.359 11.4103 15.3852L12.6638 15.7142C12.9837 15.7982 13.2858 15.6729 13.4453 15.3877C13.5411 15.3607 13.6348 15.3211 13.7269 15.2679L15.6217 14.1746C17.0945 13.3248 17.3108 14.6322 16.8211 14.9309L13.3827 17.0284C13.0664 17.2213 12.7204 17.2663 12.3616 17.1711L9.8676 16.509L9.66721 16.6236L8.56405 14.6925L9.79502 13.986ZM8.05316 14.5545C7.97759 14.4222 7.8065 14.3752 7.67298 14.4501L7.14136 14.7481C7.00782 14.823 6.96041 14.9925 7.03598 15.1248L8.5989 17.8606C8.67447 17.9929 8.84556 18.0399 8.97907 17.965L9.51069 17.667C9.64423 17.5921 9.69165 17.4226 9.61608 17.2903L8.05316 14.5545ZM7.66354 14.9099C7.76726 14.8948 7.86365 14.966 7.8788 15.0687C7.89396 15.1715 7.82217 15.267 7.71845 15.282C7.61473 15.297 7.51834 15.2259 7.50319 15.1231C7.48801 15.0204 7.55982 14.9249 7.66354 14.9099Z" fill="#5D972E"/>
</svg>
