<svg width="24" height="24" viewBox="0 0 24 24" fill="none" xmlns="http://www.w3.org/2000/svg">
<circle cx="12" cy="12" r="12" fill="#2E4276"/>
<path d="M8.00715 8.97053C10.0481 6.36582 13.9501 6.31842 15.9948 8.97697C15.997 8.97981 15.9983 8.98321 15.9987 8.98678C15.999 8.99036 15.9983 8.99398 15.9967 8.99723C15.9951 9.00048 15.9926 9.00323 15.9895 9.00518C15.9864 9.00713 15.9828 9.0082 15.9791 9.00827C15.6613 9.01011 15.341 9.00949 15.0182 9.00642C14.7329 9.00366 14.5594 8.51125 14.3077 8.40265C14.1374 8.32948 14.0224 8.43578 13.9018 8.56418C13.7099 8.76896 13.5497 9.00642 13.3178 9.00688C11.5531 9.00934 9.78902 9.00995 8.02556 9.00873C8.02112 9.00875 8.01676 9.00752 8.013 9.00517C8.00923 9.00281 8.00621 8.99944 8.00428 8.99544C8.00235 8.99145 8.0016 8.98698 8.00211 8.98257C8.00261 8.97816 8.00436 8.97399 8.00715 8.97053Z" fill="white"/>
<path d="M13.2676 9.87198C13.4268 10.051 13.6164 10.3602 13.8916 10.3602C14.8347 10.3615 15.7787 10.3619 16.7236 10.3616C16.729 10.3616 16.7343 10.3633 16.7387 10.3665C16.743 10.3696 16.7463 10.374 16.748 10.3791C16.8772 10.766 16.9611 11.1625 16.9998 11.5687C17.0016 11.5887 16.9926 11.5986 16.9726 11.5986C15.7589 11.5996 14.5408 11.5999 13.3182 11.5996C13.1608 11.5996 13.0881 11.5733 12.9777 11.4528C12.8364 11.2995 12.5911 10.9189 12.3596 10.9857C12.0499 11.0749 11.8898 11.5959 11.5607 11.5968C10.0485 11.6005 8.53647 11.6006 7.02457 11.5973C7.00678 11.5973 6.99865 11.5884 7.00018 11.5706C7.03638 11.1659 7.12014 10.7714 7.25145 10.3869C7.25697 10.3701 7.26863 10.3616 7.28642 10.3616C8.86766 10.3613 10.448 10.3612 12.0274 10.3612C12.4024 10.3616 12.5276 10.1504 12.748 9.90189C12.9243 9.70355 13.0835 9.66627 13.2676 9.87198Z" fill="white"/>
<path d="M10.4936 13.6096C10.4599 13.6238 10.4295 13.645 10.4043 13.6717C10.2632 13.8199 10.1145 13.9749 9.95838 14.1369C9.92402 14.1728 9.87003 14.1912 9.7964 14.1922C9.03339 14.2017 8.27024 14.2063 7.50692 14.206C7.4876 14.206 7.47379 14.1971 7.46551 14.1793C7.28419 13.7949 7.15273 13.3939 7.07112 12.9763C7.06774 12.9588 7.07495 12.9501 7.09275 12.9501C8.15212 12.9489 9.21041 12.9487 10.2676 12.9496C10.628 12.9501 10.7462 12.7458 10.9556 12.506C11.4614 11.9257 11.6165 12.951 12.0859 12.951C13.6959 12.9498 15.3037 12.9493 16.9092 12.9496C16.9254 12.9496 16.932 12.9575 16.929 12.9731C16.8495 13.3894 16.7191 13.789 16.5378 14.1719C16.5277 14.1934 16.5106 14.2041 16.4867 14.2041C14.8101 14.2047 13.1284 14.2049 11.4416 14.2046C11.0592 14.2046 10.9165 13.4278 10.4936 13.6096Z" fill="white"/>
<path d="M15.6435 15.4736C13.6642 17.5693 10.3254 17.5583 8.34983 15.4671C8.34777 15.4649 8.34641 15.4621 8.34592 15.4591C8.34542 15.4561 8.3458 15.4531 8.34702 15.4503C8.34824 15.4475 8.35024 15.4451 8.35278 15.4435C8.35533 15.4418 8.35829 15.4409 8.36133 15.4409C8.65724 15.4377 8.82153 15.1832 8.9987 14.9821C9.17864 14.7778 9.34201 14.7612 9.52194 14.9655C9.69222 15.1579 9.87215 15.4524 10.152 15.451C11.9792 15.4431 13.8051 15.44 15.6297 15.4418C15.6333 15.4418 15.6369 15.4429 15.64 15.4449C15.6431 15.4469 15.6455 15.4498 15.647 15.4532C15.6485 15.4565 15.6489 15.4603 15.6483 15.4639C15.6476 15.4675 15.646 15.4709 15.6435 15.4736Z" fill="white"/>
</svg>
