<svg width="24" height="24" viewBox="0 0 24 24" fill="none" xmlns="http://www.w3.org/2000/svg">
<circle cx="12" cy="12" r="12" fill="#4C2424"/>
<path d="M15.1311 9.92188H8.71115C8.51687 9.92188 8.35938 10.0794 8.35938 10.2736V15.7686C8.35938 16.7027 9.11927 17.4625 10.0532 17.4625H13.7889C14.7229 17.4625 15.4828 16.7027 15.4828 15.7686V10.2736C15.4828 10.0794 15.3254 9.92188 15.1311 9.92188ZM11.0755 15.3439C11.0755 15.5826 10.882 15.7761 10.6433 15.7761C10.4047 15.7761 10.2112 15.5826 10.2112 15.3439V12.0405C10.2112 11.8018 10.4047 11.6083 10.6433 11.6083C10.882 11.6083 11.0755 11.8018 11.0755 12.0405V15.3439ZM13.631 15.3439C13.631 15.5826 13.4376 15.7761 13.1989 15.7761C12.9603 15.7761 12.7667 15.5826 12.7667 15.3439V12.0405C12.7667 11.8018 12.9602 11.6083 13.1989 11.6083C13.4375 11.6083 13.631 11.8018 13.631 12.0405V15.3439Z" fill="#FD6767"/>
<path d="M14.7793 7.5473H13.247V7.41441C13.247 7.1859 13.0611 7 12.8326 7H11.0109C10.7823 7 10.5964 7.1859 10.5964 7.41441V7.5473H9.06413C8.47738 7.5473 8 8.02464 8 8.61141V9.29376C8 9.4158 8.09892 9.51474 8.22101 9.51474H15.6225C15.7445 9.51474 15.8434 9.4158 15.8434 9.29376V8.61141C15.8434 8.02466 15.3661 7.5473 14.7793 7.5473Z" fill="#FD6767"/>
</svg>
