<svg width="7" height="10" viewBox="0 0 7 10" fill="none" xmlns="http://www.w3.org/2000/svg">
<g id="Group">
<g id="Group_2">
<path id="Vector" d="M6.76 5.71318C6.79412 5.78386 6.78462 5.86782 6.73569 5.92921L3.55111 9.92308C3.5123 9.9716 3.45357 10 3.39136 10C3.32926 10 3.27042 9.97171 3.23171 9.92308L0.0458031 5.92921C0.0164871 5.89234 0.00116587 5.84729 0.00116587 5.80174C0.00116587 5.7716 0.00780535 5.74137 0.0213904 5.71318C0.0553026 5.64249 0.127008 5.59755 0.205456 5.59755L6.57594 5.59755C6.65438 5.59755 6.72599 5.64249 6.76 5.71318Z" fill="#697F9B"/>
<path id="Vector_2" d="M3.55092 0.0769095L6.73662 4.07078C6.78555 4.13217 6.79515 4.21613 6.76093 4.28682C6.72692 4.3574 6.65532 4.40234 6.57687 4.40234L0.203426 4.40234C0.124876 4.40234 0.0533752 4.3575 0.0194631 4.28661C0.00577545 4.25852 -0.000864506 4.22819 -0.000864506 4.19805C-0.000864506 4.1527 0.0142536 4.10745 0.0438757 4.07058L3.23141 0.0767055C3.27013 0.0280843 3.32896 -0.000107765 3.39107 -0.000107765C3.45348 -0.000107765 3.51221 0.0281863 3.55092 0.0769095Z" fill="#697F9B"/>
</g>
</g>
</svg>
