<svg width="18" height="18" viewBox="0 0 18 18" fill="none" xmlns="http://www.w3.org/2000/svg">
<g id="Group">
<g id="b">
<path id="Vector" d="M4.30272 5.8281H12.9113C13.28 5.8281 13.5792 5.52893 13.5792 5.16014C13.5792 4.79136 13.28 4.49219 12.9113 4.49219H4.30272C3.93394 4.49219 3.63477 4.79136 3.63477 5.16014C3.63477 5.52893 3.93394 5.8281 4.30272 5.8281Z" fill="#fff"/>
<path id="Vector_2" d="M10.0798 9.32323C10.0798 8.95445 9.78066 8.65527 9.41188 8.65527H4.30272C3.93394 8.65527 3.63477 8.95445 3.63477 9.32323C3.63477 9.69201 3.93394 9.99118 4.30272 9.99118H9.41188C9.78066 9.99118 10.0798 9.69201 10.0798 9.32323Z" fill="#fff"/>
<path id="Vector_3" d="M17.1078 11.3802C17.1795 10.5952 17.2276 9.68044 17.2287 8.61417C17.2266 6.60784 17.0582 5.13869 16.8785 4.05906C16.5642 2.28019 14.9485 0.66444 13.1696 0.350149C12.09 0.170504 10.6208 0.00210933 8.61417 0C6.60784 0.00210933 5.13834 0.170504 4.05871 0.350149C2.28019 0.66444 0.66444 2.28019 0.350149 4.05906C0.170504 5.13869 0.00246089 6.60784 0 8.61417C0.00246089 10.6205 0.170504 12.09 0.350149 13.1696C0.66444 14.9485 2.28019 16.5642 4.05906 16.8785C5.13869 17.0582 6.60784 17.2262 8.61452 17.2287C9.68044 17.2276 10.5952 17.1795 11.3799 17.1078C12.0773 17.6657 12.9619 17.9996 13.9244 17.9996C16.1751 17.9996 18 16.1751 18 13.9244C18 12.9619 17.666 12.0773 17.1081 11.3802H17.1078ZM8.61452 15.8928C7.03182 15.891 5.61575 15.7827 4.28582 15.562C3.69485 15.4561 3.09615 15.1246 2.60011 14.6286C2.10406 14.1325 1.7729 13.5342 1.66673 12.9429C1.44595 11.6143 1.33802 10.1983 1.33591 8.61417C1.33767 7.03076 1.44595 5.6147 1.66673 4.28546C1.77254 3.6945 2.10406 3.09615 2.60011 2.60011C3.09615 2.10406 3.6945 1.7729 4.28582 1.66673C5.61505 1.44595 7.03111 1.33802 8.61452 1.33591C10.1972 1.33767 11.6133 1.44595 12.9432 1.66673C13.5342 1.77254 14.1325 2.10406 14.6289 2.60011C15.125 3.09615 15.4561 3.6945 15.5623 4.28582C15.7831 5.61575 15.891 7.03146 15.8931 8.61452C15.8924 9.20865 15.8763 9.77852 15.8453 10.3298C15.273 10.0232 14.6191 9.84953 13.9244 9.84953C11.6738 9.84953 9.84883 11.6741 9.84883 13.9248C9.84883 14.6194 10.0229 15.273 10.3291 15.8453C9.77782 15.8763 9.20795 15.8924 8.61417 15.8928H8.61452ZM13.9244 16.6637C12.4138 16.6637 11.1847 15.4351 11.1847 13.9244C11.1847 12.4138 12.4138 11.1851 13.9244 11.1851C15.4351 11.1851 16.6641 12.4138 16.6641 13.9244C16.6641 15.4351 15.4351 16.6637 13.9244 16.6637Z" fill="#fff"/>
<path id="Vector_4" d="M14.2828 14.7034C14.1978 14.6894 14.0821 14.676 13.9242 14.676C13.7664 14.676 13.6507 14.6894 13.5657 14.7034C13.4257 14.7281 13.2985 14.8553 13.2735 14.9956C13.2595 15.0807 13.2461 15.1963 13.2461 15.3542C13.2461 15.512 13.2595 15.6277 13.2735 15.7128C13.2981 15.8527 13.4254 15.9799 13.5657 16.0049C13.6507 16.019 13.7664 16.0323 13.9242 16.0323C14.0821 16.0323 14.1978 16.019 14.2828 16.0049C14.4228 15.9803 14.55 15.853 14.575 15.7128C14.589 15.6277 14.6024 15.512 14.6024 15.3542C14.6024 15.1963 14.589 15.0807 14.575 14.9956C14.5504 14.8557 14.4231 14.7284 14.2828 14.7034Z" fill="#fff"/>
<path id="Vector_5" d="M13.9238 14.2597C14.2926 14.2597 14.5918 13.9605 14.5918 13.5917V12.4773C14.5918 12.1085 14.2926 11.8093 13.9238 11.8093C13.555 11.8093 13.2559 12.1085 13.2559 12.4773V13.5917C13.2559 13.9605 13.555 14.2597 13.9238 14.2597Z" fill="#fff"/>
</g>
</g>
</svg>
