<svg width="20" height="20" viewBox="0 0 20 20" fill="none" xmlns="http://www.w3.org/2000/svg">
<path id="Vector" d="M15.8861 12.7896C15.8892 12.7829 15.8928 12.7769 15.8956 12.77C16.3078 11.9048 16.5217 10.9585 16.5217 10C16.5217 9.04164 16.3078 8.09531 15.8956 7.23009C15.8929 7.22317 15.8893 7.21704 15.8861 7.21052C15.5593 6.52021 15.1141 5.89242 14.5708 5.35557C14.563 5.34722 14.5543 5.34052 14.5458 5.33283C13.6275 4.4366 12.4653 3.83115 11.2046 3.5923C9.94387 3.35344 8.64071 3.49178 7.45825 3.99C6.27579 4.48823 5.26658 5.32419 4.55695 6.39324C3.84732 7.46228 3.46881 8.71691 3.46881 10C3.46881 11.2832 3.84732 12.5378 4.55695 13.6069C5.26658 14.6759 6.27579 15.5119 7.45825 16.0101C8.64071 16.5083 9.94387 16.6466 11.2046 16.4078C12.4653 16.1689 13.6275 15.5635 14.5458 14.6673C14.5545 14.6596 14.5629 14.6529 14.5708 14.6445C15.1141 14.1077 15.5593 13.4799 15.8861 12.7896ZM14.0692 13.913H10.4348V13.0435H14.7553C14.5554 13.355 14.3257 13.6462 14.0692 13.913ZM15.2161 12.1739H10.4348V11.3043H15.4942C15.4253 11.6013 15.3323 11.8921 15.2161 12.1739ZM10.4348 10.4348V9.56522H15.6301C15.6412 9.70917 15.6522 9.85326 15.6522 10C15.6522 10.1467 15.6412 10.2908 15.6301 10.4348H10.4348ZM10.4348 8.69565V7.82609H15.2161C15.3324 8.1079 15.4254 8.39872 15.4944 8.69565H10.4348ZM10.4348 6.95652V6.08696H14.0692C14.3257 6.35378 14.5554 6.64502 14.7553 6.95652H10.4348ZM10.4348 5.21739V4.36987C11.3456 4.4393 12.2257 4.73025 12.9985 5.21739H10.4348ZM10.4348 14.7826H12.9985C12.2257 15.2698 11.3456 15.5607 10.4348 15.6301V14.7826ZM4.34783 10C4.35 8.57737 4.88822 7.20782 5.85519 6.16434C6.82217 5.12087 8.14687 4.48014 9.56522 4.36987V15.6301C8.14687 15.5199 6.82217 14.8791 5.85519 13.8357C4.88822 12.7922 4.35 11.4226 4.34783 10ZM9.56522 1.73913V0.434783C9.56522 0.319471 9.61102 0.208882 9.69256 0.127345C9.7741 0.0458073 9.88469 0 10 0C10.1153 0 10.2259 0.0458073 10.3074 0.127345C10.389 0.208882 10.4348 0.319471 10.4348 0.434783V1.73913C10.4348 1.85444 10.389 1.96503 10.3074 2.04657C10.2259 2.12811 10.1153 2.17391 10 2.17391C9.88469 2.17391 9.7741 2.12811 9.69256 2.04657C9.61102 1.96503 9.56522 1.85444 9.56522 1.73913ZM10.4348 18.2609V19.5652C10.4348 19.6805 10.389 19.7911 10.3074 19.8727C10.2259 19.9542 10.1153 20 10 20C9.88469 20 9.7741 19.9542 9.69256 19.8727C9.61102 19.7911 9.56522 19.6805 9.56522 19.5652V18.2609C9.56522 18.1456 9.61102 18.035 9.69256 17.9534C9.7741 17.8719 9.88469 17.8261 10 17.8261C10.1153 17.8261 10.2259 17.8719 10.3074 17.9534C10.389 18.035 10.4348 18.1456 10.4348 18.2609ZM2.17391 10C2.17391 10.1153 2.12811 10.2259 2.04657 10.3074C1.96503 10.389 1.85444 10.4348 1.73913 10.4348H0.434783C0.319471 10.4348 0.208882 10.389 0.127345 10.3074C0.0458073 10.2259 0 10.1153 0 10C0 9.88469 0.0458073 9.7741 0.127345 9.69256C0.208882 9.61102 0.319471 9.56522 0.434783 9.56522H1.73913C1.85444 9.56522 1.96503 9.61102 2.04657 9.69256C2.12811 9.7741 2.17391 9.88469 2.17391 10ZM20 10C20 10.1153 19.9542 10.2259 19.8727 10.3074C19.7911 10.389 19.6805 10.4348 19.5652 10.4348H18.2609C18.1456 10.4348 18.035 10.389 17.9534 10.3074C17.8719 10.2259 17.8261 10.1153 17.8261 10C17.8261 9.88469 17.8719 9.7741 17.9534 9.69256C18.035 9.61102 18.1456 9.56522 18.2609 9.56522H19.5652C19.6805 9.56522 19.7911 9.61102 19.8727 9.69256C19.9542 9.7741 20 9.88469 20 10ZM4.46609 15.5339C4.54761 15.6154 4.59341 15.726 4.59341 15.8413C4.59341 15.9566 4.54761 16.0672 4.46609 16.1487L3.54387 17.071C3.46199 17.1508 3.35195 17.1951 3.2376 17.1944C3.12324 17.1937 3.01378 17.1479 2.93291 17.0671C2.85205 16.9862 2.8063 16.8768 2.80558 16.7624C2.80485 16.648 2.84921 16.538 2.92904 16.4561L3.85126 15.5339C3.9328 15.4524 4.04337 15.4066 4.15867 15.4066C4.27397 15.4066 4.38455 15.4524 4.46609 15.5339ZM17.071 2.92904C17.1525 3.01058 17.1983 3.12116 17.1983 3.23646C17.1983 3.35176 17.1525 3.46233 17.071 3.54387L16.1487 4.46609C16.0669 4.54592 15.9568 4.59028 15.8425 4.58955C15.7281 4.58883 15.6186 4.54308 15.5378 4.46222C15.4569 4.38135 15.4112 4.27189 15.4104 4.15753C15.4097 4.04318 15.4541 3.93314 15.5339 3.85126L16.4561 2.92904C16.5377 2.84752 16.6482 2.80172 16.7635 2.80172C16.8788 2.80172 16.9894 2.84752 17.071 2.92904ZM17.071 16.4561C17.1122 16.4963 17.145 16.5443 17.1675 16.5972C17.1901 16.6502 17.2018 16.7071 17.2022 16.7647C17.2026 16.8222 17.1915 16.8793 17.1697 16.9326C17.1478 16.9858 17.1156 17.0342 17.0749 17.0749C17.0342 17.1156 16.9858 17.1478 16.9326 17.1697C16.8793 17.1915 16.8222 17.2026 16.7647 17.2022C16.7071 17.2018 16.6502 17.1901 16.5972 17.1675C16.5443 17.145 16.4963 17.1122 16.4561 17.071L15.5339 16.1487C15.4541 16.0669 15.4097 15.9568 15.4104 15.8425C15.4112 15.7281 15.4569 15.6186 15.5378 15.5378C15.6186 15.4569 15.7281 15.4112 15.8425 15.4104C15.9568 15.4097 16.0669 15.4541 16.1487 15.5339L17.071 16.4561ZM2.92904 3.54387C2.84921 3.46199 2.80485 3.35195 2.80558 3.2376C2.8063 3.12324 2.85205 3.01378 2.93291 2.93291C3.01378 2.85205 3.12324 2.8063 3.2376 2.80558C3.35195 2.80485 3.46199 2.84921 3.54387 2.92904L4.46609 3.85126C4.5073 3.89144 4.54012 3.93941 4.56266 3.99238C4.58519 4.04534 4.59698 4.10226 4.59734 4.15981C4.59771 4.21737 4.58664 4.27443 4.56478 4.32768C4.54292 4.38093 4.51071 4.42931 4.47001 4.47001C4.42931 4.51071 4.38093 4.54292 4.32768 4.56478C4.27443 4.58664 4.21737 4.59771 4.15981 4.59734C4.10226 4.59698 4.04534 4.58519 3.99238 4.56266C3.93941 4.54012 3.89144 4.5073 3.85126 4.46609L2.92904 3.54387Z" fill="#4D6090"/>
</svg>
