<svg width="21" height="21" viewBox="0 0 21 21" fill="none" xmlns="http://www.w3.org/2000/svg">
<g id="Time_1_">
<g id="Hospital_2_">
<path id="Vector" d="M5.83057 1V4.22034" stroke="#292D32" stroke-width="1.6" stroke-miterlimit="10" stroke-linecap="round" stroke-linejoin="round"/>
<path id="Vector_2" d="M13.8813 1V4.22034" stroke="#292D32" stroke-width="1.6" stroke-miterlimit="10" stroke-linecap="round" stroke-linejoin="round"/>
<path id="Vector_3" d="M8.11304 18.7119H4.22034C2.44183 18.7119 1 17.27 1 15.4915V5.83051C1 4.05187 2.44183 2.61017 4.22034 2.61017H15.4915C17.27 2.61017 18.7119 4.05187 18.7119 5.83051V7.44068H1" stroke="#292D32" stroke-width="1.6" stroke-miterlimit="10" stroke-linecap="round" stroke-linejoin="round"/>
<circle id="Ellipse" cx="4.22061" cy="10.661" r="0.805085" fill="#292D32"/>
<circle id="Ellipse_2" cx="7.44083" cy="10.661" r="0.805085" fill="#292D32"/>
<circle id="Ellipse_3" cx="4.22061" cy="13.8813" r="0.805085" fill="#292D32"/>
<circle id="Ellipse_4" cx="7.44083" cy="13.8813" r="0.805085" fill="#292D32"/>
</g>
<path id="Vector_4" d="M15.1696 20.0001C17.8374 20.0001 20.0001 17.8374 20.0001 15.1696C20.0001 12.5017 17.8374 10.3391 15.1696 10.3391C12.5018 10.3391 10.3391 12.5017 10.3391 15.1696C10.3391 17.8374 12.5018 20.0001 15.1696 20.0001Z" stroke="#292D32" stroke-width="1.5" stroke-miterlimit="10" stroke-linecap="round" stroke-linejoin="round"/>
<path id="Vector_5" d="M15.1694 15.1695V13.5593" stroke="#292D32" stroke-miterlimit="10" stroke-linecap="round" stroke-linejoin="round"/>
<path id="Vector_6" d="M16.7796 15.1695H15.1694" stroke="#292D32" stroke-miterlimit="10" stroke-linecap="round" stroke-linejoin="round"/>
</g>
</svg>
