<svg width="23" height="23" viewBox="0 0 23 23" fill="none" xmlns="http://www.w3.org/2000/svg">
<g id="Group 59899">
<g id="Group">
<g id="Group_2">
<path id="Vector" d="M15.6586 2.49326C15.2272 2.3562 14.7805 2.67866 14.7805 3.13541V7.11496C14.7789 7.36654 14.9191 7.59808 15.134 7.71335C16.8847 8.67437 17.9721 10.5103 17.9721 12.5058C17.9721 15.5186 15.521 17.9695 12.5083 17.9695C10.5129 17.9695 8.6769 16.8821 7.71588 15.1314C7.60267 14.9217 7.37558 14.778 7.11857 14.778H3.13793C2.68959 14.778 2.35585 15.2169 2.49597 15.6566C3.81728 19.8604 7.75654 22.9998 12.5083 22.9998C18.3082 22.9998 23.0023 18.3065 23.0023 12.5058C23.0023 7.75936 19.8683 3.81623 15.6586 2.49326ZM11.8345 21.6274C8.35344 21.3763 5.43118 19.1803 4.10731 16.1257H6.73838C7.8609 17.9135 9.74501 19.0764 11.8345 19.2836V21.6274ZM16.1282 6.73589V4.10478C19.1809 5.42779 21.3787 8.34881 21.63 11.832H19.2862C19.0789 9.74253 17.916 7.85841 16.1282 6.73589ZM13.1822 21.6272V19.284C16.4012 18.9663 18.9689 16.3987 19.2865 13.1797H21.6297C21.2999 17.6869 17.6894 21.2974 13.1822 21.6272Z" fill="#292D32"/>
</g>
</g>
<g id="Group_3">
<g id="Group_4">
<path id="Vector_2" d="M12.5071 0C5.59485 0 0 5.59391 0 12.5071C0 12.8793 0.30171 13.181 0.673862 13.181H12.5071C12.8793 13.181 13.181 12.8793 13.181 12.5071V0.673862C13.181 0.30171 12.8793 0 12.5071 0ZM11.8333 11.8333H1.36758C1.70047 6.20842 6.20173 1.70087 11.8333 1.36758V11.8333Z" fill="#292D32"/>
</g>
</g>
</g>
</svg>
