<svg width="17" height="14" viewBox="0 0 17 14" fill="none" xmlns="http://www.w3.org/2000/svg">
<path d="M8.8125 4.89536H0.5625C0.413619 4.89438 0.271115 4.83455 0.165838 4.72883C0.0605615 4.62311 0.000982744 4.48 0 4.33049C0.000982744 4.18099 0.0605615 4.03788 0.165838 3.93216C0.271115 3.82644 0.413619 3.76661 0.5625 3.76562H8.8125C8.96138 3.76661 9.10389 3.82644 9.20916 3.93216C9.31444 4.03788 9.37402 4.18099 9.375 4.33049C9.37402 4.48 9.31444 4.62311 9.20916 4.72883C9.10389 4.83455 8.96138 4.89438 8.8125 4.89536Z" fill="white"/>
<path d="M5.0625 10.9188H3.5625C3.41362 10.9178 3.27112 10.858 3.16584 10.7523C3.06056 10.6465 3.00098 10.5034 3 10.3539C3.00098 10.2044 3.06056 10.0613 3.16584 9.9556C3.27112 9.84988 3.41362 9.79005 3.5625 9.78906H5.0625C5.21138 9.79005 5.35388 9.84988 5.45916 9.9556C5.56444 10.0613 5.62402 10.2044 5.625 10.3539C5.62402 10.5034 5.56444 10.6465 5.45916 10.7523C5.35388 10.858 5.21138 10.9178 5.0625 10.9188Z" fill="white"/>
<path d="M9.9375 10.9188H6.9375C6.78862 10.9178 6.64612 10.858 6.54084 10.7523C6.43556 10.6465 6.37598 10.5034 6.375 10.3539C6.37598 10.2044 6.43556 10.0613 6.54084 9.9556C6.64612 9.84988 6.78862 9.79005 6.9375 9.78906H9.9375C10.0864 9.79005 10.2289 9.84988 10.3342 9.9556C10.4394 10.0613 10.499 10.2044 10.5 10.3539C10.499 10.5034 10.4394 10.6465 10.3342 10.7523C10.2289 10.858 10.0864 10.9178 9.9375 10.9188Z" fill="white"/>
<path d="M12.2325 13.9334H3.8925C0.9075 13.9334 0 13.0297 0 10.0622V3.87124C0 0.903791 0.9075 0 3.8925 0H9.0225C9.17138 0.000986883 9.31388 0.0608166 9.41916 0.166537C9.52444 0.272257 9.58402 0.415361 9.585 0.564869C9.58402 0.714377 9.52444 0.857481 9.41916 0.963202C9.31388 1.06892 9.17138 1.12875 9.0225 1.12974H3.8925C1.5375 1.12974 1.125 1.53644 1.125 3.87124V10.0622C1.125 12.397 1.5375 12.8037 3.8925 12.8037H12.2325C14.5875 12.8037 15 12.397 15 10.0622V6.4621C15 6.31229 15.0593 6.16862 15.1648 6.06268C15.2702 5.95675 15.4133 5.89724 15.5625 5.89724C15.7117 5.89724 15.8548 5.95675 15.9602 6.06268C16.0657 6.16862 16.125 6.31229 16.125 6.4621V10.0622C16.125 13.0297 15.2175 13.9334 12.2325 13.9334Z" fill="white"/>
<path d="M14.3442 1.89553L13.9984 1.62007C13.9777 1.60376 13.9608 1.58323 13.9489 1.5599C13.937 1.53657 13.9302 1.51097 13.9292 1.48485C13.9283 1.45893 13.9331 1.43313 13.9435 1.40928C13.9538 1.38543 13.9693 1.36413 13.9889 1.34689L14.4086 0.975818C14.4225 0.960098 14.4397 0.947503 14.459 0.938874C14.4783 0.930245 14.4992 0.925781 14.5204 0.925781C14.5416 0.925781 14.5625 0.930245 14.5818 0.938874C14.6011 0.947503 14.6183 0.960098 14.6322 0.975818L15.9096 2.12774C15.9795 2.19104 16.0284 2.27365 16.0501 2.36481C16.0717 2.45598 16.065 2.55146 16.0309 2.63882C15.9968 2.72606 15.9366 2.80099 15.8584 2.85365C15.7801 2.90631 15.6875 2.93421 15.5928 2.93363L10.3092 2.93135C10.2737 2.9314 10.239 2.92134 10.2091 2.90236C10.1792 2.88338 10.1556 2.85629 10.1409 2.82435C10.0918 2.72875 10.0651 2.62347 10.0627 2.5163C10.0603 2.40913 10.0823 2.30279 10.1271 2.20514C10.1428 2.16707 10.17 2.13478 10.2052 2.11274C10.2403 2.09071 10.2815 2.08004 10.3231 2.08221H14.2774C14.2995 2.08238 14.321 2.07575 14.3391 2.06324C14.3572 2.05073 14.3709 2.03296 14.3782 2.01241C14.3856 1.99186 14.3863 1.96955 14.3802 1.9486C14.3741 1.92765 14.3615 1.9091 14.3442 1.89553Z" fill="white"/>
<path d="M11.7884 4.37698L11.9913 4.5796C12.0077 4.59122 12.0211 4.60664 12.0301 4.6245C12.0391 4.64237 12.0436 4.66214 12.0432 4.6821C12.0427 4.70207 12.0373 4.72162 12.0275 4.73906C12.0177 4.75651 12.0036 4.77132 11.9867 4.78221L11.6224 5.11003C11.5848 5.14331 11.5361 5.16191 11.4856 5.16233C11.4351 5.16275 11.3862 5.14496 11.348 5.1123C10.9453 4.76931 10.5556 4.41341 10.179 4.04461C10.1259 3.99281 10.0905 3.92598 10.0776 3.85338C9.98072 3.32978 10.3658 3.21823 10.8085 3.22279C12.4532 3.23796 14.0749 3.26225 15.6735 3.29564C15.7134 3.29652 15.7527 3.30519 15.7892 3.32114C15.8256 3.3371 15.8585 3.36002 15.886 3.3886C15.9134 3.41717 15.9348 3.45082 15.949 3.48761C15.9632 3.52441 15.9699 3.56361 15.9687 3.60297C15.9594 3.95659 15.8372 4.13643 15.6021 4.1425C14.4108 4.17437 13.1649 4.19183 11.8645 4.19486C11.6893 4.19486 11.6639 4.25557 11.7884 4.37698Z" fill="white"/>
</svg>
