<svg width="138" height="101" viewBox="0 0 138 101" fill="none" xmlns="http://www.w3.org/2000/svg">
<g opacity="0.8" filter="url(#filter0_f_0_1)">
<path d="M22.3323 78.0933C40.2498 78.0933 54.6645 63.6786 54.6645 45.761C54.6645 27.8434 40.2498 13.4287 22.3323 13.4287C4.4147 13.4287 -10 27.8434 -10 45.761C-10 63.6786 4.4147 78.0933 22.3323 78.0933Z" fill="#2775CA"/>
<path d="M31.224 50.8802C31.224 46.1652 28.3949 44.5486 22.7367 43.8751C18.6952 43.3361 17.8869 42.2585 17.8869 40.3722C17.8869 38.486 19.2342 37.2738 21.9284 37.2738C24.3533 37.2738 25.7006 38.0822 26.3741 40.1029C26.5089 40.5071 26.9131 40.7764 27.3172 40.7764H29.4725C30.0115 40.7764 30.4156 40.3722 30.4156 39.8336V39.6988C29.8767 36.7349 27.4517 34.4448 24.3533 34.1754V30.9422C24.3533 30.4032 23.9492 29.9991 23.2757 29.8643H21.2549C20.716 29.8643 20.3118 30.2684 20.177 30.9422V34.0406C16.1355 34.5796 13.576 37.2738 13.576 40.6419C13.576 45.0876 16.2703 46.8387 21.9284 47.5125C25.7006 48.186 26.9131 48.9943 26.9131 51.1499C26.9131 53.3055 25.0268 54.7873 22.4674 54.7873C18.9645 54.7873 17.7521 53.3052 17.3479 51.2844C17.2134 50.7457 16.8093 50.4761 16.4051 50.4761H14.1147C13.576 50.4761 13.1719 50.8802 13.1719 51.4192V51.554C13.7105 54.9218 15.8661 57.3467 20.3118 58.0205V61.2537C20.3118 61.7924 20.716 62.1965 21.3894 62.3314H23.4102C23.9492 62.3314 24.3533 61.9272 24.4882 61.2537V58.0205C28.5297 57.3467 31.224 54.5176 31.224 50.8802Z" fill="white"/>
<path d="M15.462 65.0258C4.95396 61.2539 -0.434857 49.5335 3.47218 39.16C5.49294 33.5019 9.93863 29.191 15.462 27.1702C16.0009 26.9009 16.2703 26.4968 16.2703 25.823V23.937C16.2703 23.398 16.0009 22.9939 15.462 22.8594C15.3271 22.8594 15.0578 22.8594 14.923 22.9939C2.12489 27.0354 -4.88055 40.6421 -0.839012 53.4402C1.58591 60.9843 7.37888 66.7773 14.923 69.2022C15.462 69.4715 16.0009 69.2022 16.1354 68.6632C16.2703 68.5287 16.2703 68.3939 16.2703 68.1246V66.2383C16.2703 65.8341 15.8661 65.2955 15.462 65.0258ZM29.7421 22.9939C29.2032 22.7245 28.6642 22.9939 28.5297 23.5329C28.3949 23.6677 28.3949 23.8022 28.3949 24.0718V25.9578C28.3949 26.4968 28.799 27.0354 29.2032 27.3051C39.7112 31.0769 45.1 42.7974 41.1929 53.1709C39.1722 58.829 34.7265 63.1399 29.2032 65.1607C28.6642 65.43 28.3949 65.8341 28.3949 66.5079V68.3939C28.3949 68.9329 28.6642 69.337 29.2032 69.4715C29.338 69.4715 29.6073 69.4715 29.7421 69.337C42.5402 65.2955 49.5457 51.6888 45.5041 38.8907C43.0792 31.2118 37.1514 25.4188 29.7421 22.9939Z" fill="white"/>
</g>
<g opacity="0.8" filter="url(#filter1_f_0_1)">
<path d="M65.4416 53.6645C83.2983 53.6645 97.7739 39.1889 97.7739 21.3323C97.7739 3.47565 83.2983 -11 65.4416 -11C47.585 -11 33.1094 3.47565 33.1094 21.3323C33.1094 39.1889 47.585 53.6645 65.4416 53.6645Z" fill="#26A17B"/>
<path fill-rule="evenodd" clip-rule="evenodd" d="M69.3252 24.1264V24.1224C69.1029 24.1385 67.9571 24.2073 65.4009 24.2073C63.3599 24.2073 61.9231 24.1466 61.4179 24.1224V24.1284C53.5612 23.7829 47.6969 22.4148 47.6969 20.778C47.6969 19.1432 53.5612 17.7752 61.4179 17.4235V22.7664C61.9312 22.8028 63.4023 22.8897 65.4352 22.8897C67.8743 22.8897 69.0969 22.7887 69.3252 22.7685V17.4276C77.1658 17.7772 83.0159 19.1452 83.0159 20.778C83.0159 22.4148 77.1658 23.7788 69.3252 24.1264ZM69.3252 16.8719V12.0907H80.2656V4.7998H50.4775V12.0907H61.4179V16.8698C52.5266 17.278 45.8398 19.0402 45.8398 21.1498C45.8398 23.2595 52.5266 25.0196 61.4179 25.4298V40.7513H69.3252V25.4258C78.2024 25.0176 84.873 23.2575 84.873 21.1498C84.873 19.0422 78.2024 17.2821 69.3252 16.8719Z" fill="white"/>
</g>
<defs>
<filter id="filter0_f_0_1" x="-35" y="-11.5713" width="114.664" height="114.664" filterUnits="userSpaceOnUse" color-interpolation-filters="sRGB">
<feFlood flood-opacity="0" result="BackgroundImageFix"/>
<feBlend mode="normal" in="SourceGraphic" in2="BackgroundImageFix" result="shape"/>
<feGaussianBlur stdDeviation="12.5" result="effect1_foregroundBlur_0_1"/>
</filter>
<filter id="filter1_f_0_1" x="-6.89062" y="-51" width="144.664" height="144.664" filterUnits="userSpaceOnUse" color-interpolation-filters="sRGB">
<feFlood flood-opacity="0" result="BackgroundImageFix"/>
<feBlend mode="normal" in="SourceGraphic" in2="BackgroundImageFix" result="shape"/>
<feGaussianBlur stdDeviation="20" result="effect1_foregroundBlur_0_1"/>
</filter>
</defs>
</svg>
