<svg width="15" height="21" viewBox="0 0 15 21" fill="none" xmlns="http://www.w3.org/2000/svg">
<path d="M14.6853 4.88083C15.0056 5.2736 14.983 5.85261 14.6169 6.21872C14.2508 6.58484 13.6718 6.60743 13.279 6.28708L13.2029 6.21872L10.9099 3.92575L10.9099 15.5117C10.9099 16.064 10.4622 16.5117 9.9099 16.5117C9.35762 16.5117 8.9099 16.064 8.9099 15.5117L8.9099 1.51169C8.9099 1.10727 9.15349 0.742673 9.52709 0.587862C9.90076 0.433081 10.3309 0.518661 10.6169 0.804659L14.6169 4.80466L14.6853 4.88083Z" fill="white"/>
<path d="M6.90967 19.5117C6.90967 19.9161 6.66608 20.2807 6.29248 20.4355C5.96541 20.571 5.59498 20.5224 5.31592 20.3164L5.20264 20.2187L1.20264 16.2187C0.812112 15.8282 0.812112 15.1952 1.20264 14.8047C1.59316 14.4142 2.22617 14.4142 2.6167 14.8047L4.90967 17.0977L4.90967 5.51172C4.90967 4.95943 5.35738 4.51172 5.90967 4.51172C6.46195 4.51172 6.90967 4.95943 6.90967 5.51172L6.90967 19.5117Z" fill="white"/>
</svg>
