<svg width="11" height="12" viewBox="0 0 11 12" fill="none" xmlns="http://www.w3.org/2000/svg">
<path fill-rule="evenodd" clip-rule="evenodd" d="M7.88354 2.1395V2.80507H8.93314H8.934V2.8068C9.26549 2.80766 9.56599 2.94198 9.78297 3.15982C9.99823 3.37594 10.1325 3.67471 10.1334 4.00535H10.1351V4.00707V10.3158V10.3167H10.1334C10.1325 10.6473 9.99823 10.9478 9.78039 11.1657C9.56427 11.3809 9.26549 11.5153 8.93486 11.5161V11.5178H8.93314H3.62058H3.61972V11.5161C3.28909 11.5153 2.98773 11.3809 2.77075 11.1631C2.55549 10.947 2.42117 10.6482 2.42031 10.3176H2.41858V10.3158V8.90289H1.36899H1.36813V8.90116C1.03749 8.9003 0.736133 8.76598 0.519153 8.54814C0.303896 8.33202 0.169575 8.03325 0.168714 7.70261H0.166992V7.70089V2.1395V2.13864H0.168714C0.169575 1.80714 0.304757 1.50664 0.521736 1.28966C0.737855 1.0744 1.03663 0.940083 1.36727 0.939222V0.9375H1.36899H6.68154H6.6824V0.939222C7.0139 0.940083 7.3144 1.0744 7.53138 1.29224C7.74664 1.50836 7.88096 1.80714 7.88182 2.13778H7.88354V2.1395ZM6.97257 2.80507V2.1395V2.13778H6.97429C6.97429 2.05942 6.94071 1.9871 6.88733 1.93371C6.83481 1.88119 6.76162 1.84761 6.68326 1.84761V1.84933H6.6824H1.36985H1.36813V1.84761C1.28977 1.84761 1.21745 1.88119 1.16406 1.93457C1.11154 1.9871 1.07796 2.06028 1.07796 2.13864H1.07968V2.1395V7.70089V7.70261H1.07796C1.07796 7.78096 1.11154 7.85329 1.16493 7.90667C1.21745 7.9592 1.29064 7.99278 1.36899 7.99278V7.99106H1.36985H2.41945V4.00707V4.00621H2.42117C2.42203 3.67471 2.55721 3.37421 2.77419 3.15723C2.99031 2.94198 3.28909 2.80766 3.61972 2.8068V2.80507H3.62144H6.97257ZM9.2233 10.3158V4.00707V4.00535H9.22502C9.22502 3.927 9.19144 3.85467 9.13806 3.80128C9.08554 3.74876 9.01235 3.71518 8.934 3.71518V3.7169H8.93314H3.62058H3.61886V3.71518C3.54051 3.71518 3.46818 3.74876 3.4148 3.80215C3.36227 3.85467 3.32869 3.92786 3.32869 4.00621H3.33042V4.00707V10.3158V10.3176H3.32869C3.32869 10.3959 3.36227 10.4682 3.41566 10.5216C3.46818 10.5741 3.54137 10.6077 3.61972 10.6077V10.606H3.62058H8.93314H8.93486V10.6077C9.01321 10.6077 9.08554 10.5741 9.13892 10.5208C9.19144 10.4682 9.22502 10.3951 9.22502 10.3167H9.2233V10.3158Z" fill="#ADC3DF"/>
</svg>
