<svg width="14" height="14" viewBox="0 0 14 14" fill="none" xmlns="http://www.w3.org/2000/svg">
<g id="user 1">
<g id="Icon">
<path id="Vector" fill-rule="evenodd" clip-rule="evenodd" d="M6.99992 0.729187C8.85142 0.729187 10.3541 2.23185 10.3541 4.08335C10.3541 5.93485 8.85142 7.43752 6.99992 7.43752C5.14842 7.43752 3.64575 5.93485 3.64575 4.08335C3.64575 2.23185 5.14842 0.729187 6.99992 0.729187ZM6.99992 1.60419C5.63142 1.60419 4.52075 2.71485 4.52075 4.08335C4.52075 5.45185 5.63142 6.56252 6.99992 6.56252C8.36842 6.56252 9.47909 5.45185 9.47909 4.08335C9.47909 2.71485 8.36842 1.60419 6.99992 1.60419Z" fill="#4D6090"/>
<path id="Vector_2" fill-rule="evenodd" clip-rule="evenodd" d="M10.1721 7.7041C10.0123 7.52327 10.0292 7.24619 10.2106 7.08635C10.3914 6.92652 10.6679 6.94402 10.8278 7.12485C11.6223 8.02494 12.1041 9.20677 12.1041 10.5C12.1041 11.6352 11.2443 12.3037 10.1546 12.6444C8.84209 13.0544 7.22625 12.9909 7.004 12.9798C6.79284 12.9903 5.16534 13.0568 3.84525 12.6444C2.75559 12.3037 1.89575 11.6352 1.89575 10.5C1.89575 9.20677 2.37759 8.02494 3.17209 7.12485C3.33192 6.94402 3.60842 6.92652 3.78925 7.08635C3.97067 7.24619 3.98759 7.52327 3.82775 7.7041C3.17034 8.4496 2.77075 9.42844 2.77075 10.5C2.77075 11.2327 3.40309 11.5891 4.10659 11.809C5.38 12.2074 6.9725 12.1048 6.9725 12.1048C6.99059 12.1042 7.00925 12.1042 7.02734 12.1048C7.02734 12.1048 8.61984 12.2074 9.89325 11.809C10.5968 11.5891 11.2291 11.2327 11.2291 10.5C11.2291 9.42844 10.8295 8.4496 10.1721 7.7041Z" fill="#4D6090"/>
</g>
</g>
</svg>
