<svg width="20" height="13" viewBox="0 0 20 13" fill="none" xmlns="http://www.w3.org/2000/svg">
<g id="view">
<g id="Group 58560">
<g id="Group 58559">
<path id="Path 11233" d="M19.7883 5.771C19.6163 5.535 15.5113 0 10.2683 0C5.02532 0 0.919316 5.535 0.747316 5.771C0.667833 5.87988 0.625 6.0112 0.625 6.146C0.625 6.28081 0.667833 6.41213 0.747316 6.521C0.919316 6.757 5.02432 12.292 10.2673 12.292C15.5103 12.292 19.6153 6.757 19.7873 6.521C19.8669 6.41223 19.91 6.28097 19.9101 6.14616C19.9103 6.01136 19.8677 5.87999 19.7883 5.771ZM10.2683 11.02C6.40632 11.02 3.06132 7.346 2.06832 6.145C3.05732 4.945 6.39532 1.271 10.2683 1.271C14.1413 1.271 17.4743 4.944 18.4683 6.146C17.4753 7.348 14.1393 11.02 10.2683 11.02Z" fill="#697F9B"/>
</g>
</g>
<g id="Group 58562">
<g id="Group 58561">
<path id="Path 11234" d="M10.2684 2.33008C9.51384 2.33008 8.77624 2.55382 8.14887 2.97302C7.52149 3.39222 7.03252 3.98803 6.74378 4.68513C6.45503 5.38224 6.37947 6.14931 6.52667 6.88934C6.67388 7.62938 7.03722 8.30914 7.57076 8.84268C8.10429 9.37622 8.78406 9.73956 9.52409 9.88676C10.2641 10.034 11.0312 9.95843 11.7283 9.66968C12.4254 9.38093 13.0212 8.89195 13.4404 8.26457C13.8596 7.6372 14.0834 6.8996 14.0834 6.14507C14.0823 5.13359 13.68 4.16385 12.9648 3.44862C12.2496 2.7334 11.2798 2.33114 10.2684 2.33008ZM10.2684 8.68806C9.76541 8.68806 9.27376 8.53893 8.85556 8.25951C8.43737 7.98008 8.11142 7.58291 7.91895 7.11824C7.72647 6.65357 7.67611 6.14225 7.77423 5.64896C7.87235 5.15566 8.11456 4.70254 8.4702 4.34689C8.82585 3.99125 9.27895 3.74906 9.77225 3.65094C10.2655 3.55282 10.7769 3.60317 11.2415 3.79564C11.7062 3.98811 12.1034 4.31406 12.3828 4.73225C12.6622 5.15045 12.8114 5.64211 12.8114 6.14507C12.8106 6.81927 12.5424 7.46563 12.0657 7.94237C11.5889 8.4191 10.9426 8.68727 10.2684 8.68806Z" fill="#697F9B"/>
</g>
</g>
</g>
</svg>
