<svg width="12" height="11" viewBox="0 0 12 11" fill="none" xmlns="http://www.w3.org/2000/svg">
<path d="M9.75 8.5C8.5095 8.5 7.5 7.4905 7.5 6.25C7.5 5.0095 8.5095 4 9.75 4H11V3C11 2.4485 10.5515 2 10 2H9.5V1C9.5 0.4485 9.0515 0 8.5 0H1.5C0.7585 0 0.1455 0.542 0.0255 1.2495C0.0145 1.2905 0 1.3305 0 1.375V9C0 9.827 0.673 10.5 1.5 10.5H10C10.5515 10.5 11 10.0515 11 9.5V8.5H9.75ZM1 1.5C1 1.2245 1.224 1 1.5 1H8.5V2H1.5C1.224 2 1 1.7755 1 1.5Z" fill="white"/>
<path d="M11.625 4.75H9.75C8.923 4.75 8.25 5.423 8.25 6.25C8.25 7.077 8.923 7.75 9.75 7.75H11.625C11.832 7.75 12 7.582 12 7.375V5.125C12 4.918 11.832 4.75 11.625 4.75ZM9.75 6.75C9.474 6.75 9.25 6.526 9.25 6.25C9.25 5.974 9.474 5.75 9.75 5.75C10.026 5.75 10.25 5.974 10.25 6.25C10.25 6.526 10.026 6.75 9.75 6.75Z" fill="white"/>
</svg>
