<svg width="23" height="21" viewBox="0 0 23 21" fill="none" xmlns="http://www.w3.org/2000/svg">
<g id="Group 58746">
<path id="Vector" d="M20.2011 2.79053C20.0803 1.23169 18.7742 0 17.185 0H3.02622C1.35756 0 0 1.35756 0 3.02622V17.0279C0 18.6965 1.35756 20.0541 3.02622 20.0541H19.3831C21.0518 20.0541 22.4094 18.6965 22.4094 17.0279V5.70348C22.4093 4.31831 21.4735 3.14837 20.2011 2.79053ZM3.02622 1.41371H17.185C17.9544 1.41371 18.5991 1.95538 18.7591 2.6773H3.02622C2.43374 2.6773 1.88094 2.84911 1.41371 3.14457V3.02622C1.41371 2.13709 2.13709 1.41371 3.02622 1.41371ZM19.3831 18.6404H3.02622C2.13709 18.6404 1.41371 17.917 1.41371 17.0279V5.70348C1.41371 4.81434 2.13709 4.09096 3.02622 4.09096H19.3831C20.2723 4.09096 20.9957 4.81434 20.9957 5.70348V8.17031H16.4883C14.7022 8.17031 13.2491 9.62347 13.2491 11.4096C13.2491 13.1957 14.7022 14.6489 16.4883 14.6489H20.9956V17.0279C20.9956 17.917 20.2722 18.6404 19.3831 18.6404ZM20.9956 13.2352H16.4883C15.4817 13.2352 14.6628 12.4163 14.6628 11.4096C14.6628 10.403 15.4817 9.58402 16.4883 9.58402H20.9956V13.2352Z" fill="#8393BA"/>
<path id="Vector_2" d="M21.7496 8.14177C22.156 8.14177 22.4855 7.81228 22.4855 7.40585C22.4855 6.99941 22.156 6.66992 21.7496 6.66992C21.3432 6.66992 21.0137 6.99941 21.0137 7.40585C21.0137 7.81228 21.3432 8.14177 21.7496 8.14177Z" fill="#8393BA"/>
</g>
</svg>
