<svg width="16" height="16" viewBox="0 0 16 16" fill="none" xmlns="http://www.w3.org/2000/svg">
<path id="Vector" d="M14.7962 3.91588C12.4233 -0.263832 6.61878 -1.28342 2.94539 1.76193C2.75806 1.94214 2.45176 2.0832 2.44692 2.37443C2.44638 2.59648 2.62671 2.77723 2.84957 2.77776C2.95131 2.77723 3.04928 2.73861 3.12357 2.66889C3.97893 1.87939 5.03939 1.31516 6.13108 1.0309C5.4329 1.89548 4.88652 3.24653 4.58345 4.89202C3.10957 4.55306 2.14816 4.06767 1.67661 3.74532C1.52157 3.65039 1.29495 3.67024 1.17383 3.81451C-2.09314 8.91995 1.87524 15.9069 7.95162 15.813C14.0334 15.8779 17.8973 9.03473 14.7962 3.91588ZM13.8864 3.95557C13.3632 4.25378 12.489 4.62117 11.3198 4.89149C11.0167 3.24385 10.4687 1.89119 9.76894 1.02661C11.4215 1.43315 12.9826 2.56269 13.8864 3.95557ZM7.95162 0.795444C8.95718 0.795444 10.0489 2.44791 10.5279 5.04917C9.04384 5.32861 6.85886 5.32861 5.37476 5.04917C5.85439 2.44738 6.94607 0.795444 7.95162 0.795444ZM5.25418 5.84618C6.8158 6.1358 9.08745 6.1358 10.6491 5.84618C10.8197 7.20098 10.8364 8.751 10.6232 10.138C8.86889 10.4576 7.03058 10.4582 5.27571 10.1385C5.08569 8.83253 5.07708 7.16558 5.25418 5.84618ZM1.61739 4.6555C2.22299 5.00036 3.18763 5.40369 4.4591 5.69117C4.27877 7.0272 4.27231 8.61531 4.44134 9.95938C3.19516 9.65635 1.99098 9.1892 0.860536 8.56436C0.73565 7.25354 0.975195 5.90035 1.61739 4.6555ZM1.02526 9.56034C2.15247 10.124 3.34158 10.5424 4.56676 10.8127C4.86445 12.4947 5.41406 13.879 6.12139 14.7613C3.61881 14.1509 1.55495 11.9615 1.02526 9.56034ZM7.89187 15.0005C6.93261 14.9388 5.90983 13.3973 5.42052 10.9757C7.08118 11.2498 8.80753 11.2498 10.4682 10.9763C10.3406 11.585 10.1856 12.1879 9.97673 12.7763C9.89652 12.9838 10.0004 13.2166 10.2082 13.296C10.416 13.3753 10.6501 13.2724 10.7304 13.0653C10.992 12.3306 11.1847 11.5759 11.3268 10.8122C12.5622 10.5392 13.7621 10.116 14.8979 9.54479C14.1992 12.7414 11.0388 15.1008 7.89187 15.0005ZM11.4565 9.95885C11.6439 8.57026 11.6196 7.04758 11.4436 5.69117C12.7237 5.40209 13.6921 4.995 14.2966 4.64906C14.9135 5.84778 15.18 7.20259 15.0551 8.55417C13.9198 9.18437 12.7092 9.6542 11.4565 9.95885Z" fill="white"/>
</svg>
