<svg width="25" height="25" viewBox="0 0 25 25" fill="none" xmlns="http://www.w3.org/2000/svg"><path fill-rule="evenodd" clip-rule="evenodd" d="M3.513 10.05v2.986H2.634A2.633 2.633 0 0 1 0 10.4V5.134A2.633 2.633 0 0 1 2.634 2.5H21.95a2.633 2.633 0 0 1 2.634 2.634v5.268a2.633 2.633 0 0 1 -2.635 2.635h-0.877v-2.988a2.635 2.635 0 0 0 -1.316 -4.915H4.83a2.635 2.635 0 0 0 -1.317 4.916m1.755 -1.404h-0.438a0.879 0.879 0 0 1 0 -1.756h14.925a0.879 0.879 0 0 1 0 1.756h-0.44v12.291a2.633 2.633 0 0 1 -2.634 2.634H7.901a2.633 2.633 0 0 1 -2.634 -2.634zm6.146 10.572v0.401a0.879 0.879 0 0 0 1.756 0v-0.512a2.494 2.494 0 0 0 1.462 -2.268c0 -1.231 -0.72 -1.826 -1.665 -2.23 -0.36 -0.154 -0.755 -0.275 -1.1 -0.439 -0.231 -0.112 -0.454 -0.237 -0.454 -0.55a0.732 0.732 0 0 1 1.366 -0.365 0.877 0.877 0 1 0 1.519 -0.88 2.5 2.5 0 0 0 -1.129 -1.022v-0.512a0.879 0.879 0 0 0 -1.756 0v0.401a2.494 2.494 0 0 0 -1.756 2.379c0 1.232 0.72 1.826 1.666 2.23 0.36 0.154 0.755 0.275 1.1 0.439 0.23 0.112 0.454 0.237 0.454 0.55a0.732 0.732 0 0 1 -1.366 0.365 0.877 0.877 0 1 0 -1.52 0.88 2.5 2.5 0 0 0 1.422 1.134" fill="white"/></svg>